<svg xmlns="http://www.w3.org/2000/svg" version="1.1" xmlns:xlink="http://www.w3.org/1999/xlink" xmlns:svgjs="http://svgjs.com/svgjs" width="1170.5" height="1072.4"><svg id="SvgjsSvg1000" data-name="Layer 1" xmlns="http://www.w3.org/2000/svg" version="1.1" viewBox="0 0 1170.5 1072.4">
  <defs>
    <style>
      .cls-1 {
        fill: #36312d;
      }

      .cls-1, .cls-2, .cls-3 {
        stroke-width: 0px;
      }

      .cls-2 {
        fill: #fff;
      }

      .cls-3 {
        fill: #c5cfc6;
      }
    </style>
  </defs>
  <path class="cls-3" d="M1096.8,280.6h0l-51.5,30c96.3-56.1,128.9-179.8,73-276.3l-532.4,310.3L52.2,34.3C-3.8,130.8,28.9,254.5,125.2,310.6l-51.5-30h0c-56,96.5-23.3,220.2,73,276.3l-49.9-29.1h0c-56,96.5-23.3,220.2,73,276.3l379.8,221.4,35.8,12.6,35.8-12.6,379.8-221.4c96.3-56.1,128.9-179.8,73-276.3h0l-49.9,29.1c96.3-56.1,128.9-179.8,73-276.3h-.3ZM585.2,578.8h0Z"></path>
  <polygon class="cls-2" points="283 519.3 283 868.5 585.4 1043.1 887.8 868.5 887.8 519.3 585.4 344.7 283 519.3"></polygon>
  <path class="cls-1" d="M1139.7,21.5l-12.5-21.5-541.4,315.5L43.2,0l-12.5,21.5C.4,73.9-7.8,135,7.6,193.5c8,30.2,21.8,57.9,40.4,81.7-26.9,50.7-33.7,108.7-19,164.5,8.2,30.9,22.4,59.1,41.6,83.3-26.6,50.5-33.3,108.3-18.6,163.9,15.5,58.6,52.8,107.6,105.1,138.1l105.7,61.6,22.5,12.6,300,173.2,312.4-180.4,7.7-4.2,107.9-62.9c52.3-30.5,89.6-79.5,105.1-138.1,14.7-55.6,8-113.4-18.6-163.9,19.3-24.2,33.5-52.5,41.6-83.3,14.7-55.8,8-113.9-19-164.5,18.6-23.9,32.4-51.5,40.4-81.7,15.5-58.6,7.3-119.7-23.1-172.1v.2ZM585.4,374.1l104.8,60.5-254.4,146.9-104.8-60.5,254.4-146.9ZM62.7,68.7l473.2,275.2-152.6,88.1-245.7-143.2C60.6,243.9,30,149.2,62.7,68.7ZM84.1,315l249.7,145.5-76.3,44.1v87.8l-98.4-57.3c-77-44.9-107.7-139.6-75-220.1h0ZM107.2,562.2l150.3,87.6v176.4l-75.4-43.9c-77-44.9-107.7-139.6-75-220.1h0ZM559.9,999l-251.5-145.2v-287.1l251.5,145.2v287.1ZM486.7,610.9l254.4-146.9,98.7,57-254.4,146.9-98.7-57ZM862.4,853.8l-251.5,145.2v-287.1l251.5-145.2v287.1h0ZM988.3,782.3l-75.1,43.8v-176.4l150-87.4c32.7,80.5,2.1,175.2-75,220.1h.1ZM1011.4,535.1l-98.1,57.2v-87.6l-76.5-44.2,249.6-145.4c32.7,80.5,2.1,175.1-74.9,220h0ZM1032.8,288.8l-245.5,143.1-152-87.8,472.5-275.4c32.7,80.5,2.1,175.2-75,220.1Z"></path>
</svg><style>@media (prefers-color-scheme: light) { :root { filter: none; } }
@media (prefers-color-scheme: dark) { :root { filter: invert(100%); } }
</style></svg>