<?xml version="1.0" encoding="utf-8"?>
<!-- Designed by Vexels.com - 2019 All Rights Reserved - https://vexels.com/terms-and-conditions/  -->
<svg version="1.1" id="Layer_1" xmlns="http://www.w3.org/2000/svg" xmlns:xlink="http://www.w3.org/1999/xlink" x="0px" y="0px"
	 viewBox="0 0 1200 1200" enable-background="new 0 0 1200 1200" xml:space="preserve">
<g>
	<g>
		<g>
			
				<rect x="743.197" y="255.329" transform="matrix(0.9812 -0.1932 0.1932 0.9812 -101.4309 156.1247)" fill="#59351E" width="13.529" height="685.832"/>
			<path fill="#D09D33" d="M837.036,957.324c2.418-6.007,2.867-17.22-9.161-27.363c0,0,0.394-8.343-8.424-13.754
				c-3.458-3.698-13.465,1.644-13.465,1.644s-5.924,13.374,3.187,20.108c0,0-4.986,15.246,4.872,22.865l-4.827,19.802l41.83,79.208
				l1.393-87.461L837.036,957.324z"/>
			<path fill="#D4AD36" d="M844.069,1046.619c-6.613-21.869-10.832-44.579-4.943-68.132c2.574-10.296-7.722-18.018-18.018-20.592
				c5.148-5.148,10.379-15.297,5.148-18.018c-13.538-4.488-5.148-7.722-7.722-18.018c-1.873-3.745-7.828-4.752-12.918-3.048
				c-1.138,3.146-4.108,13.483,3.558,19.148c0,0-4.986,15.246,4.872,22.865l-4.827,19.802L844.069,1046.619z"/>
		</g>
		<g>
			<path fill="#A83127" d="M589.67,137.726c0,0-20-47.33-54.908-58.844s32.725-35.387,47.574-26.409c0,0,70.379-10.056,87.609,10.39
				c0,0,9.949-3.687,21.561,16.019c11.612,19.706,20.585,1.843,26.394,27.381c0,0,22.706,18.722,20.236,35.083
				c0,0,7.581,0.115,9.531,19.863c0,0,14.106,5.798,13.342,25.726c-0.721,13.95,9.296,8.742,18.202,45.398
				c8.906,36.656,19.643,127.654,3.161,164.183s4.976-50.991-15.533-91.337s-37.865-76.433-37.865-76.433
				s-36.371-55.106-61.725-59.718C641.895,164.415,589.67,137.726,589.67,137.726z"/>
			<path fill="#BC3F35" d="M576.575,62.136c28.314,0,59.202,0,90.091,10.296c25.74,7.722,30.888,36.036,54.054,54.054
				c7.722,5.148,7.722,18.018,12.87,28.314c5.148,12.87,10.296,28.314,18.018,41.184c8.457,10.336,17.596,19.988,25.923,29.954
				c-8.437-29.687-17.199-25.927-16.523-39.005c0.764-19.928-13.342-25.726-13.342-25.726c-1.949-19.748-9.531-19.863-9.531-19.863
				c2.47-16.361-20.236-35.083-20.236-35.083c-5.809-25.538-14.783-7.675-26.395-27.381c-11.611-19.706-21.561-16.019-21.561-16.019
				c-17.23-20.446-87.609-10.39-87.609-10.39c-14.633-8.847-80.516,14.204-49.032,25.897c-0.175-0.243-0.342-0.5-0.486-0.789
				c0.145,0.29,0.311,0.547,0.486,0.789c0.466,0.173,0.949,0.344,1.458,0.512c1.664,0.549,3.283,1.202,4.878,1.905
				c2.441-0.058,4.826-0.632,6.048-0.632C555.983,72.432,568.853,64.71,576.575,62.136z"/>
		</g>
		<g>
			<path fill="#C26F45" d="M633.513,787.63c0,0,21.66,58.516,23.77,73.595s4.361,32.574,4.361,32.574s0.015,37.867,10.78,57.583
				c10.765,19.715,54.349,25.083,57.636-5.23c3.286-30.313,3.469-47.382-6.257-64.526c0,0,4.588-77.548-4.562-97.166
				C710.092,764.843,633.513,787.63,633.513,787.63z"/>
			<path fill="#C26F45" d="M509.337,763.877c0,0,2.864,67.769-3.299,82.912s-36.758,65.007-32.432,91.17s60.7,17.837,68.198,1.502
				c7.498-16.335,21.307-52.659,20.566-68.8c0,0,15.268-18.276,22.018-44.481c6.75-26.205,18.479-47.453,18.479-47.453
				S529.446,731.414,509.337,763.877z"/>
			<path fill="#CE8966" d="M702.619,890.46c-5.148-15.444,15.527-27.805,5.231-43.249c-7.722-10.296-15.444-20.592-12.87-33.462
				c-16.281-2.035-35.776,5.571-52.132-0.054c6.148,17.648,13.27,39.205,14.435,47.53c2.11,15.079,4.361,32.574,4.361,32.574
				s0.015,37.867,10.78,57.583c10.766,19.715,54.35,25.083,57.636-5.23c1.388-12.801,2.21-23.223,1.978-32.303
				C713.743,918.96,705.951,905.453,702.619,890.46z"/>
			<path fill="#CE8966" d="M537.965,906.414c-2.574-36.036,38.61-59.202,12.87-97.813c-2.574-2.574-10.296-2.574-12.87,0
				c-8.009,10.011-17.583,15.334-28.708,17.211c-0.586,9.197-1.582,16.952-3.219,20.976c-6.163,15.143-36.758,65.007-32.432,91.17
				c3.218,19.459,35.214,19.833,54.492,12.03C536.841,935.768,539.663,918.301,537.965,906.414z"/>
		</g>
		<g>
			<path fill="#6B3123" d="M524.879,325.287l205.403-4.968c0,0,14.869,111.036-4.155,145.591
				c-19.024,34.555-27.906,33.861-29.444,45.168c-1.537,11.308-4.285,65.496,7.951,80.259
				c12.236,14.763,20.076,29.373,24.339,64.191c4.264,34.819,24.059,128.931,24.059,128.931s-14.346,6.36-28.628,9.764
				c-14.281,3.404-32.99,13.395-55.835,1.76s-16.565,20.81-50.294-10.163c0,0-60.137,22.333-94.179-7.128
				S524.879,325.287,524.879,325.287z"/>
			<path fill="#803D2E" d="M592.02,373.592c28.314,20.592,30.888,56.628,46.332,84.943c7.722,12.87,33.462,10.296,41.184-5.148
				c10.296-18.018,30.888-30.888,33.462-51.48c2.459-27.049-6.787-54.098-0.89-81.147l-159.042,3.846
				C563.774,341.504,574.194,357.549,592.02,373.592z"/>
			<path fill="#803D2E" d="M692.406,638.716c-7.722,20.592,0,43.758-12.87,64.35c-20.592-18.018-2.574-51.48-12.87-74.647
				c-2.574,0-7.722-7.722-10.296-5.148c-30.657,51.734-14.256,116.301-31.469,168.227c26.333,20.848,22.457-6.316,43.668,4.486
				c22.845,11.634,41.554,1.643,55.835-1.761c5.896-1.405,11.788-3.312,16.692-5.07c-16.624-46.735-23.665-93.666-30.673-142.716
				C710.424,641.29,700.128,625.846,692.406,638.716z"/>
		</g>
		<g>
			<path fill="#BB7826" d="M542.154,349.268c-4.091-21.768,3.701-44.283-24.78-43.774c-28.481,0.509-83.781,25.125-47.911,61.89
				S542.154,349.268,542.154,349.268z"/>
			<path fill="#D09D33" d="M504.503,342.704c2.574-5.148-12.87,0-18.018-2.574c-2.574-2.574,0-7.722,2.574-10.296
				c15.29-2.184,25.016-11.793,33.903-24.087c-1.693-0.193-3.536-0.289-5.588-0.253c-28.481,0.509-83.781,25.125-47.911,61.89
				c1.145,1.174,2.292,2.249,3.438,3.241C484.99,362.169,498.862,355.865,504.503,342.704z"/>
		</g>
		<path fill="#C26F45" d="M563.536,220.693l-7.139,38.854c0,0,8.031,14.806,8.72,32.84l19.502,11.221l-6.846,23.608l-21.593,1.878
			c0,0,5.016,48.663,61.031,45.917c46.051-0.827,63.161-53.501,63.161-53.501s-34.888-2.862-38.453-17.902
			C638.352,288.567,665.081,135.88,563.536,220.693z"/>
		<path fill="#CE8966" d="M597.168,229.447c-2.262-9.049-8.504-18.091-18.719-20.151c-4.64,3.194-9.59,6.951-14.913,11.396
			l-7.139,38.854c0,0,8.031,14.806,8.72,32.84l17.547,10.096C597.895,281.962,605.018,254.961,597.168,229.447z"/>
		<path fill="#BB7826" d="M471.843,925.297c0,0,32.599-6.146,77.633,15.343c0,0-0.383,5.118-5.616,9.532
			c0,0-0.15,10.524-5.14,22.201c-4.99,11.677-4.117,32.011-16.012,49.992c-11.895,17.981-5.337,34.92-9.351,44.214
			c-4.014,9.293-5.767,16.352-6.007,21.199c-0.24,4.847-0.705,42.722-0.705,42.722l-11.091,2.005c0,0,6.336,11.375-14.859,14.161
			s-67.723,0.763-68.349-7.428c-0.626-8.192,6.301-20.637,24.734-23.894c0,0,23.209-22.131,25.358-32.881
			c6.331-34.643-3.712-91.646,5.891-119.192C473.606,937.959,462.764,930.314,471.843,925.297z"/>
		<path fill="#8A4822" d="M698.4,548.741c0,0,13.842,26.578,9.28,38.141c-5.06,5.74-51.988,12.389-71.12,16.709
			c-19.132,4.32-12.835-59.258-12.835-59.258S674.253,524.944,698.4,548.741z"/>
		<path fill="#BB7826" d="M667.034,951.286c2.881-4.556,58.411,2.108,74.648-8.72c4.28-1.927-1.091,26.681-2.481,63.664
			c0,0,3.486,21.868-1.389,36.983c-4.876,15.115-5.876,17.803-3.439,25.536c2.438,7.733,7.965,7.551,7.07,14.601
			c0,0,13.271,15.568,18.111,25.889c0,0,49.352,3.399,58.234,33.264c0,0-51.324,13.741-85.779-3.854c0,0-31.121,3.839-43.458-4.138
			c0,0-1.928-28.137,6.07-38.981c0,0,1.677-6.971-4.628-15.384c-6.305-8.413,1.855-31.165-3.245-43.714
			c-5.1-12.549-9.843-26.975-7.448-36.689C679.3,999.743,660.345,961.866,667.034,951.286z"/>
		<path fill="#C26F45" d="M765.637,350.397c8.242,4.71,31.03,19.955,26.602,80.695c0,0,15.938,30.816,8.246,82.644
			c0,0,20.155,63.601,8.723,148.387c-5.454,33.937-4.324,42.854-4.324,42.854s-6.669,15.573-24.147,14.577
			c0,0-3.616-18.366-4.494-22.341c-3.261-0.929-10.689-1.221-11.048,13.435c-3.144,13.659-16.224,1.09-16.224,1.09
			s-11.911-13.573-7.959-19.345c7.383-9.589,2.772-20.404,11.555-24.633c8.782-4.229,17.546-21.308,26.644-22.892
			c0,0-2.068-35.921-9.939-56.639c-7.871-20.718-15.583-38.02-8.984-73.519c5.35-20.885-42.902-79.711-36.087-110.746
			S765.637,350.397,765.637,350.397z"/>
		<path fill="#932308" d="M557.618,265.112c-0.224-3.887,25.101-4.908,32.159,8.277s21.744,18.226,29.347,17.698
			c7.603-0.528,34.535,4.755,45.18,16.54c0,0,30.062,11.503-4.754,17.478c0,0,9.761,9.642-2.564,8.805
			c-12.324-0.837-15.346-5.938-18.22-15.822s-9.05-5.752-5.562,2.955c3.487,8.708,6.891,21.042-34.316,18.046
			c0,0-2.165,19.134-20.281,11.931c-7.861-4.484-0.544-9.442-15.071-13.695c-14.527-4.253-3.366-17.267,2.678-25.706
			c6.044-8.439-6.137-17.559-1.966-27.783c0,0,23.061,2.035,19.986-3.785C579.565,267.964,557.618,282.588,557.618,265.112z"/>
		<path fill="#654126" d="M557.477,211.229c0,0,8.58-39.164,37.587-40.033c0,0,2.719-23.559-5.393-33.47
			c0,0,45.912-25.916,89.311,36.556c0,0-23.269,5.729-29.126,19.487c0,0,8.103,12.763,5.441,51.123
			c-2.663,38.36,9.861,58.826,9.861,58.826s-40.211-13.069-63.282,3.436l-7.768-62.111c0,0,29.388-4.254,9.748-27.86
			C584.214,193.577,557.477,211.229,557.477,211.229z"/>
		<path fill="#BB7826" d="M622.143,509.741c7.093,3.123,21.285,0.875,27.702,0.669s55.078-4.526,52.929,0.669
			c-2.148,5.195,6.402,4.735,7.143,10.953c0.741,6.218,8.233,33.961-11.518,26.709c-19.751-7.252-40.313-12.209-59.895-1.43
			c0,0,6.157,66.927,22.601,114.811c0,0-7.846,9.563-13.928,0c-6.082-9.563-6.123,6.319-13.364,6.937s-13.09-57.58-13.09-57.58
			s-4.578,50.499-7.425,71.79c-2.847,21.291-14.623,13.582-28.912,0C570.099,669.688,599.458,499.753,622.143,509.741z"/>
		<path fill="#59351E" d="M548.195,353.117c47.222,15.628,105.644,85.209,56.55,267.399
			c-49.094,182.19-162.877,224.153-218.08,157.836S372.836,295.084,548.195,353.117z"/>
		<circle fill="#BB7826" cx="673.786" cy="570.765" r="17.604"/>
		<path fill="#804C2F" d="M589.67,137.726c1.331,1.627,2.347,3.642,3.155,5.839c29.222-7.356,64.911,4.141,79.576,32.844
			c3.825-1.436,6.581-2.127,6.581-2.127C635.581,111.81,589.67,137.726,589.67,137.726z"/>
		<path fill="#774B2C" d="M638.352,216.577c-2.574-10.296-10.296-20.592-10.296-30.888c2.574,0,7.722,0,10.296,0
			c0-28.314-20.592-30.888-43.758-38.61c-0.288-0.144-0.541-0.325-0.814-0.485c2.851,10.903,1.284,24.603,1.284,24.603
			c-29.007,0.869-37.587,40.032-37.587,40.032s26.738-17.652,46.378,5.954c19.64,23.606-9.747,27.86-9.747,27.86l7.768,62.111
			c10.125-7.243,23.55-8.79,35.43-8.245C631.897,272.616,638.352,243.951,638.352,216.577z"/>
		<path fill="#864C2C" d="M565.509,173.201c0,0-3.886,7.217-7.749,16.186s-7.702,19.692-7.609,26.703c0,0,0.668,2.967,1.751,7.367
			s2.583,10.232,4.245,15.962c0.26,0.896,0.976,1.458,1.769,1.612s1.664-0.102,2.235-0.84c4.003-5.175,12.128-14.56,21.813-19.639
			c9.685-5.079,20.93-5.851,31.174,6.199l5.501-6.597l5.501-6.597c0,0-10.533-9.039-23.128-18.602S573.759,175.301,565.509,173.201z
			"/>
		<path fill="#804C2F" d="M649.855,193.769c1.67-3.924,4.754-7.189,8.308-9.856c-15.49-17.702-39.338-26.64-62.831-26.813
			c0.47,7.602-0.268,14.096-0.268,14.096c-0.033,0.001-0.064,0.006-0.096,0.007c19.091,6.159,39.593,11.139,55.925,24.704
			C650.276,194.438,649.855,193.769,649.855,193.769z"/>
		<path fill="#8F5533" d="M630.376,164.211c-11.006-4.643-23.068-7.023-35.044-7.111c0.47,7.602-0.268,14.096-0.268,14.096
			c-0.033,0.001-0.064,0.006-0.096,0.007c10.925,3.524,22.308,6.669,33.111,11.251C630.439,176.374,631.546,170.292,630.376,164.211
			z"/>
		<path fill="#A05E38" d="M610.893,217.819c2.869-4.152,2.973-7.001,5.238-10.933c-4.081-3.334-9.379-7.573-15.118-11.931
			c-12.595-9.564-27.253-19.653-35.503-21.753c0,0-3.886,7.216-7.749,16.186c-3.863,8.969-7.702,19.691-7.609,26.703
			c0,0,0.668,2.967,1.751,7.367c0.843,3.423,1.941,7.715,3.168,12.149C564.6,215.396,594.203,200.05,610.893,217.819z"/>
		<circle fill="#6D4629" cx="612.906" cy="214.999" r="3.472"/>
		<path fill="#CE8966" d="M812.139,588.156c-2.411-45.2-11.654-74.419-11.654-74.419c1.072-7.224,1.672-14.023,1.933-20.403
			c-3.487-25.488-9.633-50.064-32.791-68.26c-10.296-10.296,5.148-36.036-10.296-30.888c-10.977,1.829-20.657,21.85-33.654,30.514
			c8.434,31.71,38.922,73.178,34.611,90.01c-6.599,35.499,1.113,52.801,8.984,73.519c7.871,20.718,9.939,56.639,9.939,56.639
			c-9.099,1.584-17.862,18.663-26.644,22.892c-8.782,4.229-4.171,15.044-11.554,24.633c-3.952,5.772,7.959,19.345,7.959,19.345
			s3.394,3.256,7.139,4.651c-4.211-14.49-1.092-26.429,16.091-31.339c1.195,3.583,2.379,7.722,2.802,11.899
			c0.453,0.068,0.876,0.16,1.241,0.264c0.541,2.447,2.118,10.343,3.251,16.055c5.088-2.601,10.072-5.052,15.873-5.052
			C785.752,667.348,805.317,628.726,812.139,588.156z"/>
		<path fill="#D09D33" d="M481.337,1127.78c23.166-2.574,0-25.74,0-43.758c2.574-5.148,10.296-5.148,15.444-5.148
			c2.574-38.61,5.148-77.221,12.87-110.683c4.179-8.358,18.532-18.413,23.789-34.293c-36.533-13.322-61.597-8.6-61.597-8.6
			c-9.079,5.017,1.763,12.661-3.514,37.974c-9.603,27.546,0.439,84.548-5.891,119.192c-2.149,10.749-25.358,32.88-25.358,32.88
			c-18.433,3.256-25.36,15.702-24.734,23.894c0.32,4.183,12.616,6.754,27.39,7.901
			C447.421,1134.503,461.017,1127.78,481.337,1127.78z"/>
		<path fill="#D09D33" d="M733.591,1117.484c-10.296-2.574-18.018-10.296-23.166-18.018c-2.574-7.722,10.296-12.87,10.296-18.018
			c2.574-15.444-12.87-33.462,5.148-46.332c0-2.574,0-10.296,0-15.444c4.694-25.819,7.221-47.369,1.78-72.434
			c-22.638,3.901-58.319,0.42-60.614,4.049c-6.689,10.58,12.266,48.456,12.266,48.456c-2.396,9.714,2.348,24.14,7.448,36.689
			c5.1,12.549-3.06,35.3,3.245,43.714c6.305,8.413,4.629,15.384,4.629,15.384c-7.998,10.844-6.07,38.981-6.07,38.981
			c12.337,7.977,43.458,4.138,43.458,4.138c2.121,1.083,4.307,2.045,6.541,2.901
			C733.144,1134.656,729.618,1126.752,733.591,1117.484z"/>
		<path fill="#9F331C" d="M594.223,334.235c1.835-2.607,3.494-3.756,6.731-4.573c5.296-1.337,12.231-1.647,12.69-8.589
			c0.479-7.239-7.526-6.895-11.798-9.905c-5.641-3.975-7.683-14.405-8.29-20.748c-0.197-2.06-0.259-4.046,0.095-6.044
			c0.319-1.801,1.486-3.915-0.055-5.525c-1.538-1.606-2.768-3.499-3.819-5.462c-3.529-6.593-11.625-9.634-18.81-10.541
			c-7.186-0.907-13.461,0.32-13.349,2.264c0,8.738,5.487,9.451,11.557,9.491c6.07,0.039,12.724-0.595,15.058,5.449
			c1.538,2.91-3.459,3.856-8.839,4.074c-5.381,0.219-11.146-0.29-11.146-0.29c-2.085,5.112-0.083,9.948,1.685,14.561
			c1.768,4.613,3.303,9.003,0.281,13.222c-3.385,4.727-6.844,9.231-9.185,14.608c-1.797,4.13,7.431,5.674,9.966,6.128
			c3.7,0.663,7.937,1.394,10.723,4.132c3.716,3.652,6.703,5.224,9.307,4.798c3.446-0.564,5.135-3.985,6.888-6.598
			C594.016,334.532,594.12,334.381,594.223,334.235z"/>
		<path fill="#C26F45" d="M558.205,249.704c0,0-7.381,11.263-2.347,13.621c5.035,2.359,9.171-0.76,9.171-0.76
			S560.407,258.177,558.205,249.704z"/>
		<path fill="#864C2C" d="M541.804,369.023c27.781,11.356,105.303,116.072,23.705,293.809S293.446,855.504,362.274,538.158
			C401.142,397.174,463.192,336.888,541.804,369.023z"/>
		<path fill="#8F5533" d="M601.804,513.512c0.196-86.561-41.239-136.819-60-144.488c-78.613-32.136-140.662,28.15-179.53,169.134
			c-14.009,64.592-17.272,115.412-12.902,153.902C455.833,689.964,559.582,608.8,601.804,513.512z"/>
		<g>
			<g>
				<polygon fill="#BB7826" points="447.056,551.372 471.632,531.632 488.774,556.551 501.875,544.229 488.474,523.467 
					513.667,505.596 533.717,522.839 547.358,509.659 526.627,488.283 565.794,451.934 573.271,462.659 546.557,488.422 
					565.22,511.217 535.533,539.183 518.65,525.434 508.297,531.961 518.102,551.931 493.908,577.484 468.589,555.247 
					445.063,570.801 				"/>
				<polygon fill="#BB7826" points="433.457,546.238 427.735,519.102 406.408,528.899 405.098,515.465 421.509,506.022 
					415.64,484.253 398.852,490.703 397.863,478.277 416.396,467.7 411.839,432.653 404.106,440.053 406.335,463.49 
					390.125,475.224 392.154,500.755 404.701,496.954 407.034,504.854 394.761,514.449 395.634,539.658 417.83,537.411 
					424.328,560.939 				"/>
				<polygon fill="#BB7826" points="434.971,594.575 451.549,635.305 468.3,634.245 472.608,644.575 456.65,654.58 465.566,683.14 
					484.338,681.602 489.153,697.285 479.262,702.874 488.554,740.292 500.344,734.208 493.839,710.178 504.528,700.422 
					495.158,672.202 476.097,670.35 474.379,659.355 488.554,649.203 479.552,622.778 458.926,625.337 443.046,591.548 				"/>
				<polygon fill="#BB7826" points="429.758,578.298 399.408,616.693 382.533,611.515 377.623,618.495 390.998,631.994 
					378.738,651.393 364.872,641.422 360.212,650.036 365.893,658.794 356.088,679.007 350.492,668.206 356.215,656.333 
					351.645,645.691 359.29,631.307 371.862,636.669 374.455,629.128 365.632,617.888 374.768,600.946 392.674,606.093 
					417.397,575.768 				"/>
				<path fill="#803D2E" d="M527.103,364.068c-15.135,24.273-54.029,93.669-80.541,202.086c-2.419,9.961-4.762,20.232-6.95,30.862
					c-11.429,55.187-19.279,119.177-19.589,191.275c-8.288-0.566-16.19-2.677-23.526-6.409
					c-2.806-23.655-6.203-97.169,16.602-194.879h0.026c2.214-9.575,4.711-19.382,7.49-29.395
					c16.526-59.923,42.961-127.285,84.763-196.938C512.457,360.928,519.715,362.061,527.103,364.068z"/>
				<path fill="#803D2E" d="M589.883,596.58c-2.728,10.064-6.023,20.438-9.91,31.12h-0.026
					c-54.235-4.685-102.24-17.246-140.336-30.682c-9.473-3.295-18.302-6.667-26.487-10.013h-0.026
					c-25.586-10.373-44.633-20.206-55.419-26.178l0.129-0.592l5.637-26.255l0.077-0.36c18.198,9.163,37.555,17.117,57.092,23.99
					c8.623,3.063,17.323,5.894,25.946,8.546C504.966,584.018,561.286,592.873,589.883,596.58z"/>
			</g>
			<g>
				<path fill="#6B3E23" d="M398.223,592.622c5.478,27.466,45.535,36.565,57.982-6.772c12.152-42.309-0.129-69.837-27.078-59.52
					C402.178,536.647,394.491,573.91,398.223,592.622z"/>
				<path fill="#AC2F27" d="M442.992,562.356c6.545-46.369-35.305-45.425-45.015-1.937
					C386.897,610.042,434.286,624.035,442.992,562.356z"/>
				<path fill="#BC3E36" d="M416.986,543.478c-4.278-3.208-8.104-3.281-11.493-1.746c-3.185,4.951-5.838,11.167-7.517,18.687
					c-0.903,4.047-1.383,7.829-1.561,11.38C416.997,579.495,432.425,553.77,416.986,543.478z"/>
			</g>
		</g>
		<g>
			<path fill="#BB7826" d="M680.371,358.311c0.319-15.441-2.181-36.316,13.272-44.063c15.453-7.746,26.755-1.187,37.258-0.631
				c10.502,0.556,53.608-13.183,53.77,31.621c0,0-30.05,45.586-51.816,58.725C711.089,417.102,679.948,378.769,680.371,358.311z"/>
			<path fill="#D09D33" d="M710.424,376.166c10.296-5.148,0-20.592,7.722-23.166c10.296-5.148,25.74,5.148,36.036,0
				c2.574,0,0-10.296,0-15.444c14.475,4.136,23.952,1.605,27.125-10.218c-10.348-22.67-41.664-13.258-50.408-13.72
				c-10.502-0.556-21.804-7.116-37.257,0.631c-15.453,7.747-12.952,28.622-13.272,44.063c-0.089,4.292,1.225,9.372,3.536,14.597
				C692.132,377.205,701.276,377.996,710.424,376.166z"/>
		</g>
	</g>
	<g>
		<g>
			<path fill="#781C06" d="M569.736,236.265c6.627-5.831,13.237-9.695,22.229-7.026c0.868,0.258,1.739-0.877,0.871-1.487
				c-8.361-5.877-18.392,0.971-24.375,7.021C567.584,235.66,568.775,237.111,569.736,236.265L569.736,236.265z"/>
		</g>
		<g>
			<path fill="#781C06" d="M569.701,242.95c1.925-0.646,3.861-1.272,5.888-1.494c1.658-0.182,3.323,0.074,4.963-0.188
				c0.742-0.119,1.132-1.326,0.381-1.721c-3.551-1.868-8.999-0.368-12.02,1.953C568.156,242.082,568.803,243.251,569.701,242.95
				L569.701,242.95z"/>
		</g>
		<g>
			<path fill="#781C06" d="M569.744,241.496c-1.464,1.711-0.623,4.36,1.215,5.435c0.68,0.397,1.896,0.342,2.135-0.623
				c0.358-1.445,0.421-2.867-0.206-4.251c-0.608-1.343-2.954-0.833-2.595,0.723c0.236,1.023,0.343,1.842,0.098,2.874
				c0.741-0.329,1.482-0.659,2.223-0.988c-0.972-0.554-0.984-1.316-0.913-2.399C571.767,241.302,570.362,240.774,569.744,241.496
				L569.744,241.496z"/>
		</g>
	</g>
	<g>
		<g>
			<path fill="#7A4622" d="M556.916,208.876c16.284-9.584,31.183-12.194,46.893,0.478c0.728,0.587,1.598-0.374,0.978-1.058
				c-13.937-15.371-33.233-10.115-48.664-0.653C555.316,208.138,556.106,209.352,556.916,208.876L556.916,208.876z"/>
		</g>
		<g>
			<path fill="#5D3215" d="M598.78,256.039c2.476,13.27,6.015,26.516,7.81,39.879c0.053,0.398,0.374,0.741,0.813,0.615
				c17.366-5.008,34.528-5.124,51.802,0.39c1.428,0.456,1.97-1.83,0.536-2.272c-13.244-4.083-27.11-5.411-40.783-2.748
				c-1.525,0.297-4.534,1.638-6.125,1.494c-6.083-0.549-6.378-5.92-7.71-10.93c-2.306-8.676-3.556-17.795-5.437-26.579
				C599.563,255.313,598.671,255.455,598.78,256.039L598.78,256.039z"/>
		</g>
		<g>
			<path fill="#5D3215" d="M600.331,252.482c5.138,0.378,10.266-1.55,13.481-5.688c2.784-3.584,4.393-9.735,2.233-13.938
				c-0.356-0.693-1.454-0.24-1.387,0.473c0.461,4.911,1.036,8.789-2.203,13.024c-2.882,3.768-7.339,5.558-12.023,5.365
				C599.945,251.698,599.831,252.445,600.331,252.482L600.331,252.482z"/>
		</g>
		<g>
			<path fill="#5D3215" d="M593.479,144.549c26.407-4.173,64.34,5.508,76.226,32.369c0.732,1.655,3.246,0.507,2.555-1.162
				c-11.419-27.567-52.203-40.024-79.023-32.591C592.481,143.376,592.673,144.677,593.479,144.549L593.479,144.549z"/>
		</g>
	</g>
	<g>
		<g>
			<path fill="#8F2A0A" d="M606.725,128.246c-4.224-27.295-15.682-55.604-33.173-77.144c-0.657-0.81-1.856,0.036-1.321,0.928
				c14.836,24.731,26.026,48.516,33.381,76.473C605.801,129.221,606.837,128.968,606.725,128.246L606.725,128.246z"/>
		</g>
		<g>
			<path fill="#8F2A0A" d="M563.572,80.23c17.774,13.079,23.536,31.813,30.448,51.685c0.263,0.757,1.339,0.479,1.202-0.312
				c-3.533-20.325-13.835-40.32-31.116-52.121C563.618,79.149,563.094,79.879,563.572,80.23L563.572,80.23z"/>
		</g>
		<g>
			<path fill="#8F2A0A" d="M668.947,71.868c-5.373,17.852-4.946,36.67-13.561,53.581c-0.288,0.566,0.477,1.134,0.844,0.569
				c10.395-15.965,8.897-35.985,13.838-53.824C670.268,71.471,669.164,71.146,668.947,71.868L668.947,71.868z"/>
		</g>
		<g>
			<path fill="#8F2A0A" d="M644.907,134.894c8.07-15.71,13.993-33.784,14.488-51.568c0.018-0.639-1.02-0.844-1.144-0.177
				c-3.308,17.849-7.072,34.592-14.299,51.289C643.715,134.985,644.631,135.431,644.907,134.894L644.907,134.894z"/>
		</g>
		<g>
			<path fill="#8F2A0A" d="M693.221,93.373c3.913,9.034,5.99,13.132,13,18.943c12.802,10.612-1.579,30.893-7.518,42.382
				c-0.349,0.674,0.621,1.284,1.019,0.618c5.507-9.195,12.192-19.176,14.991-29.584c1.078-4.008,1.301-3.658-0.412-7.546
				c-0.839-1.904-4.194-5.797-5.553-7.502c-4.796-6.016-10.513-10.909-14.534-17.823C693.851,92.236,692.936,92.715,693.221,93.373
				L693.221,93.373z"/>
		</g>
		<g>
			<path fill="#8F2A0A" d="M726.473,135.652c4.041,6.768,7.915,14.058,4.246,21.912c-3.328,7.126-10.328,9.945-17.048,12.969
				c-0.557,0.251-0.237,1.068,0.333,0.98c8.178-1.265,16.063-6.126,19.126-14.109c3.164-8.248-1.02-15.805-5.308-22.726
				C727.254,133.76,725.93,134.742,726.473,135.652L726.473,135.652z"/>
		</g>
		<g>
			<path fill="#8F2A0A" d="M697.13,181.338c8.055,4.595,16.479,8.083,25.19,11.272c12.406,4.542,32.121,9.105,36.587,23.043
				c0.235,0.733,1.285,0.475,1.158-0.283c-1.406-8.407-8.007-12.258-15.289-15.845c-15.292-7.533-32.2-10.971-47.356-18.874
				C696.99,180.427,696.722,181.105,697.13,181.338L697.13,181.338z"/>
		</g>
		<g>
			<path fill="#8F2A0A" d="M710.236,196.019c23.127,18.827,41.696,41.375,57.464,66.605c0.331,0.53,1.214,0.144,0.898-0.425
				c-14.46-26.081-34.603-48.298-57.901-66.765C710.322,195.136,709.864,195.716,710.236,196.019L710.236,196.019z"/>
		</g>
		<g>
			<path fill="#8F2A0A" d="M752.107,260.152c13.083,19.8,21.534,40.909,27.844,63.678c0.15,0.541,0.996,0.437,0.883-0.141
				c-4.542-23.115-14.59-44.629-27.697-64.087C752.722,258.987,751.692,259.524,752.107,260.152L752.107,260.152z"/>
		</g>
		<g>
			<path fill="#8F2A0A" d="M787.299,279.751c-6.894-28.157-26.081-50.226-46.447-69.941c-0.45-0.436-1.188,0.152-0.759,0.642
				c18.566,21.165,38.243,41.766,46.138,69.53C786.422,280.653,787.468,280.44,787.299,279.751L787.299,279.751z"/>
		</g>
		<g>
			<path fill="#8F2A0A" d="M687.627,87.898c-0.56,22.241-3.503,41.551-19.611,58.044c-0.421,0.431,0.095,1.082,0.6,0.729
				c18.427-12.895,20.158-38.219,19.977-58.698C688.587,87.359,687.643,87.267,687.627,87.898L687.627,87.898z"/>
		</g>
		<g>
			<path fill="#8F2A0A" d="M545.928,80.78c0.401-3.223,10.184,1.669,11.252,2.296c1.159,0.681,2.247-0.914,1.364-1.841
				c-2.623-2.751-6.715-4.386-10.556-3.957c-1.877,0.21-4.192,1.395-3.497,3.593C544.706,81.553,545.834,81.533,545.928,80.78
				L545.928,80.78z"/>
		</g>
		<g>
			<path fill="#8F2A0A" d="M608.223,65.666c5.514,0.063,11.027,0.128,16.541,0.081c5.566-0.047,12.485-1.656,15.274,4.059
				c4.156,8.518,1.942,20.898,2.625,30.12c0.054,0.735,1.221,0.934,1.348,0.134c0.965-6.071,1.277-12.326,0.881-18.463
				c-0.301-4.668-0.451-12.716-3.787-16.541c-2.274-2.607-5.34-2.154-8.513-2.081c-8.152,0.187-16.292,0.47-24.438,0.846
				C607.109,63.868,607.168,65.654,608.223,65.666L608.223,65.666z"/>
		</g>
		<g>
			<path fill="#8F2A0A" d="M642.164,68.937c3.07-1.519,6.904-0.703,9.154,1.89c2.637,3.037,2.134,6.71,1.401,10.299
				c-0.161,0.79,0.994,1.313,1.468,0.648c5.927-8.314-4.164-19.819-13.046-14.712C639.945,67.749,640.932,69.546,642.164,68.937
				L642.164,68.937z"/>
		</g>
	</g>
	<g>
		<g>
			<path fill="#683B17" d="M546.261,381.423c15.637,14.954,24.932,33.002,29.988,53.875c0.191,0.787,1.34,0.466,1.202-0.312
				c-3.718-20.999-14.959-39.755-30.403-54.248C546.564,380.284,545.774,380.958,546.261,381.423L546.261,381.423z"/>
		</g>
		<g>
			<path fill="#683B17" d="M559.953,403.412c3.056,6.485,5.464,13.215,8.378,19.753c0.218,0.489,1.069,0.249,0.916-0.29
				c-1.958-6.898-5.177-13.532-8.319-19.957C560.618,402.283,559.654,402.777,559.953,403.412L559.953,403.412z"/>
		</g>
		<g>
			<path fill="#683B17" d="M553.929,401.482c1.928,2.975,3.658,6.471,6.11,9.042c0.472,0.495,1.206-0.08,0.942-0.672
				c-1.429-3.212-3.949-6.12-5.934-9.016C554.582,400.157,553.474,400.78,553.929,401.482L553.929,401.482z"/>
		</g>
		<g>
			<path fill="#683B17" d="M586.314,509.859c2.021,28.17-2.474,54.531-10.187,81.489c-0.128,0.447,0.497,0.746,0.687,0.29
				c10.723-25.767,13.439-54.292,11.06-81.913C587.786,508.721,586.241,508.852,586.314,509.859L586.314,509.859z"/>
		</g>
		<g>
			<path fill="#683B17" d="M575.508,545.917c2.745,10.697,1.378,19.994,0.614,30.711c-0.058,0.815,1.05,0.772,1.297,0.146
				c3.792-9.601,2.157-21.602-0.539-31.294C576.63,544.582,575.278,545.023,575.508,545.917L575.508,545.917z"/>
		</g>
		<g>
			<path fill="#8F2A0A" d="M433.71,538.838c4.586,6.047,6.094,13.201,5.609,20.668c-0.029,0.45,0.678,0.685,0.813,0.201
				c2.163-7.786-0.322-15.618-5.663-21.51C434.037,537.72,433.325,538.33,433.71,538.838L433.71,538.838z"/>
		</g>
		<g>
			<path fill="#8F2A0A" d="M433.488,552.866c2.809,6.137,2.989,12.044,2.554,18.669c-0.053,0.813,1.178,0.857,1.373,0.127
				c1.742-6.516,0.154-13.52-2.826-19.422C434.217,551.504,433.154,552.136,433.488,552.866L433.488,552.866z"/>
		</g>
	</g>
	<g>
		<g>
			<path fill="#9E5213" d="M695.042,517.308c-14.665,10.207-33.497,2.879-49.211,10.001c-0.691,0.313-0.192,1.404,0.511,1.201
				c16.346-4.712,35.528,0.787,49.976-9.711C697.348,518.05,696.064,516.597,695.042,517.308L695.042,517.308z"/>
		</g>
		<g>
			<path fill="#9E5213" d="M638.385,518.108c6.414,10.458-1.768,19.375-7.691,27.39c-0.401,0.542,0.419,1.161,0.895,0.733
				c7.87-7.079,14.462-18.678,7.932-28.789C639.063,516.732,637.941,517.383,638.385,518.108L638.385,518.108z"/>
		</g>
		<g>
			<path fill="#9E5213" d="M619.302,554.05c2.507-0.293,6.842-2.21,6.738-5.305c-0.013-0.395-0.469-0.791-0.858-0.529
				c-0.955,0.643-1.589,1.721-2.464,2.477c-1.039,0.898-2.255,1.468-3.603,1.703C618.068,552.578,618.228,554.176,619.302,554.05
				L619.302,554.05z"/>
		</g>
		<g>
			<path fill="#9E5213" d="M637.319,515.822c0.509-1.38-0.294-2.288-1.651-2.68c-0.289-0.083-0.736,0.13-0.833,0.424
				c-1.591,4.786-2.656,10.116-3.283,15.115c-0.089,0.711,0.989,0.792,1.195,0.168c0.865-2.621,1.451-5.345,2.117-8.023
				c0.264-1.06,0.542-2.118,0.776-3.185c0.104-0.455,0.197-0.912,0.28-1.371c-0.099-1.254,0.196-1.461,0.886-0.62
				C636.73,515.945,637.21,516.116,637.319,515.822L637.319,515.822z"/>
		</g>
		<g>
			<path fill="#9E5213" d="M634.159,543.777c1.108,7.633,2.613,15.163,3.312,22.86c0.095,1.045,1.635,0.869,1.607-0.16
				c-0.217-7.752-0.987-15.625-3.381-23.045C635.423,542.582,634.028,542.876,634.159,543.777L634.159,543.777z"/>
		</g>
		<g>
			<path fill="#9E5213" d="M628.953,552.755c0.105-0.951,0.21-1.902,0.314-2.853c0.156-1.417-2.186-1.436-2.264,0.04
				c-0.792,14.872,0.766,30.217,4.546,44.619c0.3,1.143,2.01,0.897,1.837-0.311c-2.132-14.819-3.43-29.39-4.118-44.348
				c-0.74,0.11-1.481,0.221-2.221,0.331c0.144,0.809,0.288,1.618,0.432,2.427C627.612,553.414,628.852,553.67,628.953,552.755
				L628.953,552.755z"/>
		</g>
		<g>
			<path fill="#9E5213" d="M621.331,555.611c-3.182,28.249-2.861,56.798,2.152,84.819c0.117,0.652,1.077,0.449,0.999-0.195
				c-3.396-28.209-4.544-56.185-2.262-84.537C622.267,555.126,621.396,555.038,621.331,555.611L621.331,555.611z"/>
		</g>
		<g>
			<path fill="#9E5213" d="M646.711,661.913c-6.966-12.565-10.704-25.505-12.987-39.648c-0.088-0.542-1.012-0.517-0.984,0.056
				c0.695,14.319,5.593,27.932,12.922,40.16C646.056,663.137,647.085,662.587,646.711,661.913L646.711,661.913z"/>
		</g>
		<g>
			<path fill="#9E5213" d="M641.053,534.503c9.216,0.681,18.832,0.474,28.053-0.116c0.93-0.059,0.828-1.356-0.064-1.414
				c-9.196-0.603-18.765-0.758-27.961-0.12C640.155,532.917,640.103,534.433,641.053,534.503L641.053,534.503z"/>
		</g>
		<g>
			<path fill="#9E5213" d="M666.139,567.602c-3.666,10.929,10.843,19.971,18.095,10.094c0.272-0.37-0.223-0.74-0.54-0.438
				c-3.222,3.067-8.125,4.369-12.205,2.134c-3.991-2.186-5.527-7.275-4.333-11.464C667.344,567.269,666.359,566.947,666.139,567.602
				L666.139,567.602z"/>
		</g>
		<g>
			<path fill="#9E5213" d="M685.895,570.344c-1.947-6.692-11.629-13.169-18.126-8.061c-0.457,0.359-0.021,1.02,0.479,0.942
				c3.508-0.549,6.441-1.151,9.873,0.333c3.196,1.382,5.645,3.821,6.836,7.09C685.149,571.173,686.053,570.886,685.895,570.344
				L685.895,570.344z"/>
		</g>
	</g>
	<g>
		<g>
			<path fill="#5B2121" d="M666.935,450.35c18.371-3.872,41.378-13.778,49.63-32.087c0.445-0.988-1.087-1.767-1.679-0.879
				c-11.202,16.807-28.696,27.279-48.123,32.013C666.161,449.543,666.32,450.479,666.935,450.35L666.935,450.35z"/>
		</g>
		<g>
			<path fill="#5B2121" d="M719.25,421.729c-2.145,2.994-4.774,5.675-7.645,7.978c-0.548,0.44,0.156,1.182,0.706,0.801
				c3.227-2.233,5.866-4.934,8.139-8.128C720.959,421.666,719.755,421.024,719.25,421.729L719.25,421.729z"/>
		</g>
		<g>
			<path fill="#5B2121" d="M625.078,474.559c8.563,2.266,17.498,2.933,26.148,0.75c0.675-0.17,0.458-1.127-0.218-1.045
				c-8.693,1.046-17.073,1.103-25.62-1.035C624.535,473.015,624.228,474.334,625.078,474.559L625.078,474.559z"/>
		</g>
		<g>
			<path fill="#5B2121" d="M639.168,483.26c11.819,0.207,23.21,2.388,34.605,5.384c0.544,0.143,0.864-0.629,0.314-0.838
				c-11.225-4.26-22.915-5.78-34.891-5.714C638.446,482.097,638.413,483.247,639.168,483.26L639.168,483.26z"/>
		</g>
		<g>
			<path fill="#5B2121" d="M686.789,595.553c7.817,23.401,15.448,45.214,18.696,69.881c0.143,1.083,2,0.993,1.942-0.126
				c-1.231-23.486-7.066-50.181-19.826-70.269C687.282,594.537,686.631,595.081,686.789,595.553L686.789,595.553z"/>
		</g>
		<g>
			<path fill="#5B2121" d="M681.487,602.648c3.022,27.941,6.744,56.014,12.19,83.593c0.137,0.694,1.336,0.553,1.245-0.166
				c-3.536-27.935-7.817-55.805-11.644-83.706C683.12,601.209,681.362,601.49,681.487,602.648L681.487,602.648z"/>
		</g>
		<g>
			<path fill="#5B2121" d="M666.555,607.448c4.001,38.525,4.988,76.839,4.542,115.543c-0.01,0.86,1.251,0.807,1.316-0.023
				c3.007-38.432,0.997-77.508-4.3-115.654C667.976,606.324,666.45,606.438,666.555,607.448L666.555,607.448z"/>
		</g>
		<g>
			<path fill="#5B2121" d="M624.164,656.123c-3.891,40.955-9.706,82.495-11.25,123.584c-0.027,0.707,1.108,0.869,1.246,0.158
				c7.798-40.148,9.707-82.806,11.378-123.615C625.569,655.474,624.239,655.335,624.164,656.123L624.164,656.123z"/>
		</g>
		<g>
			<path fill="#5B2121" d="M637.988,666.151c-4.626,35.68-6.38,72.933-1.535,108.682c0.115,0.852,1.392,0.857,1.365-0.043
				c-1.057-36.379-1.625-72.093,1.816-108.395C639.734,665.337,638.127,665.081,637.988,666.151L637.988,666.151z"/>
		</g>
		<g>
			<path fill="#5B2121" d="M587.69,688.166c-0.088,30.445,0.026,68.412-17.481,94.565c-0.394,0.589,0.517,1.304,0.992,0.769
				c10.553-11.871,12.852-27.717,15.003-42.959c2.457-17.419,3.377-34.895,2.973-52.472
				C589.155,687.105,587.693,687.213,587.69,688.166L587.69,688.166z"/>
		</g>
	</g>
	<g>
		<g>
			<path fill="#AA6919" d="M514.871,318.372c-9.376,6.137-20.075,8.128-31.062,9.441c-4.805,0.574-13.706,0.088-17.23,4.519
				c-2.739,3.443-1.721,7.669,1.443,10.421c6.327,5.503,18.215-0.13,24.762-0.477c0.931-0.049,0.953-1.498,0.039-1.625
				c-4.081-0.569-3.134-0.732-7.286,0.035c-0.699,0.119-1.39,0.281-2.071,0.486c-5.177,1.792-9.061-1.226-11.652-9.054
				c4.296-2.573,13.726-1.875,18.606-2.677c9.235-1.519,17.631-4.302,25.265-9.821C516.46,319.06,515.678,317.844,514.871,318.372
				L514.871,318.372z"/>
		</g>
		<g>
			<path fill="#AA6919" d="M708.05,325.406c15.967-0.83,30.788,3.908,45.135,10.478c5.317,2.435,15.486,10.351,21.983,6.435
				c11.915-7.181-4.557-18.212-11.168-19.806c-0.887-0.214-1.298,1.181-0.465,1.531c1.095,0.459,2.19,0.919,3.285,1.378
				c0.277,5.041,0.555,10.083,0.832,15.124c-1.074,0.528-8.286-3.869-9.69-4.533c-6.152-2.909-12.406-5.676-18.889-7.769
				c-10.241-3.305-20.459-4.655-31.194-3.791C707.25,324.504,707.441,325.438,708.05,325.406L708.05,325.406z"/>
		</g>
		<g>
			<path fill="#AA6919" d="M690.596,341.054c13.426,7.255,25.544,16.619,35.466,28.261c3.776,4.431,8.699,13.473,16.037,11.4
				c16.269-4.596,0.903-23.529-6.84-27.234c-0.571-0.273-1.304,0.452-0.752,0.943c1.775,1.577,2.173,1.76,3.702,3.068
				c2.036,1.385,3.874,3.011,5.513,4.879c-3.581,4.048-7.162,8.096-10.743,12.144c-2.079-0.231-9.625-11.355-11.617-13.322
				c-8.853-8.744-19.034-15.606-30.161-21.107C690.554,339.766,689.941,340.701,690.596,341.054L690.596,341.054z"/>
		</g>
		<g>
			<path fill="#AA6919" d="M810.096,980.104c12.453-5.756,23.676-7.657,37.378-8.074c0.635-0.019,0.874-1.058,0.173-1.17
				c-12.906-2.06-26.951,1.701-37.859,8.655C809.471,979.716,809.749,980.264,810.096,980.104L810.096,980.104z"/>
		</g>
		<g>
			<path fill="#AA6919" d="M815.779,961.608c5.508-3.58,11.198-4.752,17.68-4.895c0.737-0.016,0.738-1.002,0.041-1.117
				c-6.491-1.075-13.141,1.258-18.293,5.15C814.742,961.097,815.281,961.932,815.779,961.608L815.779,961.608z"/>
		</g>
		<g>
			<path fill="#AA6919" d="M812.884,939.597c2.116-2.406,4.685-4.308,7.832-5.102c3.064-0.773,5.618-0.009,8.625,0.449
				c0.631,0.096,1.261-0.781,0.638-1.234c-5.61-4.075-14.807-0.335-17.918,5.184C811.778,939.394,812.454,940.086,812.884,939.597
				L812.884,939.597z"/>
		</g>
	</g>
	<g>
		<g>
			<g>
				<path fill="#955D16" d="M734.831,956.009c-8.146,2.91-16.572,5.538-24.349,9.353c-0.756,0.371-0.153,1.514,0.604,1.295
					c8.265-2.394,16.222-6.023,24.166-9.296C736.081,957.019,735.701,955.698,734.831,956.009L734.831,956.009z"/>
			</g>
			<g>
				<path fill="#955D16" d="M722.825,970.222c-6.654,0.994-13.415,1.739-19.956,3.345c-0.562,0.138-0.434,0.922,0.141,0.883
					c6.667-0.459,13.279-1.775,19.868-2.838C723.746,971.471,723.716,970.089,722.825,970.222L722.825,970.222z"/>
			</g>
			<g>
				<path fill="#955D16" d="M735.64,1083.042c-2.768,1.241-5.423,2.647-8.074,4.116c-0.725,0.402-0.104,1.433,0.626,1.101
					c2.721-1.236,5.4-2.507,8.014-3.96C736.883,1083.924,736.368,1082.716,735.64,1083.042L735.64,1083.042z"/>
			</g>
			<g>
				<path fill="#955D16" d="M737.202,1087.137c-3.68,4.911-8.351,8.878-13.508,12.169c-0.66,0.422-0.122,1.407,0.587,1.066
					c5.77-2.775,10.389-7.012,14.08-12.221C738.926,1087.355,737.802,1086.337,737.202,1087.137L737.202,1087.137z"/>
			</g>
			<g>
				<path fill="#955D16" d="M691.847,1136.302c12.345,3.781,26.201,5.781,39.073,4.444c0.909-0.094,0.993-1.606,0.028-1.65
					c-13.335-0.61-25.729-1.442-38.83-4.335C691.113,1134.539,690.911,1136.015,691.847,1136.302L691.847,1136.302z"/>
			</g>
			<g>
				<path fill="#955D16" d="M733.488,1139.394c26.04,8.728,57.858,15.683,83.975,3.376c1.152-0.543,0.342-2.417-0.859-2.044
					c-28.645,8.896-54.199,3.949-82.658-2.917C733.043,1137.592,732.596,1139.095,733.488,1139.394L733.488,1139.394z"/>
			</g>
			<g>
				<path fill="#955D16" d="M674.654,953.114c-0.261,7.017,0.357,13.829,2.457,20.583c2.74,8.813,11.106,17.873,9.794,27.355
					c-0.043,0.313,0.428,0.42,0.486,0.102c1.182-6.5-0.998-10.448-4.12-16.217c-5.434-10.041-8.094-20.294-7.854-31.723
					C675.427,952.728,674.672,952.615,674.654,953.114L674.654,953.114z"/>
			</g>
			<g>
				<path fill="#955D16" d="M685.02,1010.323c5.759,16.335,4.9,33.759,8.012,50.599c0.078,0.422,0.686,0.371,0.667-0.065
					c-0.709-16.571-2.385-35.043-8.367-50.617C685.259,1010.05,684.951,1010.125,685.02,1010.323L685.02,1010.323z"/>
			</g>
			<g>
				<path fill="#955D16" d="M694.134,1060.908c-2.719,3.991-3.451,8.987-1.905,13.608c1.933,5.775,7.64,8.696,9.841,14.327
					c0.151,0.386,0.725,0.237,0.694-0.169c-0.276-3.669-3.056-6.007-5.487-8.52c-5.291-5.468-6.213-12.215-2.601-18.906
					C694.847,1060.933,694.341,1060.605,694.134,1060.908L694.134,1060.908z"/>
			</g>
			<g>
				<path fill="#955D16" d="M702.641,1102.124c-9.424,6.284-6.627,19.798-2.627,28.448c0.207,0.447,0.809,0.184,0.694-0.272
					c-2.436-9.629-6.315-19.722,2.596-27.403C703.815,1102.457,703.171,1101.771,702.641,1102.124L702.641,1102.124z"/>
			</g>
		</g>
		<g>
			<g>
				<path fill="#955D16" d="M513.581,946.599c8.595,1.535,17.171,3.243,25.844,4.279c0.413,0.049,0.515-0.549,0.107-0.637
					c-8.546-1.848-17.215-3.046-25.849-4.405C513.191,945.759,513.094,946.512,513.581,946.599L513.581,946.599z"/>
			</g>
			<g>
				<path fill="#955D16" d="M518.505,955.484c5.99,1.814,12.546,1.952,18.25-0.832c0.468-0.229,0.186-0.873-0.3-0.736
					c-5.959,1.678-11.567,2.308-17.626,0.603C518.203,954.343,517.874,955.293,518.505,955.484L518.505,955.484z"/>
			</g>
			<g>
				<path fill="#955D16" d="M471.9,1080.292c6.806-0.589,13.152,0.438,19.796,1.792c0.519,0.106,0.676-0.712,0.2-0.889
					c-6.41-2.388-13.462-2.625-20.202-1.925C471.021,1079.339,471.241,1080.349,471.9,1080.292L471.9,1080.292z"/>
			</g>
			<g>
				<path fill="#955D16" d="M487.71,1075.325c3.663-0.041,7.326-0.081,10.989-0.123c0.467-0.005,0.852-0.587,0.558-1
					c-3.556-4.984-9.253-9.128-15.471-9.766c-0.415-0.043-0.629,0.595-0.198,0.737c5.915,1.947,10.751,4.577,14.528,9.703
					c0.186-0.333,0.372-0.666,0.557-0.999c-3.638,0.118-7.277,0.237-10.915,0.356
					C487.063,1074.256,487.001,1075.333,487.71,1075.325L487.71,1075.325z"/>
			</g>
			<g>
				<path fill="#955D16" d="M463.046,1074.573c-0.362,1.71,0.89,3.749,2.785,3.687c0.657-0.022,0.82-0.829,0.315-1.181
					c-0.919-0.641-1.489-1.215-1.625-2.41C464.427,1073.842,463.226,1073.724,463.046,1074.573L463.046,1074.573z"/>
			</g>
			<g>
				<path fill="#955D16" d="M460.637,1120.778c2.489,1.603,5.209,2.326,8.164,1.951c0.232-0.029,0.24-0.38-0.006-0.372
					c-2.75,0.091-5.436-0.558-7.757-2.053C460.707,1120.09,460.302,1120.562,460.637,1120.778L460.637,1120.778z"/>
			</g>
			<g>
				<path fill="#955D16" d="M471.002,1119.102c3.663-1.271,7.351-2.494,10.909-4.042c0.258-0.112,0.156-0.507-0.129-0.428
					c-3.758,1.042-7.415,2.413-11.081,3.734C470.218,1118.54,470.521,1119.269,471.002,1119.102L471.002,1119.102z"/>
			</g>
			<g>
				<path fill="#955D16" d="M413.805,1141.178c17.375,6.276,35.083,9.463,53.606,8.714c9.381-0.379,18.42-1.429,25.06-8.564
					c0.831-0.893-0.239-2.265-1.25-1.481c-19.499,15.136-55.405,6.544-77.092,0.157
					C413.371,1139.781,413.076,1140.915,413.805,1141.178L413.805,1141.178z"/>
			</g>
			<g>
				<path fill="#955D16" d="M495.751,1132.837c1.723,0.055,3.388-0.188,5.093-0.403c1.419-0.179,2.806-0.099,3.595-1.427
					c0.193-0.325,0.013-0.733-0.225-0.968c-0.958-0.945-2.28-0.543-3.499-0.384c-1.795,0.235-3.573,0.413-5.312,0.942
					C494.139,1130.983,494.469,1132.796,495.751,1132.837L495.751,1132.837z"/>
			</g>
			<g>
				<path fill="#955D16" d="M502.465,1118.516c1.657-10.827,2.34-22.059,0.391-32.894c-0.045-0.251-0.455-0.178-0.437,0.072
					c0.786,11.076,1.29,21.758-0.177,32.816C502.222,1118.654,502.443,1118.656,502.465,1118.516L502.465,1118.516z"/>
			</g>
			<g>
				<path fill="#955D16" d="M503.396,1079.945c3.08-9.299,4.662-19.363,3.331-29.13c-0.047-0.345-0.566-0.321-0.545,0.034
					c0.597,10.019,0.064,19.413-3.001,29.034C503.138,1080.02,503.351,1080.082,503.396,1079.945L503.396,1079.945z"/>
			</g>
			<g>
				<path fill="#955D16" d="M506.453,1042.839c0.543-8.284,2.421-14.052,7.493-20.909c2.024-2.736,4.049-4.753,5.471-7.989
					c3.196-7.271,4.23-16.095,5.325-23.886c0.037-0.265-0.357-0.366-0.411-0.095c-2.433,12.209-4.57,22.445-12.249,32.486
					c-4.896,6.402-6.035,12.278-6.468,20.299C505.585,1043.284,506.417,1043.385,506.453,1042.839L506.453,1042.839z"/>
			</g>
			<g>
				<path fill="#955D16" d="M528.579,973.164c0.096,0,0.103-0.149,0.007-0.149C528.49,973.015,528.483,973.164,528.579,973.164
					L528.579,973.164z"/>
			</g>
			<g>
				<path fill="#955D16" d="M534.558,956.275c0.16,0,0.165-0.248,0.005-0.248C534.403,956.027,534.398,956.275,534.558,956.275
					L534.558,956.275z"/>
			</g>
			<g>
				<path fill="#955D16" d="M534.178,958.117c-0.536,8.628-3.389,15.488-8.028,22.667c-0.183,0.284,0.26,0.527,0.473,0.311
					c5.856-5.942,8.775-14.661,8.622-22.924C535.232,957.491,534.221,957.422,534.178,958.117L534.178,958.117z"/>
			</g>
			<g>
				<path fill="#955D16" d="M534.885,955.014c-0.347-0.691-0.653-1.408-1.111-2.033c-0.269-0.368-0.792-0.029-0.666,0.373
					c0.222,0.713,0.603,1.369,0.938,2.036C534.312,955.918,535.151,955.543,534.885,955.014L534.885,955.014z"/>
			</g>
			<g>
				<path fill="#955D16" d="M534.773,950.463c3.895-2.999,6.721-8.31,6.304-13.31c-0.042-0.5-0.809-0.462-0.862,0.02
					c-0.566,5.137-2.024,9.092-5.883,12.69C533.991,950.181,534.384,950.763,534.773,950.463L534.773,950.463z"/>
			</g>
		</g>
	</g>
	<g>
		<g>
			<g>
				<path fill="#973B1F" d="M717.165,860.664c2.182,8.489,1.129,16.422-1.462,24.689c-0.187,0.596,0.617,0.846,0.888,0.319
					c4.008-7.8,3.975-16.917,1.573-25.203C717.984,859.848,717,860.023,717.165,860.664L717.165,860.664z"/>
			</g>
			<g>
				<path fill="#973B1F" d="M563.987,854.248c-2.188,2.881-4.541,5.624-7.084,8.197c-2.544,2.573-5.448,4.786-7.887,7.456
					c-0.399,0.436,0.044,1.251,0.631,0.911c6.246-3.61,11.26-10.163,15.384-15.94C565.491,854.228,564.452,853.635,563.987,854.248
					L563.987,854.248z"/>
			</g>
		</g>
		<g>
			<g>
				<g>
					<path fill="#973B1F" d="M608.943,351.98c8.929,1.951,18.794,0.22,25.435-6.381c0.382-0.38-0.054-0.966-0.518-0.667
						c-7.578,4.891-15.614,7.394-24.646,5.507C608.227,350.233,607.959,351.766,608.943,351.98L608.943,351.98z"/>
				</g>
				<g>
					<path fill="#973B1F" d="M651.126,345.479c4.339-1.17,8.841-2.042,13.114-3.413c0.676-0.217,0.469-1.139-0.231-1.068
						c-4.419,0.448-8.959,1.907-13.126,3.39C650.224,344.622,650.413,345.671,651.126,345.479L651.126,345.479z"/>
				</g>
			</g>
			<g>
				<path fill="#973B1F" d="M772.582,508.383c2.031,0.455,4.057,0.807,6.128,1.006c0.791,0.076,0.855-1.16,0.133-1.348
					c-1.972-0.514-3.959-0.878-5.979-1.147C771.903,506.766,771.623,508.168,772.582,508.383L772.582,508.383z"/>
			</g>
			<g>
				<path fill="#973B1F" d="M799.95,708.089c1.43-15.373,3.536-30.605,5.744-45.881c0.077-0.531-0.702-0.603-0.814-0.097
					c-3.336,15.071-5.076,30.479-5.794,45.886C799.06,708.552,799.898,708.651,799.95,708.089L799.95,708.089z"/>
			</g>
		</g>
	</g>
</g>
</svg>
