<?xml version="1.0" encoding="utf-8"?>
<!-- Designed by Vexels.com - 2019 All Rights Reserved - https://vexels.com/terms-and-conditions/  -->
<svg version="1.1" id="Layer_1" xmlns="http://www.w3.org/2000/svg" xmlns:xlink="http://www.w3.org/1999/xlink" x="0px" y="0px"
	 viewBox="0 0 1200 1200" enable-background="new 0 0 1200 1200" xml:space="preserve">
<g>
	<g>
		<path fill="#A25B3D" d="M604.393,1090.151c0,0-5.504,8.48,28.465,16.489c17.101,4.566,21.746,28.312,75.435,20.907
			C749.822,1109.737,657.161,1068.568,604.393,1090.151z"/>
		<g>
			<path fill="#8F5533" d="M723.879,619.867c0,0,3.634-4.822,22.863,14.208c19.228,19.03,102.958,108.182,119.539,192.764
				c23.549,88.752,14.643,217.586-13.749,264.55C852.532,1091.389,720.163,886.682,723.879,619.867z"/>
			<path fill="#6B3E23" d="M723.879,619.867c0,0,90.492,68.936,130.71,245.438c28.274,139.677-2.057,226.084-2.057,226.084
				s-78.899-58.868-131.763-284.142C690.986,678.518,723.879,619.867,723.879,619.867z"/>
			<path fill="#59351E" d="M854.588,865.305c-40.218-176.502-130.71-245.438-130.71-245.438s-32.892,58.651-3.11,187.38
				c0.275,1.172,0.555,2.313,0.831,3.476c19.947,42.107,45.775,81.815,70.773,121.518c23.062,41.511,31.666,91.283,68.44,123.368
				C867.13,1017.838,872.097,951.802,854.588,865.305z"/>
		</g>
		<path fill="#CB7565" d="M497.164,398.408c0,0-12.861,2.344-26.998,37.241s-23.31,48.279-23.31,48.279s-4.088-20.628-19.93-55.846
			c0,0,2.436-13.179,0.928-28.18s-2.258-22.094-2.258-22.094s9.455-2.714,13.246,1.907s3.486-5.504,1.121-11.336
			c0,0-0.847-1.684-1.121-13.255c-0.274-11.571,4.676-11.023-4.767-14.809c-9.442-3.786-13.839-10.374-20.229-2.436
			c-6.39,7.938-16.519,11.978-15.208,19.904c1.311,7.927,1.773,64.918,2.593,73.266s10.983,102.117,32.978,119.221
			c0,0,13.671,18.086,71.912-83.927C540.995,397.509,497.164,398.408,497.164,398.408z"/>
		<path fill="#D29D74" d="M503.491,399.35c-3.575-0.998-6.326-0.942-6.326-0.942s-12.861,2.344-26.998,37.241
			c-11.425,28.203-19.602,42.342-22.32,46.733c-0.013,1.627-3.087,3.368-3.087,5.119c-34.089-87.836-20.435-50.014-25.215-115.788
			c7.987,1.997,14.435,2.423,21.729,1.318c-0.302-1.623-0.745-3.26-1.31-4.652c0,0-0.846-1.684-1.121-13.255
			c-0.274-11.571,4.676-11.023-4.767-14.809c-9.442-3.786-13.839-10.374-20.229-2.436c-6.39,7.938-16.519,11.977-15.208,19.904
			c1.311,7.927,1.773,64.918,2.593,73.266c0.795,8.097,10.381,96.549,31.028,117.467C478.911,514.496,533.84,430.603,503.491,399.35
			z"/>
		<g>
			<path fill="#8E4331" d="M413.847,337.88c3.703-4.6,6.742-4.312,10.477-2.527l-35.145-115.341l-11.413,10.329l33.731,110.149
				C412.313,339.662,413.107,338.8,413.847,337.88z"/>
			<path fill="#8E4331" d="M437.475,378.512c-4.307-2.864-11.878-0.704-11.878-0.704s0.451,4.27,1.353,13.144L585,907.068
				l10.644-9.473L437.475,378.512z"/>
		</g>
		<g>
			<path fill="#BBB9B2" d="M547.245,755.821c0,0-15.555,174.921-28.747,203.58c-13.191,28.659-29.348,80.987,7.595,85.678
				c36.942,4.691,30.62,19.586,48.379,3.512c0,0,9.803,7.081,25.637-10.105C615.943,1021.3,616.389,700.083,547.245,755.821z"/>
			<path fill="#CAC8C0" d="M531.988,892.638c-4.306,30.69-9.032,57.079-13.489,66.763c-13.191,28.659-29.348,80.987,7.595,85.678
				c23.838,3.027,29.662,10.292,35.565,10.754c-8.074-48.868-8.275-97.477-23.837-144.162
				C535.74,905.426,533.774,899.072,531.988,892.638z"/>
		</g>
		<path fill="#CB7565" d="M736.778,679.379c0,0,6.815,79.738-38.011,196.2s-46.663,186.016-37.782,194.37
			c7.885,14.094,50.02,29.172,56.21,36.927c4.264,4.569-3.958,8.877-3.958,8.877s-4.839,6.63-11.83,5.823
			c0,0-11.158,11.062-34.58-3.448c-23.422-14.51-27.187-15.709-27.187-15.709s-33.829-5.44-32.988-23.736
			c0.841-18.296-9.449-147.468-14.111-131.761s-46.848,115.417-47.134,133.684c-0.286,18.267,1.788,24.772,6.219,31.13
			c4.431,6.358,9.549,12.583,17.115,17.776c7.566,5.193,0.188,18.857-13.083,11.856c0,0-2.62,3.051-12.701-0.646
			c0,0-6.893,4.448-14.308,0.874c0,0-8.139-1.903-14.091-2.429c0,0-17.764,4.04-11.677-14.875
			c6.087-18.915,17.413-58.344,17.53-74.426s9.333-110.052,25.647-149.296c16.315-39.244-22.713-168.942,5.526-254.826
			C579.824,559.858,736.778,679.379,736.778,679.379z"/>
		<path fill="#884A27" d="M682.808,865.305l22.566,14.227c0,0-16.278,32.926-21.888,63.443
			C677.877,973.493,666.554,875.258,682.808,865.305z"/>
		<path fill="#BB7826" d="M682.808,865.305c-3.658,2.24-5.915,8.957-7.159,17.665c7.845,3.543,15.943,6.579,22.837,12.025
			c3.877-9.366,6.889-15.463,6.889-15.463L682.808,865.305z"/>
		<path fill="#AE3131" d="M586.268,203.029c0,0,5.56-31.802,55.03-13.879s64.208-9.989,51.862-19.091
			c-12.346-9.102-26.806-9.447-26.806-9.447s0.72,22.094-14.529,13.83c-6.178-5.876,13.175-14.899,3.499-24.311
			s-19.12-0.704-20.204,6.554c0,0-2.778-24.131-26.15-20.712c-23.373,3.419-19.146,24.029-19.146,24.029
			s-12.786-17.726-28.247-15.353s-19.652,12.104-11.471,21.777c0,0-43.43-21.168-49.753-2.039
			c-3.187,10.835,7.362,20.083,7.362,20.083s-5.706,3.296-16.995,2.664s-26.023,12.041-16.002,27.933s-14.39,14.063-16.617,27.751
			c-2.226,13.688,0.702,28.87,20.156,25.192c0,0,4.355,6.456-3.539,9.752c-7.894,3.295-8.165,7.641,6.715,21.437
			c14.88,13.796-8.384,18.772-8.384,18.772s-6.711,6.29,4.646,19.69c11.357,13.4-4.395,24.594-13.107,16.674
			c0,0-15.897,5.748-7.992,21.309c7.905,15.561,19.517-1.961,19.517-1.961s3.349,14.782,18.429,6.033s7.977-25.741-1.079-32.672
			s16.5-1.68,9.174-15.72c-7.326-14.04-9.563-17.685-2.285-28.336c7.279-10.651-1.552-68.481,30.732-84.189
			S586.268,203.029,586.268,203.029z"/>
		<path fill="#BC3F35" d="M666.354,160.611c0,0,0.711,21.946-14.389,13.9c-2.538-0.56-4.74-1.94-6.152-3.353
			c0-7.363,7.903-16.043,6.735-23.211c-8.637-5.519-16.448,2.177-17.428,8.737c0,0-0.092-0.783-0.373-2.034
			c-0.575,1.217-1.181,2.435-1.789,3.652c-3.332-9.997-9.554-17.582-17.608-22.573c-1.937-0.155-4.052-0.098-6.38,0.243
			c-23.373,3.419-19.146,24.029-19.146,24.029s-1.152-1.583-3.148-3.723c0,2.185,0,4.269,0,7.167
			c-10.121-8.675-22.681-14.911-34.937-15.508c-6.949,4.225-7.656,11.367-1.632,18.489c0,0-0.209-0.101-0.587-0.278
			c1.331,2.354,2.086,4.8,1.159,7.582c-13-2.889-26.001-12.269-39.001-17.201c-5.379,0.557-9.651,2.796-11.325,7.858
			c-3.187,10.835,7.362,20.083,7.362,20.083s-5.706,3.296-16.995,2.664c-11.289-0.632-26.023,12.041-16.002,27.933
			c10.021,15.892-14.39,14.062-16.616,27.751c-2.226,13.688,0.702,28.869,20.156,25.192c0,0,4.355,6.456-3.539,9.752
			c-7.894,3.295-8.165,7.641,6.715,21.437c14.88,13.796-8.384,18.772-8.384,18.772s-6.711,6.29,4.646,19.69
			c11.357,13.4-4.395,24.594-13.107,16.674c0,0-15.897,5.748-7.992,21.309c7.905,15.561,19.517-1.961,19.517-1.961
			s3.349,14.782,18.429,6.033c15.08-8.749,7.977-25.741-1.079-32.672c-9.056-6.932,16.5-1.68,9.174-15.72
			c-7.245-13.884-9.497-17.614-2.508-27.994c-7.34-28.63-14.819-57.26,4.267-85.89c17.999-23.141,43.711-28.283,71.994-28.283
			c5.142-2.571,10.285-12.856,12.856-12.856c35.997-15.427,69.423,41.14,97.706,2.571c2.116-3.527,3.034-7.247,2.987-10.949
			C678.434,160.921,666.354,160.611,666.354,160.611z"/>
		<path fill="#6B3E23" d="M500.351,298.05c0,0-22.375-32.923,13.685-74.226s73.822-22.835,73.822-22.835l3.553,2.04l-6.758,13.997
			c0,0-24.105-6.699-46.417,10.419C515.924,244.562,500.351,298.05,500.351,298.05z"/>
		<path fill="#8F5533" d="M581.946,211.302l4.727-10.824c0,0-37.738-17.211-72.638,23.346
			c-31.285,34.723-19.023,64.309-14.894,72.137C507.13,252.865,529.673,206.757,581.946,211.302z"/>
		<path fill="#A05E38" d="M523.738,214.02c-3.237,2.817-6.481,6.061-9.702,9.804c-31.285,34.722-19.023,64.309-14.894,72.137
			c2.338-12.617,5.937-25.484,11.152-37.27C500.704,243.8,518.751,228.91,523.738,214.02z"/>
		<path fill="#B46543" d="M502.881,1124.29c0,0-17.851,21.377,30.11,25.185c47.961,3.807,40.57-14.137,27.98-19.965
			S502.881,1124.29,502.881,1124.29z"/>
		<path fill="#D29D74" d="M606.417,1065.67c0.256,5.96,0.349,10.52,0.235,13.012c-0.841,18.296,32.988,23.736,32.988,23.736
			s3.765,1.199,27.187,15.709c23.422,14.51,34.58,3.448,34.58,3.448c6.991,0.807,11.83-5.823,11.83-5.823s1.714-0.906,3.172-2.32
			c-40.309-9.217-70.114-35.286-109.165-47.49C606.964,1065.873,606.693,1065.758,606.417,1065.67z"/>
		<path fill="#D29D74" d="M571.247,939.953c16.406-103.125,0.768-206.251-11.865-309.376c-3.164,4.124-5.81,9.118-7.798,15.164
			c-28.24,85.884,10.788,215.582-5.526,254.826c-16.315,39.244-25.53,133.214-25.647,149.296
			c-0.117,16.082-11.443,55.511-17.53,74.426c-6.087,18.915,11.677,14.875,11.677,14.875c5.951,0.526,14.091,2.429,14.091,2.429
			c7.415,3.574,14.308-0.874,14.308-0.874c10.081,3.697,12.701,0.646,12.701,0.646c13.272,7.001,20.649-6.663,13.083-11.856
			c-7.566-5.193-12.685-11.418-17.115-17.776c-2.677-3.841-4.487-7.754-5.443-14.263c-1.617-2.682-2.736-5.489-3.219-8.387
			C537.821,1037.66,563.533,988.807,571.247,939.953z"/>
		<path fill="#6B3E23" d="M640.557,266.809c0,0-1.847,22.039-13.972,29.59s-100.758,43.917-100.758,43.917
			s-0.185-61.581,62.637-78.502C612.801,256.855,640.557,266.809,640.557,266.809z"/>
		<path fill="#CB7565" d="M615.809,266.025c0,0,16.536,15.539,12.763,32.025c0,0,0.642,6.628-3.995,10.592
			c0,0,1.576,24.608-17.268,49.056c0,0-5.26,4.347-12.835-1.145c0,0-4.993,19.415-2.938,23.846
			c2.055,4.431,10.063,11.609,22.939,7.599c12.877-4.01,22.577,47.623,9.789,82.314c-12.788,34.69-96.772-54.284-106.536-84.113
			c0,0,34.737-7.767,33.056-32.401c-1.681-24.634-28.959-48.256,8.245-79.684C596.231,242.685,615.809,266.025,615.809,266.025z"/>
		<path fill="#D29D74" d="M591.817,384.569c-7.714-7.714-14.737-34.646-17.999-41.14c10.285,5.142,28.864,14.017,35.499,7.05
			c5.142-7.714,17.53-20.238,10.285-40.974c6.138-19.243,13.105-37.656-25.215-45.784c-1.949-1.949-4.638-3.528-7.504-5.018
			c-7.776,1.808-17.07,6.298-27.856,15.41c-37.204,31.429-9.926,55.05-8.245,79.684c1.177,17.249-19.775,27.851-29.881,31.684
			c18.082,24.44,47.982,54.348,78.446,61.378c19.921,4.98,17.683-26.954,27.502-42.787c-2.913-10.86-7.403-17.622-12.374-16.074
			c-0.694,0.216-1.367,0.385-2.032,0.538C607.75,392.564,601.414,392.422,591.817,384.569z"/>
		<g>
			<path fill="#CB7565" d="M615.414,369.537c0,0,18.313-12.381,38.373,24.716c20.06,37.096,5.288,27.293,21.27,48.572
				c15.982,21.28,26.351,55.342,26.351,55.342s14.745,9.156,19.721,48.023c4.975,38.867,8.646,68.679,8.646,68.679
				s4.425,27.486-2.527,30.804c-6.952,3.318-41.518-113.745-53.959-132.247c-2.095-3.115-33.023-39.324-45.918-82.376
				S615.414,369.537,615.414,369.537z"/>
			<path fill="#D29D74" d="M727.247,645.673c6.952-3.318,2.527-30.804,2.527-30.804s-3.67-29.812-8.646-68.679
				c-4.975-38.867-19.72-48.023-19.72-48.023s-10.37-34.062-26.351-55.342c-15.982-21.28-1.209-11.476-21.269-48.572
				c-12.554-23.216-28.22-25.738-35.345-25.36c22.115,34.836,21.263,78.161,47.941,115.954l7.714,5.142
				c22.438,41.137,30.989,87.712,41.064,132.805C720.74,637.149,725.196,646.652,727.247,645.673z"/>
		</g>
		<path fill="#D09D33" d="M379.058,194.756c0,0-5.286-31.512,24.07-28.924c9.947,0.593-28.928-20.919-80.406-115.664
			c-9.178-5.142,9.86,108.814,7.806,133.688s6.336-26.288,38.968,15.965L379.058,194.756z"/>
		<path fill="#D4AD36" d="M369.495,183.872c1.279-8.008,6.191-23.442,17.613-24.868L328.74,74.862c0,0,11.702,97.637,9.699,99.58
			C338.439,174.441,359.933,172.988,369.495,183.872z"/>
		<path fill="#CE8472" d="M619.7,316.108l1.767,4.563c0,0-3.909,8.134-6.992,5.961c-3.083-2.173-7.166-7.178-7.166-7.178
			S614.716,314.355,619.7,316.108z"/>
		<path fill="#8F5533" d="M640.557,266.809c0,0-95.216-13.388-116.062,78.885c0,0-7.487-13.653-18.894-31.017
			c-11.407-17.363-14.961-53.199,3.239-71.859c18.199-18.66,41.493-27.56,74.624-7.931S640.557,266.809,640.557,266.809z"/>
		<path fill="#803D2E" d="M680.648,564.887c0,0,61.273,61.093,56.787,123.645l-20.91,7.043l-8.46-21.972
			c0,0,2.907,26.719-3.712,33.234c-6.619,6.516-27.353,7.572-27.353,7.572L680.648,564.887z"/>
		<path fill="#884A27" d="M552.372,910.119l23.707-54.477l19.844,7.673c0,0-0.171,93.474-3.383,99.801
			s-39.846,89.246-41.311,101.221c0,0-23.521-12.549-32.731-7.586c0,0-3.107-77.101,19.388-138.918L552.372,910.119z"/>
		<path fill="#B46543" d="M501.037,1128.967c0,0,39.009-14.997,60.335-5.491c-4.478-10.4-15.219-29.82-50.629-12.705
			C498.091,1120.855,501.037,1128.967,501.037,1128.967z"/>
		<path fill="#A25B3D" d="M644.538,1111.499c0,0,18.752-26.348,42.278-24.132c13.241,2.464,18.788,11.736,18.788,11.736
			s-36.325,12.084-42.042,25.169L644.538,1111.499z"/>
		<path fill="#CB7565" d="M594.249,329.566c0,0,9.722-7.43,15.652-2.538c5.93,4.892,2.736,9.132,2.736,9.132
			s-0.787,2.974-7.091,2.436S597.715,331.69,594.249,329.566z"/>
		<path fill="#E1DECF" d="M606.198,367.952l13.502-0.398c0,0,36.463,68.649,33.61,109.684c0,0,4.865,18.244,2.997,33.124
			c0,0,20.743,12.813,19.929,20.578s-5.654,16.724-3.275,23.179c2.379,6.456,22.336,14.073,24.197,49.164
			c1.86,35.091-19.511,470.112-19.42,482.519c0,0-11.368,11.96-27.535,6.212c0,0-2.633,0.851-8.405-0.624
			c0,0-3.709,8.621-16.518-1.238c0,0-7.047,3.099-12.084-1.555c0,0-7.732,6.494-12.689,0.091c0,0-6.523-0.13-7.564-4.76
			c-1.042-4.63-4.717-258.629-18.336-305.953s-43.759-148.577-17.055-180.134c0,0,7.298-9.09-9.202-11.815
			c-16.5-2.725-19.429-12.581-32.231-39.835c-12.801-27.254-2.509-62.223-7.47-85.013c-4.961-22.79-22.077-55.88-9.623-68.041
			c12.454-12.161,19.06-14.126,19.06-14.126s26.387,47.955,51.828,60.278c25.441,12.323,40.386,21.041,40.386,21.041
			S619.75,382.016,606.198,367.952z"/>
		<g>
			<path fill="#BB7826" d="M559.353,588.647c0,0,76.437,15.247,115.703-36.521l9.18,14.792c0,0-57.661,67.179-130.726,31.111
				L559.353,588.647z"/>
			<circle fill="#D09D33" cx="627.37" cy="598.028" r="26.839"/>
			<path fill="#D09D33" d="M593.759,590.511c-19.762,1.056-34.406-1.865-34.406-1.865l-5.842,9.382
				c15.779,7.789,30.838,10.756,44.755,10.631C595.272,602.982,593.511,597.064,593.759,590.511z"/>
		</g>
		
			<ellipse transform="matrix(0.9461 -0.3238 0.3238 0.9461 -28.085 122.7942)" fill="#AC2F27" cx="354.962" cy="145.794" rx="8.021" ry="27.625"/>
		<path fill="#D09D33" d="M366.869,203.029c0.596-4.689,5.045-15.993,16.17-7.136c3.66,3.152,2.57,11.516,2.57,11.516
			s7.517,5.853,6.596,12.681c-0.922,6.828-12.146,8.184-12.807,15.581c0,0-5.491-3.6-5.723-10.646c0,0-6.729-6.27-1.262-10.378
			C372.412,214.648,365.95,210.266,366.869,203.029z"/>
		<path fill="#F4EFDE" d="M599.53,523.415c-10.285-23.141,35.997-7.714,38.568-17.999c5.142-17.999,2.571-46.282-7.714-59.138
			c-12.616-14.418-12.606-36.414-17.667-56.251c2.676,28.007-2.42,70.302-2.42,70.302s-3.853-2.246-10.952-6.06
			c-2.714,4.945-10.249,7.387-17.815,4.865c-39.592-6.987-58.089-41.398-72.688-74.57c-2.705,2.052-5.982,4.825-9.819,8.571
			c-12.454,12.161,4.662,45.251,9.623,68.041c4.961,22.79-5.331,57.76,7.47,85.013c7.274,15.487,11.365,25.344,16.565,31.48
			c5.016-4.484,7.656-11.643,10.28-20.828c12.856,7.714,20.57,25.712,38.568,20.57c-25.712-23.141-48.853-43.711-38.568-82.279
			c23.141,10.285,28.283,41.14,48.853,53.996c12.856,5.142,33.426,7.714,41.14,0C656.097,525.987,607.244,538.843,599.53,523.415z"
			/>
		<path fill="#F4EFDE" d="M581.532,459.135c7.565,2.522,15.1,0.081,17.815-4.865c-6.907-3.711-16.887-8.904-29.433-14.982
			c-25.441-12.323-51.828-60.278-51.828-60.278s-3.167,0.946-9.241,5.554C523.443,417.737,541.94,452.148,581.532,459.135z"/>
		<path fill="#A05E38" d="M559.119,287.693c-18.325-16.173-36.348-34.834-36.821-55.982c-4.794,3.034-9.264,6.807-13.459,11.108
			c-2.928,3.002-5.237,6.482-7.096,10.224c4.25,12.336,8.213,23.47,10.366,36.392c1.526,10.681,9.406,23.165,19.31,34.78
			C538.428,307.978,548.225,296.193,559.119,287.693z"/>
		<path fill="#801203" d="M611.009,267.214c0,0-10.587,15.955-19.475,13.721c-8.888-2.234-10.943,0.176-10.943,0.176
			s-7.242,25.44-31.642,27.291c0,0-5.677,7.474,3.375,13.62c0,0,15.326,56.443-15.016,62.315c0,0-15.534,8.636-22.938-3.363
			c0,0,8.857-2.221,4.806-10.514c-4.051-8.292-11.895-18.142,4.56-43.24c26.36-37.241-6.41-45.983,33.801-48.78
			C581.429,275.417,565.906,271.452,611.009,267.214z"/>
		<path fill="#8F5533" d="M572.473,863.927l-20.101,46.192l-14.485,7.714c-22.495,61.817-19.388,138.918-19.388,138.918
			c5.857-3.156,17.485,0.767,25.188,4.044c10.03-40.62,12.94-83.887,32.703-123.412C586.459,915.229,574.447,889.92,572.473,863.927
			z"/>
		<path fill="#BB7826" d="M584.103,883.387c1.436-2.873,6.085-1.732,11.7-0.167c0.104-11.691,0.12-19.905,0.12-19.905l-19.844-7.673
			l-23.707,54.477l-14.485,7.714c-2.34,6.43-4.388,13.029-6.206,19.685C566.113,937.642,566.776,908.139,584.103,883.387z"/>
		<path fill="#D09D33" d="M525.6,964.421c-0.957,5.204-1.783,10.353-2.508,15.41c19.803-1.318,39.906,2.639,56.388,12.548
			c2.944-6.778,5.66-12.945,7.855-17.867C570.086,962.085,546.815,962.608,525.6,964.421z"/>
		<path fill="#F4EFDE" d="M648.384,906.528c2.571-79.708,25.712-156.845,17.999-236.552c0-17.999-3.707-39.203-16.563-41.775
			c-17.999-7.714,4.39,81.632-22.449,156.358c-12.982,33.739-12.412-150.581-22.697-155.723
			c-10.285-5.142-12.856,15.427-15.427,15.427c-21.24,2.124-21.441-30.818-36.807-38.001
			c-17.054,38.305,9.588,127.996,22.168,171.712c13.618,47.324,17.294,301.323,18.335,305.953c1.042,4.63,7.564,4.76,7.564,4.76
			c4.957,6.404,12.688-0.091,12.688-0.091c5.038,4.654,12.084,1.555,12.084,1.555c12.809,9.859,16.518,1.237,16.518,1.237
			c5.772,1.475,8.405,0.624,8.405,0.624c0.476,0.169,0.933,0.274,1.401,0.414C652.181,1030.46,648.384,968.494,648.384,906.528z"/>
		<path fill="#D09D33" d="M579.591,857l-3.513-1.358l-23.707,54.477l-14.485,7.714c-1.788,4.914-3.36,9.943-4.835,15.005
			C564.948,932.74,577.136,889.11,579.591,857z"/>
		<path fill="#BB7826" d="M587.335,974.511c-6.684-4.815-14.284-7.649-22.307-9.252c-1.634,6.485-3.691,12.443-5.083,18.612
			c6.867,2.066,13.458,4.854,19.536,8.508C582.425,985.601,585.141,979.434,587.335,974.511z"/>
		<circle fill="#BB7826" cx="629.146" cy="596.252" r="22.841"/>
		<path fill="#801203" d="M594.473,356.553c0,0-4.994,19.415-2.938,23.846s10.063,11.609,22.94,7.599
			c0.694-0.216,1.377-0.252,2.049-0.155c0.493-0.291,0.985-0.591,1.472-0.93c9.505-6.613-8.228-32.568-8.234-32.577
			c-0.78,1.12-1.588,2.24-2.453,3.362C607.308,357.698,602.048,362.045,594.473,356.553z"/>
		<path fill="#932308" d="M557.537,278.442c-40.211,2.796-7.441,11.538-33.801,48.78c-16.455,25.098-8.611,34.948-4.56,43.24
			c4.051,8.292-4.806,10.514-4.806,10.514c3.05,4.942,7.474,6.359,11.629,6.345c0.592-0.838,1.129-1.73,1.537-2.75
			c5.142-12.856,5.142-28.283,15.427-41.14c10.285-10.285-7.714-33.426,5.142-38.568c12.503-7.501,17.738-19.838,32.204-22.878
			c0.188-0.55,0.282-0.872,0.282-0.872s2.055-2.41,10.943-0.176c8.888,2.234,19.475-13.721,19.475-13.721
			C565.906,271.452,581.429,275.417,557.537,278.442z"/>
	</g>
	<g>
		<g>
			<path fill="#722308" d="M586.216,289.477c4.158-0.47,8.428-0.221,12.447,1.009c4.191,1.282,7.276,3.752,10.916,6.015
				c1.009,0.627,2.019-0.626,1.322-1.53c-5.509-7.147-16.747-8.791-24.97-6.653C585.165,288.517,585.475,289.56,586.216,289.477
				L586.216,289.477z"/>
		</g>
		<g>
			<path fill="#722308" d="M620.794,304.032c1.175-0.315,2.353-0.255,3.491,0.178c0.874,0.332,1.491,1.032,2.457,0.864
				c0.27-0.047,0.502-0.378,0.481-0.646c-0.1-1.282-1.652-1.83-2.755-2.086c-1.392-0.322-2.804-0.217-4.146,0.275
				C619.414,302.95,619.869,304.28,620.794,304.032L620.794,304.032z"/>
		</g>
		<g>
			<path fill="#83331A" d="M603.825,302.599c-1.648-5.62-10.982-9.117-15.852-5.813c-0.378,0.256-0.118,0.917,0.313,0.916
				c2.826-0.007,5.406-0.412,8.16,0.572c2.777,0.992,4.46,2.942,6.626,4.81C603.379,303.349,603.94,302.991,603.825,302.599
				L603.825,302.599z"/>
		</g>
		<g>
			<path fill="#83331A" d="M600.369,299.707c-2.334-0.626-3.093,2.89-1.825,4.291c0.795,0.878,2.076,1.176,3.113,0.564
				c0.86-0.507,1.423-1.676,1.009-2.63c-0.458-1.054-1.835-1.082-2.223,0.052c-0.033,0.098-0.069,0.195-0.108,0.291
				c0.201,0.044,0.234-0.012,0.099-0.167c0.297-0.374,0.523-0.972,0.654-1.445C601.221,300.187,600.76,299.812,600.369,299.707
				L600.369,299.707z"/>
		</g>
		<g>
			<path fill="#83331A" d="M624.686,309.365c-1.564-1.603-5.373-1.757-4.994,1.245c0.077,0.611,0.834,0.981,1.34,0.581
				c0.492-0.39,0.581-0.505,0.9-1.039c-0.328,0.204-0.656,0.407-0.984,0.611c1.023-0.114,1.673,0,2.665,0.224
				C624.503,311.187,625.448,310.147,624.686,309.365L624.686,309.365z"/>
		</g>
		<g>
			<path fill="#83331A" d="M623.751,313.035c0.328-0.925,1.238-2.812-0.186-3.342c-1.412-0.525-1.92,1.336-2.253,2.275
				C620.743,313.576,623.179,314.65,623.751,313.035L623.751,313.035z"/>
		</g>
	</g>
	<g>
		<g>
			<path fill="#A91E1E" d="M582.564,198.777c13.92-19.441,33.496-23.547,55.552-15.822c10.58,3.706,20.781,7.451,31.506,2.431
				c0.85-0.398,0.471-1.701-0.472-1.415c-20.784,6.291-38.724-11.456-59.933-6.385c-11.661,2.788-21.824,10.01-27.499,20.621
				C581.415,198.776,582.175,199.322,582.564,198.777L582.564,198.777z"/>
		</g>
		<g>
			<path fill="#A91E1E" d="M672.561,183.629c3.311-1.308,6.656-3.085,7.97-6.625c1.027-2.77,0.308-5.97-2.383-7.489
				c-5.198-2.935-9.614,5.091-4.545,7.241c0.414,0.176,0.906-0.385,0.652-0.77c-0.809-1.221-1.393-2.963-0.41-4.282
				c1.311-1.758,3.693-0.75,4.615,0.538c0.718,1.003,0.806,2.297,0.585,3.456c-0.669,3.502-4.101,5.437-7.034,6.899
				C671.322,182.941,671.88,183.898,672.561,183.629L672.561,183.629z"/>
		</g>
		<g>
			<path fill="#A91E1E" d="M600.98,180.595c7.25-3.723,17.144-7.119,21.331-14.64c2.871-5.157,3.787-13.406,0.733-18.725
				c-5.876-10.233-23.681-2.02-25.242,7.703c-0.868,5.409,0.275,10.291,5.715,12.225c5.159,1.835,11.772,0.063,13.956-5.312
				c4.59-11.294-14.268-14.897-12.754-3.258c0.202,1.552,2.444,1.42,2.432-0.157c3.247,6.979,1.784,8.899-4.389,5.76
				c-0.905-1.582-1.811-3.163-2.716-4.745c-0.63-3.986,2.031-9.007,5.234-11.03c1.961-1.238,5.117-3.052,7.266-3.396
				c8.73-1.396,10.537,5.747,10.27,11.704c-0.576,12.865-12.759,17.279-22.263,22.97
				C600.015,180.019,600.401,180.892,600.98,180.595L600.98,180.595z"/>
		</g>
		<g>
			<path fill="#A91E1E" d="M577.707,197.322c5.893-11.178,12.893-32.626,1.047-42.628c-3.145-2.656-10.716-5.702-14.754-3.835
				c-4.518,2.09-4.657,10.734-3.878,14.691c1.349,6.857,15.653,15.144,19.53,6.075c3.016-7.056-8.732-16.546-11.822-5.761
				c-0.178,0.623,0.438,1.47,1.083,1.492c0.861,0.03,1.722,0.06,2.583,0.089c1.069,0.037,1.486-1.583,0.386-1.908
				c1.71,0.453,3.421,0.905,5.131,1.358c-1.507,2-3.014,4.001-4.52,6.001c-1.219,0.544-11.047-9.539-10.235-12.744
				c3.584-14.139,18.346-4.204,20.334,5.204c2.22,10.504-1.341,21.989-6.009,31.324
				C576.214,197.421,577.317,198.062,577.707,197.322L577.707,197.322z"/>
		</g>
		<g>
			<path fill="#A91E1E" d="M559.492,196.314c-7.235-4.216-14.784-5.598-22.8-7.665c-5.31-1.369-18.894-5.059-20.054-12.059
				c1.927-3.623,3.855-7.246,5.782-10.869c3.136,0.324,5.935,1.356,8.397,3.096c1.166,0.719,2.277,1.517,3.334,2.394
				c5.775,3.715,4.654,4.497-3.361,2.346c0.577-0.291,0.307-1.346-0.36-1.248c-8.731,1.276-0.851,12.249,5.532,11.452
				c3.087-0.385,5.915-3.121,5.695-6.366c-0.351-5.177-8.161-9.628-12.082-11.585c-7.895-3.941-20.179-1.467-15.968,9.597
				c6.626,17.408,31.676,14.782,45.315,21.753C559.491,197.45,560.07,196.651,559.492,196.314L559.492,196.314z"/>
		</g>
		<g>
			<path fill="#A91E1E" d="M504.565,193.664c-6.945-4.145-15.359-5.533-23.03-2.372c-6.245,2.574-11.209,8.549-7.675,15.291
				c3.647,6.958,13.842,13.47,21.784,12.776c6.325-0.553,13.003-5.786,12.859-12.62c-0.161-7.632-9.837-11.293-16.365-10.502
				c-5.56,0.674-10.385,6.37-6.463,11.583c2.49,3.311,10.256,6.302,13.411,2.329c3.842-4.838-2.6-7.064-6.418-5.863
				c-1.268,0.399-0.831,2.407,0.474,2.035c0.127,3.28-1.038,3.894-3.497,1.843c4.828-10.887,10.343-11.87,16.546-2.948
				c0.291,4.479-1.932,8.567-5.836,10.693c-6.381,3.475-13.443,0.368-18.664-3.73c-3.673-2.883-8.692-7.023-6.819-12.743
				c0.97-2.963,4.699-5.41,7.35-6.513c7.058-2.939,15.131-1.859,21.776,1.587C504.563,194.804,505.14,194.007,504.565,193.664
				L504.565,193.664z"/>
		</g>
		<g>
			<path fill="#A91E1E" d="M506.688,229.059c-6.279,6.828-14.868,7.987-23.686,7.096c-4.372-0.442-9.105-2.12-13.528-1.553
				c-6.155,0.789-11.009,5.482-11.211,11.876c-0.387,12.217,17.133,18.997,24.569,8.943c6.757-9.135-11.372-16.501-13.937-7.867
				c-2.04,6.866,9.223,7.252,6.153,0.435c-0.305-0.678-1.267-0.195-1.144,0.46c0.589,10.215-1.933,12.324-7.566,6.328
				c-7.163-2.31-6.995-5.923,0.503-10.84c6.272-8.49,3.986-7.677,11.304-6.695c4.177,0.56,8.374,1.18,12.599,0.791
				c6.672-0.614,12.142-3.428,16.44-8.558C507.453,229.152,506.969,228.753,506.688,229.059L506.688,229.059z"/>
		</g>
		<g>
			<path fill="#A91E1E" d="M489.249,352.222c-5.376,2.54-10.93,8.728-6.801,14.797c2.55,3.748,10.76,7.513,13.839,2.651
				c3.405-5.378,3.217-13.434-4.295-14.037c-2.016-0.162-4.846-0.076-5.759,2.131c-0.786,1.9,0.312,3.721,2.282,3.811
				c0.798,0.037,0.839-1.045,0.29-1.386c0.939-2.244,2.345-3.135,4.219-2.672c1.192,1.119,2.383,2.237,3.575,3.356
				c0.591,1.492-0.329,4.027-0.813,5.477c-1.308,3.917-5.569,3.646-8.677,2.031c-7.784-4.046-3.026-12.048,2.672-15.145
				C490.43,352.882,489.913,351.908,489.249,352.222L489.249,352.222z"/>
		</g>
		<g>
			<path fill="#A91E1E" d="M495.734,297.533c-4.585,2.545-8.147,6.19-9.25,11.47c-0.763,3.653-0.306,7.277,1.213,10.702
				c0.619,1.395,1.463,2.523,2.224,3.845c0.576,0.76,1.152,1.521,1.728,2.281c5.506,7.85,4.184,9.628-3.965,5.333
				c0.406,0.506,1.129-0.067,0.896-0.612c-1.56-3.646-6.129-4.758-8.978-1.564c-4.046,4.537,0.302,10.54,5.021,11.944
				c4.716,1.403,10.514-0.295,11.704-5.449c0.914-3.96-1.525-7.549-3.25-10.776c-2.535-4.74-5.835-8.411-5.006-14.25
				c0.75-5.283,3.806-9.194,8.195-11.91C496.885,298.162,496.384,297.172,495.734,297.533L495.734,297.533z"/>
		</g>
	</g>
	<g>
		<g>
			<path fill="#722308" d="M609.762,267.23c-1.536,2.338-2.944,4.379-4.879,6.404c-4.773,4.993-8.882,5.694-15.664,4.882
				c-3.728-0.446-5.68-1.559-9.44-0.832c-7.309,1.413-12.777,7.245-17.178,12.794c-0.628,0.791,0.519,1.962,1.287,1.258
				c2.874-2.632,5.672-5.6,8.882-7.829c5.761-3.999,11.2-2.169,17.917-2.082c3.565,0.046,2.572,0.993,6.315-0.175
				c6.177-1.927,11.399-8.091,13.909-13.775C611.252,267.104,610.233,266.513,609.762,267.23L609.762,267.23z"/>
		</g>
		<g>
			<path fill="#722308" d="M560.087,293.884c-3.181,2.922-6.73,4.973-10.546,6.937c-3.663,1.884-8.331,3.507-11.424,6.286
				c-2.773,2.492-3.453,7.483,1.046,8.333c0.949,0.179,1.351-1.292,0.45-1.64c0.308-1.896,0.616-3.791,0.924-5.687
				c0.408-0.249,0.816-0.498,1.224-0.747c0.923-0.738,2.284-1.272,3.339-1.835c2.02-1.079,4.086-2.09,6.065-3.242
				c3.588-2.089,6.952-4.524,9.883-7.466C561.662,294.206,560.719,293.304,560.087,293.884L560.087,293.884z"/>
		</g>
		<g>
			<path fill="#722308" d="M557.063,279.49c-6.162,1.161-7.208,6.398-9.285,11.509c-2.54,6.246-9.951,8.934-11.219,15.688
				c-0.134,0.713,0.842,1.033,1.096,0.327c1.912-5.318,7.606-7.625,10.43-12.287c2.948-4.865,2.773-12.335,9.216-14.407
				C557.773,280.168,557.543,279.4,557.063,279.49L557.063,279.49z"/>
		</g>
		<g>
			<path fill="#722308" d="M539.022,317.649c2.832,6.352,6.22,13.626,7.655,20.391c2.244,10.583-0.571,16.268-5.183,24.835
				c-3.828,7.111-6.849,13.227-5.147,21.264c0.171,0.809,1.4,0.536,1.385-0.242c-0.27-14.309,11.185-23.169,12.204-36.706
				c0.783-10.397-5.553-20.944-10.177-29.843C539.526,316.901,538.81,317.174,539.022,317.649L539.022,317.649z"/>
		</g>
		<g>
			<path fill="#722308" d="M532.68,312.29c-1.737,13.296-10.555,21.848-14.375,34.15c-2.395,7.713-3.167,16.196,2.319,22.604
				c0.619,0.723,1.795,0.014,1.265-0.838c-11.23-18.031,10.854-37.259,11.985-55.897C533.922,311.528,532.778,311.546,532.68,312.29
				L532.68,312.29z"/>
		</g>
		<g>
			<path fill="#611E07" d="M594.981,361.749c2.888,6.776,10.495,16.918,4.502,23.769c-0.611,0.699,0.421,1.655,1.059,0.979
				c6.981-7.387-0.929-18.255-4.952-25.074C595.39,361.083,594.828,361.388,594.981,361.749L594.981,361.749z"/>
		</g>
		<g>
			<path fill="#611E07" d="M602.287,361.195c2.729,3.294,6.077,6.086,8.532,9.613c2.638,3.788,7.181,12.45,0.805,15.482
				c-0.859,0.408-0.444,1.794,0.49,1.436c4.652-1.784,4.716-7.283,3.375-11.396c-2.074-6.357-7.38-11.79-12.628-15.712
				C602.497,360.346,601.986,360.831,602.287,361.195L602.287,361.195z"/>
		</g>
	</g>
	<g>
		<g>
			<path fill="#B7AE9A" d="M515.455,388.19c9.884,41.045,31.257,81.954,61.199,111.998c0.803,0.806,2.19-0.2,1.427-1.123
				c-27.839-33.643-48.409-69.328-61.422-111.187C516.422,387.117,515.267,387.408,515.455,388.19L515.455,388.19z"/>
		</g>
		<g>
			<path fill="#B7AE9A" d="M607.763,459.414c11.166,10.706,18.875,20.723,27.854,33.329c3.931,5.519,10.468,6.589,15.118,11.59
				c2.688,2.891,3.758,6.17,6.919,8.829c0.437,0.367,1.081-0.352,0.672-0.755c-3.443-3.39-4.931-7.687-8.043-11.257
				c-1.699-1.95-2.169-2.01-4.192-3.582c-4.076-0.931-7.293-3.291-9.652-7.078c-0.828-1.566-1.71-3.101-2.646-4.605
				c-6.411-10.579-14.897-20.547-25.337-27.273C607.968,458.297,607.315,458.984,607.763,459.414L607.763,459.414z"/>
		</g>
		<g>
			<path fill="#B7AE9A" d="M561.501,588.493c-6.246-6.87-12.859-13.818-16.566-22.469c-2.846-6.639-4.117-14.091-5.943-21.054
				c-4.007-15.286-8.265-30.571-13.483-45.492c-0.255-0.729-1.401-0.467-1.182,0.298c5.264,18.309,10.643,36.543,15.519,54.965
				c3.82,14.434,10.395,23.976,20.895,34.395C561.19,589.58,561.938,588.972,561.501,588.493L561.501,588.493z"/>
		</g>
		<g>
			<path fill="#B7AE9A" d="M627.613,477.748c-1.678-24.548-4.857-49.827-10.964-73.69c-0.141-0.549-0.97-0.439-0.884,0.141
				c3.649,24.572,7.8,48.952,10.79,73.632C626.627,478.425,627.654,478.356,627.613,477.748L627.613,477.748z"/>
		</g>
		<g>
			<path fill="#B7AE9A" d="M558.076,548.782c9.505,15.298,22.141,29.424,37.608,38.903c0.261,0.16,0.546-0.265,0.301-0.451
				c-14.672-11.14-27.368-23.243-37.342-38.856C558.4,547.997,557.841,548.403,558.076,548.782L558.076,548.782z"/>
		</g>
		<g>
			<path fill="#B7AE9A" d="M597.956,588.7c0.224,0,0.221-0.348-0.003-0.348C597.729,588.351,597.732,588.7,597.956,588.7
				L597.956,588.7z"/>
		</g>
		<g>
			<path fill="#B7AE9A" d="M537.468,429.292c9.192,17.425,20.667,33.73,34.824,47.495c0.488,0.474,1.275-0.197,0.802-0.707
				c-13.418-14.476-25.243-29.842-34.828-47.133C537.999,428.463,537.205,428.793,537.468,429.292L537.468,429.292z"/>
		</g>
		<g>
			<path fill="#B7AE9A" d="M659.656,566.223c-10.98-5.101-23.592-4.669-35.333-7.072c-16.485-3.374-31.538-9.326-45.441-18.854
				c-1.012-0.693-2.039,0.769-1.104,1.535c10.008,8.191,21.348,13.405,33.799,16.896c15.355,4.305,32.868,2.943,47.606,8.58
				C659.804,567.545,660.268,566.507,659.656,566.223L659.656,566.223z"/>
		</g>
		<g>
			<path fill="#B7AE9A" d="M670.162,558.084c-9.712-8.928-22.701-12.548-34.208-18.598c-13.336-7.011-24.871-15.855-35.389-26.615
				c-0.606-0.62-1.688,0.324-1.148,1.01c7.675,9.745,17.56,17.251,28.244,23.452c13.273,7.705,29.803,11.849,41.522,21.809
				C669.888,559.742,670.849,558.714,670.162,558.084L670.162,558.084z"/>
		</g>
		<g>
			<path fill="#B7AE9A" d="M695.239,591.544c5.046,43.698-6.183,87.611-13.97,130.366c-7.464,40.983-15.597,81.967-21.79,123.165
				c-0.134,0.892,1.2,1.206,1.385,0.303c9.053-44.104,16.095-88.708,23.773-133.07c6.887-39.791,16.631-80.345,11.51-120.914
				C696.072,590.803,695.171,590.957,695.239,591.544L695.239,591.544z"/>
		</g>
		<g>
			<path fill="#B7AE9A" d="M677.874,760.693c-3.981,106.531-10.488,213.053-13.439,319.609c-0.025,0.89,1.307,0.822,1.367-0.043
				c7.401-106.304,9.825-213.18,13.561-319.664C679.396,759.636,677.909,759.74,677.874,760.693L677.874,760.693z"/>
		</g>
		<g>
			<path fill="#B7AE9A" d="M577.443,606.423c-2.261,74.372,2.537,149.992,17.684,222.945c0.137,0.661,1.133,0.456,1.024-0.206
				c-12.246-73.923-19.25-147.697-17.564-222.704C578.603,605.722,577.465,605.685,577.443,606.423L577.443,606.423z"/>
		</g>
		<g>
			<path fill="#B7AE9A" d="M673.979,579.615c0.152,32.171-1.469,63.386-5.521,95.313c-0.131,1.03,1.396,1.283,1.596,0.258
				c6.071-31.1,8.15-64.112,5.438-95.681C675.408,578.525,673.974,578.645,673.979,579.615L673.979,579.615z"/>
		</g>
		<g>
			<path fill="#B7AE9A" d="M661.5,587.731c1.028,9.603,1.24,18.944,0.322,28.565c-0.108,1.135,1.558,1.328,1.753,0.211
				c1.683-9.621,1.764-19.52-0.214-29.104C663.114,586.203,661.371,586.527,661.5,587.731L661.5,587.731z"/>
		</g>
		<g>
			<path fill="#B7AE9A" d="M642.436,1092.267c1.677-18.671,1.729-37.454-1.09-56.025c-0.112-0.735-1.357-0.553-1.293,0.19
				c1.599,18.602,2.268,36.945,0.761,55.583C640.73,1093.06,642.341,1093.326,642.436,1092.267L642.436,1092.267z"/>
		</g>
		<g>
			<path fill="#B7AE9A" d="M626.461,1091.148c-2.447-52.727-4.046-105.482-6.364-158.209c-0.029-0.658-1.039-0.743-1.043-0.06
				c-0.281,52.719,2.257,105.724,6.089,158.292C625.205,1092.011,626.501,1092.002,626.461,1091.148L626.461,1091.148z"/>
		</g>
		<g>
			<path fill="#B7AE9A" d="M613.817,1089.183c0.543-36.059-3.71-72.809-8.392-108.516c-0.119-0.909-1.536-0.858-1.441,0.075
				c3.713,36.113,5.192,72.419,8.823,108.506C612.866,1089.823,613.809,1089.759,613.817,1089.183L613.817,1089.183z"/>
		</g>
		<g>
			<path fill="#A59E8B" d="M575.689,1049.514c1.255-10.452,0.358-21.517,0.045-32.026c-0.026-0.868-1.318-0.828-1.343,0.033
				c-0.304,10.442-1.212,21.449,0.025,31.841C574.494,1050.017,575.594,1050.306,575.689,1049.514L575.689,1049.514z"/>
		</g>
	</g>
	<g>
		<g>
			<path fill="#7D4C12" d="M520.43,1027.266c6.555-0.842,13.272-0.883,19.79,0.336c6.685,1.25,12.388,4.341,18.765,6.362
				c0.976,0.309,1.677-0.897,0.878-1.571c-10.245-8.624-27.149-9.382-39.679-6.876
				C519.077,1025.739,519.293,1027.412,520.43,1027.266L520.43,1027.266z"/>
		</g>
		<g>
			<path fill="#7D4C12" d="M521.426,1011.584c15.343-1.62,29.994,0.062,44.255,6.043c1.672,0.701,2.681-1.913,1.02-2.619
				c-14.464-6.149-29.971-8.211-45.396-4.962C520.366,1010.245,520.407,1011.692,521.426,1011.584L521.426,1011.584z"/>
		</g>
		<g>
			<g>
				<g>
					<path fill="#7D4C12" d="M513.287,321.09c0.999-16.604,1.422-34.034,8.451-49.404c7.587-16.59,31.071-42.305,50.861-38.581
						c1.349,0.254,2.137-1.847,0.78-2.364c-17.596-6.704-36.638,14.373-46.458,26.55c-14.637,18.15-15.641,41.502-15.001,63.842
						C511.945,322.027,513.235,321.956,513.287,321.09L513.287,321.09z"/>
				</g>
				<g>
					<path fill="#7D4C12" d="M518.307,327.771c5.355-6.07,9.277-12.897,11.184-20.81c0.972-4.034,0.619-8.002,1.293-11.985
						c0.924-5.457,5.357-13.914,10.669-16.922c2.589-1.466,7.495-1.109,10.408-1.707c24.572-5.044,49.17-18.148,74.812-12.957
						c1.475,0.299,2.181-2.185,0.701-2.593c-24.636-6.786-50.326,6.82-73.957,12.16c-7.174,1.621-18.099,1.05-23.022,7.75
						c-2.768,3.767-2.059,8.283-2.12,12.613c-0.187,13.186-2.847,22.74-11.003,33.483
						C516.732,327.513,517.692,328.468,518.307,327.771L518.307,327.771z"/>
				</g>
			</g>
			<g>
				<path fill="#7D4C12" d="M798.948,696.045c28.036,42.801,49.336,89.738,61.948,139.375
					c13.233,52.08,14.136,103.113,11.317,156.352c-0.071,1.34,2.142,1.519,2.358,0.198c8.38-51.44,2.179-107.182-10.612-157.385
					c-12.711-49.889-34.089-97.277-63.745-139.377C799.651,694.409,798.412,695.226,798.948,696.045L798.948,696.045z"/>
			</g>
		</g>
	</g>
	<g>
		<g>
			<g>
				<path fill="#B95D3D" d="M617.873,302.898c0.722,5.265,1.111,11.535,3.458,16.361c0.121,0.249,0.487,0.082,0.48-0.156
					c-0.149-5.365-2.233-11.006-3.319-16.256C618.414,302.466,617.817,302.493,617.873,302.898L617.873,302.898z"/>
			</g>
			<g>
				<path fill="#B95D3D" d="M611.07,321.921c1.147,0.482,2.299,1.222,3.57,0.996c0.344-0.061,0.56-0.542,0.288-0.81
					c-0.948-0.936-2.408-0.969-3.665-1.203C610.647,320.789,610.561,321.708,611.07,321.921L611.07,321.921z"/>
			</g>
			<g>
				<path fill="#B95D3D" d="M615.724,325.363c1.727-1.088,3.81-2.07,5.301-3.461c0.218-0.203-0.061-0.584-0.324-0.476
					c-1.889,0.773-3.657,2.273-5.364,3.388C614.974,325.051,615.36,325.592,615.724,325.363L615.724,325.363z"/>
			</g>
			<g>
				<path fill="#B95D3D" d="M609.984,319.405c3.901-0.776,6.862,0.421,10.423,1.766c0.562,0.212,0.842-0.538,0.442-0.881
					c-2.918-2.508-7.544-2.433-11.015-1.36C609.521,319.028,609.678,319.466,609.984,319.405L609.984,319.405z"/>
			</g>
			<g>
				<path fill="#B7493C" d="M592.681,329.42c6.569,1.431,13.197,3.14,18.661,7.14c0.563,0.412,1.522-0.046,1.221-0.812
					c-2.559-6.52-14.057-6.882-19.788-7.168C592.224,328.552,592.153,329.305,592.681,329.42L592.681,329.42z"/>
			</g>
			<g>
				<path fill="#B95D3D" d="M526.11,391.141c12.05,5.172,25.897,7.709,38.981,6.979c0.73-0.041,0.776-1.077,0.034-1.144
					c-13.239-1.189-25.751-3.4-38.536-7.024C525.907,389.759,525.428,390.848,526.11,391.141L526.11,391.141z"/>
			</g>
			<g>
				<path fill="#B95D3D" d="M582.82,395.597c2.548,2.495,9.443,2.641,10.08-1.878c0.088-0.627-0.637-1.13-1.133-0.626
					c-1.095,1.111-1.919,2.156-3.473,2.652c-1.695,0.541-3.419,0.173-4.769-0.973C583.056,394.375,582.381,395.168,582.82,395.597
					L582.82,395.597z"/>
			</g>
			<g>
				<path fill="#B95D3D" d="M552.317,322.474c1.719,0.94,5.019,1.795,6.725,0.395c0.411-0.337,0.487-1.035-0.074-1.292
					c-1.061-0.487-2.211-0.272-3.348-0.332c-1.007-0.053-1.99-0.073-2.998-0.055C551.939,321.201,551.728,322.152,552.317,322.474
					L552.317,322.474z"/>
			</g>
			<g>
				<path fill="#B95D3D" d="M594.321,355.918c-8.276-3.959-15.408-9.238-23.032-14.229c-0.721-0.472-1.337,0.613-0.821,1.17
					c6.2,6.698,14.754,11.178,23.186,14.393C594.532,357.587,595.204,356.34,594.321,355.918L594.321,355.918z"/>
			</g>
			<g>
				<path fill="#B95D3D" d="M418.262,365.334c3.605,0.52,7.199,1.128,10.776,1.816c3.226,0.62,6.498,1.623,9.79,1.51
					c0.824-0.028,0.952-1.216,0.256-1.539c-6.012-2.787-14.267-2.565-20.781-2.905C417.569,364.177,417.564,365.233,418.262,365.334
					L418.262,365.334z"/>
			</g>
			<g>
				<path fill="#B95D3D" d="M417.745,355.511c2.125,0.221,19.628,1.263,19.622,3.146c-0.003,0.742,0.928,0.816,1.284,0.305
					c1.333-1.91-0.198-3.105-2.112-3.469c-6.015-1.144-12.609-0.602-18.714-0.923C417.218,354.537,417.137,355.447,417.745,355.511
					L417.745,355.511z"/>
			</g>
			<g>
				<path fill="#B95D3D" d="M438.09,347.118c-8.225-2.281-18.088-5.018-26.475-2.216c-0.604,0.202-0.548,1.024,0.101,1.105
					c8.629,1.077,17.282,1.543,25.924,2.751C438.564,348.887,439.045,347.383,438.09,347.118L438.09,347.118z"/>
			</g>
			<g>
				<path fill="#B95D3D" d="M445.644,484.464c-0.348,5.404-0.678,11.234-0.337,16.635c0.057,0.9,1.57,1.058,1.792,0.174
					c1.318-5.264,1.291-11.637,0.537-16.966C447.473,483.156,445.716,483.349,445.644,484.464L445.644,484.464z"/>
			</g>
			<g>
				<path fill="#B95D3D" d="M685.728,514.279c3.825-0.831,7.435-3.134,9.582-6.447c0.404-0.623-0.478-1.228-0.993-0.77
					c-2.797,2.483-5.584,4.533-8.982,6.153C684.738,513.498,685.101,514.415,685.728,514.279L685.728,514.279z"/>
			</g>
		</g>
		<g>
			<path fill="#B95D3D" d="M549.193,1130.361c2.003,0.204,3.639,1.528,4.584,3.266c1,1.84,0.555,3.274,0.413,5.199
				c-0.043,0.579,0.815,0.887,1.176,0.453c1.427-1.713,0.812-4.602-0.166-6.394c-1.229-2.253-3.43-3.703-6.012-3.793
				C548.358,1129.064,548.397,1130.281,549.193,1130.361L549.193,1130.361z"/>
		</g>
		<g>
			<path fill="#B95D3D" d="M538.31,1130.42c0.727,1.845,1.509,3.625,1.797,5.607c0.245,1.684-0.228,3.529,0.341,5.12
				c0.179,0.5,0.902,0.718,1.262,0.263c2.39-3.014,0.342-9.382-1.784-12.033C539.208,1128.481,537.921,1129.432,538.31,1130.42
				L538.31,1130.42z"/>
		</g>
		<g>
			<path fill="#B95D3D" d="M528.682,1131.332c-0.573,0.415-0.988,0.483-1.479,1.092c-0.591,0.733-1.013,1.548-1.266,2.458
				c-0.234,0.842-0.306,1.745-0.265,2.617c0.058,1.234,0.437,1.86,1.072,2.92c0.476,0.794,1.779,0.143,1.61-0.701
				c-0.21-1.049-0.284-2.402-0.141-3.466c0.07-0.52,0.188-1.042,0.335-1.546c0.238-0.809,0.539-1.932,1.006-2.649
				C529.931,1131.477,529.173,1130.976,528.682,1131.332L528.682,1131.332z"/>
		</g>
		<g>
			<path fill="#B95D3D" d="M514.637,1130.438c-1.798,2.768-2.214,6.397-0.074,9.097c0.661,0.834,1.887,0.026,1.546-0.924
				c-0.877-2.441-1.131-4.936,0.099-7.296C516.679,1130.411,515.192,1129.583,514.637,1130.438L514.637,1130.438z"/>
		</g>
		<g>
			<path fill="#B95D3D" d="M684.398,1113.759c8.02,0.088,15.478,0.762,17.73,9.602c0.201,0.788,1.251,0.556,1.44-0.092
				c0.992-3.399-1.21-6.669-3.856-8.674c-4.463-3.383-10.225-3.053-15.487-2.468
				C683.148,1112.246,683.368,1113.747,684.398,1113.759L684.398,1113.759z"/>
		</g>
		<g>
			<path fill="#B95D3D" d="M700.627,1109.38c2.606-0.307,5.171-0.16,7.692,0.584c2.655,0.784,4.651,2.445,7.129,3.47
				c0.851,0.352,1.535-0.675,1.041-1.38c-3.274-4.666-11.104-5.177-16.146-4.127C699.515,1108.1,699.791,1109.478,700.627,1109.38
				L700.627,1109.38z"/>
		</g>
	</g>
	<g>
		<g>
			<path fill="#5E3B0E" d="M386.027,231.101c7.575,25.052,15.549,49.822,22.402,75.104c0.215,0.795,1.385,0.468,1.225-0.327
				c-5.115-25.404-12.313-51.313-22.584-75.156C386.821,230.144,385.843,230.492,386.027,231.101L386.027,231.101z"/>
		</g>
		<g>
			<path fill="#5E3B0E" d="M411.109,325.658c-3.575-8.805-6.25-17.769-8.851-26.896c-0.099-0.348-0.704-0.222-0.626,0.139
				c1.997,9.252,5.21,18.282,8.782,27.03C410.596,326.375,411.289,326.103,411.109,325.658L411.109,325.658z"/>
		</g>
		<g>
			<path fill="#5E3B0E" d="M437.527,388.819c14.866,49.076,27.885,98.374,40.416,148.082c0.181,0.716,1.253,0.466,1.115-0.257
				c-9.619-50.099-23.567-99.991-40.283-148.167C438.504,387.698,437.284,388.015,437.527,388.819L437.527,388.819z"/>
		</g>
		<g>
			<path fill="#5E3B0E" d="M478.544,553.011c14.656,49.617,29.927,99.399,48.569,147.686c0.144,0.374,0.713,0.173,0.586-0.207
				c-16.413-49.195-33.537-98.057-48.482-147.738C479.083,552.307,478.413,552.569,478.544,553.011L478.544,553.011z"/>
		</g>
	</g>
</g>
</svg>
