<?xml version="1.0" encoding="utf-8"?>
<!-- Designed by Vexels.com - 2019 All Rights Reserved - https://vexels.com/terms-and-conditions/  -->
<svg version="1.1" id="Layer_1" xmlns="http://www.w3.org/2000/svg" xmlns:xlink="http://www.w3.org/1999/xlink" x="0px" y="0px"
	 viewBox="0 0 1200 1200" enable-background="new 0 0 1200 1200" xml:space="preserve">
<g>
	<g>
		<g>
			<path fill="#B46543" d="M772.072,178.668c9.917,13.174,43.266,54.031,34.6,106.257s-31.802,106.825-34.016,134.317
				c-2.214,27.492-24.833,39.253-41.76,14.548c-16.926-24.705,27.938-53.292,27.938-53.292s-15.69-25.28,14.43-21.54
				c0,0-5.696-2.082,9.523-25.39c15.219-23.308,3.524-47.946,7.802-65.084c4.278-17.138,3.093-39.569-13.233-55.369
				c0,0,4.911-11.961-14.556-34.207C762.8,178.908,764.852,169.078,772.072,178.668z"/>
			<path fill="#B46543" d="M756.964,155.854c-12.429-10.836-50.793-47.026-103.505-42.123
				c-52.712,4.902-108.829,24.067-136.409,24.306s-40.931,21.957-17.503,40.61c23.428,18.653,55.157-24.048,55.157-24.048
				s24.091,17.46,22.519-12.85c0,0,1.668,5.83,26.007-7.679s48.075-0.08,65.476-3.119c17.4-3.039,39.689-0.25,54.278,17.166
				c0,0,12.282-4.041,33.077,16.969C756.06,165.085,766.012,163.742,756.964,155.854z"/>
			<path fill="#C16D48" d="M772.072,178.668c-3.256-4.325-5.453-4.689-6.893-3.797c0.932,1.667,1.82,3.376,2.657,5.133
				c-0.837-1.757-1.726-3.466-2.657-5.133c-1.753,1.085-2.379,4.037-2.379,4.037c0.178,0.203,0.319,0.391,0.493,0.592
				c55.845,41.83,36.739,127.957,17.569,185.467c-5.21-2.605-7.815,2.605-13.026,2.605c-7.815,2.605,2.605,13.026-2.605,18.236
				c-14.305,16.69-41.668,42.103-20.249,60.273c13.342,5.103,26.043-6.59,27.673-26.839c2.214-27.492,25.35-82.091,34.016-134.317
				C815.338,232.7,781.989,191.842,772.072,178.668z"/>
			<path fill="#C16D48" d="M538.586,146.137c7.815-7.815,20.841,5.21,23.446,0c15.631-13.026,31.261-18.236,49.497-23.446
				c51.383-7.007,115.305,0.67,146.76,41.752c2.283-0.978,4.721-3.319-1.326-8.59c-12.429-10.835-50.793-47.026-103.505-42.123
				c-52.712,4.902-108.829,24.067-136.409,24.306c-20.858,0.181-33.563,12.647-28.391,26.781c0.989,0.88,2.006,1.646,3.035,2.161
				C509.929,174.794,525.56,161.768,538.586,146.137z"/>
		</g>
		<g>
			<path fill="#ECB498" d="M465.096,293.834c0,0,19.557-3.477,33.372,11.853c7.845,8.607,21.143,10.601,21.143,10.601l-3.055,9.535
				c0,0,11.642,4.349,11.752,12.881c0,0,13.874,5.221,8.363,13.036c-5.511,7.815-12.99,11.537-12.705,19.281
				s8.404,26.129,8.404,26.129s11.391-29.029,28.264-41.805c16.872-12.776,74.681-56.754,89.196-78.896
				c26.492-46.276,67.223-66.144,80.472-85.748c15.094-22.294,3.532-35.359,22.179-37.306c0,0,6.902-15.444,17.474-2.905
				c0,0,10.301,4.221,6.067,11.07c0,0,8.177,7.226,2.607,10.572c0,0,10.434,6.196-1.747,13.338
				c-7.007,3.939-23.351,11.323-23.351,11.323s-17.041,20.254-33.825,45.801c-16.784,25.547-43.131,61.303-53.454,73.655
				c-10.323,12.352-68.489,76.589-68.489,76.589s12.135,30.883,18.456,39.029c6.322,8.147-27.009,36.693-34.798,37.505
				c-7.789,0.811-67.578,66.411-67.578,66.411s-22.98-4.452-31.093-16.16c-8.113-11.708-87.119,2.167-93.332,2.961
				s20.503-25.711,33.365-32.627c0,0,10.088-28.432,30.299-31.12c0,0,33.493-30.621,27.026-42.646
				c-6.467-12.025-18.079-32.199-18.079-32.199L465.096,293.834z"/>
			<path fill="#F0C6A5" d="M778.626,172.13c5.57-3.346-2.607-10.572-2.607-10.572c4.234-6.848-6.067-11.07-6.067-11.07
				c-10.573-12.539-17.474,2.905-17.474,2.905c-13.444,1.404-11.187,8.589-14.537,20.844c3.232,3.939,8.688,6.497,6.448,10.976
				c-3.526,3.526-8.243,3.471-12.54,3.068c-0.486,0.795-0.995,1.598-1.55,2.418c-13.249,19.605-53.98,39.472-80.472,85.748
				c-14.514,22.142-72.323,66.12-89.196,78.896c-16.872,12.776-28.264,41.806-28.264,41.806s-8.119-18.386-8.404-26.129
				c-0.285-7.744,7.195-11.466,12.706-19.281c5.511-7.815-8.363-13.036-8.363-13.036c-0.11-8.532-11.752-12.882-11.752-12.882
				l3.055-9.535c0,0-13.297-1.994-21.143-10.6c-7.468-8.287-16.593-11.06-23.42-11.875c14.604,23.272,28.491,44.577,22.646,71.853
				c-3.946,7.454,6.185,6.782,11.396,1.571c6.187-6.324,6.219,9.203-2.689,11.933c-23.446,7.815-4.286,24.875-1.681,43.111
				c0,7.815-20.841,18.236-10.42,26.051c21.256,17.713,36.469,37.844,44.043,61.193c17.485-18.364,38.655-39.694,43.076-40.154
				c7.789-0.812,41.12-29.358,34.798-37.505c-6.322-8.147-18.457-39.029-18.457-39.029s58.166-64.236,68.489-76.589
				c10.323-12.352,36.67-48.108,53.455-73.655c16.784-25.547,33.825-45.8,33.825-45.8s9.868-4.573,20.488-9.786
				c1.056-0.549,2.029-1.069,2.863-1.538C789.061,178.327,778.626,172.13,778.626,172.13z"/>
		</g>
		<g>
			<path fill="#A55836" d="M405.206,1103.449c0,0-4.527,12.491,19.341,14.032c23.868,1.541,28.41-8.32,25.131-15.323
				C446.398,1095.156,405.206,1103.449,405.206,1103.449z"/>
			<g>
				<path fill="#ECB498" d="M422.723,1038.094c0,0-7.288,13.125-9.414,35.97c0,0-15.17,22.202-6.684,31.478
					c8.486,9.276,26.79,2.552,26.79,2.552s12.399,8.722,17.061-2.948c4.662-11.67-3.968-12.781-4.736-32.104
					C444.972,1053.719,452.832,1016.326,422.723,1038.094z"/>
				<path fill="#F0C6A5" d="M446.121,1052.495c-22.884,0.5-12.955,17.677-27.37,39.299c0,2.605-7.815,2.605-10.42,5.21
					c-1.025,3.075-1.226,6.15-0.955,9.225c8.758,8.178,26.039,1.864,26.039,1.864s12.399,8.722,17.061-2.948
					c4.662-11.67-3.968-12.781-4.736-32.104C445.506,1067.144,446.073,1059.564,446.121,1052.495z"/>
			</g>
			<g>
				<path fill="#ECB498" d="M507.324,781.786c7.815,28.656-7.815,52.102-7.815,80.759c0,27.057-8.777,56.311-13.514,86.334
					c6.533-8.026,11.714-15.874,13.355-19.58c5.866-13.248,9.31-36.077,17.206-48.274c7.896-12.197,21.574-18.083,28.483-48.703
					l21.725-50.996C548.578,792.851,524.44,788.204,507.324,781.786z"/>
				<path fill="#ECB498" d="M499.349,754.642c0,0-2.16,53.83-2.345,66.916c-2.396,11.069-10.275,23.91-18.032,35.3
					c-7.757,11.39-29.504,27.756-33.056,89.832c-2.559,44.716,23.249,22.861,40.078,2.188c4.737-30.023,13.514-59.277,13.514-86.334
					c0-28.656,15.631-52.102,7.815-80.759c17.116,6.418,41.254,11.065,59.439-0.46l15.377-36.096
					C582.141,745.23,538.855,716.994,499.349,754.642z"/>
				<path fill="#F0C6A5" d="M507.324,781.786c7.815,28.656-7.815,52.102-7.815,80.759c0,27.057-26.124,45.379-13.514,86.334
					c6.533-8.026,11.714-15.874,13.355-19.58c5.866-13.248,9.31-36.077,17.206-48.274c7.896-12.197,21.574-18.083,28.483-48.703
					l21.725-50.996C548.578,792.851,524.44,788.204,507.324,781.786z"/>
			</g>
			<path fill="#A55836" d="M579.961,1105.542c0,0-5.635,5.636,6.706,12.416c24.106,13.196,2.275,16.156,35.88,29.62
				c13.649,4.051,21.898,3.314,23.761-4.445C648.17,1135.373,579.961,1105.542,579.961,1105.542z"/>
			<g>
				<path fill="#ECB498" d="M593.967,743.886c0,0,69.546-45.185,82-18.223c0,0-8.142,58.762-23.727,101.015
					c-15.585,42.253,0.319,69.297-16.673,139.052c-16.992,69.755-49.551,28.123-49.551,28.123s-4.716-50.173,3.613-68.933
					c8.329-18.759,17.598-35.787,10.799-60.679C599.019,837.333,593.967,743.886,593.967,743.886z"/>
				<path fill="#F0C6A5" d="M634.975,779.181c-5.21,5.21-18.236,5.21-18.236,7.815c-13.026,33.867,2.605,72.943-5.21,101.6
					c-7.815,36.472-5.21,75.548-10.42,112.02c0,1.485-0.041,2.971-0.062,4.456c10.802,3.792,25.069-0.539,34.521-39.341
					c16.992-69.755,1.088-96.799,16.673-139.052c12.165-32.981,19.794-76.017,22.557-93.318
					C650.303,740.601,647.288,766.868,634.975,779.181z"/>
			</g>
			<g>
				<path fill="#F0C6A5" d="M602.621,1079.443c0,0,15.173,31.615,25.28,37.278s29.165,20.762,22.604,25.578
					c-6.561,4.816-20.178,0.833-20.178,0.833s-8.787,1.641-11.314-8.545c0,0-6.098-10.784-16.393-15.268
					c-10.295-4.484-22.446-5.115-24.122-17.16S582.031,1062.048,602.621,1079.443z"/>
				<path fill="#ECB498" d="M603.714,1102.215c-6.098-8.131-2.669-11.505,2.84-15.07c-2.405-4.521-3.933-7.703-3.933-7.703
					c-20.589-17.395-25.799,10.671-24.122,22.716c1.677,12.045,13.827,12.676,24.122,17.16s16.393,15.268,16.393,15.268
					c2.526,10.186,11.314,8.545,11.314,8.545s4.352,1.271,9.321,1.508C639.926,1125.386,614.993,1115.75,603.714,1102.215z"/>
			</g>
			<path fill="#A55836" d="M452.407,948.466l9.521-20.037l32.68,13.241c0,0-31.172,48.138-37.321,72.649
				c-5.094,12.593-7.992,29.632-7.928,34.73s-29.866-8.084-29.866-8.084s-2.1-7.372,5.053-19.705s20.811-65.383,19.818-74.57
				L452.407,948.466z"/>
			<path fill="#A55836" d="M411.096,1074.233c0,0,26.963-15.208,37.351,5.379c2.029,4.452,0.938,10.479,0.938,10.479
				s-22.939-9.503-43.109-2.818C406.276,1087.273,405.146,1076.9,411.096,1074.233z"/>
			<path fill="#D4AD36" d="M466.063,936.832c8.944,3.578,16.251,7.028,24.425,11.375c2.526-4.073,4.121-6.537,4.121-6.537
				l-32.681-13.242l-9.521,20.038l-8.041-1.775c0.166,1.534-0.084,4.309-0.637,7.895
				C458.331,958.934,456.907,956.581,466.063,936.832z"/>
			<path fill="#D4AD36" d="M473.384,977.61c-10.569-3.679-21.819-6.282-31.618-12.605c-0.974,4.575-2.171,9.632-3.488,14.797
				c9.23,4.191,18.604,8.318,28.447,10.763C468.82,986.262,471.074,981.89,473.384,977.61z"/>
			<path fill="#D4AD36" d="M419.494,1040.965c0,0,29.93,13.181,29.866,8.084c-0.018-1.472,0.218-3.96,0.675-7.03
				c-10.654-0.578-20.585-2.391-30.437-8.023C418.799,1038.477,419.494,1040.965,419.494,1040.965z"/>
			<g>
				<path fill="#A55836" d="M600.592,1118.49c0,0,15.003-7.624,29.735-2.369s17.84,16.579,17.84,16.579s-18.778-5.036-32.12,1.568
					C616.047,1134.268,598.479,1130.059,600.592,1118.49z"/>
				<path fill="#B46543" d="M648.167,1132.7c0,0-3.108-11.324-17.84-16.579c-3.644-1.299-7.303-1.808-10.749-1.842
					c4.175,4.853,7.577,10.093,7.872,16.886C638.086,1130.014,648.167,1132.7,648.167,1132.7z"/>
			</g>
			<g>
				<path fill="#A55836" d="M584.544,1114.913c0,0-2.674-21.688,5.086-30.404l16.426-2.126c0,0,16.818-64.876,31.167-118.262
					c0,0-19.264-8.969-36.807-8.717l-3.078,28.353l-15.67,4.05c0,0,3.019,47.356-3.461,98.011c0,0-3.562,21.257,0.471,25.408
					S584.544,1114.913,584.544,1114.913z"/>
				<path fill="#B46543" d="M637.223,964.121c0,0-17.575-8.164-34.44-8.677c1.563,29.299-13.444,57.069-4.279,86.853
					c3.821,13.375,6.227,26.75,7.246,40.125l0.306-0.04C606.056,1082.383,622.874,1017.507,637.223,964.121z"/>
				<path fill="#D4AD36" d="M582.306,1008.956c0.063,4.615,0.084,8.407,0.018,14.218c14.1-2.936,26.672-3.881,40.011-3.029
					c1.223-4.644,2.192-8.311,3.469-13.14C612.492,1002.834,597.327,1003.389,582.306,1008.956z"/>
				<path fill="#D4AD36" d="M606.056,1082.383c0,0,0.518-1.996,1.441-5.549c-9.029,1.202-18.532-1.076-28.127-1.111
					c-0.218,2.067-0.475,4.156-0.719,6.239c3.347,1.912,7.103,2.55,10.904,2.647c0.027-0.031,0.048-0.07,0.076-0.1L606.056,1082.383
					z"/>
				<path fill="#D4AD36" d="M600.416,955.404l-3.078,28.353l-15.67,4.05c0,0,0.196,3.096,0.381,8.527
					c24.939-6.097,25.656,1.34,27.396-27.904c9.731,0,17.48,0.8,25.621,3.732c0.723-2.701,1.443-5.388,2.156-8.041
					C637.223,964.121,617.959,955.151,600.416,955.404z"/>
				<path fill="#DCB63C" d="M600.416,955.404l-2.899,26.698c0.792,3.689,0.956,7.378,0.978,11.068
					c8.996-1.749,9.726-4.17,10.949-24.739c9.731,0,17.48,0.8,25.621,3.732c0.723-2.701,1.443-5.388,2.156-8.041
					C637.223,964.121,617.959,955.151,600.416,955.404z"/>
				<path fill="#DCB63C" d="M598.338,1004.928c-0.248,5.345-0.944,10.69-2.731,16.036c9.029-1.127,17.707-1.394,26.727-0.819
					c1.223-4.644,2.192-8.311,3.469-13.14C617.239,1004.321,607.905,1003.623,598.338,1004.928z"/>
			</g>
		</g>
		<g>
			<path fill="#E1DECF" d="M664.624,592.957c2.044,3.507,10.051,15.469,10.722,36.282c0.671,20.812-2.994,19.33,6.05,25.643
				s8.518,22.407,18.119,25.987c0,0,11.022-5.421,11.225-0.278c0.203,5.143-11.937,7.696-12.926,22.386
				c-0.989,14.69-13.161,21.786-23.553,23.43c-29.652,1.008-27.973,40.708-64.051,29.934c0,0-7.289,9.123-28.07,2.032
				c-6.461-3.058-24.573,23.053-63.182,12.182c-38.61-10.87-25.528-21.247-21.403-26.669c4.124-5.422,4.482-21.802,4.482-21.802
				s-3.115,3.999-12.706-7.268s-14.108-14.769-14.108-14.769s16.164-17.974,19.31-21.762c3.146-3.788,15.915-10.011,14.647-19.601
				c0,0-9.176-10.602-1.356-16.315s-1.084-10.797,1.814-18.609c2.899-7.812,7.583-16.051,7.583-16.051L664.624,592.957z"/>
			<path fill="#F4EFDE" d="M699.515,680.868c-0.478-0.178-0.912-0.41-1.342-0.647c-6.921,8.923-11.024,20.664-16.305,31.226
				c0,2.605-10.42,5.21-18.236,2.605c2.605-15.631,5.21-33.867,26.051-39.077c0.906-0.302,1.809-0.795,2.69-1.423
				c-3.234-6.257-5.067-14.546-10.977-18.672c-9.043-6.313-5.378-4.83-6.05-25.642c-0.671-20.813-8.678-32.775-10.722-36.282
				l-2.702,0.27c-6.616,44.875-25.87,94.833-54.891,123.854c-14.048,8.316,5.422-39.416-3.318-29.08
				c-13.026,13.026-20.841,26.051-39.077,18.236c-7.815-5.21-10.42-18.236-18.236-15.631c-15.631,5.21-15.631,26.051-15.631,44.287
				c0,7.815-10.42,15.631-23.446,13.026c-11.044-2.466,9.062,19.344,17.595,24.042c34.525,6.754,51.103-16.485,57.221-13.589
				c20.781,7.091,28.07-2.032,28.07-2.032c36.078,10.773,34.399-28.926,64.051-29.934c10.392-1.644,22.564-8.74,23.553-23.43
				c0.989-14.691,13.129-17.243,12.926-22.386C710.537,675.447,699.515,680.868,699.515,680.868z"/>
		</g>
		<path fill="#EAAD90" d="M516.555,325.822c0,0,5.342-5.189,3.055-9.535c-1.446-2.834-11.805-3.82-11.805-3.82L516.555,325.822z"/>
		<path fill="#E69584" d="M520.18,341.6c0,0-2.351-22.466,5.337-9.769C525.517,331.831,535.729,339.168,520.18,341.6z"/>
		<g>
			
				<rect x="468.011" y="260.143" transform="matrix(0.5529 -0.8333 0.8333 0.5529 83.5047 678.5153)" fill="#C58164" width="412.004" height="2.604"/>
		</g>
		<polygon fill="#B46543" points="785.736,88.404 790.127,91.22 798.464,79.603 806.069,84.608 815.989,50 786.892,70.264 
			794.317,76.216 		"/>
		<g>
			<path fill="#B67525" d="M477.608,299.626c0,0,3.27-9.506-4.39-13.89c-7.66-4.385-15.384,1.253-15.384,1.253
				s-40.511,5.482-43.117,44.294c0,0-12.609,6.159-10.296,19.628c0.839,6.616,7.605,9.21,7.605,9.21s-10.81,5.357-4.158,10.901
				c0,0-28.123,17.332-15.301,37.951c7.78,10.871,19.469,8.255,19.469,8.255s3.81,16.228,20.767,7.405s14.012-23.662,14.012-23.662
				s5.204,1.654,5.419-3.686c0,0,24.613,12.59,30.398-14.359c0,0,16.929-10.612,9.004-32.394c0,0,2.975-11.943-6.005-25.435
				C479.004,315.258,490.12,305.419,477.608,299.626z"/>
			<path fill="#C47E27" d="M429.171,375.388c2.605,2.605,7.815,1.051,7.815-2.605c-2.901-10.153-13.877-11.423-25.285-12.802
				c0.204,0.092,0.324,0.14,0.324,0.14s-10.81,5.357-4.158,10.901c0,0-14.034,8.663-17.746,21.019
				C408.996,387.306,440.409,404.607,429.171,375.388z"/>
			<path fill="#C47E27" d="M491.635,350.53c0,0,2.974-11.943-6.005-25.435c-6.626-9.837,4.49-19.677-8.022-25.469
				c0,0,3.27-9.506-4.39-13.891c-6.265-3.586-12.568-0.471-14.657,0.784c3.103,3.282,6.071,6.09,7.081,8.11
				c7.815,10.42,12.479,23.11,5.42,21.723c-10.42,0-11.219,16.135-7.311,22.816c3.286,5.6,7.185,11.849,4.496,15.379
				c-7.815,15.631,10,31.261-0.84,32.018c-6.303,0.756-6.303,10.841-14.123,11.199c4.755,2.031,24.278,8.774,29.347-14.84
				C482.631,382.924,499.56,372.313,491.635,350.53z"/>
		</g>
		<g>
			<path fill="#A8B650" d="M461.47,312.022c0,0-17.496-5.802-16.957-9.161s8.873-2.441,8.873-2.441s-18.665-4.632-22.743-5.128
				s7.331-3.532,7.331-3.532s-6.208-9.684-3.934-17.442c1.908-1.908,3.234,5.787,8.718,8.45c0,0,1.282-13.37,7.167-14.285
				c5.885-0.915,9.713,22.975,8.738,26.542c0,0,9.314-9.225,6.039,2.698S461.47,312.022,461.47,312.022z"/>
			<path fill="#B6C557" d="M458.663,295.026c0.974-3.567-2.853-27.456-8.739-26.542c-1.866,0.29-3.267,1.836-4.313,3.807
				c6.41,6.896,9.29,15.77,3.52,27.089c2.517,0.61,4.256,1.041,4.256,1.041l8.084,11.602c0,0-0.043-2.376,3.232-14.299
				C467.977,285.801,458.663,295.026,458.663,295.026z"/>
		</g>
		<g>
			<path fill="#E1DECF" d="M579.158,456.951c0,0,3.519-10.305,1.096-14.631c-2.424-4.326,17.287-9.355,17.287-9.355
				s13.23-15.33,22.833-3.545c0,0,17.137,10.482,14.188,39.949C631.614,498.837,579.158,456.951,579.158,456.951z"/>
			<path fill="#E1DECF" d="M445.374,459.854c-2.338-9.758-2.252-18.083,9.578-19.354c11.83-1.271,23.901-5.17,33.368-3.468
				c9.468,1.702,34.537,3.569,48.241-0.423c13.704-3.992,39.9,22.638,96.552,31.677c18.176,3.66,26.409,19.815,24.555,36.276
				c0.5,4.06-8.449-0.641-8.449-0.641s14.667,13.789-3.653,20.099c0,0,13.706,6.924,1.22,14.737c0,0,3.691,7.68,3.166,11.78
				c0,0,22.432,11.033,25.072,14.794c2.639,3.761-12.064-0.945-7.065,16.87c7.065,19.832-27.954,38.373-29.417,47.769
				c-1.463,9.396,1.015,31.272-18.169,35.464c-7.503,1.812-11.837-1.309-13.072-12.522s-9.9-3.807-6.072,15.011
				s-20.518,45.163-39.607,25.604c-19.088-19.559,20.197-29.717-11.042-50.857c-13.404-9.039-34.264,2.549-20.819-30.305
				c0,0-0.689-2.591-19.673-6.125c-18.984-3.534-21.944-15.762-8.867-31.161c13.077-15.399,11.448-24.754,11.448-24.754
				s-1.862,2.606-4.846-0.082c0,0-0.292,7.53-16.426-3.051c0,0-24.301-0.49-18.18-17.531c6.886-19.058,13.402-6.034,31.107,1.572
				c0,0,15.688-3.516,14.47-10.112c-1.217-6.596-1.315-32.269-27.78-48.117S445.374,459.854,445.374,459.854z"/>
			<path fill="#F4EFDE" d="M657.532,505.511c0.121-0.245,0.188-0.543,0.138-0.95c1.853-16.461-6.379-32.616-24.555-36.276
				c-56.652-9.038-82.847-35.669-96.552-31.677c-13.704,3.992-38.774,2.125-48.241,0.423c-9.468-1.702-21.538,2.198-33.368,3.468
				c-8.101,0.87-10.692,5.05-10.772,10.731c24.046-0.264,49.653-11.655,70.959,4.916c2.605,2.605,5.21,7.815,10.42,10.42
				C569.562,483.679,625.031,468.681,657.532,505.511z"/>
			<path fill="#F4EFDE" d="M649.304,522.385c8.591-4.723,5.181-11.825,2.31-15.701c-31.609-7.27-63.368-14.24-97.397-16.671
				c5.21,15.631,26.051,15.631,31.261,23.446c5.21,15.631-26.051,5.21-31.261,13.026c-13.026,23.446,15.631,20.841,31.261,15.631
				C604.955,533.459,626.231,519.427,649.304,522.385z"/>
			<path fill="#F4EFDE" d="M564.637,617.664c12.353,26.765,3.558,51.903-0.675,77.985c18.672,15.296,40.942-9.667,37.268-27.726
				c-0.334-1.643-0.543-3.166-0.7-4.631c-8.926-23.887-25.486-46.323-33.288-71.679
				C556.822,599.428,559.427,609.848,564.637,617.664z"/>
			<path fill="#F4EFDE" d="M675.026,565.33c-2.639-3.761-25.072-14.794-25.072-14.794c0.525-4.1-3.166-11.78-3.166-11.78
				c6.708-4.197,5.854-8.137,3.628-10.885c-13.153,6.5-15.441,7.575-15.441,24.664c-23.446-2.605-41.682,5.21-62.523,13.026
				c10.42,18.236,41.682,13.026,44.287,33.867c1.707,22.191,2.297,44.382,12.029,62.176c10.005-7.859,8.577-23.932,9.776-31.634
				c1.463-9.396,36.482-27.937,29.417-47.769C662.962,564.385,677.665,569.09,675.026,565.33z"/>
			<path fill="#F4EFDE" d="M620.375,429.42c-9.603-11.785-22.833,3.545-22.833,3.545s-19.711,5.029-17.288,9.354
				c0.414,0.739,1.358,5.633,0.038,10.494c8.127,4.341,20.502-9.379,28.631-17.509c7.479-8.047-11.177,27.018,13.656,14.79
				c5.925-3.472,8.193,17.269,12.05,18.185C637.038,439.671,620.375,429.42,620.375,429.42z"/>
		</g>
		<path fill="#F0C6A5" d="M551.117,451.724c-0.002,0.001-0.023,0.008-0.023,0.008S551.101,451.73,551.117,451.724z"/>
		<g>
			<path fill="#ECB498" d="M385.248,544.298c-4.734-17.315,3.453-32.498,36.228-39.384c41.057-4.196,54.672-17.623,76.101-27.145
				c0,0,36.542-41.857,42.866-45.657c6.325-3.8,26.693-11.619,25.681-8.149s-2.34,9.175-2.34,9.175s6.599,4.38-2.185,11.218
				s-10.505,7.376-10.505,7.376s15.113-5.71,14.101,2.727c-2.615,3.695-10.193,11.574-10.193,11.574s11.273-6.814,10.275-0.18
				s-14.696,11.129-14.696,11.129s-22.11,13.332-28.906,17.366c-6.796,4.034-76.044,59.834-100.199,64.599
				C397.321,563.712,381.242,548.414,385.248,544.298z"/>
			<path fill="#F0C6A5" d="M555.002,466.034c0,0,7.578-7.879,10.193-11.574c1.003-8.366-13.829-2.829-14.078-2.736
				c-0.015,0.006-0.023,0.008-0.023,0.008s0.021-0.008,0.023-0.008c0.225-0.086,2.258-0.966,10.482-7.368
				c8.784-6.837,2.185-11.217,2.185-11.217s1.328-5.705,2.34-9.174c1.012-3.47-19.357,4.349-25.681,8.149
				c-6.325,3.8-42.866,45.657-42.866,45.657c-21.429,9.522-35.044,22.949-76.101,27.145c-5.907,1.241-10.988,2.76-15.365,4.504
				c-11.558,13.758-5.184,33.451,12.64,37.906c13.956,2.791,25.663-0.418,36.735-5.585c28.454-18.282,61.594-44.664,66.19-47.392
				c6.796-4.034,28.906-17.366,28.906-17.366s13.699-4.494,14.696-11.129C566.275,459.219,555.002,466.034,555.002,466.034z"/>
		</g>
	</g>
	<g>
		<path fill="#BF6848" d="M525.134,332.384c-1.491,2.434-2.902,5.315-3.755,8.044c-0.166,0.531,0.506,0.864,0.85,0.442
			c1.802-2.213,2.709-5.298,3.922-7.858C526.474,332.333,525.546,331.712,525.134,332.384L525.134,332.384z"/>
	</g>
	<g>
		<g>
			<path fill="#BF6848" d="M498.036,321.743c0.156-1.267,0.569-2.473,1.247-3.558c0.727-1.162,1.773-1.823,2.662-2.81
				c0.279-0.31-0.1-0.889-0.496-0.771c-2.686,0.798-4.118,4.518-4.299,7.046C497.109,322.22,497.965,322.314,498.036,321.743
				L498.036,321.743z"/>
		</g>
		<g>
			<path fill="#BF6848" d="M500.15,317.201c0.091,1.596,1.541,2.68,3.046,1.923c0.526-0.265,0.825-1.115,0.218-1.501
				c-0.254-0.162-0.462-0.557-0.472-0.852C502.879,314.973,500.047,315.384,500.15,317.201L500.15,317.201z"/>
		</g>
		<g>
			<path fill="#A96821" d="M489.175,318.574c0.566-2.303,1.448-4.498,2.747-6.489c1.324-2.03,3.124-3.607,4.523-5.553
				c0.294-0.409-0.189-0.97-0.638-0.747c-4.407,2.188-6.706,8.147-7.492,12.694C488.218,319.038,489.046,319.099,489.175,318.574
				L489.175,318.574z"/>
		</g>
	</g>
	<g>
		<g>
			<path fill="#A96821" d="M411.248,370.345c7.038,1.845,13.497,3.229,19.692,7.358c6.869,4.579,10.612,10.371,15.17,17.072
				c0.361,0.531,1.348,0.279,1.13-0.436c-4.162-13.655-21.466-26.075-35.815-25.192
				C410.767,369.187,410.541,370.159,411.248,370.345L411.248,370.345z"/>
		</g>
		<g>
			<path fill="#A96821" d="M416.746,366.356c14.987,2.645,23.849,12.47,33.105,23.771c0.355,0.433,1.165-0.051,0.849-0.546
				c-7.596-11.876-19.115-23.122-33.872-24.188C416.198,365.347,416.141,366.249,416.746,366.356L416.746,366.356z"/>
		</g>
		<g>
			<path fill="#A96821" d="M428.729,363.852c12.772,4.318,20.123,13.897,25.059,26.007c0.216,0.529,1.034,0.25,0.938-0.297
				c-2.245-12.793-13.837-22.736-25.805-26.337C428.565,363.118,428.373,363.732,428.729,363.852L428.729,363.852z"/>
		</g>
		<g>
			<path fill="#A96821" d="M419.966,376.909c1.729,2.337,1.089,7.411-0.162,9.897c-0.574,1.14-1.3,2.227-2.002,3.29
				c-1.423,2.152-3.052,4.161-4.558,6.255c-1.725,2.398-5.447,6.368-5.368,9.443c0.148,5.745,10.809,4.281,14.034,2.763
				c0.563-0.265,0.251-1.156-0.356-1.025c-2.447,0.769-4.946,1.027-7.497,0.773c-1.218-1.608-2.436-3.217-3.654-4.825
				c-0.049-0.985,2.463-4.113,2.991-4.89c2.499-3.678,5.495-7.128,7.456-11.151c1.823-3.741,2.548-7.632-0.269-10.983
				C420.267,376.084,419.671,376.511,419.966,376.909L419.966,376.909z"/>
		</g>
		<g>
			<path fill="#A96821" d="M427.854,402.799c-2.297,1.293-5.21-0.717-6.002-2.983c-0.962-2.751,0.879-5.757,2.159-8.087
				c0.12-0.218-0.2-0.386-0.335-0.183c-1.911,2.875-3.647,7.158-1.725,10.475c1.338,2.31,4.229,3.254,6.564,1.925
				C429.258,403.522,428.596,402.381,427.854,402.799L427.854,402.799z"/>
		</g>
		<g>
			<path fill="#A96821" d="M428.503,406.718c2.674-2.337,5.359-5.039,4.054-8.873c-0.676-1.985-2.54-3.437-3.675-5.128
				c-3.115-4.638-2.145-8.511-0.228-13.373c0.14-0.355-0.339-0.796-0.646-0.488c-2.317,2.325-3.023,5.699-2.616,8.932
				c0.784,6.237,9.906,11.329,2.538,18.214C427.504,406.401,428.055,407.109,428.503,406.718L428.503,406.718z"/>
		</g>
		<g>
			<path fill="#A96821" d="M415.21,376.283c-6.436,3.411-18.139,5.752-18.35,15.045c-0.173,7.603,8.116,11.416,14.464,12.374
				c0.457,0.069,0.632-0.61,0.204-0.781c-2.255-0.902-4.634-1.584-6.786-2.725c-5.122-2.714-8.352-8.682-4.483-13.868
				c3.651-4.894,10.266-6.283,15.387-9.126C416.214,376.887,415.792,375.975,415.21,376.283L415.21,376.283z"/>
		</g>
		<g>
			<path fill="#A96821" d="M441.442,416.959c-0.561-0.342,2.102-8.016,2.297-9.567c0.288-2.294,0.16-4.58-0.367-6.829
				c-1.479-6.307-6.514-10.816-8.066-17.127c-0.081-0.329-0.59-0.21-0.569,0.114c0.582,9.051,8.96,14.874,7.345,24.626
				c-0.376,2.271-4.701,8.193-1.087,9.66C441.508,418.042,441.923,417.251,441.442,416.959L441.442,416.959z"/>
		</g>
		<g>
			<path fill="#A96821" d="M440.463,403.962c2.435,8.985-13.449,8.656-16.089,15.406c-0.32,0.817,0.759,1.628,1.358,0.872
				c3.275-4.13,7.868-4.801,11.966-7.695c2.988-2.109,5.237-5.262,4.128-8.997C441.565,402.667,440.223,403.078,440.463,403.962
				L440.463,403.962z"/>
		</g>
		<g>
			<path fill="#A96821" d="M414.673,332.568c-3.106,3.563-5.796,8.498-4.616,13.379c1.333,5.517,7.315,5.84,9.899,10.329
				c0.211,0.367,0.781,0.076,0.728-0.299c-0.475-3.397-3.445-4.243-5.827-6.163c-6.155-4.96-1.966-11.286,0.667-16.805
				C415.776,332.48,415.002,332.19,414.673,332.568L414.673,332.568z"/>
		</g>
		<g>
			<path fill="#A96821" d="M424.251,360.048c1.92-3.002,1.651-6.29-0.155-9.371c-1.228-2.095-3.181-3.691-4.758-5.503
				c-4.498-5.171-4.467-9.764-0.419-15.254c0.338-0.458-0.257-0.907-0.679-0.639c-3.465,2.198-4.934,6.722-4.018,10.698
				c1.606,6.973,13.911,11.71,9.498,19.731C423.549,360.018,424.056,360.352,424.251,360.048L424.251,360.048z"/>
		</g>
		<g>
			<path fill="#A96821" d="M425.07,360.026c5.783,3.412,6.995-6.183,7.696-9.96c0.931-5.016,0.86-9.797,0.036-14.819
				c-0.649-3.954-1.912-7.791-2.779-11.695c-1.138-5.124-5.392-32.279,11.259-24.685c0.695,0.317,1.325-0.626,0.633-1.044
				c-6.385-3.858-11.788,0.198-14.107,6.757c-1.777,5.026-1.086,10.529-0.128,15.619c1.121,5.958,10.013,44.756-2.373,39.349
				C424.991,359.409,424.774,359.851,425.07,360.026L425.07,360.026z"/>
		</g>
		<g>
			<path fill="#A96821" d="M436.939,364.488c3.767-5.145,5.407-10.642,6.013-16.968c0.328-3.424,0.165-6.862,0.289-10.292
				c0.253-6.992-0.297-26.686,14.799-19.798c0.579,0.264,0.952-0.639,0.467-0.979c-5.157-3.61-11.161-2.088-14.139,3.532
				c-7.291,13.762,1.323,30.267-8.245,43.939C435.757,364.446,436.562,365.003,436.939,364.488L436.939,364.488z"/>
		</g>
		<g>
			<path fill="#A96821" d="M476.477,297.995c-0.33,2.948-2.173,5.699-4.764,7.156c-0.579,0.326-0.233,1.384,0.436,1.13
				c3.544-1.344,5.617-4.373,5.735-8.156C477.908,297.331,476.567,297.187,476.477,297.995L476.477,297.995z"/>
		</g>
		<g>
			<path fill="#A96821" d="M482.224,314.345c0.108,4.789-0.045,9.649-0.799,14.387c-0.522,3.281-1.688,6.389-4.797,7.987
				c-2.45,1.259-5.43,1.057-8.116,1.274c-0.57,0.046-0.453,0.84,0.034,0.933c4.406,0.845,9.699,0.326,12.435-3.687
				c3.798-5.571,2.696-14.709,2.025-20.991C482.952,313.732,482.213,313.848,482.224,314.345L482.224,314.345z"/>
		</g>
		<g>
			<path fill="#A96821" d="M463.723,339.536c-3.359-7.397,0.467-14.921,7.568-18.007c2.831-1.23,5.798-2.481,5.204-6.073
				c-0.072-0.433-0.723-0.46-0.782-0.003c-0.582,4.457-5.66,4.528-8.667,6.722c-1.975,1.441-3.522,3.458-4.502,5.691
				c-1.742,3.972-1.635,8.25,0.219,12.139C463.06,340.629,464.007,340.161,463.723,339.536L463.723,339.536z"/>
		</g>
		<g>
			<path fill="#A96821" d="M460.882,332.486c0.158-5.369,0.814-11.525,5.538-14.941c2.952-2.135,7.962-0.937,9.903-4.386
				c0.294-0.522-0.336-1.133-0.819-0.71c-2.274,1.991-5.177,1.551-7.79,2.619c-1.702,0.695-3.158,1.886-4.296,3.313
				c-3.145,3.941-3.455,9.184-3.422,14.012C460,332.954,460.864,333.068,460.882,332.486L460.882,332.486z"/>
		</g>
		<g>
			<path fill="#A96821" d="M490.322,346.44c1.524,7.706-10.739,11.704-13.548,18.004c-3.674,8.239,1.177,14.734,1.596,23.117
				c0.039,0.783,1.163,0.809,1.221,0.02c0.726-9.92-6.402-19.292,3.012-27.781c4.932-4.448,11.114-5.748,8.743-13.559
				C491.155,345.611,490.189,345.767,490.322,346.44L490.322,346.44z"/>
		</g>
		<g>
			<path fill="#A96821" d="M461.949,344.016c1.913,3.572,0.399,12.127-2.609,14.597c-1.042,0.856-2.434,1.404-3.563,2.145
				c-2.513,1.651-5.018,3.537-6.646,6.124c-2.631,4.181-2.27,8.471,0.02,12.625c0.239,0.434,1.039,0.283,0.894-0.27
				c-1.306-4.959-2.034-8.759,1.688-13.155c1.337-1.58,3.281-2.833,5.007-3.964c2.559-1.677,5.578-2.862,7.525-5.32
				c3.503-4.421,0.981-9.053-1.754-13.178C462.26,343.242,461.747,343.638,461.949,344.016L461.949,344.016z"/>
		</g>
		<g>
			<path fill="#A96821" d="M456.802,390.55c-0.159-3.559-1.551-9.55-0.547-12.903c1.703-5.685,5.626-5.947,9.55-8.776
				c5.134-3.701,5.349-10.636,4.698-16.315c-0.064-0.558-0.964-0.513-0.983,0.05c-0.274,8.187-0.485,12.594-8.143,17.036
				c-1.83,1.062-3.88,1.561-5.087,3.466c-2.778,4.386-0.567,12.867-0.197,17.514C456.131,391.084,456.823,391.005,456.802,390.55
				L456.802,390.55z"/>
		</g>
	</g>
	<g>
		<g>
			<path fill="#AF5F43" d="M748.491,409.975c-2.055,5.932-4.538,12.697-2.331,18.962c1.67,4.742,5.902,8.786,11.19,8.478
				c10.874-0.632,16.353-17.708,11.543-26.1c-5.757-10.046-18.995-2.752-17.15,7.442c0.606,3.348,3.441,7.053,7.215,5.63
				c3.084-1.162,4.362-5.016,1.629-7.087c-0.861-0.652-1.986,0.48-1.512,1.372c-4.248,0.935-5.836-0.24-4.764-3.525
				c0.531-2.277,1.752-4.129,3.663-5.556c4.875-2.181,9.175,0.672,10.404,5.753c1.207,4.993-0.636,11.293-3.599,15.314
				c-4.202,5.705-11.55,6.457-15.684,0.303c-4.211-6.268-1.944-14.162,0.076-20.697C749.306,409.822,748.648,409.52,748.491,409.975
				L748.491,409.975z"/>
		</g>
		<g>
			<path fill="#AF5F43" d="M501.591,149.131c-5.611,8.392,1.698,18.717,11.077,19.045c8.791,0.308,20.937-7.869,19.556-17.801
				c-0.612-4.401-4.405-6.915-8.63-7.022c-3.798-0.096-11.75,1.699-13.87,5.339c-1.627,2.793,0.199,5.88,2.979,7.024
				c4.287,1.764,8.598-1.85,10.657-5.33c0.481-0.813-0.401-1.972-1.264-1.269c-0.836,0.68-1.585,1.474-2.421,2.144
				c-1.052,0.718-2.103,1.436-3.155,2.154c-1.154-1.547-2.308-3.095-3.461-4.642c0.287-1.098,5.494-2.416,6.438-2.667
				c4.383-1.164,9.44-0.464,10.864,4.574c0.855,3.025-1.456,7.214-3.355,9.314c-4.163,4.605-10.898,7.597-17.083,5.969
				c-6.757-1.778-11.078-9.859-7.39-16.226C502.891,149.117,501.993,148.529,501.591,149.131L501.591,149.131z"/>
		</g>
		<g>
			<path fill="#915038" d="M799.076,74.132c3.236-6.033,7.6-11.204,11.08-17.049c0.257-0.431-0.254-1.009-0.679-0.639
				c-5.127,4.455-8.723,11.039-11.82,17.002C797.187,74.349,798.598,75.024,799.076,74.132L799.076,74.132z"/>
		</g>
	</g>
	<g>
		<g>
			<path fill="#C2B698" d="M486.803,520.897c4.694,4.117,11.918,9.299,18.479,9.252c0.353-0.003,0.471-0.54,0.195-0.727
				c-2.502-1.684-5.565-2.528-8.276-3.854c-3.33-1.63-6.559-3.586-9.61-5.688C486.993,519.469,486.252,520.415,486.803,520.897
				L486.803,520.897z"/>
		</g>
		<g>
			<path fill="#C2B698" d="M487.033,462.391c7.622,0.56,15.561,1.916,23.199,1.468c0.709-0.042,0.75-0.971,0.055-1.093
				c-7.514-1.315-15.544-0.873-23.152-1.183C486.618,461.562,486.504,462.352,487.033,462.391L487.033,462.391z"/>
		</g>
		<g>
			<path fill="#C2B698" d="M529.988,496.3c3.232,1.684,6.464,3.371,9.698,5.052c3.184,1.655,8.594,3.281,11.047,5.8
				c5.924,6.084-3.895,17.473-7.276,23.506c-0.315,0.562,0.479,1.133,0.84,0.575c3.341-5.163,7.206-10.377,9.957-15.891
				c1.07-2.146,2.077-3.876,1.049-6.241c-1.25-2.877-5.095-4.226-7.63-5.48c-5.706-2.822-11.481-5.507-17.227-8.247
				C529.92,495.123,529.466,496.028,529.988,496.3L529.988,496.3z"/>
		</g>
		<g>
			<path fill="#C2B698" d="M518.053,513.979c0.518,1.984,1.297,4.402,1.119,6.483c-0.199,2.336-0.346,2.553-2.633,3.75
				c-3.265,1.709-6.955,2.744-10.32,4.253c-4.216,1.89-7.209,4.867-7.202,9.705c0.001,0.761,1.154,0.898,1.329,0.15
				c2.042-8.739,12.984-10.328,20.082-13.791c0.349-0.17,0.563-0.472,0.537-0.87c-0.234-3.471-0.934-6.653-2.04-9.936
				C518.76,513.234,517.921,513.475,518.053,513.979L518.053,513.979z"/>
		</g>
		<g>
			<path fill="#C2B698" d="M499.873,541.621c0.515,4.349,3.062,9.539,7.449,11.136c0.287,0.105,0.549-0.233,0.308-0.461
				c-3.339-3.162-6.057-6.133-6.663-10.911C500.876,540.668,499.789,540.913,499.873,541.621L499.873,541.621z"/>
		</g>
		<g>
			<path fill="#C2B698" d="M498.014,530.251c-5.949,1.066-11.627,7.99-10.556,14.161c0.125,0.718,1.203,0.593,1.352-0.04
				c0.574-2.435,1.016-4.798,2.382-6.947c1.787-2.811,4.387-4.529,7.364-5.923C499.317,531.145,498.72,530.125,498.014,530.251
				L498.014,530.251z"/>
		</g>
		<g>
			<path fill="#C2B698" d="M516.171,549.993c0.594-0.757,1.188-1.515,1.782-2.272c0.443-0.565,1.971-2.88,2.377-3.029
				c1.925-0.706,2.387,1.632,3.535,2.436c1.618,1.134,3.636,0.975,5.162-0.163c0.207-0.154,0.024-0.48-0.209-0.35
				c-2.751,1.533-4.347-0.113-5.921-2.077c-0.404-0.504-0.894-1.144-1.609-1.182c-0.658-0.035-0.871,0.37-1.319,0.722
				c-1.568,1.232-3.054,3.892-4.307,5.49C515.401,549.904,515.908,550.329,516.171,549.993L516.171,549.993z"/>
		</g>
		<g>
			<path fill="#C2B698" d="M525.885,547.468c7.837,6.592,15.33,15.687,26.548,14.319c11.322-1.38,22.448-9.908,31.114-16.782
				c0.513-0.407-0.116-1.321-0.668-0.949c-6.82,4.595-13.998,9.453-21.574,12.698c-15.553,6.663-23.296-1.606-34.4-10.421
				C526.142,545.727,525.129,546.832,525.885,547.468L525.885,547.468z"/>
		</g>
		<g>
			<path fill="#C2B698" d="M514.573,552.519c2.474,5.859,8.621,10.896,15.273,10.198c0.585-0.061,0.46-0.863-0.042-0.958
				c-6.205-1.173-11.446-3.794-14.157-9.822C515.322,551.214,514.272,551.805,514.573,552.519L514.573,552.519z"/>
		</g>
		<g>
			<path fill="#C2B698" d="M529.49,556.443c2.247,4.756,7.601,9.257,13.182,8.596c0.594-0.07,0.591-1.032,0.029-1.156
				c-5.27-1.162-9.642-2.812-12.311-7.859C530.093,555.463,529.215,555.862,529.49,556.443L529.49,556.443z"/>
		</g>
		<g>
			<path fill="#C2B698" d="M524.08,556.402c1.192,3.992,6.631,9.545,11.24,7.187c0.297-0.152,0.372-0.657-0.006-0.778
				c-1.856-0.592-3.774-0.625-5.528-1.568c-2.084-1.121-3.645-2.97-4.408-5.206C525.099,555.22,523.83,555.564,524.08,556.402
				L524.08,556.402z"/>
		</g>
		<g>
			<path fill="#C2B698" d="M515.625,607.894c6.685,0.539,12.069,2.636,11.208,11.094c-0.192,1.89-1.514,3.711-1.779,5.617
				c-0.36,2.594-0.617,4.878,0.713,7.304c6.576,11.997,28.16,2.807,33.747,18.993c4.256,12.332-6.272,21.117-2.756,32.651
				c2.333,7.654,8.655,13.182,15.371,16.97c0.729,0.411,1.287-0.617,0.645-1.096c-10.406-7.77-17.602-16.631-12.517-29.862
				c1.585-4.125,3.608-7.263,3.378-11.838c-0.425-8.454-6.867-14.874-14.046-18.363c-4.059-1.972-9.195-1.868-13.04-3.867
				c-3.333-0.249-4.989-2.652-4.966-7.207c-3.568-3.289-4.291-6.774-2.17-10.453c-0.107-1.342,1.001-2.778,0.719-4.119
				c-1.425-6.777-8.319-6.736-14.465-6.968C514.928,606.722,514.892,607.835,515.625,607.894L515.625,607.894z"/>
		</g>
		<g>
			<path fill="#C2B698" d="M555.195,565.594c-6.123,13.078-7.05,28.325-2.319,41.979c0.144,0.416,0.858,0.246,0.758-0.195
				c-3.273-14.415-2.57-27.47,2.644-41.303C556.513,565.453,555.483,564.98,555.195,565.594L555.195,565.594z"/>
		</g>
		<g>
			<path fill="#C2B698" d="M533.723,563.058c0.493,5.724-1.246,10.146-4.973,14.4c-0.491,0.56,0.164,1.268,0.769,0.849
				c4.744-3.292,6.783-9.926,5.433-15.395C534.786,562.246,533.66,562.335,533.723,563.058L533.723,563.058z"/>
		</g>
		<g>
			<path fill="#C2B698" d="M502.41,721.818c2.462-10.849,7.164-20.427,13.888-29.249c0.386-0.507-0.444-1.22-0.868-0.731
				c-7.363,8.499-11.976,18.737-13.958,29.776C501.377,722.146,502.288,722.354,502.41,721.818L502.41,721.818z"/>
		</g>
		<g>
			<g>
				<path fill="#D5C9AC" d="M451.839,456.286c21.604-6.984,42.682-5.899,64.364,0.183c0.596,0.167,0.906-0.669,0.327-0.91
					c-21.098-8.796-43.747-7.767-64.983-0.005C451.065,455.73,451.36,456.441,451.839,456.286L451.839,456.286z"/>
			</g>
			<g>
				<path fill="#D5C9AC" d="M566.369,475.283c27.718,5.635,54.319,10.827,80.408,22.185c0.56,0.244,1.012-0.689,0.467-0.979
					c-24.598-13.055-53.264-18.412-80.542-22.408C565.93,473.969,565.566,475.12,566.369,475.283L566.369,475.283z"/>
			</g>
			<g>
				<path fill="#D5C9AC" d="M642.354,502.231c-25.427-8.919-52.684-17.966-79.779-11.608c-0.466,0.109-0.407,0.835,0.089,0.758
					c27.703-4.311,53.431,2.926,79.587,11.323C642.55,502.8,642.642,502.332,642.354,502.231L642.354,502.231z"/>
			</g>
			<g>
				<path fill="#D5C9AC" d="M644.674,523.598c-7.482,0.123-15.637,1.419-21.908,5.807c-0.349,0.244-0.089,0.911,0.343,0.79
					c7.26-2.037,14.112-4.784,21.655-5.839C645.26,524.287,645.157,523.59,644.674,523.598L644.674,523.598z"/>
			</g>
			<g>
				<path fill="#D5C9AC" d="M647.75,537.525c-6.375,2.4-12.765,0.112-19.298,0.241c-4.374,0.086-8.415,1.247-12.136,3.513
					c-0.627,0.382-0.209,1.529,0.524,1.231c6.757-2.756,12.467-2.744,19.591-2.24c4.218,0.298,7.936,0.151,11.755-1.826
					C648.774,538.14,648.357,537.296,647.75,537.525L647.75,537.525z"/>
			</g>
			<g>
				<path fill="#D5C9AC" d="M648.88,550.776c-3.386-2.002-6.577-1.958-10.393-1.178c-3.381,0.691-6.503,1.651-9.978,0.986
					c-3.929-0.752-7.019-3.235-10.283-5.391c-0.435-0.287-0.898,0.304-0.496,0.646c3.545,3.015,7.783,5.92,12.583,6.272
					c6.222,0.456,11.837-3.808,18.001-0.52C648.864,551.885,649.438,551.106,648.88,550.776L648.88,550.776z"/>
			</g>
			<g>
				<path fill="#D5C9AC" d="M620.238,529.807c0.986,0.677,1.776,1.528,2.316,2.598c0.627,1.241,0.675,2.474,0.947,3.804
					c0.078,0.379,0.668,0.526,0.806,0.098c0.892-2.76-1.293-5.816-3.574-7.146C620.296,528.906,619.796,529.503,620.238,529.807
					L620.238,529.807z"/>
			</g>
			<g>
				<path fill="#D5C9AC" d="M617.876,528.97c-1.834,0.023-3.669,0.046-5.503,0.069c-0.302,0.004-0.662,0.281-0.55,0.629
					c1.067,3.309,2.044,6.659,3.37,9.876c0.206,0.499,1.057,0.254,0.916-0.283c-0.885-3.372-2.142-6.637-3.294-9.925
					c-0.169,0.252-0.338,0.505-0.507,0.757c1.865-0.072,3.729-0.145,5.594-0.215C618.417,529.858,618.396,528.963,617.876,528.97
					L617.876,528.97z"/>
			</g>
			<g>
				<path fill="#D5C9AC" d="M615.544,541.028c-2.983,1.476-6.488,1.468-9.474-0.026c-0.633-0.317-1.206,0.514-0.607,0.941
					c3.246,2.31,7.357,2.397,10.682,0.177C616.807,541.678,616.271,540.667,615.544,541.028L615.544,541.028z"/>
			</g>
			<g>
				<path fill="#D5C9AC" d="M644.098,525.713c2.562-0.173,3.861,2.183,3.839,4.452c-0.004,0.429,0.621,0.776,0.877,0.319
					c1.66-2.967-1.698-6.355-4.704-6.018C643.333,524.553,643.283,525.768,644.098,525.713L644.098,525.713z"/>
			</g>
			<g>
				<path fill="#D5C9AC" d="M554.644,565.383c14.319-1.205,28.864-7.531,37.607-19.308c0.252-0.34-0.217-0.88-0.547-0.558
					c-10.577,10.326-22.137,17.347-37.163,18.736C553.9,564.311,553.995,565.437,554.644,565.383L554.644,565.383z"/>
			</g>
			<g>
				<path fill="#D5C9AC" d="M592.471,548.483c3.403-2.393,3.018-8.08-0.125-10.434c-0.355-0.266-0.823,0.183-0.558,0.547
					c2.157,2.969,1.85,6.261-0.088,9.2C591.359,548.311,592.006,548.81,592.471,548.483L592.471,548.483z"/>
			</g>
			<g>
				<path fill="#D5C9AC" d="M594.258,545.96c3.025-0.01,5.85-1.469,7.186-4.271c1.092-2.29,1.227-6.005-0.95-7.72
					c-0.191-0.151-0.449,0.01-0.395,0.249c0.485,2.109,1.34,3.831,0.646,6.072c-0.877,2.827-3.65,4.599-6.514,4.762
					C593.717,545.081,593.737,545.962,594.258,545.96L594.258,545.96z"/>
			</g>
			<g>
				<path fill="#D5C9AC" d="M588.721,540.034c3.21-2.903,6.832-4.194,11.022-4.961c0.505-0.092,0.519-0.935-0.034-0.933
					c-4.403,0.012-8.538,2.122-11.711,5.073C587.482,539.692,588.198,540.507,588.721,540.034L588.721,540.034z"/>
			</g>
			<g>
				<path fill="#D5C9AC" d="M557.278,538.106c18.861,7.055,33.318-11.974,49.53-17.977c0.508-0.188,0.246-1.068-0.283-0.916
					c-16.694,4.795-29.795,24.394-48.913,17.878C556.959,536.868,556.635,537.865,557.278,538.106L557.278,538.106z"/>
			</g>
			<g>
				<path fill="#D5C9AC" d="M584.436,453.942c5.217-2.674,10.532-7.28,12.536-12.96c0.135-0.384-0.392-0.758-0.651-0.385
					c-3.505,5.05-6.819,9.369-12.254,12.507C583.567,453.392,583.903,454.215,584.436,453.942L584.436,453.942z"/>
			</g>
			<g>
				<path fill="#D5C9AC" d="M607.824,435.954c0.203,3.625-0.055,7.18-0.943,10.716c-0.614,2.446-2.07,5.244-1.541,7.848
					c0.504,2.484,2.593,4.362,5.105,3.659c0.371-0.104,0.294-0.753-0.094-0.757c-6.176-0.07-3.319-6.533-2.619-8.92
					c0.444-1.514,0.826-3.003,1.062-4.565c0.4-2.645,0.369-5.275,0.148-7.931C608.885,435.301,607.784,435.226,607.824,435.954
					L607.824,435.954z"/>
			</g>
			<g>
				<path fill="#D5C9AC" d="M620.82,529.522c4.926-2.006,8.506-6.19,9.223-11.511c0.062-0.461-0.596-0.549-0.704-0.108
					c-1.171,4.771-4.261,8.906-8.743,10.997C620.215,529.077,620.421,529.685,620.82,529.522L620.82,529.522z"/>
			</g>
			<g>
				<path fill="#D5C9AC" d="M611.269,530.202c-3.354-0.858-7.014,0.218-9.315,2.818c-0.53,0.599,0.21,1.349,0.838,0.888
					c2.484-1.822,5.239-2.624,8.304-2.482C611.802,531.459,611.954,530.377,611.269,530.202L611.269,530.202z"/>
			</g>
			<g>
				<path fill="#D5C9AC" d="M633.892,539.211c4.845,0.531,7.819-6.032,6.577-9.964c-0.261-0.826-1.548-0.576-1.486,0.291
					c0.13,1.804-0.225,3.478-1.192,5.021c-1.083,1.727-2.528,2.275-4.091,3.394C633.278,538.255,633.234,539.139,633.892,539.211
					L633.892,539.211z"/>
			</g>
			<g>
				<path fill="#D5C9AC" d="M623.104,547.564c-6.95,2.864-15.325,6.548-21.371-0.116c-0.569-0.627-1.571,0.248-1.124,0.937
					c5.369,8.288,16.15,4.439,23.001,0.39C624.231,548.408,623.82,547.269,623.104,547.564L623.104,547.564z"/>
			</g>
			<g>
				<path fill="#D5C9AC" d="M591.631,547.094c1.067,2.988,3.905,6.293,7.349,6.31c0.434,0.002,0.801-0.654,0.321-0.902
					c-1.247-0.646-2.509-1.117-3.616-2.02c-1.235-1.008-2.167-2.278-2.734-3.768C592.639,545.895,591.331,546.254,591.631,547.094
					L591.631,547.094z"/>
			</g>
			<g>
				<path fill="#D5C9AC" d="M600.645,677.948c-0.027-5.303,0.004-10.595-0.101-15.898c-0.039-1.982-0.165-4.006-0.118-5.987
					c-0.49-3.894,1.52-3.877,6.028,0.052c0.116,1.001,0.26,1.998,0.43,2.991c1.04,4.218,4.29,8.358,9.026,7.335
					c0.625-0.135,0.541-1.067-0.094-1.106c-9.459-0.587-5.322-9.352-9.658-13.892c-1.558-1.632-4.068-2.266-5.804-0.528
					c-1.775,1.777-1.326,4.929-1.259,7.177c0.198,6.648,0.566,13.276,0.891,19.917C600.007,678.437,600.647,678.368,600.645,677.948
					L600.645,677.948z"/>
			</g>
			<g>
				<path fill="#D5C9AC" d="M637.354,641.547c-0.857-7.146-0.597-8.568,4.247-14.741c7.241-9.226,2.718-3.724,7.822-7.182
					c3.679-2.493,5.891-3.914,8.682-7.843c5.438-7.655,9.217-16.581,10.56-25.873c0.089-0.614-0.901-0.787-1.067-0.195
					c-2.59,9.251-5.334,17.076-10.732,24.855c-4.733,6.821-12.465,7.338-17.551,12.954c-4.426,4.887-3.45,12.103-2.57,18.071
					C636.802,641.979,637.401,641.941,637.354,641.547L637.354,641.547z"/>
			</g>
			<g>
				<path fill="#D5C9AC" d="M569.102,565.986c7.332,9.459,14.836,12.567,25.06,18.134c12.116,6.598,18.617,18.169,20.864,31.414
					c0.102,0.599,1.116,0.545,1.082-0.084c-0.559-10.332-5.33-19.958-12.94-26.968c-4.414-4.066-9.183-6.174-14.557-8.69
					c-7.662-3.587-13.319-7.948-18.731-14.463C569.459,564.822,568.702,565.47,569.102,565.986L569.102,565.986z"/>
			</g>
			<g>
				<path fill="#D5C9AC" d="M561.543,567.048c-1.129,11.643,2.618,23.836,9.43,33.259c0.555,0.767,1.731,0.035,1.247-0.79
					c-6.071-10.341-8.716-20.538-9.584-32.414C562.586,566.418,561.613,566.327,561.543,567.048L561.543,567.048z"/>
			</g>
			<g>
				<path fill="#D5C9AC" d="M600.911,554.185c13.691,2.796,27.119,6.779,37.367,16.732c0.264,0.256,0.731-0.161,0.484-0.442
					c-9.645-11.001-23.886-14.674-37.761-17.201C600.417,553.168,600.34,554.069,600.911,554.185L600.911,554.185z"/>
			</g>
			<g>
				<path fill="#D5C9AC" d="M650.57,638.294c-11.206,27.262-25.859,51.867-43.54,75.391c-0.603,0.803,0.526,1.824,1.187,1.039
					c18.898-22.44,33.399-48.564,43.421-76.095C651.887,637.945,650.841,637.635,650.57,638.294L650.57,638.294z"/>
			</g>
			<g>
				<path fill="#D5C9AC" d="M608.218,680.596c-4.548,6.748-10.176,12.478-16.239,17.87c-0.453,0.403,0.105,1.091,0.593,0.731
					c6.663-4.92,11.856-11.303,16.125-18.363C608.878,680.534,608.405,680.318,608.218,680.596L608.218,680.596z"/>
			</g>
			<g>
				<path fill="#D5C9AC" d="M674.439,645.744c-0.234,6.802-2.29,13.175-5.482,19.173c-0.231,0.435,0.47,0.804,0.75,0.416
					c4.194-5.828,6.017-12.485,6.081-19.612C675.795,644.849,674.468,644.879,674.439,645.744L674.439,645.744z"/>
			</g>
			<g>
				<path fill="#D5C9AC" d="M698.928,680.249c-13.104,5.649-12.579,21.262-17.785,32.759c-0.086,0.191,0.176,0.349,0.288,0.163
					c2.987-4.965,5.148-10.229,6.662-15.812c0.951-3.508,1.453-6.622,3.831-9.586c2.158-2.689,5.204-4.29,7.759-6.512
					C700.264,680.754,699.545,679.983,698.928,680.249L698.928,680.249z"/>
			</g>
			<g>
				<path fill="#D5C9AC" d="M666.048,702.157c-0.458,2.429-1.099,4.792-2.094,7.061c-0.761,1.736-1.822,3.332-2.5,5.098
					c-0.147,0.383,0.357,0.706,0.627,0.376c2.683-3.279,3.713-8.356,4.313-12.447C666.425,702.023,666.091,701.929,666.048,702.157
					L666.048,702.157z"/>
			</g>
			<g>
				<path fill="#D5C9AC" d="M656.774,721.732c-7.168-0.442-11.654,3.71-15.991,9.009c-3.413,4.17-6.253,8.236-11.171,10.653
					c-5.009,2.462-11.069,2.916-16.518,3.597c-0.494,0.062-0.396,0.777,0.089,0.758c6.873-0.265,14.509-0.873,20.262-5.007
					c8.163-5.864,11.233-18.502,23.247-18.046C657.311,722.719,657.4,721.77,656.774,721.732L656.774,721.732z"/>
			</g>
			<g>
				<path fill="#D5C9AC" d="M610.731,757.377c5.731-2.111,11.132-4.876,15.904-8.705c0.399-0.32-0.047-0.905-0.471-0.633
					c-5.056,3.251-10.223,6.216-15.785,8.52C609.844,756.78,610.197,757.573,610.731,757.377L610.731,757.377z"/>
			</g>
		</g>
	</g>
	<g>
		<g>
			<path fill="#D79F89" d="M748.021,153.929c1.232,0.692,2.128,0.524,3.478,0.202c2.908-0.693,3.872,1.333,5.251,3.508
				c1.436,2.266,3.32,4.518,4.321,7.025c0.362,0.758,0.511,1.555,0.448,2.39c-1.486,1.086-2.913,1.254-4.28,0.503
				c-1.985-0.745-3.553-2.41-5.081-3.787c-0.683-0.615-1.626,0.284-1.174,1.034c1.617,2.683,5.385,5.533,8.722,5.299
				c2.649-0.186,3.86-2.358,3.45-4.824c-0.598-3.602-3.561-6.987-5.588-9.886c-1.012-1.448-2.003-3.066-3.906-3.284
				c-1.832-0.209-3.449,1.156-5.323,0.968C747.902,153.033,747.599,153.692,748.021,153.929L748.021,153.929z"/>
		</g>
		<g>
			<path fill="#D79F89" d="M761.53,159.839c1.141-3.232,3.05-5.444,5.251-7.977c0.365-0.421-0.271-0.931-0.679-0.639
				c-2.667,1.904-4.482,5.256-5.534,8.286C760.353,160.126,761.311,160.458,761.53,159.839L761.53,159.839z"/>
		</g>
		<g>
			<path fill="#D79F89" d="M774.659,162.126c-1.795-0.399-3.378,0.308-4.634,1.62c-1.426,1.49-3.862,5.392-5.827,2.347
				c-0.288-0.446-1.109-0.437-1.214,0.168c-0.368,2.116,1.974,3.11,3.768,2.745c3.322-0.676,4.179-6.033,7.74-5.629
				C775.208,163.457,775.358,162.281,774.659,162.126L774.659,162.126z"/>
		</g>
		<g>
			<path fill="#D79F89" d="M765.684,169.774c-0.414,2.748,1.052,5.532,3.764,6.413c2.351,0.764,6.238-0.245,6.837-2.967
				c0.131-0.595-0.513-0.971-0.982-0.605c-1.371,1.07-2.271,2.224-4.188,2.227c-2.613,0.004-4.539-2.493-4.468-4.986
				C766.665,169.232,765.777,169.157,765.684,169.774L765.684,169.774z"/>
		</g>
		<g>
			<path fill="#D79F89" d="M771.902,184.896c-2.554,1.727-4.472-1.96-3.736-4.072c0.688-1.976,2.711-3.116,3.308-5.06
				c0.089-0.291-0.133-0.686-0.483-0.599c-3.144,0.779-5.935,5.771-4.611,8.838c1.066,2.469,4.319,4.183,6.459,2.018
				C773.425,185.427,772.596,184.426,771.902,184.896L771.902,184.896z"/>
		</g>
		<g>
			<path fill="#D79F89" d="M753.674,165.855c-1.563-0.072-3.312,0.462-4.347,1.692c-0.258,0.307,0.113,0.791,0.477,0.625
				c1.317-0.603,2.454-1.151,3.912-1.359C754.255,166.736,754.227,165.88,753.674,165.855L753.674,165.855z"/>
		</g>
		<g>
			<path fill="#D79F89" d="M755.203,169.809c0.601,3.342-0.137,6.094-1.143,9.243c-0.098,0.306,0.308,0.664,0.531,0.339
				c1.919-2.784,2.001-6.533,1.229-9.714C755.735,169.329,755.139,169.454,755.203,169.809L755.203,169.809z"/>
		</g>
		<g>
			<path fill="#D79F89" d="M738.57,192.302c1.349,0.941,2.654,1.906,4.124,2.652c0.256,0.13,0.498-0.221,0.285-0.416
				c-1.207-1.105-2.556-1.98-3.903-2.906C738.633,191.327,738.125,191.991,738.57,192.302L738.57,192.302z"/>
		</g>
		<g>
			<path fill="#D79F89" d="M661.784,291.612c0.596,1.134,2.026,2.143,3.298,1.408c0.213-0.123,0.186-0.52-0.058-0.595
				c-1.006-0.308-1.786-0.248-2.538-1.213C662.213,290.863,661.562,291.191,661.784,291.612L661.784,291.612z"/>
		</g>
		<g>
			<path fill="#D79F89" d="M598.132,391.497c-0.384-1.506-0.511-3.04-0.445-4.589c0.033-0.774-1.045-0.821-1.277-0.162
				c-0.643,1.831-0.441,3.603,0.472,5.293C597.262,392.743,598.32,392.236,598.132,391.497L598.132,391.497z"/>
		</g>
		<g>
			<path fill="#D79F89" d="M543.809,399.52c4.825,5.737,5.703,12.358,4.804,19.616c-0.087,0.701,0.917,0.759,1.146,0.185
				c2.878-7.216,0.197-15.255-4.788-20.81C544.389,397.862,543.243,398.847,543.809,399.52L543.809,399.52z"/>
		</g>
		<g>
			<path fill="#D69A83" d="M491.475,371.617c3.562,2.485,9.111,2.112,12.419-0.63c0.554-0.459-0.085-1.405-0.723-1.172
				c-1.852,0.673-3.721,1.325-5.718,1.337c-1.851,0.011-3.548-0.531-5.314-1.011C491.345,369.925,490.815,371.157,491.475,371.617
				L491.475,371.617z"/>
		</g>
		<g>
			<path fill="#D69A83" d="M399.776,513.743c6.796-5.381,13.183-8.029,21.797-8.999c0.808-0.091,1.004-1.443,0.098-1.511
				c-8.165-0.612-17.542,3.252-22.78,9.596C398.369,513.461,399.129,514.255,399.776,513.743L399.776,513.743z"/>
		</g>
		<g>
			<path fill="#D79F89" d="M424.846,504.262c26.486-1.978,54.06-10.851,74.908-27.741c0.536-0.434-0.122-1.342-0.71-0.981
				c-23.88,14.657-46.127,24.35-74.291,27.616C424.129,503.228,424.211,504.309,424.846,504.262L424.846,504.262z"/>
		</g>
		<g>
			<path fill="#D79F89" d="M500.8,476.487c11.776-11.399,22.758-24.023,32.337-37.332c0.362-0.503-0.424-1.2-0.843-0.721
				c-10.842,12.377-20.544,25.556-32.194,37.246C499.617,476.164,500.303,476.968,500.8,476.487L500.8,476.487z"/>
		</g>
		<g>
			<path fill="#D79F89" d="M544.135,430.545c3.445-1.46,6.908-2.873,10.398-4.223c1.494-0.578,3.014-1.25,4.537-1.744
				c0.945-0.38,1.927-0.623,2.945-0.731c2.076,2.361,2.384,4.511,0.923,6.452c-0.141,0.247,0.201,0.545,0.426,0.37
				c2.588-2.011,4.021-7.155-0.282-8.131c-2.398-0.544-5.366,1.115-7.453,1.971c-3.992,1.638-7.932,3.406-11.847,5.218
				C543.261,429.968,543.606,430.769,544.135,430.545L544.135,430.545z"/>
		</g>
		<g>
			<path fill="#D79F89" d="M542.234,443.668c5.324-7.077,11.943-10.004,20.116-12.715c0.568-0.189,0.224-0.987-0.297-0.938
				c-8.14,0.771-15.689,6.815-20.304,13.242C541.512,443.586,541.986,443.998,542.234,443.668L542.234,443.668z"/>
		</g>
		<g>
			<path fill="#D79F89" d="M549.71,452.636c4.4-3.453,8.861-6.842,13.202-10.369c2.117-1.72,4.684-4.035,4.2-7.026
				c-0.028-0.172-0.308-0.198-0.375-0.041c-1.68,3.951-4.412,5.982-7.683,8.597c-3.348,2.677-6.697,5.354-10.045,8.032
				C548.47,452.26,549.171,453.059,549.71,452.636L549.71,452.636z"/>
		</g>
		<g>
			<path fill="#D79F89" d="M532.982,439.667c2.778-4.06,6.382-6.599,10.531-9.095c0.582-0.35,0.179-1.162-0.453-0.94
				c-4.61,1.622-8.435,5.416-11.097,9.408C531.536,439.681,532.548,440.3,532.982,439.667L532.982,439.667z"/>
		</g>
		<g>
			<path fill="#D79F89" d="M545.426,456.824c1.79-0.401,3.414-1.676,5.083-2.439c1.922-0.878,4.012-1.449,5.735-2.703
				c0.333-0.243,0.145-0.807-0.253-0.834c-2.138-0.149-4.121,0.681-6.024,1.573c-1.804,0.846-4.078,1.8-5.27,3.451
				C544.347,456.357,544.925,456.936,545.426,456.824L545.426,456.824z"/>
		</g>
		<g>
			<path fill="#D79F89" d="M551.504,468.593c2.804-0.668,5.341-2.309,7.136-4.511c0.589-0.722-0.332-1.753-1.109-1.209
				c-2.141,1.501-4.354,2.701-6.746,3.752C549.678,467.112,550.35,468.867,551.504,468.593L551.504,468.593z"/>
		</g>
		<g>
			<path fill="#D79F89" d="M487.008,521.064c9.386-7.13,19.218-13.923,28.144-21.622c0.263-0.227,0.001-0.677-0.306-0.469
				c-9.762,6.619-18.895,14.327-28.233,21.528C486.263,520.772,486.655,521.332,487.008,521.064L487.008,521.064z"/>
		</g>
		<g>
			<path fill="#D69A83" d="M387.756,544.583c1.102,3.061,3.701,4.8,6.878,5.035c0.777,0.057,0.842-1.092,0.156-1.303
				c-2.225-0.684-4.215-2.461-5.313-4.495C388.901,542.753,387.343,543.437,387.756,544.583L387.756,544.583z"/>
		</g>
		<g>
			<path fill="#D79F89" d="M516.846,872.581c6.335-3.835,12.321-9.811,14.347-17.132c0.102-0.37-0.435-0.479-0.602-0.188
				c-3.775,6.565-7.709,12.228-14.27,16.302C515.7,871.95,516.213,872.964,516.846,872.581L516.846,872.581z"/>
		</g>
		<g>
			<path fill="#D69A83" d="M613.339,879.547c-2.47-3.434-3.737-7.233-4.562-11.345c-0.113-0.565-0.929-0.436-0.88,0.134
				c0.367,4.323,2.264,8.182,4.917,11.569C613.064,880.225,613.58,879.882,613.339,879.547L613.339,879.547z"/>
		</g>
		<g>
			<path fill="#D69A83" d="M629.377,1132.776c0.871,1.399,1.7,2.848,2.366,4.357c0.41,0.928,2.123,4.366,0.008,4.441
				c-0.39,0.014-0.708,0.443-0.414,0.789c1.227,1.445,3.026-0.159,3.135-1.65c0.107-1.467-0.786-3.126-1.388-4.402
				c-0.734-1.557-1.625-2.953-2.681-4.31C629.95,1131.419,628.993,1132.159,629.377,1132.776L629.377,1132.776z"/>
		</g>
		<g>
			<path fill="#D69A83" d="M633.671,1132.563c2.998,3.574,5.408,7.256,4.12,12.068c-0.073,0.271,0.344,0.485,0.508,0.246
				c2.953-4.279-1.258-9.593-4.048-12.729C633.951,1131.812,633.373,1132.208,633.671,1132.563L633.671,1132.563z"/>
		</g>
		<g>
			<path fill="#D79F89" d="M639.069,1134.188c1.668,1.278,3.173,2.527,4.264,4.364c0.911,1.533,1.005,3.422,1.931,4.881
				c0.149,0.235,0.572,0.193,0.659-0.078c0.59-1.823-0.673-4.125-1.663-5.621c-1.163-1.757-2.839-3.37-4.833-4.125
				C639.08,1133.478,638.747,1133.941,639.069,1134.188L639.069,1134.188z"/>
		</g>
		<g>
			<path fill="#D79F89" d="M643.073,1133.668c4.127,2.04,8.003,4.618,6.963,9.77c-0.055,0.273,0.301,0.446,0.485,0.239
				c1.507-1.706,1.027-4.203-0.112-5.994c-1.584-2.493-4.454-3.548-7.091-4.518C642.988,1133.043,642.743,1133.505,643.073,1133.668
				L643.073,1133.668z"/>
		</g>
		<g>
			<path fill="#D69A83" d="M435.016,1107.473c-0.849-4.206-0.517-8.529,1.063-12.523c0.221-0.559-0.64-0.977-0.953-0.462
				c-2.51,4.133-3.254,8.642-2.06,13.356C433.377,1109.071,435.271,1108.738,435.016,1107.473L435.016,1107.473z"/>
		</g>
		<g>
			<path fill="#D69A83" d="M425.793,1109.583c-1.508-6.554-0.073-12.592,3.068-18.393c0.121-0.223-0.202-0.463-0.371-0.262
				c-4.432,5.255-5.405,12.342-3.745,18.867C424.914,1110.458,425.948,1110.257,425.793,1109.583L425.793,1109.583z"/>
		</g>
		<g>
			<path fill="#D69A83" d="M418.483,1108.8c-3.062-5.235-1.737-10.969,2.655-14.949c0.34-0.308,0.03-0.977-0.434-0.74
				c-5.808,2.967-7.064,11.469-3.232,16.442C417.916,1110.13,418.841,1109.411,418.483,1108.8L418.483,1108.8z"/>
		</g>
		<g>
			<path fill="#D69A83" d="M409.722,1107.639c-2.518-5.135,0.957-8.23,2.834-12.64c0.126-0.297-0.237-0.641-0.511-0.421
				c-3.734,2.994-6.568,9.466-3.239,13.687C409.206,1108.773,409.995,1108.196,409.722,1107.639L409.722,1107.639z"/>
		</g>
	</g>
	<g>
		<g>
			<path fill="#CAD76C" d="M456.172,300.433c-6.354-6.7-12.974-13.722-20.401-19.248c-0.292-0.217-0.774,0.162-0.499,0.463
				c6.283,6.877,13.619,13.007,20.451,19.338C456.066,301.304,456.478,300.755,456.172,300.433L456.172,300.433z"/>
		</g>
		<g>
			<path fill="#CAD76C" d="M452.668,296.782c-1.446-8.452-0.681-16.306-0.47-24.777c0.009-0.357-0.553-0.624-0.678-0.197
				c-2.349,7.995-1.412,17.08,0.196,25.14C451.837,297.557,452.773,297.398,452.668,296.782L452.668,296.782z"/>
		</g>
		<g>
			<path fill="#CAD76C" d="M452.483,298.26c-3.799-4.348-10.465-7.423-16.203-5.294c-0.497,0.184-0.224,0.84,0.231,0.826
				c5.946-0.174,11.048,0.481,15.443,4.973C452.242,299.059,452.756,298.572,452.483,298.26L452.483,298.26z"/>
		</g>
		<g>
			<path fill="#CAD76C" d="M457.494,306.863c-0.344-5.126,1.487-8.881,4.113-13.071c0.206-0.329-0.184-0.864-0.526-0.544
				c-3.622,3.396-4.773,8.912-4.296,13.689C456.831,307.395,457.525,307.32,457.494,306.863L457.494,306.863z"/>
		</g>
		<g>
			<path fill="#CAD76C" d="M447.129,304.059c2.036-0.07,4.056,0.202,5.963,0.938c1.761,0.68,3.152,1.853,4.803,2.708
				c0.38,0.197,0.729-0.337,0.488-0.646c-2.46-3.159-7.604-4.048-11.352-3.783C446.52,303.313,446.629,304.076,447.129,304.059
				L447.129,304.059z"/>
		</g>
	</g>
</g>
</svg>
