<?xml version="1.0" encoding="utf-8"?>
<!-- Designed by Vexels.com - 2019 All Rights Reserved - https://vexels.com/terms-and-conditions/  -->
<svg version="1.1" id="Layer_1" xmlns="http://www.w3.org/2000/svg" xmlns:xlink="http://www.w3.org/1999/xlink" x="0px" y="0px"
	 viewBox="0 0 1200 1200" enable-background="new 0 0 1200 1200" xml:space="preserve">
<g>
	<g>
		<g>
			<path fill="#E69874" d="M611.819,219.75c0,0,2.887,22.504,0,29.392s-86.657-1.878-78.122,77.964c0,0-0.301,15.608-1.474,23.023
				c-5.487,17.17,0.014,78.865-1.052,89.065c0,0-19.657,31.609-27.542,81.828c-7.885,50.219-7.403,61.442-20.782,73.061
				c-13.379,11.619-27.735,37.773-25.695,45.268c2.04,7.495,5.132,30.337,9.61,33.71s7.966,14.925,12.073,8.508
				c4.108-6.417,3.072-11.75,3.072-11.75s14.448,7.495,16.501-10.12c0,0,13.107-5.329,5.222-20.568c0,0,7.814-3.409,2.659-18.756
				c0,0,3.648-10.002,8.899-21.124s43.84-74.681,45.709-90.702c0,0,2.228,23.946,12.324,30.005
				c10.095,6.059,141.711-94.103,141.711-94.103s1.907-16.034,9.938-25.084c8.031-9.05,53.785-46.91,53.785-46.91
				s-0.069-21.91-8.426-41.545c0,0,3.076-77.186-30.601-74.013c-33.677,3.173-73.368-12.257-73.588-70.746L611.819,219.75z"/>
			<path fill="#ECB69B" d="M668.153,207.332c-10.912,12.949-26.962,22.961-42.803,23.54c-5.534,10.061-6.442,24.023-16.334,26.001
				c-18.275,2.611-28.718,10.443-39.161,23.497c-5.221,5.221-10.443,0-13.054,2.611c-1.477,5.908-0.027,35.604-5.221,57.436
				c-7.327,29.544,4.416,54.856,1.805,83.574c0,20.886,12.112,36.466,13.859,60.017c20.886,15.664,36.55-26.107,44.383-44.383
				c17.412-75.964,44.378-137.194,68.964-204.531C674.923,227.933,670.561,218.797,668.153,207.332z"/>
			<path fill="#ECB69B" d="M770.228,330.913c0,0,3.076-77.186-30.601-74.013c-6.877,0.648-14.001,0.499-20.991-0.615
				c-0.41,46.59,17.223,93.702,32.64,139.221c13.708-11.736,27.378-23.048,27.378-23.048S778.585,350.547,770.228,330.913z"/>
			<path fill="#ECB69B" d="M487.237,619.093c4.716-14.485,8.016-35.783-4.391-25.01c-13.379,11.619-27.735,37.773-25.696,45.268
				c9.856,11.154,5.132,30.337,9.61,33.71c4.478,3.373,7.965,14.925,12.073,8.508c3.136-4.898,3.273-9.145,3.162-10.89
				C477.869,650.26,480.146,635.638,487.237,619.093z"/>
		</g>
		<path fill="#A6CDD9" d="M571.642,780.231c-0.419,26.022-18.173,79.568,5.179,114.723c23.352,35.155,24.202,59.516,16.702,90.286
			c-7.499,30.771,23.081,83.774,70.954,96.181c0,0,7.499,29.756,48.909,22.597C713.386,1104.019,701.777,657.64,571.642,780.231z"/>
		<g>
			<path fill="#E69874" d="M515.187,702.423c0,0-43.411,96.659-44.397,128.822s13.183,51.629,13.183,51.629
				s45.482,23.799,65.176-4.908c0,0-9.906-25.92-3.52-34.619c6.386-8.699,39.634-58.076,35.972-71.559
				C577.939,758.305,558.057,675.985,515.187,702.423z"/>
			<path fill="#ECB69B" d="M535.915,828.627c15.665-26.107,28.718-49.604,13.054-67.879c-10.443-10.443-16.484-22.458-18.007-36.148
				c-9.076,2.269-13.839-3.75-22.4-6.974c-12.193,28.519-37.028,89.379-37.771,113.62c-0.986,32.163,13.183,51.629,13.183,51.629
				s25.002,13.066,45.96,8.128c2.295-3.675,4.143-7.403,5.982-10.161C546.358,862.567,525.472,841.681,535.915,828.627z"/>
		</g>
		<path fill="#A96D23" d="M418.582,1122.692c0.757,2.491-1.496,19.034,16.776,15.572c18.272-3.463,75.943-16.732,86.839-18.826
			c10.896-2.094,43.916-5.393,43.793-12.007s-1.547-7.944-4.905-9.005C557.727,1097.365,418.582,1122.692,418.582,1122.692z"/>
		<g>
			<path fill="#E69874" d="M496.863,992.858c0,0,12.088,53.746,5.652,65.736c0,0-20.997,13.443-31.156,27.385
				s-39.192,26.298-50.187,28.191c-10.995,1.892-5.542,23.25,31.651,14.593s52.416-19.297,97.516-22.497
				c23.557-0.225,14.041-34.444,3.135-57.296C542.568,1026.117,535.04,966.672,496.863,992.858z"/>
			<path fill="#ECB69B" d="M496.754,1102.755c10.443-10.443,23.497-13.054,33.94-26.108c7.832-7.832-7.832-18.275-10.443-26.107
				c-4.691-14.072-5.218-36.514-20.406-42.837c3.091,16.833,6.923,42.969,2.671,50.891c0,0-20.997,13.443-31.156,27.385
				c-10.159,13.942-39.192,26.298-50.187,28.19c-3.741,0.644-5.572,3.542-4.902,6.744
				C441.69,1129.69,476.377,1117.019,496.754,1102.755z"/>
		</g>
		<path fill="#A96D23" d="M578.493,1136.711c-5.102,5.121-2.346,12.701,10.677,13.206s56.028-0.96,70.155-14.261
			c14.127-13.301,17.417-21.106,16.525-27.863c-0.892-6.758-13.664-6.557-13.664-6.557L578.493,1136.711z"/>
		<g>
			<path fill="#E69874" d="M642.202,987.845c0,0,2.616,44.168-11.622,64.97c-7.02,12.214-8.045,25.55-8.045,25.55
				s-16.299,10.916-19.051,21.751c-5.776,21.699-31.902,21.544-26.702,40.473c1.424,10.844,65.611,1.012,79.526-12.939
				c13.915-13.95,12.579-19.003,10.374-32.616c-2.205-13.613,7.406-68.249,17.423-85.764
				C694.122,991.755,642.202,987.845,642.202,987.845z"/>
			<path fill="#ECB69B" d="M656.009,1115.809c7.832-13.054,0-31.329-5.221-39.161c-7.362-7.362-15.555-13.065-22.236-19.917
				c-5.185,10.983-6.017,21.634-6.017,21.634s-16.298,10.915-19.051,21.751c-1.613,6.061-4.815,10.415-8.477,13.958
				c0.274,5.652-8.337,10.746-5.445,14.603C606.742,1135.489,645.566,1134.084,656.009,1115.809z"/>
		</g>
		<path fill="#864D3B" d="M684.541,170.634c0,0-7.136,33.779,13.116,55.04s4.884,37.48,0.694,39.224
			c-4.191,1.744-43.271-52.429-32.312-78.744C676.998,159.839,684.541,170.634,684.541,170.634z"/>
		<path fill="#864D3B" d="M596.136,192.477c0,0,7.631,35.79-8.307,51.356c-15.938,15.566-32.434,3.594-36.068,28.108
			c0,0-1.777,15.598,6.592,21.198c10.491,7.021,3.074-11.512,14.867-26.332c0,0-6.308,24.402,4.764,40.668
			c0,0-5.98-36.713,17.136-47.066c24.157-10.819,19.129-14.822,16.699-40.66C608.763,205.5,596.136,192.477,596.136,192.477z"/>
		<path fill="#A96D23" d="M455.465,1097.333c0,0,28.924,16.46,32.243,26.69l21.675-7.53c0,0-14.966-25.912-38.642-32.879
			C470.741,1083.614,459.103,1091.036,455.465,1097.333z"/>
		<path fill="#A96D23" d="M551.028,1110.755c0,0-1.956-46.766-9.25-55.343c0,0-18.942,12.61-17.461-26.166l-21.705,1.323
			l-2.247-11.661l21.763-0.789l-2.407-21.154c0,0-17.998,7.342-23.52,2.974s-8.089-21.618-9.653-35.925
			c-1.564-14.307-5.497-74.125-4.036-77.633c1.462-3.508,45.701-11.235,73.091-7.503c0,0,12.896,74.167-0.827,97.312
			c0,0,6.55,12.518-1.06,23.895c0,0-6.539,35.842,0,46.096c6.539,10.253,15.99,42.511,12.275,61.248L551.028,1110.755z"/>
		<path fill="#A96D23" d="M637.966,906.035c0,0,0.219,81.163,1.678,88.495c1.459,7.332,27.92-7.502,48.578,12.987
			C688.221,1007.518,693.95,900.152,637.966,906.035z"/>
		<path fill="#A96D23" d="M638.162,1024.973c0,0,21.877-0.316,37.688,6.716l3.509-11.426c0,0-15.592-11.819-38.294-6.772
			L638.162,1024.973z"/>
		<path fill="#A96D23" d="M603.484,1100.116c0,0,45.459-14.696,60.993,19.321c3.912,10.898-7.639,11.225-7.639,11.225
			s-4.318-21.998-69.905-11.225C586.933,1119.438,588.418,1102.959,603.484,1100.116z"/>
		<g>
			<path fill="#407080" d="M462.825,691.879c-8.071,1.221-37.889-7.282-43.241-26.778c0,0,22.788,11.618,28.252,8.404
				c0,0-2.45-10.008-6.994-13.731C440.842,659.774,464.234,664.892,462.825,691.879z"/>
			<g>
				<g>
					<path fill="#96407B" d="M462.034,701.284c3.501-3.586,8.578-4.696,13.059-3.311c0.137-1.238,0.094-2.491-0.126-3.719
						c-0.459-2.553-1.685-4.993-3.683-6.943c-1.369-1.337-2.961-2.304-4.652-2.911c-4.608-1.653-9.96-0.603-13.604,3.129
						c-4.84,4.958-4.883,12.816-0.2,17.826c2.06,0.534,4.014,1.583,5.659,3.153C458.855,705.876,460.034,703.333,462.034,701.284z"
						/>
					<path fill="#8E2260" d="M471.783,743.841c2.043-0.605,3.964-1.723,5.558-3.355c0.468-0.479,0.891-0.986,1.27-1.515
						c5.066,3.371,11.97,2.778,16.376-1.736c4.981-5.101,4.883-13.274-0.218-18.255c-1.035-1.011-2.198-1.808-3.434-2.402
						c1.883-0.63,3.648-1.701,5.131-3.219c4.981-5.101,4.883-13.275-0.218-18.255c-4.243-4.142-10.609-4.768-15.498-1.928
						c-0.989,0.575-1.919,1.288-2.758,2.147s-1.529,1.806-2.08,2.808c-0.019,0.034-0.037,0.069-0.056,0.103
						c-0.011-0.004-0.022-0.008-0.033-0.012c-0.241-0.091-0.485-0.173-0.73-0.249c-4.48-1.385-9.557-0.275-13.059,3.311
						c-2,2.048-3.179,4.592-3.546,7.224c-1.645-1.57-3.599-2.62-5.659-3.153c-4.335-1.123-9.134,0.04-12.486,3.474
						c-4.981,5.101-4.883,13.274,0.218,18.255c-4.981,5.101-4.883,13.275,0.218,18.255c1.967,1.921,4.391,3.083,6.913,3.497
						c-0.389,3.784,0.886,7.702,3.819,10.566c5.101,4.981,13.275,4.883,18.255-0.218
						C473.865,754.986,474.521,748.709,471.783,743.841z"/>
				</g>
				<g>
					<circle fill="#A64C8F" cx="491.049" cy="726.447" r="5.264"/>
					<path fill="#A64C8F" d="M462.354,719.891c0.651-4.01-0.592-8.264-3.72-11.317c-5.101-4.981-13.275-4.883-18.255,0.218
						s-4.883,13.275,0.218,18.255c4.364-4.47,11.179-5.098,16.231-1.835c0.55-1,1.24-1.944,2.076-2.801
						C459.935,721.356,461.105,720.517,462.354,719.891z M448.499,719.61c-2.08-2.031-2.12-5.364-0.089-7.444
						c2.031-2.08,5.364-2.12,7.444-0.089c2.08,2.031,2.12,5.364,0.089,7.444C453.912,721.601,450.579,721.641,448.499,719.61z"/>
					<path fill="#96407B" d="M471.82,743.804c2.042-0.605,3.964-1.723,5.558-3.355c0.468-0.479,0.891-0.986,1.27-1.515
						c3.648-5.095,3.134-12.228-1.488-16.74c-0.588-0.574-1.218-1.079-1.878-1.518c-3.88-2.582-8.838-2.835-12.927-0.784
						c-1.249,0.627-2.419,1.465-3.45,2.521c-0.836,0.856-1.526,1.801-2.076,2.801c0.714,0.461,1.393,0.999,2.025,1.616
						c2.933,2.864,4.21,6.782,3.819,10.566c2.521,0.415,4.946,1.577,6.913,3.497C470.488,741.774,471.231,742.757,471.82,743.804z
						 M468.504,729.348c2.031-2.08,5.364-2.12,7.444-0.089c2.08,2.031,2.12,5.364,0.089,7.444c-2.031,2.08-5.364,2.12-7.444,0.089
						S466.473,731.428,468.504,729.348z"/>
					<circle fill="#A64C8F" cx="452.176" cy="715.843" r="5.264"/>
					<circle fill="#96407B" cx="472.27" cy="733.025" r="5.264"/>
					<path fill="#8E2260" d="M460.496,737.221c1.034-2.002,0.695-4.524-1.001-6.181c-2.08-2.031-5.413-1.991-7.444,0.089
						c-2.031,2.08-1.991,5.413,0.089,7.444c0.361,0.352,0.759,0.64,1.182,0.868C455.479,737.976,457.985,737.235,460.496,737.221z"
						/>
					<path fill="#A64C8F" d="M494.805,718.943c-1.035-1.011-2.198-1.808-3.434-2.401c1.883-0.63,3.648-1.701,5.131-3.219
						c4.981-5.101,4.883-13.275-0.218-18.255c-5.101-4.981-13.275-4.883-18.255,0.218s-4.883,13.275,0.218,18.255
						c1.035,1.011,2.198,1.808,3.434,2.401c-1.883,0.63-3.648,1.701-5.131,3.219c-0.468,0.479-0.891,0.986-1.269,1.514
						c0.66,0.439,1.29,0.944,1.878,1.518c4.622,4.513,5.136,11.646,1.488,16.74c5.066,3.371,11.97,2.778,16.376-1.736
						C500.004,732.097,499.907,723.924,494.805,718.943z M488.728,708.634c-2.08-2.031-2.12-5.364-0.089-7.444
						c2.031-2.08,5.364-2.12,7.444-0.089c2.08,2.031,2.12,5.364,0.089,7.444C494.141,710.625,490.808,710.665,488.728,708.634z
						 M487.371,730.213c-2.08-2.031-2.12-5.364-0.089-7.444c2.031-2.08,5.364-2.12,7.444-0.089c2.08,2.031,2.12,5.364,0.089,7.444
						C492.784,732.204,489.451,732.244,487.371,730.213z"/>
					<circle fill="#96407B" cx="492.405" cy="704.868" r="5.264"/>
					<path fill="#A64C8F" d="M471.82,743.804c-0.589-1.047-1.332-2.03-2.235-2.912c-1.967-1.921-4.391-3.083-6.913-3.497
						c-0.72-0.118-1.448-0.177-2.176-0.173c-2.511,0.014-5.017,0.754-7.174,2.22c-0.705,0.479-1.373,1.035-1.992,1.669
						c-4.981,5.101-4.883,13.275,0.218,18.255c5.101,4.981,13.275,4.883,18.255-0.218
						C473.902,754.949,474.558,748.672,471.82,743.804z M461.642,754.95c-2.08-2.031-2.12-5.364-0.089-7.444s5.364-2.12,7.444-0.089
						c2.08,2.031,2.12,5.364,0.089,7.444C467.054,756.941,463.722,756.981,461.642,754.95z"/>
					<circle fill="#C06D87" cx="465.319" cy="751.184" r="5.264"/>
				</g>
			</g>
			<g>
				<path fill="#96407B" d="M493.275,673.306c-0.675-0.142-1.382-0.193-2.105-0.136c-1.575,0.123-2.994,0.731-4.128,1.664
					c-0.324,0.266-0.625,0.559-0.898,0.875c-0.944,1.09-1.573,2.454-1.756,3.941c-0.06,0.486-0.072,0.985-0.033,1.493
					c0.32,4.083,3.889,7.134,7.972,6.815c4.083-0.32,7.134-3.889,6.815-7.972C498.879,676.624,496.415,673.964,493.275,673.306z
					 M494.24,681.923c-1.665,0.13-3.12-1.114-3.251-2.779c-0.13-1.665,1.114-3.12,2.779-3.251s3.12,1.114,3.251,2.779
					C497.149,680.337,495.905,681.793,494.24,681.923z"/>
				<circle fill="#96407B" cx="494.004" cy="678.908" r="3.024"/>
			</g>
			<g>
				<path fill="#8E2260" d="M483.883,746.28c-0.676-0.142-1.382-0.193-2.105-0.136c-1.575,0.123-2.994,0.731-4.128,1.664
					c-0.324,0.266-0.625,0.559-0.898,0.875c-0.944,1.09-1.573,2.454-1.756,3.941c-0.06,0.486-0.072,0.985-0.033,1.493
					c0.32,4.083,3.889,7.134,7.972,6.815c4.083-0.32,7.134-3.889,6.815-7.972C489.488,749.598,487.023,746.939,483.883,746.28z
					 M484.848,754.898c-1.665,0.13-3.12-1.114-3.251-2.779c-0.13-1.665,1.114-3.12,2.779-3.251c1.665-0.13,3.12,1.114,3.251,2.779
					C487.757,753.312,486.513,754.767,484.848,754.898z"/>
				<circle fill="#96407B" cx="484.612" cy="751.883" r="3.024"/>
			</g>
		</g>
		<g>
			<path fill="#E69874" d="M596.136,96.782c-8.307,17.089-10.623,47.001-7.163,67.456c3.46,20.455,11.52,57.651,30.562,59.899
				c19.041,2.248,42.296-21.981,48.523-35.469c0,0,6.974,7.486,10.5-12.415C682.084,156.352,645.325,50.723,596.136,96.782z"/>
			<path fill="#ECB69B" d="M658.62,165.497c0-13.054-15.664-18.275-10.443-31.329c-15.664,10.443-31.329-2.611-46.993,2.611
				c-4.853,0-5.207,13.511-13.616,13.325c0.211,4.992,0.669,9.784,1.405,14.135c3.46,20.455,11.52,57.651,30.562,59.899
				c19.041,2.248,42.297-21.981,48.523-35.469c0,0,5.318,5.705,9.014-6.1c-1.126-6.284-3.77-12.186-5.398-17.072
				C669.063,165.497,661.231,170.718,658.62,165.497z"/>
		</g>
		<g>
			<path fill="#E89F7E" d="M632.746,180.794c0,0-8.959,8.052-11.425,6.631c0,0-9.048-3.336-7.587-8.129
				C615.196,174.504,623.192,160.725,632.746,180.794z"/>
			<path fill="#E79D86" d="M611.819,195.975c0,0,10.18-7.571,26.388,0.741c0,0-1.433,6.466-13.67,6.361
				C612.3,202.974,611.819,195.975,611.819,195.975z"/>
		</g>
		<g>
			<path fill="#407080" d="M579.531,123.532c0,0,12.951,28.118,2.9,44.179l-10.377-6.369c0,0,0.389,18.039-9.748,28.067
				c0,0-9.763-16.716-2.118-31.894l-11.554,8.345C548.634,165.86,535.958,147.18,579.531,123.532z"/>
			<path fill="#56987F" d="M669.468,81.501c0,0,11.975-2.027,12.212-12.832s2.756-11.431,5.092-16.381s-11.904-2.007-14.017,10.15
				C670.641,74.595,672.062,78.27,669.468,81.501z"/>
			<path fill="#56987F" d="M689.355,95.074c0,0,16.255-2.599,19.566-4.237c3.31-1.638,4.803-7.752-2.453-6.328
				C699.212,85.933,693.419,87.518,689.355,95.074z"/>
			<path fill="#477E85" d="M577.271,127.675c0,0-16.401-3.356-30.352,2.116s-21.85-2.199,10.396-14.281l-9.848,0.173
				c0,0,11.868-4.492,16.875-15.953c2.252-3.376,13.613,3.228,13.613,3.228l8.675-7.9c0,0-8.318-3.076-5.627-6.387
				c0,0-17.328,0.664-21.313-16.292c0,0,22.174,7.355,40.171,0c0,0-17.752-3.737-18.574-13.884c0,0,18.039,1.221,28.334,11.61
				s13.732,10.733,20.08,1.563c6.348-9.17,18.64-1.952,19.701,12.84c0,0,46.08,29.073,43.144,52.014
				c-2.936,22.941,25.852,13.05,27.628,31.918c1.777,18.868-16.545,7.081-18.719-7.844c0,0-14.326,0.39-10.559,26.436
				c0,0-13.98-2.549-18.436-31.037l-2.559,6.994c0,0-9.843-6.534-9.216-23.447c0.628-16.913-27.252-43.124-37.583-39.66
				s1.003,25.743,1.003,25.743s-14.93-7.074-14.359-22.667c0,0-7.733-7.787-6.633,25.396c0.404,7.918-5.454-4.442-8.842-1.524
				C590.885,129.749,595.3,152.933,577.271,127.675z"/>
			<path fill="#56987F" d="M620.538,84.509c0,0-5.009-13.286,2.977-18.912C631.502,59.972,620.538,84.509,620.538,84.509z"/>
		</g>
		<g>
			<g>
				<g>
					<path fill="#95305C" d="M659.664,108.919c0-4.36,2.486-8.137,6.117-9.999c-0.668-0.854-1.455-1.608-2.339-2.239
						c-1.837-1.31-4.084-2.084-6.513-2.084c-1.665,0-3.244,0.365-4.665,1.015c-3.874,1.772-6.567,5.679-6.567,10.217
						c0,6.028,4.75,10.946,10.711,11.219c1.607-0.92,3.461-1.454,5.44-1.477C660.476,113.709,659.664,111.409,659.664,108.919z"/>
					<path fill="#8D123B" d="M691.601,129.487c0.904-1.618,1.421-3.482,1.421-5.467c0-0.583-0.045-1.156-0.13-1.715
						c5.203-0.981,9.14-5.546,9.14-11.034c0-6.203-5.029-11.232-11.232-11.232c-1.259,0-2.468,0.21-3.597,0.592
						c0.789-1.536,1.237-3.277,1.237-5.123c0-6.203-5.029-11.232-11.232-11.232c-5.159,0-9.503,3.48-10.82,8.219
						c-0.266,0.959-0.412,1.969-0.412,3.013s0.145,2.054,0.412,3.013c0.009,0.033,0.018,0.066,0.028,0.098
						c-0.009,0.004-0.019,0.009-0.028,0.013c-0.206,0.09-0.407,0.187-0.606,0.289c-3.631,1.861-6.117,5.638-6.117,9.999
						c0,2.49,0.812,4.791,2.184,6.653c-1.979,0.023-3.833,0.557-5.44,1.477c-3.382,1.936-5.662,5.576-5.662,9.752
						c0,6.203,5.029,11.232,11.232,11.232c0,6.203,5.029,11.232,11.232,11.232c2.392,0,4.607-0.75,6.429-2.024
						c2.058,2.592,5.233,4.256,8.8,4.256c6.203,0,11.232-5.029,11.232-11.232C699.671,135.159,696.264,130.853,691.601,129.487z"/>
				</g>
				<g>
					<circle fill="#A43A6E" cx="693.022" cy="106.948" r="4.58"/>
					<path fill="#A43A6E" d="M671.173,120.308c-2.032-2.892-5.391-4.785-9.195-4.785c-6.203,0-11.232,5.029-11.232,11.232
						c0,6.203,5.029,11.232,11.232,11.232c0-5.435,3.861-9.968,8.989-11.007c-0.265-0.957-0.41-1.964-0.41-3.005
						C670.558,122.69,670.776,121.457,671.173,120.308z M662.377,128.554c-2.529,0-4.58-2.05-4.58-4.58c0-2.529,2.05-4.58,4.58-4.58
						s4.58,2.05,4.58,4.58C666.957,126.504,664.906,128.554,662.377,128.554z"/>
					<path fill="#95305C" d="M691.601,129.441c0.904-1.618,1.421-3.482,1.421-5.467c0-0.583-0.045-1.156-0.13-1.715
						c-0.826-5.389-5.482-9.517-11.102-9.517c-0.715,0-1.414,0.069-2.092,0.197c-3.985,0.751-7.225,3.607-8.524,7.369
						c-0.397,1.149-0.615,2.382-0.615,3.666c0,1.041,0.145,2.048,0.41,3.005c0.725-0.147,1.475-0.224,2.243-0.224
						c3.567,0,6.743,1.664,8.8,4.256c1.822-1.274,4.037-2.025,6.429-2.025C689.538,128.987,690.598,129.147,691.601,129.441z
						 M680.75,122.457c0-2.529,2.051-4.58,4.58-4.58s4.58,2.05,4.58,4.58c0,2.529-2.05,4.58-4.58,4.58
						S680.75,124.986,680.75,122.457z"/>
					<circle fill="#A43A6E" cx="662.377" cy="123.974" r="4.58"/>
					<circle fill="#95305C" cx="685.33" cy="122.457" r="4.58"/>
					<path fill="#8D123B" d="M680.55,132.226c-0.573-1.875-2.317-3.239-4.38-3.239c-2.529,0-4.58,2.051-4.58,4.58
						c0,2.529,2.05,4.58,4.58,4.58c0.438,0,0.862-0.063,1.263-0.178C677.885,135.745,678.995,133.761,680.55,132.226z"/>
					<path fill="#A43A6E" d="M690.799,99.993c-1.259,0-2.468,0.21-3.597,0.592c0.789-1.536,1.237-3.277,1.237-5.123
						c0-6.203-5.029-11.232-11.232-11.232s-11.232,5.029-11.232,11.232s5.029,11.232,11.232,11.232c1.259,0,2.468-0.21,3.597-0.592
						c-0.789,1.536-1.237,3.277-1.237,5.123c0,0.583,0.044,1.155,0.13,1.714c0.678-0.128,1.377-0.197,2.092-0.197
						c5.62,0,10.276,4.128,11.102,9.517c5.203-0.981,9.14-5.546,9.14-11.034C702.031,105.022,697.003,99.993,690.799,99.993z
						 M680.75,97.269c-2.529,0-4.58-2.05-4.58-4.58c0-2.529,2.05-4.58,4.58-4.58s4.58,2.05,4.58,4.58
						C685.33,95.218,683.279,97.269,680.75,97.269z M693.022,111.528c-2.529,0-4.58-2.05-4.58-4.58c0-2.529,2.051-4.58,4.58-4.58
						c2.529,0,4.58,2.05,4.58,4.58C697.602,109.477,695.551,111.528,693.022,111.528z"/>
					<circle fill="#C06D87" cx="680.75" cy="92.689" r="4.58"/>
					<path fill="#A43A6E" d="M691.601,129.441c-1.003-0.294-2.063-0.454-3.162-0.454c-2.392,0-4.608,0.75-6.429,2.025
						c-0.52,0.364-1.009,0.77-1.46,1.215c-1.555,1.535-2.665,3.519-3.117,5.743c-0.148,0.727-0.226,1.479-0.226,2.25
						c0,6.203,5.029,11.232,11.232,11.232c6.203,0,11.232-5.029,11.232-11.232C699.671,135.114,696.264,130.807,691.601,129.441z
						 M692.039,142.567c-2.529,0-4.58-2.05-4.58-4.58s2.05-4.58,4.58-4.58s4.58,2.05,4.58,4.58S694.569,142.567,692.039,142.567z"/>
					<circle fill="#C06D87" cx="692.039" cy="137.987" r="4.58"/>
				</g>
			</g>
			<g>
				<g>
					<path fill="#95305C" d="M603.194,107.227c2.491-3.652,2.297-8.016-0.078-11.264c1.118-0.427,2.3-0.716,3.509-0.857
						c2.538-0.295,5.19,0.064,7.591,1.19c1.661,0.779,3.025,1.845,4.061,3.093c2.847,3.427,3.167,8.169,0.354,12.082
						c-3.67,5.104-11.2,6.767-16.979,4.018c-0.977-1.535-2.392-2.87-4.193-3.84C599.747,110.789,601.787,109.29,603.194,107.227z"/>
					<path fill="#8D123B" d="M554.653,113.356c-2.623,4.426-1.118,10.182,3.417,12.987c2.658,1.644,5.802,1.943,8.56,1.051
						c0.83,1.779,2.214,3.376,4.097,4.53c4.969,3.045,11.589,1.876,14.726-2.761c5.373,3.136,12.565,1.866,15.997-3
						c2.35-3.332,2.272-7.423,0.203-10.675c-0.977-1.535-2.392-2.87-4.193-3.84c2.288-0.859,4.328-2.359,5.735-4.421
						c2.491-3.652,2.297-8.016-0.078-11.264c-0.129-0.177-0.265-0.351-0.407-0.521c-0.006-0.008-0.013-0.016-0.019-0.023
						c0.027-0.024,0.055-0.047,0.082-0.071c0.797-0.7,1.512-1.5,2.111-2.399c0.601-0.902,1.045-1.842,1.345-2.794
						c1.491-4.735-0.664-9.681-5.549-11.837c-5.727-2.529-12.919-0.204-16.144,5.035c-0.948,1.539-1.453,3.166-1.562,4.761
						c-0.769-0.782-1.69-1.452-2.753-1.966c-5.161-2.496-11.623-0.433-14.503,4.466c-2.504,4.258-1.542,9.375,2.058,12.317
						c-0.326,0.391-0.626,0.809-0.895,1.253c-0.913,1.506-1.365,3.136-1.404,4.743C561.287,107.935,556.847,109.654,554.653,113.356
						z"/>
				</g>
				<g>
					<path fill="#C06D87" d="M572.752,94.493c-2.035-1.046-2.704-3.504-1.506-5.512c1.208-2.024,3.87-2.856,5.957-1.833
						c2.109,1.033,2.806,3.552,1.546,5.6C577.498,94.78,574.808,95.55,572.752,94.493z"/>
					<path fill="#A43A6E" d="M585.296,114.21c-0.533,0.813-1.169,1.528-1.881,2.144c3.864,3.25,4.86,8.635,2.061,12.774
						c5.373,3.136,12.567,1.865,15.999-3.001c3.503-4.967,1.628-11.571-4.109-14.581c-3.441-1.805-7.433-1.858-10.714-0.505
						C586.402,112.133,585.955,113.204,585.296,114.21z M588.409,115.913c1.324-1.993,4.223-2.649,6.488-1.437
						c2.29,1.225,3.035,3.873,1.651,5.888c-1.373,1.998-4.302,2.586-6.532,1.34C587.81,120.471,587.096,117.89,588.409,115.913z"/>
					<path fill="#95305C" d="M568.172,109.934c1.888,1.058,3.299,2.614,4.153,4.399c2.905-1.033,6.328-0.854,9.307,0.797
						c0.648,0.359,1.243,0.77,1.783,1.225c0.711-0.617,1.348-1.332,1.881-2.144c0.659-1.006,1.106-2.077,1.357-3.169
						c0.824-3.588-0.506-7.344-3.539-9.72c-0.512-0.401-1.07-0.763-1.675-1.076c-4.691-2.427-10.462-1.16-13.643,2.65
						c-0.326,0.391-0.626,0.809-0.895,1.253c-0.913,1.507-1.365,3.136-1.404,4.744C566.41,109.109,567.311,109.452,568.172,109.934z
						 M571.551,109.831c-2.013-1.117-2.676-3.571-1.491-5.505c1.194-1.949,3.826-2.66,5.89-1.564
						c2.086,1.107,2.776,3.622,1.53,5.593C576.244,110.31,573.585,110.96,571.551,109.831z"/>
					<path fill="#A43A6E" d="M594.897,114.476c2.29,1.225,3.035,3.873,1.651,5.888c-1.373,1.998-4.302,2.586-6.532,1.34
						c-2.206-1.233-2.92-3.814-1.606-5.791C589.733,113.919,592.632,113.264,594.897,114.476z"/>
					<path fill="#95305C" d="M570.06,104.326c1.194-1.949,3.826-2.66,5.89-1.564c2.086,1.107,2.776,3.622,1.53,5.593
						c-1.236,1.955-3.895,2.605-5.929,1.476C569.538,108.714,568.875,106.26,570.06,104.326z"/>
					<path fill="#8D123B" d="M572.919,115.913c1.36-1.155,3.44-1.394,5.137-0.443c2.101,1.177,2.794,3.71,1.538,5.634
						c-1.247,1.909-3.926,2.466-5.974,1.27c-0.353-0.206-0.663-0.451-0.93-0.725C573.385,119.782,573.439,117.781,572.919,115.913z"
						/>
					<path fill="#A43A6E" d="M565.738,90.578c-2.504,4.259-1.543,9.376,2.058,12.317c3.181-3.81,8.951-5.077,13.643-2.65
						c0.605,0.313,1.163,0.675,1.675,1.076c0.357-0.41,0.687-0.85,0.984-1.318c0.946-1.49,1.456-3.098,1.567-4.693
						c0.781,0.801,1.723,1.5,2.823,2.051c5.509,2.762,12.893,0.843,16.422-4.452c3.603-5.406,1.684-12.033-4.205-14.632
						c-5.728-2.528-12.92-0.202-16.146,5.037c-0.948,1.539-1.453,3.167-1.562,4.761c-0.769-0.782-1.69-1.452-2.754-1.966
						C575.081,83.614,568.619,85.678,565.738,90.578z M588.714,82.248c1.339-2.152,4.272-3.079,6.564-2.044
						c2.317,1.047,3.07,3.685,1.67,5.865c-1.389,2.162-4.354,3.022-6.609,1.947C588.108,86.954,587.386,84.383,588.714,82.248z
						 M571.246,88.981c1.208-2.024,3.87-2.856,5.957-1.833c2.109,1.033,2.806,3.552,1.546,5.6c-1.251,2.032-3.941,2.803-5.997,1.745
						C570.717,93.447,570.048,90.989,571.246,88.981z"/>
					<path fill="#A43A6E" d="M588.714,82.248c1.339-2.152,4.272-3.079,6.564-2.044c2.317,1.047,3.07,3.685,1.67,5.865
						c-1.389,2.162-4.354,3.022-6.609,1.947C588.108,86.954,587.386,84.383,588.714,82.248z"/>
					<path fill="#A43A6E" d="M554.672,113.324c-2.623,4.427-1.118,10.183,3.418,12.987c4.647,2.874,10.813,1.643,13.715-2.891
						c0.364-0.569,0.659-1.163,0.885-1.771c0.695-1.867,0.749-3.868,0.229-5.736c-0.15-0.541-0.35-1.07-0.594-1.581
						c-0.854-1.785-2.265-3.341-4.153-4.399c-0.861-0.482-1.762-0.825-2.676-1.041C561.308,107.901,556.867,109.62,554.672,113.324z
						 M557.88,113.025c1.105-1.846,3.554-2.469,5.48-1.368c1.945,1.112,2.596,3.544,1.445,5.409
						c-1.143,1.851-3.617,2.416-5.515,1.286C557.41,117.233,556.783,114.858,557.88,113.025z"/>
					<path fill="#C06D87" d="M563.36,111.657c1.945,1.112,2.596,3.544,1.445,5.409c-1.143,1.851-3.617,2.416-5.515,1.286
						c-1.88-1.119-2.506-3.494-1.409-5.327C558.985,111.179,561.434,110.557,563.36,111.657z"/>
				</g>
			</g>
			<g>
				<path fill="#A43A6E" d="M706.962,118.927c-0.755-0.221-1.553-0.342-2.379-0.342c-1.8,0-3.467,0.564-4.838,1.523
					c-0.392,0.274-0.759,0.579-1.099,0.914c-1.17,1.155-2.005,2.648-2.345,4.321c-0.111,0.547-0.17,1.113-0.17,1.693
					c0,4.668,3.784,8.451,8.451,8.451s8.451-3.784,8.451-8.451C713.035,123.196,710.471,119.955,706.962,118.927z M707.292,128.803
					c-1.903,0-3.446-1.543-3.446-3.446s1.543-3.446,3.446-3.446c1.903,0,3.446,1.543,3.446,3.446S709.195,128.803,707.292,128.803z"
					/>
				<circle fill="#C06D87" cx="707.292" cy="125.357" r="3.446"/>
			</g>
			<g>
				<g>
					<path fill="#95305C" d="M659.767,95.906c0-4.286-2.648-7.95-6.396-9.454c-1.171-0.47-2.449-0.731-3.788-0.731
						c-2.202,0-4.24,0.701-5.906,1.89c-0.801,0.571-1.516,1.256-2.121,2.03c3.292,1.687,5.547,5.112,5.547,9.066
						c0,2.258-0.736,4.344-1.98,6.033c1.793,0.021,3.474,0.506,4.93,1.339C655.459,105.833,659.767,101.373,659.767,95.906z"/>
					<path fill="#A43A6E" d="M625.006,122.381c-4.65-0.942-8.151-5.053-8.151-9.981c0-0.529,0.04-1.048,0.118-1.555
						c-1.446-0.272-2.782-0.851-3.943-1.665c-2.165,1.868-3.538,4.629-3.538,7.713c0,5.625,4.56,10.185,10.185,10.185
						c1.81,0,3.509-0.474,4.982-1.302c-0.014-0.222-0.024-0.445-0.024-0.67C624.635,124.162,624.766,123.249,625.006,122.381z"/>
					<path fill="#8D123B" d="M647.102,98.707c0-3.954-2.255-7.379-5.547-9.066c-0.18-0.092-0.363-0.18-0.549-0.262
						c-0.008-0.004-0.017-0.008-0.025-0.012c0.009-0.031,0.017-0.063,0.025-0.094c0.241-0.868,0.374-1.782,0.374-2.727
						c0-0.947-0.132-1.862-0.374-2.732c-1.194-4.298-5.133-7.453-9.811-7.453c-5.625,0-10.185,4.56-10.185,10.185
						c0,1.674,0.406,3.252,1.122,4.645c-1.024-0.346-2.121-0.537-3.262-0.537c-5.625,0-10.185,4.56-10.185,10.185
						c0,3.452,1.718,6.5,4.345,8.341c1.16,0.813,2.497,1.392,3.943,1.665c-0.078,0.507-0.118,1.026-0.118,1.555
						c0,4.928,3.501,9.039,8.151,9.981c-0.24,0.868-0.372,1.781-0.372,2.725c0,0.225,0.01,0.448,0.024,0.67
						c0.345,5.312,4.761,9.515,10.16,9.515c5.625,0,10.185-4.56,10.185-10.185c5.625,0,10.185-4.56,10.185-10.185
						c0-3.787-2.069-7.088-5.136-8.843c-1.456-0.833-3.137-1.319-4.93-1.339C646.366,103.051,647.102,100.965,647.102,98.707z"/>
				</g>
				<g>
					<path fill="#95305C" d="M627.023,102.209c0.649,0,1.282,0.063,1.897,0.179c0.078-0.507,0.118-1.026,0.118-1.555
						c0-1.674-0.406-3.252-1.122-4.645c-2.522-0.852-4.6-2.664-5.801-5.003c-1.024-0.346-2.121-0.537-3.262-0.537
						c-5.625,0-10.185,4.56-10.185,10.185c0,3.451,1.718,6.5,4.344,8.342c1.16,0.814,2.498,1.392,3.943,1.664
						C617.705,105.952,621.927,102.209,627.023,102.209z M616.839,92.802c2.294,0,4.153,1.859,4.153,4.153s-1.859,4.153-4.153,4.153
						c-2.294,0-4.153-1.859-4.153-4.153S614.545,92.802,616.839,92.802z"/>
					<path fill="#A43A6E" d="M644.988,104.731c-3.367,0-6.351,1.634-8.205,4.152c-0.045,0.061-0.089,0.124-0.133,0.187
						c0.36,1.042,0.558,2.16,0.558,3.325c0,0.944-0.131,1.857-0.372,2.725c4.65,0.942,8.151,5.053,8.151,9.981
						c5.625,0,10.185-4.56,10.185-10.185c0-3.786-2.068-7.088-5.134-8.843c-1.457-0.834-3.138-1.319-4.932-1.339
						C645.067,104.733,645.027,104.731,644.988,104.731z M644.626,116.547c-2.294,0-4.153-1.859-4.153-4.153
						c0-2.294,1.859-4.153,4.153-4.153c2.294,0,4.153,1.859,4.153,4.153C648.779,114.688,646.92,116.547,644.626,116.547z"/>
					<path fill="#95305C" d="M636.837,115.119c-0.657-0.133-1.337-0.204-2.034-0.204c-4.681,0-8.621,3.159-9.813,7.46
						c-0.24,0.868-0.372,1.781-0.372,2.725c0,0.225,0.01,0.448,0.024,0.67c0.345,5.312,4.761,9.515,10.16,9.515
						c5.625,0,10.185-4.56,10.185-10.185C644.988,120.172,641.487,116.062,636.837,115.119z M632.119,125.245
						c-2.294,0-4.153-1.859-4.153-4.153s1.859-4.153,4.153-4.153c2.294,0,4.153,1.859,4.153,4.153S634.413,125.245,632.119,125.245z
						"/>
					<circle fill="#C06D87" cx="644.626" cy="112.394" r="4.153"/>
					<circle fill="#95305C" cx="616.839" cy="96.955" r="4.153"/>
					<circle fill="#8D123B" cx="623.813" cy="111.018" r="4.153"/>
					<circle fill="#95305C" cx="632.119" cy="121.093" r="4.153"/>
					<path fill="#A43A6E" d="M627.917,96.189c1.024,0.346,2.121,0.537,3.262,0.537c4.646,0,8.562-3.112,9.786-7.364
						c0.009-0.03,0.017-0.059,0.025-0.089c0.242-0.87,0.374-1.785,0.374-2.732c0-0.947-0.132-1.862-0.374-2.732
						c-1.194-4.298-5.133-7.453-9.811-7.453c-5.625,0-10.185,4.56-10.185,10.185c0,1.674,0.406,3.252,1.122,4.645
						C623.317,93.524,625.395,95.336,627.917,96.189z M627.966,79.873c2.294,0,4.153,1.859,4.153,4.153
						c0,2.294-1.859,4.153-4.153,4.153c-2.294,0-4.153-1.859-4.153-4.153C623.813,81.732,625.673,79.873,627.966,79.873z"/>
					<circle fill="#A43A6E" cx="627.966" cy="84.026" r="4.153"/>
				</g>
			</g>
			<g>
				<path fill="#A43A6E" d="M657.921,78.587c-0.662-0.194-1.362-0.3-2.087-0.3c-1.579,0-3.042,0.495-4.245,1.337
					c-0.344,0.24-0.666,0.508-0.964,0.802c-1.027,1.013-1.759,2.323-2.058,3.792c-0.098,0.48-0.149,0.977-0.149,1.486
					c0,4.096,3.32,7.416,7.416,7.416s7.416-3.32,7.416-7.416C663.249,82.333,661,79.489,657.921,78.587z M658.21,87.254
					c-1.67,0-3.024-1.354-3.024-3.024c0-1.67,1.354-3.024,3.024-3.024c1.67,0,3.024,1.354,3.024,3.024
					C661.234,85.9,659.881,87.254,658.21,87.254z"/>
				<circle fill="#C06D87" cx="658.21" cy="84.23" r="3.024"/>
			</g>
			<g>
				<path fill="#A43A6E" d="M604.683,95.252c-0.662-0.194-1.362-0.3-2.088-0.3c-1.579,0-3.042,0.495-4.245,1.337
					c-0.344,0.24-0.666,0.508-0.964,0.802c-1.027,1.013-1.759,2.323-2.058,3.792c-0.098,0.48-0.149,0.977-0.149,1.486
					c0,4.096,3.32,7.416,7.416,7.416s7.416-3.32,7.416-7.416C610.012,98.997,607.762,96.154,604.683,95.252z M604.973,103.918
					c-1.67,0-3.024-1.354-3.024-3.024s1.354-3.024,3.024-3.024c1.67,0,3.024,1.354,3.024,3.024S606.643,103.918,604.973,103.918z"/>
				<circle fill="#C06D87" cx="604.973" cy="100.894" r="3.024"/>
			</g>
			<g>
				<path fill="#A43A6E" d="M613.786,69.098c-0.676-0.142-1.382-0.193-2.105-0.136c-1.575,0.123-2.994,0.731-4.128,1.664
					c-0.324,0.266-0.625,0.559-0.898,0.875c-0.944,1.09-1.573,2.454-1.756,3.941c-0.06,0.486-0.072,0.985-0.033,1.493
					c0.32,4.083,3.889,7.134,7.972,6.815c4.083-0.32,7.134-3.889,6.815-7.972C619.391,72.416,616.926,69.757,613.786,69.098z
					 M614.751,77.716c-1.665,0.13-3.12-1.114-3.251-2.779s1.114-3.12,2.779-3.251c1.665-0.13,3.12,1.114,3.251,2.779
					S616.416,77.585,614.751,77.716z"/>
				<circle fill="#C06D87" cx="614.515" cy="74.701" r="3.024"/>
			</g>
			<g>
				<path fill="#95305C" d="M580.903,135.309c-0.675-0.142-1.382-0.193-2.104-0.136c-1.575,0.123-2.994,0.731-4.128,1.664
					c-0.324,0.266-0.625,0.559-0.898,0.875c-0.944,1.09-1.573,2.454-1.756,3.941c-0.06,0.486-0.072,0.985-0.033,1.493
					c0.32,4.083,3.889,7.134,7.972,6.815c4.083-0.32,7.134-3.889,6.815-7.972C586.508,138.627,584.043,135.968,580.903,135.309z
					 M581.869,143.927c-1.665,0.13-3.12-1.114-3.251-2.779s1.114-3.12,2.779-3.251c1.665-0.13,3.12,1.114,3.251,2.779
					C584.778,142.341,583.534,143.796,581.869,143.927z"/>
				<circle fill="#95305C" cx="581.633" cy="140.912" r="3.024"/>
			</g>
		</g>
		<path fill="#BB7826" d="M543.542,877.957c-26.656-0.764-59.769,5.398-61.03,8.426c-1.462,3.508,2.471,63.326,4.035,77.632
			c0.717,6.554,1.649,13.714,2.974,19.981C556.04,987.845,553.365,958.225,543.542,877.957z"/>
		<path fill="#BB7826" d="M470.741,1083.614c0,0-11.638,7.421-15.276,13.719c0,0,14.742,8.391,24.384,16.914
			c6.824-3,12.695-7.453,18.359-12.369C491.542,1094.738,482.159,1086.974,470.741,1083.614z"/>
		<path fill="#BB7826" d="M658.15,1109.699c-18.926-21.113-54.666-9.583-54.666-9.583c-15.066,2.843-16.551,19.322-16.551,19.322
			c35.269-5.793,52.806-2.108,61.497,2.535C653.174,1118.855,656.524,1114.546,658.15,1109.699z"/>
		<path fill="#DDF4EF" d="M598.573,564.941c0-2.611-7.832-7.832-10.443-5.221c-7.764,15.528-12.973,43.863-35.953,36.725
			c-2.768,10.511-5.996,20.296-9.51,26.312c-10.956,18.753-34.13,47.333-40.358,80.324c0,0,12.196,9.04,26.228,8.383
			c14.031-0.657-0.943,19.4,24.23,27.057c0,0,0.094,0.506,0.273,1.403C565.217,680.263,601.075,624.999,598.573,564.941z"/>
		<g>
			<path fill="#CDEBE6" d="M561.821,548.665c0,0-8.197,55.339-19.154,74.092c-10.957,18.753-34.13,47.333-40.358,80.324
				c0,0,12.196,9.041,26.228,8.383c14.032-0.657-0.943,19.4,24.23,27.057c0,0,14.661,79.5,45.182,95.12
				c0,0,36.483,60.796,43.117,79.95c6.634,19.154,10.119,54.847,15.411,62.54s26.82,0.644,27.704,13.188
				c0.884,12.544-16.013,15.467,1.025,33.713c22.092,25.299-21.365,41.277,1.588,66.819c16.917,18.468,31.184,32.036,43.025,28.114
				c0,0,4.836-33.656-1.768-53.656c0,0,37.671-102.704,35.254-149.22S749.543,768.29,753.12,726.405
				c3.577-41.885,27.651-171.139-28.454-232.874c0,0-23.3-22.728-108.63,27.492C585.881,541.023,561.821,548.665,561.821,548.665z"
				/>
			<path fill="#DDF4EF" d="M691.3,489.632c-1.949,0.33-4.01,0.743-6.165,1.233c33.382,36.73,32.416,97.927,23.089,144.566
				c-5.221-2.611-7.832,5.221-10.443,2.611c-23.497-18.275,7.832-57.436-20.886-67.879c-23.497,80.933-7.832,164.477-31.329,245.41
				c-24.573,12.104-10.443-28.718-5.221-44.383c13.054-67.879,23.497-133.148,5.221-198.417
				c-13.054,7.832-10.443,23.497-13.054,36.55c-2.611,73.101-7.832,143.591-39.161,211.471c-1.395,2.092-3.182,3.787-5.223,5.184
				c3.072,3.233,6.338,5.879,9.82,7.662c0,0,36.483,60.796,43.117,79.95c6.634,19.154,10.119,54.847,15.411,62.54
				c4.852,7.054,23.309,1.756,27.032,10.489c4.706-9.041,6.44-19.078,6.44-27.455c2.611-62.658-7.832-125.316,2.611-187.974
				c36.55,10.443,0,70.49,26.107,96.598c2.611,2.611,7.832,0,10.443-2.611c10.443-75.712-2.611-143.591,13.054-219.303
				C754.136,586.014,734.054,526.182,691.3,489.632z"/>
		</g>
		<g>
			<path fill="#CDEBE6" d="M692.547,244.036c0,0-54.814,97.267-70.225,173.883c-15.412,76.616-43.813,112.663-50.712,114.548
				s-21.233,10.674-12.842,27.133c6.738,9.721,17.168-4.228,17.168-4.228s24.296,3.465,60.648-41.824c0,0,7.263,11.489,17.86,2.205
				c10.597-9.284,23.28-16.42,23.28-16.42s-0.002,15.182,27.991,0.894l3.075-9.391c0,0,12.867,12.464,21.857,5.724
				c8.99-6.74-5.783-46.678-17.261-61.744s-35.637-111.635-2.672-179.571C710.715,255.245,709.462,233.389,692.547,244.036z"/>
			<path fill="#DDF4EF" d="M635.123,418.739c0,20.886-10.443,39.161-13.054,60.047c41.772-7.832,28.718-57.436,39.161-86.155
				c20.886,10.443,10.443,49.604,20.886,36.55c27.307-37.237-6.712-93.349,16.807-139.175c2.638-12.024,6.458-23.771,11.791-34.763
				c0,0-1.253-21.856-18.168-11.209c0,0-54.814,97.267-70.225,173.883c-0.673,3.346-1.379,6.586-2.099,9.779
				C623.492,423.67,632.862,408.296,635.123,418.739z"/>
		</g>
		<g>
			<path fill="#BB7826" d="M713.386,327.107c0,0,32.53-0.11,44.55-19.423c0,0-5.506-5.816-23.356-10.543l-13.724-32.242
				c0,0,25.181-24.122,10.864-51.529c0,0-43.703-1.337-66.739,22.347c0,0,10.385,42.627,45.734,32.709l13.951,30.896
				C724.665,299.32,716.106,315.312,713.386,327.107z"/>
			<g>
				<path fill="#E69874" d="M745.586,269.39c0,0-0.883-24.176,5.68-29.547c0,0-5.7-10.081-3.948-19.854
					c1.752-9.773-12.941-5.892-12.332,4.295s-5.842,27.088-5.842,27.088L745.586,269.39z"/>
				<path fill="#ECB69B" d="M751.266,239.842c0,0-5.7-10.081-3.948-19.853c1.417-7.906-7.923-6.872-11.223-0.796
					c4.109,27.574-6.952,21.398,9.506,43.756C745.701,254.515,747.803,242.677,751.266,239.842z"/>
			</g>
			<g>
				<path fill="#ECB69B" d="M722.494,263.039c0.051-0.011,0.096-0.03,0.146-0.041c-0.039,0.043-0.067,0.073-0.105,0.115
					c2.667,4.927,4.71,9.685,5.36,13.444c0.246,1.423-0.151,2.203-1.022,2.48l7.706,18.104c6.605,1.749,11.511,3.646,15.082,5.344
					c-1.062-4.016-1.71-7.679-1.607-10.664c0.375-10.863,2.406-24.576-20.541-50.037c-22.946-25.461-29.163-10.205-23.429-4.645
					C708.002,240.936,716.708,252.373,722.494,263.039z"/>
				<path fill="#ECB69B" d="M724.665,299.32l-12.048-26.683c-11.79-7.968-26.464-21.184-28.947-27.716
					c-4.358-11.466-16.877,2.336-7.535,12.559c0,0,0.637,16.876,8.996,25.002c0,0-8.282,15.445,17.385,26.5
					c0,0,8.044,3.145,12.944,11.118C719.039,309.834,724.665,299.32,724.665,299.32z"/>
				<path fill="#ECB69B" d="M761.366,336.357c-2.104-6.826-5.411-15.009-8.205-22.863c-10.326,9.849-26.709,12.576-34.848,13.325
					c0.709,2.757,1.034,5.861,0.714,9.387c0,53.226-22.669,80.662,39.396,102.989h2.944c8.975-2.793,18.892-14.361,22.163-35.767
					C786.799,382.021,765.677,350.342,761.366,336.357z"/>
			</g>
		</g>
	</g>
	<g>
		<g>
			<path fill="#A7664F" d="M596.861,158.721c-0.365,5.605,7.909,4.015,11.095,2.49c0.936-0.448,2.045-1.111,1.886-2.331
				c-0.26-2.003-3.411-0.975-4.72-0.696c-1.17,0.25-2.351,0.528-3.555,0.534c-0.425,0.002-0.9-0.003-1.313-0.115
				c-0.478-0.13-0.838-0.613-0.663,0.122C599.259,157.339,596.97,157.044,596.861,158.721L596.861,158.721z"/>
		</g>
		<g>
			<path fill="#A7664F" d="M636.302,159.644c4.507,1.067,10.932,1.028,14.33-2.648c0.654-0.708,0.198-2.081-0.866-1.993
				c-2.114,0.176-4.157,0.915-6.267,1.21c-2.21,0.309-4.419,0.189-6.612-0.194C634.533,155.607,634.029,159.106,636.302,159.644
				L636.302,159.644z"/>
		</g>
		<g>
			<path fill="#975C49" d="M593.65,141.08c7.467-1.66,13.025,3.136,19.82,4.973c0.941,0.254,1.829-0.96,0.9-1.61
				c-5.848-4.089-14.072-7.074-21.142-5.03C592.292,139.683,592.687,141.294,593.65,141.08L593.65,141.08z"/>
		</g>
		<g>
			<path fill="#975C49" d="M628.377,143.691c4.126-1.016,8.312-1.686,12.561-1.839c4.989-0.18,9.866,0.894,14.824,0.858
				c0.868-0.006,1.591-1.297,0.641-1.807c-8.361-4.49-20.302-2.795-28.847,0.401C626.013,141.881,626.817,144.075,628.377,143.691
				L628.377,143.691z"/>
		</g>
		<g>
			<path fill="#C4655D" d="M610.753,196.983c9.015,1.499,18.937,2.538,28.043,1.738c1.854-0.163,1.345-2.9-0.455-2.82
				c-9.356,0.418-18.086,0.781-27.438-0.25C610.148,195.568,609.998,196.858,610.753,196.983L610.753,196.983z"/>
		</g>
	</g>
	<g>
		<g>
			<path fill="#713026" d="M481.749,669.015c-0.036,5.212-0.393,10.439-1.704,15.504c-1.179,4.557-3.648,8.586-4.84,13.084
				c-0.146,0.551,0.584,1.077,1.009,0.612c6.514-7.136,7.741-20.163,6.717-29.325C482.854,668.208,481.753,668.346,481.749,669.015
				L481.749,669.015z"/>
		</g>
		<g>
			<path fill="#713026" d="M482.343,674.427c0.002,1.267,1.033,3.771,2.683,3.254c0.289-0.091,0.524-0.385,0.363-0.699
				c-0.513-1.002-1.582-1.265-1.745-2.56C483.543,673.616,482.342,673.565,482.343,674.427L482.343,674.427z"/>
		</g>
		<g>
			<path fill="#713026" d="M473.495,742.625c0.271,2.898,2.656,5.338,5.122,6.608c1.021,0.526,1.703-1.124,0.687-1.647
				c-2.321-1.195-3.571-3.106-4.804-5.303C474.191,741.733,473.439,742.027,473.495,742.625L473.495,742.625z"/>
		</g>
	</g>
	<g>
		<g>
			<path fill="#C79640" d="M718.799,320.571c10.695-0.76,23.993-5.499,31.365-13.599c0.5-0.549-0.126-1.416-0.8-1.044
				c-4.391,2.426-8.292,5.486-12.88,7.621c-5.751,2.676-11.69,4.063-17.849,5.373C717.613,319.139,717.708,320.648,718.799,320.571
				L718.799,320.571z"/>
		</g>
		<g>
			<path fill="#C79640" d="M668.365,236.22c-0.436,2.293,0.437,4.287,2.104,5.848c0.352,0.329,1.003,0.361,1.42,0.164
				c0.074-0.035,0.147-0.069,0.221-0.104c0.177-0.083,0.525-0.409,0.523-0.631c-0.01-1.183-0.749-1.883-1.241-2.828
				c-0.355-0.682-0.552-1.473-0.637-2.233C670.611,235.146,668.634,234.806,668.365,236.22L668.365,236.22z"/>
		</g>
		<g>
			<path fill="#C79640" d="M678.087,227.449c0.752,1.425,1.504,2.849,2.257,4.274c0.627,1.187,1.184,2.411,2.179,3.333
				c0.464,0.43,1.415,0.047,1.292-0.638c-0.256-1.419-1.073-2.591-1.799-3.814c-0.798-1.343-1.596-2.686-2.391-4.031
				C679.114,225.706,677.614,226.553,678.087,227.449L678.087,227.449z"/>
		</g>
		<g>
			<path fill="#C79640" d="M690.432,223.288c0.303,1.064,0.698,2.096,1.153,3.106c0.5,1.11,0.855,2.229,1.955,2.836
				c0.541,0.298,1.185-0.219,1.254-0.748c0.144-1.107-0.483-2.045-0.983-3.008c-0.55-1.06-1.16-2.072-1.858-3.04
				C691.333,221.571,690.173,222.378,690.432,223.288L690.432,223.288z"/>
		</g>
		<g>
			<path fill="#C79640" d="M699.782,219.963c0.67,1.129,1.525,2.16,2.244,3.264c0.638,0.98,1.167,1.927,2.192,2.544
				c0.413,0.249,1.084-0.083,1.121-0.569c0.187-2.409-2.247-5.155-4.09-6.481C700.482,218.169,699.262,219.086,699.782,219.963
				L699.782,219.963z"/>
		</g>
		<g>
			<path fill="#C79640" d="M713.356,216.084c0.837,1.176,1.646,2.347,2.17,3.704c0.473,1.225,0.48,2.638,1.217,3.742
				c0.284,0.425,1.08,0.5,1.374,0.031c1.82-2.903-1.255-7.283-3.738-8.707C713.643,214.433,712.904,215.45,713.356,216.084
				L713.356,216.084z"/>
		</g>
		<g>
			<path fill="#C79640" d="M722.593,215.345c0.716,1.262,1.264,2.561,1.648,3.961c0.345,1.26,0.284,2.779,1.291,3.694
				c0.319,0.289,0.93,0.247,1.185-0.111c0.902-1.27,0.263-3.176-0.257-4.526c-0.564-1.463-1.313-2.804-2.209-4.087
				C723.608,213.355,722.037,214.364,722.593,215.345L722.593,215.345z"/>
		</g>
		<g>
			<path fill="#C79640" d="M713.284,268.668c1.33-0.738,2.645-1.494,3.952-2.272c0.994-0.591,2.333-1.058,2.78-2.18
				c0.183-0.459-0.046-1.093-0.604-1.149c-1.264-0.128-2.188,0.76-3.223,1.406c-1.331,0.832-2.641,1.686-3.95,2.552
				C711.314,267.637,712.313,269.207,713.284,268.668L713.284,268.668z"/>
		</g>
	</g>
	<g>
		<g>
			<path fill="#A7664F" d="M604.16,218.319c3.201,14.428,1.76,25.915-11.881,34.175c-3.46,2.095-6.557,2.319-9.517,5.433
				c-6.29,6.616-6.961,16.639-6.308,25.216c0.085,1.114,1.888,0.998,1.944-0.1c0.764-14.897,2.431-22.139,16.499-28.895
				c3.189-1.531,5.999-2.231,8.306-5.171c6.298-8.025,3.409-21.911,1.155-30.704C604.327,218.147,604.132,218.191,604.16,218.319
				L604.16,218.319z"/>
		</g>
		<g>
			<path fill="#A7664F" d="M562.297,292.969c-2.537-6.78-2.194-13.962,0.737-20.557c0.244-0.55-0.653-0.984-0.955-0.463
				c-3.922,6.77-4.116,14.369-0.935,21.474C561.43,294.063,562.546,293.635,562.297,292.969L562.297,292.969z"/>
		</g>
		<g>
			<path fill="#A7664F" d="M557.461,290.89c-7.63-9.599-1.111-20.527,6.036-27.909c0.57-0.588-0.266-1.649-0.939-1.127
				c-9.175,7.115-14.575,20.018-5.92,29.761C557.11,292.146,557.897,291.439,557.461,290.89L557.461,290.89z"/>
		</g>
		<g>
			<path fill="#A7664F" d="M679.24,222.404c-2.105-5.556-4.348-10.756-5.157-16.685c-0.623-4.57-0.327-9.009-0.287-13.588
				c0.005-0.537-0.785-0.769-0.965-0.203c-3.111,9.788-0.892,22.875,5.334,31.08C678.545,223.507,679.46,222.984,679.24,222.404
				L679.24,222.404z"/>
		</g>
		<g>
			<path fill="#A7664F" d="M683.389,221.529c-1.982-5.53-4.676-10.676-6.321-16.355c-1.264-4.364-1.884-8.848-2.942-13.255
				c-0.138-0.574-1.041-0.553-1.059,0.075c-0.297,9.872,3.339,22.187,9.563,29.987C682.955,222.39,683.557,221.996,683.389,221.529
				L683.389,221.529z"/>
		</g>
	</g>
	<g>
		<g>
			<path fill="#3A5E58" d="M562.175,183.226c0.89-12.201,4.35-23.303,8.136-34.835c0.167-0.51-0.593-0.955-0.878-0.448
				c-5.988,10.656-8.202,23.261-8.686,35.338C560.711,184.208,562.109,184.127,562.175,183.226L562.175,183.226z"/>
		</g>
		<g>
			<path fill="#3A5E58" d="M550.046,164.001c4.32-9.344,11.277-14.802,20.63-18.619c0.805-0.329,0.499-1.451-0.366-1.301
				c-9.88,1.711-18.224,10.189-21.376,19.435C548.716,164.157,549.754,164.634,550.046,164.001L550.046,164.001z"/>
		</g>
		<g>
			<path fill="#3A5E58" d="M583.183,166.304c-1.38-5.254-2.672-10.506-4.637-15.58c-0.142-0.366-0.764-0.248-0.689,0.163
				c0.969,5.344,2.614,10.49,4.183,15.68C582.257,167.283,583.376,167.041,583.183,166.304L583.183,166.304z"/>
		</g>
		<g>
			<path fill="#578F85" d="M716.564,174.434c-3.922-16.113-18.243-19.617-33.007-20.733c-0.576-0.043-0.717,0.753-0.203,0.965
				c6.404,2.647,13.746,1.435,20.022,4.662c6.339,3.26,10.555,8.467,12.429,15.302C715.922,175.059,716.67,174.871,716.564,174.434
				L716.564,174.434z"/>
		</g>
		<g>
			<path fill="#578F85" d="M683.87,154.151c-2.478,7.879-3.306,16.547-0.906,24.555c0.185,0.618,1.102,0.475,1.002-0.188
				c-1.251-8.299-1.399-15.915,1.082-24.033C685.277,153.732,684.106,153.399,683.87,154.151L683.87,154.151z"/>
		</g>
	</g>
	<g>
		<g>
			<path fill="#713026" d="M667.307,98.378c-0.759-4.53-0.963-8.819,0.996-13.117c1.565-3.434,4.11-5.286,6.596-7.912
				c0.633-0.668,0.172-2.179-0.919-1.802c-8.563,2.964-11.531,15.803-8.446,23.344C665.934,99.869,667.482,99.423,667.307,98.378
				L667.307,98.378z"/>
		</g>
		<g>
			<path fill="#713026" d="M689.845,100.19c-0.129-1.343,0.15-2.823,0.817-4.005c0.607-1.075,1.565-1.487,2.437-2.269
				c0.367-0.33,0.172-0.916-0.265-1.054c-1.701-0.537-3.165,1.185-3.854,2.526c-0.819,1.592-1.003,3.332-0.577,5.064
				C688.602,101.265,689.926,101.024,689.845,100.19L689.845,100.19z"/>
		</g>
		<g>
			<path fill="#713026" d="M692.315,123.218c0.336,1.727,1.061,3.641,2.793,4.416c1.149,0.514,2.275-0.754,1.388-1.771
				c-0.939-1.077-2.022-1.89-2.698-3.185C693.425,121.961,692.164,122.439,692.315,123.218L692.315,123.218z"/>
		</g>
		<g>
			<path fill="#713026" d="M614.497,83.513c0.479,1.743,1.295,3.119,2.659,4.325c1.147,1.014,2.984,2.499,4.577,1.939
				c0.439-0.154,0.73-0.832,0.48-1.245c-0.733-1.213-2.486-1.556-3.565-2.487c-1.042-0.899-2.023-2.066-2.749-3.233
				C615.404,82.015,614.268,82.681,614.497,83.513L614.497,83.513z"/>
		</g>
		<g>
			<path fill="#713026" d="M583.7,137.773c1.572-0.461,2.42-1.887,2.916-3.383c0.544-1.64,0.37-3.066-0.254-4.646
				c-0.463-1.175-2.201-0.398-1.99,0.743c0.194,1.046,0.077,2.295-0.266,3.304c-0.336,0.989-1.058,1.747-1.483,2.693
				C582.34,137.113,583.005,137.977,583.7,137.773L583.7,137.773z"/>
		</g>
	</g>
	<g>
		<g>
			<path fill="#84BDB8" d="M615.244,868.474c-2.623,35.286-5.895,70.704-6.998,106.073c-0.026,0.837,1.184,0.8,1.275,0.004
				c3.991-35.122,5.315-70.74,6.895-106.041C616.45,867.752,615.3,867.722,615.244,868.474L615.244,868.474z"/>
		</g>
		<g>
			<g>
				<path fill="#ABD2CF" d="M565.506,562.366c8.391-1.639,14.757-9.156,19.751-15.562c6.285-8.061,12.914-17.724,15.433-27.755
					c0.252-1.004-1.188-1.241-1.626-0.47c-8.19,14.4-16.732,36.27-33.963,42.142C564.199,561.028,564.543,562.554,565.506,562.366
					L565.506,562.366z"/>
			</g>
			<g>
				<path fill="#ABD2CF" d="M575.625,557.607c11.018,0.526,26.117-8.874,35.368-14.405c11.406-6.819,19.228-18.03,26.231-29.015
					c16.255-25.5,31.224-54.194,29.382-85.327c-0.054-0.916-1.6-1.001-1.643-0.05c-1.335,29.961-12.008,55.486-27.636,80.648
					c-7.729,12.444-15.994,25.405-29.11,32.784c-8.795,4.947-22.422,14.164-32.679,13.863
					C574.565,556.077,574.67,557.562,575.625,557.607L575.625,557.607z"/>
			</g>
			<g>
				<path fill="#ABD2CF" d="M635.559,512.971c2.787,6.864,10.075,9.181,16.927,7.011c10.685-3.384,16.104-14.605,25.655-19.76
					c0.92-0.496,0.536-2.187-0.593-1.855c-5.305,1.561-8.279,5.252-11.992,9.173c-6.428,6.789-21.851,19.245-28.668,4.81
					C636.532,511.596,635.244,512.195,635.559,512.971L635.559,512.971z"/>
			</g>
			<g>
				<path fill="#ABD2CF" d="M672.116,484.245c2.589,5.572,2.264,12.728,6.09,17.696c2.991,3.884,7.573,4.595,12.204,4.857
					c4.709,0.267,10.292,0.175,14.344-2.625c4.934-3.409,3.781-8.06,4.975-13.245c0.26-1.127-1.369-1.281-1.819-0.433
					c-1.505,2.839-0.495,6.546-2.068,9.24c-2.867,4.913-10.428,5.233-15.442,4.788c-9.206-0.817-11.636-4.554-14.028-12.72
					c-0.848-2.897-1.674-5.589-3.074-8.264C672.882,482.743,671.75,483.457,672.116,484.245L672.116,484.245z"/>
			</g>
			<g>
				<path fill="#ABD2CF" d="M713.597,494.385c-10.598-21.531-18.278-41.882-20.733-65.973c-0.109-1.066-1.701-0.898-1.649,0.165
					c1.128,23.177,7.634,47.439,21.149,66.578C712.912,495.931,714.006,495.216,713.597,494.385L713.597,494.385z"/>
			</g>
			<g>
				<path fill="#ABD2CF" d="M576.437,528.218c-1.865,2.525-3.994,4.811-6.528,6.679c-2.522,1.86-5.642,3.102-8.003,5.099
					c-0.666,0.563-0.256,1.765,0.677,1.615c6.159-0.986,11.648-7.862,14.646-12.836
					C577.548,528.247,576.811,527.711,576.437,528.218L576.437,528.218z"/>
			</g>
			<g>
				<path fill="#ABD2CF" d="M649.505,462.471c8.91-29.762,10.638-60.461,12.51-91.291c1.853-30.521,1.998-62.96,20.322-88.747
					c0.373-0.525-0.409-1.188-0.869-0.733c-19.017,18.816-18.9,52.384-20.594,77.137c-2.373,34.68-3.274,69.514-12.203,103.314
					C648.527,462.696,649.338,463.028,649.505,462.471L649.505,462.471z"/>
			</g>
			<g>
				<path fill="#ABD2CF" d="M635.859,514.928c7.574,21.93,13.599,43.993,18.414,66.685c0.163,0.768,1.49,0.57,1.373-0.221
					c-3.39-22.987-9.775-45.433-18.696-66.868C636.696,513.915,635.641,514.297,635.859,514.928L635.859,514.928z"/>
			</g>
			<g>
				<path fill="#ABD2CF" d="M625.564,530.853c5.353,62.012,3.137,122.986-3.524,184.768c-0.102,0.944,1.319,1.273,1.474,0.301
					c9.725-60.83,9.888-123.931,3.426-185.102C626.848,529.948,625.487,529.963,625.564,530.853L625.564,530.853z"/>
			</g>
			<g>
				<path fill="#ABD2CF" d="M664.984,509.791c21.195,21.829,27.201,51.792,27.065,81.333c-0.076,16.436-8.235,44.446,7.339,56.332
					c0.658,0.502,1.54-0.291,0.939-0.936c-9.897-10.622-7.12-25.372-6.399-38.639c0.826-15.207,0.975-30.526-1.452-45.604
					c-3.292-20.452-11.482-39.255-26.412-53.808C665.269,507.693,664.233,509.018,664.984,509.791L664.984,509.791z"/>
			</g>
			<g>
				<path fill="#ABD2CF" d="M705.276,502.082c41.039,45.893,40.531,102.218,31.867,160.152c-0.195,1.302,1.766,1.371,2.01,0.131
					c11.307-57.278,9.285-116.876-32.466-161.333C705.926,500.22,704.515,501.23,705.276,502.082L705.276,502.082z"/>
			</g>
			<g>
				<path fill="#ABD2CF" d="M534.801,711.835c-2.005-26.075,9.365-49.252,17.281-73.407c7.474-22.808,9.316-46.35,8.39-70.25
					c-0.039-0.997-1.771-1.008-1.77,0.006c0.027,28.153-2.607,53.688-12.246,80.351c-7.474,20.676-15.294,40.952-12.93,63.296
					C533.611,712.632,534.865,712.663,534.801,711.835L534.801,711.835z"/>
			</g>
			<g>
				<path fill="#ABD2CF" d="M553.534,736.116c2.171-31.805,17.51-60.159,24.057-90.982c5.877-27.665,4.995-56.842-3.02-83.983
					c-0.387-1.311-2.427-0.863-2.086,0.486c8.119,32.084,8.83,64.13-0.261,96.129c-7.411,26.086-18.738,50.828-19.837,78.307
					C552.358,736.813,553.484,736.853,553.534,736.116L553.534,736.116z"/>
			</g>
			<g>
				<path fill="#ABD2CF" d="M726.733,1064.147c-2.587,6.792-4.285,14.309-3.923,21.62c0.038,0.763,1.263,0.951,1.384,0.137
					c1.073-7.193,2.022-14.23,3.974-21.267C728.395,1063.817,727.041,1063.337,726.733,1064.147L726.733,1064.147z"/>
			</g>
			<g>
				<path fill="#ABD2CF" d="M685.613,986.02c17.458-48.129,2.951-99.337,3.334-148.912c0.006-0.823-1.239-0.822-1.275-0.004
					c-2.161,49.62,13.969,99.875-3.483,148.228C683.848,986.279,685.265,986.977,685.613,986.02L685.613,986.02z"/>
			</g>
			<g>
				<path fill="#ABD2CF" d="M696.893,1051.851c11.363-60.336,10.013-123.419,7.111-184.509c-0.05-1.058-1.635-0.888-1.625,0.151
					c0.612,61.82,2.167,122.733-6.555,184.162C695.737,1052.262,696.778,1052.464,696.893,1051.851L696.893,1051.851z"/>
			</g>
		</g>
	</g>
	<g>
		<path fill="#9D6533" d="M486.187,902.41c21.317-6.279,44.726-7.451,66.752-4.356c1.055,0.148,1.463-1.526,0.426-1.847
			c-19.712-6.088-48.908-3.232-67.795,4.61C484.54,901.244,485.144,902.717,486.187,902.41L486.187,902.41z"/>
	</g>
	<g>
		<path fill="#9D6533" d="M489.96,916.051c1.902,2.011,5.212,2.189,7.47,0.647c2.372-1.619,2.73-4.795,1.351-7.193
			c-1.47-2.555-4.55-3.825-7.283-2.484c-2.766,1.358-4.449,4.867-2.537,7.541c0.483,0.676,1.53,0.271,1.483-0.54
			c-0.112-1.95,0.858-4.488,2.95-4.971c1.629-0.376,3.115,0.885,3.672,2.341c1.393,3.637-3.561,5.757-6.057,3.442
			C490.239,914.119,489.264,915.315,489.96,916.051L489.96,916.051z"/>
	</g>
	<g>
		<path fill="#9D6533" d="M491.558,936.966c1.443,3.537,5.764,5.282,9.342,3.957c4.06-1.503,4.908-6.263,2.755-9.706
			c-2.194-3.509-7.031-4.808-10.053-1.527c-2.743,2.979-2.857,8.456,1.215,10.234c0.815,0.356,1.669-0.725,1.067-1.415
			c-1.529-1.75-1.756-4.568-0.41-6.495c1.913-2.738,5.241-1.662,6.6,0.969c3.213,6.218-6.613,8.934-9.244,3.421
			C492.49,935.693,491.257,936.229,491.558,936.966L491.558,936.966z"/>
	</g>
	<g>
		<path fill="#9D6533" d="M495.545,971.434c3.622,1.266,8.033-0.096,9.733-3.733c1.74-3.723-0.503-8.627-4.338-9.974
			c-4.013-1.409-8.256,1.543-9.038,5.575c-0.896,4.62,3.668,8.789,8.025,9.182c0.838,0.076,1.456-1.064,0.83-1.687
			c-1.606-1.598-3.908-2.224-5.211-4.191c-1.642-2.479,0.135-6.088,3.053-6.599c3.502-0.613,6.286,3.661,5.072,6.722
			c-1.191,3-4.727,4.173-7.635,3.269C495.221,969.746,494.729,971.149,495.545,971.434L495.545,971.434z"/>
	</g>
	<g>
		<path fill="#9D6533" d="M542.565,897.82c0.065,0,0.072-0.102,0.006-0.102C542.506,897.719,542.499,897.82,542.565,897.82
			L542.565,897.82z"/>
	</g>
	<g>
		<path fill="#9D6533" d="M541.958,897.759c-0.771,8.284-0.501,16.673-0.521,24.991c-0.009,3.888-1.841,15.978,0.413,19.469
			c3.074,4.763,11.101,0.684,15.136-1.266c0.928-0.449,0.456-1.882-0.558-1.533c-6.157,2.119-11.38,6.315-12.892-2.315
			c-0.765-4.368,0.169-9.884,0.159-14.355c-0.017-8.311,0.254-16.689-0.514-24.971C543.11,897.003,542.032,896.962,541.958,897.759
			L541.958,897.759z"/>
	</g>
	<g>
		<path fill="#9D6533" d="M651.781,976.977c-2.066,3.186-2.404,8.598,1.722,10.389c2.514,1.092,7.941-0.301,6.926-3.979
			c-0.214-0.777-1.411-1.197-1.869-0.36c-0.457,0.836-0.711,1.554-1.678,1.91c-0.8,0.294-1.818,0.311-2.57-0.121
			c-2.196-1.261-1.65-4.821-0.756-6.685C654.127,976.939,652.545,975.798,651.781,976.977L651.781,976.977z"/>
	</g>
	<g>
		<g>
			<g>
				<path fill="#CA7D63" d="M613.32,179.229c-0.056,0.031-0.112,0.061-0.168,0.092c0.313,0.023,0.625,0.046,0.938,0.069
					c-0.055,0.264-0.11,0.528-0.165,0.793c-0.303-0.113-0.606-0.227-0.909-0.34c0.904,1.29,2.36,2.314,3.54,3.343
					c1.277,1.113,2.689,2.406,4.275,3.05c0.743,0.302,1.392-0.463,1-1.153c-0.798-1.404-2.169-2.603-3.367-3.665
					c-1.096-0.972-2.352-2.513-3.732-3.066c-1.916-0.769-3.379,1.8-1.302,2.372c0.25,0.069,0.558-0.053,0.722-0.244
					c0.036-0.041,0.071-0.083,0.107-0.124C614.817,179.709,614.052,178.828,613.32,179.229L613.32,179.229z"/>
			</g>
			<g>
				<path fill="#CA7D63" d="M624.721,184.165c1.987-0.481,4.652-0.814,6.287-2.157c0.686-0.563,0.258-1.513-0.578-1.522
					c-2.125-0.024-4.475,1.457-6.329,2.349C623.303,183.219,623.956,184.35,624.721,184.165L624.721,184.165z"/>
			</g>
			<g>
				<path fill="#CA7D63" d="M613.501,149.2c2.113,8.678,1.751,17.034,0.926,25.818c-0.098,1.043,1.29,1.263,1.582,0.278
					c2.594-8.735,1.571-18.046-0.975-26.655C614.732,147.619,613.258,148.201,613.501,149.2L613.501,149.2z"/>
			</g>
			<g>
				<path fill="#CA7D63" d="M611.773,222.865c8.808,4.324,23.174,2.536,29.855-5.033c0.357-0.404-0.217-0.931-0.639-0.749
					c-4.398,1.902-8.326,4.305-13.155,5.171c-5.376,0.964-10.274,0.07-15.57-0.797C611.448,221.324,610.987,222.48,611.773,222.865
					L611.773,222.865z"/>
			</g>
			<g>
				<path fill="#CA7D63" d="M649.122,212.939c6.621-4.579,12.868-10.619,16.551-17.868c0.447-0.879-0.929-1.704-1.498-0.892
					c-4.659,6.653-9.222,12.564-15.8,17.543C647.653,212.268,648.357,213.468,649.122,212.939L649.122,212.939z"/>
			</g>
			<g>
				<path fill="#CA7D63" d="M675.326,259.257c2.053,7.267,5.77,12.799,11.008,18.146c5.163,5.271,11.462,8.167,17.853,11.689
					c0.691,0.381,1.397-0.572,0.821-1.121c-5.311-5.062-12.383-7.208-17.642-12.547c-4.785-4.858-8.318-10.197-10.568-16.669
					C676.467,257.803,675.055,258.298,675.326,259.257L675.326,259.257z"/>
			</g>
			<g>
				<path fill="#CA7D63" d="M684.415,286.833c2.188,3.934,4.83,7.543,8.061,10.692c2.744,2.674,7.527,7.642,11.602,7.54
					c0.56-0.014,0.877-0.674,0.586-1.134c-1.097-1.735-2.841-2.331-4.558-3.461c-2.123-1.398-4.115-2.937-5.98-4.666
					c-3.192-2.958-5.965-6.337-8.313-9.996C685.197,284.847,683.889,285.886,684.415,286.833L684.415,286.833z"/>
			</g>
			<g>
				<path fill="#CA7D63" d="M720.905,262.582c1.845,2.528,3.399,5.227,4.473,8.175c0.773,2.123,1.012,4.54,2.109,6.507
					c0.342,0.613,1.154,0.284,1.216-0.324c0.257-2.54-1.166-5.325-2.235-7.565c-1.296-2.716-2.842-5.231-4.684-7.61
					C721.305,261.149,720.46,261.972,720.905,262.582L720.905,262.582z"/>
			</g>
			<g>
				<path fill="#CA7D63" d="M730.302,246.513c3.096,3.757,6.424,6.993,8.925,11.241c2.497,4.241,3.953,8.887,5.757,13.437
					c0.229,0.577,1.222,0.308,1.172-0.295c-0.772-9.311-7.191-20.29-15.065-25.401C730.439,245.071,729.862,245.979,730.302,246.513
					L730.302,246.513z"/>
			</g>
			<g>
				<path fill="#CA7D63" d="M749.171,301.827c-0.143-14.999-0.307-30.334-2.981-45.131c-0.091-0.505-0.947-0.519-0.935,0.034
					c0.334,15.05,2.061,30.071,2.539,45.131C747.823,302.746,749.18,302.715,749.171,301.827L749.171,301.827z"/>
			</g>
			<g>
				<path fill="#CA7D63" d="M751.965,315.408c5.737,21.454,17.633,39.355,24.75,60.036c0.223,0.647,1.281,0.609,1.255-0.158
					c-0.313-8.902-6.298-16.195-10.251-23.877c-5.964-11.591-10.679-23.83-14.704-36.213
					C752.807,314.556,751.784,314.73,751.965,315.408L751.965,315.408z"/>
			</g>
			<g>
				<path fill="#CA7D63" d="M607.404,262.706c8.036,2.3,16.027,4.862,24.304,6.072c0.359,0.052,0.555-0.49,0.192-0.629
					c-7.811-2.995-16.024-4.654-24.161-6.567C607.011,261.41,606.671,262.496,607.404,262.706L607.404,262.706z"/>
			</g>
			<g>
				<path fill="#CA7D63" d="M639.208,269.58c8.163,0.457,17.548-2.868,24.415-7.134c0.515-0.32,0.285-1.201-0.372-1.049
					c-8.314,1.929-15.141,7.118-24.023,6.959C638.438,268.342,638.422,269.536,639.208,269.58L639.208,269.58z"/>
			</g>
			<g>
				<path fill="#CA7D63" d="M550.031,328.747c-3.52,21.548-7.179,46.753,3.054,67.101c0.307,0.611,1.269,0.24,1.112-0.42
					c-5.474-22.962-6.001-43.27-3.019-66.638C551.272,328.048,550.147,328.033,550.031,328.747L550.031,328.747z"/>
			</g>
			<g>
				<path fill="#CA7D63" d="M553.043,396.79c0.44,10.579,0.27,21.06,0.181,31.637c-0.07,8.267,3.698,14.619,6.062,22.49
					c0.226,0.753,1.5,0.591,1.397-0.234c-1.201-9.583-5.48-17.345-5.304-27.408c0.156-8.869-0.147-17.664-1.036-26.49
					C554.261,395.969,553.007,395.939,553.043,396.79L553.043,396.79z"/>
			</g>
			<g>
				<path fill="#CA7D63" d="M559.572,457.554c4.399,19.689-3.517,40.676,3.542,59.817c0.255,0.691,1.284,0.501,1.143-0.263
					c-3.683-19.9,1.571-40.217-3.542-59.817C560.525,456.561,559.407,456.815,559.572,457.554L559.572,457.554z"/>
			</g>
			<g>
				<path fill="#CA7D63" d="M582.286,442.612c5.04-2.851,10.235-6.195,14.065-10.594c0.304-0.349-0.211-0.854-0.57-0.574
					c-4.586,3.587-8.823,7.342-13.865,10.328C581.416,442.068,581.768,442.905,582.286,442.612L582.286,442.612z"/>
			</g>
			<g>
				<path fill="#CA7D63" d="M627.513,311.266c-2.816,16.49-4.328,33.169-3.472,49.899c0.022,0.435,0.652,0.357,0.66-0.06
					c0.321-16.714,1.2-33.213,3.752-49.754C628.545,310.75,627.614,310.672,627.513,311.266L627.513,311.266z"/>
			</g>
			<g>
				<path fill="#CA7D63" d="M590.241,393.196c7.656-3.301,15.397-6.459,22.839-10.227c0.448-0.227,0.188-0.92-0.294-0.734
					c-7.788,3.015-15.328,6.642-22.915,10.121C589.333,392.602,589.698,393.43,590.241,393.196L590.241,393.196z"/>
			</g>
			<g>
				<path fill="#CA7D63" d="M621.122,380.454c1.956-0.195,3.877-0.057,5.755,0.546c1.505,0.483,2.804,1.39,4.3,1.879
					c0.225,0.073,0.432-0.248,0.289-0.429c-2.261-2.846-7.103-3.262-10.459-2.83C620.467,379.69,620.584,380.508,621.122,380.454
					L621.122,380.454z"/>
			</g>
			<g>
				<path fill="#CA7D63" d="M699.736,388.045c3.212,0.491,6.298,0.161,9.118-1.512c0.503-0.299,0.199-1.036-0.37-0.84
					c-2.704,0.929-5.587,1.397-8.43,0.986C699.17,386.551,698.839,387.907,699.736,388.045L699.736,388.045z"/>
			</g>
			<g>
				<path fill="#CA7D63" d="M723.913,419.33c-4.89-4.953-7.287-10.699-9.184-17.258c-0.183-0.634-1.257-0.59-1.206,0.135
					c0.489,6.957,4.482,13.324,9.5,17.963C723.596,420.7,724.471,419.895,723.913,419.33L723.913,419.33z"/>
			</g>
			<g>
				<path fill="#CA7D63" d="M714.717,318.836c-3.941-5.269-10.198-10.61-16.877-11.796c-0.517-0.092-0.615,0.627-0.206,0.835
					c2.889,1.47,5.888,2.505,8.603,4.346c2.929,1.986,5.528,4.439,7.796,7.148C714.39,319.796,715.052,319.284,714.717,318.836
					L714.717,318.836z"/>
			</g>
			<g>
				<path fill="#CA7D63" d="M717.073,327.413c1.168,11.241-0.127,21.825-1.03,32.978c-0.048,0.59,0.83,0.764,1.017,0.2
					c3.523-10.634,3.059-22.447,1.363-33.386C718.304,326.439,716.992,326.637,717.073,327.413L717.073,327.413z"/>
			</g>
			<g>
				<path fill="#CA7D63" d="M482.438,666.908c-0.916-3.301-5.5-24.485,2.3-23.534c7.538,0.918,9.86,11.55,12.001,17.259
					c0.356,0.949,1.733,0.538,1.667-0.422c-0.411-6.015-5.841-18.771-13.593-17.844c-3.25,0.388-4.42,2.484-4.86,5.444
					c-0.943,6.343,0.076,13.189,1.681,19.318C481.785,667.712,482.601,667.497,482.438,666.908L482.438,666.908z"/>
			</g>
			<g>
				<path fill="#CA7D63" d="M479.758,661.551c-0.246,1.124-0.476,2.218-0.606,3.361c-0.045,0.398,0.489,0.483,0.602,0.11
					c0.337-1.114,0.565-2.224,0.788-3.367C480.64,661.153,479.866,661.058,479.758,661.551L479.758,661.551z"/>
			</g>
			<g>
				<path fill="#CA7D63" d="M480.988,643.419c3.264-6.1,6.592-12.19,9.334-18.548c0.187-0.433-0.427-0.672-0.654-0.286
					c-3.525,5.977-6.484,12.271-9.487,18.519C479.936,643.613,480.731,643.9,480.988,643.419L480.988,643.419z"/>
			</g>
			<g>
				<path fill="#CA7D63" d="M494.169,618.543c0.467-2.464,0.948-4.917,1.287-7.402c0.072-0.53-0.695-0.605-0.81-0.102
					c-0.561,2.459-0.982,4.934-1.417,7.418C493.124,619.057,494.057,619.133,494.169,618.543L494.169,618.543z"/>
			</g>
			<g>
				<path fill="#CA7D63" d="M492.24,644.174c-2.695-2.149-1.28-6.928,1.983-7.601c3.568-0.735,5.463,1.932,7.697,4.057
					c0.501,0.476,1.231-0.006,1.109-0.643c-0.821-4.302-7.242-6.601-10.702-4.124c-2.84,2.033-3.701,6.778-0.572,8.935
					C492.171,645.084,492.641,644.494,492.24,644.174L492.24,644.174z"/>
			</g>
			<g>
				<path fill="#CA7D63" d="M498.303,635.726c-1.53-2.461-1.764-5.331-0.781-8.053c0.983-2.722,2.897-4.063,5.026-5.834
					c0.221-0.183,0.134-0.588-0.194-0.559c-6.677,0.599-8.112,10.416-5.145,15.049C497.639,637.002,498.729,636.411,498.303,635.726
					L498.303,635.726z"/>
			</g>
		</g>
		<g>
			<g>
				<path fill="#CA7D63" d="M497.905,864.863c2.39-5.038,3.699-10.041,3.815-15.63c0.016-0.779-1.292-0.935-1.384-0.137
					c-0.597,5.205-1.697,10.381-3.57,15.281C496.518,865.027,497.603,865.5,497.905,864.863L497.905,864.863z"/>
			</g>
			<g>
				<path fill="#CA7D63" d="M641.258,1126.321c-2.057,1.093-2.942,3.083-2.765,5.405c0.178,2.342,1.635,4.925,4.229,5.024
					c0.614,0.023,0.884-0.809,0.465-1.206c-2.245-2.124-3.465-5.352-0.958-7.886
					C642.812,1127.068,642.003,1125.925,641.258,1126.321L641.258,1126.321z"/>
			</g>
			<g>
				<path fill="#CA7D63" d="M631.564,1122.667c-2.674,3.361-6.921,6.752-7.192,11.34c-0.18,3.051,1.731,7.647,5.453,6.709
					c0.678-0.171,0.672-1.185,0.084-1.458c-8.189-3.799,0.723-11.123,2.99-15.722
					C633.293,1122.734,632.135,1121.949,631.564,1122.667L631.564,1122.667z"/>
			</g>
			<g>
				<path fill="#CA7D63" d="M624.295,1119.748c-5.108,1.708-8.926,5.359-11.157,10.276c-1.963,4.327-3.163,10.963-0.059,15.032
					c0.279,0.366,0.978,0.138,0.959-0.335c-0.202-5.035-1.183-9.04,1.026-13.907c1.97-4.339,5.419-7.635,9.77-9.554
					C625.771,1120.848,625.287,1119.416,624.295,1119.748L624.295,1119.748z"/>
			</g>
			<g>
				<path fill="#CA7D63" d="M607.85,1122.217c-6.734,4.907-17.024,14.379-11.191,23.631c0.354,0.562,1.263,0.271,1.112-0.42
					c-2.193-10.036,4.167-15.972,11.09-22.046C609.525,1122.8,608.554,1121.704,607.85,1122.217L607.85,1122.217z"/>
			</g>
			<g>
				<path fill="#CA7D63" d="M447.061,1115.03c-6.317-1.151-13.741-1.927-19.383,1.81c-3.693,2.447-6.99,7.116-5.153,11.614
					c0.24,0.587,1.277,0.729,1.38-0.05c1.631-12.416,12.731-12.309,22.786-11.335C447.841,1117.18,448.232,1115.243,447.061,1115.03
					L447.061,1115.03z"/>
			</g>
			<g>
				<path fill="#CA7D63" d="M419.113,1124.945c-0.977-4.75,2.152-8.799,6.453-10.42c0.6-0.226,0.215-1.028-0.327-0.984
					c-5.441,0.444-8.71,6.701-7.269,11.667C418.18,1125.93,419.267,1125.69,419.113,1124.945L419.113,1124.945z"/>
			</g>
			<g>
				<path fill="#CA7D63" d="M622.866,1079.16c4.122-3.818,7.373-8.859,8.317-14.469c0.145-0.863-1.026-1.145-1.312-0.324
					c-1.806,5.176-4.117,9.815-7.822,13.916C621.539,1078.847,622.291,1079.692,622.866,1079.16L622.866,1079.16z"/>
			</g>
			<g>
				<path fill="#CA7D63" d="M633.914,1050.528c0.674-2.037,1.475-4.076,1.97-6.165c0.091-0.383-0.5-0.547-0.654-0.195
					c-0.851,1.944-1.422,4.037-2.098,6.048C632.961,1050.728,633.744,1051.043,633.914,1050.528L633.914,1050.528z"/>
			</g>
			<g>
				<path fill="#CA7D63" d="M544.003,1063.492c-0.172,6.009-0.67,12.21-0.026,18.199c0.083,0.775,1.141,0.819,1.224,0.02
					c0.624-5.991,0.15-12.176-0.026-18.183C545.154,1062.78,544.025,1062.73,544.003,1063.492L544.003,1063.492z"/>
			</g>
		</g>
	</g>
</g>
</svg>
