<?xml version="1.0" encoding="utf-8"?>
<!-- Designed by Vexels.com - 2019 All Rights Reserved - https://vexels.com/terms-and-conditions/  -->
<svg version="1.1" id="Layer_1" xmlns="http://www.w3.org/2000/svg" xmlns:xlink="http://www.w3.org/1999/xlink" x="0px" y="0px"
	 viewBox="0 0 1200 1200" enable-background="new 0 0 1200 1200" xml:space="preserve">
<g>
	<g>
		<g>
			<path fill="#95C9CA" d="M374.469,434.546c0,0-17.125,24.771-15.12,0.842c2.005-23.929,25.355-185.21,113.392-200.135
				c0,0,11.361-11.17,18.763,7.029c7.402,18.198,222.195,149.14,222.195,149.14s19.256-12.484,27.32,13.292
				c8.064,25.776,73.227,19.823,71.24,43.464c-1.987,23.641,0,154.188,0,154.188s-11.178,6.279-18.515,0.425l2.172,31.508
				c0,0-10.714,22.083,0.481,42.799c5.166,10.628-16.47,29.977-16.47,29.977l9.354,83.236c0,0-2.619,29.079-19.895,43.949
				c-17.276,14.87-9.191-68.222-16.39-86.098c0,0-15.134-6.147-2.966-24.717c0,0-16.288-8.177-3.392-24.996
				c12.897-16.819,7.465-37.916-17.743-23.311c0,0,7.671-42.348,1.32-61.788c0,0-2.885,29.886-17.732,42.043
				S603.225,869.757,527.125,858.426c-30.166-3.243-77.332,27.13-77.332,27.13V917.1c0,0-2.57,12.981-10.387,14.59l-6.036,13.418
				l-7.347-9.409l0.25-29.864c0,0-16.68,7.793-21.957-1.759c0,0,16.665-19.709-9.942-30.771c0,0,10.791-14.04,0.666-35.752
				c-7.394-16.669-2.938-67.241-2.938-67.241s-32.334-11.172-36.405-20.147c-4.071-8.975,0-64.409,0-64.409l-18.297-5.764
				L374.469,434.546z"/>
			<path fill="#AAD8D9" d="M491.081,241.31c-7.404-16.793-18.341-6.058-18.341-6.058
				c-88.037,14.925-111.387,176.206-113.392,200.135c-2.005,23.929,15.12-0.842,15.12-0.842l-37.07,245.447
				c15.78-42.726,38.491-109.641,48.82-157.081C401.203,415.533,406.215,313,491.081,241.31z"/>
			<path fill="#AAD8D9" d="M385.335,711.684c13.03-10.424,59.938,2.606,44.302-20.848c-16.28-23.257-73.941-5.08-73.941-5.08
				s-3.72,50.691-0.481,62.955c14.523-4.385,29.398-8.416,43.149-13.573C393.153,724.714,374.911,716.896,385.335,711.684z"/>
			<path fill="#AAD8D9" d="M424.425,808.106c9.339-16.344-12.698-30.59-32.38-37.127c-0.487,5.952-3.906,51.018,2.994,66.574
				c0.102,0.219,0.17,0.424,0.268,0.642C405.469,828.079,417.347,820.492,424.425,808.106z"/>
			<path fill="#AAD8D9" d="M434.849,904.528c-1.881-3.763-6.478-0.734-10.851,2.221c1.388-0.508,2.274-0.915,2.274-0.915
				l-0.25,29.864l7.348,9.409l6.036-13.418c5.732-1.18,8.635-8.461,9.78-12.268C445.051,914.927,439.679,910.566,434.849,904.528z"
				/>
			<path fill="#AAD8D9" d="M763.205,719.502c-13.03,26.06,10.424,41.696,20.848,59.938c2.184,3.276,3.884,6.789,5.177,10.426
				l-9.104-81.013C773.809,711.558,766.466,712.979,763.205,719.502z"/>
			<path fill="#AAD8D9" d="M763.205,610.05c-3.841,8.727,23.299,18.115,31.428,27.429c0.721-1.998,1.282-3.181,1.282-3.181
				l-2.172-31.508C794.681,603.538,772.496,592.575,763.205,610.05z"/>
		</g>
		<path fill="#EED8BB" d="M627.697,203.999c5.373-10.547-0.6-18.48-0.6-18.48s18.511,0.689,10.463-22.91
			c-8.049-23.599-18.414-98.955-82.233-78.792c-18.088,6.687-38.944,38.758-38.944,38.758c-6.443,12.527-20.11,24.268-2.317,28.392
			c0,0-5.532,23.398,15.563,15.637c0,0-9.359,21.717-5.918,34.357c0,0-23.946,9.389-15.296,35.225c0,0-20.525-1.202-1.23,13.662
			c19.295,14.864,142.413-3.865,142.413-3.865s-20.884-2.003-17.191-24.591C634.082,213.481,620.779,222.407,627.697,203.999
			c6.918-18.408-0.6-18.48-0.6-18.48"/>
		<g>
			<path fill="#E39178" d="M533.712,188.149c0,0,2.969,10.026,7.619,15.385c0,0,2.137,27.736-20.551,41.892
				c0,0-61.333-22.053-93.993,20.508c-16.654,25.371-26.91,60.558-40.612,143.996c0,0-17.461,12.87-16.59,36.385
				s-7.751,38.872-15.865,40.967s-14.121,4.233-15.676,13.558c0,0-22.285,14.662-23.519,28.478
				c-1.234,7.218,10.242,26.105,19.921,15.615c0,0,12.783,7.832,18.736-1.263c0,0,3.478,5.029,12.196,6.282
				c0,0,16.236,11.78,16.373-18.703c0,0,9.764-13.22,6.968-27.904c0,0,41.43-44.039,47.227-62.988
				c5.796-18.948,0.092-49.91,23.792-83.859c0,0,2.737,68.621,14.562,98.426s10.313,40.927,10.313,40.927
				s141.466,72.642,179.093-19.73c0,0,4.722-13.881-4.18-25.869s-18.768-27.833-12.939-39.526c5.829-11.693,9.77-33.696,9.77-33.696
				s3.925,24.475,23.442,22.995s13.765-11.108,33.899-8.603c0,0-11.554-36.007-13.977-45.378c0,0,12.059-23.646-9.641-46.772
				c-21.7-23.126-84.404-45.947-84.084-60.408c0.32-14.461,2.269-44.689,1.054-61.203
				C605.836,161.145,533.712,188.149,533.712,188.149z"/>
			<path fill="#EBAF9B" d="M674.601,320.784c-26.06-13.03-57.332-18.242-91.21-10.424c-49.274,9.855-112.479-12.921-103.825-70.486
				c-17.979,0.972-38.223,7.092-52.779,26.061c-16.654,25.371-26.91,60.558-40.613,143.996c0,0-17.461,12.87-16.59,36.385
				c0.87,23.515-7.751,38.872-15.864,40.967c-8.114,2.095-14.121,4.233-15.677,13.558c0,0-22.285,14.662-23.519,28.478
				c-1.234,7.218,10.242,26.105,19.921,15.615c0,0,12.783,7.832,18.736-1.264c0,0,3.478,5.029,12.197,6.282
				c0,0,16.236,11.78,16.373-18.703c0,0,9.286-12.622,7.109-26.894c-2.703-4.027-5.158-8.311-3.526-11.575
				c20.503-22.554,40.972-45.131,53.86-72.761c1.505-14.76,3.319-32.628,13.452-51.878c2.985-10.786,4.817-21.957,3.05-34.327
				h-5.212c-2.606-2.606,2.606-5.212,2.606-7.818c13.03,2.606,18.242,18.242,18.242,26.06
				c-2.606,31.272,10.424,54.726,18.242,80.786c7.541,21.116,10.737,47.46,16.622,72.484c33.469,13.113,98.001,31.859,136.186,0.611
				c8.126-27.53,2.942-59.135-6.872-86.124c-5.212-13.03,2.606-65.15,23.454-52.12c4.477,2.239,22.25,25.82,30.263,5.161
				C693.33,361.239,695.449,331.208,674.601,320.784z"/>
		</g>
		<path fill="#E39178" d="M730.214,400.149l74.933,17.218c0,0,4.026-18.187,22.402-24.558c0,0-0.531-20.113,11.276-17.277
			s5.196,18.082,21.279,20.883c0,0-10.529-9.772,7.821-10.883c18.35-1.111,21.955,7.078,9.729,20.805c0,0,5.884,13.19-7.29,14.698
			c0,0,4.866,10.05-5.892,17.204c0,0,3.881,14.325-6.332,13.091c-10.212-1.234-47.817,1.812-59.944-0.604
			s-51.61,19.837-84.498-1.377S730.214,400.149,730.214,400.149z"/>
		<g>
			<path fill="#B96D24" d="M441.913,1109.588c0,0-19.282,18.973-1.992,33.096c17.289,14.123,68.989,8.07,76.261-20.512
				c7.272-28.582,4.638-27.817-1.443-31.058C508.657,1087.873,441.913,1109.588,441.913,1109.588z"/>
			<path fill="#B96D24" d="M583.721,1085.678c0,0-8.359,30.176,3.18,36.866s55.964,6.015,66.537-11.301
				C664.009,1093.926,634.909,1051.201,583.721,1085.678z"/>
			<g>
				<path fill="#E39178" d="M472.158,735.075c-0.825,15.245,0.979,64.187,2.767,79.033c1.788,14.846-22.885,76.928-14.92,122.554
					c7.965,45.626,18.828,112.76,10.576,127.593c-20.096,38.418-34.68,47.608-30.438,59.593c0,0,0.32,8.091,10.711,7.579
					c0,0,4.487,14.483,15.736,0.756c0,0,21.077,19.255,44.182-8.493c4.275-29.296,14.916-24.575,6.905-47.346
					c-8.011-22.77-1.764-96.273,12.262-131.144c14.026-34.872,7.595-120.611,7.595-120.611s13.617-28.315,13.05-61.069l5.508-31.749
					C556.092,731.771,499.211,713.827,472.158,735.075z"/>
				<path fill="#E39178" d="M679.346,717.878c-6.258-14.012-86.288,17.197-86.288,17.197s-7.758,60.643,4.527,95.755
					c0,0-24.153,86.373-8.624,116.225c0,0,9.103,65.521,2.545,86.304c-9.812,29.271-4.606,42.986-4.606,42.986
					s-14.69,33.383,6.158,37.251c20.848,3.868,58.602,2.954,62.094-15.916c3.493-18.87-29.304-42.289-25.471-55.327
					c3.832-13.038,41.975-106.477,34.62-201.97c-1.974-30.835,2.528-44.957,6.343-63.57
					C674.46,758.199,685.604,731.889,679.346,717.878z"/>
				<path fill="#EBAF9B" d="M513.029,839.378c0-2.606-2.606-7.818,2.606-13.03c18.242-15.636,18.242-36.484,23.454-57.332
					c-22.397,4.072-49.126,4.963-66.998-11c0.403,20.285,1.621,46.025,2.834,56.092c1.788,14.846-22.885,76.928-14.92,122.554
					c7.965,45.625,18.827,112.76,10.576,127.593c-18.576,35.511-32.43,46.051-31.071,56.907c0.941,0.9,1.974,1.679,3.156,2.27
					c18.242,7.818,41.696,13.03,57.332,2.606c14.148-7.074,11.27-26.928,20.24-40.3c-0.414-2.558-1.222-5.586-2.561-9.394
					c-2.966-8.431-3.973-23.823-3.359-41.628c-0.438-1.696-0.907-3.377-1.29-5.101C505.211,964.466,549.513,899.316,513.029,839.378
					z"/>
				<path fill="#EBAF9B" d="M642.647,1003.281c5.313-69.401,17.822-138.803,11.106-208.205c-2.606-10.424,10.424-23.454,0-28.666
					c-5.212-7.818-18.242,5.212-26.06,10.424c-10.424,5.212-18.242-13.03-26.06-7.818c-5.623,4.685-8.865,10.391-10.86,16.614
					c0.461,15.649,2.257,32.179,6.813,45.2c0,0-24.153,86.373-8.624,116.225c0,0,9.103,65.521,2.545,86.304l-4.606,42.986
					c0,0-7.701,17.516-4.022,28.642c14.78,12.522,41.513,9.262,57.844-2.403c13.828-9.877-3.773-25.744-2.892-40.791
					c-5.439-7.488-9.667-14.279-8.15-19.44C631.005,1037.85,636.424,1023.744,642.647,1003.281z"/>
			</g>
			<path fill="#CF9432" d="M452.307,1091.316c0,0,42.733-20.04,66.691,11.797c4.791,6.832-7.862,23.033-7.862,23.033
				s-17.91-37.615-70.889-15.078C440.247,1111.068,437.316,1103.838,452.307,1091.316z"/>
			<path fill="#CF9432" d="M580.922,1097.68c0,0,39.421-16.577,76.721-1.255c0,0-2.674-18.884-11.643-27.31
				c-8.968-8.425-51.963-11.342-63.045,8.415L580.922,1097.68z"/>
		</g>
		<g>
			<path fill="#EBAF9B" d="M625.087,268.664c2.776-2.181,5.513-4.361,8.234-6.541c-15.401-8.914-27.465-16.896-27.325-23.259
				c0.268-12.099,2.025-40.309,1.266-57.504c-19.804,17.801-40.892,40.564-65.931,22.175c0,0,2.138,27.736-20.552,41.892
				c0,0-9.795-3.494-23.614-5.006C513.024,290.973,588.479,300.39,625.087,268.664z"/>
			<g>
				<path fill="#E39178" d="M554.877,90.505c-12.149,6.46-33.888,36.074-28.925,59.418s-4.433,58.223,52.214,46.863
					c17.582-3.334,28.885-19.126,28.885-19.126s14.344,3.943,15.644-20.409C622.695,157.251,616.9,57.525,554.877,90.505z"/>
				<path fill="#EBAF9B" d="M614.663,156.606c-2.606-7.818-18.242-15.636-13.03-28.666c-15.636,0-18.242-18.242-26.06-23.454
					c-9.04-3.616-18.074-5.984-24.503-11.443c-12.34,9.66-29.596,35.819-25.117,56.88c4.964,23.344-3.844,45.941,35.639,52.528
					c18.798-0.815,45.46-24.791,45.46-24.791s11.935,3.271,15.015-14.649C619.265,162.222,616.752,160.262,614.663,156.606z"/>
			</g>
		</g>
		<path fill="#F7E3C8" d="M550.465,93.532c0,0,5.856,11.124,21.535,4.061c16.351-4.345,13.54,39.293,31.53,21.35
			c0,0-0.03,14.799,9.16,24.658c0,0-6.075,18.359,10.004,13.65c16.079-4.71,24.536-2.976,14.263-23.752
			c0,0,2.265-22.701-15.437-32.498c0,0,11.513-24.531-18.226-25.571c0,0,3.692-15.181-10.647-16.374c0,0-16.434-21.119-34.576,1.143
			c0,0-15.816-15.998-26.73-1.576c-6.862,8.369-3.64,16.807-3.64,16.807s-22.32,7.563-11.506,28.899c0,0-7.687,6.828-3.409,21.398
			c2.261,8.702,7.828,0.18,12.442-12.464C529.842,100.619,543.669,115.682,550.465,93.532z"/>
		<g>
			<path fill="#CDEBDF" d="M506.79,232.273c13.85,7.473,51.297,35.13,133.344,8.902c12.778-2.068,11.73,5.844,16.651,10.747
				c4.921,4.903,11.053,6.153,9.306,12.498c0,0,12.238-1.138,10.527,10.629c0,0,29.503,1.312,26.1,49.626
				c0,0-1.709-28.823-45.933-18.836c-11.271,3.26-24.535-10.171-24.535-10.171s-37.567,14.635-52.953,4.716
				c0,0-43.045,7.833-64.929-12.4c0,0-40.465,14.211-36.034-46.898c1.741-8.813,9.32-6.609,9.32-6.609
				S492.94,224.799,506.79,232.273z"/>
			<path fill="#DDF4EB" d="M676.618,275.048c0.171-1.178,0.171-2.194,0.089-3.127c-17.728-4.487-35.281-6.48-33.378-29.318
				c-2.538,1.269-4.456,0.679-6.059-0.557c-80.035,24.667-116.794-2.39-130.48-9.774c-13.85-7.473-19.137,2.203-19.137,2.203
				s-7.578-2.203-9.32,6.609c-1.325,18.273,1.378,29.776,5.799,36.974c2.005-1.215,3.855-2.597,5.441-4.183
				c4.587-4.587,17.242,4.956,23.765,14.417c0.659-0.18,1.028-0.309,1.028-0.309c20.576,19.023,59.852,13.237,64.472,12.477
				c19.93-6.247,39.146-15.179,59.276-21.373c0,7.818,10.424,15.636,13.03,15.636c17.845-1.785,40.572,1.324,51.458,14.336
				C699.373,276.072,676.618,275.048,676.618,275.048z"/>
		</g>
		<g>
			<path fill="#B96D24" d="M873.786,309.097l-19.34,0.814c-1.566,17.625-15.416,27.119-15.416,27.119
				c-26.397-19.817-64.117-22.374-64.117-22.374l9.718-24.215l-3.701-7.489l-21.821-4.978l-9.619,22.781
				c-13.714,5.779-9.691,18.588-9.691,18.588c-6.504,16.297-55.284,124.929-68.657,144.396l-11.462,30.788
				c42.412,91.276,99.428,60.27,99.428,60.27c120.321-110.736,126.2-235.454,126.2-235.454L873.786,309.097z M765.467,496.407
				l-5.12-5.07l-52.236-16.563c28.247-53.526,61.305-141.627,61.305-141.627l72.067,24.4
				C831.66,427.515,765.467,496.407,765.467,496.407z"/>
			<path fill="#CF9432" d="M867.445,359.874c-14.123-5.614-10.424-26.06,2.606-23.454c0-9.839,2.967-18.194,3.301-27.305
				l-18.906,0.796c-1.566,17.625-15.416,27.119-15.416,27.119c-26.397-19.817-64.117-22.374-64.117-22.374l0.133-0.331
				c-6.434,3.152-7.891,11.297-5.319,18.928l71.754,24.294c-9.423,67.125-70.69,133.217-75.658,138.483
				c1.486,6.982,2.593,14.343,2.593,22.81C815.325,477.144,851.809,419.812,867.445,359.874z"/>
			<path fill="#CF9432" d="M734.539,531.87c10.191-2.548,17.891-25.005,25.536-40.619l-51.965-16.477
				c0.093-0.176,0.187-0.361,0.28-0.537c-4.146-1.637-8.03-3.274-12.941-4.911c22.048-51.446,45.984-86.011,63.048-140.673
				c-8.743-10.377,4.371-26.447,9.017-24.899c5.79-2.069,8.559-12.772,11.506-21.238l-19.91-4.542l-9.619,22.781
				c-13.714,5.779-9.691,18.588-9.691,18.588c-6.504,16.297-55.284,124.929-68.657,144.396l-11.462,30.788
				c2.506,5.393,5.064,10.345,7.658,14.916C687.035,527.217,710.205,538.823,734.539,531.87z"/>
		</g>
		<path fill="#EBAF9B" d="M877.654,406.337c0,0,21.805-19.461-6.98-21.193c-9.618,0-18.69,3.012-8.774,11.904
			c0,0-19.276-4.08-5.406,9.953c0,0-13.539-0.926-2.78,15.156c0,0-15.801-3.296-2.548,20.675c4.846,7.269,8.218,9.943,12.081,7.878
			s1.226-12.472,1.226-12.472s10.493-5.473,5.892-17.204C870.364,421.035,883.156,420.183,877.654,406.337z"/>
		<g>
			<g>
				<path fill="#CDEBDF" d="M484.613,495.851c0,0-14.993,6.432-3.88,25.513c0,0-26.763,100.665-13.878,213.711
					c0,0,8.966,23.026,92.151,15.245c0,0,4.806-15.577,22.869-6.691c18.062,8.886,26.851,25.703,59.792-0.879
					c10.883-10.134,47.092-1.592,64.644-20.49s-4.788-179.044-28.689-215.244L484.613,495.851z"/>
				<path fill="#DDF4EB" d="M510.423,714.29c7.818,2.606,23.454,15.636,31.272,5.212c23.454-36.484,7.466-173.115,23.549-137.869
					c20.215,44.301-0.095,85.749,20.753,124.839c2.606,0,10.424,0,13.03,0c5.212,15.636,20.848,31.272,31.272,18.242
					c26.06-31.272,0-72.968,15.636-109.452c26.06,20.848,15.636,101.634,33.878,78.18c37.391-54.987-5.042-121.113-19.19-187.409
					l-70.863-4.099c-15.973,6.68-30.833,16.374-48.065,22.118c0-2.606-5.212-5.212-2.606-7.818c-10.424,0-23.454,0-33.878,0
					c2.606,2.606-2.606,7.818-2.606,7.818c-7.304,1.461-15.426,1.281-22.072-1.911c-2.195,8.597-23.226,94.397-15.468,194.127
					C479.181,706.781,494.203,703.061,510.423,714.29z"/>
			</g>
			<g>
				<path fill="#CDEBDF" d="M484.613,495.851c0,0,8.73-13.725,26.473,1.816c23.632,18.167,44.172-29.388,77.532,2.408
					c0,0-1.358-15.724,17.766-14.662c19.124,1.062,10.318-12.01,33.706,2.436c0,0,18.548-37.79,43.343-14.79
					c7.785,8.373-2.6,15.606-2.6,15.606s12.617,14.93-2.943,26.546s-19.509-1.997-23.116,6.886
					c-3.607,8.883-14.556,22.529-23.171,13.629c-8.615-8.9-16.748-11.887-34.678-6.957c-17.93,4.93-27.43,1.737-52.644-13.559
					C529.674,506.928,483.434,519.855,484.613,495.851z"/>
				<path fill="#DDF4EB" d="M599.027,518.84c18.242-7.818,28.666,10.424,44.302,5.212c5.212-2.606,2.606-15.636,7.818-13.03
					c7.818,0,18.242-2.606,18.242-7.818c2.606-10.424-5.212-13.03,2.606-23.454c3.266-4.899,0.392-9.798-3.492-14.056
					c-16.948-1.183-28.413,22.155-28.413,22.155c-23.388-14.447-14.582-1.374-33.706-2.436
					c-19.124-1.063-17.766,14.662-17.766,14.662c-33.359-31.795-53.9,15.76-77.531-2.408c-17.743-15.541-26.473-1.816-26.473-1.816
					c-1.179,24.004,45.061,11.077,59.666,19.359c0.646,0.392,1.24,0.742,1.866,1.118c2.439-2.353,5.062-4.427,8.581-5.307
					C570.361,508.416,585.997,526.658,599.027,518.84z"/>
			</g>
		</g>
		<path fill="#E59E87" d="M549.849,158.024c4.035,5.302,11.118,5.454,15.394,0c4.277-5.454-4.674-15.313-9.278-13.409
			C551.362,146.518,549.849,158.024,549.849,158.024z"/>
		<path fill="#E79D86" d="M552.566,170.261c7.305-4.592,15.12-3.178,21.081,1.924c5.961,5.101-10.737,9.417-17.015,7.259
			C550.353,177.286,543.681,175.845,552.566,170.261z"/>
	</g>
	<g>
		<g>
			<path fill="#D77A62" d="M549.138,156.891c1.125,2.511,3.923,4.9,6.87,4.258c0.519-0.113,0.572-0.861,0.061-1.032
				c-2.238-0.749-4.242-1.597-5.302-3.882C550.292,155.213,548.674,155.854,549.138,156.891L549.138,156.891z"/>
		</g>
		<g>
			<path fill="#E28067" d="M551.871,136.28c-0.258,4.771-0.906,9.492-1.257,14.252c-0.059,0.798,1.028,0.784,1.277,0.162
				c1.807-4.514,2.076-9.56,1.569-14.343C553.368,135.488,551.922,135.339,551.871,136.28L551.871,136.28z"/>
		</g>
		<g>
			<path fill="#D77A62" d="M559.328,158.383c1.416,0.239,3.073,0.747,4.436,0.136c0.457-0.205,0.357-0.782,0.032-1.037
				c-1.115-0.876-2.884-0.75-4.235-0.839C558.442,156.568,558.202,158.193,559.328,158.383L559.328,158.383z"/>
		</g>
		<g>
			<path fill="#DB7A61" d="M547.537,176.853c8.64-1.458,17.785-0.416,26.27-2.256c1.286-0.279,0.954-2.191-0.298-2.226
				c-8.813-0.252-17.967,0.348-26.337,3.184C546.334,175.838,546.692,176.995,547.537,176.853L547.537,176.853z"/>
		</g>
		<g>
			<g>
				<path fill="#EED9A1" d="M526.348,136.019c3.916-3.08,8.283-4.564,13.304-3.787c0.969,0.15,1.393-1.318,0.46-1.678
					c-5.208-2.016-11.528-0.731-15.231,3.633C524.07,135.143,525.23,136.899,526.348,136.019L526.348,136.019z"/>
			</g>
			<g>
				<g>
					<path fill="#AF8442" d="M533.39,144.517c3.729-0.906,6.746,0.139,10.356,0.776c0.975,0.172,1.229-1.049,0.66-1.612
						c-2.933-2.908-8.038-2.405-11.548-0.954C531.89,143.127,532.334,144.774,533.39,144.517L533.39,144.517z"/>
				</g>
				<g>
					<path fill="#AF8442" d="M535.137,144.776C535.162,144.314,535.151,144.323,535.137,144.776
						c-0.013,0.415,0.016,0.714,0.133,1.113c0.176,0.598,0.463,1.141,0.894,1.598c0.931,0.985,2.03,1.244,3.204,0.532
						c0.527-0.32,0.754-1.096,0.396-1.626c-0.531-0.785-1.313-1.017-1.534-1.934C537.812,142.723,535.233,143.012,535.137,144.776
						L535.137,144.776z"/>
				</g>
				<g>
					<path fill="#AF8442" d="M572.966,139.925c4.822-1.866,9.046-2.862,13.978-0.896c0.604,0.241,1.456-0.409,0.963-1.051
						c-3.942-5.12-11.109-2.15-15.771,0.172C570.995,138.717,571.797,140.377,572.966,139.925L572.966,139.925z"/>
				</g>
				<g>
					<path fill="#AF8442" d="M575.55,137.666c-2.974,1.608-1.032,5.755,2.049,5.318c1.283-0.182,2.797-1.481,1.818-2.844
						c-0.5-0.695-1.084-0.61-1.815-0.544c-0.626,0.057-0.493,0.456-0.41-0.828C577.239,138.046,576.216,137.306,575.55,137.666
						L575.55,137.666z"/>
				</g>
			</g>
			<g>
				<path fill="#EED9A1" d="M564.085,128.405c9.728-2.025,18.026-6.637,27.611-1.435c0.767,0.416,1.547-0.656,1.042-1.306
					c-7.161-9.207-20.413-1.534-28.938,0.904C562.686,126.887,562.883,128.655,564.085,128.405L564.085,128.405z"/>
			</g>
		</g>
	</g>
	<g>
		<path fill="#D77A62" d="M606.762,176.188c-2.642,2.45-4.883,5.304-7.548,7.748c-2.908,2.667-6.072,5.143-9.244,7.487
			c-0.717,0.53-0.077,1.637,0.725,1.198c6.52-3.57,13.498-8.989,17.16-15.621C608.239,176.306,607.322,175.669,606.762,176.188
			L606.762,176.188z"/>
	</g>
	<g>
		<g>
			<g>
				<path fill="#AF7D1E" d="M844.349,332.558c-10.23,3.212-9.965,18.603-2.759,24.786c0.502,0.431,1.297,0.017,1.124-0.662
					c-0.919-3.606-3.122-6.635-3.584-10.425c-0.624-5.12,1.541-9.705,6.027-12.213C846.045,333.548,845.218,332.285,844.349,332.558
					L844.349,332.558z"/>
			</g>
			<g>
				<path fill="#AF7D1E" d="M844.537,333.624c7.968,0.679,16.429,2.282,24.414,1.599c1.11-0.095,0.93-1.655-0.044-1.842
					c-7.817-1.496-16.395-0.764-24.327-0.902C843.84,332.467,843.803,333.562,844.537,333.624L844.537,333.624z"/>
			</g>
			<g>
				<path fill="#AF7D1E" d="M842.912,358.389c7.254,2.638,15.41,4.459,23.178,3.638c1.385-0.146,1.484-2.144,0.023-2.215
					c-7.74-0.371-15.076-0.95-22.529-3.237C842.403,356.212,841.733,357.96,842.912,358.389L842.912,358.389z"/>
			</g>
			<g>
				<path fill="#AF7D1E" d="M740.026,321.769c4.386,2.429,9.977,5.622,15.11,5.7c0.756,0.011,0.918-1.067,0.301-1.393
					c-2.183-1.153-4.71-1.612-7.039-2.426c-2.615-0.914-5.188-1.934-7.708-3.085C739.896,320.203,739.242,321.335,740.026,321.769
					L740.026,321.769z"/>
			</g>
			<g>
				<path fill="#AF7D1E" d="M749.591,301.828c3.366,0.4,6.703,0.945,10.03,1.593c2.925,0.57,5.962,1.624,8.948,1.499
					c0.534-0.022,0.819-0.707,0.328-1.03c-5.096-3.347-13.282-3.307-19.176-3.469C748.926,300.398,748.783,301.732,749.591,301.828
					L749.591,301.828z"/>
			</g>
			<g>
				<path fill="#AF7D1E" d="M695.029,469.093c-4.612-3.271-10.747-7.426-16.566-7.744c-0.511-0.028-0.794,0.702-0.326,0.979
					c2.589,1.534,5.666,2.279,8.406,3.55c2.73,1.266,5.319,2.773,7.818,4.445C695.116,470.828,695.75,469.604,695.029,469.093
					L695.029,469.093z"/>
			</g>
			<g>
				<path fill="#EED9A1" d="M775.684,501.244c0.914,0.512,1.763,0.691,2.782,0.907c0.286,0.06,0.698-0.086,0.809-0.384
					c0.53-1.428,0.47-3.325-0.351-4.659c-0.767-1.247-2.632-1.081-3.739-0.332c-1.178,0.798-1.73,2.345-1.275,3.702
					c0.482,1.436,2.401,2.84,3.834,1.711c0.355-0.28,0.5-0.83,0.106-1.166c-0.382-0.326-1.139-0.728-1.266-1.272
					c-0.141-0.601,0.351-1.241,0.964-1.158c-0.232-0.177-0.464-0.354-0.695-0.532c0.694,1.066,0.888,2.165,1.026,3.404
					c0.233-0.259,0.466-0.518,0.7-0.777c-0.836,0.128-1.545-0.089-2.275-0.437C775.642,499.935,775.013,500.868,775.684,501.244
					L775.684,501.244z"/>
			</g>
			<g>
				<path fill="#EED9A1" d="M785.586,489.173c0.991,0.872,2.429,1.459,3.769,1.13c1.174-0.288,1.553-1.626,1.377-2.72
					c-0.455-2.843-4.299-4.158-5.876-1.403c-0.609,1.063-0.759,2.641-0.087,3.716c0.614,0.981,2.229,1.803,3.074,0.598
					c0.403-0.575,0.371-1.666-0.332-2.028c0.364,0.188,0.555,1.194,0.299,0.193c-0.035-0.137-0.135-0.273-0.139-0.417
					c-0.026-1.099,0.958-0.131,0.715,0.402c0.221-0.158,0.442-0.316,0.662-0.475c-0.934,0.346-1.75,0.303-2.621-0.193
					C785.702,487.564,784.962,488.623,785.586,489.173L785.586,489.173z"/>
			</g>
			<g>
				<path fill="#EED9A1" d="M801.729,471.173c1.178,0.959,2.603,1.238,4.07,0.879c0.378-0.092,0.695-0.408,0.795-0.783
					c0.881-3.321-3.428-6.475-6.132-3.99c-1.882,1.73-1.599,7.035,1.804,6.458c0.738-0.125,1.396-0.778,1.101-1.594
					c-0.199-0.55-1.307-1.842-0.671-2.582c0.661-0.77,1.867,0.31,1.74,1.106c0.265-0.261,0.53-0.522,0.795-0.783
					c-0.871,0.307-1.623,0.246-2.375-0.253C801.828,468.949,800.777,470.399,801.729,471.173L801.729,471.173z"/>
			</g>
			<g>
				<path fill="#EED9A1" d="M814.259,452.92c0.615,0.657,1.247,1.301,1.832,1.984c0.401,0.469,1.128,0.412,1.56,0.039
					c1.299-1.122,1.329-2.483,1.217-4.073c-0.032-0.451-0.374-0.902-0.789-1.072c-2.816-1.154-5.875,1.924-4.681,4.748
					c0.626,1.48,2.696,1.933,3.995,0.93c0.512-0.396,0.701-1.045,0.434-1.635c-0.361-0.796-1.481-1.12-2.261-1.302
					c0.359,0.246,0.718,0.492,1.076,0.738c-0.22-0.362,0.302-0.963,0.686-0.917c-0.294-0.178-0.588-0.355-0.882-0.533
					c0.368,0.501-0.198,1.347-0.495,1.738c0.506-0.121,1.012-0.242,1.518-0.363c-0.66-0.508-1.285-1.063-1.921-1.601
					C814.752,450.931,813.535,452.147,814.259,452.92L814.259,452.92z"/>
			</g>
			<g>
				<path fill="#EED9A1" d="M824.312,436.704c2.375,3.259,7.381-1.065,4.31-3.91c-1.62-1.501-4.317-1.268-5.548,0.606
					c-1.07,1.629-0.793,4.082,0.842,5.191c1.143,0.775,2.566-0.265,2.114-1.593c0.065,0.772,0.095,0.948,0.09,0.526
					c0.014-0.325-0.036-0.644-0.151-0.958c-0.068-0.253-0.19-0.47-0.221-0.738c-0.044-0.374-0.018-0.905,0.381-1.08
					c0.197-0.087,0.945,0.032,0.972,0.294c0.018,0.181-0.653,0.576-0.767,0.432C825.411,434.306,823.401,435.455,824.312,436.704
					L824.312,436.704z"/>
			</g>
			<g>
				<path fill="#EED9A1" d="M833.947,415.407c0.997,0.658,2.027,0.994,3.216,1.076c0.662,0.046,1.098-0.599,1.139-1.178
					c0.056-0.798,0.152-1.587,0.22-2.383c0.069-0.807-0.45-1.389-1.213-1.559c-1.979-0.442-4.347,0.337-4.94,2.462
					c-0.449,1.607,0.614,3.25,2.159,3.741c1.335,0.424,4.037-1.135,2.362-2.564c-0.471-0.402-0.793-0.15-1.29-0.231
					c0.475,0.078-0.019-0.182-0.023-0.146c-0.103-0.189-0.144-0.158-0.123,0.093c0.025-0.112,0.094-0.192,0.207-0.24
					c0.51-0.152,0.693-0.374,1.302-0.342c-0.403-0.395-0.806-0.79-1.209-1.185c0.068,0.799,0.164,1.594,0.231,2.394
					c0.38-0.393,0.759-0.786,1.139-1.178c-0.821,0.072-1.519-0.034-2.278-0.366C833.898,413.385,833.065,414.825,833.947,415.407
					L833.947,415.407z"/>
			</g>
			<g>
				<path fill="#EED9A1" d="M842.141,396.419c1.849,1.196,4.193-0.257,4.36-2.349c0.055-0.685-0.316-1.415-1.071-1.515
					c-0.907-0.119-1.81-0.217-2.722-0.289c-0.571-0.045-1.149,0.375-1.419,0.846c-0.764,1.332-0.583,2.92,0.314,4.15
					c1.022,1.402,2.991,2.11,4.305,0.754c0.493-0.509,0.431-1.135-0.083-1.592c-0.683-0.607-1.799-1.02-1.481-2.085
					c-0.527,0.415-1.053,0.83-1.58,1.245c0.865-0.124,1.719-0.258,2.575-0.433c-0.453-0.282-0.905-0.563-1.358-0.845
					c0.221,0.566-0.533,0.712-0.941,0.503C842.111,394.337,841.264,395.853,842.141,396.419L842.141,396.419z"/>
			</g>
			<g>
				<path fill="#EED9A1" d="M847.29,377.879c0.973,1.265,2.87,1.558,4.217,0.706c1.641-1.038,1.713-3.175,0.536-4.601
					c-1.262-1.528-3.607-1.688-4.882-0.098c-1.347,1.679-0.713,4.133,1.186,4.998c0.5,0.228,1.145-0.008,1.529-0.342
					c0.811-0.705,0.359-1.388,0.078-2.382c-0.013-0.047-0.079-0.151-0.077-0.213c0.022-0.617,0.156-0.12-0.019-0.161
					c0.955,0.226-0.238,1.441-1.01,0.703C847.875,375.561,846.467,376.809,847.29,377.879L847.29,377.879z"/>
			</g>
			<g>
				<path fill="#EED9A1" d="M687.457,457.036c1.479,1.211,3.176-0.074,3.627-1.584c0.151-0.506-0.209-1.175-0.682-1.381
					c-1.96-0.854-4.378-0.041-4.636,2.34c-0.191,1.762,1.39,3.886,3.281,3.066c0.401-0.174,0.602-0.699,0.554-1.099
					c-0.024-0.197-0.09-0.359-0.206-0.52c-0.049-0.068-0.586-0.46-0.579-0.414c0.006,0.038,0.081-0.754,0.109-0.785
					c0.178-0.204,0.427-0.245,0.67-0.203c-0.319-0.276-0.638-0.551-0.957-0.827c-0.013-0.083-0.027-0.167-0.04-0.25
					C687.505,454.653,686.469,456.227,687.457,457.036L687.457,457.036z"/>
			</g>
			<g>
				<path fill="#EED9A1" d="M696.289,438.443c0.66,0.243,1.32,0.486,1.981,0.729c0.654,0.24,1.359-0.317,1.381-0.98
					c0.014-0.416-0.047-1.028,0.082-1.433c0.271-0.853-0.213-2.056-1.314-1.862c-2.212,0.389-4.847,1.418-4.622,4.152
					c0.185,2.248,2.622,3.755,4.411,1.993c0.766-0.754,0.077-2.116-0.958-2.051c-0.113,0.007-0.226,0.014-0.338,0.021
					c0.329,0.099,0.657,0.198,0.986,0.297c-0.564-0.407-0.875-0.37-0.566-0.884c0.303-0.504,1.162-0.772,1.677-0.997
					c-0.562-0.256-1.124-0.512-1.687-0.768c0.181,0.445,0.167,0.989,0.203,1.46c0.46-0.327,0.921-0.654,1.381-0.98
					c-0.647-0.161-1.293-0.322-1.94-0.483C695.806,436.369,695.105,438.006,696.289,438.443L696.289,438.443z"/>
			</g>
			<g>
				<path fill="#EED9A1" d="M706.227,419.163c2.909,2.482,6.735-1.839,3.942-4.46c-1.586-1.488-4.157-0.984-4.846,1.111
					c-0.559,1.699,0.474,3.958,2.462,3.911c1.453-0.034,2.186-1.753,0.961-2.699c-0.101-0.078-0.024-0.357-0.144-0.416
					c-0.082,0.066-0.165,0.131-0.247,0.197c0.198,0.089,0.358,0.22,0.482,0.393c0.08,0.721-1.35,0.771-1.74,0.632
					C706.288,417.544,705.494,418.537,706.227,419.163L706.227,419.163z"/>
			</g>
			<g>
				<path fill="#EED9A1" d="M715.065,397.529c1.217,1.253,3.27,0.779,4.095-0.714c0.954-1.727-0.412-3.708-2.318-3.651
					c-2.019,0.061-3.663,2.168-2.745,4.098c1.049,2.205,4.286,1.974,5.247-0.123c0.601-1.312-1.118-2.394-2.216-1.845
					c-0.116,0.058-0.304,0.175-0.298,0.149c0.401,0.291,0.513,0.574,0.335,0.852c-0.084,0.139-0.046,0.109,0.112-0.091
					c-0.491-1.295-0.211,0.26-0.86-0.241C715.482,395.24,714.246,396.686,715.065,397.529L715.065,397.529z"/>
			</g>
			<g>
				<path fill="#EED9A1" d="M725.74,373.328c0.636,1.726,2.677,2.149,4.125,1.076c1.569-1.163,1.378-3.242-0.052-4.427
					c-1.651-1.368-4.275-0.813-5.167,1.138c-0.975,2.134,0.518,5.118,2.992,4.922c0.449-0.036,0.842-0.428,1.03-0.803
					c0.106-0.172,0.162-0.362,0.168-0.569c0.017-0.271-0.034-0.528-0.154-0.771c0.089-0.371-0.664-0.866-0.749-1.229
					c-0.002-0.009-0.073-0.305-0.073-0.24c0.002,0.166,0.24-0.348,0.031-0.077c-0.062,0.08,0.53-0.045,0.352-0.124
					c-0.323-0.143-0.295,0.313-0.574-0.035C726.946,371.287,725.352,372.275,725.74,373.328L725.74,373.328z"/>
			</g>
			<g>
				<path fill="#EED9A1" d="M737.833,346.351c1.45,0.743,3.099,0.203,4.026-1.105c1.11-1.566,0.652-3.933-1.498-4.09
					c-2.017-0.147-3.784,1.506-3.537,3.573c0.248,2.074,2.11,3.31,4.044,2.59c1.149-0.428,1.04-2.01,0.033-2.509
					c-0.366-0.181-0.883-0.586-0.152-0.574c-0.325-0.174-0.651-0.348-0.976-0.521c-0.363-0.528-0.164,0.753-0.793,0.507
					C737.572,343.671,736.411,345.622,737.833,346.351L737.833,346.351z"/>
			</g>
		</g>
		<g>
			<g>
				<path fill="#AB7A1E" d="M736.703,483.993c27.014-43.738,49.274-91.289,69.899-138.307c0.594-1.353-1.412-2.517-2.009-1.154
					c-20.79,47.522-45.53,92.707-68.716,139.024C735.642,484.029,736.426,484.442,736.703,483.993L736.703,483.993z"/>
			</g>
			<g>
				<path fill="#AB7A1E" d="M748.161,487.628c27.386-42.819,53.138-89.883,71.539-137.311c0.591-1.523-1.639-2.656-2.312-1.125
					c-20.857,47.439-47.946,91.318-70.154,137.978C746.979,487.705,747.849,488.115,748.161,487.628L748.161,487.628z"/>
			</g>
			<g>
				<path fill="#AB7A1E" d="M760.948,491.669c26.442-43.821,54.784-88.497,71.747-137.076c0.417-1.194-1.366-1.833-1.842-0.668
					c-19.65,48.036-45.561,92.044-71.108,137.079C759.307,491.776,760.492,492.425,760.948,491.669L760.948,491.669z"/>
			</g>
			<g>
				<path fill="#AB7A1E" d="M724.928,480.26c25.894-44.36,48.469-92.437,68.232-139.829c0.506-1.213-1.353-1.801-1.899-0.659
					c-22.339,46.631-45.648,93.061-67.209,140.041C723.821,480.317,724.646,480.744,724.928,480.26L724.928,480.26z"/>
			</g>
			<g>
				<path fill="#AB7A1E" d="M716.279,477.463c24.988-45.187,46.448-93.146,64.66-141.445c0.498-1.32-1.599-1.925-2.099-0.618
					c-18.585,48.541-41.852,94.485-64.065,141.374C714.314,477.746,715.769,478.384,716.279,477.463L716.279,477.463z"/>
			</g>
		</g>
	</g>
	<g>
		<g>
			<path fill="#79A9AD" d="M703.708,390.63c-7.112,1.991-14.028,5.376-21.188,7.075c-5.962,1.415-11.918,1.857-16.819-2.504
				c-2.751-2.447-4.824-5.832-7.155-8.698c-0.587-0.721-1.965-0.093-1.503,0.83c3.55,7.085,9.419,14.44,18.071,14.631
				c9.259,0.205,20.816-6.517,28.981-10.267C704.681,391.429,704.337,390.454,703.708,390.63L703.708,390.63z"/>
		</g>
		<g>
			<path fill="#79A9AD" d="M647.603,410.633c9.097,9.38,23.839,11.028,35.349,5.564c0.658-0.313,0.205-1.449-0.488-1.191
				c-12.182,4.523-23.617,2.051-33.85-5.483C647.845,408.957,646.919,409.929,647.603,410.633L647.603,410.633z"/>
		</g>
		<g>
			<path fill="#79A9AD" d="M657.311,447.096c17.149-9.355,37.337-24.251,42.394-44.293c0.169-0.671-0.834-1.152-1.163-0.488
				c-4.905,9.887-9.798,18.378-17.853,26.071c-7.231,6.907-15.495,12.377-23.96,17.635
				C656.066,446.434,656.616,447.475,657.311,447.096L657.311,447.096z"/>
		</g>
		<g>
			<path fill="#79A9AD" d="M455.56,363.423c-3.789,17.656-2.757,36.268-3.079,54.24c-0.32,17.84-0.586,35.682-0.872,53.523
				c-0.585,36.52-1.216,73.048-1.155,109.573c0.001,0.579,0.892,0.687,0.912,0.09c1.239-36.521,1.794-73.067,2.391-109.603
				c0.583-35.702-1.02-72.217,2.767-107.741C456.592,362.869,455.687,362.833,455.56,363.423L455.56,363.423z"/>
		</g>
		<g>
			<path fill="#79A9AD" d="M432.057,448.986c-2.106,83.202,7.134,166.598,0.058,249.74c-0.064,0.753,1.226,0.909,1.329,0.15
				c5.594-41.015,3.594-83.605,2.885-124.864c-0.716-41.67-1.5-83.382-2.975-125.032
				C433.326,448.147,432.078,448.148,432.057,448.986L432.057,448.986z"/>
		</g>
		<g>
			<path fill="#79A9AD" d="M761.464,613.076c0.965-18.5,0.814-38.09-0.8-56.548c-0.075-0.854-1.51-1-1.563-0.08
				c-1.055,18.51-0.522,38.161,1.039,56.642C760.212,613.937,761.419,613.932,761.464,613.076L761.464,613.076z"/>
		</g>
		<g>
			<path fill="#79A9AD" d="M753.953,676.589c-1.92-34.96-2.287-69.819-2.677-104.816c-0.007-0.61-0.932-0.715-0.964-0.082
				c-1.73,34.947-0.306,70.234,2.664,105.074C753.031,677.409,753.987,677.214,753.953,676.589L753.953,676.589z"/>
		</g>
		<g>
			<path fill="#79A9AD" d="M758.501,739.143c3.228-39.088,8.448-80.055,2.63-119.092c-0.112-0.754-1.384-0.566-1.324,0.194
				c3.164,39.705-0.747,79.166-2.426,118.849C757.352,739.816,758.442,739.86,758.501,739.143L758.501,739.143z"/>
		</g>
		<g>
			<path fill="#79A9AD" d="M729.912,610.002c-0.072-17.175-2.253-34.116-7.134-50.61c-0.183-0.618-1.17-0.453-1,0.188
				c4.401,16.634,7.034,33.294,7.351,50.52C729.138,610.61,729.914,610.502,729.912,610.002L729.912,610.002z"/>
		</g>
		<g>
			<path fill="#79A9AD" d="M356.125,685.917c7.026-25.304,11.015-52.685,8.907-78.953c-0.04-0.498-0.877-0.488-0.883,0.02
				c-0.316,26.891-4.171,52.332-8.909,78.727C355.15,686.216,355.986,686.419,356.125,685.917L356.125,685.917z"/>
		</g>
		<g>
			<path fill="#79A9AD" d="M382.684,714.248c1.005-11.471,1.964-22.947,2.606-34.444c0.033-0.586-0.848-0.68-0.912-0.09
				c-1.237,11.497-2.165,23.027-3.043,34.557C381.269,715.14,382.609,715.104,382.684,714.248L382.684,714.248z"/>
		</g>
		<g>
			<path fill="#79A9AD" d="M398.575,734.157c0.464-8.64,0.712-17.722-0.058-26.344c-0.051-0.572-0.935-0.498-0.983,0.05
				c-0.75,8.588-0.53,17.632-0.052,26.239C397.52,734.789,398.536,734.878,398.575,734.157L398.575,734.157z"/>
		</g>
		<g>
			<path fill="#79A9AD" d="M427.55,799.747c2.465-31.327,2.016-62.56-0.653-93.86c-0.069-0.808-1.336-0.825-1.273-0.004
				c2.405,31.203,2.57,62.498,1.195,93.757C426.799,800.106,427.512,800.227,427.55,799.747L427.55,799.747z"/>
		</g>
		<g>
			<path fill="#79A9AD" d="M451.032,885.479c2.103-39.717,1.317-79.737,1.4-119.501c0.086-41.486,0.853-83.19-1.105-124.638
				c-0.037-0.778-1.201-0.815-1.222-0.02c-1.073,41.519,0.05,83.152,0.029,124.685c-0.02,39.765-1.426,79.684-0.247,119.432
				C449.909,886.167,450.993,886.224,451.032,885.479L451.032,885.479z"/>
		</g>
	</g>
	<g>
		<g>
			<g>
				<path fill="#B0DECF" d="M512.676,287.322c-11.085-11.138-26.81-17.802-29.748-34.844c-0.108-0.626-1.095-0.542-1.107,0.094
					c-0.305,15.951,18.037,28.19,30.191,35.476C512.461,288.317,513.094,287.743,512.676,287.322L512.676,287.322z"/>
			</g>
			<g>
				<path fill="#B0DECF" d="M507.791,259.8c22.376,22.754,56.661,38.966,87.728,23.334c0.983-0.494,0.429-1.994-0.636-1.609
					c-32.213,11.642-62.417,0.356-86.143-22.683C508.117,258.235,507.182,259.181,507.791,259.8L507.791,259.8z"/>
			</g>
			<g>
				<path fill="#B0DECF" d="M578.952,301.771c15.75-1.614,32.084-6.726,45.772-14.705c0.515-0.3,0.188-1.091-0.385-0.859
					c-15.022,6.055-29.736,10.8-45.557,14.288C578.076,300.651,578.21,301.847,578.952,301.771L578.952,301.771z"/>
			</g>
			<g>
				<path fill="#B0DECF" d="M675.699,274.686c-6.559,0.08-14.307-0.141-20.494,2.092c-2.32,0.838-4.08,2.288-5.968,3.83
					c-4.799,3.918-9.773,7.054-14.743,10.69c-0.67,0.49-0.189,1.687,0.659,1.364c5.664-2.158,10.352-5.86,14.981-9.703
					c7.486-6.213,16.621-5.242,25.748-6.974C676.629,275.844,676.436,274.677,675.699,274.686L675.699,274.686z"/>
			</g>
			<g>
				<path fill="#B0DECF" d="M665.446,263.292c-2.826,0.783-5.621,0.999-8.52,0.575c-2.61-0.382-4.856-1.49-7.358-2.167
					c-0.538-0.146-1.056,0.563-0.605,0.982c4.317,4.013,11.717,3.736,16.948,2.037C666.836,264.42,666.375,263.035,665.446,263.292
					L665.446,263.292z"/>
			</g>
		</g>
		<g>
			<g>
				<path fill="#B0DECF" d="M588.23,499.499c3.736,3.475,5.824,8.004,6.974,12.913c0.199,0.849,1.497,0.552,1.463-0.276
					c-0.226-5.527-3.347-10.189-7.786-13.339C588.453,498.492,587.821,499.118,588.23,499.499L588.23,499.499z"/>
			</g>
			<g>
				<path fill="#B0DECF" d="M651.177,519.264c0.744-9.077-3.848-20.58-10.902-26.359c-0.467-0.382-1.381,0.065-0.966,0.689
					c2.645,3.978,5.513,7.665,7.378,12.111c1.87,4.457,2.443,8.991,3.31,13.683C650.126,520.084,651.124,519.915,651.177,519.264
					L651.177,519.264z"/>
			</g>
			<g>
				<path fill="#B0DECF" d="M653.366,519.079c4.167-1.463,6.217-5.258,5.985-9.654c-0.505-9.563-10.718-15.186-6.722-25.545
					c0.226-0.585-0.606-0.927-0.953-0.462c-7.69,10.284,15.634,28.728,1.27,34.551C652.323,518.223,652.725,519.305,653.366,519.079
					L653.366,519.079z"/>
			</g>
			<g>
				<path fill="#B0DECF" d="M678.8,490.712c-5.027-3.867-11.646-5.547-17.727-3.265c-0.585,0.219-0.228,1.05,0.326,0.982
					c5.963-0.726,11.513,0.001,16.582,3.402C678.629,492.266,679.426,491.194,678.8,490.712L678.8,490.712z"/>
			</g>
			<g>
				<path fill="#B0DECF" d="M546.645,519.638c3.765-4.174,5.834-10.163,3.97-15.655c-0.175-0.516-0.921-0.235-0.872,0.257
					c0.549,5.459-0.253,10.42-3.918,14.688C545.427,519.391,546.232,520.096,546.645,519.638L546.645,519.638z"/>
			</g>
			<g>
				<path fill="#B0DECF" d="M505.064,517.334c-3.159,0.001-6.052-0.296-9.175-0.701c-0.615-0.08-0.825,0.848-0.327,1.133
					c2.731,1.561,6.469,2.028,9.52,1.36C506.006,518.924,506.157,517.334,505.064,517.334L505.064,517.334z"/>
			</g>
			<g>
				<path fill="#B0DECF" d="M540.617,517.729c-5.975-4.86-15.126-7.346-22.578-4.751c-0.673,0.234-0.492,1.19,0.236,1.095
					c8.193-1.078,14.819-0.243,21.743,4.572C540.607,519.054,541.152,518.164,540.617,517.729L540.617,517.729z"/>
			</g>
			<g>
				<path fill="#B0DECF" d="M539.407,517.867c11.327,35.666,11.726,70.197,10.663,107.355c-0.026,0.907,1.349,0.846,1.399-0.044
					c1.997-35.226,4.195-74.841-11.351-107.59C539.907,517.143,539.258,517.397,539.407,517.867L539.407,517.867z"/>
			</g>
			<g>
				<path fill="#B0DECF" d="M608.66,524.449c18.441-10.319,22.542,25.571,24.454,34.781c2.474,11.919,4.455,23.935,5.941,36.017
					c2.875,23.362,3.528,46.74,3.475,70.253c-0.002,0.7,1.052,0.764,1.093,0.055c1.862-32.428-0.868-65.155-6.798-97.054
					c-2.068-11.125-6.999-58.071-28.584-44.952C607.705,523.874,608.095,524.765,608.66,524.449L608.66,524.449z"/>
			</g>
			<g>
				<path fill="#B0DECF" d="M649.961,521.128c-1.931,45.043,1.56,90.262,11.045,134.359c0.12,0.557,0.982,0.435,0.881-0.134
					c-7.9-44.437-11.525-89.04-10.286-134.174C651.626,520.252,650.001,520.189,649.961,521.128L649.961,521.128z"/>
			</g>
			<g>
				<path fill="#B0DECF" d="M649.938,518.201c-2.855,8.072-10.038,11.473-18.01,12.479c-0.614,0.078-0.588,1.047-0.022,1.181
					c8.774,2.084,17.286-5.269,19.396-13.343C651.534,517.629,650.231,517.371,649.938,518.201L649.938,518.201z"/>
			</g>
			<g>
				<path fill="#B0DECF" d="M559.843,748.261c0.553-29.175-0.519-58.704-3.117-87.769c-0.079-0.89-1.438-0.865-1.399,0.044
					c1.25,29.237,2.305,58.452,3.32,87.697C558.674,748.997,559.829,749.039,559.843,748.261L559.843,748.261z"/>
			</g>
			<g>
				<path fill="#B0DECF" d="M565.483,527.233c12.077,36.239,8.279,75.857,7.622,113.453c-0.527,30.157-0.808,60.439,2.815,90.435
					c0.076,0.626,1.128,0.542,1.107-0.094c-1.105-33.023-2.045-65.791-1.453-98.844c0.625-34.921,4.151-72.085-8.814-105.3
					C566.456,526.106,565.21,526.412,565.483,527.233L565.483,527.233z"/>
			</g>
			<g>
				<path fill="#B0DECF" d="M505.371,519.811c-7.207,21.818-9.372,45.336-6.709,68.124c0.07,0.595,1.086,0.534,1.058-0.075
					c-1.092-23.37,1.255-45.096,6.934-67.723C506.863,519.305,505.636,519.009,505.371,519.811L505.371,519.811z"/>
			</g>
		</g>
	</g>
	<g>
		<g>
			<path fill="#E59081" d="M591.616,458.221c-1.164-2.991-2.536-5.868-3.288-9.003c-0.783-3.263-0.908-6.575-1.424-9.874
				c-0.156-1.001-1.826-1.113-2.037-0.086c-1.346,6.542,0.989,14.712,5.247,19.794C590.727,459.784,591.986,459.172,591.616,458.221
				L591.616,458.221z"/>
		</g>
		<g>
			<path fill="#E59081" d="M584.779,423.481c0.243-11.008-0.243-22.318-2.884-33.053c-0.152-0.619-1.061-0.461-0.977,0.176
				c1.458,11.031,2.953,21.736,3.103,32.868C584.027,423.901,584.769,423.915,584.779,423.481L584.779,423.481z"/>
		</g>
		<g>
			<path fill="#E59081" d="M578.153,377.026c3.524-17.91,1.779-38.153-3.9-55.361c-0.292-0.885-1.548-0.473-1.364,0.414
				c3.891,18.741,5.035,35.803,4.634,54.918C577.515,377.368,578.086,377.369,578.153,377.026L578.153,377.026z"/>
		</g>
		<g>
			<path fill="#E59081" d="M453.471,325.65c11.476,6.836,20.076,17.403,31.148,24.857c6.902,4.647,14.317,8.555,22.034,11.662
				c18.05,7.267,37.589,10.143,56.857,7.207c1.133-0.173,0.895-1.784-0.222-1.742c-20.382,0.761-40.517-1.515-59.365-9.712
				c-19.006-8.266-31.899-23.939-49.78-33.528C453.331,323.958,452.686,325.183,453.471,325.65L453.471,325.65z"/>
		</g>
		<g>
			<path fill="#E59081" d="M608.954,374.661c18.128,2.321,34.94-7.942,53.057-8.276c1.522-0.028,1.526-2.438,0.059-2.648
				c-18.292-2.612-34.399,10.93-52.81,9.479C608.34,373.144,607.992,374.538,608.954,374.661L608.954,374.661z"/>
		</g>
		<g>
			<path fill="#E59081" d="M531.279,402.214c2.5,4.696,5.296,9.145,8.926,13.052c6.045,6.505,13.141,8.213,13.425,18.073
				c0.341,11.814-2.572,20.422,5.189,30.394c0.31,0.398,1.048-0.016,0.777-0.471c-7.052-11.846-0.508-22.752-4.162-34.675
				c-0.775-2.53-1.416-3.7-3.266-5.607c-7.436-7.668-14.091-10.999-19.91-21.255C531.912,401.116,530.946,401.589,531.279,402.214
				L531.279,402.214z"/>
		</g>
		<g>
			<path fill="#E59081" d="M624.904,463.814c0.1-9.718-0.63-19.951,0.249-29.631c1.149-12.652,10.735-20.242,12.794-32.161
				c0.143-0.827-1.14-1.336-1.459-0.487c-3.35,8.898-10.419,16.403-12.615,25.677c-2.7,11.406-0.278,24.928,0.093,36.517
				C623.986,464.318,624.898,464.431,624.904,463.814L624.904,463.814z"/>
		</g>
		<g>
			<path fill="#E59081" d="M471.581,387.003c3.705,8.359,8.609,16.053,15.06,22.576c6.053,6.12,13.459,10.216,20.126,15.543
				c0.441,0.352,1.025-0.306,0.664-0.726c-5.731-6.667-13.992-10.708-20.234-16.965c-6.116-6.13-10.964-13.02-14.798-20.782
				C472.146,386.138,471.348,386.476,471.581,387.003L471.581,387.003z"/>
		</g>
		<g>
			<path fill="#E59081" d="M472.108,405.442c3.467,8.534,9.302,16.622,17.534,21.059c0.858,0.462,1.62-0.849,0.884-1.44
				c-7.129-5.731-13.128-11.636-16.99-20.084C473.142,404.117,471.738,404.532,472.108,405.442L472.108,405.442z"/>
		</g>
		<g>
			<path fill="#E59081" d="M532.358,495.444c-5.581-5.083-9.881-11.353-12.598-18.398c-0.288-0.748-1.499-0.468-1.232,0.319
				c2.563,7.564,6.816,14.042,12.751,19.399C532.096,497.503,533.166,496.18,532.358,495.444L532.358,495.444z"/>
		</g>
		<g>
			<path fill="#E59081" d="M389.043,407.802c9.635-6.778,20.484-5.643,30.246-0.028c0.631,0.363,1.367-0.537,0.797-1.042
				c-8.871-7.859-22.761-6.633-31.7,0.292C387.861,407.43,388.515,408.173,389.043,407.802L389.043,407.802z"/>
		</g>
		<g>
			<path fill="#E59081" d="M460.005,357.622c0.86-6.239,1.669-13.541,0.631-19.776c-0.113-0.677-1.126-0.589-1.28,0.012
				c-1.573,6.152-1.448,13.483-1.143,19.783C458.264,358.687,459.869,358.608,460.005,357.622L460.005,357.622z"/>
		</g>
		<g>
			<path fill="#E59081" d="M337.802,502.827c-1.155,4.005-2.31,8.01-3.47,12.013c-0.592,2.045-2.259,5.317-1.886,7.38
				c0.651,3.602,5.413,3.051,7.987,1.951c0.523-0.224,0.253-1.11-0.312-0.96c-1.424,0.429-2.866,0.51-4.328,0.244
				c-1.745-1-2.203-2.261-1.372-3.783c0.066-1.661,0.932-3.627,1.34-5.251c0.945-3.76,1.895-7.519,2.846-11.278
				C338.742,502.615,337.959,502.285,337.802,502.827L337.802,502.827z"/>
		</g>
		<g>
			<path fill="#E59081" d="M342.693,522.85c2.689-2.137,4.773-4.66,6.482-7.637c1.412-2.46,3.219-5.601,2.957-8.513
				c-0.045-0.498-0.749-0.545-0.993-0.188c-1.425,2.087-1.884,4.843-3.062,7.114c-1.614,3.111-3.8,5.929-6.086,8.571
				C341.624,522.621,342.279,523.178,342.693,522.85L342.693,522.85z"/>
		</g>
		<g>
			<path fill="#E59081" d="M351.367,511.067c9.466-2.959,20.991-5.841,25.536-15.65c0.365-0.787-0.82-1.646-1.331-0.868
				c-5.851,8.905-15.578,11.129-24.675,15.347C350.242,510.199,350.68,511.281,351.367,511.067L351.367,511.067z"/>
		</g>
		<g>
			<path fill="#E59081" d="M324.071,533.991c2.7,0.158,5.214,1.619,6.934,3.684c1.822,2.188,1.726,4.513,2.529,7.063
				c0.206,0.655,1.096,0.662,1.407,0.1c1.388-2.503-0.185-5.914-1.759-7.981c-2.193-2.88-5.488-4.472-9.126-4.19
				C323.207,532.733,323.218,533.941,324.071,533.991L324.071,533.991z"/>
		</g>
		<g>
			<path fill="#E59081" d="M326.522,528.2c1.565,0.826,2.829,2.101,3.582,3.711c0.8,1.709,0.598,3.447,0.899,5.237
				c0.057,0.341,0.603,0.555,0.799,0.197c2.02-3.686-1.742-8.44-4.969-9.925C326.334,527.19,326.053,527.952,326.522,528.2
				L326.522,528.2z"/>
		</g>
		<g>
			<path fill="#E59081" d="M331.849,531.77c0.304-1.34,0.752-2.737,0.721-4.117c-0.008-0.344-0.533-0.418-0.656-0.107
				c-0.506,1.284-0.551,2.753-0.718,4.115C331.144,532.084,331.754,532.185,331.849,531.77L331.849,531.77z"/>
		</g>
		<g>
			<path fill="#E59081" d="M351.754,544.166c3.191-3.331,6.519-10.593,0.935-13.55c-2.297-1.217-5.104-0.376-7.179,0.905
				c-3.651,2.254-7.81,6.204-10.113,9.762c-0.365,0.565,0.358,1.215,0.906,0.901c3.498-2.009,5.888-5.324,9.016-7.81
				c1.946-1.547,2.235-1.561,5.008-1.312c2.361-0.628,3.567,0.244,3.618,2.616c-0.024,0.599-0.048,1.199-0.072,1.799
				c-0.383,2.193-1.846,4.098-2.892,6.002C350.722,543.952,351.316,544.623,351.754,544.166L351.754,544.166z"/>
		</g>
		<g>
			<path fill="#E59081" d="M345.463,534.066c-0.907-1.953-2.934-4.953-5.304-5.129c-0.545-0.04-0.892,0.718-0.585,1.132
				c0.61,0.824,1.579,1.208,2.353,1.861c0.929,0.784,1.735,1.779,2.39,2.797C344.784,535.454,345.818,534.832,345.463,534.066
				L345.463,534.066z"/>
		</g>
		<g>
			<path fill="#E59081" d="M365.168,547.095c3.266-4.063,4.232-9.414,4.854-14.468c0.408-3.319,0.741-7.455-2.174-9.829
				c-5.956-4.849-13.121,2.049-13.458,8.189c-0.061,1.105,1.55,1.478,1.926,0.403c1.063-3.039,2.039-6.849,5.723-7.699
				c6.046-1.396,6.375,3.841,6.149,7.35c-0.351,5.457-1.746,10.565-3.819,15.624C364.166,547.159,364.853,547.486,365.168,547.095
				L365.168,547.095z"/>
		</g>
		<g>
			<path fill="#E59081" d="M371.188,532.001c1.367-1.331,3.079-2.763,5.076-2.886c2.349-0.144,2.987,1.474,4.053,3.118
				c0.34,0.524,1.151,0.426,1.408-0.119c1.148-2.442-1.714-4.673-3.846-5.117c-3.217-0.67-6.005,1.568-7.8,3.993
				C369.509,531.758,370.485,532.686,371.188,532.001L371.188,532.001z"/>
		</g>
		<g>
			<path fill="#E59081" d="M338.125,528.152c5.108,0.753,10.344,1.925,15.516,1.978c0.351,0.004,0.336-0.498,0.034-0.58
				c-4.989-1.355-10.347-1.646-15.46-2.31C337.629,527.164,337.543,528.067,338.125,528.152L338.125,528.152z"/>
		</g>
		<g>
			<path fill="#E59081" d="M852.12,423.028c1.449,2.51,3.38,4.708,5.201,6.952c1.626,2.003,3.233,4.198,5.243,5.829
				c0.325,0.263,0.853-0.132,0.657-0.516c-1.297-2.543-3.367-4.771-5.172-6.972c-1.665-2.03-3.263-4.113-5.226-5.869
				C852.481,422.146,851.892,422.633,852.12,423.028L852.12,423.028z"/>
		</g>
		<g>
			<path fill="#E59081" d="M854.712,408.092c2.138,1.532,4.222,3.049,6.103,4.9c1.72,1.692,3.231,3.591,4.851,5.379
				c0.342,0.378,0.927,0.03,0.759-0.452c-1.725-4.933-6.122-9.089-10.836-11.212C854.764,406.336,853.932,407.534,854.712,408.092
				L854.712,408.092z"/>
		</g>
		<g>
			<path fill="#E59081" d="M859.898,397.592c5.16,2.209,9.797,4.676,14.644,7.48c0.528,0.305,1.239-0.421,0.732-0.868
				c-4.149-3.656-9.762-6.349-15.17-7.497C859.576,396.595,859.442,397.397,859.898,397.592L859.898,397.592z"/>
		</g>
		<g>
			<path fill="#E59081" d="M524.539,838.462c5.546-6.697,10.387-14.163,13.034-22.501c0.186-0.585-0.625-0.866-0.884-0.324
				c-3.712,7.771-7.627,15.166-13.06,21.899C523.112,838.177,524.004,839.108,524.539,838.462L524.539,838.462z"/>
		</g>
		<g>
			<path fill="#E59081" d="M488.316,800.66c-0.293,7.243,0.453,14.623,3.192,21.389c0.191,0.473,0.999,0.255,0.872-0.257
				c-1.738-7.015-3.138-13.702-3.178-21.039C489.199,800.193,488.34,800.077,488.316,800.66L488.316,800.66z"/>
		</g>
		<g>
			<path fill="#E59081" d="M533.899,796.675c0.757-7.55,0.983-15.538,1.093-23.131c0.014-0.973-1.54-1.539-1.816-0.432
				c-1.825,7.313-2.151,16.343-0.505,23.71C532.834,797.551,533.832,797.346,533.899,796.675L533.899,796.675z"/>
		</g>
		<g>
			<path fill="#E59081" d="M606.291,766.171c-2.971,9.459-5.68,19.519-5.572,29.508c0.009,0.859,1.316,0.932,1.485,0.106
				c1.983-9.689,3.144-19.383,5.844-28.937C608.373,765.699,606.658,765.003,606.291,766.171L606.291,766.171z"/>
		</g>
		<g>
			<path fill="#E59081" d="M603.945,809.125c2.728,6.877,3.691,13.883,5.403,21.018c0.192,0.802,1.303,0.532,1.347-0.207
				c0.443-7.356-2.191-14.814-5.16-21.427C605.088,807.513,603.538,808.097,603.945,809.125L603.945,809.125z"/>
		</g>
		<g>
			<path fill="#E59081" d="M646.7,816.881c1.53-9.044,3.275-18.082,4.334-27.194c0.069-0.591-0.919-0.796-1.042-0.197
				c-1.847,9.028-2.98,18.211-4.334,27.325C645.559,817.482,646.589,817.535,646.7,816.881L646.7,816.881z"/>
		</g>
		<g>
			<path fill="#E59081" d="M603.107,875.443c1.427,31.036-0.308,61.914-4.625,92.676c-0.061,0.438,0.599,0.546,0.679,0.109
				c5.595-30.718,7.014-61.78,4.827-92.919C603.947,874.731,603.081,874.878,603.107,875.443L603.107,875.443z"/>
		</g>
		<g>
			<path fill="#E59081" d="M506.563,1019.651c-0.487-27.365,0.97-54.474,2.896-81.754c0.056-0.797-1.123-0.783-1.222-0.02
				c-3.49,27.063-3.825,54.58-2.608,81.809C505.653,1020.214,506.572,1020.187,506.563,1019.651L506.563,1019.651z"/>
		</g>
		<g>
			<path fill="#E59081" d="M603.981,1113.656c2.641-2.755,3.686-6.565,3.191-10.326c-0.362-2.749-1.894-7.439-5.037-7.956
				c-0.499-0.082-1.001,0.351-0.83,0.88c0.852,2.636,3.106,4.268,3.568,7.251c0.507,3.271-0.431,6.205-2.402,8.81
				C601.785,1113.222,603.177,1114.495,603.981,1113.656L603.981,1113.656z"/>
		</g>
		<g>
			<path fill="#E59081" d="M616.127,1093.855c4.706,6.872,4.631,12.664,3.505,20.634c-0.076,0.535,0.672,0.723,0.953,0.325
				c4.611-6.536,2.115-16.778-3.228-22.119C616.654,1091.992,615.6,1093.086,616.127,1093.855L616.127,1093.855z"/>
		</g>
		<g>
			<path fill="#E59081" d="M629.238,1093.918c1.514,3.295,3.244,6.253,3.69,9.945c0.447,3.7-0.195,7.034-0.962,10.626
				c-0.064,0.302,0.367,0.514,0.556,0.26c4.48-6.004,3.53-16.836-2.508-21.512C629.576,1092.899,629.03,1093.465,629.238,1093.918
				L629.238,1093.918z"/>
		</g>
		<g>
			<path fill="#E59081" d="M641.239,1094.609c1.047,2.53,2.033,5.043,2.446,7.769c0.41,2.709,0.176,5.365,0.26,8.073
				c0.02,0.657,0.88,0.8,1.12,0.189c2.061-5.257,0.527-12.098-2.462-16.689C642.142,1093.243,640.9,1093.789,641.239,1094.609
				L641.239,1094.609z"/>
		</g>
		<g>
			<path fill="#E59081" d="M469.951,1129.71c-5.561-6.622,11.53-10.977,11.877-17.222c0.057-1.018-1.152-1.295-1.651-0.465
				c-1.574,2.619-3.229,4.151-5.807,5.825c-1.717,1.115-3.484,2.2-4.765,3.834c-2.121,2.706-3.122,6.31-0.626,9.035
				C469.597,1131.392,470.519,1130.387,469.951,1129.71L469.951,1129.71z"/>
		</g>
		<g>
			<path fill="#E59081" d="M454.132,1134.168c-5.12-7.711,7.737-13.148,9.434-19.654c0.206-0.789-1.022-1.337-1.477-0.664
				c-2.775,4.099-7.197,7.357-9.405,11.781c-1.564,3.134-1.759,6.524,0.642,9.239C453.795,1135.401,454.5,1134.723,454.132,1134.168
				L454.132,1134.168z"/>
		</g>
		<g>
			<path fill="#E59081" d="M444.965,1129.697c0.696-7.939,4.913-12.765,11.09-17.291c0.612-0.448,0.251-1.452-0.542-1.251
				c-7.816,1.984-12.548,10.917-12.238,18.513C443.313,1130.626,444.88,1130.66,444.965,1129.697L444.965,1129.697z"/>
		</g>
		<g>
			<path fill="#E59081" d="M441.792,1120.528c0.674-3.31,2.532-5.528,4.874-7.84c0.325-0.321,0.026-1.029-0.453-0.759
				c-3.012,1.701-4.749,5.207-5.307,8.506C440.809,1121.005,441.679,1121.082,441.792,1120.528L441.792,1120.528z"/>
		</g>
		<g>
			<path fill="#E59081" d="M517.032,1075.794c-3.165-9.162-4.208-18.521-5.754-28.026c-0.095-0.583-0.947-0.507-1.008,0.058
				c-1.059,9.854,1.73,19.48,5.551,28.474C516.114,1076.989,517.276,1076.501,517.032,1075.794L517.032,1075.794z"/>
		</g>
		<g>
			<path fill="#E59081" d="M630.791,1050.471c-3.429-8.315-4.286-14.821-3.126-23.721c0.119-0.909-1.238-1.384-1.596-0.473
				c-3.071,7.817-1.46,18.338,3.773,24.862C630.284,1051.69,631.028,1051.044,630.791,1050.471L630.791,1050.471z"/>
		</g>
	</g>
	<g>
		<g>
			<path fill="#DFCB97" d="M553.125,77.976c0.179-3.864,0.356-7.761,1.699-11.434c1.28-3.499,3.503-5.611,6.258-7.943
				c0.434-0.367,0.041-1.126-0.509-0.983c-8.339,2.16-8.635,13.558-8.567,20.311C552.013,78.642,553.091,78.702,553.125,77.976
				L553.125,77.976z"/>
		</g>
		<g>
			<path fill="#DFCB97" d="M574.519,97.58c7.293,0.344,11.831,3.555,15.87,9.427c1.357,1.973,2.688,4.018,4.491,5.618
				c4.35,3.86,10.272,4.754,15.278,1.642c0.598-0.372,0.25-1.367-0.47-1.171c-11.371,3.095-14.199-4.307-20.732-11.205
				c-3.884-4.101-8.899-5.998-14.471-5.245C573.961,96.718,573.981,97.555,574.519,97.58L574.519,97.58z"/>
		</g>
		<g>
			<path fill="#DCC488" d="M612.029,143.87c3.273,3.629,8.134,6.307,13.118,4.807c4.837-1.456,7.41-6.525,8.396-11.141
				c0.167-0.782-0.937-1.208-1.324-0.493c-1.999,3.7-3.4,8.559-7.998,9.797c-4.105,1.106-8.39-1.199-11.243-3.929
				C612.347,142.307,611.451,143.229,612.029,143.87L612.029,143.87z"/>
		</g>
		<g>
			<path fill="#DFCB97" d="M539.158,106.07c-4.163,1.262-9.409,1.05-12.714,4.238c-2.593,2.501-3.946,6.403-4.171,9.925
				c-0.036,0.565,0.677,0.662,0.911,0.205c1.986-3.874,2.797-8.59,7.395-10.238c3.007-1.078,6.958-0.395,9.201-3.04
				C540.17,106.7,539.828,105.867,539.158,106.07L539.158,106.07z"/>
		</g>
		<g>
			<path fill="#DFCB97" d="M593.122,58.867c-5.69-4.253-14.567,1.77-19.58,4.734c-0.885,0.524-0.047,1.85,0.852,1.519
				c4.825-1.776,12.758-7.805,17.893-5.082C592.987,60.409,593.794,59.369,593.122,58.867L593.122,58.867z"/>
		</g>
		<g>
			<path fill="#DCC488" d="M515.197,152.663c1.974-0.484,4.228-1.509,5.294-3.341c0.274-0.472-0.246-0.976-0.703-0.652
				c-1.612,1.145-2.938,2.262-4.896,2.783C514.116,151.661,514.416,152.855,515.197,152.663L515.197,152.663z"/>
		</g>
		<g>
			<path fill="#DCC488" d="M629.87,184.528c-0.795-0.625-1.905-0.803-2.786-1.297c-0.858-0.481-1.648-1.133-2.31-1.86
				c-1.155-1.269-1.938-2.795-2.633-4.342c-0.294-0.654-1.476-0.743-1.545,0.13c-0.201,2.548,0.94,4.79,2.717,6.55
				c1.511,1.497,4.156,3.225,6.379,2.653C630.788,186.08,630.547,185.06,629.87,184.528L629.87,184.528z"/>
		</g>
		<g>
			<path fill="#DCC488" d="M609.202,192.037c4.78,5.619,11.908,7.537,9.894,16.784c-1.277,5.861-5.967,10.81-5.621,17.113
				c0.434,7.918,7.313,9.702,12.217,14.689c0.421,0.429,1.27-0.062,0.917-0.626c-2.236-3.569-5.967-4.422-8.69-7.401
				c-7.435-8.134,1.265-16.629,2.703-24.636c1.798-10.012-5.162-10.064-10.857-16.318
				C609.473,191.322,608.912,191.697,609.202,192.037L609.202,192.037z"/>
		</g>
		<g>
			<path fill="#DCC488" d="M519.638,235.966c-1.953-4.514-0.864-9.952,3.26-12.829c1.539-1.073,3.682-1.276,5.272-2.238
				c1.933-1.169,3.386-2.574,4.353-4.653c2.145-4.615,0.966-10.093-1.901-14.073c-0.312-0.434-0.909-0.001-0.759,0.452
				c0.753,2.265,2.168,5.079,2.163,7.445c-0.01,4.838-2.33,7.615-6.332,10.179c-2.333,1.494-4.399,1.76-6.225,4.23
				c-2.712,3.67-2.774,8.15-0.995,12.168C518.827,237.445,519.978,236.751,519.638,235.966L519.638,235.966z"/>
		</g>
		<g>
			<path fill="#DFCB97" d="M555.6,82.695c3.87,4.659,8.092,9.096,14.476,9.428c10.257,0.534,16.104-8.758,28.013-1.197
				c7.329,4.653,16.054,15.15,25.307,8.666c1.114-0.78-0.317-2.335-1.417-1.567c-2.848,1.987-12.34-1.212-15.381-2.961
				c-2.138-1.229-3.89-3.091-5.836-4.575c-3.166-2.414-6.171-5.057-10.308-5.54c-3.159-0.369-6.074,0.73-8.95,1.824
				c-9.69,3.684-17.926,3.115-25.172-4.671C555.922,81.663,555.209,82.225,555.6,82.695L555.6,82.695z"/>
		</g>
		<g>
			<path fill="#DFCB97" d="M549.488,82.394c-7.324-2.174-13.281,2.61-18.859,7.038c-3.093,2.455-5.988,5.159-8.004,8.6
				c-0.864,1.475-1.215,3.1-2.002,4.568c-0.233,0.662-0.466,1.325-0.698,1.987c-3.957,7.066-7.536,7.361-10.738,0.886
				c0.829-0.95-0.243-2.545-1.411-1.813c-7.521,4.717,2.353,10.893,8.168,8.68c3.713-1.413,5.392-4.198,6.873-7.666
				c3.723-8.722,14.911-22.797,26.376-20.781C550.175,84.066,550.418,82.67,549.488,82.394L549.488,82.394z"/>
		</g>
	</g>
</g>
</svg>
