<?xml version="1.0" encoding="utf-8"?>
<!-- Designed by Vexels.com - 2019 All Rights Reserved - https://vexels.com/terms-and-conditions/  -->
<svg version="1.1" id="Layer_1" xmlns="http://www.w3.org/2000/svg" xmlns:xlink="http://www.w3.org/1999/xlink" x="0px" y="0px"
	 viewBox="0 0 1200 1200" enable-background="new 0 0 1200 1200" xml:space="preserve">
<g>
	<g>
		<g>
			<path fill="#D37C33" d="M551.24,78.619c0,0,22.476-22.602,43.229-26.142c20.753-3.54,38.809-6.44,53.939,14.836
				c15.13,21.276,88.218,161.28,148.972,195.907c60.754,34.627,26.336,86.821,27.551,118.703
				c1.215,31.882-8.334,71.42-27.551,99.634c-19.217,28.214,0.557,51.01,0,80.93c-0.557,29.92-26.895,60.774-9.877,83.064
				s31.603,47.328,17.379,80.728c-14.224,33.401-53.837,29.474-58.708,46.353s-12.627,32.902,3.933,48.711
				c16.56,15.809-20.171,49.796-60.784,29.804C648.71,831.153,430.426,758.545,405.7,606.834c0,0-16.491-4.711-13.695-21.898
				s29.09-31.412,25.767-46.891s-15.82-70.187-2.151-98.213c13.668-28.026-35.931-5.191-13.131,25.376
				c9.305,13.23,2.603,51.918-21.786,60.486s-36.884,32.633-24.389,38.344c12.495,5.711,28.353,9.683,17.175,17.694
				s-29.38,5.823-28.276-21.823c1.104-27.646,36.893-31.491,33.494-48.811c-7.898-28.44-33.817-12.609-22.607-43.205
				s48.775-43.746,51.235-75.907s-11.113-90.433,5.17-97.784c16.283-7.35,25.384,4.395,29.33-15.473
				c3.947-19.868-6.55-6.4-5.05-0.638c1.499,5.762-11.496,12.97-5.498-4.879s24.581-28.587,41.03-39.462
				c16.449-10.875-1.059-23.693,11.334-32.484c12.393-8.791,34.319-10.7,33.539-25.437c-0.78-14.736-7.99-41.613,20.529-51.764
				C537.721,124.063,521.246,104.802,551.24,78.619z"/>
			<path fill="#D68F51" d="M551.24,78.619c0,0,11.456,7.457,26.723,4.132c15.267-3.325,16.162,2.012,16.162,2.012
				s10.628,36.82,38.104,25.738c0,0-3.594,29.228,20.938,30.315c24.532,1.087,44.732,15.378,44.878,41.471
				s32.251,78.768,94.465,107.602s-10.729,43.917,15.951,106.908s-66.645,52.864-52.471,104.411s54.791,63.195,23.487,115.35
				c-31.304,52.155-44.819,97.513-23.067,127.815c21.752,30.302,56.623-49.405,40.969-80.439c-15.654-31.034-15.651-46.595,0-62.005
				c15.65-15.41,42.623-23.705,26.225-59.619c-16.398-35.914-15.897-43.583,12.815-49.557c28.712-5.974,34.675-27.58,16.199-67.758
				s5.168-46.852,16.838-66.007c11.669-19.155-28.248-40.441-18.286-64.785s2.128-16.931-11.449-39.131
				c-21.574-34.787,18.534-31.464-19.013-64.318c-29.55-24.468-91.13-26.021-123.817-59.927c-8.73-10.914,7.73-20.056-8.73-21.858
				c-8.568-0.802-8.568-8.803-8.568-8.803s10.172-3.28-2.305-9.077c0,0,5.139-12.329-4.847-16.494
				c-9.986-4.165-13.16-0.043-13.16-0.043s-5.415-7.54-10.873-7.237s-11.605,3.514-11.605,3.514s-15.05-12.645-24.063-11.77
				S560.732,51.572,551.24,78.619z"/>
		</g>
		<path fill="#E69692" d="M696.364,879.486c0,0,29.107,54.427,21.061,89.427c-8.046,35-12.98,60.363-28.103,61.515
			s-58.517-210.409-44.817-269.569s23.629-143.203,23.629-143.203S698.536,695.403,696.364,879.486z"/>
		<path fill="#F2D2B7" d="M712.915,188.817c0,0-33.359,6.697-49.619,0.623c-16.26-6.075-16.26-6.075-16.26-6.075
			s-13.132-47.265-14.225-55.947c-0.131-1.043-0.11-3.036-0.121-5.666c-1.09-6.075-0.461-11.253-0.461-11.253
			c-27.476,11.082-38.104-25.738-38.104-25.738s-0.895-5.337-16.162-2.012c-11.466,2.497-20.78-1.086-24.708-3.026
			c-4.842,6.537-19.257,28.648-8.597,47.694c0,0-3.419,11.951,6.583,26.463c0,0,5.338,9.304,5.045,17.281
			c-0.292,7.977,9.769,18.427,25.606,12.828c0,0,8.221,12.487,5.156,20.687c-3.065,8.201-44.954,28.312-59.872,31.626
			s-37.813,14.099-58.603,48.068c-16.363,19.474-53.147,45.657-58.638,45.306c-5.491-0.351-39.624-10.091-49.121-2.967
			c-9.497,7.124-33.921,17.363-18.303,34.849c15.618,17.486,35.302,36.554,70.037,32.405c0,0,70.187-38.687,98.444-72.4
			c0,0,13.906,63.569,0,86.453c-13.906,22.884-40.709,58.612-38.23,83.884c2.479,25.272,94.717,214.819,94.723,237.3
			c0.006,22.482-6.308,88.296,32.71,137.359c11.028,16.141,0.258,53.565,27.635,102.796s35.972,98.12,35.895,115.277
			c-0.077,17.157-5.467,65.305,10.165,65.368c15.632,0.063,19.882-3.896,19.882-3.896s8.788,1.479,11.102-0.292
			c0,0,7.837-0.184,9.338-2.598c0,0,6.564,0.223,7.749-4.715c0,0,8.647-1.702,5.059-13.45
			c-3.587-11.749-25.298-34.089-27.208-54.395c-1.91-20.305,2.83-170.72-24.386-198.863
			c-27.216-28.143-21.462-74.596-10.127-124.718c11.335-50.122,24.06-220.467-17.007-281.866
			c-11.489-22.414,9.903-61.147,17.007-78.115c7.104-16.967,29.95-46.273,33.374-73.163c3.423-26.89-2.325-50.945,9.602-55.801
			c18.439-4.266,53.052-26.443,65.968-45.344S712.915,188.817,712.915,188.817z"/>
		<path fill="#E69584" d="M553.244,159.563c0,0-5.953-5.489-0.346-8.303c5.877-2.95,15.272-5.917,19.929,1.11
			c0,0,0.374,6.352-9.703,11.567C554.099,168.607,553.857,163.739,553.244,159.563z"/>
		<path fill="#EBAF90" d="M544.077,144.972c3.398,1.997,5.939,4.01,9.419,2.597s5.412-6.949,2.463-8.973s-11.9-2.868-11.9-2.868
			S540.255,142.726,544.077,144.972z"/>
		<path fill="#ECB498" d="M741.111,209.441c-26.539,2.077-33.038-12.89-40.14-11.573c-12.938,1.601-32.829,3.234-29.111-6.476
			c17.199,2.221,41.06-2.582,41.06-2.582s14.616,1.007,29.723,3.77h0.026C752.303,202.625,749.869,208.756,741.111,209.441z"/>
		<path fill="#ECB498" d="M655.979,408.004c-3.512,8.212-6.972,17.354-9.064,26.34c-14.849-13.79-28.702-31.579-35.406-46.199
			c-11.836-25.809-8.762-17.629-22.148-33.342c-14.756-17.322-18.213-4.773-28,9.611c-9.787,14.41-30.472,35.74-47.129,36.05
			c8.16-26.857-3.228-78.892-3.228-78.892c-28.277,33.7-98.467,72.384-98.467,72.384c-34.733,4.158-54.411-14.9-70.035-32.409
			c-7.437-8.341-5.785-15.004-1.007-20.504c12.576-6.482,34.423-9.013,40.724-16.295c2.867-3.306,6.585-2.014,10.51,1.627
			c8.961,8.393,18.8,29.336,20.892,35.973c2.996,9.478,65.696-18.645,82.818-47.077c17.147-28.432,18.154-34.708,35.146-18.568
			c16.992,16.14,58.775-36.076,77.369,11.518C621.065,339.26,644.514,378.538,655.979,408.004z"/>
		<path fill="#ECB498" d="M688.544,246.139c1.595,14.21,0.994,32.474-0.003,46.328c-7.657-2.193-13.423-3.707-22.546-14.614
			c-16.676-19.936-30.133-59.744-20.553-78.027c4.907-9.374,12.654-5.335,16.399-10.939c-14.797-5.526-14.797-5.526-14.797-5.526
			s-13.144-47.258-14.229-55.935c-0.129-1.059-0.103-3.047-0.129-5.681c-1.085-6.068-0.465-11.233-0.465-11.233
			c-27.477,11.078-38.09-25.747-38.09-25.747s-0.904-5.345-16.166-2.014c-10.433,2.272-19.084-0.491-23.5-2.453
			c5.449,10.846,12.602,17.793,30.111,11.621c11.285-2.376,7.308,27.477,27.322,26.418c19.988-1.085,14.229,10.898,7.437,12.241
			c0,0,8.264,13.222-4.597,26.263c-12.835,13.041,4.7,11.905,12.241,5.81c7.566-6.095,14.048,27.709-1.859,45.786
			c-13.738,15.624,36.851,121.631,58.517,145.312c10.889-18.415,15.638-31.91,16.164-54.669c0.473-20.454-1.195-37.026,8.472-40.957
			c3.357-0.775,7.257-2.144,11.466-4.003C706.44,252.104,686.555,228.398,688.544,246.139z"/>
		<path fill="#ECB498" d="M721.96,1138.487c-1.188,4.958-7.747,4.726-7.747,4.726c16.682-20.323-7.257-51.984-22.854-59.008
			c-15.598-6.999-23.81-30.627-14.332-77.291c9.477-46.638-10.484-91.288-30.576-112.67c-20.065-21.382,9.09-46.587,0-81.217
			c-9.064-34.63,7.102-102.34,14.074-123.258c6.998-20.943-3.357-86.484-18.645-84.109c-15.314,2.376-51.7-21.15-40.75-36.179
			c9.917-13.583,39.407-3.745,63.475,21.589c3.615,3.796,7.566,17.328,11.776,37.703v0.026
			c-0.697,49.763-6.043,95.936-11.078,118.274c-11.337,50.124-17.096,96.581,10.123,124.73
			c27.218,28.122,22.467,178.547,24.378,198.845c1.911,20.323,23.629,42.661,27.218,54.411
			C730.611,1136.808,721.96,1138.487,721.96,1138.487z"/>
		<path fill="#EEBDBB" d="M646.463,567.507c0,0,33.719,103.776,34.727,160.969c1.008,57.194,11.728,146.71,15.175,151.01
			c0,0,1.699-113.658,0.526-150.673s-2.231-140.6-25.456-166.327C648.21,536.76,646.463,567.507,646.463,567.507z"/>
		<path fill="#EEBDBB" d="M627.83,969.354c-27.377-49.231-16.607-86.655-27.635-102.796
			c-38.539-48.461-32.856-113.234-32.716-136.482c0.258-0.287,0.51-0.58,0.768-0.867c3.098-59.263,45.457-158.65,45.457-158.65
			c-19.179-27.177-149.978-75.789-149.978-75.789c-43.869,7.66-40.101,162.932-29.021,280.971
			c17.619,129.183,56.312,263.885,56.312,263.885c-21.822,3.049-10.746,6.281-9.156,19.499c1.591,13.217-30.596,23.436-18.93,44.849
			c16.982,29.077,72.319,18.274,72.319,18.274c23.991,18.695,33.654-4.033,49.722-6.958c16.067-2.926,6.55-1.257,10.771,7.337
			c4.22,8.594,18.812,11.916,39.669-3.385c13.992-10.265,21.613-41.64,25.118-61.194
			C655.979,1034.833,646.082,1002.177,627.83,969.354z"/>
		<path fill="#EEBDBB" d="M474.931,482.656c0,0-4.621-27.758-17.634-21.648c-13.013,6.11,2.908,15.113-0.017,21.648
			s-11.06,33.92,17.961,34.515c0,0,8.816,55.244,34.578,40.27s30.825-3.732,40.291-12.373c0,0,10.206,18.453,19.922,12.923
			c0,0,13.068,5.35,23.509-0.86s-0.182,24.174,23.578,22.727c0,0,10.967,28.34,30.668,12.117c0,0,6.845,10.869,14.216,4.904
			s-3.223-17.016-3.223-17.016s4.323-0.992,3.874-10.219c0,0,6.063,9.687,14.288,3.367c8.225-6.32,20.508-15.812,10.93-25.982
			c-9.578-10.169-13.912-5.843-13.912-5.843s17.9-15.149,7.404-27.948c-10.496-12.799-22.335-1.478-23.542,12.454
			c0,0-24.882-13.704-44.029-1.698c-19.147,12.005-22.38,17.938-31.779,10.385c-9.399-7.553-20.986-14.662-30.486-12.032
			c0,0-10.683-10.417-25.309-3.833c0,0-9.141-27.92-21.992-23.743C504.227,494.771,495.869,466.387,474.931,482.656z"/>
		<path fill="#EEBDBB" d="M587.754,209.441c-5.468,10.433-44.895,57.492-56.23,69.287c-11.335,11.794-36.009,34.34-17.974,72.379
			c0,0-6.034,6.339-1.235,13.178c0,0-8.038,19.831,1.284,25.345c9.323,5.514,51.712-30.413,64.623-62.921
			c0,0,11.307-12.943,13.611-21.241c0,0,3.574,38.133,14.559,50.6c0,0,26.677,90.11,56.573,68.925
			c5.905-3.548,1.667-21.146,1.667-21.146s7.758,0.524,9.33-14.086c0,0,12.552-13.102,9.102-28.749c0,0,9.964-2.902,3.015-22.281
			c-6.949-19.378-29.986-59.995-36.759-80.815c-6.773-20.82-16.509-55.571-16.509-55.571S617.265,227.664,587.754,209.441z"/>
		<path fill="#F2D2B7" d="M337.79,353.403c-7.465-5.575-16.6-21.111-0.37-38.001c9.232-9.794,21.547-9.762,30.546-15.192
			c8.998-5.429,9.364-11.013,24.181-12.52c14.817-1.507,26.485,5.818,23.474,8.63c-3.011,2.813-18.372,1.702-22.752,3.89
			c-4.38,2.187-18.937,7.741-19.748,12.185c0,0,27.452-8.236,42.976,1.603c5.528,3.639,1.223,5.86-6.454,7.683
			c0,0,1.303,8.963-18.348,12.224c0,0,4.662,7.833-4.135,9.632c-8.797,1.798-15.034,1.548-19.773,5.086
			C362.646,352.16,346.921,357.311,337.79,353.403z"/>
		<path fill="#F2D0CF" d="M538.583,356.949c40.201-48.234,53.177-102.191,56.984-143.566c-2.218-0.88-4.528-2.002-6.939-3.428
			c-5.194,23.211-6,45.37-27.269,49.624c-9.987,1.332-6.26-6.902-3.006-11.788c-10.863,13.09-21.711,25.611-26.83,30.937
			c-11.104,11.554-34.982,33.436-18.996,70.083c8.784-3.925,15.059-6.637,15.558,0.824c-4.056,5.167-11.804,7.314-16.873,12.632
			c0.28,0.665,0.624,1.337,1.101,2.018c0,0-5.553,13.763-2.007,21.542c27.18-10.1,49.978-24.293,57.764-53.494
			C561.075,342.174,543.748,359.531,538.583,356.949z"/>
		<path fill="#F2D0CF" d="M676.2,347.911c-22.547-42.588-47.458-87.621-51.289-137.428c-5.315,3.861-13.286,7.12-23.771,4.684
			c-1.546,31.447-10.782,40.693-9.306,90.3c0,0,2.466,26.255,9.583,42.316c6.871,8.571,19.521,28.617,31.655,31.314
			c13.391,2.857-19.43-41.524-9.045-40.121c20.659,5.165,18.147,23.659,36.503,36.171c15.67,10.68-12.737-29.818-10.154-45.313
			C660.705,332.417,663.288,347.911,676.2,347.911z"/>
		<path fill="#F2D0CF" d="M674.034,541.123c-0.045,0.037-0.073,0.064-0.073,0.064S673.99,541.162,674.034,541.123z"/>
		<path fill="#F2D0CF" d="M482.52,497.69c-5.165,10.33,0,18.077,7.747,28.406c5.165,2.582-2.582,18.077,0,18.077
			c15.494,5.165,30.989-15.494,46.483,0c-1.844-11.064,6.825-16.868,11.945-23.98c-4.105-2.642-12.339-6.242-22.477-1.68
			c0,0-9.141-27.92-21.992-23.743c0,0-8.358-28.385-29.297-12.115c0,0-4.621-27.758-17.634-21.648
			c-13.013,6.11,2.908,15.114-0.017,21.648c-0.35,0.782-0.775,1.87-1.202,3.168C460.625,495.332,472.356,499.723,482.52,497.69z"/>
		<path fill="#F2D0CF" d="M554.827,541.591c10.33,7.747,20.659,2.582,30.989,10.33c3.861-5.148,3.23-10.295,0.669-14.803
			c-1.382-0.536-2.83-1.42-4.47-2.738c-9.249-7.432-20.613-14.415-30.026-12.129C549.044,530.22,548.713,537.516,554.827,541.591z"
			/>
		<path fill="#F2D0CF" d="M674.711,540.509c3.262-3.052,15.849-16.056,6.653-27.27c-10.496-12.799-22.335-1.478-23.542,12.454
			c0,0-24.882-13.704-44.029-1.698c-8.169,5.123-13.433,9.118-17.525,11.447c5.93,10.309,9.886,23.579,25.701,19.061
			c2.582,7.747-7.747,10.33-7.747,15.494c2.582,5.165,15.494,5.165,15.494,2.582c7.747-12.912,7.747-28.406,20.659-18.077
			c10.33,5.165-2.582,15.494-7.747,23.242c5.574,0,12.471-1.312,16.871,1.786c1.208-0.744,3.487-3.057,3.154-9.886
			C662.654,569.645,660.789,554.378,674.711,540.509z"/>
		<path fill="#F2D0CF" d="M614.222,1029.665c-4.623-99.389-67.156-194.64-46.904-291.309c0.076-3.138,0.147-5.929,0.161-8.279
			c0.258-0.287,0.51-0.58,0.768-0.867c2.643-50.553,33.836-130.254,42.953-152.604c-8.196,8.595-19.525,32.461-25.383,32.127
			c-14.08-4.688-11.4-33.362-16.564-28.198c-46.483,49.066-41.665,239.838-53.16,201.218c-7.747-64.56-12.912-136.867,10.33-198.845
			c2.582-7.747,0-15.494-2.582-23.242c-18.077,10.33-23.242,20.659-41.318,5.165c-1.442,6.035-11.413,25.027-16.577,14.698
			c-12.912-15.494,11.413-37.939,1.083-50.851c-6.478-6.478-14.738-14.768-17.279-24.857c-28.859,35.9-24.773,168.26-15.042,271.92
			c12.431,91.143,35.35,185.025,47.771,232.417c5.665-14.322,6.653-31.19,5.209-45.637
			c-12.912-90.384-25.824-180.768-12.912-271.152c25.824,90.384,2.582,183.35,28.406,276.317
			c7.747,23.242,15.494,51.648-5.165,69.725c-1.373,2.746-4.21,2.558-7.339,1.016c0.22,0.776,0.341,1.199,0.341,1.199
			c-21.822,3.049-10.746,6.281-9.156,19.499c1.492,12.399-26.737,22.16-20.609,40.997c17.307,1.268,24.648-17.225,34.18-29.14
			c5.165-2.582,12.912,5.165,12.912,2.582c33.571-49.066-2.582-100.714,0-149.779c33.725,55.405,44.962,142.257,16.976,199.793
			c6.025-0.574,9.931-1.33,9.931-1.33c0.911,0.71,1.794,1.34,2.665,1.934c51.102-56.26,7.202-157.775,32.406-228.803
			c20.659,61.978,25.824,129.12,30.989,196.262C621.969,1078.73,614.222,1050.324,614.222,1029.665z"/>
		<path fill="#F2D2B7" d="M705.61,124.845c0,0-14.143-12.705-33.9,14c-19.756,26.705-22.135,29.031-18.544,42.025
			c3.591,12.995,7.839,29.618,12.087,23.885c2.949-3.687,0.371-8.92,0.371-8.92s6.611,3.246,11.317,2.197
			c4.706-1.049,7.884-5.489,7.45-7.28c0,0,4.458,3.016,8.379-4.299c0,0,6.371-0.871,8.52-7.341c2.149-6.47,0-11.807,0-11.807
			s0.492-5.367,4.32,4.858c3.827,10.225,30.976,79.015,68.633,40.621C782.587,204.277,781.645,153.644,705.61,124.845z
			 M694.276,177.473c-2.412,4.598-2.519,2.448-8.692-2.098c0-2.582-2.362-6.861,0.207-11.198
			C690.278,168.205,690.682,171.873,694.276,177.473z"/>
		<g>
			<circle fill="#FAF1DF" cx="614.741" cy="213.919" r="5.787"/>
			<circle fill="#FAF1DF" cx="625.127" cy="208.445" r="5.787"/>
			<circle fill="#FAF1DF" cx="632.774" cy="199.826" r="5.787"/>
			<circle fill="#FAF1DF" cx="639.656" cy="190.751" r="5.787"/>
			<circle fill="#FAF1DF" cx="645.443" cy="182.071" r="5.787"/>
			<circle fill="#FAF1DF" cx="603.168" cy="213.748" r="5.787"/>
			<circle fill="#FAF1DF" cx="593.54" cy="209.441" r="5.787"/>
			<circle fill="#FAF1DF" cx="584.571" cy="203.654" r="5.787"/>
		</g>
	</g>
	<g>
		<g>
			<path fill="#C56C5B" d="M560.297,121.654c3.502,1.479,9.56-0.202,10.122-4.566c0.102-0.793-0.803-1.19-1.358-0.656
				c-1.104,1.064-1.961,2.202-3.378,2.889c-1.537,0.746-3.32,0.825-4.971,0.479C559.613,119.569,559.35,121.254,560.297,121.654
				L560.297,121.654z"/>
		</g>
		<g>
			<path fill="#C56C5B" d="M555.644,109.193c2.597-1.757,5.565-3.222,8.579-4.131c2.763-0.833,5.581-0.884,8.404-1.388
				c0.836-0.149,0.978-1.311,0.088-1.523c-6.332-1.512-13.247,1.813-17.711,6.117C554.563,108.692,555.09,109.567,555.644,109.193
				L555.644,109.193z"/>
		</g>
		<g>
			<path fill="#C56C5B" d="M542.811,121.85c-0.58-1.449,0.505-3.317,1.361-4.464c0.272-0.364-0.074-0.936-0.508-0.919
				c-1.359,0.053-2.328,0.946-2.738,2.225c-0.453,1.414-0.016,2.696,0.992,3.759C542.355,122.91,543.037,122.414,542.811,121.85
				L542.811,121.85z"/>
		</g>
	</g>
	<g>
		<g>
			<path fill="#D36C5A" d="M573.557,150.529c-6.267,0.041-15.229,2.018-19.78,6.746c-0.777,0.807,0.068,2.281,1.158,1.693
				c5.984-3.231,11.59-6.553,18.656-7.077C574.461,151.826,574.441,150.523,573.557,150.529L573.557,150.529z"/>
		</g>
		<g>
			<path fill="#D36C5A" d="M554.394,158.386c2.244-1.962,4.275-3.478,7.308-3.874c2.069-0.27,4.016-0.221,5.77-1.462
				c0.596-0.421,0.361-1.508-0.404-1.561c-2.73-0.187-6.065,0.251-8.643,1.235c-2.538,0.969-3.69,2.749-4.787,5.129
				C553.437,158.29,554.052,158.685,554.394,158.386L554.394,158.386z"/>
		</g>
	</g>
	<g>
		<g>
			<path fill="#D58C77" d="M547.357,120.693c-2.28,4.274-3.545,9.287-4.755,13.954c-0.191,0.737,0.981,1.225,1.285,0.488
				c1.843-4.471,3.849-9.308,4.567-14.118C548.542,120.432,547.622,120.197,547.357,120.693L547.357,120.693z"/>
		</g>
		<g>
			<path fill="#D58C77" d="M618.38,130.963c7.261,0.687,15.797-6.269,14.097-14.099c-0.12-0.554-0.899-0.505-0.974,0.049
				c-0.931,6.895-5.596,12.643-13.025,12.552C617.631,129.455,617.522,130.882,618.38,130.963L618.38,130.963z"/>
		</g>
		<g>
			<path fill="#D58C77" d="M619.589,132.058c1.53,14.268-4.119,25.639-14.87,34.752c-0.557,0.472,0.133,1.336,0.747,1.003
				c12.429-6.738,18.739-22.405,15.942-36.037C621.17,130.615,619.462,130.875,619.589,132.058L619.589,132.058z"/>
		</g>
		<g>
			<path fill="#D58C77" d="M691.533,268.66c1.419-9.944,11.569-14.432,20.569-12.272c0.696,0.167,1.127-0.812,0.485-1.179
				c-9.545-5.445-21.392,3.357-22.371,13.302C690.143,269.257,691.426,269.411,691.533,268.66L691.533,268.66z"/>
		</g>
		<g>
			<path fill="#D6928F" d="M520.804,289.143c-4.402-1.157-9.086-2.323-13.641-2.528c-0.758-0.034-0.971,1.187-0.284,1.458
				c4.187,1.648,8.895,2.51,13.335,3.236C521.607,291.536,522.231,289.518,520.804,289.143L520.804,289.143z"/>
		</g>
		<g>
			<path fill="#D6928F" d="M552.158,466.143c1.864-3.891,2.196-8.305,1.277-12.487c-0.257-1.171-1.886-0.894-1.82,0.282
				c0.228,4.036-0.354,7.849-1.229,11.77C550.147,466.778,551.737,467.02,552.158,466.143L552.158,466.143z"/>
		</g>
		<g>
			<path fill="#D6928F" d="M690.685,151.111c4.684,3.445,7.778,8.228,9.766,13.641c0.278,0.756,1.376,0.492,1.221-0.316
				c-1.185-6.147-5.01-11.035-10.167-14.459C690.849,149.541,690.043,150.639,690.685,151.111L690.685,151.111z"/>
		</g>
		<g>
			<path fill="#D6928F" d="M711.989,188.709c2.799,9.773,8.052,18.682,16.564,24.541c0.794,0.547,1.685-0.396,1.012-1.125
				c-6.591-7.14-12.442-14.798-16.225-23.825C712.996,187.477,711.733,187.816,711.989,188.709L711.989,188.709z"/>
		</g>
		<g>
			<path fill="#D6928F" d="M684.771,162.085c-2.194,2.232-4.614,4.092-7.465,5.42c-2.924,1.362-6.11,1.876-9.061,3.115
				c-0.589,0.247-0.273,1.071,0.265,1.116c6.319,0.523,12.862-4.521,16.912-8.88C685.856,162.389,685.231,161.617,684.771,162.085
				L684.771,162.085z"/>
		</g>
		<g>
			<path fill="#D6928F" d="M661.157,177.868c-0.151,6.189,0.456,13.149,4.257,18.286c0.415,0.561,1.422,0.269,1.2-0.501
				c-1.718-5.975-4.021-11.42-4.323-17.743C662.257,177.192,661.175,177.125,661.157,177.868L661.157,177.868z"/>
		</g>
		<g>
			<path fill="#D6928F" d="M656.15,193.315c0.562,2.351,1.189,4.691,2.376,6.814c0.799,1.428,1.937,3.78,3.708,4
				c0.316,0.039,0.507-0.243,0.493-0.523c-0.085-1.66-2.117-3.235-2.928-4.693c-1.044-1.876-1.774-3.876-2.429-5.914
				C657.124,192.23,655.96,192.519,656.15,193.315L656.15,193.315z"/>
		</g>
		<g>
			<path fill="#D6928F" d="M662.992,204.263c5.228,0.752,5.743-6.475,3.335-9.499c-0.32-0.402-1-0.11-1.007,0.375
				c-0.038,2.376,1.827,7.346-2.248,7.575C662.197,202.763,662.106,204.135,662.992,204.263L662.992,204.263z"/>
		</g>
		<g>
			<path fill="#D6928F" d="M666.37,196.719c3.743,1.543,7.381,2.349,11.347,1.117c0.463-0.144,0.245-0.919-0.229-0.819
				c-3.573,0.751-7.526,0.913-10.882-0.773C666.299,196.091,666.056,196.59,666.37,196.719L666.37,196.719z"/>
		</g>
		<g>
			<path fill="#D6928F" d="M683.986,193.068c0.718-1.338,0.977-2.536,0.765-4.05c-0.039-0.278-0.213-0.572-0.49-0.673
				c-3.113-1.137-8.866-2.425-9.57,2.331c-0.088,0.594,0.726,1.245,1.175,0.639c1.96-2.645,5.137-2.167,7.927-1.38
				c-0.235-0.245-0.47-0.491-0.705-0.736c0.264,1.193,0.336,2.46,0.072,3.665C683.048,193.38,683.778,193.457,683.986,193.068
				L683.986,193.068z"/>
		</g>
		<g>
			<path fill="#D6928F" d="M674.128,188.48c-0.912-0.99-2.245-1.371-3.091-2.46c-0.825-1.061-1.241-2.319-1.466-3.628
				c-0.052-0.304-0.488-0.428-0.625-0.106c-0.762,1.785-0.114,3.733,1.173,5.124c0.942,1.018,2.586,2.189,3.976,1.33
				C674.187,188.68,674.202,188.56,674.128,188.48L674.128,188.48z"/>
		</g>
		<g>
			<path fill="#D6928F" d="M691.805,187.429c0.472-2.496,1.411-5.161,0.332-7.635c-0.793-1.817-2.4-3.045-4.428-2.92
				c-1.817,0.112-3.051,1.601-3.872,3.113c-1.161,2.137-2.058,4.841-2.395,7.246c-0.092,0.659,0.72,1.108,1.126,0.482
				c0.975-1.505,1.676-3.258,2.372-4.91c0.525-1.246,0.998-2.701,2.123-3.551c1.962-1.483,3.615,0.517,3.973,2.429
				c0.35,1.868-0.05,3.855-0.005,5.743C691.04,187.889,691.726,187.843,691.805,187.429L691.805,187.429z"/>
		</g>
		<g>
			<path fill="#D6928F" d="M701.744,170.155c-1.09-1.902-3.35-2.041-4.951-0.626c-1.238,1.094-1.951,2.716-2.672,4.163
				c-0.984,1.976-2.07,4.026-2.276,6.251c-0.058,0.622,0.812,0.85,1.193,0.46c1.512-1.551,2.387-3.623,3.256-5.58
				c0.353-0.795,0.653-1.619,1.033-2.401c0.527-1.086,2.519-3.439,3.791-1.799C701.434,171.031,701.988,170.58,701.744,170.155
				L701.744,170.155z"/>
		</g>
		<g>
			<path fill="#D6928F" d="M669.412,171.877c0.152,3.906-0.719,7.712-0.718,11.572c0,0.439,0.587,0.394,0.749,0.101
				c1.9-3.427,1.671-8.037,1.09-11.775C670.435,171.145,669.387,171.23,669.412,171.877L669.412,171.877z"/>
		</g>
		<g>
			<path fill="#D6928F" d="M663.394,176.995c1.677-1.137,3.74-3.002,3.842-5.166c0.033-0.69-0.879-0.861-1.293-0.458
				c-0.648,0.631-1.022,1.504-1.516,2.258c-0.542,0.828-1.14,1.612-1.802,2.348C662.166,176.488,662.757,177.426,663.394,176.995
				L663.394,176.995z"/>
		</g>
		<g>
			<path fill="#D6928F" d="M676.588,169.445c0.266,3.164,0.059,6.394,0.45,9.537c0.077,0.619,0.896,0.457,0.999-0.057
				c0.629-3.137-0.039-6.58-0.767-9.641C677.175,168.884,676.556,169.059,676.588,169.445L676.588,169.445z"/>
		</g>
		<g>
			<path fill="#D6928F" d="M677.066,178.838c-0.18,1.167-0.218,2.093,0.388,3.149c0.519,0.906,1.354,1.898,2.455,2.01
				c0.524,0.053,1.141-0.494,0.751-1.035c-0.999-1.383-2.434-2.307-2.768-4.132C677.807,178.366,677.14,178.364,677.066,178.838
				L677.066,178.838z"/>
		</g>
		<g>
			<path fill="#D6928F" d="M675.622,181.646c0.496-0.176,0.987-0.353,1.473-0.555c0.297-0.123,0.166-0.567-0.152-0.481
				c-0.512,0.139-1.015,0.299-1.519,0.464C675.054,181.195,675.255,181.776,675.622,181.646L675.622,181.646z"/>
		</g>
		<g>
			<path fill="#D6928F" d="M676.645,164.241c6.089-1.426,11.913-6.525,13.292-12.799c0.108-0.492-0.638-0.63-0.826-0.204
				c-2.618,5.95-6.353,10.209-12.652,12.453C676.101,163.819,676.288,164.324,676.645,164.241L676.645,164.241z"/>
		</g>
		<g>
			<path fill="#D6928F" d="M675.186,164.994c-1.197,1.121-2.836,2.248-3.564,3.741c-0.166,0.342,0.26,0.721,0.587,0.563
				c1.463-0.709,2.574-2.332,3.671-3.504C676.337,165.306,675.692,164.52,675.186,164.994L675.186,164.994z"/>
		</g>
		<g>
			<path fill="#D6928F" d="M686.606,163.355c0.875-0.153,1.759-0.247,2.59-0.565c0.491-0.188,0.223-0.83-0.229-0.819
				c-0.855,0.02-1.682,0.276-2.514,0.464C685.871,162.566,686.009,163.459,686.606,163.355L686.606,163.355z"/>
		</g>
		<g>
			<path fill="#D6928F" d="M374.479,311.138c-2.867,0.412-6.178,0.994-8.79,2.251c-0.577,0.277-0.31,1.239,0.32,1.202
				c2.939-0.172,6.133-1.328,8.854-2.395C375.498,311.947,375.076,311.052,374.479,311.138L374.479,311.138z"/>
		</g>
		<g>
			<path fill="#D6928F" d="M370.877,346.395c6.675,0.344,18.457,1.171,21.603-6.444c0.474-1.147-1.171-1.742-1.847-0.888
				c-4.423,5.584-13.172,5.719-19.707,6.224C370.234,345.34,370.142,346.357,370.877,346.395L370.877,346.395z"/>
		</g>
		<g>
			<path fill="#D6928F" d="M370.804,345.198c-0.84-0.324-1.593-0.843-2.372-1.287c-0.504-0.288-0.997,0.27-0.67,0.742
				c0.681,0.986,1.598,1.455,2.719,1.816C371.297,346.732,371.573,345.495,370.804,345.198L370.804,345.198z"/>
		</g>
		<g>
			<path fill="#D6928F" d="M371.732,345.487c-1.798-0.591-4.132,1.428-5.286,2.569c-0.7,0.692-0.13,2.103,0.933,1.798
				c1.697-0.487,4.535-1.5,4.949-3.478C372.419,345.941,372.117,345.614,371.732,345.487L371.732,345.487z"/>
		</g>
		<g>
			<path fill="#D58C77" d="M370.105,346.514c-2.921,4.452-6.667,7.032-11.215,9.617c-0.484,0.275-0.357,1.147,0.265,1.116
				c5.634-0.282,10.514-5.084,12.129-10.248C371.509,346.28,370.489,345.93,370.105,346.514L370.105,346.514z"/>
		</g>
		<g>
			<path fill="#D6928F" d="M369.148,336.009c2.891-2.467,7.816-1.538,11.269-1.509c2.88,0.024,5.752,0.043,8.607-0.384
				c0.787-0.118,1.009-1.389,0.097-1.498c-4.433-0.529-8.97-0.165-13.417,0.041c-2.898,0.134-5.369,0.361-7.275,2.692
				C368.074,335.785,368.733,336.363,369.148,336.009L369.148,336.009z"/>
		</g>
		<g>
			<path fill="#D6928F" d="M370.281,332.766c-1.182-0.277-2.398-0.102-3.604-0.082c-1.299,0.022-2.551,0.147-3.838,0.322
				c-0.642,0.087-0.501,0.919-0.036,1.121c2.247,0.974,5.35,1.556,7.691,0.631C371.371,334.412,371.144,332.969,370.281,332.766
				L370.281,332.766z"/>
		</g>
		<g>
			<path fill="#D6928F" d="M365.28,323.475c6.938-0.058,14.432-0.042,21.17-1.859c0.714-0.192,0.572-1.306-0.18-1.288
				c-6.992,0.168-14.056,1.599-21.038,2.173C364.679,322.546,364.721,323.48,365.28,323.475L365.28,323.475z"/>
		</g>
		<g>
			<path fill="#D6928F" d="M387.363,321.993c3.554,0.063,7.127,0.204,10.677,0.385c3.518,0.179,7.146,1.002,10.655,0.611
				c0.742-0.083,1.035-1.202,0.273-1.509c-6.323-2.547-15.124-1.756-21.715-1.021C386.255,320.569,386.381,321.976,387.363,321.993
				L387.363,321.993z"/>
		</g>
		<g>
			<path fill="#D6928F" d="M592.075,842.445c2.894,8.828,8.162,17.777,15.463,23.684c0.486,0.393,0.991-0.323,0.682-0.765
				c-5.404-7.724-10.623-15.034-14.867-23.494C592.99,841.148,591.829,841.693,592.075,842.445L592.075,842.445z"/>
		</g>
		<g>
			<path fill="#D6928F" d="M589.857,832.802c-0.806-3.52-1.492-7.078-2.072-10.641c-0.121-0.746-1.24-0.532-1.265,0.168
				c-0.134,3.794,0.496,7.361,2.007,10.867C588.875,834.002,590.061,833.692,589.857,832.802L589.857,832.802z"/>
		</g>
		<g>
			<path fill="#D6928F" d="M678.974,1127.784c1.159,2.89,2.604,5.458,4.799,7.709c2.394,2.455,11.437,6.79,6.859,10.903
				c-0.489,0.439,0.015,1.238,0.617,1.08c3.782-0.99,3.118-5.568,0.996-7.899c-1.855-2.038-4.459-3.277-6.473-5.156
				c-2.25-2.1-4.185-4.569-5.715-7.234C679.649,1126.478,678.686,1127.066,678.974,1127.784L678.974,1127.784z"/>
		</g>
		<g>
			<path fill="#D6928F" d="M694.365,1130.645c2.512,1.82,4.62,4.012,6.288,6.632c1.296,2.035,2.059,4.321,3.322,6.363
				c0.286,0.462,1.099,0.368,1.094-0.252c-0.049-5.721-5.184-11.11-9.627-14.079
				C694.536,1128.704,693.462,1129.991,694.365,1130.645L694.365,1130.645z"/>
		</g>
		<g>
			<path fill="#D6928F" d="M704.709,1127.751c2.809,1.786,5.076,4.269,6.582,7.246c1.22,2.411,1.211,5.072,2.229,7.476
				c0.204,0.481,0.932,0.353,1.07-0.103c0.836-2.772-0.729-6.405-2.078-8.813c-1.68-2.998-4.178-5.325-7.141-7.024
				C704.59,1126.084,703.963,1127.276,704.709,1127.751L704.709,1127.751z"/>
		</g>
		<g>
			<path fill="#D6928F" d="M712.624,1126.144c1.925,1.615,3.665,3.413,5.272,5.346c1.314,1.581,2.32,3.557,3.847,4.933
				c0.413,0.372,1.124,0.08,0.993-0.523c-0.98-4.483-5.75-8.332-9.315-10.813C712.808,1124.659,712.048,1125.661,712.624,1126.144
				L712.624,1126.144z"/>
		</g>
	</g>
	<g>
		<g>
			<path fill="#E9A69A" d="M623.732,215.939c0.056,17.94,5.746,36.111,15.425,51.177c0.526,0.818,1.694,0.029,1.252-0.805
				c-8.613-16.228-13.208-32.271-15.118-50.495C625.185,214.805,623.729,214.94,623.732,215.939L623.732,215.939z"/>
		</g>
		<g>
			<path fill="#E9A69A" d="M684.02,358.529c-5.871-9.961-11.677-19.683-16.923-30.001c-0.312-0.613-1.38-0.221-1.141,0.449
				c3.853,10.786,9.567,21.653,16.962,30.457C683.457,360.076,684.418,359.204,684.02,358.529L684.02,358.529z"/>
		</g>
		<g>
			<path fill="#E9A69A" d="M672.681,385.784c-3.253-5.732-6.69-11.31-9.52-17.275c-0.317-0.668-1.288-0.145-1.009,0.52
				c2.57,6.112,5.527,12.156,9.556,17.459C672.127,387.039,673.013,386.37,672.681,385.784L672.681,385.784z"/>
		</g>
		<g>
			<path fill="#E9A69A" d="M663.75,402.631c-5.901-5.868-10.839-12.698-14.413-20.22c-0.349-0.736-1.367-0.121-1.083,0.596
				c3.187,8.05,7.971,14.885,14.578,20.526C663.452,404.062,664.345,403.223,663.75,402.631L663.75,402.631z"/>
		</g>
		<g>
			<path fill="#E9A69A" d="M603.593,352.612c9.624,15.901,19.716,32.995,36.607,42.137c0.763,0.413,1.571-0.765,0.855-1.292
				c-15.264-11.246-26.086-25.659-36.492-41.328C604.186,351.56,603.226,352.006,603.593,352.612L603.593,352.612z"/>
		</g>
		<g>
			<path fill="#E9A69A" d="M666.758,404.667c-3.061-1.455-6.453-2.23-9.638-3.398c-3.2-1.174-6.241-2.623-9.34-4.032
				c-0.48-0.218-0.866,0.527-0.432,0.818c5.363,3.588,12.536,7.269,19.084,7.658C666.96,405.744,667.282,404.916,666.758,404.667
				L666.758,404.667z"/>
		</g>
		<g>
			<path fill="#E9A69A" d="M605.101,220.846c-3.007,19.073-2.781,38.109,1.547,56.952c0.107,0.464,0.836,0.4,0.751-0.089
				c-3.305-18.989-4.018-37.671-1.292-56.791C606.199,220.272,605.201,220.209,605.101,220.846L605.101,220.846z"/>
		</g>
		<g>
			<path fill="#E9A69A" d="M514.49,391.085c13.224,1.236,26.68-10.39,35.431-19.019c0.525-0.518-0.187-1.5-0.813-1.047
				c-5.511,3.991-10.692,8.433-16.55,11.935c-5.863,3.505-11.795,4.961-18.18,6.986C513.751,390.139,513.817,391.022,514.49,391.085
				L514.49,391.085z"/>
		</g>
		<g>
			<path fill="#E9A69A" d="M591.411,311.171c-10.302,15.35-20.051,30.214-32.246,44.236c-0.538,0.619,0.29,1.489,0.902,0.917
				c13.102-12.243,25.504-27.94,32.162-44.721C592.422,311.117,591.706,310.732,591.411,311.171L591.411,311.171z"/>
		</g>
		<g>
			<path fill="#E9A69A" d="M597.166,217.743c-3.268,17.476-6.356,34.79-11.134,51.946c-0.191,0.685,0.847,1.018,1.059,0.332
				c5.245-16.95,9.658-34.414,11.34-52.118C598.5,217.183,597.3,217.027,597.166,217.743L597.166,217.743z"/>
		</g>
		<g>
			<path fill="#E9A69A" d="M590.116,289.581c-7.26,13.745-15.897,26.423-25.108,38.908c-0.41,0.556,0.502,1.29,0.958,0.764
				c10.183-11.763,18.363-25.122,25.264-39.027C591.594,289.491,590.505,288.844,590.116,289.581L590.116,289.581z"/>
		</g>
		<g>
			<path fill="#E9A69A" d="M512.612,365.666c5.576,0.287,11.929-2.162,16.281-5.536c0.52-0.403-0.08-1.205-0.641-0.925
				c-2.52,1.256-4.974,2.518-7.661,3.385c-2.679,0.865-5.422,1.194-8.159,1.788C511.672,364.542,511.899,365.629,512.612,365.666
				L512.612,365.666z"/>
		</g>
		<g>
			<path fill="#E9A69A" d="M516.892,349.809c7.48-2.733,14.943-6.396,21.002-11.641c0.463-0.401-0.082-1.256-0.621-0.909
				c-6.741,4.338-13.191,8.36-20.728,11.285C515.77,348.846,516.093,350.101,516.892,349.809L516.892,349.809z"/>
		</g>
		<g>
			<path fill="#E9A69A" d="M612.763,221.959c0.163,4.673,0.762,9.282,1.267,13.926c0.099,0.911,1.49,0.869,1.436-0.065
				c-0.27-4.694-0.424-9.372-1.048-14.038C614.276,220.711,612.726,220.894,612.763,221.959L612.763,221.959z"/>
		</g>
		<g>
			<path fill="#E9A69A" d="M632.043,206.019c3.113,18.398,9.051,36.819,16.179,54.042c0.255,0.617,1.313,0.223,1.1-0.416
				c-5.971-17.869-10.933-35.836-16.036-53.958C633.058,204.877,631.907,205.216,632.043,206.019L632.043,206.019z"/>
		</g>
		<g>
			<path fill="#E9A69A" d="M648.957,262.173c15.113,27.995,27.84,56.639,40.401,85.816c0.281,0.653,1.398,0.209,1.161-0.466
				c-10.464-29.734-24.825-58.606-40.515-85.908C649.624,260.954,648.594,261.5,648.957,262.173L648.957,262.173z"/>
		</g>
		<g>
			<path fill="#E9A69A" d="M516.627,295.885c4.707-5.326,10.031-9.849,15.179-14.714c0.503-0.475-0.148-1.193-0.695-0.8
				c-5.735,4.125-10.554,9.625-14.921,15.133C515.958,295.796,516.378,296.167,516.627,295.885L516.627,295.885z"/>
		</g>
	</g>
	<g>
		<g>
			<path fill="#E79E90" d="M478.833,518.283c-1.319-3.325-5.948-3.902-9.087-4.62c-5.501-1.258-14.193-3.45-13.196-10.893
				c0.143-1.07-1.587-1.471-1.881-0.407c-1.412,5.112,1.9,9.203,6.363,11.429c2.584,1.289,5.449,1.738,8.24,2.356
				c3.067,0.679,6.051,2.57,9.128,2.708C478.709,518.869,478.954,518.588,478.833,518.283L478.833,518.283z"/>
		</g>
		<g>
			<path fill="#E79E90" d="M475.654,517.851c1.182,13.001,2.896,33.622,14.404,41.781c3.34,2.368,5.715,2.375,9.603,1.589
				c4.239-0.857,8.252-3.594,12.542-4.704c5.731-1.484,11.589-1.824,17.469-2.129c0.863-0.045,0.978-1.471,0.079-1.549
				c-4.937-0.424-9.749-0.207-14.611,0.761c-6.802,1.354-12.224,4.643-19.137,3.958c-7.236-0.717-9.208-5.032-11.934-11.536
				c-1.146-2.734-1.842-5.73-2.614-8.581c-1.755-6.482-3.073-13.104-4.242-19.714C477.041,516.757,475.561,516.828,475.654,517.851
				L475.654,517.851z"/>
		</g>
		<g>
			<path fill="#E79E90" d="M532.615,551.963c6.059,0.484,12.069-0.296,17.526-3.071c1.163-0.591,0.293-2.335-0.892-1.809
				c-5.356,2.375-10.742,3.814-16.63,3.619C531.8,550.675,531.814,551.899,532.615,551.963L532.615,551.963z"/>
		</g>
		<g>
			<path fill="#E79E90" d="M549.451,546.764c0.534,1.202,0.762,2.368,1.494,3.516c0.773,1.214,1.732,2.381,2.736,3.407
				c1.945,1.986,4.194,3.554,6.846,4.414c0.524,0.17,1.018-0.551,0.593-0.948c-1.896-1.773-3.943-3.371-5.805-5.18
				c-1.747-1.697-3.834-3.58-5.286-5.506C549.815,546.182,549.294,546.41,549.451,546.764L549.451,546.764z"/>
		</g>
		<g>
			<path fill="#E79E90" d="M576.492,559.867c6.578,1.593,13.916,0.203,19.035-4.347c-0.625-0.169-1.25-0.339-1.874-0.508
				c1.472,4.154,2.706,8.488,4.881,12.337c0.398,0.704,1.639,0.237,1.486-0.553c-0.825-4.279-2.651-8.312-4.197-12.372
				c-0.299-0.785-1.213-1.122-1.874-0.508c-4.906,4.554-10.608,6.539-17.254,5.099C576.213,558.911,576.005,559.749,576.492,559.867
				L576.492,559.867z"/>
		</g>
		<g>
			<path fill="#E79E90" d="M660.629,571.058c0.339,1.388,0.167,3.277-0.419,4.57c-0.737,1.624-2.136,2.173-3.306,3.363
				c-0.394,0.401-0.145,1.168,0.416,1.249c2.166,0.31,4.033-1.898,4.849-3.662c0.987-2.132,0.969-4.111-0.3-6.057
				C661.444,569.87,660.444,570.299,660.629,571.058L660.629,571.058z"/>
		</g>
		<g>
			<path fill="#E79E90" d="M661.749,572.45c3.29,2.923,7.8,4.232,12.065,3.029c0.758-0.214,0.664-1.55-0.155-1.578
				c-3.915-0.13-7.257-0.834-10.576-2.975C662.151,570.324,660.855,571.656,661.749,572.45L661.749,572.45z"/>
		</g>
		<g>
			<path fill="#E79E90" d="M473.934,516.692c-4.28,9.642-6.201,21.293-6.648,31.763c-0.034,0.801,1.245,0.909,1.395,0.129
				c2.03-10.605,4.889-20.793,7.334-31.279C476.339,515.909,474.488,515.444,473.934,516.692L473.934,516.692z"/>
		</g>
		<g>
			<path fill="#E79E90" d="M470.83,516.362c-3.956,2.429-7.684,7.231-7.405,12.137c0.039,0.684,1.143,1.018,1.406,0.294
				c0.781-2.152,1.144-4.302,2.377-6.287c1.195-1.924,2.662-3.673,4.413-5.111C472.199,516.919,471.454,515.979,470.83,516.362
				L470.83,516.362z"/>
		</g>
		<g>
			<path fill="#E79E90" d="M500.766,491.361c-10.835-6.404-23.672,10.418-25.534,19.565c-0.157,0.772,0.958,1.099,1.191,0.329
				c2.469-8.145,13.733-23.083,23.685-18.702C500.899,492.901,501.532,491.814,500.766,491.361L500.766,491.361z"/>
		</g>
		<g>
			<path fill="#E79E90" d="M472.488,477.367c-2.452,0.567-4.618-0.138-6.191-2.15c-1.525-1.951-1.887-4.312-2.84-6.525
				c-0.252-0.585-1.209-0.3-1.181,0.306c0.143,3.037,1.276,6.774,3.649,8.816c1.993,1.716,4.806,2.526,7.154,1.077
				C473.773,478.463,473.311,477.177,472.488,477.367L472.488,477.367z"/>
		</g>
		<g>
			<path fill="#E79E90" d="M525.824,516.846c-4.552,3.797-6.124,10.641-5.092,16.284c0.183,0.999,1.601,0.899,1.583-0.136
				c-0.102-5.873,1.975-10.167,4.777-15.121C527.503,517.145,526.449,516.325,525.824,516.846L525.824,516.846z"/>
		</g>
		<g>
			<path fill="#E79E90" d="M525.58,516.063c-9.697-1.546-17.298,5.933-22.028,13.58c-0.423,0.684,0.599,1.394,1.135,0.819
				c5.839-6.261,10.972-13.987,20.723-13.186C526.097,517.334,526.276,516.174,525.58,516.063L525.58,516.063z"/>
		</g>
		<g>
			<path fill="#E79E90" d="M549.246,521.924c3.059,7.747-2.96,17.712,3.659,24.247c0.568,0.561,1.52-0.205,1.088-0.882
				c-4.708-7.384,0.365-16.246-3.451-23.959C550.183,520.603,548.947,521.167,549.246,521.924L549.246,521.924z"/>
		</g>
		<g>
			<path fill="#E79E90" d="M595.008,551.113c0.839-4.862-0.77-11.521-5.638-13.763c-0.433-0.199-0.796,0.392-0.523,0.732
				c3.223,4.023,5.833,7.494,5.155,12.959C593.921,551.694,594.9,551.743,595.008,551.113L595.008,551.113z"/>
		</g>
		<g>
			<path fill="#E79E90" d="M655.166,529.205c1.561,11.422,4.474,22.431-5.093,31.373c-0.371,0.346,0.011,1.102,0.503,0.806
				c11.105-6.682,9.429-21.959,5.833-32.511C656.136,528.072,655.056,528.397,655.166,529.205L655.166,529.205z"/>
		</g>
		<g>
			<path fill="#E79E90" d="M598.917,569.225c2.365,4.396,6.961,8.602,12.223,8.621c0.543,0.002,0.745-0.752,0.201-0.954
				c-4.706-1.75-8.769-3.665-11.473-8.133C599.52,568.184,598.59,568.617,598.917,569.225L598.917,569.225z"/>
		</g>
		<g>
			<path fill="#E79E90" d="M632.135,582.388c-0.754-9.199,2.448-17.224,8.222-24.292c0.359-0.439-0.332-1.061-0.742-0.67
				c-6.767,6.457-9.361,15.897-8.158,25.028C631.514,582.888,632.17,582.827,632.135,582.388L632.135,582.388z"/>
		</g>
		<g>
			<path fill="#E79E90" d="M658.038,579.988c12.047,20.977,20.398,42.824,25.415,66.467c0.124,0.585,1.023,0.442,0.92-0.153
				c-4.106-23.756-12.679-46.288-25.423-66.745C658.613,579.016,657.711,579.418,658.038,579.988L658.038,579.988z"/>
		</g>
		<g>
			<path fill="#E79E90" d="M662.361,572.595c11.49,13.998,20.13,29.666,26.252,46.708c0.207,0.576,1.022,0.177,0.852-0.382
				c-5.359-17.603-14.232-33.197-26.236-47.134C662.728,571.206,661.881,572.01,662.361,572.595L662.361,572.595z"/>
		</g>
		<g>
			<path fill="#E79E90" d="M606.674,578.841c-8.73,15.822-16.475,32.366-22.347,49.476c-0.212,0.617,0.71,0.927,0.954,0.328
				c6.845-16.806,13.965-33.308,22.192-49.492C607.726,578.656,606.935,578.369,606.674,578.841L606.674,578.841z"/>
		</g>
		<g>
			<path fill="#E79E90" d="M583.137,559.532c-3.063,8.435-6.245,16.839-8.904,25.413c-0.167,0.538,0.608,0.847,0.825,0.315
				c3.397-8.353,6.294-16.901,9.297-25.4C584.625,559.094,583.412,558.774,583.137,559.532L583.137,559.532z"/>
		</g>
		<g>
			<path fill="#E79E90" d="M585.333,559.111c-0.583,6.637-0.437,13.285-0.44,19.936c0,0.642,0.966,0.728,1.006,0.072
				c0.415-6.681,0.974-13.349,0.82-20.051C586.699,558.152,585.409,558.244,585.333,559.111L585.333,559.111z"/>
		</g>
		<g>
			<path fill="#E79E90" d="M547.496,548.927c-9.209,18.967-13.875,39.919-16.772,60.712c-0.133,0.958,1.279,1.254,1.485,0.293
				c4.392-20.535,7.826-41.205,16.19-60.68C548.644,548.677,547.76,548.382,547.496,548.927L547.496,548.927z"/>
		</g>
		<g>
			<path fill="#E79E90" d="M529.72,622.362c-6.555,40.5-11.006,81.576-12.17,122.601c-0.013,0.46,0.693,0.583,0.724,0.106
				c2.628-41.067,6.29-81.851,12.118-122.6C530.455,622.038,529.791,621.928,529.72,622.362L529.72,622.362z"/>
		</g>
		<g>
			<path fill="#E79E90" d="M549.273,548.328c-4.799,18.487-8.678,37.143-11.302,56.063c-0.093,0.672,1.063,0.85,1.188,0.175
				c3.468-18.756,7.248-37.422,11.706-55.97C551.109,547.582,549.532,547.33,549.273,548.328L549.273,548.328z"/>
		</g>
		<g>
			<path fill="#E79E90" d="M482.838,550.958c-6.001,27.893-10.113,56.218-10.767,84.773c-0.019,0.836,1.225,0.812,1.286-0.005
				c2.125-28.38,5.16-56.495,10.672-84.439C484.182,550.515,483.007,550.174,482.838,550.958L482.838,550.958z"/>
		</g>
		<g>
			<path fill="#E79E90" d="M657.493,526.394c1.041-2.371,2.206-4.671,3.432-6.951c1.443-2.683,3.007-6.17,6.271-6.989
				c0.664-0.167,0.56-1.181-0.134-1.193c-6.503-0.115-9.027,9.986-10.655,14.801C656.168,526.769,657.207,527.046,657.493,526.394
				L657.493,526.394z"/>
		</g>
		<g>
			<path fill="#E79E90" d="M636.65,519.486c-3.789-1.034-7.631-0.493-10.935,1.641c-0.454,0.293-0.452,1.022,0.055,1.266
				c2.957,1.424,5.555,3.425,7.832,5.782c0.538,0.557,1.333-0.215,0.868-0.808c-2.171-2.769-4.852-4.777-8.028-6.272
				c0.018,0.422,0.037,0.844,0.055,1.266c2.953-1.945,6.361-2.64,9.823-1.869C636.972,520.638,637.319,519.669,636.65,519.486
				L636.65,519.486z"/>
		</g>
		<g>
			<path fill="#E79E90" d="M618.475,524.164c2.881,4.067,3.441,8.271,3.282,13.106c-0.027,0.832,1.187,0.868,1.395,0.129
				c1.379-4.902-0.341-10.239-3.335-14.177C619.179,522.383,617.863,523.3,618.475,524.164L618.475,524.164z"/>
		</g>
		<g>
			<path fill="#E27D6B" d="M692.429,870.935c-0.547,32.891,18.311,61.818,7.354,94.88c-0.232,0.701,0.866,1.14,1.205,0.486
				c15.48-29.874-5.961-64.637-7.273-95.371C693.68,870.105,692.443,870.103,692.429,870.935L692.429,870.935z"/>
		</g>
		<g>
			<path fill="#E27D6B" d="M673.169,865.577c-1.246-42.256-1.382-84.301-1.16-126.569c0.004-0.8-1.185-0.803-1.236-0.012
				c-2.669,41.918-2.138,84.756,0.959,126.645C671.8,866.563,673.196,866.506,673.169,865.577L673.169,865.577z"/>
		</g>
		<g>
			<path fill="#E79E90" d="M492.169,1039.271c21.148-3.774,18.554-32.601,15.95-48.413c-4.495-27.295-16.255-52.483-16.591-80.539
				c-0.009-0.727-1.096-0.777-1.134-0.042c-0.994,19.241,4.737,37.38,9.876,55.668c4.975,17.703,20.117,66.784-8.51,71.973
				C490.864,1038.082,491.284,1039.429,492.169,1039.271L492.169,1039.271z"/>
		</g>
		<g>
			<path fill="#E79E90" d="M490.634,900.99c0.042-23.985-0.419-48.064-1.486-72.026c-0.04-0.91-1.414-0.855-1.411,0.054
				c0.06,23.949,0.701,47.986,1.865,71.906C489.634,901.572,490.633,901.668,490.634,900.99L490.634,900.99z"/>
		</g>
		<g>
			<path fill="#E79E90" d="M598.824,1110.505c9.043-6.961,15.516-17.359,16.266-28.912c0.045-0.699-0.939-0.713-1.058-0.061
				c-2.048,11.262-6.858,20.919-15.904,28.173C597.594,1110.135,598.287,1110.919,598.824,1110.505L598.824,1110.505z"/>
		</g>
		<g>
			<path fill="#E79E90" d="M578.304,869.108c20.702,64.663,31.354,130.481,35.382,198.142c0.059,0.983,1.752,1,1.751-0.006
				c-0.06-66.976-13.829-135.557-36.281-198.518C578.951,868.154,578.124,868.547,578.304,869.108L578.304,869.108z"/>
		</g>
		<g>
			<path fill="#E79E90" d="M565.963,1108.714c22.305-6.1,16.642-46.203,13.823-62.543c-0.077-0.444-0.754-0.383-0.702,0.073
				c1.825,16.085,7.488,55.59-13.369,61.81C565.275,1108.184,565.53,1108.833,565.963,1108.714L565.963,1108.714z"/>
		</g>
		<g>
			<path fill="#E79E90" d="M583.762,1101.08c3.917-14.581,4.419-29.737-0.026-44.276c-0.196-0.64-1.177-0.472-1.038,0.209
				c3.026,14.904,3.635,28.757,0.264,43.863C582.86,1101.332,583.639,1101.537,583.762,1101.08L583.762,1101.08z"/>
		</g>
		<g>
			<path fill="#E79E90" d="M480.788,1101.896c6.236-2.551,10.582-6.626,14.273-12.302c1.318-2.026,2.449-4.182,3.517-6.345
				c1.836-3.719,0.925-3.673,5.955-4.368c6.685-0.923,2.517,0.072,6.676,1.04c14.366,3.345,19.176-9.23,20.323-21.57
				c0.07-0.75-1.181-0.891-1.317-0.149c-0.586,3.202-1.03,6.702-2.22,9.765c-2.358,8.807-8.403,11.674-18.135,8.601
				c-0.742-0.519-1.485-1.039-2.227-1.558c-2.894-0.436-2.535-2.131-5.696-0.755c-2.934,1.277-3.922,5.898-5.051,8.318
				c-3.751,8.041-8.329,14.694-16.546,18.391C479.728,1101.24,480.177,1102.146,480.788,1101.896L480.788,1101.896z"/>
		</g>
	</g>
	<g>
		<g>
			<path fill="#C6794A" d="M552.272,80.599c6.71,2.531,13.274,3.568,20.441,2.62c10.172-1.346,18.423-7.377,29.034-5.662
				c0.993,0.161,1.394-1.364,0.446-1.718c-5.368-2.004-9.903-1.073-15.292,0.715c-11.874,3.939-21.423,6.049-33.947,2.472
				C551.929,78.733,551.211,80.199,552.272,80.599L552.272,80.599z"/>
		</g>
		<g>
			<path fill="#C6794A" d="M596.805,89.567c7.315,6.008,16.181,10.714,25.967,9.246c8.716-1.307,16.832-7.69,17.376-16.868
				c0.035-0.583-0.815-0.757-1.006-0.198c-6.792,19.828-27.727,17.197-41.556,6.813C597.012,88.128,596.245,89.107,596.805,89.567
				L596.805,89.567z"/>
		</g>
		<g>
			<path fill="#C6794A" d="M639.573,77.942c-10.07-7.359-23.224-11.455-35.71-9.952c-0.936,0.113-0.869,1.443,0.076,1.461
				c12.912,0.244,23.945,2.856,34.972,9.71C639.688,79.643,640.27,78.451,639.573,77.942L639.573,77.942z"/>
		</g>
		<g>
			<path fill="#C6794A" d="M639.766,77.956c-0.101-2.825-2.46-7.395-5.909-6.992c-0.242,0.028-0.396,0.366-0.174,0.531
				c1.05,0.781,2.256,1.21,3.193,2.184c1.097,1.141,1.748,2.638,1.832,4.216C638.744,78.564,639.791,78.643,639.766,77.956
				L639.766,77.956z"/>
		</g>
		<g>
			<path fill="#C6794A" d="M632.167,92.866c11.256,5.248,22.834-5.565,25.065-16.182c0.132-0.626-0.771-1.125-1.1-0.479
				c-4.918,9.662-11.231,18.57-23.486,15.562C632.019,91.612,631.521,92.565,632.167,92.866L632.167,92.866z"/>
		</g>
		<g>
			<path fill="#C6794A" d="M638.412,76.79c4.933-2.712,9.645-2.147,14.855-0.672c0.74,0.209,1.084-0.812,0.486-1.205
				c-4.801-3.157-11.372-2.143-16.08,0.673C636.887,76.057,637.619,77.226,638.412,76.79L638.412,76.79z"/>
		</g>
		<g>
			<path fill="#C6794A" d="M647.767,90.587c6.678,1.143,16.157-1.754,18.353-8.945c0.148-0.485-0.485-0.969-0.875-0.573
				c-2.426,2.471-4.338,4.952-7.547,6.51c-3.045,1.479-6.329,1.913-9.662,1.415C647.011,88.842,646.74,90.411,647.767,90.587
				L647.767,90.587z"/>
		</g>
		<g>
			<path fill="#C6794A" d="M660.833,87.448c5.015,1.727,15.204,3.982,17.248-3.302c0.181-0.646-0.613-1.014-1.073-0.622
				c-2.151,1.834-4.149,3.285-7.061,3.484c-2.921,0.2-5.861-0.627-8.674-1.306C660.28,85.463,659.873,87.117,660.833,87.448
				L660.833,87.448z"/>
		</g>
		<g>
			<path fill="#C6794A" d="M670.648,88.968c1.24,2.09,3.472,3.574,5.947,3.125c0.854-0.155,0.98-1.336,0.079-1.549
				c-1.739-0.411-3.51-1.092-4.713-2.472C671.298,87.312,670.115,88.069,670.648,88.968L670.648,88.968z"/>
		</g>
		<g>
			<path fill="#BF6848" d="M636.341,68.825c-9.932-8.763-23.916-14.069-37.19-11.163c-0.598,0.131-0.554,1.113,0.093,1.097
				c13.646-0.353,25.449,1.986,36.216,10.897C636.048,70.142,636.932,69.346,636.341,68.825L636.341,68.825z"/>
		</g>
		<g>
			<path fill="#C6794A" d="M614.395,110.526c10.363,5.293,20.61-4.6,31.455-1.437c0.939,0.274,1.844-1.019,0.891-1.621
				c-10.223-6.453-21.074,6.731-31.696,1.918C614.289,109.045,613.633,110.137,614.395,110.526L614.395,110.526z"/>
		</g>
		<g>
			<path fill="#C6794A" d="M660.44,104.19c3.82,1.547,7.847,3.1,10.794,6.098c4.022,4.092,3.368,7.236,3.625,12.377
				c0.139,2.776,1.404,5.291,4.329,5.755c0.556,0.088,0.62-0.73,0.096-0.852c-4.302-0.998-2.248-6.597-2.418-9.291
				c-0.176-2.787-1.293-5.324-3.122-7.419c-3.337-3.822-8.372-5.694-13-7.416C660.258,103.262,659.956,103.994,660.44,104.19
				L660.44,104.19z"/>
		</g>
		<g>
			<path fill="#C6794A" d="M631.005,109.498c-2.854,7.436-0.001,16.93,4.563,23.147c5.715,7.783,13.041,9.179,22.204,10.063
				c1.072,0.103,1.296-1.398,0.255-1.645c-8.461-2.008-15.687-3.141-20.895-10.82c-4.044-5.963-5.01-13.385-4.721-20.45
				C632.441,109.07,631.265,108.82,631.005,109.498L631.005,109.498z"/>
		</g>
		<g>
			<path fill="#C6794A" d="M772.411,220.865c2.582,17.209,20.735,21.872,34.064,28.809c5.91,3.075,13.53,7.333,16.095,13.779
				c3.492,8.774,0.464,16.559-1.851,24.809c-1.983,7.065-2.815,13.663,0.278,20.53c7.794,17.309,31.093,24.878,27.393,47.044
				c-3.306,19.8-28.691,31.43-20.953,53.775c0.316,0.913,1.652,0.461,1.415-0.461c-6.49-25.23,26.429-38.498,21.995-62.869
				c-2.823-15.516-19.087-23.232-26.529-36.062c-9.751-16.812,10.085-34.478-1.684-50.839c-12.76-17.739-42.785-15.09-48.98-38.844
				C773.44,219.713,772.292,220.066,772.411,220.865L772.411,220.865z"/>
		</g>
		<g>
			<path fill="#BF6848" d="M545.77,152.546c-9.811,1.616-16.136,9.029-17.993,18.701c-2.872,14.959,10.505,32.21-5.991,42.026
				c-2.916,1.735-5.866,4.017-8.996,5.353c-25.039,10.685-2.902-0.868-15.527,2.287c-4.519,1.129-7.652,2.574-10.555,6.447
				c-7.966,10.629-4.014,25.773-14.862,34.826c-1.009,0.842,0.262,2.217,1.295,1.514c7.619-5.18,8.573-12.979,10.589-21.45
				c0.858-3.607,1.541-7.368,3.304-10.694c3.774-7.115,9.68-6.588,16.73-7.8c5.56-0.956,8.683-2.276,13.803-5.289
				c5.702-3.356,15.012-6.396,16.456-13.78c1.079-5.516-2.584-12.505-3.469-17.771c-2.205-13.133-0.568-29.694,15.592-33.062
				C547.019,153.673,546.616,152.407,545.77,152.546L545.77,152.546z"/>
		</g>
		<g>
			<path fill="#BF6848" d="M718.615,276.449c-1.592,11.331,2.892,20.649,11.113,28.45c4.729,4.488,10.318,7.919,15.788,11.406
				c3.462,2.207,9.387,5.217,11.635,8.51c5.569,8.16,4.706,17.419,0.115,25.636c-7.904,14.149-41.943,38.118-20.31,56.873
				c2.324,2.015,4.385,2.115,7.091,3.329c7.161-0.569,11.927,3.722,14.298,12.874c-0.755,1.606-1.509,3.213-2.264,4.819
				c-3.583,5.283-9.882,7.372-15.008,10.571c-9.861,6.153-16.087,14.376-17.206,26.306c-1.137,12.11,4.317,32.489,14.583,40.177
				c3.943,2.953,8.955,3.96,10.104-2.069c0.139-0.73-0.888-1.195-1.258-0.488c-3.066-0.549-6.133-1.098-9.199-1.647
				c-1.316-1.832-2.539-3.725-3.667-5.676c-3.201-5.596-6.208-11.964-7.58-18.296c-2.22-10.24-0.223-20.973,6.384-29.094
				c7.029-8.639,20.908-10.602,26.007-21.077c2.007-4.123,2.814-10.099,0.067-14.131c-1.55-2.275-3.455-3.094-5.976-3.837
				c-8.885-2.619-18.487-2.851-19.939-14.334c-3.177-25.118,33.959-35.395,30.123-61.331c-1.192-8.058-7.175-12.626-13.55-16.854
				c-14.601-9.684-32.238-19.505-30.369-40.042C719.653,275.891,718.702,275.826,718.615,276.449L718.615,276.449z"/>
		</g>
		<g>
			<path fill="#C6794A" d="M801.936,597.86c17.18-13.483,9.448-35.508-1.261-50.616c-17.556-24.767-50.936-51.313-28.124-83.831
				c0.377-0.538-0.481-1.264-0.908-0.745c-13.395,16.265-9.671,36.674,1.446,53.123c13.911,20.582,57.25,56.018,28.3,81.375
				C800.964,597.539,801.487,598.213,801.936,597.86L801.936,597.86z"/>
		</g>
		<g>
			<path fill="#C6794A" d="M770.387,750.499c12.498-9.75,18.601-24.577,15.368-40.304c-1.788-8.695-6.246-16.504-9.301-24.757
				c-6.418-17.339-5.522-34.195,0.593-51.563c0.243-0.689-0.904-1.164-1.205-0.486c-6.889,15.487-7.776,32.557-2.6,48.725
				c3.501,10.937,10.226,20.951,11.595,32.544c1.624,13.756-4.431,26.556-14.753,35.377
				C769.819,750.261,770.101,750.722,770.387,750.499L770.387,750.499z"/>
		</g>
		<g>
			<path fill="#C6794A" d="M793.901,709.82c6.435-8.855,2.025-17.09-3.571-25.241c-11.702-17.046-15.927-33.889-11.132-54.368
				c0.178-0.758-0.916-1.071-1.165-0.33c-3.773,11.215-4.124,22.747-0.824,34.171c3.911,13.538,24.785,31.707,16.029,45.267
				C792.95,709.762,793.582,710.258,793.901,709.82L793.901,709.82z"/>
		</g>
		<g>
			<path fill="#C6794A" d="M778.668,207.349c3.51,11.228,9.294,21.136,17.938,29.272c10.403,9.792,23.377,12.059,34.865,19.781
				c18.049,12.134,6.582,30.742,9.243,47.505c2.431,15.315,33.648,16.325,18.834,37.235c-0.433,0.612,0.57,1.368,1.058,0.797
				c6.022-7.037,4.807-15.891-1.519-22.502c-2.452-2.563-5.943-3.531-8.352-5.874c-4.358-4.238-7.661-11.712-8.055-17.492
				c-0.483-7.079,1.888-14.222,1.333-21.4c-0.893-11.549-7.408-18.352-17.503-23.263c-21.731-10.572-38.274-20.298-46.758-44.292
				C779.521,206.458,778.452,206.657,778.668,207.349L778.668,207.349z"/>
		</g>
		<g>
			<path fill="#BF6848" d="M382.406,523.76c9.567-7.2,13.565-19.486,9.689-30.961c-6.851-20.283-32.846-32.472-12.388-55.855
				c0.446-0.51-0.165-1.276-0.717-0.814c-8.824,7.386-11.415,19.01-6.657,29.537c2.713,6.004,7.232,10.721,11.088,15.97
				c10.153,13.822,11.212,28.543-1.515,41.598C381.615,523.534,382.082,524.004,382.406,523.76L382.406,523.76z"/>
		</g>
		<g>
			<path fill="#BF6848" d="M435.651,523.005c-5.435-17.399-9.507-35.963-6.925-54.28c2.6-18.444,14.669-26.788,26.78-38.946
				c17.452-17.519,9.932-35.969-6.061-51.707c-0.707-0.696-1.931,0.496-1.249,1.227c14.947,16.015,22.519,32.75,4.844,50.151
				c-7.536,7.42-16.429,13.432-21.484,23.006c-10.926,20.691-5.339,50.322,2.831,70.895
				C434.69,524.116,435.908,523.828,435.651,523.005L435.651,523.005z"/>
		</g>
		<g>
			<path fill="#BF6848" d="M462.839,364.83c2.496,3.744,5.591,6.773,8.505,10.187c5.572,6.527,5.76,6.879,4.29,16.517
				c-1.438,9.431-3.348,11.529-9.025,18.375c-5.095,6.143-9.456,11.644-9.782,19.881c-0.036,0.909,1.374,0.916,1.549,0.079
				c3.202-15.292,21.802-24.518,22.117-40.545c0.219-11.15-11.128-17.177-16.853-25.189
				C463.237,363.573,462.469,364.276,462.839,364.83L462.839,364.83z"/>
		</g>
		<g>
			<path fill="#BF6848" d="M707.389,327.21c22.25,19.218-3.314,44.795-12.07,63.31c-6.61,13.975-6.538,26.419,2.773,38.725
				c8.859,11.708,16.313,21.474,5.452,34.548c-4.094,4.928-9.289,9.258-11.707,15.378c-5.948,15.053,5.694,30.417,15.68,40.602
				c0.824,0.84,2.24-0.221,1.459-1.164c-10.239-12.351-23.355-27.552-12.199-43.905c4.075-5.973,10.63-10.278,13.683-17.004
				c6.189-13.633-6.04-22.407-12.659-32.639c-16.359-25.286,11.258-44.668,18.109-67.061c3.513-11.482,1.803-23.843-7.785-31.674
				C707.622,325.916,706.894,326.783,707.389,327.21L707.389,327.21z"/>
		</g>
		<g>
			<path fill="#BF6848" d="M745.909,834.977c-19.242-14.659-38.194-45.269-19.509-67.046c8.923-10.4,15.159-19.692,14.426-34.231
				c-0.913-18.115-14.993-27.375-21.778-42.946c-11.145-25.573,6.092-49.48,19.327-70.081c0.583-0.908-0.656-1.973-1.336-1.076
				c-11.901,15.715-23.872,34.514-23.499,55.007c0.422,23.182,23.022,35.367,25.497,57.519c1.536,13.751-4.609,25.189-13.759,34.797
				c-5.771,6.06-8.639,11.026-8.438,19.605c0.465,19.833,12.63,37.979,28.107,49.452
				C745.651,836.499,746.622,835.52,745.909,834.977L745.909,834.977z"/>
		</g>
		<g>
			<path fill="#BF6848" d="M741.691,609.805c16.915-21.48,7.093-50.62-6.1-71.408c-0.382-0.602-1.266-0.164-0.99,0.502
				c9.463,22.845,24.011,46.775,6.257,70.337C740.466,609.757,741.292,610.312,741.691,609.805L741.691,609.805z"/>
		</g>
	</g>
	<g>
		<g>
			<path fill="#FFFDF1" d="M582.117,201.074c-1.247,1.911-0.803,4.544,0.815,6.076c0.988,0.935,2.473-0.297,2.059-1.467
				c-0.502-1.416-0.528-2.447-0.506-3.929C584.501,200.63,582.716,200.155,582.117,201.074L582.117,201.074z"/>
		</g>
		<g>
			<path fill="#FFFDF1" d="M593.255,207.873c-1.919,0.502-3.191,2.527-2.241,4.36c0.139,0.268,0.526,0.478,0.807,0.532
				c0.138,0.027,1.01-0.115,0.947-0.195c-0.041-0.051,0.963-1.469,1.136-1.646c0.179-0.182,0.396-0.33,0.598-0.484
				C595.657,209.558,594.667,207.503,593.255,207.873L593.255,207.873z"/>
		</g>
		<g>
			<path fill="#FFFDF1" d="M602.757,211.29c-1.969,0.731-2.686,3.092-1.178,4.627c0.556,0.566,1.735,0.368,1.887-0.494
				c0.158-0.898,0.057-1.676,0.599-2.457C604.624,212.162,603.671,210.95,602.757,211.29L602.757,211.29z"/>
		</g>
		<g>
			<path fill="#FFFDF1" d="M613.03,211.823c-0.761,1.702-0.498,3.303,1.101,4.319c0.406,0.258,1.098-0.1,1.123-0.58
				c0.057-1.087-0.008-2.148,0.055-3.234C615.379,211.135,613.501,210.771,613.03,211.823L613.03,211.823z"/>
		</g>
		<g>
			<path fill="#FFFDF1" d="M622.55,205.932c-1.991,1.059-2.893,4.876-0.347,5.874c0.571,0.224,1.275-0.214,1.299-0.836
				c0.053-1.39-0.464-2.273,0.435-3.529C624.565,206.561,623.453,205.451,622.55,205.932L622.55,205.932z"/>
		</g>
		<g>
			<path fill="#FFFDF1" d="M629.134,199.068c-0.506,1.477-0.381,3.121,1.029,4.017c0.536,0.341,1.072-0.22,1.093-0.726
				c0.041-0.975-0.253-1.928-0.16-2.908C631.205,198.308,629.5,198.001,629.134,199.068L629.134,199.068z"/>
		</g>
		<g>
			<path fill="#FFFDF1" d="M636.22,187.313c-0.613,1.074-1.818,3.932-0.039,4.591c1.779,0.659,1.538-2.929,1.773-3.699
				C638.259,187.2,636.796,186.302,636.22,187.313L636.22,187.313z"/>
		</g>
		<g>
			<path fill="#FFFDF1" d="M642.588,183.585c-0.881-1.602,0.164-2.649,1.01-3.88c0.266-0.387-0.088-1.007-0.559-0.965
				c-2.66,0.234-2.79,3.95-1.454,5.592C642.045,184.897,642.924,184.195,642.588,183.585L642.588,183.585z"/>
		</g>
	</g>
</g>
</svg>
