<?xml version="1.0" encoding="utf-8"?>
<!-- Designed by Vexels.com - 2019 All Rights Reserved - https://vexels.com/terms-and-conditions/  -->
<svg version="1.1" id="Layer_1" xmlns="http://www.w3.org/2000/svg" xmlns:xlink="http://www.w3.org/1999/xlink" x="0px" y="0px"
	 viewBox="0 0 1200 1200" enable-background="new 0 0 1200 1200" xml:space="preserve">
<g>
	<g>
		<path fill="#8D4B30" d="M366.584,1055.412c-1.477,4.289-6.024,25.002,27.201,28.98c28.182,3.232,32.384-10.066,26.887-24.027
			C414.162,1043.828,366.584,1055.412,366.584,1055.412z"/>
		<g>
			<path fill="#C26F45" d="M467.015,725.673c-6.652,27.315-12.072,76.842-19.112,91.752c-7.04,14.91-10.164,24.96-10.164,24.96
				s-31.947,22.231-33.748,45.199s-13.24,81.635-20.137,89.161c-6.897,7.525-16.121,19.739-11.456,41.968
				c0,0-11.879,48.106,3.609,53.797c15.488,5.692,25.166,8.527,35.36,4.338c0,0,11.533,6.814,6.461-19.319
				c-5.072-26.133-7.799-49.502-2.79-68.914s54.591-71.097,61.753-116.046c0,0,21.31-10.675,28.158-35.767
				s58.232-114.081,58.232-114.081S519.687,662.509,467.015,725.673z"/>
			<path fill="#CE8966" d="M446.331,863.419c5.138-10.276,23.121,0,23.121-7.707c2.325-32.55,23.581-69.306-10.49-87.421
				c-3.512,20.617-7.019,40.576-11.059,49.133c-7.04,14.91-10.164,24.96-10.164,24.96s-31.947,22.231-33.748,45.199
				c-1.801,22.967-13.24,81.635-20.137,89.16c-6.897,7.525-16.121,19.739-11.456,41.968c0,0-11.879,48.105,3.609,53.797
				c4.338,1.594,8.209,2.953,11.775,4.007c12.601-63.181,23.196-129.042,66.255-179.7
				C461.745,886.54,443.762,873.695,446.331,863.419z"/>
		</g>
		<g>
			<path fill="#E1DECF" d="M457.05,921.166c-20.715-0.501-41.329-8.017-54.108-23.87c-3.445,26.657-13.022,72.83-19.089,79.448
				c-0.633,0.691-1.289,1.437-1.949,2.211c1.586,3.641,3.249,7.207,5.34,10.343c6.365,6.365,15.884,11.458,25.431,13.111
				c0.378-4.513,1.135-9.042,2.362-13.796C418.271,976.083,440.07,950.1,457.05,921.166z"/>
			<path fill="#F4EFDE" d="M402.943,897.296c-3.445,26.657-13.022,72.83-19.089,79.448c-0.633,0.691-1.289,1.437-1.949,2.211
				c1.586,3.641,3.249,7.207,5.34,10.343c4.374,4.374,10.25,8.115,16.588,10.584c3.926-30.439,17.647-56.646,35.098-81.047
				C424.85,915.482,411.948,908.468,402.943,897.296z"/>
		</g>
		<g>
			<path fill="#6B3123" d="M496.166,591.219c0,0-16.408,6.968-22.763,16.771c-6.355,9.803-45.201,15.921-33.531,33.714
				c11.671,17.793,15.109,11.331,2.497,29.758c-12.612,18.428-6.531,32.081-6.531,32.081s-8.853,23.733,12.173,38.354
				c5.612,2.853,9.525-12.677,7.32,8.927c-2.205,21.604,49.097,20.929,58.003,9.085c0,0,18.975,2.631,21.392-9.104
				s7.414-7.444,7.414-7.444s3.613,7.365,9.057-0.901c0,0,2.194,16.222,9.739,19.117s142.806,22.416,165.275,8.834
				c6.788-12.791-16.471-70.033-32.059-100.061c-12.325-23.743-33.857-56.711-33.857-56.711L496.166,591.219z"/>
			<path fill="#803D2E" d="M459.176,686.161c7.707-15.414,7.707-33.397,15.414-43.672c10.898-15.257,23.61-30.534,27.223-50.498
				l-5.647-0.771c0,0-16.408,6.968-22.763,16.771c-6.355,9.803-45.202,15.921-33.531,33.714
				c11.671,17.793,15.109,11.331,2.497,29.758c-11.002,16.075-7.781,28.51-6.778,31.426c1.188-1.206,2.313-2.443,3.033-3.882
				C441.193,693.867,454.038,693.867,459.176,686.161z"/>
			<path fill="#803D2E" d="M536.245,681.023c-2.148,21.483,1.084,41.175,2.203,62.07c1.934-1.216,3.691,0.269,3.691,0.269
				s3.547,7.202,8.904-0.691C552.197,718.2,553.594,693.167,536.245,681.023z"/>
			<path fill="#803D2E" d="M613.314,660.471c-12.845,23.121,5.138,56.517-7.707,69.362c-15.414,12.845-2.569-30.828-15.414-43.672
				c-2.569-2.569-5.138-7.707-10.276-5.138c-19.448,24.31,2.491,55.519-8.157,82.747c18.844,3.17,58.342,8.424,93.092,10.507
				c-1.908-1.024-3.703-2.145-5.297-3.34C623.59,740.109,631.297,696.436,613.314,660.471z"/>
			<path fill="#803D2E" d="M694.152,670.35c-12.325-23.743-33.857-56.711-33.857-56.711l-6.596-0.901
				c1.959,5.726,4.921,10.831,8.426,14.336c32.625,44.14,56.638,94.015,59.208,145.34c1.961-0.567,3.602-1.231,4.879-2.003
				C732.998,757.62,709.739,700.379,694.152,670.35z"/>
			<path fill="#803D2E" d="M520.095,594.488l-14.677-2.005v1.195c-9.964,52.308-29.588,99.786-49.506,147.117
				c0.133,1.645-0.037,4.706-0.58,10.03c-2.205,21.604,49.097,20.929,58.003,9.085c0,0,0.152,0.019,0.368,0.043
				c-0.341-1.476-0.578-2.953-0.578-4.429C508.529,702.674,534.726,647.771,520.095,594.488z"/>
		</g>
		<g>
			<path fill="#816666" d="M493.702,778.942c2.307,10.889,76.706-9.438,182.032-40.054l-7.01-18.881
				c0,0-81.928,17.815-168.652,50.532C492.407,773.532,493.702,778.942,493.702,778.942z"/>
			<path fill="#967676" d="M668.724,720.007c0,0-81.928,17.815-168.651,50.532c-5.736,2.24-6.454,5.831-6.453,7.498
				c61.189-14.476,120.383-31.67,177.92-50.446L668.724,720.007z"/>
		</g>
		<path fill="#8D4B30" d="M366.898,1042.898v17.467c0,0,41.21-6.168,53.775,0l-1.757-17.246
			C418.916,1043.119,403.98,1024.483,366.898,1042.898z"/>
		<g>
			<path fill="#D09D33" d="M666.857,728.764c4.052,8.831,4.603,23.225,11.478,21.271c6.874-1.954,6.927-6.279,8.195-12.54
				c1.268-6.261,54.28-5.375,61.842-11.823s7.917-23.905-11.155-19.9c-19.072,4.005-55.506,10.625-66.84,4.85
				C659.043,704.848,652.798,715.952,666.857,728.764z"/>
			<path fill="#D4AD36" d="M675.873,712.26c-2.182-0.365-4.047-0.898-5.496-1.637c-11.334-5.775-17.579,5.329-3.52,18.141
				c0.848,1.849,1.539,3.944,2.171,6.08c1.885,2.056,3.372,4.449,3.372,7.834C678.151,734.052,675.857,723.012,675.873,712.26z"/>
		</g>
		<g>
			<path fill="#8D4B30" d="M763.013,1024.299c0,0-3.099,27.917,22.506,37.438c25.605,9.52,46.334,3.864,48.898-6.235
				C836.98,1045.402,763.013,1024.299,763.013,1024.299z"/>
			<path fill="#C26F45" d="M745.403,847.871c0,0,22.942,15.815,24.099,61.075c0,0,18.889,61.203,23.227,74.455
				c4.337,13.252,19.175,41.384,27.19,48.812c8.015,7.427,18.477,20.344,8.195,23.205s-22.865,15.66-47.013-3.132
				c-24.149-18.792-25.788-58.499-35.697-83.256c-9.909-24.757-49.702-96.986-39.723-115.718S745.403,847.871,745.403,847.871z"/>
			<path fill="#8D4B30" d="M770.235,1049.404c0,0,23.295-16.519,57.699-9.763l-11.084-12.158c0,0-29.855-11.377-52.596,9.984
				L770.235,1049.404z"/>
			<path fill="#E1DECF" d="M772.59,989.299c8.534-2.438,14.149-7.21,17.722-13.453c-6.598-20.857-20.809-66.899-20.809-66.899
				c-0.333-13.025-2.475-23.598-5.35-32.071c-4.281,2.665-8.586,4.979-12.115,7.096c-13.384,6.692-28.933,7.895-42.417,2.982
				c9.667,28.677,29.238,65.727,35.782,82.077c2.416,6.035,4.338,12.966,6.217,20.258
				C757.981,991.381,765.284,990.76,772.59,989.299z"/>
		</g>
		<g>
			<polygon fill="#4A2D1A" points="533.584,161.039 558.906,152.141 619.694,79.319 589.635,50 561.576,58.247 501.518,131.94 			
				"/>
			<path fill="#59351E" d="M564.503,118.419c17.085-21.356,35.946-28.522,55.105-39.183L589.635,50l-28.059,8.247L535.4,90.366
				C541.689,107.99,555.201,130.047,564.503,118.419z"/>
		</g>
		<g>
			<path fill="#C26F45" d="M685.753,373.182c0,0,8.237,7.343,17.344,15.219c9.107,7.876,54.282,29.346,58.282,79.15
				c1.017,20.572,25.686,45.349,28.765,87.851c0,0,15.346,23.568,11.725,36.734c-3.621,13.166-7.259,20.885-7.259,20.885
				s-5.946,27.765-57.014,76.12c0,0,1.744,16.075-3.136,26.56c0,0,5.984,14.828-7.404,16.137c0,0-3.309,13.52-19.098,11.967
				c0,0-4.569,2.521-12.307,3.649c0,0-19.014,14.666-17.404-33.139c0,0,0.548-7.8,27.432-40.726c0,0,14.937-18.666,19.621-34.157
				c4.684-15.491,13.941-39.633,20.547-48.537c-3.339-18.837-30.189-30.824-28.887-61.648l-12.316-27.637
				c0,0-102.461,119.96-182.956,92.712l11.543-77.365c0,0-12.146-20.103-8.337-59.576c0,0-23.284-53.72-5.262-87.865
				c0,0-42.546-13.572-71.432-76.564c0,0-32.319-22.085-18.669-40.052c0,0-10.086-24.206,9.993-53.85
				c11.035-17.817,20.838-45.551,20.838-45.551l43.441-9.074c0,0,24.968-17.711,34.478-7.223s-7.459,24.924-20.633,20.196
				c0,0-5.702,6.297-17.212,1.641c0,0-14.529,26.929-13.213,43.958c1.703,28.969-9.294,44.921-6.281,58.317
				c0,0,33.274,16.694,43.998,31.95s39.697-5.048,65.983,46.373L685.753,373.182z"/>
			<path fill="#CE8966" d="M623.59,426.695c-12.845-12.845-15.414-35.966-28.259-46.241c-23.099-13.475-11.582-28.392-6.517-44.751
				c-25.71-46.401-53.435-27.586-63.874-42.436c-10.725-15.257-43.998-31.95-43.998-31.95c-0.265-1.177-0.389-2.384-0.455-3.608
				c-4.687,0.26-8.466-0.02-8.466-3.133c-5.138-30.828,5.138-61.655,12.845-89.914c0.892-5.354-1.006-10.397-3.431-15.562
				l-21.071,4.401c0,0-9.803,27.734-20.838,45.551c-20.078,29.644-9.993,53.85-9.993,53.85
				c-13.65,17.968,18.669,40.052,18.669,40.052c1.458,3.179,2.958,6.199,4.478,9.131c4.396,0.528,8.497,2.515,11.635,6.438
				c23.121,30.828,56.517,33.397,79.638,61.655c10.276,10.276,10.276,35.966,0,43.672c-22.146,13.288-11.861-24.948-26.699-39.048
				c-13.339,34.123,7.642,82.581,7.642,82.581c-3.81,39.473,8.337,59.576,8.337,59.576l-11.543,77.365
				c20.125,6.812,41.623,4.423,62.549-2.992c2.635-3.214,4.689-6.699,5.956-10.499c7.707-17.983,10.276-33.397,20.552-51.379
				c2.569-2.569-7.707-10.276-12.845-17.983C628.728,493.488,646.71,447.247,623.59,426.695z"/>
			<path fill="#CE8966" d="M720.299,723.286c5.197-7.791,4.554-24.405,7.123-32.112c13.806-32.896,60.996-69.295,60.996-105.261
				c2.569-28.259-20.966-46.184-26.104-77.011c0-7.707-15.414-15.414-10.276-25.69c2.569-10.276,2.569-17.983,2.569-28.259
				c-2.569-5.138-10.69-13.224-17.983-12.845c-12.845,5.138-28.259,7.707-33.397,20.552c-5.539,14.772-4.443,29.544-3.388,44.316
				c3.092-3.366,4.804-5.364,4.804-5.364l12.316,27.637c-1.302,30.824,25.548,42.811,28.887,61.648
				c-6.605,8.904-15.863,33.046-20.546,48.537c-4.684,15.491-19.621,34.157-19.621,34.157
				c-26.884,32.926-27.432,40.726-27.432,40.726c-0.356,10.571,0.299,18.078,1.531,23.374
				C695.326,738.284,705.98,735.22,720.299,723.286z"/>
		</g>
		<path fill="#864C2C" d="M465.076,170.828c0,0,80.727-38.188,90.326-43.475c9.599-5.287,9.401-26.648-10.647-20.689
			c-20.048,5.959-94.262,40.186-94.262,40.186L465.076,170.828z"/>
		<path fill="#CE8966" d="M466.438,139.616c0,0,20.174-33.714,23.897-35.164c3.723-1.45,13.165-3.731,19.8-7.893
			s28.583,15.66,33.189,22.323c4.605,6.663-8.615,19.758-14.332,22.551c-5.717,2.793-12.785,9.573-16.376,4.636
			c0,0-4.869-1.644-7.319-12.078c0,0-6.577-9.632-11.529-6.334C488.817,130.955,466.438,139.616,466.438,139.616z"/>
		<path fill="#8F5533" d="M450.493,146.85c4.769-7.46,24.047,13.571,14.583,23.978C458.737,177.257,447.363,151.746,450.493,146.85z
			"/>
		<g>
			<path fill="#5B4949" d="M589.635,763.306c0,0,163.815-4.319,195.884-13.261l14.63,34.984c0,0,2.369,29.659,0.705,32.395
				l-10.614,1.752c0,0-24.215,9.719-27.832,27.536c-3.617,17.816-36.925,7.829-36.531,44.258c0,28.137,23.671,37.387,23.671,37.387
				l6.853,15.327l-0.253,11.061c0,0,2.948,0.187,2.217,6.632c-0.732,6.445-0.802,102.804-2.665,109.765
				c-1.864,6.961-4.19,28.953-2.725,34.174c1.465,5.221-5.638,3.349-3.329,36.604c0,0-54.589,3.808-58.944-0.356
				c-7.132-8.652-46.564,4.674-64.504,0c0,0-4.97,5.525-13.892,6.025c-8.922,0.5-41.472,11.215-42.445-16.946
				c0,0-5.709-5.489-3.309-34.208c0,0,1.301-99.603-1.12-142.443c-1.426-23.451,14.47-23.898,14.47-23.898v-11.749l20.515-1.092
				c0,0,6.009-22.074-23.157-62.815c0,0-104.981,1.927-132.955-54.958c0,0-8.144-6.467,35.143-17.008c0,0,93.045-8.03,109.187-7.545
				C588.636,774.927,583.466,763.482,589.635,763.306z"/>
			<path fill="#685353" d="M775.159,773.505c3.415-3.415-3.378-11.375-9.076-20.097c-53.827,6.664-176.447,9.898-176.447,9.898
				c-6.168,0.175-0.999,11.621-0.999,11.621c-16.142-0.484-109.187,7.545-109.187,7.545c-30.107,7.331-35.329,12.689-35.721,15.274
				c42.403,10.727,86.724,6.115,131.051,1.449c2.569,0,5.138,15.414,0,17.983c4.827,18.572-9.438,30.267-24.515,35.787
				c15.915,1.675,26.997,1.474,26.997,1.474c0.047,0.066,0.089,0.129,0.136,0.194c47.491-13.233,68.176-3.398,98.337-7.188
				c17.983-5.138,41.712-20.558,34.005-23.127c-43.672-12.845-60.46,3.136-109.27-7.14c-7.707-2.569-2.569-15.414-2.569-25.69
				C659.555,786.35,721.21,806.902,775.159,773.505z"/>
			<path fill="#685353" d="M610.745,971.316c12.845-17.983,87.345,7.707,92.483-28.259c-41.523,6.921-85.099,3.436-123.325-14.078
				v1.115c0,0-15.897,0.447-14.471,23.898c2.421,42.84,1.12,142.443,1.12,142.443c-2.4,28.719,3.309,34.208,3.309,34.208
				c0.67,19.395,16.316,20.349,28.908,18.902C602.263,1088.32,580.946,1024.528,610.745,971.316z"/>
		</g>
		<path fill="#C26F45" d="M622.003,306.507c0,0,2.359,47.738-1.923,60.822c-4.282,13.084,51.088,19.813,51.088,19.813
			s11.56-21.231,30.13-38.637C701.299,348.505,703.98,252.409,622.003,306.507z"/>
		<path fill="#CE8966" d="M673.473,383.224c0.854-1.397,1.929-3.107,3.221-5.064c-1.062-13.848-7.353-25.651-19.708-36.241
			c-7.707-5.138-13.508,3.729-20.552,2.569c-8.089-1.823-7.54-13.682-13.863-19.663c0.233,13.87,0.065,31.955-1.988,40.659
			C641.3,360.564,662.213,366.442,673.473,383.224z"/>
		<g>
			<path fill="#5F4038" d="M690.139,360.251c-12.12,13.059-24.037,22.557-24.037,22.557s-37.014-3.709-41.269-15.687
				c-3.304-9.3-2.026-36.355-2.466-50.999c-3.859-1.64-6.268-2.632-6.268-2.632s-22.215,25.576-22.2,33.717
				c0.016,8.141-0.923,8.668-7.204,9.521c-6.281,0.853,3.729,13.115,9.994,12.288c0,0,0.27,14.888-2.367,18.964
				c-2.638,4.075,7.496,0.333,7.496,0.333s-3.352,12.422,0.945,10.801c4.297-1.621,10.275-5.403,10.275-5.403
				s6.822-3.105,6.125,5.013c-0.697,8.118-4.132,10.413,5.742,10.491c9.873,0.078,5.924,11.442,9.227,8.589
				c3.302-2.853,7.972-6.977,12.265,3.526c4.292,10.503,5.544-4.327,17.515-2.215c11.971,2.111,5.644-4.914,14.774-7.368
				c9.13-2.454-1.04-16.065-1.04-16.065s10.493,3.128,8.343-11.851c0,0,8.677,3.824,6.246-4.915
				C690.809,373.795,692.184,367.144,690.139,360.251z"/>
			<path fill="#6A4941" d="M631.297,395.867c2.569,2.569,5.138-5.138,10.276-5.138c-3.818-6.363-8.892-12.098-12.421-18.45
				c-2.092-1.519-3.634-3.23-4.318-5.158c-3.303-9.3-1.437-36.928-1.878-51.572c-3.859-1.64-6.856-2.059-6.856-2.059
				s-22.215,25.576-22.2,33.717c0.016,8.141-0.923,8.668-7.204,9.521c-6.281,0.853,3.729,13.115,9.994,12.288
				c0,0,0.27,14.888-2.367,18.964c-2.638,4.075,7.496,0.333,7.496,0.333s-3.352,12.422,0.945,10.801
				c4.297-1.621,10.275-5.403,10.275-5.403s0.406-0.183,1.005-0.344C619.191,387.443,624,384.194,631.297,395.867z"/>
			<path fill="#6A4941" d="M660.989,363.117c0,0,16.757,17.829,15.824,27.362c0,0-14.086-4.482-16.542-7.612
				c0,0-16.053-13.216-25.07-13.349c-9.017-0.132-20.905-4.598-20.905-4.598s20.962-12.802,31.277-8.574
				S660.989,363.117,660.989,363.117z"/>
		</g>
		<path fill="#C26F45" d="M645.677,353.022c0,0-0.145,9.605,5.124,10.615c5.269,1.01,8.225,4.849,10.188-0.521
			C662.953,357.747,652.267,351.778,645.677,353.022z"/>
		<g>
			<path fill="#6B3123" d="M515.65,580.73c7.585,3.232,57.676,7.823,108.456-43.19c50.78-51.013,75.836-154.331,81.705-153.14
				s3.998,11.282,11.978,12.593s13.469,1.026,16.194,9.426c0,0,8.143-5.526,11.195,4.081c3.052,9.607,9.081,3.981-1.917,15.234
				c-10.999,11.254-30.391,23.865-37.449,66.195s1.981,51.452-5.601,62.74c-7.581,11.287-20.247,15.95-17.284,18.537
				c2.963,2.587,8.812,11.316-1.798,17.771c-10.61,6.455,5.453,11.348,2.837,17.093c-2.616,5.745-12.847,16.623-42.536,4.969
				c0,0-10.267,26.91-38.865,27.616c0,0-1.273,17.09-10.468,22.224c-9.196,5.134-43.593-5.425-54.957-36.364
				c-11.364-30.939-25.068-15.83-29.928-44.346C505.938,576.524,515.65,580.73,515.65,580.73z"/>
			<path fill="#803D2E" d="M579.917,634.781c-17.586,3.517-31.56-6.21-42.747-18.465c11.394,30.878,45.738,41.415,54.926,36.286
				c9.195-5.134,10.468-22.224,10.468-22.224c0.81-0.02,1.6-0.067,2.38-0.128c-0.6-1.094-1.229-2.16-1.907-3.177
				C592.762,616.798,587.624,634.781,579.917,634.781z"/>
			<path fill="#803D2E" d="M651.848,544.867c10.213-30.639,23.634-61.287,26.139-94.508c-13.063,30.056-30.818,64.012-53.881,87.18
				c-50.78,51.013-100.872,46.422-108.456,43.19c0,0-9.712-4.206-8.439,1.439c0.144,0.842,0.296,1.639,0.455,2.407
				c17.876,13.379,38.639,22.802,56.838,37.361c7.707,7.707,20.552,2.569,20.552-12.845c46.241,10.276,66.793-48.81,84.776-74.5
				C664.693,537.161,659.555,547.436,651.848,544.867z"/>
		</g>
		<g>
			<path fill="#6B3123" d="M507.211,582.168c0,0-12.755-2.607-11.045,9.051c1.71,11.657,5.19,14.454,8.783,12.965
				s9.77,4.759,11.541-3.992C518.262,591.44,507.211,582.168,507.211,582.168z"/>
			<path fill="#803D2E" d="M507.211,582.168c0,0-12.755-2.607-11.045,9.051c0.114,0.773,0.236,1.502,0.364,2.199
				c2.559-1.533,5.909-2.309,8.887-2.309c-2.144,4.289-2.451,8.577,0.479,12.866c3.644-0.335,8.97,4.244,10.595-3.783
				C518.262,591.44,507.211,582.168,507.211,582.168z"/>
		</g>
		<g>
			<path fill="#5F4038" d="M685.739,254.774c0,0,48.542,4.371,36.247,57.236c-1.9,8.446,8.257,17.314-5.402,19.675
				c-0.264,11.892-13.328,8.578-10.773,15.58c2.554,7.002-12.559,1.764-12.345-6.524c0,0-7.547,6.131-7.594-5.751
				c0,0-10.01,8.2-17.109-0.137c0,0-8.998-0.054-10.553-9.814c0,0-5.493,8.06-12.143-4.891c0,0-9.648,7.626-9.371,2.58
				c0.277-5.045,1.421-11.198-10.193,0.889c-3.882,4.79,1.086-11.989-3.548-8.067c-4.634,3.922-13.984,8.828-15.431-7.564
				c0,0,12.754-4.547,0.778-13.939c-11.977-9.391,4.32-12.469,11.356-16.586s8.011-13.071,15.543-23.821
				C642.733,242.89,672.395,241.465,685.739,254.774z"/>
			<path fill="#6A4941" d="M628.728,313.66c2.569-2.569,16.949-7.565,35.28-0.687c15.414,15.414,26.375,21.239,44.358,8.394
				c5.138-5.138-2.569-17.983,12.845-17.983c0-7.21,0.809-14.42,0.61-21.629c-8.055-24.432-36.081-26.982-36.081-26.982
				c-13.345-13.308-43.007-11.884-50.538-1.134c-7.532,10.75-8.507,19.704-15.543,23.821c-7.036,4.117-23.333,7.195-11.357,16.586
				c11.977,9.391-0.778,13.939-0.778,13.939c0.229,2.595,0.674,4.604,1.249,6.22C616.972,310.037,620.196,302.996,628.728,313.66z"
				/>
		</g>
	</g>
	<g>
		<g>
			<path fill="#53352F" d="M654.192,336.778c-3.102-2.274-6.277-4.384-9.137-6.972c-2.582-2.336-4.921-4.911-7.4-7.35
				c-0.6-0.59-1.443,0.209-1.086,0.892c3.419,6.542,10.038,12.42,16.758,15.365C654.495,339.225,655.096,337.441,654.192,336.778
				L654.192,336.778z"/>
		</g>
		<g>
			<path fill="#713B2F" d="M638.857,334.07c1.83,3.034,5.87,6.168,9.625,5.461c0.514-0.097,0.56-0.771,0.175-1.042
				c-1.314-0.925-2.895-1.162-4.318-1.885c-1.54-0.783-2.806-1.918-3.714-3.391C639.969,332.148,638.201,332.982,638.857,334.07
				L638.857,334.07z"/>
		</g>
		<g>
			<path fill="#53352F" d="M668.543,345.386c6.967,2.166,15.045,2.475,21.83-0.577c0.846-0.38,0.573-1.643-0.378-1.583
				c-7.117,0.449-13.924,1.058-21.057,0.278C667.858,343.387,667.493,345.06,668.543,345.386L668.543,345.386z"/>
		</g>
		<g>
			<path fill="#713B2F" d="M669.744,349.439c2.749,2.389,7.042,3.63,10.633,2.765c0.653-0.157,0.616-1.161-0.029-1.298
				c-1.794-0.381-3.596-0.547-5.367-1.065c-1.506-0.441-2.94-1.068-4.404-1.624C669.835,347.935,669.065,348.848,669.744,349.439
				L669.744,349.439z"/>
		</g>
	</g>
	<g>
		<g>
			<path fill="#53352F" d="M684.921,256.104c-0.391,12.558-3.573,24.199-9.25,35.41c-0.288,0.569,0.507,1.148,0.845,0.57
				c6.459-11.05,9.652-23.275,9.845-36.054C686.375,255.097,684.949,255.183,684.921,256.104L684.921,256.104z"/>
		</g>
		<g>
			<path fill="#53352F" d="M675.092,290.486c-0.278,4.213-0.189,8.224,0.995,12.303c0.536,1.849,1.879,3.945,2.306,5.808
				c1.534,6.702-2.547,12.162-6.072,17.407c-2.093,3.115-4.492,5.998-0.385,8.789c0.386,0.263,0.836-0.19,0.573-0.577
				c-2.662-3.923,9.05-13.293,9.43-18.249c0.17-2.216-0.506-3.947-1.342-5.984c-2.786-6.787-4.66-11.572-4.638-19.406
				C675.959,290.03,675.13,289.917,675.092,290.486L675.092,290.486z"/>
		</g>
		<g>
			<path fill="#53352F" d="M660.35,325.284c-3.061-7.645,7.458-10.841,10.447-16.225c2.232-4.021,1.821-8.903,0.986-13.247
				c-0.118-0.613-0.964-0.431-0.931,0.162c0.219,3.945,0.866,8.017-0.819,11.738c-1.747,3.86-5.187,5.393-7.992,8.27
				c-2.674,2.743-4.037,6.015-2.51,9.663C659.754,326.178,660.564,325.817,660.35,325.284L660.35,325.284z"/>
		</g>
		<g>
			<path fill="#53352F" d="M647.219,321.797c-3.041-11.308,8.529-16.517,16.267-21.174c0.669-0.403,0.191-1.517-0.567-1.26
				c-9.338,3.173-21.067,11.385-16.969,22.791C646.234,322.945,647.441,322.626,647.219,321.797L647.219,321.797z"/>
		</g>
		<g>
			<path fill="#53352F" d="M637.716,317.416c-2.142-4.649-0.758-9.12,2.067-13.077c0.374-0.524-0.359-1.071-0.824-0.705
				c-4.248,3.345-4.548,9.721-2.142,14.207C637.118,318.404,637.986,318.001,637.716,317.416L637.716,317.416z"/>
		</g>
		<g>
			<path fill="#53352F" d="M634.095,265.719c3.931-4.011,11.371-11.075,14.354-2.054c0.948,2.868,0.826,4.976,3.168,7.243
				c4.059,3.931,9.99,3.56,13.858-0.324c0.409-0.411-0.072-1.264-0.612-0.896c-8.584,5.852-13.566-0.204-14.826-7.803
				c-0.258-1.558-0.425-3.435-1.784-4.492c-4.751-3.698-12.276,4.707-14.867,7.678C633.03,265.478,633.712,266.109,634.095,265.719
				L634.095,265.719z"/>
		</g>
		<g>
			<path fill="#53352F" d="M624.368,294.844c2.549-3.687,5.141-7.512,8.71-10.3c5.865-4.581,10.356-3.115,16.931-2.506
				c5.314,0.492,9.5-1.079,12.242-5.733c0.366-0.621-0.515-1.317-1.018-0.778c-7.712,8.258-15.895,0.818-24.634,4.597
				c-6.121,2.647-9.756,8.706-13.028,14.167C623.254,294.821,624.009,295.363,624.368,294.844L624.368,294.844z"/>
		</g>
		<g>
			<path fill="#53352F" d="M646.126,271.699c5.822,3.551,13.45,4.187,19.219,0.197c0.386-0.267,0.016-0.884-0.407-0.705
				c-6.119,2.589-12.328,3.05-18.226-0.387C646.121,270.46,645.535,271.339,646.126,271.699L646.126,271.699z"/>
		</g>
		<g>
			<path fill="#53352F" d="M690.513,301.146c5.919-2.647,12.105,0.99,12.132,7.422c0.008,2.008-0.106,4.02-0.181,6.025
				c-0.135,3.612-0.673,7.478,0.423,10.987c1.396,4.47,5.266,7.019,9.829,5.759c0.59-0.163,0.529-0.986-0.082-1.057
				c-14.357-1.674-5.272-19.873-9.394-28.482c-2.722-5.686-8.735-3.905-13.334-1.738
				C689.176,300.404,689.791,301.469,690.513,301.146L690.513,301.146z"/>
		</g>
		<g>
			<path fill="#53352F" d="M698.72,286.127c13.7,0.96,20.445,14.703,14.468,26.525c-0.215,0.426,0.466,0.797,0.733,0.406
				c8.336-12.218-0.693-27.85-15.141-27.974C698.111,285.078,698.044,286.08,698.72,286.127L698.72,286.127z"/>
		</g>
		<g>
			<path fill="#53352F" d="M684.179,270.04c2.883,1.981,5.465,0.616,8.183-0.989c5.184-3.061,10.903-2.898,15.537,1.114
				c0.785,0.68,1.679-0.46,1.024-1.186c-2.502-2.771-5.892-4.392-9.665-4.336c-1.445,0.021-2.91,0.275-4.268,0.759
				c-3.153,1.124-7.021,6.008-10.587,4.194C684.108,269.447,683.923,269.865,684.179,270.04L684.179,270.04z"/>
		</g>
		<g>
			<path fill="#53352F" d="M684.817,265.273c-1.08-11.632-15.761-13.76-24.86-10.93c-0.557,0.173-0.572,1.077,0.092,1.081
				c8.809,0.064,21.801-2.111,23.699,10.08C683.859,266.215,684.881,265.956,684.817,265.273L684.817,265.273z"/>
		</g>
		<g>
			<path fill="#53352F" d="M681.475,279.228c-4.371,4.32-9.76,7.376-15.944,8.128c-6.277,0.764-11.567-2.266-17.672-2.297
				c-5.471-0.028-10.871,3.178-9.763,9.151c0.13,0.698,1.32,0.628,1.393-0.07c1.184-11.383,20.798-2.872,28.901-4.764
				c5.868-1.37,10.356-4.712,13.98-9.414C682.776,279.437,681.937,278.771,681.475,279.228L681.475,279.228z"/>
		</g>
		<g>
			<path fill="#53352F" d="M608.364,311.114c0.841,4.08,2.753,9.632,7.98,8.827c5.116-0.789,9.352-6.764,10.461-11.454
				c0.08-0.337-0.451-0.58-0.638-0.278c-1.871,3.013-3.649,6.228-6.494,8.463c-2.452,1.927-5.595,2.854-8.014,0.11
				c-1.343-1.524-1.971-3.918-2.459-5.79C609.067,310.477,608.252,310.572,608.364,311.114L608.364,311.114z"/>
		</g>
		<g>
			<path fill="#53352F" d="M691.013,328.234c4.41,3.821,1.635,10.18,3.522,15.014c1.036,2.654,3.438,5.024,6.444,4.388
				c0.708-0.15,0.572-1.152-0.039-1.322c-8.773-2.442-2.531-14.217-9.357-18.925C691.028,327.007,690.531,327.817,691.013,328.234
				L691.013,328.234z"/>
		</g>
		<g>
			<path fill="#53352F" d="M615.169,324.867c-4.631,2.503-8.108,6.477-8.795,11.871c-1.038,8.157,7.092,28.423-10.9,24.237
				c-0.427-0.099-0.526,0.504-0.195,0.688c5.478,3.05,11.312-0.718,13.182-6.273c0.928-2.757,0.894-5.626,0.527-8.475
				c-1.116-8.679-2.355-16.035,6.525-21.249C615.987,325.389,615.669,324.598,615.169,324.867L615.169,324.867z"/>
		</g>
		<g>
			<path fill="#53352F" d="M602.565,389.867c-0.588-6.038,2.808-7.934,6.797-11.534c1.022-0.922,1.908-1.583,2.313-2.998
				c0.327-1.141-0.062-2.269-0.071-3.412c-0.039-4.59,1.027-8.132,3.66-11.825c0.309-0.433-0.313-1.042-0.709-0.649
				c-1.982,1.968-3.343,4.016-4.045,6.747c-1.087,4.227,1.079,8.139-2.481,11.491c-4.055,3.819-7.094,6.064-6.276,12.293
				C601.821,390.506,602.616,390.391,602.565,389.867L602.565,389.867z"/>
		</g>
		<g>
			<path fill="#53352F" d="M616.366,378.595c-2.597,1.999-3.756,5.282-2.857,8.484c0.405,1.443,1.647,2.572,1.319,3.801
				c-0.253,0.946-2.395,2.33-3.178,3.093c-1.442,1.403-2.899,2.733-4.132,4.326c-0.329,0.425,0.258,0.92,0.664,0.625
				c3.177-2.31,5.866-5.395,8.683-8.129c0.258-0.25,0.25-0.72-0.016-0.961c-3.162-2.874-2.998-7.72,0.269-10.409
				C617.679,378.963,616.93,378.161,616.366,378.595L616.366,378.595z"/>
		</g>
		<g>
			<path fill="#53352F" d="M646.51,395.271c-0.113,4.02,1.44,7.86,4.867,10.168c0.318,0.214,2.427,1.028,2.528,1.187
				c0.751,1.188-0.27,2.93-0.479,4.138c-0.384,2.216-0.404,4.344-0.071,6.56c0.082,0.546,1.004,0.516,0.985-0.056
				c-0.124-3.75,0.128-7.162,1.397-10.737c0.102-0.286-0.081-0.546-0.334-0.66c-4.403-1.99-7.498-5.618-7.799-10.553
				C647.562,394.633,646.531,394.551,646.51,395.271L646.51,395.271z"/>
		</g>
		<g>
			<path fill="#53352F" d="M659.993,392.447c6.515,4.049,2.005,14.217,2.751,20.499c0.302,2.54,1.532,4.363,4.236,3.915
				c0.455-0.075,0.483-0.826-0.014-0.838c-5.055-0.13-1.529-14.686-1.818-17.225c-0.355-3.113-2.027-5.567-4.779-6.987
				C660.001,391.62,659.634,392.223,659.993,392.447L659.993,392.447z"/>
		</g>
		<g>
			<path fill="#53352F" d="M663.86,380.95c2.697,4.901,7.543,8.904,13.043,10.256c0.172,0.042,0.238-0.206,0.073-0.264
				c-5.543-1.915-9.724-5.094-12.677-10.275C664.132,380.374,663.699,380.658,663.86,380.95L663.86,380.95z"/>
		</g>
		<g>
			<path fill="#53352F" d="M634.844,365.559c-6.039,2.6-12.124,2.672-18.385,4.17c-0.42,0.1-0.589,0.826-0.075,0.935
				c6.278,1.323,13.344-1.507,18.885-4.205C635.848,366.177,635.431,365.307,634.844,365.559L634.844,365.559z"/>
		</g>
	</g>
	<g>
		<g>
			<path fill="#4E2922" d="M561.633,61.884c6.634,6.631,12.947,13.691,19.92,19.964c0.44,0.396,1.323-0.076,0.928-0.652
				c-5.357-7.815-12.438-14.478-19.573-20.652C562.117,59.86,560.884,61.136,561.633,61.884L561.633,61.884z"/>
		</g>
		<g>
			<path fill="#4E2922" d="M592.233,90.103c8.276-2.137,17.103-4.736,24.827-8.448c0.581-0.279,0.237-1.17-0.378-1.043
				c-8.454,1.735-16.993,4.973-24.925,8.328C591.08,89.225,591.556,90.278,592.233,90.103L592.233,90.103z"/>
		</g>
		<g>
			<path fill="#4E2922" d="M592.368,87.955c-10.398,12.835-20.494,26.211-29.831,39.838c-0.468,0.684,0.672,1.454,1.196,0.827
				c10.619-12.708,20.782-26.056,30.395-39.539C594.924,87.965,593.194,86.935,592.368,87.955L592.368,87.955z"/>
		</g>
		<g>
			<path fill="#4E2922" d="M543.428,156.071c3.089-4.238,6.26-8.412,9.049-12.855c0.277-0.441-0.323-0.917-0.654-0.495
				c-3.244,4.125-6.117,8.509-9.072,12.844C542.445,156.013,543.105,156.513,543.428,156.071L543.428,156.071z"/>
		</g>
	</g>
	<g>
		<g>
			<path fill="#7B3D0E" d="M457.468,147.574c3.771,1.722,6.488,4.919,7.751,8.862c1.149,3.586,0.345,6.805-0.146,10.405
				c-0.064,0.468,0.644,0.801,0.959,0.439c6.022-6.944-0.618-18.248-7.898-21.014C457.27,145.939,456.592,147.174,457.468,147.574
				L457.468,147.574z"/>
		</g>
		<g>
			<path fill="#7B3D0E" d="M467.064,169.579c14.618-6.537,29.278-13.031,43.598-20.201c0.606-0.303,0.156-1.2-0.46-0.938
				c-14.74,6.28-29.196,13.235-43.651,20.144C465.897,168.897,466.41,169.871,467.064,169.579L467.064,169.579z"/>
		</g>
	</g>
	<g>
		<g>
			<path fill="#5B2121" d="M501.035,599.918c3.588,3.561,9.561,7.284,14.573,4.13c3.263-2.053,4.792-6.196,2.477-9.483
				c-0.228-0.324-0.826-0.026-0.629,0.341c2.138,3.966-1.796,8.19-5.676,8.426c-3.741,0.228-7.077-2.101-9.776-4.448
				C501.316,598.284,500.386,599.274,501.035,599.918L501.035,599.918z"/>
		</g>
		<g>
			<path fill="#5B2121" d="M513.346,583.629c18.4,9.087,53.165,30.017,70.844,10.012c0.334-0.378-0.268-0.819-0.608-0.473
				c-17.835,18.113-51.802-1.706-69.65-10.433C513.323,582.437,512.729,583.324,513.346,583.629L513.346,583.629z"/>
		</g>
		<g>
			<path fill="#5B2121" d="M516.865,594.945c17.705,17.149,19.959,63.296,52.375,61.189c0.805-0.052,0.798-1.168,0.004-1.243
				c-31.414-3-31.576-42.912-51.486-60.811C517.168,593.549,516.286,594.384,516.865,594.945L516.865,594.945z"/>
		</g>
		<g>
			<path fill="#5B2121" d="M574.985,658.476c11.783,5.837,29.164-1.528,28.195-16.318c-0.037-0.567-0.812-0.43-0.912,0.034
				c-1.247,5.787-2.839,10.725-7.933,14.326c-5.694,4.025-12.857,4.131-19.051,1.221C574.819,657.52,574.529,658.25,574.985,658.476
				L574.985,658.476z"/>
		</g>
		<g>
			<path fill="#5B2121" d="M604.316,643.829c6.192-3.516,13.34-3.572,19.618-6.755c4.519-2.291,8.3-5.996,11.211-10.093
				c6.855-9.647,9.424-22.678,9.88-34.318c0.032-0.813-1.234-0.891-1.401-0.119c-2.564,11.891-3.089,24.529-10.96,34.51
				c-8.043,10.199-19.104,9.393-29.186,15.511C602.637,643.075,603.475,644.307,604.316,643.829L604.316,643.829z"/>
		</g>
		<g>
			<path fill="#5B2121" d="M630.845,607.249c20.172-23.144,36.459-49.294,47.372-78.033c0.328-0.865-0.93-1.545-1.308-0.665
				c-12.12,28.232-27.395,54.371-46.934,78.12C629.543,607.195,630.413,607.744,630.845,607.249L630.845,607.249z"/>
		</g>
		<g>
			<path fill="#5B2121" d="M679.866,523.181c18.708-35.187,20.022-76.109,50.294-104.799c0.592-0.561-0.248-1.566-0.916-1.099
				c-33.243,23.252-33.895,71.724-50.502,105.258C678.376,523.28,679.472,523.92,679.866,523.181L679.866,523.181z"/>
		</g>
		<g>
			<path fill="#5B2121" d="M712.157,401.111c-11.351,31.763-22.85,63.61-32.845,95.83c-0.347,1.119,1.298,1.783,1.717,0.662
				c11.791-31.592,22.218-63.767,32.679-95.82C714.042,400.764,712.527,400.076,712.157,401.111L712.157,401.111z"/>
		</g>
		<g>
			<path fill="#5B2121" d="M667.177,511.752c-16.149,30.124-35.801,71.077-70.51,82.714c-0.884,0.297-0.457,1.616,0.437,1.374
				c35.702-9.642,56.015-53.283,71.327-83.428C668.844,511.599,667.608,510.947,667.177,511.752L667.177,511.752z"/>
		</g>
		<g>
			<path fill="#5B2121" d="M683.176,567.807c-6.641,3.13-13.752,6.939-19.203,11.915c-0.398,0.364,0.002,1.049,0.515,0.812
				c6.725-3.111,13.125-7.433,19.434-11.309C684.695,568.751,684.011,567.413,683.176,567.807L683.176,567.807z"/>
		</g>
		<g>
			<path fill="#5B2121" d="M653.586,576.689c3.99,7.435,10.18,14.486,17.87,18.223c0.549,0.267,0.864-0.573,0.447-0.906
				c-6.678-5.343-12.513-10.778-17.115-18.068C654.297,575.159,653.159,575.892,653.586,576.689L653.586,576.689z"/>
		</g>
		<g>
			<path fill="#5B2121" d="M501.53,607.658c0.289,0,0.272-0.447-0.016-0.447C501.226,607.211,501.242,607.658,501.53,607.658
				L501.53,607.658z"/>
		</g>
		<g>
			<path fill="#5B2121" d="M500.38,603.239c-10.012,38.79-21.995,75.542-38.32,112.207c-0.324,0.729,0.709,1.371,1.097,0.636
				c18.341-34.711,32.351-73.789,38.74-112.565C502.06,602.529,500.626,602.284,500.38,603.239L500.38,603.239z"/>
		</g>
		<g>
			<path fill="#5B2121" d="M500.518,599.703c-6.066-0.139-9.42,5.304-12.741,9.654c-5.504,7.21-11.184,14.366-16.222,21.912
				c-0.35,0.524,0.437,1.215,0.872,0.725c4.495-5.074,8.614-10.519,12.781-15.863c4.215-5.405,8.39-13.438,15.525-15.089
				C501.521,600.86,501.264,599.72,500.518,599.703L500.518,599.703z"/>
		</g>
		<g>
			<path fill="#5B2121" d="M502.254,598.518c0.498-4.454,4.368-6.148,8.3-6.578c0.475-0.052,0.489-0.724,0.083-0.886
				c-4.561-1.814-9.197,3.222-9.476,7.416C501.114,599.178,502.176,599.213,502.254,598.518L502.254,598.518z"/>
		</g>
		<g>
			<path fill="#5B2121" d="M507.062,582.019c2.533,2.032,5.123,4.674,8.098,6.03c0.643,0.293,1.257-0.433,0.77-0.993
				c-2.129-2.447-5.27-4.2-7.899-6.071C507.311,580.472,506.336,581.437,507.062,582.019L507.062,582.019z"/>
		</g>
		<g>
			<path fill="#5B2121" d="M640.733,621.973c12.807,18.949,32.019,32.008,39.905,54.204c0.272,0.765,1.397,0.48,1.225-0.327
				c-4.843-22.712-27.088-36.694-39.822-54.783C641.451,620.227,640.159,621.124,640.733,621.973L640.733,621.973z"/>
		</g>
		<g>
			<path fill="#5B2121" d="M636.613,626.4c1.759,26.658,10.221,54.98,26.899,76.244c0.589,0.751,1.737,0.024,1.25-0.816
				c-14.035-24.187-24.046-47.444-27.148-75.624C637.541,625.542,636.571,625.762,636.613,626.4L636.613,626.4z"/>
		</g>
		<g>
			<path fill="#5B2121" d="M648.281,722.372c-16.527-25.076-19.204-55.64-25.428-84.311c-0.086-0.396-0.711-0.361-0.644,0.058
				c4.632,28.799,8.34,60.199,25.576,84.587C648.008,723.019,648.493,722.693,648.281,722.372L648.281,722.372z"/>
		</g>
		<g>
			<path fill="#5B2121" d="M601.718,652.131c2.14,21.34,3.496,42.206,3.491,63.716c0,0.891,1.317,0.824,1.367-0.043
				c1.221-21.153,0.167-42.997-3.588-63.851C602.859,651.238,601.645,651.399,601.718,652.131L601.718,652.131z"/>
		</g>
		<g>
			<path fill="#5B2121" d="M598.996,654.234c-1.948,15.644-3.233,31.284-3.807,47.041c-0.447,12.249-2.288,25.983,2.308,37.628
				c0.2,0.506,0.894,0.178,0.758-0.315c-3.439-12.463-1.424-26.903-0.887-39.729c0.623-14.882,1.627-29.769,2.847-44.613
				C600.28,653.454,599.091,653.471,598.996,654.234L598.996,654.234z"/>
		</g>
		<g>
			<path fill="#5B2121" d="M551.207,743.669c3.25-34.629,0.111-69.43-10.282-102.667c-0.15-0.481-0.982-0.24-0.852,0.251
				c8.89,33.659,12.641,67.576,10.217,102.332C550.25,744.175,551.151,744.261,551.207,743.669L551.207,743.669z"/>
		</g>
		<g>
			<path fill="#5B2121" d="M536.559,741.721c1.85-28.452,1.045-57.266-1.284-85.664c-0.048-0.582-0.91-0.424-0.884,0.141
				c1.336,28.513,1.4,56.9,1.302,85.432C535.691,742.178,536.522,742.291,536.559,741.721L536.559,741.721z"/>
		</g>
	</g>
	<g>
		<g>
			<path fill="#735955" d="M665.444,731.235c-15.139,4.394-30.352,10.454-44.883,16.545c-0.876,0.367-0.454,1.713,0.472,1.415
				c14.997-4.822,30.536-10.04,44.883-16.545C666.776,732.26,666.385,730.962,665.444,731.235L665.444,731.235z"/>
		</g>
		<g>
			<path fill="#AA6919" d="M663.449,711.899c6.873,8.494,11.004,18.215,13.461,28.794c0.084,0.36,0.669,0.22,0.626-0.139
				c-1.315-11.088-6.132-20.978-13.183-29.544C663.833,710.377,662.941,711.271,663.449,711.899L663.449,711.899z"/>
		</g>
		<g>
			<path fill="#AA6919" d="M744.509,708.237c2,3.754,2.548,7.513,3.314,11.633c0.09,0.483,0.8,0.478,0.863-0.02
				c0.53-4.225-1.064-8.576-3.092-12.22C745.204,706.929,744.133,707.532,744.509,708.237L744.509,708.237z"/>
		</g>
	</g>
	<g>
		<g>
			<path fill="#4C3431" d="M447.455,800.936c29.054,7.695,60.78,7.353,90.037,0.981c0.733-0.16,0.556-1.431-0.203-1.316
				c-30.468,4.623-59.139,3.639-89.516-0.918C446.969,799.561,446.633,800.718,447.455,800.936L447.455,800.936z"/>
		</g>
		<g>
			<path fill="#4C3431" d="M567.25,798.708c7.28-1.423,14.391-1.862,21.791-1.746c0.831,0.013,0.821-1.297-0.014-1.293
				c-7.349,0.031-14.744,1.029-21.916,2.588C566.811,798.321,566.956,798.765,567.25,798.708L567.25,798.708z"/>
		</g>
		<g>
			<path fill="#4C3431" d="M586.503,770.804c2.5,5.41,4.592,12.118,8.281,16.832c0.255,0.326,0.875,0.101,0.772-0.335
				c-1.383-5.84-5.349-11.68-8.04-17.028C587.183,769.611,586.196,770.14,586.503,770.804L586.503,770.804z"/>
		</g>
		<g>
			<path fill="#4C3431" d="M598.665,790.142c22.059,5.84,44.676,3.604,66.956-0.006c0.456-0.074,0.385-0.767-0.079-0.717
				c-22.595,2.467-44.213,5.197-66.676-0.091C598.405,789.219,598.201,790.019,598.665,790.142L598.665,790.142z"/>
		</g>
		<g>
			<path fill="#4C3431" d="M692.453,793.414c28.752-1.074,57.458-7.618,83.593-19.799c0.571-0.266,0.167-1.108-0.409-0.88
				c-26.926,10.655-54.221,17.317-83.136,19.585C691.816,792.374,691.737,793.44,692.453,793.414L692.453,793.414z"/>
		</g>
		<g>
			<path fill="#4C3431" d="M797.192,778.831c-1.967-1.003-4.014-2.316-6.211-2.705c-0.476-0.084-1.072,0.525-0.585,0.935
				c1.745,1.471,4.048,2.22,6.129,3.104C797.401,780.538,798.055,779.271,797.192,778.831L797.192,778.831z"/>
		</g>
		<g>
			<path fill="#4C3431" d="M799.992,814.808c-20.08-2.442-39.865-2.022-59.799,1.429c-0.504,0.087-0.407,0.85,0.104,0.789
				c19.846-2.364,39.63-2.714,59.548-0.919C800.58,816.173,800.735,814.899,799.992,814.808L799.992,814.808z"/>
		</g>
		<g>
			<path fill="#4C3431" d="M596.113,815.477c3.439,6.546,16.403,5.201,22.613,5.532c11.765,0.627,23.456-0.124,35.045-2.228
				c0.689-0.125,0.453-1.12-0.219-1.047c-10.068,1.106-20.126,1.864-30.267,1.643c-5.34-0.116-22.818,0.961-26.053-4.547
				C596.809,814.109,595.727,814.742,596.113,815.477L596.113,815.477z"/>
		</g>
		<g>
			<path fill="#4C3431" d="M583.492,919.546c10.856,7.235,23.223,11.808,36.324,12.397c0.505,0.023,0.615-0.72,0.1-0.79
				c-12.926-1.738-24.735-5.508-35.846-12.478C583.502,918.32,582.931,919.172,583.492,919.546L583.492,919.546z"/>
		</g>
		<g>
			<path fill="#4C3431" d="M587.765,932.088c8.617,4.627,17.449,7.964,27.041,9.906c0.399,0.081,0.486-0.507,0.107-0.612
				c-9.163-2.556-18.091-5.961-26.513-10.391C587.681,930.612,587.044,931.7,587.765,932.088L587.765,932.088z"/>
		</g>
		<g>
			<path fill="#4C3431" d="M746.123,928.485c-24.591,1.075-49.195,2.974-73.632,5.952c-0.595,0.073-0.526,1.099,0.082,1.057
				c24.526-1.698,49.047-3.725,73.547-5.766C746.905,929.663,746.933,928.45,746.123,928.485L746.123,928.485z"/>
		</g>
		<g>
			<path fill="#4C3431" d="M752.901,939.388c-22.907,2.632-45.377,3.471-68.395,2.5c-0.816-0.034-0.779,1.152-0.003,1.244
				c22.76,2.691,46.129,1.719,68.605-2.719C753.777,940.279,753.559,939.312,752.901,939.388L752.901,939.388z"/>
		</g>
		<g>
			<path fill="#4C3431" d="M635.721,935.829c8.712,0.136,17.574-0.236,26.067-2.325c0.571-0.14,0.443-0.987-0.151-0.908
				c-8.653,1.154-17.159,2.377-25.908,2.493C635.31,935.094,635.297,935.822,635.721,935.829L635.721,935.829z"/>
		</g>
		<g>
			<path fill="#4C3431" d="M579.689,853.187c6.298-2.739,10.846-7.775,13.601-13.995c0.243-0.548-0.665-0.982-0.957-0.456
				c-3.116,5.626-7.796,10.055-13.291,13.331C578.309,852.505,578.944,853.511,579.689,853.187L579.689,853.187z"/>
		</g>
		<g>
			<path fill="#4C3431" d="M614.078,969.885c-8.763,13.656-14.588,28.945-15.513,45.242c-0.037,0.654,0.879,0.687,0.992,0.071
				c2.918-15.815,7.44-30.67,15.415-44.727C615.309,969.878,614.453,969.3,614.078,969.885L614.078,969.885z"/>
		</g>
		<g>
			<path fill="#4C3431" d="M595.892,1019.104c-1.799,38.346-1.02,77.415,4.562,115.425c0.048,0.327,0.545,0.312,0.521-0.029
				c-2.646-38.543-4.676-76.707-3.89-115.377C597.102,1018.354,595.928,1018.336,595.892,1019.104L595.892,1019.104z"/>
		</g>
		<g>
			<path fill="#4C3431" d="M587.864,973.432c6.148,13.776,8.194,27.71,7.754,42.707c-0.007,0.236,0.388,0.282,0.417,0.042
				c1.774-14.843-1.367-29.53-7.724-42.957C588.192,972.972,587.749,973.175,587.864,973.432L587.864,973.432z"/>
		</g>
		<g>
			<path fill="#4C3431" d="M583.238,958.471c0.316-7.833-4.588-14.816-12.03-17.239c-0.791-0.257-1.109,0.996-0.319,1.253
				c6.85,2.23,11.428,8.75,11.256,15.938C582.128,959.125,583.209,959.177,583.238,958.471L583.238,958.471z"/>
		</g>
		<g>
			<path fill="#4C3431" d="M614.179,958.366c-1.137-4.454-4.87-15.482-10.531-16.288c-3.2-0.456-6.7,4.234-8.662,6.009
				c-3.919,3.544-7.743,7.171-11.15,11.214c-0.265,0.314,0.2,0.822,0.514,0.532c4.733-4.379,9.223-10.46,14.675-13.956
				c0.563-0.493,1.126-0.987,1.689-1.48c2.005,0.377,4.009,0.754,6.014,1.131c0.879,0.539,1.74,2.098,2.326,2.936
				c2.169,3.104,3.55,6.494,4.541,10.11C613.699,958.962,614.276,958.749,614.179,958.366L614.179,958.366z"/>
		</g>
		<g>
			<path fill="#4C3431" d="M597.158,1074.419c3.155,4.269,8.814,6.155,13.71,3.368c0.449-0.256,0.194-0.943-0.315-0.758
				c-4.36,1.586-9.75,0.732-12.918-2.927C597.401,1073.832,596.934,1074.115,597.158,1074.419L597.158,1074.419z"/>
		</g>
		<g>
			<path fill="#4C3431" d="M597.778,1083.588c-0.527-1.55,2.694-1.878,3.608-2.421c0.888-0.528,1.608-1.399,1.476-2.482
				c-0.233-1.907-2.667-3.093-3.84-1.256c-0.497,0.778,0.218,1.711,1.046,1.718c1.108,0.01,1.544,0.733,2.348,1.32
				c0.455,0.332,1.299,0.166,1.335-0.506c0.104-1.975-2.012-3.11-3.753-3.125c0.349,0.573,0.697,1.145,1.046,1.718
				c-0.548,0.05-0.704,0.135-0.469,0.254c0.344,0.18,0.155,0.446-0.567,0.8c-0.234,0.164-0.553,0.24-0.813,0.35
				c-0.722,0.307-1.422,0.656-1.972,1.232c-0.806,0.844-1.148,1.82-0.648,2.911C596.886,1084.779,598.017,1084.292,597.778,1083.588
				L597.778,1083.588z"/>
		</g>
		<g>
			<path fill="#4C3431" d="M596.857,1076.107c0.248,0.666,0.527,1.277,0.861,1.903c0.181,0.339,0.587,0.571,0.97,0.557
				c1.644-0.057,0.683-2.319,0.109-3.184C598.203,1074.487,596.409,1074.904,596.857,1076.107L596.857,1076.107z"/>
		</g>
		<g>
			<path fill="#4C3431" d="M659.933,963.729c0.651,13.894,0.982,27.924,2.689,41.735c0.151,1.226,2.075,0.939,2.107-0.238
				c0.388-14.009-0.488-28.088-1.088-42.083C663.539,960.736,659.821,961.335,659.933,963.729L659.933,963.729z"/>
		</g>
		<g>
			<path fill="#4C3431" d="M663.22,1018.179c0.372,9.28,0.714,18.551,1.338,27.817c0.027,0.402,0.63,0.346,0.619-0.052
				c-0.238-9.292-0.753-18.563-1.24-27.845C663.912,1017.634,663.201,1017.718,663.22,1018.179L663.22,1018.179z"/>
		</g>
		<g>
			<path fill="#4C3431" d="M698.381,1075.151c15.57-0.85,31.22,0.134,46.741-0.748c0.622-0.035,0.726-0.917,0.071-0.992
				c-15.288-1.746-31.45-0.313-46.757,0.672C697.759,1074.127,697.69,1075.189,698.381,1075.151L698.381,1075.151z"/>
		</g>
		<g>
			<path fill="#4C3431" d="M754.239,1072.034c-1.674-0.248-3.756-0.681-5.355,0.07c-0.565,0.265-0.742,1.125-0.082,1.422
				c1.649,0.741,3.66,0.371,5.388,0.11C755.068,1073.503,755.18,1072.173,754.239,1072.034L754.239,1072.034z"/>
		</g>
		<g>
			<path fill="#4C3431" d="M687.204,1136.282c-1.565-10.63,18.922-9.228,24.258-10.115c5.458-0.907,10.598-2.39,15.749-4.409
				c0.265-0.104,0.148-0.521-0.129-0.429c-6.57,2.18-13.237,3.911-20.129,4.673c-4.243,0.469-9.301-0.172-13.386,1.146
				c-4.348,1.403-7.273,4.567-6.605,9.192C686.985,1136.499,687.227,1136.439,687.204,1136.282L687.204,1136.282z"/>
		</g>
		<g>
			<path fill="#4C3431" d="M740.351,1119.188c1.639-0.642,3.694-1.131,5.068-2.268c0.338-0.279,0.095-0.783-0.32-0.752
				c-1.726,0.126-3.489,1.147-5.075,1.795C739.282,1118.266,739.586,1119.488,740.351,1119.188L740.351,1119.188z"/>
		</g>
		<g>
			<path fill="#4C3431" d="M629.545,1137.911c-2.838-3.359-5.657-7.498-9.266-10.063c-0.574-0.408-1.202,0.399-0.901,0.931
				c2.145,3.797,5.816,6.995,8.791,10.155C628.908,1139.721,630.27,1138.77,629.545,1137.911L629.545,1137.911z"/>
		</g>
		<g>
			<path fill="#4C3431" d="M625.247,1127.15c-1.049-0.955-2.059-2.001-3.191-2.856c-0.279-0.211-0.702,0.129-0.473,0.432
				c0.85,1.125,1.884,2.132,2.834,3.175C624.911,1128.442,625.772,1127.628,625.247,1127.15L625.247,1127.15z"/>
		</g>
		<g>
			<path fill="#4C3431" d="M717.308,960.401c11.234-0.502,22.7-0.461,33.863-1.86c0.479-0.06,0.483-0.86-0.02-0.863
				c-11.237-0.065-22.664,1.39-33.863,2.251C716.985,959.952,717.002,960.415,717.308,960.401L717.308,960.401z"/>
		</g>
		<g>
			<path fill="#4C3431" d="M618.068,962.717c-1.015-0.333-1.691-1.061-2.61-1.545c-1.118-0.589-2.215-1.185-3.22-1.956
				c-1.683-1.291-2.999-2.987-4.632-4.329c-0.401-0.33-1.26-0.134-1.158,0.514c0.415,2.636,2.286,4.678,4.38,6.199
				c0.927,0.673,1.929,1.288,2.987,1.73c1.431,0.598,2.562,0.35,4.076,0.533C618.569,963.944,618.674,962.916,618.068,962.717
				L618.068,962.717z"/>
		</g>
		<g>
			<path fill="#4C3431" d="M617.685,963.793c-1.789,0.565-3.519,1.223-5.086,2.269c-0.408,0.272-0.055,0.907,0.381,0.831
				c1.853-0.323,3.553-1.061,5.235-1.878C618.906,964.679,618.404,963.566,617.685,963.793L617.685,963.793z"/>
		</g>
		<g>
			<path fill="#4C3431" d="M584.204,1146.359c-0.59-10.271-1.248-20.528-2.062-30.783c-0.034-0.433-0.688-0.365-0.668,0.065
				c0.474,10.303,1.101,20.589,1.799,30.88C583.314,1147.13,584.238,1146.958,584.204,1146.359L584.204,1146.359z"/>
		</g>
		<g>
			<path fill="#4C3431" d="M580.301,1089.731c-0.408-5.595,0.685-10.722,2.798-15.877c0.076-0.186-0.184-0.35-0.281-0.159
				c-2.54,4.966-3.353,10.518-2.89,16.042C579.948,1089.974,580.319,1089.972,580.301,1089.731L580.301,1089.731z"/>
		</g>
		<g>
			<path fill="#4C3431" d="M587.08,1065.823c-1.884-3.373-3.658-6.841-5.77-10.078c-0.228-0.349-0.841-0.022-0.648,0.357
				c1.761,3.46,3.905,6.745,5.905,10.072C586.774,1066.52,587.272,1066.167,587.08,1065.823L587.08,1065.823z"/>
		</g>
		<g>
			<path fill="#4C3431" d="M736.356,851.431c2.305-1.022,4.63-2.005,6.888-3.128c0.393-0.195,0.179-0.821-0.245-0.652
				c-2.348,0.934-4.638,2.008-6.943,3.042C735.588,850.904,735.887,851.639,736.356,851.431L736.356,851.431z"/>
		</g>
		<g>
			<path fill="#4C3431" d="M747.854,851.476c2.312-3.8,4.265-7.962,5.973-12.066c0.226-0.543-0.629-0.954-0.931-0.452
				c-2.301,3.825-4.472,7.906-6.152,12.043C746.48,851.651,747.507,852.046,747.854,851.476L747.854,851.476z"/>
		</g>
		<g>
			<path fill="#4C3431" d="M495.249,824.719c1.68,1.263,3.361,2.524,5.042,3.784c0.398,0.299,0.85-0.287,0.473-0.608
				c-1.593-1.358-3.189-2.712-4.781-4.072C495.342,823.276,494.567,824.206,495.249,824.719L495.249,824.719z"/>
		</g>
		<g>
			<path fill="#4C3431" d="M502.926,826.832c2.337,2.666,4.604,5.346,7.206,7.757c0.376,0.348,0.869-0.241,0.6-0.62
				c-2.07-2.917-4.459-5.533-6.816-8.221C503.293,825.038,502.31,826.13,502.926,826.832L502.926,826.832z"/>
		</g>
		<g>
			<path fill="#4C3431" d="M650.721,852.411c5.624-0.245,11.248,0.085,16.817,0.901c0.265,0.039,0.366-0.36,0.095-0.412
				c-5.642-1.084-11.24-1.435-16.977-1.157C650.223,851.764,650.291,852.43,650.721,852.411L650.721,852.411z"/>
		</g>
		<g>
			<path fill="#4C3431" d="M664.655,857.283c7.969-1.234,16.218-4.129,22.261-9.627c0.366-0.333-0.037-0.885-0.461-0.618
				c-6.976,4.391-13.718,7.926-21.951,9.338C663.919,856.475,664.069,857.373,664.655,857.283L664.655,857.283z"/>
		</g>
		<g>
			<path fill="#4C3431" d="M724.127,868.889c-3.226,7.617-4.779,15.692-4.104,23.966c0.029,0.352,0.557,0.318,0.546-0.034
				c-0.254-8.258,0.876-16.035,3.955-23.725C724.63,868.833,724.241,868.622,724.127,868.889L724.127,868.889z"/>
		</g>
		<g>
			<path fill="#4C3431" d="M716.901,877.771c-2.325,10.861-1.079,23.283,6.01,32.237c0.241,0.305,0.815,0.044,0.629-0.341
				c-5.031-10.389-7.881-20.102-5.697-31.698C717.943,877.436,717.017,877.232,716.901,877.771L716.901,877.771z"/>
		</g>
	</g>
	<g>
		<g>
			<path fill="#B7AE9A" d="M403.55,899.961c7.14,18.139,21.333,33.78,40.069,40.137c0.388,0.132,0.645-0.395,0.267-0.589
				c-17.395-8.915-31.229-21.758-38.921-40.02C404.596,898.613,403.196,899.061,403.55,899.961L403.55,899.961z"/>
		</g>
		<g>
			<path fill="#B7AE9A" d="M398.545,923.815c6.904,16.405,20.266,28.078,37.3,33.091c0.955,0.281,1.21-1.225,0.278-1.517
				c-16.103-5.034-29.246-16.858-36.336-32.122C399.462,922.569,398.244,923.099,398.545,923.815L398.545,923.815z"/>
		</g>
		<g>
			<path fill="#B7AE9A" d="M394.611,950.987c10.129,8.895,24.542,10.991,37.628,10.489c0.488-0.019,0.452-0.785-0.014-0.839
				c-13.232-1.507-26.344-1.289-37.089-10.375C394.694,949.888,394.183,950.611,394.611,950.987L394.611,950.987z"/>
		</g>
		<g>
			<path fill="#B7AE9A" d="M388.917,965.654c8.144,8.739,19.177,13.287,31.123,12.572c0.976-0.058,0.866-1.55-0.109-1.513
				c-11.462,0.432-22.081-3.641-30.158-11.855C389.246,964.321,388.403,965.102,388.917,965.654L388.917,965.654z"/>
		</g>
		<g>
			<path fill="#B7AE9A" d="M384.158,974.464c5.658,10.662,18.105,20.646,30.783,19.941c0.309-0.017,0.415-0.509,0.105-0.616
				c-5.675-1.968-11.093-3.327-16.241-6.639c-5.45-3.505-9.819-8.168-13.367-13.546
				C384.879,972.757,383.703,973.607,384.158,974.464L384.158,974.464z"/>
		</g>
	</g>
	<g>
		<g>
			<path fill="#B7AE9A" d="M730.149,909.064c13.614,3.53,28.825-4.19,34.62-16.87c0.408-0.893-0.882-1.516-1.361-0.669
				c-6.967,12.314-19.202,17.883-33.101,16.291C729.583,907.734,729.469,908.888,730.149,909.064L730.149,909.064z"/>
		</g>
		<g>
			<path fill="#B7AE9A" d="M742.204,922.771c9.573,1.592,20.862,1.181,29.395-3.946c0.328-0.197,0.041-0.669-0.294-0.57
				c-9.915,2.924-18.533,5.188-29.021,3.574C741.681,921.737,741.608,922.672,742.204,922.771L742.204,922.771z"/>
		</g>
		<g>
			<path fill="#B7AE9A" d="M756.079,939.623c7.288-1.861,14.062-5.194,19.765-10.127c0.707-0.612-0.36-1.561-1.059-0.979
				c-5.646,4.703-11.786,8.146-18.89,10.129C755.285,938.815,755.453,939.782,756.079,939.623L756.079,939.623z"/>
		</g>
		<g>
			<path fill="#B7AE9A" d="M758.123,961.563c8.725,3.671,19.8,1.36,25.677-6.335c0.543-0.711-0.433-1.674-1.034-0.97
				c-6.183,7.236-15.335,10.013-24.315,6.234C757.788,960.214,757.463,961.285,758.123,961.563L758.123,961.563z"/>
		</g>
		<g>
			<path fill="#B7AE9A" d="M758.143,952.621c8.694-0.493,17.452-4.267,22.855-11.29c0.394-0.512-0.421-1.179-0.872-0.725
				c-6.212,6.264-13.141,10.398-22.124,11.131C757.423,951.784,757.576,952.653,758.143,952.621L758.143,952.621z"/>
		</g>
		<g>
			<path fill="#B7AE9A" d="M758.192,989.775c11.684-1.061,24.058-9.502,27.24-21.221c0.167-0.617-0.733-1.066-1.059-0.47
				c-5.964,10.913-13.792,18.386-26.4,20.644C757.279,988.853,757.524,989.836,758.192,989.775L758.192,989.775z"/>
		</g>
	</g>
	<g>
		<g>
			<path fill="#A44F34" d="M660.098,358.99c1.756-6.702,4.892-12.9,9.363-18.21c0.563-0.669-0.4-1.613-0.985-0.949
				c-4.839,5.493-7.913,11.748-9.243,18.958C659.143,359.281,659.969,359.483,660.098,358.99L660.098,358.99z"/>
		</g>
		<g>
			<path fill="#A44F34" d="M652.386,341.897c-2.26,1.502-4.637,2.071-7.269,2.537c-0.591,0.105-0.513,0.989,0.073,1.033
				c2.796,0.21,5.545-0.904,7.822-2.468C653.68,342.541,653.069,341.442,652.386,341.897L652.386,341.897z"/>
		</g>
		<g>
			<path fill="#A44F34" d="M643.701,353.962c0.377,1.161,0.678,2.388,1.181,3.501c0.162,0.36,0.752,0.254,0.695-0.169
				c-0.16-1.196-0.539-2.379-0.829-3.55C644.579,353.065,643.492,353.317,643.701,353.962L643.701,353.962z"/>
		</g>
		<g>
			<path fill="#A44F34" d="M683.341,405.797c4.094,0.966,9.622,0.319,13.263-1.839c0.728-0.432,0.21-1.619-0.582-1.503
				c-2.153,0.316-4.208,1.048-6.358,1.409c-2.09,0.351-4.207,0.452-6.294,0.803C682.797,404.763,682.783,405.665,683.341,405.797
				L683.341,405.797z"/>
		</g>
		<g>
			<path fill="#A44F34" d="M635.526,446.881c-3.189,18.906-8.118,37.146-13.347,55.562c-0.223,0.786,1.065,1.251,1.373,0.479
				c7.118-17.856,11.014-36.828,13.171-55.873C636.799,446.371,635.641,446.199,635.526,446.881L635.526,446.881z"/>
		</g>
		<g>
			<path fill="#A44F34" d="M619.05,514.546c-2.734,7.888-5.857,16.221-6.738,24.563c-0.082,0.773,1.093,0.826,1.299,0.147
				c2.428-8.024,3.741-16.366,6.201-24.406C619.965,514.351,619.225,514.041,619.05,514.546L619.05,514.546z"/>
		</g>
		<g>
			<path fill="#A44F34" d="M528.623,330.438c5.646,31.19,21.692,59.321,23.171,91.409c0.037,0.796,1.218,0.809,1.244,0.004
				c1.007-32.12-16.514-60.911-23.46-91.585C529.44,329.659,528.511,329.82,528.623,330.438L528.623,330.438z"/>
		</g>
		<g>
			<path fill="#A44F34" d="M554.39,435.804c3.607,21.06,15.026,39.726,32.152,52.509c0.372,0.278,0.804-0.26,0.451-0.563
				c-16.197-13.884-26.82-31.333-31.766-52.067C555.102,435.161,554.297,435.259,554.39,435.804L554.39,435.804z"/>
		</g>
		<g>
			<path fill="#A44F34" d="M624.461,493.581c2,0.616,4,1.231,6,1.847c0.138,0.043,0.199-0.169,0.062-0.215
				c-1.99-0.673-3.98-1.346-5.97-2.019C624.313,493.112,624.215,493.505,624.461,493.581L624.461,493.581z"/>
		</g>
		<g>
			<path fill="#A44F34" d="M524.808,457.717c1.782,4.317,3.535,9.097,6.311,12.885c0.309,0.422,0.939-0.001,0.759-0.46
				c-1.715-4.377-4.321-8.483-6.251-12.786C525.391,456.829,524.589,457.185,524.808,457.717L524.808,457.717z"/>
		</g>
		<g>
			<path fill="#A44F34" d="M527.87,469.611c1.081,4.752,3.05,8.986,6.275,12.646c0.246,0.279,0.73-0.016,0.495-0.333
				c-2.785-3.762-4.928-7.935-6.075-12.482C528.466,469.048,527.779,469.212,527.87,469.611L527.87,469.611z"/>
		</g>
		<g>
			<path fill="#A44F34" d="M578.772,508.659c0.931,5.683,1.948,11.782,5.605,16.441c3.697,4.711,9.849,6.191,14.085,10.313
				c0.25,0.243,0.612-0.117,0.442-0.393c-2.152-3.496-5.725-4.953-9.086-7.082c-6.823-4.323-8.818-11.916-10.443-19.408
				C579.301,508.187,578.715,508.312,578.772,508.659L578.772,508.659z"/>
		</g>
		<g>
			<path fill="#A44F34" d="M586.447,535.122c0.151,7.147,2.402,14.704,7.829,19.646c0.581,0.529,1.314-0.208,0.868-0.819
				c-4.196-5.755-7.37-11.612-7.834-18.846C587.278,534.616,586.436,534.627,586.447,535.122L586.447,535.122z"/>
		</g>
		<g>
			<path fill="#A44F34" d="M530.658,369.875c-4.238-4.632-8.784-9.128-13.936-12.738c-0.392-0.275-0.828,0.271-0.462,0.586
				c4.735,4.071,9.469,8.074,13.78,12.613C530.376,370.69,530.995,370.244,530.658,369.875L530.658,369.875z"/>
		</g>
		<g>
			<path fill="#A44F34" d="M479.064,257.358c-5.078-1.659-11.078-0.456-14.607,3.725c-0.397,0.471,0.076,1.359,0.694,0.959
				c4.193-2.712,8.478-3.955,13.451-3.125C479.486,259.065,479.964,257.652,479.064,257.358L479.064,257.358z"/>
		</g>
		<g>
			<path fill="#A44F34" d="M792.879,582.572c1.651,3.223,1.993,7.346,1.33,10.861c-0.108,0.572,0.822,0.737,0.992,0.195
				c1.312-4.172,0.515-7.761-2-11.245C793.061,582.19,792.768,582.356,792.879,582.572L792.879,582.572z"/>
		</g>
		<g>
			<path fill="#A44F34" d="M789.388,587.516c-0.004,2.892-0.44,6.196,0.127,9.032c0.089,0.446,0.702,0.448,0.789-0.002
				c0.55-2.828,0.131-6.092,0.127-8.97C790.43,586.907,789.389,586.84,789.388,587.516L789.388,587.516z"/>
		</g>
		<g>
			<path fill="#A44F34" d="M746.618,591.211c4.91-3.852,9.869-6.933,15.609-9.394c0.552-0.237,0.241-1.095-0.333-0.981
				c-6.122,1.217-12.094,4.567-16.238,9.251C745.114,590.7,745.934,591.748,746.618,591.211L746.618,591.211z"/>
		</g>
		<g>
			<path fill="#A44F34" d="M538.209,544.765c-1.364,9.563-0.537,19.237,3.475,28.106c0.184,0.406,0.799,0.182,0.652-0.245
				c-3.137-9.112-4.623-18.093-3.464-27.754C538.923,544.445,538.27,544.334,538.209,544.765L538.209,544.765z"/>
		</g>
		<g>
			<path fill="#A44F34" d="M517.797,155.797c-0.967-1.845-1.068-3.716-0.845-5.748c0.057-0.517-0.715-0.694-0.89-0.2
				c-0.76,2.135-0.294,4.461,0.836,6.374C517.219,156.765,518.099,156.372,517.797,155.797L517.797,155.797z"/>
		</g>
		<g>
			<path fill="#A44F34" d="M508.065,123.489c1.692,1.622,3.345,3.278,4.93,5.006c1.345,1.467,4.607,4.303,5.172,6.202
				c1.1,3.697-2.709,6.043-1.407,9.525c0.365,0.977,2.067,0.485,1.769-0.539c-0.704-2.426,1.538-3.902,1.843-6.099
				c0.199-1.435-0.252-2.433-0.997-3.645c-2.559-4.167-6.955-7.855-10.535-11.114C508.364,122.392,507.588,123.03,508.065,123.489
				L508.065,123.489z"/>
		</g>
		<g>
			<path fill="#A44F34" d="M509.863,108.73c3.785,5.076,7.595,10.135,11.352,15.231c1.523,2.066,3.81,4.71,4.635,7.136
				c1.465,4.308-0.839,8.421-2.688,12.159c-0.467,0.944,0.912,1.511,1.442,0.673c2.861-4.525,4.811-9.259,2.277-14.367
				c-3.828-7.717-10.971-14.688-16.244-21.495C510.233,107.544,509.474,108.208,509.863,108.73L509.863,108.73z"/>
		</g>
		<g>
			<path fill="#A44F34" d="M518.894,103.734c3.704,4.126,7.568,8.118,11.248,12.26c5.674,6.386,4.325,11.222,2.263,18.675
				c-0.148,0.534,0.647,1.002,0.931,0.452c2.388-4.632,3.924-10.363,1.528-15.291c-3.138-6.456-10.235-11.773-15.182-16.781
				C519.214,102.574,518.442,103.23,518.894,103.734L518.894,103.734z"/>
		</g>
		<g>
			<path fill="#A44F34" d="M695.74,746.631c-0.601-6.902-2.11-14.228-3.656-20.984c-0.135-0.59-1.084-0.546-1.081,0.092
				c0.027,6.722,1.404,14.875,4.181,21.004C695.31,747.022,695.77,746.977,695.74,746.631L695.74,746.631z"/>
		</g>
		<g>
			<path fill="#A44F34" d="M709.916,740.635c-0.969-5.992-1.713-12.058-2.806-18.024c-0.137-0.748-1.248-0.527-1.27,0.178
				c-0.188,6.021,0.78,12.285,2.327,18.093C708.452,741.947,710.103,741.789,709.916,740.635L709.916,740.635z"/>
		</g>
		<g>
			<path fill="#A44F34" d="M720.307,717.718c-0.212,4.988,1.459,10.408,5.498,13.576c0.69,0.541,1.72-0.306,1.17-1.059
				c-2.753-3.775-4.766-7.538-4.863-12.325C722.09,716.778,720.358,716.523,720.307,717.718L720.307,717.718z"/>
		</g>
		<g>
			<path fill="#A44F34" d="M682.586,710.986c0.987-1.464,2.186-2.809,3.764-3.644c1.65-0.873,3.328-0.912,5.147-1.084
				c0.349-0.033,0.444-0.563,0.103-0.69c-3.678-1.37-8.393,1.563-9.603,5.058C681.878,710.971,682.351,711.334,682.586,710.986
				L682.586,710.986z"/>
		</g>
		<g>
			<path fill="#A44F34" d="M793.713,597.381c-1.146,5.06-3.239,9.464-6.166,13.722c-0.244,0.355,0.219,0.742,0.518,0.427
				c3.636-3.827,5.844-8.768,6.64-13.954C794.791,597.012,793.841,596.815,793.713,597.381L793.713,597.381z"/>
		</g>
		<g>
			<path fill="#A44F34" d="M443.387,838.999c-1.027,5.544-1.017,11.397,1.668,16.497c0.393,0.746,1.459,0.158,1.278-0.586
				c-1.288-5.285-2.419-10.256-1.75-15.743C444.667,838.488,443.513,838.319,443.387,838.999L443.387,838.999z"/>
		</g>
		<g>
			<path fill="#A44F34" d="M469.051,878.449c6.7-4.125,13.485-8.367,19.365-13.623c0.654-0.584-0.288-1.593-0.986-1.136
				c-6.544,4.28-12.708,9.134-19.194,13.51C467.437,877.738,468.234,878.952,469.051,878.449L469.051,878.449z"/>
		</g>
		<g>
			<path fill="#A44F34" d="M437.392,918.058c4.008-5.228,8.344-10.159,12.713-15.085c0.341-0.384-0.298-0.992-0.664-0.625
				c-4.686,4.692-8.871,9.855-12.845,15.157C436.22,918.006,437.013,918.552,437.392,918.058L437.392,918.058z"/>
		</g>
		<g>
			<g>
				<path fill="#A44F34" d="M411.129,1076.579c-2.739-1.526-4.661-3.743-5.661-6.721c-1.013-3.017-0.713-6.135-1.392-9.196
					c-0.156-0.705-1.193-0.591-1.346,0.049c-1.482,6.195,1.097,15.223,7.926,16.953
					C411.289,1077.823,411.736,1076.917,411.129,1076.579L411.129,1076.579z"/>
			</g>
			<g>
				<path fill="#A44F34" d="M399.07,1079.017c-2.736-2.15-2.854-6.825-3.18-9.927c-0.344-3.277-0.025-6.711-0.63-9.928
					c-0.081-0.432-0.789-0.558-0.91-0.079c-1.102,4.355-0.182,9.501,0.608,13.867c0.492,2.719,0.975,5.462,3.559,6.864
					C399.058,1080.107,399.57,1079.41,399.07,1079.017L399.07,1079.017z"/>
			</g>
			<g>
				<path fill="#A44F34" d="M388.374,1077.823c-1.246-2.909-1.983-6.031-1.998-9.205c-0.01-2.159,0.725-4.301,0.393-6.42
					c-0.061-0.387-0.575-0.501-0.804-0.192c-3.156,4.248-0.768,12.207,1.306,16.444
					C387.637,1079.195,388.689,1078.556,388.374,1077.823L388.374,1077.823z"/>
			</g>
			<g>
				<path fill="#A44F34" d="M380.428,1075.345c-0.713-2.166-1.277-4.396-1.279-6.689c-0.001-2.135,0.948-4.111,0.893-6.192
					c-0.016-0.595-0.738-0.843-1.152-0.453c-3.371,3.177-1.929,10.52,0.335,13.846
					C379.625,1076.445,380.675,1076.095,380.428,1075.345L380.428,1075.345z"/>
			</g>
		</g>
		<g>
			<g>
				<path fill="#A44F34" d="M798.784,1045.836c2.402,1.25,15.158,10.393,9.016,13.745c-0.618,0.337-0.794,1.432,0.03,1.677
					c4.067,1.207,4.484-4.147,3.133-6.707c-2.429-4.602-6.797-8.089-11.509-10.103
					C798.545,1044.058,797.9,1045.376,798.784,1045.836L798.784,1045.836z"/>
			</g>
			<g>
				<path fill="#A44F34" d="M811.252,1043.449c0.984,2.146,2.478,3.78,4.03,5.527c2.259,2.544,3.267,4.748,3.012,8.185
					c-0.053,0.711,0.92,1.37,1.417,0.649c3.754-5.445-5.057-10.988-7.091-15.045
					C812.231,1041.989,810.887,1042.654,811.252,1043.449L811.252,1043.449z"/>
			</g>
			<g>
				<path fill="#A44F34" d="M816.977,1041.931c3.272,3.581,8.755,9.074,7.915,14.251c-0.128,0.791,0.9,1.293,1.49,0.81
					c4.851-3.975-5.574-13.655-8.193-16.22C817.511,1040.108,816.33,1041.223,816.977,1041.931L816.977,1041.931z"/>
			</g>
			<g>
				<path fill="#A44F34" d="M824.088,1042.117c1.631,1.143,3.057,2.481,4.235,4.091c1.036,1.417,1.534,3.666,2.845,4.783
					c0.351,0.299,1.012,0.223,1.104-0.31c0.316-1.845-1.307-3.963-2.364-5.36c-1.325-1.75-2.95-3.224-4.787-4.417
					C824.281,1040.36,823.238,1041.522,824.088,1042.117L824.088,1042.117z"/>
			</g>
		</g>
	</g>
</g>
</svg>
