<?xml version="1.0" encoding="utf-8"?>
<!-- Designed by Vexels.com - 2019 All Rights Reserved - https://vexels.com/terms-and-conditions/  -->
<svg version="1.1" id="Layer_1" xmlns="http://www.w3.org/2000/svg" xmlns:xlink="http://www.w3.org/1999/xlink" x="0px" y="0px"
	 viewBox="0 0 1200 1200" enable-background="new 0 0 1200 1200" xml:space="preserve">
<g>
	<g>
		<path fill="#A6CDD9" d="M490.04,1086.543c6.031,23.147,97.099,46.018,123.545,20.899s80.186,24.804,109.93,1.387
			s-62.529-439.704-107.71-456.927S444.577,912.063,490.04,1086.543z"/>
		<g>
			<path fill="#E69874" d="M610.21,758.718c2.595,31.753,2.749,75.108-5.64,88.841c-8.388,13.733-29.018,55.474-23.62,90.634
				c5.397,35.16,1.961,65.15-3.056,74.418c-5.017,9.268-14.546,28.887-9.833,40.135c4.713,11.248-23.352,76.884,6.685,81.991
				c0,0,10.149,2.197,21.158-2.137c0,0,4.804,5.005,12.691-0.304c0,0,6.347,4.266,11.84-1.004c0,0,3.58-1.609,3.562-12.903
				c-0.018-11.294-16.069-23.588-20.002-50.638c-3.933-27.051,4.888-21.186,1.256-48.704c0,0,36.059-103.492,44.447-132.277
				c1.119-3.839,2.326-7.683,3.565-11.503c-3.09-49.121-21.435-96.976-39.897-143.74
				C612.178,739.745,611.116,748.768,610.21,758.718z"/>
			<path fill="#E89F7E" d="M552.916,772.771c5.732,31.339,10.188,74.465,3.203,88.963c-6.985,14.498-23.371,58.08-14.512,92.531
				s8.416,64.634,4.343,74.354c-4.073,9.72-11.609,30.188-5.803,40.912s-11.489,69.9,18.906,72.001c0,0,6.198,10.1,16.722,4.696
				c0,0,5.277,4.504,12.598-1.562c0,0,6.739,3.615,11.682-2.174c0,0,14.598,4.704,13.46-6.533
				c-1.138-11.237-29.526-28.537-36.124-55.064c-6.598-26.527,2.763-21.567-3.582-48.588c0,0,25.612-106.559,31.103-136.034
				c5.491-29.475,15.765-59.816,10.176-74.954c0,0,10.379-82.38-2.054-118.108C600.6,667.483,551.681,628.03,552.916,772.771z"/>
			<path fill="#ECB69B" d="M565.827,863.655c-5.142,8.35-11.825,23.252-14.152,34.222c-13.236,56.464,17.485,120.851-11.33,172.127
				c5.153,11.804-11.294,69.454,18.708,71.528c0,0,6.198,10.101,16.723,4.696c0,0,5.277,4.504,12.598-1.561
				c0,0,6.739,3.615,11.682-2.174c0,0,14.598,4.704,13.46-6.533c-1.138-11.236-29.525-28.537-36.123-55.064
				c-6.598-26.527,2.763-21.567-3.582-48.588c0,0,25.612-106.559,31.103-136.034c2.902-15.576,7.121-31.372,9.648-45.06
				c1.714-25.136-5.524-106.053-28.351-125.599C548.089,798.274,578.246,833.497,565.827,863.655z"/>
		</g>
		<path fill="#A6CDD9" d="M767.768,531.698c0,0-13.107,24.949-23.174,37.427c-10.067,12.479-55.693,2.844-63.194-29.459
			c-7.501-32.303-15.143-53.556-26.667-73.321c-11.524-19.766-145.62-96.255-145.62-96.255S493.632,511.4,444.686,526.996
			c0,0-19.814-1.206-44.889-31.836c0,0-10.072,186.105,8.573,375.886c3.035,32.054,30.148,13.132,40.006-19.52
			c9.858-32.652,101.278-211.476,139.081-215.723s114.384,272.61,133.426,262.596c19.042-10.014-4.467-50.682,31.126,9.043
			c35.592,59.725,9.293-96.336,26.345-150.989C795.406,701.8,794.765,536.427,767.768,531.698z"/>
		<g>
			<path fill="#E69874" d="M524.354,271.45c-15.831,5.945-56.754-3.603-69.584,33.112s-5.902,110.798-23.85,119.561
				s-22.551,20.712-31.993,34.92c-9.443,14.207-13.987,52.708,11.898,34.515c25.886-18.193,53.158-48.044,53.158-48.044
				c15.115-25.262,37.618-88.433,37.618-88.433c7.869,12.639,8.955,28.324,8.955,28.324l134.153-14.547
				c0,0,33.165,59.188,45.331,77.703s80.727,89.448,80.727,89.448c6.58,26.648,28.958,31.949,28.958,31.949
				c5.099,7.865,15.327,15.894,15.327,15.894s10.643,18.325,15.16,23.333c4.517,5.008-0.381-15.419-0.381-15.419
				s2.262-7.091,9.752,6.718c9.054,22.78,17.93,16.293,17.93,16.293c5.263,9.862,11.288,7.808,15.037,10.559
				c3.749,2.751-20.675-42.589-20.675-42.589c6.561,8.541,18.199,6.933,23.012,7.62c4.813,0.687-17.829-19.953-17.829-19.953
				c-26.544-14.655-71.473-50.379-89.289-88.968s-46.182-59.322-46.182-59.322c-25.43-75.53-54.18-135.202-80.532-137.877
				c-26.351-2.675-47.017-55.335-47.017-55.335l-47.078-7.019L524.354,271.45z"/>
			<g>
				<path fill="#ECB69B" d="M595.742,243.218c-16.003,11.922-38.861,12.031-55.235-0.614l-16.153,28.846
					c-15.831,5.945-56.754-3.603-69.585,33.111c-12.83,36.715-5.902,110.798-23.85,119.561
					c-17.948,8.763-22.551,20.713-31.993,34.92c-9.443,14.207-13.987,52.708,11.898,34.515
					c25.886-18.193,53.158-48.044,53.158-48.044c2.021-3.378,4.176-7.447,6.39-11.939c7.269-26.301,18.209-52.153,24.424-81.161
					c0-1.916,6.804,4.667,6.804,4.667c7.869,12.639,8.955,28.325,8.955,28.325l72.62-7.875
					c16.939-30.238,22.091-70.955,34.815-103.965C607.857,263.745,599.855,250.653,595.742,243.218z"/>
				<path fill="#ECB69B" d="M857.057,572.413c-26.545-14.655-71.474-50.379-89.289-88.968
					c-17.815-38.589-46.182-59.322-46.182-59.322c-13.772-40.904-28.517-77.132-43.328-102.2
					c8.223,37.399-7.393,78.008,9.645,112.084c20.125,38.014,69.63,61.337,82.08,103.188c0.511,0.53,0.785,0.813,0.785,0.813
					c6.58,26.648,28.958,31.949,28.958,31.949c5.099,7.865,15.327,15.894,15.327,15.894s10.643,18.325,15.16,23.333
					c4.518,5.008-0.381-15.419-0.381-15.419s1.592-4.907,6.483,1.524c4.967-7.492-4.05-14.625-1.542-17.133
					c7.019-4.679,12.029,4.716,18.485,9.169c-0.861-1.611-1.383-2.58-1.383-2.58c6.561,8.541,18.199,6.933,23.012,7.62
					C879.698,593.054,857.057,572.413,857.057,572.413z"/>
			</g>
		</g>
		<g>
			<path fill="#CDEBE6" d="M507.553,370.475c0,0,105.145-22.507,137.156,0.382c0,0,7.742,37.018,0,63.004
				c0,0,23.018,88.374,24.991,123.124c1.974,34.75-5.341,188.79,37.353,300.071s31.621,185.933,61.743,223.534
				c30.122,37.601,81.366,40.324,56.329,66.475c-12.159,9.283-28.905-6.259-50.612-8.158c-21.707-1.899-32.963-8.125-33.548-23.786
				c0,0-22.721,17.277-57.463,1.584c0,0-68.525,0.089-60.262-151.994c8.262-152.083,0.183-216.782-34.997-266.969
				c0,0-16.075,91.884-39.969,138.166c-50.468,96.623,21.631,184.429-25.187,244.681c-23.615,27.44-146.207,106.034-195.384,33.427
				c-17.567-28.324,40.874-40.013,56.065-68.7c15.191-28.687,72.428-102.017,89.544-288.865
				c17.117-186.848,26.454-290.987,55.737-313.845c9.38-7.153-7.353-1.125-12.923-29.164
				C510.556,385.405,507.553,370.475,507.553,370.475z"/>
			<path fill="#DDF4F0" d="M783.095,1122.115c-35.357-46.237-84.314-84.314-87.033-141.429c0-57.116-21.758-106.072-32.638-163.188
				c-13.599-70.715-21.758-135.99-19.039-206.704c-24.478,8.159-16.319,40.797-40.797,48.956c5.44-24.478,2.72-51.676,19.039-73.434
				c-5.44-2.72-13.599,0-16.319,2.72C548.44,641.872,502.244,699.392,471.957,770.15c-18.586,176.747-73.375,247.193-88.189,275.167
				c-15.191,28.687-73.632,40.376-56.065,68.7c5.96,8.8,13.006,15.362,20.816,20.08c28.996,0.723,62.195-26.98,86.442-41.901
				c16.319-10.879,21.758,8.159,13.599,21.758c5.44,2.72,10.879-2.72,13.599-2.72c10.879-10.879,21.758-27.198,38.077-21.758
				c3.728,0.932,5.515,3.16,6.286,6.101c7.331-5.683,13.051-10.903,16.565-14.987c46.819-60.253-25.281-148.058,25.187-244.682
				c23.894-46.282,39.969-138.166,39.969-138.166c35.18,50.188,43.26,114.886,34.997,266.969
				c-8.262,152.083,60.262,151.994,60.262,151.994c7.659,3.46,14.732,5.314,21.109,6.107c-0.404-3.12-1.299-6.141-3.11-8.858
				c-29.918-43.517-65.275-95.193-48.956-149.589c35.357,43.517,35.357,108.792,87.033,144.149c3.766,1.883,4.92,8.978,3.472,15.874
				c4.196,8.982,14.698,13.052,31.463,14.519c4.404,0.385,8.593,1.344,12.592,2.531
				C789.022,1134.282,788.051,1127.071,783.095,1122.115z"/>
			<path fill="#DDF4F0" d="M584.55,461.205c-8.159-5.44-27.198,0-38.077-16.319c-7.502,5.627-16.297,8.662-24.603,5.547
				c-20.2,28.688-29.849,106.408-41.879,233.797c23.908-53.19,55.668-101.791,85.52-152.311
				C579.11,507.441,603.589,480.244,584.55,461.205z"/>
			<path fill="#DDF4F0" d="M549.193,436.727c0-8.159-8.159-13.599,0-21.758c2.72,5.44,5.44,10.879,10.879,8.159
				c22.013-14.675,26.43-38.152,31.053-62.511c-39.697,0.479-83.572,9.858-83.572,9.858s3.003,14.93,8.573,42.969
				c2.112,10.632,5.828,16.361,9.119,19.772C532.108,431.363,539.734,433.574,549.193,436.727z"/>
		</g>
		<path fill="#F4EFDE" d="M623.241,276.816c0,0,25.623,2.434,41.75,18.603c0,0,16.62-1.813,15.458,19.137
			c-1.161,20.95,4.856,153.119-65.655,245.645s-135.151,102.8-143.454,215.742c0,0-17.185-38.283-9.507-76.862
			c0,0-5.38-33.082,3.753-53.863c0,0-5.787-61.179,8.297-77.275c14.085-16.096,0.285-31.937,14.709-37.803
			c0,0-6.738-9.677,12.432-26.578C520.194,486.661,607.368,400.811,623.241,276.816z"/>
		<path fill="#FCF8EA" d="M667.902,295.51c-1.712-0.208-2.912-0.091-2.912-0.091c-1.844-1.849-3.822-3.498-5.863-5.004
			c-1.607,6.804-3.863,13.213-3.863,18.482c0,35.357-8.159,70.715-32.638,92.473c-2.72-13.599,5.44-24.478,10.879-35.357
			c-8.159,2.72-5.44-8.159-10.879-8.159c10.975-20.12,10.858-46.378-1.964-64.736c-20.967,115.172-101.322,194.296-119.64,210.445
			c-19.17,16.901-12.432,26.578-12.432,26.578c-10.548,4.29-6.012,13.916-8.315,25.072c25.347-22.58,54.529-41.074,68.916-72.248
			c13.599,27.198-27.198,54.396-46.236,67.995c-18.468,13.192-29.887,28.948-37.693,46.327c-2.086,22.413,0.322,47.933,0.322,47.933
			c-5.63,12.811-5.743,30.288-5.003,41.816c17.837-39.486,30.655-89.132,69.573-106.158c-2.72,19.039-24.478,27.198-24.478,46.236
			c62.555-43.517,84.314-111.512,114.231-179.506c5.44,27.198-8.159,48.956-13.599,73.434
			C661.123,459.076,680.431,374.14,667.902,295.51z"/>
		<g>
			<path fill="#BB7826" d="M567.68,307.394c0,0,13.585,13.592,29.631-7.221l7.218,14.113c0,0-21.62,34.026-52.055-1.621
				L567.68,307.394z"/>
			<path fill="#D09D33" d="M567.68,307.394l-15.207,5.271c21.355,25.011,38.356,15.725,46.608,7.956
				c-3.681-3.902-7.016-8.036-9.2-12.937C577.286,316.997,567.68,307.394,567.68,307.394z"/>
		</g>
		<path fill="#E69874" d="M395.412,476.485c2.205-4.215,15.611-5.083,15.412,9.738c-0.199,14.822,2.421,21.478-6.746,15.956
			C394.911,496.656,389.566,487.658,395.412,476.485z"/>
		<path fill="#BB7826" d="M377.29,611.515l3.695-219.918c0,0,8.085-12.125,17.301,1.136l-3.712,218.523L377.29,611.515z"/>
		<path fill="#CDEBE6" d="M799.724,525.189c0,0-19.936,14.207-24.99,23.548c0,0-19.72-1.197-11.622-13.522
			c8.098-12.325,14.418-28.878,26.868-22.854C802.43,518.385,799.724,525.189,799.724,525.189z"/>
		<path fill="#EFDCBB" d="M539.518,213.05c0,0,33.63,54.13,37.051,73.196c3.421,19.065,1.222,32.968-25.386,31.48
			s-29.762,31.792-14.527,45.981c0,0-32.514-10.916-7.468-63.534c11.029-23.75-33.622-15.161-44.037-28.723
			c-10.415-13.561-10.513-19.584,2.748-49.447c13.261-29.863-8.45-71.229,19.967-103.62c28.417-32.39,114.97-50.064,121.645,48.139
			c0.431,22.617-9.163,22.657,4.921,45.822s42.671,68.849,3.458,88.907c0,0,35.616,56.873-9.971,49.978
			c0,0-7.594,5.758-12.542,2.163c0,0,17.073-19.86-6.01-31.303c-23.082-11.443-22.128-46.713-22.128-46.713
			s-12.247-15.74,1.692-41.386C602.869,208.346,539.518,213.05,539.518,213.05z"/>
		<g>
			<path fill="#E69874" d="M542.357,218.297c0,0-14.581-20.022-4.474-57.041s30.351-51.428,45.819-50.463
				s29.345,55.065,24.552,77.82c-4.793,22.755-14.491,49.159-32.461,53.674C557.822,246.801,542.357,218.297,542.357,218.297z"/>
			<path fill="#ECB69B" d="M577.476,111.221c-3.81,0.728-7.771,2.359-11.701,4.924c-4.043,20.621-11.831,39.546-24.742,56.761
				c-4.46,6.69-6.146,14.763-6.058,23.446c1.908,14.375,7.381,21.944,7.381,21.944s15.466,28.505,33.436,23.99
				c17.97-4.515,27.668-30.919,32.461-53.674c0.639-3.033,0.937-6.633,0.953-10.58C592.78,158.013,584.917,135.742,577.476,111.221z
				"/>
		</g>
		<path fill="#E89F7E" d="M569.906,199.206l9.638,6.853c0,0,10.593-2.992,10.983-8.066
			C587.456,193.701,574.137,195.574,569.906,199.206z"/>
		<path fill="#E48B85" d="M561.625,217.001c0,0,16.149-14.499,25.533,1.296c0,0-0.034,10.35-12.795,9.953
			C561.601,227.852,561.625,217.001,561.625,217.001z"/>
		<path fill="#F8E6C8" d="M581.407,119.575c0,0,16.085,34.136,26.847,44.765c10.761,10.628,7.123,41.719,7.123,41.719
			s16.915-21.184,15.135-44.803c-1.781-23.619-48.822-119.673-115.623-16.687c-11.161,23.376-5.459,50.182-12.186,64.319
			c-6.727,14.137-37.16,60.634,15.772,77.358c15.039,7.358,0.425,11.535-7.663,22.325c-8.089,10.789,0,27.244,0,27.244
			s2.42-21.033,18.239-28.11c15.819-7.077,18.167-33.876-1.348-49.355c-19.516-15.478-16.09-74.763,6.539-91.218
			C556.868,150.677,573.81,138.224,581.407,119.575z"/>
		<path fill="#BB7826" d="M503.591,123.859c0,0,99.392-44.199,122.198,17.894c0,0,6.96-15.294-5.771-28.99
			s13.662-14.56,3.628-30.643c-10.034-16.083-44.934-45.332-97.017-25.413s-23.615,39.922-21.763,45.541
			S489.884,123.859,503.591,123.859z"/>
		<path fill="#D09D33" d="M380.985,391.597l-3.695,219.918l10.479-0.157c3.574-74.028,4.004-149.498,6.158-223.178
			C386.666,383.14,380.985,391.597,380.985,391.597z"/>
		<path fill="#ECB69B" d="M363.304,487.178c11.066-9.213,39.713-6.258,42.736,7.401c2.329,9.757-1.962,7.599-1.962,7.599
			s5.302,7.705-2.08,14.052c0,0-1.602,1.386-4.175,8.359c0,0,2.797,7.499-16.396,13.915c0,0-7.43,0.539-11.509-9.007l-3.4-4.45
			c0,0-7.791-7.67-0.964-13.02c0,0-9.403-7.671,1.834-13.145C367.387,498.883,355.79,493.435,363.304,487.178z"/>
		<g>
			<path fill="#BB7826" d="M377.82,396.446h22.632c0,0,7.78-7.212,0-14.832l6.785-23.515c0,0-20.269-10.471-37.319,3.883
				l9.255,18.212C379.173,380.193,370.773,384.556,377.82,396.446z"/>
			<circle fill="#E4C550" cx="387.788" cy="333.745" r="32.062"/>
			<path fill="#F0D054" d="M399.604,352.413c13.181-8.787,16.884-24.669,12.837-39.157c-5.881-7.069-14.74-11.572-24.654-11.572
				c-17.707,0-32.061,14.355-32.061,32.062c0,7.193,2.397,13.809,6.397,19.158C373.713,359.384,386.656,361.045,399.604,352.413z"/>
		</g>
		<circle fill="#F3DB7C" cx="379.955" cy="325.721" r="18.407"/>
		<path fill="#D09D33" d="M623.646,82.12c-10.034-16.083-44.934-45.332-97.017-25.413c-29.06,11.114-33.036,22.251-30.557,30.904
			c40.337-26.869,92.229-22.462,127.002,8.243C625.856,92.507,627.639,88.521,623.646,82.12z"/>
		<path fill="#D09D33" d="M616.492,106.271c-32.462-21.547-79.5-21.409-111.884-0.912c-2.227,6.913-12.686,18.5-1.017,18.5
			c0,0,99.392-44.199,122.198,17.894c0,0,6.96-15.294-5.771-28.989C617.649,110.215,616.638,108.112,616.492,106.271z"/>
	</g>
	<g>
		<g>
			<g>
				<path fill="#DFCB97" d="M628.831,351.195c15.49-17.444-8.91-41.253-22.313-50.561c-0.673-0.467-1.422,0.643-0.821,1.17
					c12.904,11.315,33.969,29.572,21.896,48.351C627.045,351.006,628.12,351.996,628.831,351.195L628.831,351.195z"/>
			</g>
			<g>
				<path fill="#DFCB97" d="M633.094,352.214c17.633-6.041,2.382-34.3-6.185-41.585c-0.334-0.284-0.729,0.219-0.427,0.518
					c4.669,4.625,8.325,9.76,10.576,15.968c2.654,7.319,5.115,20.725-4.407,24.18C632.03,351.521,632.484,352.423,633.094,352.214
					L633.094,352.214z"/>
			</g>
			<g>
				<path fill="#DFCB97" d="M646.574,344.369c4.264-11.75,2.808-22.736-4.661-32.767c-3.314-4.451-7.352-7.887-11.8-11.184
					c-10.972-8.132-13.004-19.431-10.922-31.909c0.095-0.569-0.836-0.748-0.992-0.195c-2.788,9.848-4.384,19.631,3.01,27.699
					c4.398,4.798,10.695,7.672,15.316,12.334c9.348,9.43,14.046,22.949,9.735,35.941
					C646.195,344.486,646.504,344.562,646.574,344.369L646.574,344.369z"/>
			</g>
			<g>
				<path fill="#DFCB97" d="M626.367,212.805c6.771,13.524,13.143,27.662,15.421,42.747c1.646,10.907,3.474,40.639-11.733,44.206
					c-0.424,0.1-0.49,0.775,0.008,0.814c12.22,0.965,13.783-20.122,14.177-28.466c1.006-21.296-6.901-41.369-17.032-59.677
					C626.923,211.917,626.099,212.27,626.367,212.805L626.367,212.805z"/>
			</g>
			<g>
				<path fill="#DFCB97" d="M642.588,299.816c11.604-14.571,13.958-33.911,5.631-50.68c-0.21-0.424-0.88-0.178-0.695,0.272
					c6.903,16.8,5.019,35.046-5.709,49.864C641.457,299.768,642.212,300.289,642.588,299.816L642.588,299.816z"/>
			</g>
			<g>
				<path fill="#DFCB97" d="M538.136,163.247c-9.579,6.691-14.754,17.408-17.455,28.536c-3.813,15.71-7.014,33.197-4.74,49.319
					c0.123,0.87,1.408,0.863,1.392-0.053c-0.428-23.699,0.922-60.548,21.803-76.438C540.004,163.95,539.028,162.624,538.136,163.247
					L538.136,163.247z"/>
			</g>
			<g>
				<path fill="#DFCB97" d="M554.505,119.432c-10.996,11.6-20.996,24.073-29.451,37.662c-8.297,13.336-17.143,28.106-14.862,44.372
					c0.085,0.607,1.115,0.532,1.081-0.092c-1.602-29.84,24.642-60.658,43.938-81.14C555.68,119.737,554.979,118.932,554.505,119.432
					L554.505,119.432z"/>
			</g>
			<g>
				<path fill="#DFCB97" d="M598.885,152.826c11.259,11.793,14.964,27.264,15.804,43.075c0.03,0.559,0.865,0.463,0.936-0.041
					c2.172-15.389-4.859-33.04-15.952-43.719C599.196,151.682,598.415,152.335,598.885,152.826L598.885,152.826z"/>
			</g>
			<g>
				<path fill="#DFCB97" d="M527.137,212.23c-1.896,13.45,4.74,23.96,11.337,35.1c7.421,12.53,32.366,55.721,5.892,62.724
					c-0.748,0.198-0.566,1.474,0.229,1.362c14.301-2.011,14.125-17.123,11.386-28.282c-2.845-11.595-7.73-22.713-13.673-33.031
					c-6.976-12.112-15.381-22.924-14.28-37.785C528.071,211.742,527.218,211.659,527.137,212.23L527.137,212.23z"/>
			</g>
			<g>
				<path fill="#DFCB97" d="M542.249,237.068c6.741,12.081,40.66,59.028,14.485,69.427c-0.419,0.166-0.248,0.827,0.202,0.763
					c30.751-4.355-8.223-59.94-14.248-70.473C542.521,236.493,542.086,236.777,542.249,237.068L542.249,237.068z"/>
			</g>
			<g>
				<path fill="#DFCB97" d="M500.945,216.214c-5.189,11.235-10.968,24.409-5.917,36.78c2.453,6.006,6.96,9.963,12.23,13.585
					c3.363,2.311,7.21,4.02,10.582,6.256c3.478,2.028,6.596,4.525,9.354,7.491c7.524,8.303,5.676,15.873-5.546,22.71
					c-0.911,0.217-0.525,1.639,0.362,1.562c12.635-1.106,14.253-15.064,7.673-23.998c-6.49-8.812-17.753-11.338-25.614-18.452
					c-14.367-13.002-8.573-30.336-2.207-45.611C502.103,215.954,501.203,215.655,500.945,216.214L500.945,216.214z"/>
			</g>
			<g>
				<path fill="#DFCB97" d="M493.53,200.069c2.709-8.443,3.439-16.803,4.186-25.556c1.56-18.254,7.609-30.712,19.193-44.745
					c0.301-0.364-0.245-0.776-0.563-0.451c-6.855,7.011-13.243,14.529-16.491,23.932c-5.151,14.912-3.132,31.444-7.063,46.621
					C492.683,200.29,493.396,200.485,493.53,200.069L493.53,200.069z"/>
			</g>
			<g>
				<path fill="#DFCB97" d="M611.762,207.948c-4.199,14.243-9.748,27.691-16.301,40.998c-5.758,11.693-9.153,22.112-8.009,35.232
					c0.037,0.424,0.638,0.349,0.644-0.058c0.422-26.826,17.893-50.142,24.556-75.852
					C612.802,207.688,611.936,207.358,611.762,207.948L611.762,207.948z"/>
			</g>
		</g>
		<g>
			<g>
				<path fill="#AB7A1E" d="M513.583,101.126c-2.12,1.869-3.142,4.658-3.455,7.416c-0.274,2.41-0.504,6.318,1.967,7.588
					c0.489,0.251,1.009-0.148,1.214-0.558c0.873-1.74-0.204-4.079-0.095-5.997c0.148-2.614,1.212-4.936,2.045-7.371
					C515.597,101.217,514.335,100.463,513.583,101.126L513.583,101.126z"/>
			</g>
			<g>
				<path fill="#AB7A1E" d="M532.149,96.655c-1.448,1.91-1.084,5.054-1.037,7.354c0.043,2.13-0.328,5.231,1.821,6.344
					c0.243,0.126,0.628,0.087,0.836-0.094c1.784-1.553,0.878-4.378,0.791-6.51c-0.091-2.224,0.455-5.012-0.673-6.986
					C533.498,96.085,532.618,96.036,532.149,96.655L532.149,96.655z"/>
			</g>
			<g>
				<path fill="#AB7A1E" d="M552.188,94.699c0.8,2.674,1.675,5.202,1.763,8.023c0.051,1.635-0.7,3.587,0.706,4.779
					c0.391,0.331,0.8,0.42,1.274,0.212c2.154-0.945,1.649-4.219,1.478-6.167c-0.238-2.703-0.922-5.565-2.436-7.845
					C554.122,92.418,551.659,92.934,552.188,94.699L552.188,94.699z"/>
			</g>
			<g>
				<path fill="#AB7A1E" d="M575.286,93.963c0.529,3.8,1.542,7.465,1.84,11.312c0.184,2.374,3.819,1.817,3.231-0.549
					c-0.187-0.751-0.386-1.332-0.82-1.965c-0.354-0.517-1.189-0.41-1.517,0.059c-0.446,0.637-0.639,1.262-0.849,2.015
					c1.087,0.11,2.174,0.219,3.261,0.329c-0.34-4.044-0.932-8.406-2.84-12.041C576.992,91.984,575.12,92.77,575.286,93.963
					L575.286,93.963z"/>
			</g>
			<g>
				<path fill="#AB7A1E" d="M598.959,99.596c0.835,2.305,1.879,4.525,2.59,6.876c0.816,2.697,1.118,5.468,1.591,8.236
					c0.299,1.746,2.976,1.373,3.038-0.327c0.193-5.283-1.695-11.723-5.061-15.816C600.312,97.584,598.454,98.202,598.959,99.596
					L598.959,99.596z"/>
			</g>
			<g>
				<path fill="#AB7A1E" d="M615.982,113.222c2.852,4.6,3.884,9.346,3.168,14.696c-0.253,1.889,2.974,2.068,2.901,0.218
					c-0.217-5.546-1.869-10.904-4.984-15.521C616.625,111.959,615.556,112.535,615.982,113.222L615.982,113.222z"/>
			</g>
			<g>
				<path fill="#AB7A1E" d="M510.871,67.491c37.006-16.568,73.919-8.35,106.668,12.657c1.512,0.97,3.263-1.272,1.929-2.499
					c-28.958-26.626-75.42-28.267-109.5-11.958C508.793,66.253,509.692,68.019,510.871,67.491L510.871,67.491z"/>
			</g>
		</g>
		<g>
			<g>
				<path fill="#B36F38" d="M551.842,185.89c1.328,1.898,3.22,2.675,5.504,2.846c1.63,0.122,4.92-0.065,5.405-2.112
					c0.36-1.52-1.529-1.517-2.521-1.374c-1.111,0.16-2.073,0.427-3.21,0.267c-1.312-0.185-2.701-0.754-3.93-1.217
					C552.234,183.978,551.309,185.129,551.842,185.89L551.842,185.89z"/>
			</g>
			<g>
				<path fill="#AE914C" d="M566.188,165.357c-5.792-3.993-14.142-4.133-18.842,1.66c-0.668,0.823,0.509,1.988,1.367,1.487
					c4.985-2.914,10.938-4.366,16.363-1.556C566.148,167.502,567.249,166.089,566.188,165.357L566.188,165.357z"/>
			</g>
			<g>
				<path fill="#AE914C" d="M589.715,167.59c3.212-0.173,6.228-0.23,9.276,1.003c2.986,1.208,4.99,3.523,7.506,5.413
					c0.672,0.505,1.445-0.115,1.264-0.878c-1.665-7.027-12.361-9.942-18.393-7.38C588.523,166.106,588.728,167.644,589.715,167.59
					L589.715,167.59z"/>
			</g>
			<g>
				<path fill="#B36F38" d="M591.597,188.479c2.117,2.251,7,3.162,9.119,0.387c0.353-0.462,0.139-1.351-0.541-1.368
					c-1.209-0.03-2.402,0.305-3.612,0.288c-1.364-0.019-2.643-0.489-3.887-1.011C591.692,186.364,590.925,187.765,591.597,188.479
					L591.597,188.479z"/>
			</g>
		</g>
		<g>
			<path fill="#DB932E" d="M443.799,379.336c14.387,2.715,31.746,7.592,40.208,20.572c0.823,1.262,2.668,0.156,2.245-1.188
				c-4.531-14.408-29.098-20.943-42.236-22.285C442.114,376.241,442.003,378.997,443.799,379.336L443.799,379.336z"/>
		</g>
		<g>
			<path fill="#DB932E" d="M709.394,382.984c-12.395-5.972-31.68,5.7-34.776,18.445c-0.228,0.937,0.977,1.925,1.807,1.265
				c4.491-3.574,7.068-8.949,11.771-12.479c6.52-4.894,12.836-5.458,20.711-4.958C710.122,385.336,710.406,383.472,709.394,382.984
				L709.394,382.984z"/>
		</g>
		<g>
			<path fill="#D18B79" d="M584.993,186.934c1.386,3.508,2.483,7.594,4.629,10.722c0.168,0.245,0.613,0.114,0.566-0.201
				c-0.552-3.705-2.535-7.425-3.905-10.893C585.968,185.764,584.675,186.129,584.993,186.934L584.993,186.934z"/>
		</g>
		<g>
			<path fill="#CD715A" d="M561.679,218.943c4.605,0.98,9.364,0.993,14.058,0.987c4.066-0.005,8.258,0.288,12.213-0.723
				c0.817-0.209,0.551-1.302-0.115-1.486c-4.391-1.215-9.305-0.636-13.843-0.662c-3.994-0.023-7.991-0.264-11.982-0.185
				C560.88,216.897,560.457,218.683,561.679,218.943L561.679,218.943z"/>
		</g>
		<g>
			<path fill="#D58763" d="M551.993,232.981c3.491,5.948,10.857,10.308,17.547,11.342c0.913,0.141,1.347-1.236,0.458-1.586
				c-2.97-1.172-5.989-2.357-8.725-4.027c-3.052-1.863-5.482-4.356-8.182-6.644C552.469,231.537,551.573,232.265,551.993,232.981
				L551.993,232.981z"/>
		</g>
		<g>
			<g>
				<path fill="#D7D2C6" d="M487.519,532.636c24.409-12.153,43.346-35.352,58.999-57.073c0.527-0.731-0.435-1.698-1.059-0.979
					c-18.351,21.116-35.223,40.935-58.75,56.585C485.921,531.692,486.652,533.068,487.519,532.636L487.519,532.636z"/>
			</g>
			<g>
				<path fill="#D7D2C6" d="M669.658,422.335c-11.845,47.43-42.751,83.818-71.062,122.191c-0.659,0.894,0.611,1.889,1.344,1.067
					c31.549-35.354,61.413-75.765,71.182-122.969C671.317,421.68,669.89,421.407,669.658,422.335L669.658,422.335z"/>
			</g>
			<g>
				<path fill="#D7D2C6" d="M619.525,451.181c-27.445,64.774-63.036,122.056-106.462,177.227c-0.332,0.422,0.337,1.055,0.709,0.649
					c46.229-50.467,83.031-113.333,107.222-177.203C621.359,450.891,619.935,450.214,619.525,451.181L619.525,451.181z"/>
			</g>
			<g>
				<path fill="#D7D2C6" d="M458.962,722.599c1.953-23.252,14.803-41.474,26.347-60.877c0.393-0.661-0.645-1.444-1.119-0.808
					c-13.517,18.126-24.969,38.581-26.043,61.587C458.123,723.023,458.918,723.131,458.962,722.599L458.962,722.599z"/>
			</g>
			<g>
				<path fill="#D7D2C6" d="M498.707,608.661c8.766-14.771,23.962-26.791,34.837-40.201c10.716-13.214,20.844-26.987,29.292-41.768
					c0.428-0.749-0.674-1.329-1.149-0.645c-10.542,15.156-20.799,30.414-32.467,44.751c-10.031,12.324-23.474,23.462-31.285,37.32
					C497.64,608.638,498.394,609.188,498.707,608.661L498.707,608.661z"/>
			</g>
			<g>
				<path fill="#D7D2C6" d="M466.048,645.847c7.92-9.83,16.554-19.155,24.309-29.091c0.536-0.687-0.361-1.805-1.084-1.181
					c-9.451,8.162-17.592,18.868-24.49,29.225C464.211,645.66,465.372,646.686,466.048,645.847L466.048,645.847z"/>
			</g>
			<g>
				<path fill="#D7D2C6" d="M468.44,628.803c11.44-14.635,23.289-28.941,34.75-43.557c0.429-0.547-0.512-1.292-0.969-0.762
					c-12.137,14.094-23.43,28.904-34.627,43.749C467.198,628.76,468.039,629.317,468.44,628.803L468.44,628.803z"/>
			</g>
			<g>
				<path fill="#D7D2C6" d="M515.99,526.359c16.522-15.998,31.62-33.961,42.392-54.377c0.208-0.393-0.441-0.769-0.684-0.392
					c-12.546,19.474-25.766,37.941-42.204,54.355C515.197,526.24,515.695,526.645,515.99,526.359L515.99,526.359z"/>
			</g>
			<g>
				<path fill="#D7D2C6" d="M646.485,354.744c-17.113,36.229-37.762,69.69-59.734,103.108c-0.427,0.649,0.638,1.43,1.119,0.808
					c24.266-31.371,43.724-67.116,59.87-103.256C648.108,354.577,646.877,353.914,646.485,354.744L646.485,354.744z"/>
			</g>
			<g>
				<path fill="#D7D2C6" d="M662.401,297.321c2.629,20.966,2.202,41.559-0.256,62.508c-0.081,0.693,1.098,0.857,1.222,0.163
					c3.755-20.886,3.646-41.885,0.666-62.845C663.885,296.105,662.269,296.267,662.401,297.321L662.401,297.321z"/>
			</g>
		</g>
		<g>
			<g>
				<path fill="#ACCDCD" d="M523.458,380.361c14.04-2.843,28.145-3.575,42.341-5.098c0.823-0.088,0.827-1.241-0.014-1.293
					c-14.356-0.898-28.796,1.783-42.715,5.079C522.204,379.254,522.606,380.533,523.458,380.361L523.458,380.361z"/>
			</g>
			<g>
				<path fill="#ACCDCD" d="M550.552,436.215c-6.786-6.348-12.514-12.277-13.992-21.787c-1.01-6.496-0.636-13.068-1.979-19.542
					c-0.14-0.674-1.301-0.638-1.369,0.059c-0.793,8.132-0.966,18.192,1.777,26.012c2.559,7.295,8.513,12.244,14.46,16.793
					C550.442,438.51,551.41,437.018,550.552,436.215L550.552,436.215z"/>
			</g>
			<g>
				<path fill="#ACCDCD" d="M542.882,440.074c-7.852-2.797-12.553-10.683-16.945-17.26c-0.459-0.687-1.432-0.115-1.103,0.627
					c3.577,8.057,8.337,16.123,17.409,18.517C543.468,442.282,544.101,440.509,542.882,440.074L542.882,440.074z"/>
			</g>
			<g>
				<path fill="#ACCDCD" d="M580.004,376.634c1.55,0.51,2.99,1.276,4.256,2.309c1.084,0.885,1.894,2.073,2.977,2.93
					c0.49,0.388,1.377,0.017,1.13-0.687c-1.096-3.123-5.097-5.108-8.057-5.911C579.435,375.038,579.166,376.358,580.004,376.634
					L580.004,376.634z"/>
			</g>
			<g>
				<path fill="#ACCDCD" d="M541.319,444.204c-7.092,8.59-12.646,19.606-15.788,30.271c-0.26,0.881,1.127,1.25,1.506,0.469
					c4.963-10.237,10.401-19.906,15.852-29.862C543.401,444.148,541.938,443.455,541.319,444.204L541.319,444.204z"/>
			</g>
			<g>
				<path fill="#ACCDCD" d="M634.605,537.449c0.791,29.384-16.8,54.246-23.781,81.92c-3.451,13.679-4.722,27.726-8.821,41.276
					c-3.836,12.682-9.905,24.316-14.859,36.544c-0.593,1.463,1.399,2.49,2.199,1.108c6.293-10.879,11.29-22.925,15.075-34.896
					c4.881-15.436,6.107-31.575,10.444-47.113c7.416-26.57,22.958-50.32,21.036-78.854
					C635.843,536.611,634.582,536.609,634.605,537.449L634.605,537.449z"/>
			</g>
			<g>
				<path fill="#ACCDCD" d="M643.442,515.653c7.297,25.127,5.907,51.179,4.989,77.013c-0.863,24.277-0.764,48.559,0.556,72.82
					c2.652,48.752,9.75,97.282,22.32,144.477c0.313,1.175,2.156,0.872,1.884-0.345c-11.705-52.213-19.76-105.115-21.817-158.627
					c-0.923-24.011-0.264-47.911,0.415-71.911c0.616-21.781-0.15-42.928-7.099-63.767
					C644.427,514.527,643.208,514.848,643.442,515.653L643.442,515.653z"/>
			</g>
			<g>
				<path fill="#ACCDCD" d="M679.231,833.229c11.455,88.904,24.945,183.144,77.027,258.614c0.672,0.974,2.042-0.154,1.427-1.123
					c-49.336-77.709-63.596-168.309-77.207-257.656C680.371,832.359,679.139,832.514,679.231,833.229L679.231,833.229z"/>
			</g>
			<g>
				<path fill="#ACCDCD" d="M631.315,785.046c10.319,78.373,7.671,166.695,52.093,235.543c0.687,1.065,2.442,0.253,1.8-0.903
					c-40.38-72.719-40.948-154.651-52.87-234.847C632.239,784.171,631.227,784.384,631.315,785.046L631.315,785.046z"/>
			</g>
			<g>
				<path fill="#7FA1B5" d="M761.034,547.01c-8.641,31.766-18.927,82.839-54.462,95.078c-0.883,0.304-0.458,1.607,0.437,1.374
					c16.246-4.226,26.213-17.325,33.537-31.708c10.223-20.078,17.571-42.429,22.057-64.479
					C762.811,546.257,761.299,546.038,761.034,547.01L761.034,547.01z"/>
			</g>
			<g>
				<path fill="#7FA1B5" d="M770.03,552.234c-2.333,42.061-4.331,83.901-10.086,125.691c-4.951,35.949-16.762,79.424-58.409,86.64
					c-0.673,0.117-0.45,1.093,0.207,1.024c37.05-3.913,52.873-41.637,58.462-73.822c7.9-45.493,11.939-93.323,11.429-139.484
					C771.622,551.378,770.081,551.315,770.03,552.234L770.03,552.234z"/>
			</g>
			<g>
				<path fill="#7FA1B5" d="M674.424,673.719c5.062,11.113,11.382,24.21,24.421,27.394c11.82,2.886,21.935-5.76,30.218-13.037
					c20.432-17.951,34.534-42.692,39.001-69.54c0.12-0.72-0.942-1.076-1.122-0.327c-5.1,21.155-14.212,40.749-28.724,57.166
					c-7.339,8.303-17.677,19.616-28.696,22.911c-17.841,5.335-27.2-12.974-33.149-25.717
					C675.754,671.244,673.827,672.408,674.424,673.719L674.424,673.719z"/>
			</g>
			<g>
				<path fill="#7FA1B5" d="M401.376,532.373c6.485,61.442,14.451,122.815,22.746,184.033c0.15,1.111,1.852,0.883,1.725-0.232
					c-6.971-61.34-14.268-122.754-23.055-183.865C402.665,531.422,401.279,531.453,401.376,532.373L401.376,532.373z"/>
			</g>
			<g>
				<path fill="#7FA1B5" d="M401.064,515.154c5.78,12.514,11.798,24.897,18.178,37.115c4.8,9.192,9.366,21.696,17.106,29.021
					c10.041,9.503,23.121,3.047,26.924-8.846c0.218-0.682-0.896-1.154-1.188-0.48c-0.831,1.916-1.607,3.929-2.924,5.583
					c-9.415,11.826-19.571,4.892-25.848-3.696c-4.454-6.095-7.696-13.587-11.209-20.247c-6.783-12.861-13.269-25.881-19.545-38.995
					C402.122,513.697,400.632,514.219,401.064,515.154L401.064,515.154z"/>
			</g>
			<g>
				<path fill="#7FA1B5" d="M418.206,565.214c3.959,20.248,9.668,40.019,17.549,59.1c5.228,12.656,10.667,26.662,22.339,34.674
					c0.458,0.314,1.11-0.362,0.672-0.755c-14.381-12.868-21.127-31.366-27.571-49.159c-5.193-14.338-9.172-29.019-12.248-43.948
					C418.851,564.66,418.113,564.74,418.206,565.214L418.206,565.214z"/>
			</g>
		</g>
		<g>
			<g>
				<g>
					<g>
						<path fill="#D18B79" d="M814.479,586.159c2.731,2.358,5.748,4.08,9.132,5.325c3.735,1.374,7.056,1.966,10.467,4.165
							c0.589,0.38,1.259-0.37,1.063-0.948c-0.857-2.522-3.249-3.296-5.66-3.936c-5.131-1.36-9.596-3.092-14.159-5.881
							C814.57,584.424,813.836,585.603,814.479,586.159L814.479,586.159z"/>
					</g>
					<g>
						<path fill="#D18B79" d="M818.233,567.08c1.649,3.515,4.08,6.138,6.964,8.679c2.281,2.01,4.631,3.907,6.577,6.26
							c2.943,3.56,3.366,6.585,3.465,11.032c0.026,1.147,1.483,1.451,2.086,0.553c7.157-10.663-13.156-20.177-16.903-27.607
							C819.798,564.762,817.638,565.813,818.233,567.08L818.233,567.08z"/>
					</g>
					<g>
						<path fill="#D18B79" d="M854.473,587.336c-3.982-2.236-7.053-5.162-10.195-8.407c-1.191-1.23-2.381-2.409-3.918-3.209
							c-4.134-2.15-8.69-1.156-12.352-4.459c-0.857-0.773-2.422,0.112-1.959,1.267c1.929,4.821,7.394,3.891,11.53,5.267
							c3.587,1.194,5.516,4.348,8.306,6.649c2.425,2,5.137,3.237,8.108,4.238C854.79,588.951,855.153,587.718,854.473,587.336
							L854.473,587.336z"/>
					</g>
					<g>
						<path fill="#D18B79" d="M830.607,578.061c2.81,2.997,6.101,5.328,8.474,8.757c2.201,3.181,3.312,6.692,4.931,10.142
							c0.455,0.971,2.023,0.55,2.008-0.493c-0.109-7.613-6.9-17.687-14.378-19.76C830.908,576.504,829.935,577.344,830.607,578.061
							L830.607,578.061z"/>
					</g>
					<g>
						<path fill="#D18B79" d="M847.678,603.675c0.917,2.02,1.82,4.047,2.758,6.058c0.81,1.737,1.446,3.843,2.956,5.077
							c0.468,0.382,1.18,0.102,1.176-0.531c-0.012-1.765-1.06-3.309-1.828-4.861c-1.085-2.193-2.224-4.359-3.345-6.533
							C848.84,601.809,847.173,602.561,847.678,603.675L847.678,603.675z"/>
					</g>
				</g>
				<g>
					<g>
						<path fill="#D18B79" d="M370.538,498.856c9.036,0.187,17.844,1.276,26.82,2.099c1.03,0.094,1.46-1.534,0.409-1.828
							c-8.707-2.43-18.287-2.679-27.259-2.046C369.508,497.151,369.518,498.835,370.538,498.856L370.538,498.856z"/>
					</g>
					<g>
						<path fill="#D18B79" d="M366.992,514.008c7.359,1.188,14.729,2.25,22.165,2.81c3.646,0.274,6.435,0.415,9.306-2.019
							c0.797-0.676-0.071-2.199-1.018-1.603c-4.87,3.063-12.071,0.87-17.445,0.495c-4.24-0.296-8.471-0.631-12.702-1.041
							C366.433,512.565,366.086,513.861,366.992,514.008L366.992,514.008z"/>
					</g>
					<g>
						<path fill="#D18B79" d="M397.728,521.926c-4.211,0.902-8.278,2.339-12.508,3.205c-4.893,1.002-9.919,1.131-14.773,2.274
							c-0.653,0.154-0.616,1.164,0.029,1.298c8.73,1.819,20.162-0.586,27.912-4.891
							C399.367,523.268,398.879,521.679,397.728,521.926L397.728,521.926z"/>
					</g>
					<g>
						<path fill="#D18B79" d="M398.816,515.768c1.401-0.022,2.859,0.054,4.196-0.421c0.399-0.142,0.33-0.746-0.037-0.875
							c-1.318-0.464-2.775-0.382-4.154-0.406C397.593,514.045,397.563,515.787,398.816,515.768L398.816,515.768z"/>
					</g>
					<g>
						<path fill="#D18B79" d="M399.717,501.32c1.42,0.802,2.773,1.657,4.424,1.879c0.479,0.064,0.757-0.608,0.435-0.935
							c-1.167-1.184-2.691-1.762-4.187-2.413C399.423,499.43,398.821,500.814,399.717,501.32L399.717,501.32z"/>
					</g>
					<g>
						<path fill="#D18B79" d="M398.621,474.636c2.097,0.421,3.811,0.082,5.928,0.099c3.109,0.025,4.68,3.014,5.052,5.834
							c0.591,4.476,0.625,9.079,1.905,13.419c0.24,0.813,1.454,0.603,1.578-0.165c0.867-5.354,0.247-12.476-1.477-17.623
							c-1.907-5.693-8.573-2.688-12.766-3.291C397.722,472.748,397.532,474.417,398.621,474.636L398.621,474.636z"/>
					</g>
				</g>
			</g>
			<g>
				<g>
					<path fill="#D18B79" d="M617.872,789.581c-2.817,18.606-1.897,36.885-2.818,55.555c-0.797,16.156-6.35,31.561-7.525,47.678
						c-0.08,1.099,1.495,1.319,1.701,0.228c3.125-16.575,8.323-33.058,8.57-50.036c0.261-17.928-0.594-35.454,1.19-53.383
						C619.063,788.894,617.978,788.884,617.872,789.581L617.872,789.581z"/>
				</g>
				<g>
					<path fill="#D18B79" d="M599.532,921.537c-5.919,22.386-11.688,44.792-17.276,67.265c-4.237,17.038-11.861,36.513-7.551,54.154
						c0.293,1.201,1.938,0.874,1.861-0.328c-1.361-21.445,5.71-42.181,10.746-62.816c4.707-19.289,9.168-38.612,13.579-57.968
						C601.09,920.968,599.761,920.671,599.532,921.537L599.532,921.537z"/>
				</g>
				<g>
					<path fill="#D18B79" d="M613.883,1109.909c1.727,1.593,3.189,3.436,4.238,5.546c0.805,1.619,1.173,3.44,2.062,5.007
						c0.257,0.454,0.938,0.333,0.99-0.2c0.417-4.275-3.283-8.898-6.258-11.565C614.149,1108.011,613.132,1109.217,613.883,1109.909
						L613.883,1109.909z"/>
				</g>
				<g>
					<path fill="#D18B79" d="M607.78,1118.242c2.442,1.851,4.032,4.369,4.535,7.408c0.381,2.302-0.067,4.529,0.059,6.826
						c0.027,0.493,0.578,0.719,0.907,0.316c3.971-4.859-0.622-12.586-4.888-15.545
						C607.768,1116.814,607.191,1117.795,607.78,1118.242L607.78,1118.242z"/>
				</g>
				<g>
					<path fill="#D18B79" d="M590.688,1127.348c1.899,1.865,3.701,3.807,5.349,5.9c1.665,2.114,2.456,4.727,4.111,6.791
						c0.503,0.627,1.474,0.317,1.597-0.448c0.898-5.58-6.25-10.618-10.003-13.533
						C590.881,1125.389,589.934,1126.608,590.688,1127.348L590.688,1127.348z"/>
				</g>
				<g>
					<path fill="#D18B79" d="M580.094,1129.907c1.804,1.919,3.261,3.972,4.476,6.304c1.12,2.151,1.796,4.491,3.046,6.567
						c0.508,0.844,1.604,0.109,1.575-0.66c-0.188-5.077-4.552-9.932-8.193-13.1C580.389,1128.487,579.528,1129.306,580.094,1129.907
						L580.094,1129.907z"/>
				</g>
				<g>
					<path fill="#D18B79" d="M571.536,1131.046c2.128,2.331,3.604,5.177,4.625,8.156c0.764,2.231,0.897,4.675,2.036,6.758
						c0.241,0.441,1.034,0.452,1.229-0.045c2.217-5.677-3.046-12.316-6.94-15.853C571.828,1129.464,570.945,1130.4,571.536,1131.046
						L571.536,1131.046z"/>
				</g>
				<g>
					<path fill="#D18B79" d="M565.246,1134.615c1.118,1.683,1.922,3.537,2.318,5.522c0.344,1.719,0.218,3.412,0.644,5.115
						c0.179,0.714,1.248,1.141,1.698,0.388c2.41-4.038-0.254-9.491-3.378-12.391
						C565.686,1132.466,564.704,1133.798,565.246,1134.615L565.246,1134.615z"/>
				</g>
			</g>
		</g>
	</g>
</g>
</svg>
