<?xml version="1.0" encoding="utf-8"?>
<!-- Designed by Vexels.com - 2019 All Rights Reserved - https://vexels.com/terms-and-conditions/  -->
<svg version="1.1" id="Layer_1" xmlns="http://www.w3.org/2000/svg" xmlns:xlink="http://www.w3.org/1999/xlink" x="0px" y="0px"
	 viewBox="0 0 1200 1200" enable-background="new 0 0 1200 1200" xml:space="preserve">
<g>
	<g>
		<g>
			<path fill="#B46543" d="M555.997,1137.316c-3.955,7.08,12.797,23.772,51.466,1.516c38.669-22.256,8.425-22.998,63.961-47.67
				c13.348-6.12,4.475-18.685-1.367-17.361C664.215,1075.125,555.997,1137.316,555.997,1137.316z"/>
			<path fill="#E3D1B2" d="M659.083,1015.591c0,0,37.164-10.85,38.536,0c0.257,7.511-15.36,13.308-15.36,13.308
				s7.423,0.794,6.438,5.331c-0.985,4.536-4.716,7.222-13.347,5.837c0,0,4.677,4.087,3.002,6.495
				c-1.675,2.409-6.626,2.257-6.626,2.257s5.161,5.458-1.314,8.788C663.937,1060.937,644.77,1046.471,659.083,1015.591z"/>
			<path fill="#D79D72" d="M581.273,830.373c-0.212,3.596,7.474,38.142,23.37,51.636c0,0,12.576,123.238,8.672,161.84
				c0,0-13.479,43.694-23.05,53.302c-9.571,9.609-30.059,30.402-35.131,31.219c-5.072,0.817-3.821,8.464,3.134,12.253
				s41.465,0.614,52.153-12.093c10.688-12.707,17.571-26.312,32.517-32.956c14.946-6.645,33.765-9.485,32.412-25.594
				c-1.353-16.109-15.686-15.922-16.267-37.011c-0.581-21.089,2.55-57.303,11.677-86.999c9.127-29.696-13.083-89.353-20.895-99.585
				c0,0,8.181-57.03,3.894-75.917C649.471,751.583,588.003,716.281,581.273,830.373z"/>
			<path fill="#B46543" d="M613.524,1041.488c0,0,34.81-4.758,45.506-11.287l1.041,10.482c0,0-13.115,14.676-49.414,11.345
				L613.524,1041.488z"/>
			<path fill="#B46543" d="M577.147,1110.193c0,0,13.87-6.221,28.352,25.675c0,0,9.432-6.245,10.31-10.768
				c0.878-4.523-5.328-28.437-28.954-26.27C586.855,1098.83,579.937,1100.75,577.147,1110.193z"/>
			<path fill="#B46543" d="M638.065,1048.82c0,0,13.989,41.729,11.142,48.332s13.255-6.448,13.255-6.448
				s-13.495-34.819-13.946-44.142L638.065,1048.82z"/>
		</g>
		<g>
			<path fill="#B46543" d="M865.202,1049.8l4.469,4.276c0,0,33.329,0,52.241-32.829c16.611-28.836,3.348-33.794,27.455-75.132
				c8.16-12.407-4.637-22.235-7.975-18.481C938.053,931.389,865.202,1049.8,865.202,1049.8z"/>
			<path fill="#EAAA7C" d="M632.284,770.469c0,0,35.897,57.01,42.187,66.115s22.473,28.886,51.408,30.92
				c0,0,108.757,36.964,139.322,62.897c17.307,16.289,16.412,12.509,15.699,69.296c0,0-4.596,24.411-12.383,29.541
				s-20.529,10.908-3.317,20.561c7.79,3.039,17.526-5.12,29.443-10.961c11.918-5.84,22.571-16.191,30.614-51.386
				c8.043-35.195,20.481-42.336,18.121-56.016c-2.36-13.679-21.44-19.368-44.542-20.975c-58.711-41.851-78.071-100.33-131.078-91.4
				c0,0-24.418-9.83-34.261-20.109c-9.843-10.279-14.689-93.792-14.689-93.792S625.484,673.626,632.284,770.469z"/>
			<path fill="#F0C6A5" d="M943.38,931.438c-2.36-13.679-21.44-19.368-44.541-20.975c-58.711-41.851-78.072-100.33-131.078-91.399
				c0,0-24.418-9.83-34.262-20.109c-6.22-6.496-10.442-42.223-12.71-67.653c-20.008,7.379-48.023,1.702-67.146,15.088
				c-10.471,7.853,0.504,30.006-8.303,44.757c10.941,17.29,25.359,39.976,29.132,45.437c6.29,9.106,22.473,28.887,51.408,30.92
				c0,0,108.757,36.964,139.322,62.897c17.306,16.289,16.412,12.509,15.699,69.297c0,0-4.596,24.411-12.382,29.541
				c-7.787,5.13-20.529,10.908-3.317,20.561c7.79,3.039,17.525-5.12,29.443-10.961s22.571-16.191,30.615-51.386
				C933.303,952.259,945.74,945.118,943.38,931.438z"/>
			<path fill="#B46543" d="M873.656,940.027c0,0,21.726-24.86,20.994-33.346c0,0,4.625,3.056,11.814,3.307
				c0,0-2.825,26.773-26.976,38.6C879.487,948.588,877.139,941.895,873.656,940.027z"/>
			<path fill="#B46543" d="M899.274,930.192c0,0,28.895,21.07,34.764,33.251l7.353-13.259c0,0-24.35-23.385-39.065-26.049
				L899.274,930.192z"/>
			<path fill="#B46543" d="M874.453,1017.067c0,0,24.704,0.5,38.959,6.977l8.5-15.872c0,0-17.804-11.336-41.448-6.364
				L874.453,1017.067z"/>
			<path fill="#EFDCBB" d="M897.352,915.972c0,0,20.706-5.191-5.875-31.288c-3.954-4.353-6.066-24.719,48.961-32.085
				c14.966-2.544,13.751,10.164-2.333,17.72c0,0,23.234,2.248-1.989,10.837c0,0,18.375,2.938-2.126,11.513
				c0,0,6.042,3.598-4.399,13.721c0,0-2.827,17.396-28.382,13.544C897.05,917.935,897.352,915.972,897.352,915.972z"/>
		</g>
		<g>
			<path fill="#ECE7D7" d="M687.016,504.411c0,0,1.691,25.582,15.39,46.452c13.699,20.87,46.357,78.409,48.178,125.098
				c0,0-1.243,9.833-14.177,14.63c-7.656,3.684,2.849,18.326-14.869,20.821s-30.703,7.287-38.587,14.826s-17.031-3.2-17.031-3.2
				s-9.454,16.438-27.417,7.19c-17.963-9.248-7.378-248.752-7.378-248.752L687.016,504.411z"/>
			<path fill="#FCF8EA" d="M747.874,682.165c2.331-3.366,2.709-6.204,2.709-6.204c-1.82-46.689-34.479-104.228-48.177-125.098
				c-5.335-8.127-8.832-16.953-11.134-24.72c-8.71,0.193-17.419-2.499-26.129-6.854c20.123,37.371,36.444,78.73,34.496,123.612
				c0,0,0.835,17.063-12.89,14.466c-5.749,17.248,8.902,23.369,3.962,38.577c-3.591,8.902-16.296-14.281-19.17-8.531
				c-3.535,12.373,0.607,32.673,6.603,41.367c1.597-0.277,3.226-1.03,4.805-2.541c7.884-7.539,20.868-12.331,38.587-14.826
				c17.718-2.495,7.213-17.138,14.869-20.822c0.363-0.135,0.684-0.287,1.028-0.429c-8.27-33.983-16.729-60.327-24.566-96.901
				C733.043,621.505,741.56,647.562,747.874,682.165z"/>
		</g>
		<g>
			<path fill="#C29231" d="M689.556,485.308c5.033-5.1-8.371-10.809-2.541-20.523s0.232-15.232,0.232-15.232
				c6.62-7.698,0.043-14.14-5.836-18.345c-5.88-4.205-67.466-43.181-76.406-45.592c-22.117-5.967,4.405,67.184,26.117,95.861
				c21.712,28.677,48.639,38.246,55.893,26.524c6.874-11.107-4.154-20.901-4.154-20.901S685.914,488.455,689.556,485.308z"/>
			<path fill="#D4AD36" d="M689.316,446.272c2.619-6.245-2.882-11.472-7.905-15.064c-5.88-4.205-67.466-43.181-76.406-45.592
				c-7.33-1.977-9.296,4.762-7.887,15.665c16.78,13.107,32.318,28.91,50.776,43.266
				C658.444,450.877,679.819,454.094,689.316,446.272z"/>
			<path fill="#D4AD36" d="M689.556,485.308c5.033-5.1-8.371-10.809-2.541-20.523c0.114-0.189,0.195-0.366,0.3-0.552
				c-37.087,7.066-62.952-20.207-86.882-47.777c2.751,9.683,6.824,20.554,11.51,30.992c13.121,12.546,29.391,20.309,47.448,31.595
				c5.749,2.875-14.373,8.624-8.624,14.373c9.197,5.749,17.941,12.865,26.954,19.349c4.099-0.209,7.349-1.768,9.293-4.765
				c5.979-9.221-1.052-17.795-4.154-20.901C684.431,487.806,687.815,487.1,689.556,485.308z"/>
		</g>
		<g>
			<path fill="#EAAA7C" d="M547.943,150.14c0,0-7.638,17.32-2.772,33.044c-1.077,6.488-10.887,29.608-10.887,29.608l13.659,1.532
				l5.847,38.407h19.415c0,0,12.203,18.645,8.996,23.951c-3.207,5.306,39.986-18.509,72.916-2.15c0,0-12.014-34.082-11.798-48.551
				C643.536,211.511,643.749,105.832,547.943,150.14z"/>
			<path fill="#F0C6A5" d="M601.899,200.198c-8.624,0-22.998,2.875-22.998-2.875c-8.098-21.594-23.798-17.845-35.204-29.205
				c-0.356,4.768-0.095,9.996,1.473,15.066c-1.077,6.488-10.887,29.608-10.887,29.608l13.659,1.532l5.847,38.407h19.415
				c0,0,0.545,0.839,1.355,2.167c2.966-3.86,6.232-7.72,10.092-11.58C596.15,234.694,590.4,214.571,601.899,200.198z"/>
			<path fill="#F0C6A5" d="M630.646,234.694c-8.624-2.875-14.373-17.248-20.123-11.499c-13.755,11.004-9.101,37.787-31.35,40.071
				c2.529,5.178,4.578,10.849,3.028,13.415c-3.207,5.306,39.986-18.509,72.916-2.15c0,0-6.379-18.103-9.756-33.524
				C640.745,239.261,635.888,236.791,630.646,234.694z"/>
		</g>
		<g>
			<path fill="#A83127" d="M706.763,316.449c0,0,14.177-7.811,7.532-14.46c-6.645-6.649-58.299-34.918-73.431-38.588
				c-15.132-3.67-67.851,5.988-86.745,21.56c-18.894,15.572-17.503,51.666-22.649,62.922c-5.147,11.257-3.921,143.09-26.048,216.271
				s-33.658,227.164,21.07,229.922c0,0,7.957,13.064,32.827,17.926c11.516,1.624,16.177,26.308,27.2,27.084
				s11.36-28.646,28.264-29.672c16.904-1.026,26.443,10.388,26.115-86.41c0,0,31.346-37.299,29.957-65.719
				c0,0,19.995,0.045,20.078-23.677s-22.148-91.024-47.612-141.231s-54.413-113.506-41.391-168.109
				c13.022-54.603,77.137,71.56,94.24,65.085c17.102-6.475,10.744-53.321,10.744-53.321S723.253,336.074,706.763,316.449z"/>
			<path fill="#BC3F35" d="M706.763,316.449c0,0,14.177-7.811,7.532-14.46c-6.645-6.649-58.299-34.918-73.431-38.588
				s-67.851,5.988-86.745,21.56s-17.503,51.666-22.649,62.922c-5.146,11.256-3.921,143.09-26.048,216.271
				c-16.422,54.316-26.999,153.125-8.99,201.597c9.2,4.504,19.502,3.36,30.725-7.863c14.373-14.373-4.69-53.735,14.91-71.795
				c11.386-8.455,28.34,159.421,51.208,97.667c-20.123-91.99-58.679-204.441-28.435-230.195
				c13.693,83.208,34.257,73.269,60.129,142.261c11.499-66.118-20.195-116.17-37.443-182.288c0-8.624-5.749-17.248,2.875-25.872
				c37.371,37.371,53.293,115.817,64.717,134.667c16.599,21.291,25.977,3.77,18.649-25.428
				c-37.371-94.865-129.361-172.482-120.737-275.971c0-25.872,40.246-45.995,74.742-40.246c43.12,8.624,60.369,45.995,71.867,83.366
				c2.814-1.407,5.627-0.749,8.104-0.384c1.052-13.714-0.83-27.637-0.83-27.637S723.253,336.074,706.763,316.449z"/>
		</g>
		<path fill="#EFDCBB" d="M580.151,113.987c-5.127-7.331-1.586-25.356,29.786-30.498c31.373-5.142,50.861-18.182,61.332,2.804
			c4.113,10.229-21.307,15.871-30.085,14.348c0,0,8.055,14.083-8.15,15.924S596.516,137.386,580.151,113.987z"/>
		<path fill="#EFDCBB" d="M301.311,90.807c0,0-18.318-22.824-36.122-18.94c-17.805,3.884-23.387,19.017-9.221,19.037
			c14.166,0.02,12.437-5.936,17.877,5.776c5.44,11.712,22.416,9.95,27.467,5.268S301.311,90.807,301.311,90.807z"/>
		<path fill="#D4AD36" d="M367.271,271.807c0,0,14.845-11.294,13.95-22.441s-19.982-14.138-20.732-24.049
			c-0.75-9.911,12.015-12.19,4.341-32.319c-4.372-9.862-12.242-13.409-12.242-13.409s34.555-34.27,15.29-51.805
			c-9.897-9.746-19.438,0.012-19.438,0.012l5.748,5.526c0,0-8.142,2.635,0.095,6.472c8.237,3.837,2.62,9.48-0.191,14.167
			c-2.811,4.687-7.219,8.622-8.495,11.508c-2.546,5.76-3.812,3.224-3.812,3.224l-13.726-52.971
			c3.552-3.286,5.788-7.972,5.788-13.192c0-9.935-8.054-17.988-17.988-17.988c-9.934,0-17.988,8.054-17.988,17.988
			c0,9.701,7.685,17.587,17.296,17.953l14.36,53.11c0,0-14.989-2.173-16.035-18.142c0.066-6.24-5.643-5.691-5.643-5.691
			s6.613-6.963,3.333-10.505c-3.281-3.542-21.922-9.75-12.555,23.741c4.916,17.737,24.055,25.946,35.346,25.571
			c0,0-11.79,8.384-7.5,18.92c4.29,10.535,15.709,17.88,18.352,21.621c-7.338,10.594-18.136,35.064,6.457,45.733l16.414,57.294
			L406.598,474.4c0,0,11.562,0.528,13.787-6.27L367.271,271.807z M354.156,213.522c0,0-5.429-21.025-5.991-22.337
			c0,0,5.5-0.033,7.523,7.41C358.04,207.244,354.156,213.522,354.156,213.522z M359.158,241.362c0,0,5.489,0.751,9.668,7.01
			c4.994,7.48-4.869,12.988-4.869,12.988L359.158,241.362z"/>
		<path fill="#EFDCBB" d="M318.016,98.612c2.294-5.056,11.262-12.901-3.164-21.219c-4.781-2.643,3.714-38.287,48.8-24.045
			c4.888,2.744-11.425,8.541-20.633,6.384c0,0,8.264,6.359,6.384,9.342s-13.95,4.013-10.482,7.515
			c3.469,3.502,10.329,7.924,7.912,13.524S331.984,107.791,318.016,98.612z"/>
		<g>
			<path fill="#EAAA7C" d="M688.992,386.482c-6.629-11.132-20.048-63.625-34.105-77.225c-14.057-13.601-45.051-55.652-99.419,28.274
				c0,0-47.46,27.328-56.478,38.565c0,0-10.772-29.407-52.923-41.356c0,0-32.175-24.26-47.549-38.505c0,0-0.063-16.37-20.701-29.032
				c0,0-10.086,1.358-12.024,7.33c0,0-4.386,4.664-13.548,1.238c-9.162-3.426-17.548,6.332-16.382,9.819s8.694,8.395,7.598,14.663
				c-1.096,6.269-3.981,10.961,1.402,17.243c5.383,6.282,5.351,15.236,13.27,15.129s31.878,1.022,31.878,1.022
				s51.344,70.213,96.424,98.3c0,0,48.036-8.668,64.504-18.947c16.467-10.278,46.248-26.753,55.698-24.356
				c0,0,27.971,42.095,70.27,51.92L688.992,386.482z"/>
			<path fill="#F0C6A5" d="M688.946,386.4c-22.645-20.975-31.236-53.897-46.802-79.838c-4.691-8.209-11.795-14.944-20.099-19.502
				c-16.515-2.675-38.408,6.985-66.578,50.471c0,0-47.46,27.328-56.478,38.565c0,0-10.772-29.407-52.923-41.356
				c0,0-32.175-24.26-47.549-38.506c0,0-0.062-16.369-20.701-29.032c0,0-10.086,1.358-12.023,7.33c0,0-4.386,4.664-13.548,1.238
				c-8.672-3.243-16.635,5.318-16.475,9.201c3.177,3.45,7.547,5.348,13.155,7.218c-1.296,2.593-3.195,4.583-5.396,6.27
				c0.043,0.586,0.039,1.182-0.068,1.794c-0.83,4.748-2.679,8.593-1.192,12.908c5.528,2.124,12.092,2.966,9.531,10.65
				c11.794,1.685,26.539,3.377,34.998,9.691c1.962,0.087,3.213,0.145,3.213,0.145s5.638,7.703,14.786,18.999
				c27.655,19.046,49.921,42.858,79.239,63.155c14.373,8.624,34.496,2.875,51.745-2.875c31.622-11.499,57.494-37.371,94.865-31.622
				c-8.624,8.624-2.621,22.534,9.572,25.625c25.612,2.561,35.201,13.674,36.913,32.633l11.861-53.079
				C688.977,386.457,688.961,386.424,688.946,386.4z"/>
		</g>
		<g>
			<path fill="#BB7826" d="M590.855,199.473c-4.257,6.474-9.955,18.456-8.867,28.415c0,0-22.836-5.651-32.574-2.668
				c-2.862,1.02,0.215,26.171-5.318,38.317c0,0,20.912-2.57,38.106-9.678c17.194-7.109,12.181-8.126,13.502-18.642
				c1.321-10.516,7.713-33.546,14.234-39.382c0,0,9.126,8.044,18.209,2.216c0,0,0.466,6.825-1.16,11.627
				c-1.626,4.802,6.664,28.343,17.912,19.354c0,0,5.505,10.881,16.537,4.656s0-12.102,0-12.102s6.397-4.457,16.319-4.484
				c9.921-0.027,9.154-16.085-0.848-15.846c-7.406-5.422,11.074,0.081,10.365-9.113c-0.708-9.193-6.307-15.345-15.934-11.899
				l-0.18-2.976c0,0,7.358-7.019,4.225-11.146s-11.027-12.48-20.324-12.478c-9.297,0.002-12.333-60.631-50.518-35.609l-17.944,1.383
				c0,0-6.93-17.311-13.943-8.234s-16.377,8.94-22.266,1.219s-18.358-10.955-25.477,1.048s6.24,25.244,6.24,25.244
				s-10.265,4.551-8.474,13.83c1.791,9.28,10.469,9.844,10.469,9.844s7.659,5.03,12.288,2.418c0,0,7.486,12.868,18.112,1.419
				c0,0,3.87,9.3,9.659,7.271c0,0,6.027,6.827,11.843,7.036C585.048,180.515,573.411,189.661,590.855,199.473z"/>
			<path fill="#C47E27" d="M535.781,157.077c8.624-11.499,17.248,5.749,25.872,0c0-2.875,5.749-5.749,2.875-8.624
				c11.499-2.875,8.624,11.499,14.373,17.248s20.123-2.875,22.998,0c11.499,17.248,37.371,31.622,51.745,22.998
				c7.317-7.317,12.58-14.672,19.27-25.501c-3.927-4.245-10.44-9.555-17.855-9.553c-9.297,0.002-12.333-60.631-50.518-35.609
				l-17.944,1.383c0,0-6.931-17.311-13.943-8.234c-7.013,9.078-16.377,8.94-22.266,1.219c-5.89-7.721-18.358-10.955-25.477,1.048
				c-7.119,12.003,6.24,25.244,6.24,25.244s-10.265,4.551-8.474,13.83c0.344,1.783,0.945,3.238,1.687,4.435
				C528.392,158.503,532.838,158.549,535.781,157.077z"/>
			<path fill="#C47E27" d="M593.275,200.198c0,0-1.255,0-2.868,0c-4.198,6.607-9.471,18.069-8.42,27.69
				c0,0-22.836-5.651-32.574-2.668c-2.27,0.809-0.817,16.794-2.876,29.435C574.909,246.32,599.611,240.326,593.275,200.198z"/>
			<path fill="#BB7826" d="M547.943,214.324c0,0-6.386,9.961-5.843,11.92l22.74,1.644
				C564.84,227.888,564.742,213.056,547.943,214.324z"/>
		</g>
		<path fill="#A83127" d="M583.405,113.452l18.524,2.905c0,0,14.581,62.119,70.751,57.122c6.466-0.81,4.31,7.555-4.441,8.883
			S586.649,167.313,583.405,113.452z"/>
		<path fill="#F8E6C8" d="M620.21,156.76c0,0,34.878,0.483,13.894-27.837c0,0,62.341-48.764,107.29,16.541
			c3.776,5.225-11.769,6.51-17.258,0.669c0,0,1.446,12.355-15.096,4.556c0,0,4.473,8.452-7.19,4.426
			c-7.126-2.588-10.832-7.17-10.832-7.17s-0.883,6.198-8.604,5.208c0,0,3.074,6.165-1.581,7.41
			c-4.656,1.245-11.159-2.709-11.159-2.709s0.211,5.335-5.548,6.241c-5.759,0.906-5.759,0.906-5.759,0.906s-0.499,5.017-6.858,5.012
			c-6.359-0.005-9.782-6.03-13.008-0.98C638.501,169.032,624.703,169.518,620.21,156.76z"/>
		<path fill="#EAAD90" d="M540.264,198.002c0,0-5.761,12.361-5.98,14.79c-0.219,2.428,14.804,2.012,15.917,1.455
			C551.314,213.69,548.827,199.701,540.264,198.002z"/>
	</g>
	<g>
		<g>
			<path fill="#A16417" d="M550.869,180.194c8.387-0.01,14.568,1.653,21.964,5.548c0.945,0.498,1.583-0.916,0.876-1.543
				c-5.92-5.254-15.236-7.55-22.952-5.925C549.722,178.491,549.732,180.195,550.869,180.194L550.869,180.194z"/>
		</g>
		<g>
			<path fill="#A16417" d="M552.494,187.003c3.747-0.306,7.363,0.184,11.09,0.413c0.542,0.033,0.727-0.758,0.198-0.941
				c-3.596-1.245-7.576-1.184-11.321-0.814C551.609,185.745,551.626,187.074,552.494,187.003L552.494,187.003z"/>
		</g>
		<g>
			<path fill="#A16417" d="M553.17,186.978c-0.012,1.559-0.184,3.13,0.758,4.467c0.398,0.565,1.324,0.367,1.65-0.143
				c0.812-1.271,0.659-2.77,0.648-4.22C556.212,185.122,553.185,185.001,553.17,186.978L553.17,186.978z"/>
		</g>
	</g>
	<g>
		<g>
			<path fill="#AA6919" d="M608.611,168.839c-21.72,12.251,7.728,46.074,22.519,29.845c6.385-7.005-0.142-17.029-7.827-19.572
				c-2.581-0.854-5.761-0.984-7.659,1.266c-1.867,2.215-1.405,5.07,0.895,6.569c0.879,0.573,2.114-0.621,1.297-1.421
				c1.725-4.291,3.855-5.489,6.392-3.593c1.612,0.675,3.002,1.682,4.172,3.022c3.149,3.39,3.88,8.322,0.67,11.905
				c-4.608,5.143-12.102,3.236-17.163-0.386c-8.504-6.086-12.819-19.729-2.587-26.466
				C610.055,169.524,609.379,168.405,608.611,168.839L608.611,168.839z"/>
		</g>
		<g>
			<path fill="#AA6919" d="M628.286,199.083c1.82,7.705-3.384,16.657,1.346,23.78c3.213,4.839,10.196,4.271,12.741-0.839
				c0.327-0.657-0.526-1.203-0.97-0.607c-3.72,5.001-9.63,2.311-11.004-2.3c-0.615-2.062-0.582-4.163-0.421-6.276
				c0.391-5.145,1.652-9.381-0.508-14.252C629.161,197.895,628.124,198.398,628.286,199.083L628.286,199.083z"/>
		</g>
		<g>
			<path fill="#AA6919" d="M644.642,214.007c8.206-3.698,17.728,1.798,25.808-2.345c3.613-1.852,6.459-6.06,3.106-9.562
				c-2.25-2.35-6.273-3.248-9.297-4.172c-2.692-0.823-7.455-2.84-10.214-1.939c-4.573,1.494-1.846,5.773,1.378,7.122
				c1.08,0.452,1.691-1.078,0.879-1.737c-2.768-2.248,2.008-2.261,3.386-2.156c1.978,0.15,9.363,2.637,9.697,3.106
				c2.075,0.48,2.097,1.861,0.067,4.143c0.284,2.537-0.599,3.877-2.648,4.021c-1.648,0.631-4.407,0.405-6.211,0.349
				c-5.856-0.182-11.298-0.942-16.578,2.067C643.293,213.316,643.911,214.336,644.642,214.007L644.642,214.007z"/>
		</g>
		<g>
			<path fill="#AA6919" d="M609.563,170.185c-3.15-4.131-8.078-8.337-13.71-6.669c-2.042,0.605-3.242,1.864-4.821,3.125
				c-3.292,2.631-9.591,6.131-13.861,2.9c-1.329-1.672-2.658-3.344-3.987-5.017c4.422-7.091,7.696-8.15,9.822-3.176
				c-1.377-0.112-1.397,2.004-0.037,2.139c0.274,0.027,0.548,0.054,0.821,0.081c0.37,0.037,0.741-0.216,0.932-0.513
				c0.146-0.227,0.292-0.453,0.438-0.68c0.19-0.296,0.236-0.758,0.036-1.064c-2.456-3.773-7.156-9.602-12.115-5.618
				c-3.363,2.702-3.236,7.951-1.405,11.454c2.535,4.849,8.067,6.701,13.232,5.517c2.418-0.555,4.5-1.75,6.43-3.293
				c6.018-4.81,12.012-4.583,17.479,1.435C609.238,171.269,609.941,170.682,609.563,170.185L609.563,170.185z"/>
		</g>
		<g>
			<path fill="#AA6919" d="M560.782,129.766c-12.65-1.288-12.177-17.402-23.044-19.99c-7.237-1.724-11.025,6.215-10.631,12.296
				c0.38,5.857,5.132,14.342,11.821,14.756c2.027,0.125,3.656-0.754,4.34-2.756c1.116-3.267-1.666-5.905-3.941-7.732
				c-0.759-0.609-1.987-0.206-1.959,0.867c0.018,0.694,0.037,1.389,0.055,2.083c0.029,1.108,1.557,0.853,1.775-0.031
				c0.15-0.605,0.299-1.21,0.449-1.814c-0.642,0.186-1.284,0.372-1.926,0.559c2.549,1.282,2.229,3.159-0.961,5.632
				c-1.365-0.733-2.564-1.668-3.596-2.807c-1.671-1.815-2.919-4.238-3.523-6.631c-0.618-2.485-0.531-4.967,0.261-7.446
				c0.645-3.169,2.475-4.578,5.49-4.225c4.986-0.808,6.842,2.066,9.338,5.885c3.954,6.047,7.932,12.127,15.756,12.793
				C561.412,131.283,561.729,129.863,560.782,129.766L560.782,129.766z"/>
		</g>
		<g>
			<path fill="#AA6919" d="M559.995,139.773c-6.66-1.503-14.682,7.011-16.431,12.956c-2,6.8,4.505,16.003,11.573,16.859
				c6.635,0.803,10.923-8.092,7.079-13.279c-3.459-4.667-11.846-1.347-8.459,4.071c0.411,0.657,1.529,0.264,1.428-0.509
				c0.343,2.614,8.477,0.389,4.899,5.049c-3.27,4.258-6.867,1.928-9.348-0.07c-2.811-2.264-5.616-5.86-5.461-9.658
				c0.216-5.309,8.639-14.846,14.407-14.113C560.516,141.185,560.859,139.968,559.995,139.773L559.995,139.773z"/>
		</g>
		<g>
			<path fill="#AA6919" d="M577.162,123.271c-10.991-1.521-13.294,11.621-8.078,18.819c2.45,3.382,7.315,7.271,11.717,5.067
				c2.885-1.445,4.159-4.948,2.152-7.548c-0.596-0.772-1.834-0.085-1.484,0.833c0.084,0.749,0.168,1.498,0.252,2.246
				c-1.664,0.873-3.327,1.745-4.991,2.618c-1.35,0.013-3.419-1.77-4.313-2.648c-1.906-1.871-3.533-4.418-4.057-7.058
				c-1.119-5.64,2.444-11.493,8.644-11.081C577.709,124.566,577.879,123.37,577.162,123.271L577.162,123.271z"/>
		</g>
		<g>
			<path fill="#AA6919" d="M587.703,193.799c1.189,3.035,3.364,5.451,6.395,6.728c1.742,0.734,3.402,0.496,5.167,0.88
				c2.105,0.458,2.726,2.301,1.482,4.175c-0.794,1.196-2.268,1.891-3.312,2.833c-0.528,0.476,0.057,1.258,0.667,1.114
				c3.455-0.818,6.79-4.94,4.398-8.386c-1.258-1.812-3.166-1.427-5.11-1.607c-3.836-0.353-6.924-2.793-8.465-6.268
				C588.618,192.578,587.425,193.09,587.703,193.799L587.703,193.799z"/>
		</g>
		<g>
			<path fill="#AA6919" d="M644.654,179.727c0.488,5.249,3.579,9.81,9.099,10.752c2.02,0.345,4.215,0.105,6.109-0.667
				c6.342-2.587,8.287-8.869,16.909-4.341c0.808,0.424,1.383-0.653,0.838-1.248c-2.343-2.562-5.897-3.467-9.268-2.429
				c-2.343,0.722-3.804,2.324-5.692,3.752c-6.503,4.92-15.495,3.527-16.971-6.025C645.573,178.844,644.593,179.072,644.654,179.727
				L644.654,179.727z"/>
		</g>
		<g>
			<path fill="#AA6919" d="M632.745,136.531c-4.25-0.943-8.212-3.027-11.096-6.346c-1.844-2.123-5.166-7.185-1.382-9.447
				c1.837-1.098,4.087,0.05,4.653,1.977c0.401,1.364-0.023,2.428-0.58,3.658c-0.253,0.558,0.336,1.306,0.931,0.901
				c2.762-1.875,2.494-6.21-0.172-8.135c-2.526-1.823-6.49-0.889-7.962,1.845c-1.942,3.607,0.605,7.918,2.97,10.615
				c3.199,3.649,7.541,5.858,12.344,6.368C633.373,138.066,633.686,136.739,632.745,136.531L632.745,136.531z"/>
		</g>
	</g>
	<g>
		<g>
			<path fill="#E3BE84" d="M726.344,145.732c-6.778-3.518-12.057-8.072-14.967-15.307c-0.197-0.49-1.035-0.246-0.895,0.277
				c1.997,7.463,7.737,14.428,15.391,16.51C726.754,147.451,727.098,146.124,726.344,145.732L726.344,145.732z"/>
		</g>
		<g>
			<path fill="#E3BE84" d="M709.405,150.888c-3.858-2.187-6.763-5.19-9.708-8.444c-0.406-0.449-1.213,0.062-0.896,0.612
				c2.256,3.921,6.025,6.816,9.974,8.904C709.478,152.332,710.105,151.285,709.405,150.888L709.405,150.888z"/>
		</g>
		<g>
			<path fill="#E3BE84" d="M691.287,148.53c-2.803-2.91-5.475-5.895-7.663-9.306c-0.431-0.672-1.451-0.109-1.085,0.607
				c1.908,3.732,4.415,7.173,7.789,9.708C691.031,150.068,691.923,149.19,691.287,148.53L691.287,148.53z"/>
		</g>
		<g>
			<path fill="#E3BE84" d="M684.111,152.799c-1.392-1.117-3.051-1.89-4.514-2.919c-1.893-1.332-3.618-2.881-5.488-4.234
				c-0.651-0.471-1.613,0.206-1.124,0.963c2.17,3.357,6.517,6.951,10.485,7.819C684.399,154.631,684.751,153.313,684.111,152.799
				L684.111,152.799z"/>
		</g>
		<g>
			<path fill="#E3BE84" d="M672.05,158.473c-2.566-0.337-4.942-1.428-6.844-3.197c-0.989-0.92-1.804-2.002-2.425-3.201
				c-0.441-0.851-0.663-1.628-1.375-2.276c-0.212-0.193-0.627-0.051-0.7,0.216c-0.622,2.286,1.674,4.951,3.21,6.413
				c2.226,2.118,4.977,3.245,8.022,3.471C672.746,159.959,672.859,158.58,672.05,158.473L672.05,158.473z"/>
		</g>
		<g>
			<path fill="#E3BE84" d="M660.037,163.705c-2.706,0.324-4.888-0.14-6.938-2.018c-1.27-1.163-2.242-2.588-3.452-3.806
				c-0.505-0.508-1.468,0.092-1.192,0.769c1.689,4.139,7.509,10.215,12.131,6.247C661.049,164.5,660.625,163.634,660.037,163.705
				L660.037,163.705z"/>
		</g>
		<g>
			<path fill="#E3BE84" d="M642.559,166.872c-1.533-0.447-2.989-1.059-4.359-1.884c-1.09-0.656-2.033-1.548-3.144-2.156
				c-0.482-0.264-1.221,0.291-0.846,0.817c1.73,2.426,5.242,3.732,8.027,4.423C643.011,168.266,643.329,167.097,642.559,166.872
				L642.559,166.872z"/>
		</g>
		<g>
			<path fill="#E3BE84" d="M649.498,139.574c0.152-3.076-0.707-4.504,0.761-7.542c1.439-2.979,0.982-2.625,3.424-3.337
				c1.559-0.455,3.124-0.888,4.686-1.332c5.564-1.581,11.219-3.017,16.636-5.054c0.755-0.284,0.485-1.399-0.327-1.225
				c-7.639,1.638-15.769,3.777-23.069,6.56c-6.498,2.477-3.263,6.404-3.052,11.85C648.579,140.083,649.467,140.199,649.498,139.574
				L649.498,139.574z"/>
		</g>
		<g>
			<path fill="#E3BE84" d="M665.936,94.815c-4.396-0.095-8.159,0.956-12.529-0.418c-3.921-1.232-6.614-3.615-9.656-6.296
				c-0.511-0.45-1.237,0.06-0.959,0.694c3.202,7.307,16.851,12.803,23.417,6.876C666.505,95.404,666.38,94.824,665.936,94.815
				L665.936,94.815z"/>
		</g>
		<g>
			<path fill="#E3BE84" d="M641.472,101.021c-2.361-0.541-4.715-0.87-6.934-1.894c-2.138-0.987-4.034-2.386-5.852-3.866
				c-0.39-0.318-1.037,0.235-0.758,0.665c2.761,4.245,8.438,7.19,13.531,6.274C642.057,102.091,642.052,101.154,641.472,101.021
				L641.472,101.021z"/>
		</g>
		<g>
			<path fill="#E3BE84" d="M642.914,109.289c-7.448,0.391-13.714-1.55-18.066-7.996c-0.438-0.648-1.4-0.13-1.068,0.588
				c3.177,6.861,12.037,11.765,19.464,8.927C644.08,110.488,643.807,109.242,642.914,109.289L642.914,109.289z"/>
		</g>
		<g>
			<path fill="#E3BE84" d="M591.952,109.712c1.084-2.951,2.263-6.081,4.519-8.345c2.418-2.427,5.194-2.848,8.371-3.768
				c4.365-1.265,8.156-3.226,11.558-6.261c0.449-0.4-0.092-1.038-0.58-0.715c-3.124,2.07-6.401,3.879-10,4.984
				c-2.74,0.841-5.777,1.031-8.318,2.463c-4.148,2.338-5.563,7.025-6.725,11.318C590.57,110.154,591.685,110.44,591.952,109.712
				L591.952,109.712z"/>
		</g>
	</g>
	<g>
		<g>
			<path fill="#E3BE84" d="M343.728,58.485c-3.653-0.677-7.391,0.738-9.993,3.308c-0.552,0.545,0.189,1.47,0.847,1.06
				c2.808-1.75,5.694-2.396,8.974-2.51C344.741,60.301,344.932,58.708,343.728,58.485L343.728,58.485z"/>
		</g>
		<g>
			<path fill="#E3BE84" d="M338.96,73.189c-2.808,1.302-5.702,1.547-8.721,1.998c-0.351,0.052-0.49,0.624-0.1,0.739
				c3.212,0.946,6.493-0.016,9.426-1.44C340.295,74.131,339.703,72.844,338.96,73.189L338.96,73.189z"/>
		</g>
		<g>
			<path fill="#E3BE84" d="M345.407,85.205c-1.853,4.782-6.925,2.546-10.782,3.875c-0.568,0.196-0.591,1.14,0.111,1.129
				c3.019-0.049,6.214,0.981,9.098-0.325c1.846-0.836,3.428-2.425,2.901-4.566C346.592,84.742,345.632,84.624,345.407,85.205
				L345.407,85.205z"/>
		</g>
		<g>
			<path fill="#E3BE84" d="M342.218,93.892c-4.095,3.006-7.994,1.062-12.177-0.584c-0.655-0.258-1.499,0.609-0.808,1.119
				c3.794,2.802,10.809,5.66,13.964,0.387C343.541,94.238,342.777,93.482,342.218,93.892L342.218,93.892z"/>
		</g>
		<g>
			<path fill="#E3BE84" d="M252.799,90.272c7.417,0.75,16.659-3.955,17.828-11.956c0.086-0.591-0.771-0.759-1.057-0.321
				c-4.01,6.171-8.91,10.702-16.676,10.8C252.064,88.806,251.95,90.186,252.799,90.272L252.799,90.272z"/>
		</g>
		<g>
			<path fill="#E3BE84" d="M268.952,89.982c3.196,0.926,8.174,0.431,9.665-3.049c0.207-0.482-0.412-0.862-0.814-0.67
				c-2.921,1.394-5.067,3.13-8.531,2.492C268.479,88.609,268.158,89.752,268.952,89.982L268.952,89.982z"/>
		</g>
		<g>
			<path fill="#E3BE84" d="M274.612,97.937c1.587,2.317,4.609,3.619,7.368,2.785c2.839-0.858,4.962-4.007,4.222-6.951
				c-0.155-0.618-1.112-0.621-1.25,0.011c-0.415,1.891-0.996,3.617-2.741,4.716c-2.269,1.429-5.112,0.745-6.783-1.29
				C274.969,96.648,274.228,97.375,274.612,97.937L274.612,97.937z"/>
		</g>
		<g>
			<path fill="#E3BE84" d="M287.858,105.664c4.022,1.157,9.431-3.211,7.779-7.507c-0.155-0.403-0.879-0.376-0.965,0.067
				c-0.69,3.528-2.745,6.351-6.68,6.091C287.187,104.261,287.148,105.46,287.858,105.664L287.858,105.664z"/>
		</g>
	</g>
	<g>
		<g>
			<path fill="#BA7E1E" d="M315.489,121.443c4.087,1.395,9.865-0.309,12.606-3.626c0.47-0.569-0.091-1.53-0.834-1.236
				c-1.922,0.761-3.738,1.723-5.741,2.279c-1.939,0.538-3.865,0.536-5.829,0.867C314.855,119.867,314.619,121.146,315.489,121.443
				L315.489,121.443z"/>
		</g>
		<g>
			<path fill="#BA7E1E" d="M316.881,124.332c3.883,0.399,8.432-0.162,11.502-2.78c0.459-0.391-0.039-1.103-0.572-0.863
				c-3.639,1.636-6.741,3.055-10.825,2.93C316.534,123.605,316.408,124.284,316.881,124.332L316.881,124.332z"/>
		</g>
		<g>
			<path fill="#BA7E1E" d="M358.427,130.2c0.553,0.061,1.062,0.119,1.616,0.056c1.396-0.159,1.566-2.369,0.088-2.542
				c0.695,0.355,0.805,0.389,0.329,0.103c-0.176-0.077-0.359-0.12-0.55-0.129c-0.453-0.064-0.893,0.003-1.343,0.051
				C357.232,127.881,356.978,130.041,358.427,130.2L358.427,130.2z"/>
		</g>
		<g>
			<path fill="#BA7E1E" d="M300.385,143.131c-0.235,0.918-0.286,1.819,0.006,2.73c0.272,0.848,1.578,1.155,1.892,0.132
				c0.282-0.922,0.303-1.827,0.068-2.766C302.119,142.302,300.647,142.105,300.385,143.131L300.385,143.131z"/>
		</g>
		<g>
			<path fill="#BA7E1E" d="M366.462,141.549c0.869,1.219,1.048,2.645,0.897,4.103c-0.073,0.706,0.95,0.828,1.259,0.308
				c1.103-1.854,0.549-4.012-1.033-5.373C366.962,140.05,365.957,140.842,366.462,141.549L366.462,141.549z"/>
		</g>
		<g>
			<path fill="#BA7E1E" d="M365.737,152.777c1.647,0.633,3.494-1.625,2.142-2.966c-0.31-0.308-1.012-0.17-0.974,0.355
				c0.06,0.822-0.064,1.612-1.082,1.75C365.373,151.976,365.327,152.62,365.737,152.777L365.737,152.777z"/>
		</g>
		<g>
			<path fill="#BA7E1E" d="M363.622,150.437c0.643-1.389,1.041-2.925,0.444-4.393c-0.176-0.432-0.838-0.302-0.878,0.146
				c-0.117,1.317-0.089,2.529-0.599,3.78C362.349,150.559,363.351,151.023,363.622,150.437L363.622,150.437z"/>
		</g>
		<g>
			<path fill="#BA7E1E" d="M305.061,163.353c-0.44,2.059,0.757,6.117,3.507,5.798c0.55-0.064,0.796-0.615,0.448-1.055
				c-0.51-0.644-1.248-1.03-1.737-1.707c-0.595-0.823-0.804-1.774-0.649-2.772C306.789,162.603,305.275,162.352,305.061,163.353
				L305.061,163.353z"/>
		</g>
		<g>
			<path fill="#BA7E1E" d="M310.042,165.728c0.089,1.923,1.618,3.449,3.603,3.026c0.355-0.076,0.507-0.628,0.098-0.763
				c-1.145-0.378-2.101-1.289-2.362-2.478C311.214,164.748,310.006,164.961,310.042,165.728L310.042,165.728z"/>
		</g>
		<g>
			<path fill="#BA7E1E" d="M309.998,171.281c-0.03,0.515-0.255,0.938-0.353,1.441c-0.061,0.314,0.078,0.6,0.347,0.763
				c1.092,0.665,2.251,1.267,3.542,1.369c0.543,0.043,0.859-0.75,0.451-1.103c-0.986-0.853-2.26-1.247-3.511-1.549
				c0.169,0.158,0.339,0.317,0.508,0.475c-0.166-0.515-0.447-0.929-0.546-1.468C310.387,170.941,310.012,171.047,309.998,171.281
				L309.998,171.281z"/>
		</g>
		<g>
			<path fill="#BA7E1E" d="M330.798,174.622c3.386,0.4,6.658,1.059,9.927,2.031c3.21,0.955,6.284,2.488,9.544,3.22
				c0.579,0.13,0.963-0.589,0.456-0.957c-5.372-3.894-13.413-4.78-19.852-5.262C330.249,173.608,330.179,174.549,330.798,174.622
				L330.798,174.622z"/>
		</g>
		<g>
			<path fill="#BA7E1E" d="M332.852,189.473c5.969,1.462,13.032,3.969,19.222,3.766c0.612-0.02,0.934-0.953,0.311-1.234
				c-5.685-2.562-13.068-2.921-19.22-3.838C332.325,188.042,331.997,189.264,332.852,189.473L332.852,189.473z"/>
		</g>
		<g>
			<path fill="#BA7E1E" d="M349.808,259.959c-2.783-4.357-2.41-8.762-0.643-13.405c0.214-0.563-0.6-0.924-0.931-0.452
				c-2.973,4.24-2.18,10.241,0.598,14.352C349.219,261.025,350.191,260.558,349.808,259.959L349.808,259.959z"/>
		</g>
		<g>
			<path fill="#BA7E1E" d="M378.133,252.573c0.096,0,0.103-0.149,0.007-0.149C378.044,252.424,378.037,252.573,378.133,252.573
				L378.133,252.573z"/>
		</g>
		<g>
			<path fill="#BA7E1E" d="M376.434,248.759c0.714,2.044,0.708,4.329-0.325,6.266c-0.277,0.519,0.349,0.984,0.749,0.535
				c1.838-2.066,2.209-4.92,0.779-7.313C377.264,247.623,376.181,248.034,376.434,248.759L376.434,248.759z"/>
		</g>
		<g>
			<path fill="#BA7E1E" d="M373.107,243.743c0.162,1.169,0.104,2.525,0.841,3.488c0.219,0.286,0.727,0.199,0.83-0.15
				c0.346-1.171-0.214-2.48-0.49-3.635C374.103,242.664,373.002,242.984,373.107,243.743L373.107,243.743z"/>
		</g>
		<g>
			<path fill="#BA7E1E" d="M329.836,198.382c-0.74,2.091-1.248,4.993-0.108,7.028c0.224,0.4,0.769,0.262,0.763-0.202
				c-0.014-1.033-0.268-2.038-0.261-3.075c0.008-1.175,0.227-2.312,0.598-3.425C331.041,198.071,330.061,197.748,329.836,198.382
				L329.836,198.382z"/>
		</g>
		<g>
			<path fill="#BA7E1E" d="M331.951,203.778c-0.768,1.806-0.388,4.166,1.25,5.378c0.414,0.307,1.07-0.189,0.903-0.672
				c-0.531-1.54-0.939-2.742-0.843-4.405C333.3,203.401,332.216,203.155,331.951,203.778L331.951,203.778z"/>
		</g>
		<g>
			<path fill="#BA7E1E" d="M342.486,234.694c3.485-4.79,6.918-9.608,10.243-14.51c2.343-3.454,4.508-6.813,4.793-11.056
				c0.039-0.577-0.864-0.777-1.018-0.193c-2.421,9.181-9.621,17.344-14.627,25.286C341.618,234.631,342.189,235.102,342.486,234.694
				L342.486,234.694z"/>
		</g>
		<g>
			<path fill="#BA7E1E" d="M350.808,242.27c3.993-5.851,8.564-12.694,10.021-19.729c0.1-0.484-0.561-0.553-0.764-0.199
				c-3.632,6.338-6.008,13.188-10.03,19.384C349.706,242.234,350.464,242.775,350.808,242.27L350.808,242.27z"/>
		</g>
		<g>
			<path fill="#BA7E1E" d="M356.244,233.053c0.034,4.309,1.415,9.508,2.92,13.539c0.288,0.773,1.527,0.586,1.452-0.285
				c-0.372-4.3-1.338-9.656-3.186-13.571C357.151,232.147,356.24,232.448,356.244,233.053L356.244,233.053z"/>
		</g>
		<g>
			<path fill="#BA7E1E" d="M345.592,228.818c-2.617-9.394-4.838-18.907-7.706-28.229c-0.147-0.479-0.905-0.239-0.83,0.238
				c1.54,9.702,4.224,19.165,7.001,28.573C344.358,230.42,345.872,229.825,345.592,228.818L345.592,228.818z"/>
		</g>
		<g>
			<path fill="#BA7E1E" d="M367.066,272.428c-0.758-4.027-1.267-8.375-2.666-12.235c-0.143-0.394-0.725-0.232-0.695,0.169
				c0.301,4.071,1.599,8.214,2.548,12.178C366.374,273.046,367.165,272.955,367.066,272.428L367.066,272.428z"/>
		</g>
		<g>
			<path fill="#BA7E1E" d="M407.29,474.126c3.121,0.697,6.873,0.916,9.735-0.778c2.183-1.292,4.031-3.882,3.093-6.464
				c-0.235-0.645-1.335-0.737-1.562-0.026c-0.62,1.947-1.249,3.41-3.178,4.414c-2.449,1.275-5.111,0.803-7.746,0.812
				C406.507,472.088,406.091,473.858,407.29,474.126L407.29,474.126z"/>
		</g>
		<g>
			<path fill="#BA7E1E" d="M405.752,469.027c2.475,1.064,5.032,0.926,7.467-0.207c1.86-0.865,4.388-2.616,4.303-4.903
				c-0.011-0.305-0.373-0.389-0.591-0.257c-1.475,0.894-2.34,2.482-3.897,3.354c-2.087,1.17-4.62,1.436-6.955,0.942
				C405.368,467.806,405.091,468.743,405.752,469.027L405.752,469.027z"/>
		</g>
	</g>
	<g>
		<path fill="#AA6919" d="M362.004,298.866c0.24,0,0.235-0.373-0.006-0.373C361.758,298.493,361.764,298.866,362.004,298.866
			L362.004,298.866z"/>
	</g>
	<g>
		<g>
			<path fill="#AD7B1D" d="M605.896,388.696c1.778,5.819,7.717,11.081,11.854,15.44c5.943,6.262,12.453,12.136,19.479,17.162
				c0.444,0.318,1.073-0.336,0.661-0.732c-5.451-5.222-10.967-10.331-16.172-15.808c-4.931-5.19-9.367-12.716-15.457-16.377
				C606.06,388.262,605.834,388.495,605.896,388.696L605.896,388.696z"/>
		</g>
		<g>
			<path fill="#AD7B1D" d="M607.959,410.436c9.054,10.749,18.889,20.773,29.94,29.481c0.611,0.482,1.508-0.332,0.893-0.866
				c-10.585-9.181-20.786-18.718-30.15-29.154C608.271,409.483,607.596,410.005,607.959,410.436L607.959,410.436z"/>
		</g>
		<g>
			<path fill="#AD7B1D" d="M615.97,432.668c9.137,11.665,19.739,25.043,35.066,28.181c0.78,0.16,1.045-0.885,0.325-1.175
				c-14.392-5.786-24.428-16.336-34.292-27.922C616.544,431.135,615.467,432.025,615.97,432.668L615.97,432.668z"/>
		</g>
		<g>
			<path fill="#AD7B1D" d="M639.975,467.48c8.148,5.783,16.13,11.957,24.549,17.338c5.246,3.353,10.08,5.324,16.315,4.43
				c0.333-0.048,0.309-0.514-0.029-0.521c-8.056-0.179-14.426-4.707-20.93-9.032c-6.464-4.298-12.947-8.569-19.409-12.869
				C640.034,466.535,639.541,467.172,639.975,467.48L639.975,467.48z"/>
		</g>
	</g>
	<g>
		<g>
			<path fill="#9B2E0B" d="M706.839,312.737c-17.097-13.743-36.183-25.847-55.944-35.364c-0.678-0.327-1.294,0.623-0.619,1.02
				c19.043,11.221,37.531,22.861,55.811,35.287C706.645,314.06,707.379,313.17,706.839,312.737L706.839,312.737z"/>
		</g>
		<g>
			<path fill="#9B2E0B" d="M665.625,296.462c17.09,7.595,20.654,29.505,37.047,37.512c0.63,0.308,1.152-0.476,0.593-0.92
				c-8.071-6.404-13.332-14.067-19.403-22.242c-4.849-6.529-10.136-12.261-17.93-15.138
				C665.421,295.485,665.128,296.241,665.625,296.462L665.625,296.462z"/>
		</g>
		<g>
			<path fill="#9B2E0B" d="M627.345,272.32c-22.469,0.323-57.741-4.461-74.725,14.073c-0.511,0.558,0.223,1.571,0.869,1.073
				c20.081-15.483,49.945-11.908,73.899-13.779C628.261,273.619,628.231,272.307,627.345,272.32L627.345,272.32z"/>
		</g>
		<g>
			<path fill="#9B2E0B" d="M557.375,409.996c12.09,37.841,32.613,73.646,55.421,106.016c0.536,0.761,1.676,0.037,1.219-0.772
				c-19.792-34.966-41.721-67.587-55.067-105.866C558.587,408.339,557.046,408.967,557.375,409.996L557.375,409.996z"/>
		</g>
		<g>
			<path fill="#892A0A" d="M615.328,521.173c8.481,19.92,15.507,39.928,22.258,60.478c0.275,0.838,1.732,0.552,1.54-0.346
				c-4.487-21.023-12.653-41.734-22.785-60.663C615.989,519.983,615.043,520.504,615.328,521.173L615.328,521.173z"/>
		</g>
		<g>
			<path fill="#9B2E0B" d="M544.338,420.033c3.675,44.853,19.899,87.089,19.881,132.454c0,0.817,1.369,0.939,1.451,0.104
				c4.427-44.919-15.586-88.605-20.332-132.753C545.268,419.179,544.286,419.39,544.338,420.033L544.338,420.033z"/>
		</g>
		<g>
			<path fill="#9B2E0B" d="M554.773,724.62c-16.368-63.001-21.566-127.315-16.689-192.162c0.086-1.143-1.662-1.355-1.779-0.202
				c-6.588,64.603-0.129,130.264,17.839,192.596C554.263,725.272,554.88,725.032,554.773,724.62L554.773,724.62z"/>
		</g>
		<g>
			<path fill="#922B0A" d="M526.499,794.526c19.516-10.953,19.155-36.621,16.06-55.994c-4.222-26.434-13.934-51.266-15.582-78.193
				c-0.052-0.848-1.288-0.826-1.318,0.023c-0.635,18.214,4.453,35.786,8.988,53.263c6.103,23.514,17.145,63.896-8.796,79.78
				C525.142,793.841,525.772,794.934,526.499,794.526L526.499,794.526z"/>
		</g>
		<g>
			<path fill="#892A0A" d="M566.306,815.001c-2.922-22.674-5.139-45.625-9.44-68.087c-0.154-0.804-1.486-0.552-1.407,0.256
				c2.212,22.745,6.496,45.373,10.058,67.935C565.597,815.61,566.371,815.51,566.306,815.001L566.306,815.001z"/>
		</g>
		<g>
			<path fill="#892A0A" d="M564.985,584.755c1.443,18.362,5.614,36.154,13.397,52.932c11.288,24.334,28.952,44.609,36.369,70.8
				c0.271,0.958,1.901,0.513,1.688-0.465c-4.573-21.013-17.602-38.257-28.365-56.435c-12.237-20.668-19.701-43.113-22.112-67.015
				C565.898,583.929,564.936,584.126,564.985,584.755L564.985,584.755z"/>
		</g>
	</g>
	<g>
		<g>
			<path fill="#DAC7A9" d="M660.076,697.105c-0.293,8.114,1.228,16.737,5.301,23.839c0.367,0.64,1.436,0.21,1.203-0.512
				c-2.534-7.851-4.532-15.129-5.015-23.425C661.509,696.031,660.11,696.163,660.076,697.105L660.076,697.105z"/>
		</g>
		<g>
			<path fill="#DAC7A9" d="M677.04,514.628c23.023,41.852,34.007,87.24,47.463,132.651c0.188,0.634,1.178,0.458,1.024-0.207
				c-10.575-45.689-24.433-91.884-47.53-132.921C677.66,513.553,676.707,514.023,677.04,514.628L677.04,514.628z"/>
		</g>
	</g>
	<g>
		<g>
			<path fill="#B7793B" d="M607.022,215.133c10.284,6.319,23.193-4.102,20.331-15.468c-0.135-0.535-0.848-0.421-0.837,0.122
				c0.221,10.951-8.865,16.88-19.013,14.053C606.715,213.619,606.38,214.738,607.022,215.133L607.022,215.133z"/>
		</g>
		<g>
			<path fill="#D79D6E" d="M341.186,286.004c2.343,5.284,7.123,8.933,12.958,9.321c0.435,0.029,0.673-0.658,0.2-0.789
				c-5.049-1.396-9.486-4.472-12.182-9.027C341.803,284.904,340.899,285.357,341.186,286.004L341.186,286.004z"/>
		</g>
		<g>
			<path fill="#D79D6E" d="M360.735,297.42c2.394,0.964,4.833,2.178,7.354,2.754c0.512,0.117,0.577-0.606,0.201-0.814
				c-2.229-1.231-4.85-1.924-7.241-2.778C360.507,296.387,360.199,297.204,360.735,297.42L360.735,297.42z"/>
		</g>
		<g>
			<path fill="#D79D6E" d="M347.912,314.758c4.963,1.512,10.714,2.986,15.908,1.997c0.599-0.114,0.626-1.14-0.003-1.226
				c-5.389-0.743-10.098-0.374-15.705-1.636C347.621,313.783,347.429,314.611,347.912,314.758L347.912,314.758z"/>
		</g>
		<g>
			<path fill="#D79D6E" d="M488.216,427.047c4.718,0.465,9.809-0.259,14.25-1.894c0.796-0.293,0.58-1.618-0.315-1.496
				c-4.677,0.637-9.307,1.123-14.005,1.542C487.076,425.294,487.186,426.945,488.216,427.047L488.216,427.047z"/>
		</g>
		<g>
			<path fill="#D79D6E" d="M603.589,388.175c10.582,0.507,19.603-5.584,30.245-2.291c0.792,0.245,1.706-0.817,0.86-1.381
				c-9.44-6.287-21.198,1.988-31.159,2.28C602.628,386.81,602.705,388.132,603.589,388.175L603.589,388.175z"/>
		</g>
		<g>
			<path fill="#D79D6E" d="M619.712,385.615c3.202,1.43,7.097,3.061,10.643,3.168c0.68,0.021,0.817-0.876,0.313-1.208
				c-2.961-1.95-7.048-2.796-10.487-3.466C619.302,383.938,618.891,385.248,619.712,385.615L619.712,385.615z"/>
		</g>
		<g>
			<path fill="#D79D6E" d="M669.955,436.263c5.861-7.243,10.548-15.331,13.094-24.33c0.244-0.862-1.172-1.295-1.506-0.469
				c-3.446,8.515-7.512,16.461-13.235,23.681C667.509,436.154,669.157,437.25,669.955,436.263L669.955,436.263z"/>
		</g>
		<g>
			<g>
				<path fill="#D79D6E" d="M695.04,852.127c6.582,5.35,15.105,8.71,23.676,7.769c0.501-0.055,0.483-0.863-0.027-0.887
					c-8.67-0.408-16.154-2.311-23.056-7.801C695.08,850.768,694.5,851.688,695.04,852.127L695.04,852.127z"/>
			</g>
			<g>
				<path fill="#D79D6E" d="M898.72,1022.804c-3.574,2.347-5.256,8.174-2.982,11.926c0.334,0.551,1.359,0.33,1.269-0.375
					c-0.532-4.167,0.029-7.155,2.897-10.329C900.585,1023.273,899.496,1022.294,898.72,1022.804L898.72,1022.804z"/>
			</g>
			<g>
				<path fill="#D79D6E" d="M887.155,1025.844c-2.664,3.177-5.209,7.718-3.577,11.952c0.95,2.465,4.002,5.588,6.778,3.811
					c0.404-0.258,0.386-0.833-0.084-1.01c-2.664-1.003-4.95-2.1-5.107-5.412c-0.147-3.085,1.949-5.895,3.343-8.484
					C888.947,1025.887,887.731,1025.158,887.155,1025.844L887.155,1025.844z"/>
			</g>
			<g>
				<path fill="#D79D6E" d="M883.667,1020.39c-2.494,3.235-4.925,6.512-7.184,9.916c-1.651,2.488-4.643,5.836-5.126,8.914
					c-0.792,5.048,5.676,6.294,9.509,6.947c0.707,0.12,1.16-0.834,0.481-1.214c-1.441-0.808-3.131-1.127-4.529-1.927
					c-4.475-2.561-3.066-5.101-0.871-8.675c2.785-4.535,5.758-8.972,8.818-13.324
					C885.242,1020.348,884.153,1019.761,883.667,1020.39L883.667,1020.39z"/>
			</g>
			<g>
				<path fill="#D79D6E" d="M875.679,1023.403c-3.383,6.072-12.006,8.338-13.964,15.367c-1.083,3.891,0.666,8.809,5.132,9.104
					c0.659,0.044,0.872-0.945,0.311-1.234c-11.626-5.985,6.611-16.94,9.452-22.786
					C876.865,1023.33,875.964,1022.89,875.679,1023.403L875.679,1023.403z"/>
			</g>
		</g>
	</g>
	<g>
		<g>
			<path fill="#B7793B" d="M638.072,785.449c5.582,6.31,9.555,13.449,13.359,20.914c0.302,0.594,1.312,0.229,1.104-0.426
				c-2.588-8.156-7.684-15.318-13.504-21.498C638.411,783.781,637.486,784.787,638.072,785.449L638.072,785.449z"/>
		</g>
		<g>
			<path fill="#B7793B" d="M593.412,858.801c2.772,5.51,6.366,10.727,11.252,14.569c0.669,0.526,1.541-0.318,0.938-0.961
				c-4.181-4.457-8.032-9.006-10.956-14.402C594.191,857.168,592.995,857.972,593.412,858.801L593.412,858.801z"/>
		</g>
		<g>
			<path fill="#B7793B" d="M584.383,1125.939c-5.487-0.605-13.135,0.605-15.35,6.542c-1.426,3.823,0.032,10.017,4.973,10.034
				c0.74,0.003,0.772-0.944,0.168-1.197c-3.89-1.627-4.704-6.808-2.01-9.928c2.92-3.381,7.956-3.64,12.084-4.101
				C584.958,1127.209,585.208,1126.03,584.383,1125.939L584.383,1125.939z"/>
		</g>
		<g>
			<path fill="#B7793B" d="M564.165,1139.929c-1.507-2.401-2.157-5.152-1.062-7.856c1.379-3.407,4.317-4.333,7.659-5.049
				c0.49-0.105,0.597-0.912,0.054-1.032c-8.035-1.777-12.155,9.068-7.595,14.61C563.639,1141.109,564.518,1140.492,564.165,1139.929
				L564.165,1139.929z"/>
		</g>
		<g>
			<path fill="#B7793B" d="M556.481,1139.838c-1.66-3.62-0.571-7.903,2.44-10.464c0.529-0.45-0.163-1.404-0.736-0.989
				c-3.804,2.754-4.732,7.783-2.333,11.793C556.061,1140.528,556.65,1140.208,556.481,1139.838L556.481,1139.838z"/>
		</g>
	</g>
	<g>
		<g>
			<path fill="#E3BE84" d="M945.345,862.288c-6.092,4.075-12.566,4.519-19.644,3.52c-0.699-0.099-1.253,0.96-0.482,1.267
				c7.044,2.809,14.928,0.588,20.738-3.891C946.441,862.811,945.862,861.943,945.345,862.288L945.345,862.288z"/>
		</g>
		<g>
			<path fill="#E3BE84" d="M927.701,876.686c4.498,2.153,9.811,3.491,14.77,2.327c0.698-0.164,0.544-1.206-0.154-1.224
				c-5.003-0.122-9.581-0.265-14.29-2.096C927.386,875.444,927.112,876.404,927.701,876.686L927.701,876.686z"/>
		</g>
		<g>
			<path fill="#E3BE84" d="M923.27,887.429c3.776,3.562,9.659,5.941,14.815,4.193c0.58-0.196,0.592-1.191-0.121-1.153
				c-5.233,0.277-9.746-0.215-13.851-3.814C923.569,886.178,922.728,886.918,923.27,887.429L923.27,887.429z"/>
		</g>
		<g>
			<path fill="#E3BE84" d="M919.491,896.357c0.616,4.669,6.407,8.09,10.729,5.715c0.485-0.267,0.265-0.981-0.291-0.917
				c-4.048,0.465-7.732-1.354-9.5-5.103C920.182,895.528,919.418,895.807,919.491,896.357L919.491,896.357z"/>
		</g>
		<g>
			<path fill="#E3BE84" d="M917.077,907.432c0.982,5.062,9.457,6.626,11.244,1.292c0.318-0.95-0.89-1.549-1.415-0.672
				c-1.828,3.057-7.375,2.617-8.333-0.935C918.349,906.284,916.91,906.568,917.077,907.432L917.077,907.432z"/>
		</g>
		<g>
			<path fill="#CFAA74" d="M671.829,1026.683c4.973,2.499,10.548,3.155,15.86,1.389c0.423-0.141,0.24-0.869-0.202-0.763
				c-5.291,1.266-10.413,1.013-15.358-1.364C671.665,1025.723,671.374,1026.455,671.829,1026.683L671.829,1026.683z"/>
		</g>
		<g>
			<path fill="#CFAA74" d="M669.39,1036.916c1.484,1.097,2.969,2.188,4.485,3.241c0.475,0.33,0.972-0.364,0.525-0.725
				c-1.453-1.173-2.932-2.305-4.417-3.436C669.424,1035.571,668.824,1036.497,669.39,1036.916L669.39,1036.916z"/>
		</g>
	</g>
</g>
</svg>
