<?xml version="1.0" encoding="utf-8"?>
<!-- Designed by Vexels.com - 2019 All Rights Reserved - https://vexels.com/terms-and-conditions/  -->
<svg version="1.1" id="Layer_1" xmlns="http://www.w3.org/2000/svg" xmlns:xlink="http://www.w3.org/1999/xlink" x="0px" y="0px"
	 viewBox="0 0 1200 1200" enable-background="new 0 0 1200 1200" xml:space="preserve">
<g>
	<g>
		<path fill="#ECB498" d="M685.152,1137.666c-5.246,8.066,15.915,15.551,34.404,7.503c0,0,29.376,4.773,37.168-7.067
			C764.516,1126.261,712.788,1095.175,685.152,1137.666z"/>
		<path fill="#F2D2B7" d="M686.865,1144.423c5.641,4.417,19.809,6.353,32.691,0.746c0,0,25.232,4.092,35.125-4.741
			C735.532,1117.871,708.036,1125.354,686.865,1144.423z"/>
		<path fill="#764327" d="M373.398,239.127c0,0-19.3-12.362-17.773-38.29c0,0,46.945-7.867,90.195-1.393
			c0,0,1.935,36.094-27.599,43.884l-1.01,9.458l-36.933-0.376L373.398,239.127z"/>
		<path fill="#864C2C" d="M445.821,199.444c-43.25-6.474-90.196,1.393-90.196,1.393c-0.48,8.15,1.1,14.955,3.49,20.462
			c0.589,0.382,1.168,0.725,1.716,0.999c10.862,5.431,19.008,8.146,27.155,10.862c18.902,3.437,38.884,1.424,53.079-9.454
			C446.478,211.865,445.821,199.444,445.821,199.444z"/>
		<g>
			<path fill="#A83127" d="M584.696,239.697c-5.213,10.194-14.324,63.158-30.445,78.428c0,0-13.357,42.767-11.522,56.454
				c1.835,13.687,22.603,37.953,19.642,55.09s-4.937,716.264-4.937,716.264s-33.874,1.498-36.797-52.041
				c-5.084-72.459-83.459-126.167-96.274-201.8c-12.815-75.633-3.469-200.681,61.584-330.633
				c28.613-49.124,32.523-129.169,22.286-143.864c0,0-16.637-8.207-27.229-34.084c-4.459-5.681-8.451-8.057-8.451-8.057
				s1.941-12.577,14.616-1.009c0,0-7.756-25.685,10.606-25.453c0,0-5.919-11.998,2.805-20.599
				c8.724-8.601,9.285-41.137,9.285-41.137s-9.995-9.011,2.606-19.772s9.611-27.398,21.953-27.212
				C534.425,240.273,559.703,195.341,584.696,239.697z"/>
			<path fill="#BC3F35" d="M529.19,575.309c29.87-48.878,2.715-111.334-13.577-165.643c0-5.431-17.519-15.066-17.519-25.928
				c33.352,7.358,9.373-20.235,9.373-36.527c8.146,0,16.293,10.862,16.293,5.431c8.146-24.439-8.146-48.878-5.431-73.317
				c10.862,2.715,10.862,16.293,13.577,24.439c13.699-27.399,19.725-58.633,40.664-79.183
				c-20.431-15.757-38.144,15.693-38.144,15.693c-12.342-0.186-9.352,16.451-21.953,27.212c-12.6,10.761-2.606,19.772-2.606,19.772
				s-0.561,32.536-9.285,41.137c-8.724,8.601-2.805,20.599-2.805,20.599c-18.362-0.232-10.606,25.453-10.606,25.453
				c-12.675-11.569-14.616,1.009-14.616,1.009s5.046,3.238,8.451,8.057c10.592,25.877,27.23,34.084,27.23,34.084
				c10.236,14.695,6.327,94.74-22.286,143.864c-65.054,129.951-74.399,254.999-61.585,330.633s91.19,129.34,96.274,201.8
				c2.071,37.935,19.672,48.229,29.76,51.013c-29.104-35.282-10.478-86.442-32.07-118.83
				C415.14,882.156,445.01,716.513,529.19,575.309z"/>
		</g>
		<path fill="#C2ACAC" d="M506.254,588.146c0,0-9.325,77.002,21.916,257.947s24.351,273.076-0.936,287.977
			c-25.286,14.901,74.309,17.818,105.099-3.262c30.79-21.08-14.616-452.06-54.982-511.97S506.254,588.146,506.254,588.146z"/>
		<g>
			<path fill="#ECB498" d="M515.525,563.599c0,0-33.005,42.402,38.727,240.658c23.1,59.504-3.607,116.611,10.388,161.646
				c13.995,45.035,39.139,112.235,36.589,132.238c-4.764,43.337-23.05,37.953-19.12,45.794c3.93,7.84,50.082,9.329,61.501-3.082
				c11.42-12.411,6.191-31.124,6.37-48.993C650.159,1073.99,614.244,623.98,515.525,563.599z"/>
			<path fill="#F2D2B7" d="M626.946,1107.539c-21.724-54.309-29.345-115.539-38.016-165.643
				c-4.234-38.315,13.577-65.171,5.431-100.472c-5.431-21.724-10.929-56.026-21.791-75.034
				c-22.228-40.009-38.931-68.382-59.669-109.221c5.96,35.335,18.192,83.078,41.351,147.087
				c23.1,59.504-3.606,116.611,10.389,161.646c13.995,45.035,39.139,112.235,36.589,132.238
				c-4.764,43.337-23.05,37.953-19.12,45.794c1.923,3.838,13.965,6.147,27.096,6.056
				C619.82,1141.563,632.169,1125.818,626.946,1107.539z"/>
		</g>
		<g>
			<path fill="#DCD0CE" d="M568.457,242.872c0,0-46.794,114.688-15.307,169.472c0,0,8.395,22.596-10.892,37.639
				c-20.689,24.952-52.835,118.684-39.22,152.942c22.735,90.231,90.183,139.603,95.539,218.704
				c7.044,111.507-6.299,242.836,56.453,306.813c0,0-13.579,28.164,21.89,19.092c26.847-16.725,44.126-49.547,90.847-2.331
				c0,0,69.389,12.319,76.275-66.237c6.886-78.556-73.491-196.819-70.443-333.201c0,0,29.173-80.776,10.504-145.019
				S691.818,222.57,691.818,222.57L568.457,242.872z"/>
			<path fill="#E9DBD9" d="M738.28,746.383c-13.577-35.301,5.431-81.464-5.431-124.911c-5.431-27.155-16.293-51.594-40.732-62.456
				c-29.87-13.577-32.586-57.025-43.447-89.61c-44.873,20.193-73.054-9.671-93.748-43.633c-0.361,7.487-3.125,16.771-12.664,24.21
				c-20.689,24.952-52.835,118.684-39.219,152.942c22.735,90.231,90.183,139.603,95.539,218.704
				c7.043,111.507-6.299,242.835,56.453,306.813c0,0-10.271,21.324,10.447,20.875c6.307-13.512,18.76-21.844,30.54-31.806
				c-49.988-141.991-49.604-297.986-44.631-447.161h8.146c29.87,100.472,16.293,200.944,29.87,304.132
				c2.715,10.862,16.293,35.301,21.724,27.155c40.732-65.171,13.577-138.489,10.862-209.091c0-2.715,8.146-8.146,10.862-5.431
				c55.342,100.622,50.062,212.885,10.129,313.062c7.953-0.069,15.751,1.869,23.122,5.097
				c16.052-25.765,23.429-58.276,26.489-87.346C800.736,922.888,770.866,835.993,738.28,746.383z"/>
			<path fill="#E9DBD9" d="M564.491,390.657c8.146,10.862,13.577-19.008,24.439-5.431c5.431,8.146,5.431,29.87,13.577,24.439
				c10.862-5.431,2.716-38.016,19.008-38.016c8.146,2.715,2.715,35.301,21.724,32.586c8.146,0,10.862-16.293,16.293-19.008
				c10.862-8.146,8.146,21.724,21.724,13.577c10.862-10.862,16.293-27.155,32.586-29.87c3.316-3.316,7.088-5.269,11.121-6.434
				c-18.161-76.034-33.144-139.93-33.144-139.93l-123.361,20.302c0,0-25.076,61.469-26.159,115.901
				C546.998,371.529,554.764,382.552,564.491,390.657z"/>
		</g>
		<g>
			<path fill="#EDDBDB" d="M568.457,239.697c0,0-12.002,39.732,30.12,65.257c0,0,4.391,26.015,19.402,20.164
				c15.011-5.851,32.444-31.042,48.254-47.878c15.81-16.837,16.24-51.461,9.542-55.887
				C669.078,216.926,568.457,239.697,568.457,239.697z"/>
			<path fill="#F8E9E9" d="M643.239,284.754c-10.862,0-19.008,2.715-29.87-2.715c13.577-10.862,38.016-13.577,40.732-32.586
				c-16.293,5.431-29.87,8.146-46.163,5.431c16.806-13.071,37.464-19.722,53.144-33.198c-29.6,3.75-92.625,18.011-92.625,18.011
				s-12.002,39.732,30.12,65.257c0,0,2.426,14.334,9.818,19.325C621.099,311.969,631.803,297.62,643.239,284.754z"/>
		</g>
		<path fill="#BB7826" d="M586.689,89.6c0,0,5.726,34.319,0,48.621c-5.726,14.302-19.888,32.578-30.941,45.145
			c-11.054,12.567,6.159,30.483,3.602,34.819c-2.557,4.336-26.755,26.91-0.384,32.812c17.262,2.695,25.73-11.299,25.73-11.299
			s40.957-3.302,47.308-31.996c6.351-28.694-35.076-127.75-35.076-127.75L586.689,89.6z"/>
		<g>
			<path fill="#ECB498" d="M482.955,450.391c13.738-0.897,23.868-16.725,28.273-25.049c-0.794-3.368-1.793-6.022-2.994-7.747
				c0,0-16.637-8.207-27.23-34.084c-0.578-1.056-1.188-1.968-1.805-2.815c-11.984-9.441-49.375-38.954-61.442-49.145
				c-14.443-12.197-18.601-32.077-18.601-32.077l6.284-18.916c0,0,4.319,3.136,7.741-6.706c3.422-9.843,1.043-7.989-0.199-12.754
				c0,0,2.514-11.171-13.826-11.934c0,0,19.113-14.178,25.549-16.944c6.436-2.766,0.949-10.377-8.593-5.751
				c-9.542,4.626-28.643,16.8-34.385,18.052c0,0,9.409-14.207,12.853-17.293c3.444-3.086,15.741-8.749,13.841-11.715
				c-1.9-2.966-9.897-2.224-19.065,0.09c-9.168,2.315-16.561,20.86-26.267,29.982c-5.501,5.045,0.662,53.751,5.442,63.085
				C373.313,318.007,426.194,444.573,482.955,450.391z"/>
			<path fill="#F2D2B7" d="M387.986,303.763c5.431-13.577,2.715-32.586,16.293-40.732c3.347-1.116,6.221-2.243,8.84-3.547
				c-0.009-3.119-1.504-9.738-13.961-10.319c0,0,19.113-14.178,25.549-16.944c6.436-2.766,0.949-10.377-8.593-5.751
				c-9.542,4.626-28.643,16.8-34.385,18.052c0,0,9.409-14.207,12.853-17.293c3.444-3.086,15.741-8.749,13.841-11.715
				c-1.9-2.966-9.897-2.224-19.065,0.09c-9.168,2.315-16.561,20.86-26.267,29.982c-5.501,5.045,0.662,53.751,5.442,63.085
				c0.466,0.911,1.397,2.952,2.739,5.875C378.092,314.166,384.21,311.314,387.986,303.763z"/>
			<path fill="#F2D2B7" d="M485.742,431.389c8.578-1.225,16.589-5.789,23.312-12.402c-0.263-0.512-0.535-0.982-0.82-1.392
				c0,0-16.637-8.207-27.23-34.084c-0.578-1.056-1.188-1.968-1.805-2.815c-7.962-6.273-27.117-21.389-42.632-33.829
				c-15.594-12.636-27.385-20.452-37.721-29.528c-6.869,5.151-13.739,10.288-21.295,10.633
				c7.685,16.035,19.678,39.498,34.328,61.623C433.075,410.627,455.394,436.058,485.742,431.389z"/>
		</g>
		<path fill="#C47E27" d="M583.149,224.837c8.146-8.146,0.35-18.831,0.35-24.262c-2.716-8.146,2.715-16.293,10.862-19.008
			c-14.173-26.321,4.861-45.094,16.591-65.323c-7.483-20.642-14.023-36.292-14.023-36.292L586.689,89.6c0,0,5.725,34.319,0,48.621
			c-5.726,14.302-19.888,32.578-30.941,45.145c-11.053,12.567,6.159,30.483,3.602,34.819c-2.556,4.336-26.756,26.91-0.384,32.812
			c4.121,0.644,7.726,0.319,10.85-0.523C563.177,242.271,566.876,224.837,583.149,224.837z"/>
		<g>
			<path fill="#D37C33" d="M379.715,198.667c-11.346-5.563-37.609-31.142,0-58.62s10.43-24.868,11.576-42.695
				c1.147-11.278,9.941-20.275,9.941-20.275s-3.79-10.533,7.375-17.913c0,0-6.554,11.386,0.878,17.913
				c7.431,6.527-0.791,11.908-0.791,11.908s19.274,19.693,13.544,44.688c0,0,12.78-7.479,0.873-36.322
				c0,0,33.987,29.375,4.921,70.64c0,0-1.07,6.472,2.551,13.592c3.621,7.119,2.841,13.247-3.577,15.769
				S379.715,198.667,379.715,198.667z"/>
			<path fill="#D68F35" d="M418.072,164.38c18.268-18.268,19.11-46.029,6.663-65.458c-0.995-1.022-1.624-1.571-1.624-1.571
				c11.907,28.842-0.874,36.322-0.874,36.322c5.73-24.995-13.545-44.688-13.545-44.688s8.223-5.381,0.791-11.908
				c-7.431-6.527-0.878-17.913-0.878-17.913c-4.986,3.296-6.98,7.216-7.671,10.551c0.095-0.059,0.176-0.127,0.273-0.185
				c-0.097,0.058-0.178,0.126-0.273,0.185c-0.855,4.132,0.296,7.362,0.296,7.362s-5.589,5.734-8.435,13.777
				c0.452,2.153,1.16,4.22,2.088,6.078c6.323,12.647,18.97,23.186,6.323,31.617c-30.149,16.079-39.191,45.57-18.037,70.206
				c7.835,0.176,27.129,0.489,37.615-0.388c0.425-0.901,0.866-1.734,1.5-2.368C426.504,185.458,411.749,170.703,418.072,164.38z"/>
			<path fill="#DF9E38" d="M411.749,164.38c6.798-11.897,12.221-22.427,14.068-34.899c-1.659,3.058-3.579,4.192-3.579,4.192
				c5.73-24.995-13.545-44.688-13.545-44.688s6.601,29.829-2.18,40.074c-20.236,24.284-41.202,41.734-20.714,69.749
				c7.636,0.147,20.906,0.297,30.507-0.161C422.811,185.457,404.026,174.033,411.749,164.38z"/>
			<path fill="#DF9E38" d="M401.006,69.439c-0.021,0.091-0.051,0.185-0.07,0.275c0.046-0.029,0.09-0.059,0.132-0.09
				C401.048,69.562,401.027,69.501,401.006,69.439z"/>
			<path fill="#EBAE3C" d="M405.426,168.596c2.108-12.647,12.647-25.294,10.539-40.048c-10.096,24.23-45.297,44.596-24.154,70.354
				c5.602,0.067,12.357,0.089,18.51-0.051C410.287,188.847,404.098,177.886,405.426,168.596z"/>
			<path fill="#EBAE3C" d="M405.154,109.577c-5.168-14.415-13.055-16.862-6.799-23.118c8.703-8.431,2.176-12.01,5.168-17.02
				c0,0,2.448,10.493,4.624,12.397c2.176,1.904-5.035,2.834-5.781,7.672S406.513,106.041,405.154,109.577z"/>
		</g>
		<g>
			<path fill="#ECB498" d="M618.204,190.723c0,0,13.502,38.079-33.508,48.974c0,0,5.72,20.674,56.439,8.777
				s17.715-81.382,17.715-81.382L618.204,190.723z"/>
			<path fill="#F2D2B7" d="M619.946,200.809c0.576,12.075-3.735,31.584-35.25,38.888c0,0,5.72,20.674,56.439,8.777
				c37.328-8.756,29.308-48.678,22.47-69.163C650.297,194.205,635.013,208.363,619.946,200.809z"/>
		</g>
		<g>
			<path fill="#ECB498" d="M596.928,79.952c-8.464,8.278-3.102,31.34-0.689,44.228c0,0-4.72,43.441,17.067,63.203
				c14.501,14.501,41.45-8.125,50.539-29.57S661.776,16.529,596.928,79.952z"/>
			<path fill="#F2D2B7" d="M651.386,119.111c-16.293-2.715-10.862-21.724-24.439-32.586c-2.716,8.146-10.862,10.862-16.293,13.577
				c-7.519,1.88-15.029-2.749-18.045-9.377c-1.177,10.432,1.941,24.43,3.631,33.454c0,0-4.72,43.441,17.066,63.203
				c13.833,13.833,38.98-6.119,49.159-26.602c-2.88-0.867-5.677-2.041-8.365-3.653C640.524,146.266,645.955,132.689,651.386,119.111
				z"/>
		</g>
		<g>
			<path fill="#BB7826" d="M625.176,50.732c-10.426,1.068-23.481,8.977-31.535,12.771c-8.055,3.794-29.063,13.854-13.447,28.259
				c7.875,5.363,14.939-5.69,14.939-5.69s5.944,15.577,21.551-1.401c5.095-4.719,17.662-12.958,17.51,1.401
				c-0.152,14.359,12.034,13.604,12.034,13.604s-2.575,11.875,7.861,11.738c0,0,6.659,4.189,1.54,13.87
				c-5.119,9.681-2.791,28,8.217,32.527c0,0-17.819,22.634-8.569,39.487s-25.626,2.715-19.962,45.937
				c1.882,15.147,9.923,17.882,14.662,23.13c9.631,11.556-26.005,27.9-23.947,54.065s21.006,34.879,21.006,34.879
				s-5.392,15.022,2.546,30.133c7.938,15.112-4.49,36.767-18.949,42.758s-35.941,51.557,18.949,84.134c0,0,14.561,7.366,23.863,0
				c0,0-6.073-1.059-9.597-10.87c0,0,4.5,6.465,9.597,3.583c0,0-34.344-29.701-3.062-50.726c10.963-6.12-10.967-41.122,9.569-40.367
				c20.536,0.755,9.776-57.368,14.344-88.292S715.468,41.48,625.176,50.732z"/>
			<path fill="#C47E27" d="M648.67,434.105c2.715-5.431,5.431-13.577,5.431-21.724c2.715-5.431,8.146-10.862,16.293-8.146
				c-5.431-19.008,5.431-32.586,2.715-51.594c0-10.862-19.008-16.293-24.439-27.155c-5.431-16.293,13.577-29.87,19.008-40.732
				c8.146-16.293-24.439-35.301-13.577-57.025c2.715-2.715,8.146-8.146,13.577-5.431c5.431-16.293-13.577-40.732,10.862-48.878
				c-10.862-24.439-12.493-49.695-9.136-74.802c1.79-13.383-30.63-29.687-40.295-48.117c-1.289,0.024-2.597,0.093-3.933,0.23
				c-10.426,1.068-23.481,8.977-31.535,12.771c-8.055,3.794-29.063,13.854-13.447,28.259c7.876,5.362,14.939-5.69,14.939-5.69
				s5.944,15.577,21.551-1.401c5.095-4.719,17.662-12.958,17.51,1.401s12.034,13.604,12.034,13.604s-2.576,11.875,7.861,11.738
				c0,0,6.659,4.189,1.54,13.87c-5.119,9.681-2.79,28,8.217,32.527c0,0-17.819,22.634-8.569,39.487
				c9.249,16.853-25.626,2.715-19.962,45.937c1.881,15.147,9.923,17.881,14.662,23.13c9.631,11.555-26.005,27.9-23.948,54.065
				c2.057,26.165,21.005,34.879,21.005,34.879s-5.392,15.022,2.546,30.133c7.938,15.112-4.49,36.767-18.948,42.758
				c-6.826,2.828-15.209,14.483-16.39,29.423C624.143,449.007,639.095,445.595,648.67,434.105z"/>
		</g>
		<g>
			<path fill="#A83127" d="M783.273,599.564c-4.734-41.386-12.466-52.643,2.367-97.094c14.833-44.451,6.777-71.135,6.777-71.135
				s8.517-12.768,1.979-27.73c0,0,18.562-19.27,7.064-39.716c0,0,10.896-3.415,2.852-23.493
				c-8.044-20.078,14.946-30.49-0.754-53.139c-15.699-22.65-7.639-50.296-35.32-46.984c0,0-6.355-21.436-23.325-16.42
				c0,0-2.499-17.129-14.465-18.145c-11.966-1.016-15.387-35.617-15.387-35.617s10.949-15.284,0.882-38.72
				c-30.398-53.537-11.347-86.803-90.77-80.638c0,0,35.422,49.51,52.452,55.66c0,0-15.479,192.1,12.338,309.004
				c0,0-1.294,6.398,4.479,12.982c-4.169,0.242-9.012,3.034-9.598,14.442c0,0-47.199-5.183-76.157,28.659
				c0,0-22.098-11.245-29.207,11.298c-7.109,22.543,7.13,199.787-5.771,222.061c0,0,26.286,27.852,51.463,13.793
				c0,0-9.261,129.105,14.343,138.169c23.604,9.064,63.191-16.164,85.444,18.875c22.253,35.038,50.283,68.675,104.943,56.061
				C829.905,931.735,799.586,676.576,783.273,599.564z"/>
			<path fill="#BC3F35" d="M711.126,216.868c-8.059-6.189-16.118,26.517-26.979,26.517c3.331-27.165,6.188-84.662,14.334-122.678
				c1.46-13.14-5.044-35.652-8.413-50.126c-8.835-15.53-23.454-23.065-64.892-19.849c0,0,35.422,49.51,52.452,55.66
				c0,0-15.479,192.1,12.338,309.004c0,0-1.318,6.507,4.626,13.149C709.12,358.703,726.072,289.464,711.126,216.868z"/>
			<path fill="#BC3F35" d="M711.476,406.869c14.341-37.604,23.243-113.115,30.133-144.097s23.826-7.966,22.424,25.666
				c-1.402,33.632-27.292,60.342-31.534,90.698S702.056,431.57,711.476,406.869z"/>
			<path fill="#BC3F35" d="M695.019,429.146c17.196,12.167,32.829,26.048,49.648,15.083c0,0,15.318,46.671-11.913,50.002
				S683.563,421.041,695.019,429.146z"/>
			<path fill="#BC3F35" d="M705.87,428.545c10.511,6.349,61.144,15.375,69.464,0c8.32-15.375-38.152,2.681-61.756-3.462
				S705.87,428.545,705.87,428.545z"/>
			<path fill="#BC3F35" d="M605.223,515.569c-15.508-27.689,10.83,126.674-27.518,171.28c-0.876,8.529-2.16,14.825-3.992,17.989
				c0,0,23.205,24.58,46.891,15.892C626.039,653.624,632.011,581.322,605.223,515.569z"/>
			<path fill="#BC3F35" d="M705.695,626.903c0-5.431,8.146-10.862,10.862-8.146c19.008,27.155,19.008,57.025,27.155,86.895
				c6.007,23.177,6.448-5.477,5.249-29.56c-2.464-49.491-7.965-89.92-18.826-138.798c-2.715-8.146-8.146-19.008-16.293-19.008
				c-16.293,0-5.431,27.155-13.577,27.155c-32.586,0-19.008-48.878-29.87-70.602c-9.311-18.157-16.293,0-16.293,2.715
				c-16.293,89.61,24.439,171.074,29.87,257.969c2.523,40.359,7.364,80.718-2.839,121.077c12.3-0.79,24.583,0.175,34.824,8.654
				C731.947,787.82,712.4,707.363,705.695,626.903z"/>
		</g>
		<g>
			<path fill="#EBAF90" d="M608.69,139.989c0,0,1.324,7.257,9.484,8.125s9.823-6.256,6.363-8.125
				C621.077,138.12,608.69,139.989,608.69,139.989z"/>
			<path fill="#E69584" d="M618.204,154.794c8.793-0.837,15.601,4.477,17.471,7.566c0,0-7.381,11.194-17.471,8.893
				c-7.287-1.907-5.51-8.893-5.51-8.893S608.673,155.702,618.204,154.794z"/>
		</g>
	</g>
	<g>
		<path fill="#AA6919" d="M594.221,106.14c2.971-2.096,5.862-1.853,9.272-1.437c0.417,0.051,0.733-0.536,0.42-0.841
			c-2.938-2.864-8.107-1.821-10.84,0.839C592.231,105.521,593.24,106.833,594.221,106.14L594.221,106.14z"/>
	</g>
	<g>
		<path fill="#AA6919" d="M628.844,102.199c3.021-0.173,6.01,0.193,8.854,1.248c2.607,0.967,4.659,2.622,7.04,3.982
			c0.646,0.369,1.371-0.481,0.958-1.075c-3.532-5.087-11.174-6.601-16.926-5.595C627.883,100.914,627.889,102.254,628.844,102.199
			L628.844,102.199z"/>
	</g>
	<g>
		<path fill="#C56958" d="M609.729,163.545c9.418,1.011,19.878,1.418,29.161-0.829c0.853-0.206,0.529-1.472-0.285-1.452
			c-9.646,0.23-19.074,1.236-28.765,0.855C609.034,162.088,608.913,163.458,609.729,163.545L609.729,163.545z"/>
	</g>
	<g>
		<g>
			<path fill="#AA6919" d="M598.018,123.88c2.918-0.228,5.253,1.197,7.324,3.111c0.666,0.616,1.525-0.265,1.136-0.986
				c-1.626-3.015-5.3-4.177-8.569-3.638C596.962,122.522,597.026,123.957,598.018,123.88L598.018,123.88z"/>
		</g>
		<g>
			<path fill="#AA6919" d="M630.439,126.142c3.858-3.119,7.724-2.953,12.392-3.189c0.505-0.026,0.426-0.682,0.086-0.861
				c-4.298-2.274-9.963,0.205-13.208,3.234C629.193,125.809,629.894,126.583,630.439,126.142L630.439,126.142z"/>
		</g>
		<g>
			<path fill="#AA6919" d="M600.192,125.709c0.601,1.253,1.023,2.07,2.146,2.868c0.439,0.312,1.294,0.185,1.318-0.49
				c0.026-0.718,0.127-1.205-0.127-1.897c-0.201-0.548-0.538-1.072-0.808-1.589C601.908,123.042,599.416,124.092,600.192,125.709
				L600.192,125.709z"/>
		</g>
		<g>
			<path fill="#AA6919" d="M633.97,123.82c-1.451,1.196-0.924,2.774,0.315,3.916c0.472,0.435,1.288,0.284,1.746-0.069
				c0.99-0.765,1.38-1.885,1.201-3.109c-0.267-1.825-2.986-1.307-2.801,0.499c0.043,0.204-0.035,0.343-0.235,0.417
				c0.582-0.023,1.164-0.046,1.746-0.069c-0.354-0.327-0.569-1.001-0.883-1.379C634.808,123.724,634.321,123.532,633.97,123.82
				L633.97,123.82z"/>
		</g>
	</g>
	<g>
		<g>
			<path fill="#AA6919" d="M597.724,73.013c-4.876,1.561-9.243,7.421-6.59,12.525c0.33,0.635,1.226,0.265,1.248-0.36
				c0.147-4.218,1.466-8.563,5.816-10.131C599.435,74.602,599.024,72.597,597.724,73.013L597.724,73.013z"/>
		</g>
		<g>
			<path fill="#AA6919" d="M634.993,85.387c1.09-7.361-8.814-9.899-13.796-12.553c-0.572-0.305-1.1,0.284-0.858,0.839
				c2.436,5.582,13.634,4.18,13.177,11.618C633.465,86.133,634.87,86.217,634.993,85.387L634.993,85.387z"/>
		</g>
		<g>
			<path fill="#AA6919" d="M634.224,73.984c4.492,1.788,7.749,5.568,8.898,10.278c0.56,2.294,0.56,4.644-0.055,6.926
				c-0.38,1.409-1.365,3.003-1.363,4.546c0.005,4.615,5.567,4.953,8.476,2.685c0.635-0.495,0.282-1.478-0.527-1.447
				c-3.033,0.118-4.897,2.037-4.681-4.053c0.029-0.832,0.515-1.849,0.635-2.71c0.362-2.598,0.016-5.258-0.905-7.708
				c-1.782-4.739-5.408-8.167-10.159-9.77C633.74,72.46,633.471,73.684,634.224,73.984L634.224,73.984z"/>
		</g>
		<g>
			<path fill="#AA6919" d="M654.679,111.739c1.45,0.002,2.698-0.727,3.467-1.961c0.652-1.046,1.039-2.686,0.106-3.673
				c-0.165-0.175-0.437,0.001-0.435,0.209c0.012,1.08,0.173,1.941-0.452,2.917c-0.588,0.919-1.529,1.494-2.627,1.465
				C654.066,110.678,654.007,111.738,654.679,111.739L654.679,111.739z"/>
		</g>
		<g>
			<path fill="#AA6919" d="M664.411,159.107c3.799-6.049,3.296-13.833,0.358-20.061c-0.233-0.493-1.114-0.247-0.938,0.304
				c2.125,6.687,1.281,12.747-0.713,19.275C662.876,159.416,664.015,159.736,664.411,159.107L664.411,159.107z"/>
		</g>
		<g>
			<path fill="#AA6919" d="M606.058,182.742c1.356,4.889,2.739,11.29,0.02,16.13c-1.115,1.985-3.802,3.314-5.504,4.798
				c-2.527,2.203-5.482,4.707-6.386,8.1c-2,7.512,5.664,10.596,9.783,15.352c0.458,0.529,1.245-0.104,0.959-0.694
				c-1.245-2.572-3.025-3.242-4.889-5.409c-8.782-10.205-0.044-13.974,5.339-19.409c6.684-6.75,3.81-11.124,1.351-19.127
				C606.594,182.035,605.936,182.302,606.058,182.742L606.058,182.742z"/>
		</g>
		<g>
			<path fill="#AA6919" d="M581.85,241.443c-3.27,0.095-6.801-2.25-6.799-5.78c0.003-4.896,4.453-5.286,8.111-5.862
				c2.756-0.434,6.427-1.81,5.648-5.257c-0.123-0.545-0.997-0.666-1.233-0.138c-2.159,4.836-7.577,2.371-11.233,5.001
				c-1.827,1.315-3.035,3.448-3.214,5.694c-0.397,4.973,4.13,8.368,8.794,7.377C582.483,242.357,582.462,241.425,581.85,241.443
				L581.85,241.443z"/>
		</g>
		<g>
			<path fill="#AA6919" d="M559.11,249.932c-1.237-4.992-2.474-9.984-3.711-14.975c0.911-1.24,1.823-2.479,2.734-3.719
				c1.354-1.592,2.931-2.999,4.395-4.487c2.149-2.185,4.277-4.399,5.799-7.087c2.854-5.042,3.523-10.535,2.347-16.136
				c-0.117-0.558-1.068-0.537-1.033,0.073c0.542,9.557-2.578,16.235-9.139,23.039c-2.779,2.882-6.018,5.872-7.303,9.801
				c-1.948,5.96,0.505,10.965,5.287,14.537C559.115,251.448,559.725,250.401,559.11,249.932L559.11,249.932z"/>
		</g>
		<g>
			<path fill="#AA6919" d="M589.205,141.941c-0.258,8.072,1.271,18.283-0.712,26.141c-2.908,11.522-11.248,6.669-16.489,11.847
				c-5.246,5.182-5.419,15.992,2.685,17.608c0.938,0.187,1.371-1.329,0.45-1.64c-6.48-6.988-6.225-11.403,0.765-13.245
				c1.394-1.625,3.008-2.463,4.842-2.513c0.929-0.396,2.378,0.004,3.244-0.544c2.692-1.705,4.246-3.426,5.315-6.429
				c3.223-9.056,1.077-21.773,1.044-31.191C590.346,141.242,589.229,141.201,589.205,141.941L589.205,141.941z"/>
		</g>
		<g>
			<path fill="#AA6919" d="M671.08,170.467c-4.275,6.525-11.151,14.228-12.396,22.184c-1.49,9.518,15.247,23.324,3.49,30.787
				c-0.572,0.363-0.162,1.246,0.477,0.957c4.132-1.866,5.952-4.962,5.549-9.661c-0.576-6.721-5.968-11.563-6.703-18.392
				c-0.936-8.692,6.556-17.677,10.812-25.219C672.755,170.332,671.563,169.729,671.08,170.467L671.08,170.467z"/>
		</g>
		<g>
			<path fill="#AA6919" d="M662.907,239.211c-5.813,9.613-5.65,15.526,0.227,24.853c4.809,7.631,3.359,14.902-2.795,23.016
				c-1.578,2.08-2.151,1.307-3.9,4.271c-2.369,4.016-2.379,6.409-0.412,10.343c0.284,0.568,1.266,0.235,1.064-0.394
				c-3.327-10.363,13.014-16.215,12.903-26.219c-0.164-14.772-18.11-13.86-6.339-35.335
				C663.933,239.239,663.218,238.696,662.907,239.211L662.907,239.211z"/>
		</g>
		<g>
			<path fill="#AA6919" d="M660.981,304.026c-4.016,7.038-6.521,14.406-3.815,22.4c1.16,3.425,3.155,6.315,5.062,9.351
				c3.815,6.077,4.432,6.958,4.219,14.966c-0.238,8.933-2.159,10.348-7.761,16.588c-0.57,0.635,0.313,1.701,1.01,1.148
				c6.208-4.924,12.097-11.465,10.926-19.986c-2.457-17.882-20.112-21.194-8.672-43.859
				C662.277,303.986,661.351,303.377,660.981,304.026L660.981,304.026z"/>
		</g>
		<g>
			<path fill="#AA6919" d="M658.641,380.909c-2.707,5.863-2.513,10.373-1.308,16.607c1.446,7.482,14.024,6.574-0.1,20.445
				c-2.807,2.757-6.66,3.418-9.106,6.58c-4.955,6.407-2.298,14.948,4.774,18.128c0.651,0.293,1.453-0.591,0.801-1.093
				c-0.773-5.861-1.545-11.722-2.318-17.583c1.483-0.858,2.949-1.744,4.396-2.66c1.362-0.969,2.586-1.859,3.748-3.062
				c1.922-1.991,3.593-4.358,4.208-7.12c0.556-2.498,0.184-3.922-0.415-6.412c-2.089-8.676-7.666-14.201-3.636-23.502
				C659.967,380.586,658.931,380.282,658.641,380.909L658.641,380.909z"/>
		</g>
		<g>
			<path fill="#AA6919" d="M623.823,455.568c-1.91-3.749-1.73-8.297,1.051-11.581c2.444-2.886,5.855-3.601,9.48-3.728
				c0.482-0.017,0.767-0.766,0.2-0.916c-9.617-2.542-15.81,8.953-11.762,16.775C623.138,456.788,624.164,456.238,623.823,455.568
				L623.823,455.568z"/>
		</g>
		<g>
			<path fill="#AA6919" d="M643.401,332.901c-7.864-9.558-7.021-22.717,0.792-32.032c0.408-0.486-0.401-1.146-0.848-0.715
				c-9.247,8.92-9.333,23.854-1.178,33.541C642.766,334.405,644.003,333.632,643.401,332.901L643.401,332.901z"/>
		</g>
	</g>
	<g>
		<path fill="#D58C77" d="M617.752,191.85c6.072,2.953,12.945,0.902,18.873-1.514c0.232-0.094,0.142-0.456-0.109-0.383
			c-6.026,1.747-12.123,3.634-18.098,0.589C617.575,190.114,616.902,191.437,617.752,191.85L617.752,191.85z"/>
	</g>
	<g>
		<g>
			<path fill="#9B2E0B" d="M678.202,107.774c2.799-12.349,2.139-28.46-2.4-40.328c-0.158-0.414-0.785-0.241-0.74,0.191
				c0.691,6.664,2.062,13.188,2.444,19.9c0.384,6.756-0.248,13.319-0.424,20.056C677.066,108.222,678.055,108.423,678.202,107.774
				L678.202,107.774z"/>
		</g>
		<g>
			<path fill="#892A0A" d="M712.771,168.898c-7.163,12.226-12.83,25.651-15.782,39.543c-0.185,0.871,1.064,1.139,1.332,0.31
				c4.387-13.574,9.296-26.466,15.811-39.184C714.582,168.69,713.259,168.065,712.771,168.898L712.771,168.898z"/>
		</g>
		<g>
			<path fill="#9B2E0B" d="M687.497,223.601c-7.326,34.06-8.809,69.644-3.088,104.08c0.118,0.711,1.133,0.451,1.069-0.231
				c-3.262-34.876-2.702-68.923,3.141-103.523C688.742,223.204,687.658,222.853,687.497,223.601L687.497,223.601z"/>
		</g>
		<g>
			<path fill="#892A0A" d="M699.218,399.364c13.05-54.366,20.072-111.075,20.463-167c0.002-0.341-0.506-0.301-0.521,0.029
				c-2.691,56.35-9.432,111.567-20.655,166.866C698.411,399.718,699.111,399.81,699.218,399.364L699.218,399.364z"/>
		</g>
		<g>
			<path fill="#892A0A" d="M744.01,227.067c-4.739,11.953-7.68,24.032-8.584,36.853c-0.051,0.721,1.168,0.881,1.273,0.152
				c1.794-12.432,4.682-24.598,9.138-36.357C746.281,226.546,744.469,225.909,744.01,227.067L744.01,227.067z"/>
		</g>
		<g>
			<path fill="#892A0A" d="M766.07,241.626c6.262,29.422-1.571,56.035-9.943,84.004c-0.196,0.656,0.721,0.929,0.992,0.326
				c11.724-26.025,17.679-56.749,10.219-84.687C767.118,240.442,765.895,240.803,766.07,241.626L766.07,241.626z"/>
		</g>
		<g>
			<path fill="#892A0A" d="M698.537,423.202c3.615-7.906,14.27-4.201,20.688-5.143c5.704-0.838,11.164-3.057,16.298-5.615
				c11.688-5.825,21.827-14.118,31.728-22.508c0.809-0.686-0.115-2.008-0.976-1.35c-12.842,9.807-27.321,22.864-43.522,26.428
				c-10.92,2.402-20.845-4.225-25.249,7.723C697.285,423.329,698.267,423.793,698.537,423.202L698.537,423.202z"/>
		</g>
		<g>
			<path fill="#892A0A" d="M798.572,364.267c-8.006,2.922-15.731,8.633-19.496,16.482c-0.317,0.661,0.573,1.421,1.094,0.801
				c5.5-6.555,11.16-12.043,19.044-15.692C800.214,365.395,799.614,363.886,798.572,364.267L798.572,364.267z"/>
		</g>
		<g>
			<path fill="#892A0A" d="M724.544,416.548c5.827,3.354,11.838,3.014,18.318,1.882c10.008-1.747,19.914-4.259,29.749-6.768
				c0.804-0.205,0.465-1.361-0.327-1.225c-14.209,2.437-33.194,10.297-47.073,4.777
				C724.324,414.861,723.703,416.064,724.544,416.548L724.544,416.548z"/>
		</g>
		<g>
			<path fill="#892A0A" d="M787.287,406.503c2.803-1.384,5.807-2.618,8.435-4.317c0.269-0.174,0.057-0.627-0.25-0.509
				c-2.924,1.121-5.692,2.826-8.464,4.276C786.698,406.115,786.971,406.659,787.287,406.503L787.287,406.503z"/>
		</g>
		<g>
			<path fill="#892A0A" d="M694.565,427.778c11.428,12.253,26.067,22.398,43.724,19.347c0.68-0.117,0.547-1.227-0.143-1.2
				c-17.058,0.672-30.876-7.352-42.994-18.746C694.807,426.856,694.241,427.43,694.565,427.778L694.565,427.778z"/>
		</g>
		<g>
			<path fill="#892A0A" d="M791.571,429.47c-6.941,6.559-15.018,10.148-24.156,12.557c-0.691,0.182-0.461,1.152,0.231,1.069
				c9.475-1.131,18.032-6.143,24.744-12.758C792.937,429.799,792.13,428.942,791.571,429.47L791.571,429.47z"/>
		</g>
		<g>
			<path fill="#892A0A" d="M684.133,443.941c6.536,24.882,13.261,56.928,37.653,70.402c0.674,0.372,1.255-0.589,0.619-1.02
				c-23.867-16.166-28.12-44.253-37.09-69.679C685.058,442.917,683.93,443.169,684.133,443.941L684.133,443.941z"/>
		</g>
		<g>
			<path fill="#892A0A" d="M607.632,472.007c14.088,47.504,19.235,95.002,17.916,144.421c-0.023,0.865,1.447,0.949,1.527,0.078
				c4.472-48.53-2.724-98.826-18.526-144.79C608.371,471.2,607.475,471.479,607.632,472.007L607.632,472.007z"/>
		</g>
		<g>
			<path fill="#892A0A" d="M694.009,578.74c7.897,73.005,17.643,146.482,33.123,218.311c0.171,0.793,1.33,0.465,1.204-0.312
				c-11.834-72.685-24.355-145.055-33.349-218.182C694.908,577.918,693.941,578.109,694.009,578.74L694.009,578.74z"/>
		</g>
		<g>
			<path fill="#9B2E0B" d="M533.536,243.56c-1.042,21.002-2.342,42.029-2.666,63.057c-0.01,0.635,0.947,0.715,0.992,0.071
				c1.484-20.991,2.016-42.06,2.792-63.087C534.681,242.882,533.571,242.839,533.536,243.56L533.536,243.56z"/>
		</g>
		<g>
			<path fill="#892A0A" d="M530.818,312.235c-0.741,10.295,0.477,20.637,4.199,30.305c0.287,0.744,1.444,0.48,1.225-0.327
				c-2.69-9.908-4.282-19.655-4.331-29.931C531.908,311.581,530.869,311.528,530.818,312.235L530.818,312.235z"/>
		</g>
		<g>
			<path fill="#9B2E0B" d="M510.661,292.793c9.579,9.175,11.197,22.46,12.894,34.981c0.109,0.802,1.362,0.833,1.293-0.014
				c-1.052-12.952-3.246-26.623-13.331-35.763C510.966,291.498,510.114,292.269,510.661,292.793L510.661,292.793z"/>
		</g>
		<g>
			<path fill="#9B2E0B" d="M529.644,366.124c-3.949-5.238-9.413-9.476-14.266-13.858c-4.967-4.484-9.929-9.566-15.714-12.975
				c-0.881-0.519-1.451,0.796-0.864,1.407c4.799,4.994,10.66,9.183,15.841,13.802c4.644,4.14,9.137,8.892,14.47,12.138
				C529.447,366.841,529.918,366.487,529.644,366.124L529.644,366.124z"/>
		</g>
		<g>
			<path fill="#9B2E0B" d="M498.084,347.602c7.213,7.432,16.056,13.495,26.189,16.08c0.615,0.157,0.926-0.702,0.323-0.941
				c-9.627-3.815-18.263-8.519-25.738-15.803C498.395,346.486,497.624,347.128,498.084,347.602L498.084,347.602z"/>
		</g>
		<g>
			<path fill="#9B2E0B" d="M485.174,372.552c6.361,7.817,12.754,15.604,19.231,23.324c6.521,7.773,13.1,15.08,15.802,25.121
				c0.169,0.627,1.132,0.456,1.001-0.195c-1.841-9.16-7.389-15.991-13.218-23.075c-7.212-8.766-14.541-17.433-21.912-26.065
				C485.544,371.036,484.666,371.927,485.174,372.552L485.174,372.552z"/>
		</g>
		<g>
			<path fill="#9B2E0B" d="M496.924,384.466c16.599,17.674,45.767,23.816,52.032,49.966c0.121,0.504,0.888,0.421,0.813-0.113
				c-3.754-26.673-35.214-34.142-51.895-50.839C497.248,382.854,496.325,383.828,496.924,384.466L496.924,384.466z"/>
		</g>
		<g>
			<path fill="#9B2E0B" d="M500.818,604.347c-21.395,44.576-45.761,87.309-57.638,135.713
				c-11.231,45.771-13.91,94.301-5.719,140.788c0.184,1.046,1.788,0.887,1.656-0.188c-5.895-47.785-4.599-95.581,7.215-142.413
				c12.048-47.762,38.271-87.962,55.727-133.419C502.329,604.124,501.143,603.669,500.818,604.347L500.818,604.347z"/>
		</g>
		<g>
			<path fill="#892A0A" d="M503.6,631.406c-1.502,29.786-12.827,58.462-19.587,87.309c-6.32,26.97-11.029,54.374-12.753,82.044
				c-2.999,48.117,2.246,100.413,25.314,143.549c0.412,0.77,1.701,0.12,1.368-0.684c-21.3-51.449-28.525-104.016-22.75-159.443
				c2.785-26.734,8.014-53.154,14.589-79.199c6.134-24.298,15.036-48.235,15.037-73.564
				C504.819,630.631,503.64,630.623,503.6,631.406L503.6,631.406z"/>
		</g>
		<g>
			<path fill="#892A0A" d="M540.196,1059.356c5.515-95.423-72.108-176.494-51.748-273.212c0.106-0.505-0.753-0.703-0.89-0.2
				c-25.915,94.937,55.353,179.14,51.57,273.358C539.1,1059.989,540.156,1060.045,540.196,1059.356L540.196,1059.356z"/>
		</g>
		<g>
			<path fill="#892A0A" d="M722.768,649.596c23.642,68.827,35.005,139.508,38.632,212.028c0.034,0.674,1.07,0.753,1.068,0.054
				c-0.246-72.101-14.881-144.411-38.631-212.313C723.608,648.709,722.538,648.929,722.768,649.596L722.768,649.596z"/>
		</g>
	</g>
	<g>
		<g>
			<path fill="#D58C77" d="M609.116,139.236c0.054,3.675,2.791,6.986,6.011,8.405c0.835,0.368,1.599-0.796,0.86-1.38
				c-2.564-2.028-3.981-4.469-5.331-7.37C610.273,138.067,609.102,138.311,609.116,139.236L609.116,139.236z"/>
		</g>
		<g>
			<g>
				<path fill="#D58C77" d="M397.713,261.089c5.188,1.088,10.622,2.795,15.917,3.09c0.684,0.038,0.784-0.932,0.177-1.146
					c-4.963-1.743-10.612-2.23-15.775-3.198C397.221,259.684,396.892,260.917,397.713,261.089L397.713,261.089z"/>
			</g>
			<g>
				<path fill="#D58C77" d="M386.427,251.966c4.462-0.264,9.424-0.221,13.748-1.401c0.79-0.216,0.51-1.247-0.203-1.316
					c-4.416-0.43-9.332,0.55-13.719,1.086C385.201,250.463,385.374,252.029,386.427,251.966L386.427,251.966z"/>
			</g>
			<g>
				<path fill="#D58C77" d="M382.155,243.101c-1.472-0.203-2.878-0.263-4.364-0.063c-0.674,0.091-0.483,1.026,0.101,1.105
					c1.47,0.199,2.861,0.119,4.311-0.082C382.77,243.983,382.681,243.174,382.155,243.101L382.155,243.101z"/>
			</g>
		</g>
		<g>
			<g>
				<path fill="#D58C77" d="M574.919,859.516c0.001,8.759,2.255,17.512,7.679,24.509c0.397,0.512,1.253-0.096,0.928-0.652
					c-4.397-7.528-7.338-14.972-7.665-23.777C575.838,859.003,574.918,858.898,574.919,859.516L574.919,859.516z"/>
			</g>
			<g>
				<g>
					<path fill="#D58C77" d="M616.143,1146.458c-0.924-3.337-0.744-6.521,1.223-9.477c1.728-2.596,4.222-3.453,6.758-4.96
						c0.413-0.246,0.419-0.991-0.121-1.099c-3.857-0.775-7.433,2.806-9.09,5.929c-1.649,3.108-2.152,6.969-0.598,10.205
						C614.776,1148.017,616.445,1147.548,616.143,1146.458L616.143,1146.458z"/>
				</g>
				<g>
					<path fill="#D58C77" d="M604.058,1148.459c-0.408-5.262,1.169-10.174,4.031-14.563c0.231-0.354-0.231-0.763-0.518-0.427
						c-3.637,4.258-4.986,9.613-4.444,15.151C603.187,1149.23,604.105,1149.058,604.058,1148.459L604.058,1148.459z"/>
				</g>
				<g>
					<path fill="#D58C77" d="M595.721,1148.621c-0.413-7.046,2.99-11.437,8.541-15.305c0.42-0.293,0.049-0.96-0.413-0.869
						c-6.815,1.353-11.135,9.92-9.807,16.376C594.26,1149.884,595.785,1149.719,595.721,1148.621L595.721,1148.621z"/>
				</g>
				<g>
					<path fill="#D58C77" d="M588.078,1147.249c-1.084-3.366-0.501-7.081,2.149-9.569c2.326-2.183,5.37-2.615,8.42-2.328
						c0.581,0.055,0.704-0.758,0.197-0.967c-8.189-3.361-15.022,5.984-11.93,13.34
						C587.193,1148.389,588.297,1147.929,588.078,1147.249L588.078,1147.249z"/>
				</g>
				<g>
					<g>
						<path fill="#D58C77" d="M704.305,1132.858c5.009,2.942,6.82,8.099,6.565,13.648c-0.05,1.08,1.37,1.28,1.648,0.244
							c1.644-6.111-2.206-12.499-7.542-15.308C704.074,1130.968,703.448,1132.355,704.305,1132.858L704.305,1132.858z"/>
					</g>
					<g>
						<path fill="#D58C77" d="M718.718,1129.477c1.812,1.877,3.219,4.036,4.06,6.515c1.007,2.968,0.478,5.634,0.813,8.634
							c0.053,0.471,0.803,0.593,1.018,0.178c2.696-5.203-1.106-12.667-5.062-16.078
							C719.018,1128.269,718.205,1128.945,718.718,1129.477L718.718,1129.477z"/>
					</g>
					<g>
						<path fill="#D58C77" d="M729.517,1129.143c4.22,4.217,5.849,10.297,4.132,16.056c-0.318,1.067,1.302,1.743,1.606,0.67
							c1.816-6.389,0.021-12.953-4.964-17.39C729.816,1128.056,729.043,1128.669,729.517,1129.143L729.517,1129.143z"/>
					</g>
					<g>
						<path fill="#D58C77" d="M741.118,1131.213c1.565,1.69,2.928,3.402,3.832,5.535c0.947,2.234,0.968,4.454,1.404,6.779
							c0.116,0.617,1.06,0.59,1.202,0.005c1.143-4.68-2.035-10.43-5.745-13.12C741.323,1130.058,740.71,1130.772,741.118,1131.213
							L741.118,1131.213z"/>
					</g>
				</g>
			</g>
		</g>
	</g>
	<g>
		<g>
			<path fill="#B69D97" d="M565.377,1145.731c12.264-16.199,13.265-36.592,13.639-56.202c0.496-26.047-1.909-52.157-7.579-77.59
				c-0.157-0.705-1.227-0.463-1.092,0.244c4.433,23.231,7.374,46.552,7.566,70.225c0.174,21.375,0.222,44.997-13.12,62.861
				C564.505,1145.653,565.086,1146.115,565.377,1145.731L565.377,1145.731z"/>
		</g>
		<g>
			<path fill="#B69D97" d="M569.728,1089.857c2.949-23.456-1.957-47.675-4.557-70.978c-2.913-26.103-5.449-52.329-9.337-78.307
				c-0.089-0.594-0.955-0.431-0.908,0.151c1.94,23.685,5.144,47.303,7.942,70.899c3.013,25.411,9.013,52.552,6.348,78.132
				C569.182,1090.083,569.686,1090.194,569.728,1089.857L569.728,1089.857z"/>
		</g>
		<g>
			<path fill="#D6BFBA" d="M578.635,426.636c-6.101-6.145-10.753-12.847-12.551-21.457c-0.165-0.793-1.541-0.554-1.407,0.256
				c1.439,8.714,5.695,17.243,13.15,22.32C578.497,428.211,579.167,427.171,578.635,426.636L578.635,426.636z"/>
		</g>
		<g>
			<path fill="#D6BFBA" d="M593.695,429.508c-11.499-27.774-14.421-54.582-5.903-83.722c0.184-0.629-0.735-0.942-0.967-0.325
				c-10.047,26.799-8.762,59.529,5.99,84.456C593.129,430.447,593.937,430.095,593.695,429.508L593.695,429.508z"/>
		</g>
		<g>
			<path fill="#D6BFBA" d="M616.217,428.896c11.948-28.007,13.185-58.645,12.606-88.698c-0.008-0.419-0.725-0.432-0.74-0.008
				c-1.068,30.112-1.329,60.06-12.91,88.379C614.905,429.223,615.943,429.538,616.217,428.896L616.217,428.896z"/>
		</g>
		<g>
			<path fill="#D6BFBA" d="M611.763,421.264c0.144-17.205,0.175-34.392-0.102-51.593c-0.007-0.447-0.782-0.45-0.789,0.002
				c-0.281,17.177-0.246,34.341-0.101,51.521C610.776,421.826,611.758,421.909,611.763,421.264L611.763,421.264z"/>
		</g>
		<g>
			<path fill="#D6BFBA" d="M593.217,435.782c-3.098,14.443,8.972,25.061,19.996,32.001c0.576,0.363,1.098-0.457,0.578-0.87
				c-10.004-7.948-21.696-16.455-19.633-30.932C594.234,435.446,593.333,435.241,593.217,435.782L593.217,435.782z"/>
		</g>
		<g>
			<path fill="#D6BFBA" d="M588.466,431.014c-1.566,2.261-4.613,2.146-6.777,0.856c-2.023-1.205-3.077-3.265-4.711-4.852
				c-0.473-0.46-1.24,0.067-0.944,0.673c2.18,4.451,9.65,9.827,13.452,3.942C589.906,430.985,588.901,430.387,588.466,431.014
				L588.466,431.014z"/>
		</g>
		<g>
			<path fill="#D6BFBA" d="M576.455,430.079c-5.264,1.047-10.199-1.447-12.791-6.067c-0.369-0.658-1.274-0.14-1.013,0.531
				c2.132,5.498,8.587,8.204,14.081,6.431C577.247,430.809,576.973,429.976,576.455,430.079L576.455,430.079z"/>
		</g>
		<g>
			<path fill="#D6BFBA" d="M593.016,432.167c4.163,2.765,9.245,6.028,14.446,4.249c3.27-1.118,6.566-4.395,5.268-8.049
				c-0.132-0.371-0.689-0.279-0.74,0.092c-0.545,3.976-3.049,6.934-7.315,7.092c-4.035,0.15-7.773-2.268-11.067-4.304
				C593.01,430.878,592.428,431.777,593.016,432.167L593.016,432.167z"/>
		</g>
		<g>
			<path fill="#D6BFBA" d="M615.338,432.103c2.308,0.634,4.77,0.48,6.744-0.956c0.315-0.229,0.048-0.757-0.325-0.609
				c-1.979,0.784-4.003,1.187-6.098,0.65C615.063,431.035,614.732,431.936,615.338,432.103L615.338,432.103z"/>
		</g>
		<g>
			<path fill="#D6BFBA" d="M562.419,428.667c2.434,13.401,6.915,26.222,14.255,37.738c0.208,0.327,0.793,0.027,0.609-0.325
				c-6.256-11.988-11.226-24.294-13.98-37.554C563.186,427.964,562.315,428.096,562.419,428.667L562.419,428.667z"/>
		</g>
		<g>
			<path fill="#D6BFBA" d="M557.458,430.86c-8.67,55.119-12.177,111.277-9.144,167.021c0.025,0.452,0.703,0.371,0.693-0.072
				c-1.256-55.942,1.463-111.47,9.443-166.878C558.541,430.295,557.556,430.232,557.458,430.86L557.458,430.86z"/>
		</g>
		<g>
			<path fill="#D6BFBA" d="M564.532,262.593c3.761,13.181,9.909,25.657,18.969,36.011c0.401,0.458,1.102-0.119,0.73-0.6
				c-8.444-10.919-14.853-22.29-18.745-35.583C565.313,261.829,564.36,261.991,564.532,262.593L564.532,262.593z"/>
		</g>
		<g>
			<path fill="#D6BFBA" d="M592.75,305.76c8.668,2.42,6.858,13.89,13.815,18.105c3.272,1.983,7.799,1.407,9.412-2.238
				c0.189-0.427-0.49-0.823-0.733-0.406c-2.63,4.513-8.105,2.257-10.54-0.937c-1.721-2.258-2.541-4.963-3.706-7.516
				c-1.655-3.627-3.906-6.852-7.926-7.923C592.475,304.686,592.145,305.591,592.75,305.76L592.75,305.76z"/>
		</g>
		<g>
			<path fill="#D6BFBA" d="M591.927,306.638c-0.653,5.17-1.127,10.627-0.96,15.839c0.015,0.469,0.716,0.424,0.789-0.002
				c0.883-5.128,1.196-10.587,1.264-15.789C593.03,305.974,592.015,305.945,591.927,306.638L591.927,306.638z"/>
		</g>
		<g>
			<path fill="#D6BFBA" d="M580.058,294.728c-1.29,2.881-1.45,5.805-0.783,8.861c0.142,0.651,1.067,0.449,1.001-0.195
				c-0.286-2.773,0.242-5.574,1.155-8.187C581.703,294.428,580.393,293.98,580.058,294.728L580.058,294.728z"/>
		</g>
		<g>
			<path fill="#D6BFBA" d="M566.861,268.787c-0.794,8.389-1.785,16.795-2.108,25.219c-0.021,0.538,0.769,0.641,0.84,0.094
				c1.097-8.365,1.549-16.82,2.184-25.229C567.821,268.281,566.917,268.195,566.861,268.787L566.861,268.787z"/>
		</g>
		<g>
			<path fill="#D6BFBA" d="M615.864,320.33c-0.014,3.146,0.007,6.277,0.125,9.422c0.025,0.676,1.042,0.754,1.068,0.054
				c0.117-3.17,0.14-6.327,0.125-9.499C617.178,319.458,615.867,319.48,615.864,320.33L615.864,320.33z"/>
		</g>
		<g>
			<path fill="#D6BFBA" d="M570.958,255.519c4.257,5.651,9.104,10.506,14.772,14.733c0.372,0.277,0.806-0.263,0.451-0.563
				c-5.289-4.457-10.141-9.531-14.329-15.036C571.366,254.016,570.484,254.889,570.958,255.519L570.958,255.519z"/>
		</g>
		<g>
			<path fill="#D6BFBA" d="M579.261,255.826c10.718,8.102,22.786,12.504,36.197,13.05c0.671,0.027,0.733-0.996,0.06-1.043
				c-13.001-0.9-25.137-5.238-35.671-12.902C579.287,254.525,578.716,255.414,579.261,255.826L579.261,255.826z"/>
		</g>
		<g>
			<path fill="#D6BFBA" d="M638.152,896.422c5.364,40.132,12.066,80.065,20,119.769c3.837,19.203,7.804,38.416,12.4,57.454
				c2.754,11.405,6.129,22.848,15.818,30.226c0.653,0.497,1.552-0.324,0.927-0.937c-13.481-13.229-15.602-33.251-19.436-50.896
				c-3.681-16.942-7.207-33.918-10.517-50.936c-6.777-34.84-12.751-69.82-18.146-104.899
				C639.093,895.519,638.061,895.746,638.152,896.422L638.152,896.422z"/>
		</g>
		<g>
			<path fill="#CFB9B4" d="M768.921,1108.5c-12.026-5.388-22.614-8.822-35.88-5.81c-14.465,3.284-28.954,9.411-41.894,16.564
				c-0.716,0.396-0.112,1.394,0.607,1.085c10.728-4.61,21.414-9.314,32.531-12.935c16.418-5.348,27.635-4.594,44.309,2.14
				C769.254,1109.81,769.551,1108.782,768.921,1108.5L768.921,1108.5z"/>
		</g>
		<g>
			<path fill="#D6BFBA" d="M731.466,924.806c-0.071,24.266,1.239,49.098-2.789,73.118c-1.885,11.238-4.88,22.247-8.229,33.128
				c-1.354,4.4-2.62,13.932-5.653,17.341c-7.935,8.92-10.295,3.369-15.97,0.716c-0.856-0.4-1.707,0.951-0.87,1.461
				c4.667,2.842,9.289,10.479,15.537,6.498c2.962-1.887,4.055-9.583,5.01-12.454c2.637-7.932,5.212-15.888,7.408-23.955
				c8.602-31.594,7.319-63.53,7.092-95.974C732.997,923.689,731.469,923.819,731.466,924.806L731.466,924.806z"/>
		</g>
		<g>
			<path fill="#CFB9B4" d="M791.124,1101.874c24.828-9.405,23.527-45.069,20.275-66.405c-4.713-30.925-16.468-60.173-16.75-91.808
				c-0.007-0.818-1.24-0.81-1.268,0.005c-0.895,25.774,7.297,50.252,13.054,75.076c5.589,24.098,14.248,70.81-15.42,82.749
				C790.781,1101.585,790.883,1101.965,791.124,1101.874L791.124,1101.874z"/>
		</g>
		<g>
			<path fill="#CFB9B4" d="M791.003,943.658c2.102,47.802-1.105,94.577-6.693,142.014c-0.062,0.529,0.717,0.612,0.815,0.097
				c8.88-46.452,10.272-94.967,6.997-142.07C792.072,942.993,790.971,942.93,791.003,943.658L791.003,943.658z"/>
		</g>
	</g>
	<g>
		<g>
			<path fill="#CD744C" d="M411.638,124.682c-5.633,9.559-17.442,12.724-24.999,20.48c-4.656,4.778-8.436,10.498-10.227,16.983
				c-2.993,10.833-0.309,22.126,7.875,29.864c1.023,0.967,2.528-0.481,1.573-1.522c-11.632-12.678-9.674-29.774,1.168-42.251
				c7.701-8.863,20.113-12.293,25.442-23.122C412.702,124.64,411.908,124.224,411.638,124.682L411.638,124.682z"/>
		</g>
		<g>
			<path fill="#CD744C" d="M428.167,163.321c-4.161,2.837-8.089,6.447-9.467,11.476c-2.095,7.645,4.791,14.559,1.626,22.18
				c-0.214,0.515,0.51,0.828,0.831,0.432c2.323-2.871,2.088-5.648,1.173-9.17c-0.798-3.073-2.632-6.383-2.504-9.602
				c0.252-6.309,4.151-10.759,8.988-14.196C429.484,163.964,428.859,162.849,428.167,163.321L428.167,163.321z"/>
		</g>
		<g>
			<path fill="#CD744C" d="M419.049,124.196c4.774,12.569,0.995,22.343-6.053,33.208c-3.051,4.703-6.363,9.22-7.668,14.769
				c-1.568,6.666-0.568,12.886,4.827,17.335c0.528,0.436,1.092-0.4,0.725-0.872c-12.085-15.525,5.733-28.695,10.465-42.703
				c2.548-7.544,1.536-14.9-1.477-22.098C419.644,123.301,418.846,123.661,419.049,124.196L419.049,124.196z"/>
		</g>
	</g>
</g>
</svg>
