<?xml version="1.0" encoding="utf-8"?>
<!-- Designed by Vexels.com - 2019 All Rights Reserved - https://vexels.com/terms-and-conditions/  -->
<svg version="1.1" id="Layer_1" xmlns="http://www.w3.org/2000/svg" xmlns:xlink="http://www.w3.org/1999/xlink" x="0px" y="0px"
	 viewBox="0 0 1200 1200" enable-background="new 0 0 1200 1200" xml:space="preserve">
<g>
	<g>
		<g>
			<path fill="#7182B4" d="M527.001,241.764c15.077-0.015,59.202,13.339,75.827,19.098c16.625,5.758-1.907,274.343-41.238,303.181
				c-39.331,28.838-117.4,46.26-137.691,39.711l8.228-47.767c0,0-1.64-14.344,3.348-29.484c4.989-15.14,12.407-32.088-4.227-69.474
				c-5.165-13.552-5.718-62.91-5.718-62.91s-20.062,36.484-45.023,54.32c0,0-10.982,32.503-24.189,38.123
				c-13.207,5.62-32.745-1.539-51.473,10.331c-18.729,11.869-7.889-43.529-4.441-47.458c25.091-17.033,30.45-32.086,42.797-32.493
				c0,0,6.261-34.278,30.029-55.167c0,0-23.548-64.591,44.67-89.89c0,0,29.117-3.346,75.093-28.312
				C513.074,235.186,527.001,241.764,527.001,241.764z"/>
			<path fill="#859EB9" d="M477.311,435.402c7.442,14.619,25.159,24.659,36.414,16.713s21.641-25.84,2.976-31.401
				c-18.665-5.561-11.756,6.853-26.264,6.518C475.93,426.897,473.448,427.813,477.311,435.402z"/>
			<path fill="#859EB9" d="M545.69,435.402c-6.572-16.334,7.381-40.323,20.279-16.124s15.661,28.348,8.062,32.836
				C566.431,456.604,551.891,450.815,545.69,435.402z"/>
			<path fill="#859EB9" d="M489.056,474.703c13.871-19.88,36.428-14.206,37.903-4.754c1.475,9.452-30.832,43.039-7.424,48.007
				s28.996-12.39,24.475-29.963s16.214-29.541,25.536-10.431s3.795,50.916-16.931,59.538s-17.673,29.389-38.889,13.479
				s-35.723-20.041-24.67-40.428C500.109,489.764,480.766,486.585,489.056,474.703z"/>
			<path fill="#859EB9" d="M587.07,278.105c-2.677,2.677-8.031,5.354-5.354,10.708c-10.708,2.677-21.416,2.677-24.093,18.739
				c0,8.031-13.385,5.354-21.416,2.677c2.677,10.708-8.031,13.385-13.385,16.062c-16.062,5.354-29.448-13.385-37.479-26.77
				c-2.677-2.677-8.031,0-13.385,0c14.778-23.222-3.739-28.135-20.106-37.05c-21.487,7.978-33.949,9.413-33.949,9.413
				c-68.218,25.299-44.67,89.89-44.67,89.89c-23.768,20.889-30.029,55.167-30.029,55.167c-12.347,0.407-17.705,15.461-42.797,32.493
				c-1.138,1.297-3.077,8.207-4.496,16.447c32.029-5.376,69.609,0.788,71.643-37.863c5.354,2.677,10.708-2.677,16.062-5.354
				c21.416-18.739,21.416-53.541,18.739-77.634c0-2.677,9.154-9.9,22.107,11.917c21.416,32.125,39.465,63.04,82.298,44.301
				c5.354-2.677,0-13.385,2.677-18.739c26.77-24.093,58.895,16.062,91.02,5.354c1.511-0.529,2.986-1.102,4.442-1.698
				c4.157-46.551,5.208-89.587,2.635-111.07C600.712,273.47,593.891,274.695,587.07,278.105z"/>
		</g>
		<path fill="#B4D8E1" d="M393.749,1103.067c-1.565,18.627,26.738,24.779,78.777,15.607c0,0,44.163,10.3,71.648-1.799
			c41.053-18.072,152.006,25.189,197.208,4.572c14.006-17.968-11.232-107.005-25.924-124.849
			c-14.692-17.844-124.502-152.135-167.594-147.014S402.975,993.292,393.749,1103.067z"/>
		<g>
			<path fill="#7182B4" d="M403.704,1086.665l-4.041,37.46c0,0-15.719,4.405-38.761,1.757c-23.042-2.649-3.855,9.704-37.765,14.947
				c-14.566,1.808-18.738-0.915-18.738-0.915s-15.494,4.837-23.136,0c-7.643-4.837-27.309,2.996,0-18.566
				c20.403-13.272,45.628-19.899,45.628-19.899s13.152-25.129,20.559-25.486S403.704,1086.665,403.704,1086.665z"/>
			<path fill="#859EB9" d="M375.584,1105.312c7.05-9.4-25.089-14.671-43.914-12.199c-2.821,4.602-4.779,8.335-4.779,8.335
				s-25.226,6.627-45.629,19.899c-2.854,2.254-5.168,4.169-7.064,5.829c22.8-0.023,23.318,8.12,37.247,5.207
				C336.372,1124.777,347.45,1105.37,375.584,1105.312z"/>
		</g>
		<g>
			<path fill="#7182B4" d="M524.423,915.549c0,0,22.61,75.983,21.04,124.554c0,0-9.689,19.434,0.372,37.486
				c0,0-10.239,33.823-4.925,45.972l37.481,0.396c0,0,1.703,9.881,17.238,9.09c15.535-0.791,19.471,6.382,27.952-1.436
				c0,0,7.036,2.097,11.818-1.738c0,0,8.612,5.726,13.951,0.946c5.339-4.781-28.919-21.965-35.949-29.37
				c-7.03-7.405-27.442-38.892-27.442-38.892s3.262-64.54,14.579-101.394C611.854,924.309,585.524,830.794,524.423,915.549z"/>
			<path fill="#859EB9" d="M568.331,1067.833c-13.385,21.416,13.385,32.125,24.093,48.187c6.156,8.209,32.751,11.685,48.455,4.424
				c-9.386-6.671-23.283-14.576-27.479-18.996c-5.74-6.045-20.394-28.136-25.583-36.045
				C579.833,1064.474,572.096,1062.186,568.331,1067.833z"/>
		</g>
		<g>
			<path fill="#DBF7FF" d="M390.049,696.195c0,0,7.479,52.66,3.449,61.654c-4.031,8.994-18.734,20.873-20.051,31.145
				c0,0-7.776-2.708-6.382,7.456c1.394,10.164,3.802,30.256,15.142,40.715c0,0-14.058,8.812-18.976,16.544
				c-4.918,7.732-3.671,19.623,6.759,25.768c0,0-13.381,31.018-24.619,45.87c-11.238,14.852,4.126,25.737,8.743,38.644
				c4.617,12.907,9.442,32.049,9.442,32.049s-10.128-0.976-13.807,18.584s-7.985,43.284-7.985,43.284s-19.395,8.763-8.16,31.495
				c0,0,2.688-4.969,13.847-4.139c37.805,0.906,55.63,17.911,71.934-4.163c0,0,49.363-26.77,69.103-110.779
				c0,0,17.667-19.621,41.488-40.838c0,0,32.841-16.56,52.172-65.672c19.332-49.113-5.234-329.541-5.234-329.541
				S489.488,581.38,390.049,696.195z"/>
			<path fill="#C6ECF5" d="M461.249,928.627c-8.431,10.539,7.991,32.147,27.238,41.694c8.674-8.134,17.06-19.43,41.488-40.839
				C529.975,929.483,476.883,910.388,461.249,928.627z"/>
			<path fill="#C6ECF5" d="M388.969,998.23c-10.708,2.677-10.708,18.739-2.677,26.771c17.506,13.13,35,35.203,32.036,57.446
				c0.352-0.439,0.705-0.872,1.056-1.347c0,0,42.082-22.871,64.071-92.53C462.602,1011.005,419.578,991.167,388.969,998.23z"/>
			<path fill="#EFFBFF" d="M576.913,534.269c0,0-13.986,7.549-37.091,23.905c-22.386,68.05-49.932,134.655-113.375,175.028
				c-10.676,7.118-21.353,8.295-32.029,5.157c0.481,8.919,0.398,16.546-0.921,19.489c-4.031,8.994-18.734,20.874-20.051,31.145
				c0,0-7.365-2.539-6.445,6.748c21.363-15.854,51.851,0.838,64.801-25.061c10.708,16.062-2.677,29.448-13.385,34.802
				c-14.342,10.245-30.254,14.202-46.532,14.302c1.874,5.56,4.481,10.963,8.236,15.234c0.269-0.023,0.56-0.088,0.817-0.088
				c18.739,2.677,26.77,2.677,40.156-16.062c2.677,0,8.031,0,10.708,0c-2.677,18.739-18.739,32.125-18.739,53.541
				c40.156-2.677,42.833-77.634,64.249-112.436c2.677-2.677,8.031-8.031,10.708-5.354c16.062,34.802-21.416,69.603-10.708,104.405
				c5.354,10.708,32.125,26.771,34.802,16.062c25.627-58.943,41.493-117.872,75.676-172.118
				C584.306,618.666,576.913,534.269,576.913,534.269z"/>
		</g>
		<g>
			<path fill="#DBF7FF" d="M554.329,543.796l-8.639,108.288l12.334,0.49l-6.4,56.132c0,0-3.186,25.16,9.967,35.118
				c0,0,9.853,113.871,9.278,130.743c-0.576,16.871,4.246,42.801,24.236,62.453c0,0,14.651,37.578,24.552,44.729
				c51.913,123.622,115.005,57.494,120.741,80.809c0,0-55.434-246.284-119.513-513.409
				C620.884,549.148,606.477,490.59,554.329,543.796z"/>
			<path fill="#EFFBFF" d="M587.07,639.506c0,29.448-2.677,58.895,2.677,88.343c2.677,13.385,21.416,2.677,29.448,10.708
				c13.385,16.062,10.708,42.833,26.77,53.541c13.02,8.285,22.896,3.478,30.793-6.535c-16.85-72.268-35.943-153.331-55.874-236.415
				c0,0-14.407-58.557-66.555-5.352l-7.426,93.083C559.116,642.132,573.092,641.836,587.07,639.506z"/>
		</g>
		<path fill="#2A4A6C" d="M460.37,119.039c-8.214,6.196-19.236,7.337-8.142,24.436s12.136,17.221,4.421,24.708
			c-7.716,7.487-14.133,14.54,1.207,26.972c15.34,12.433,10.135,36.404,27.49,34.331c17.355-2.073,72.559,2.188,80.538-29.052
			c0,0,7.287,9.067,19.98,2.738c0,0-17.964,2.153-12.298-13.434c5.666-15.587,11.081-20.726-0.358-26.5
			c0,0,9.498-14.687,1.102-20.334c-13.927-9.274,4.334-23.069-13.042-31.274S513.377,79.059,460.37,119.039z"/>
		<g>
			<path fill="#7182B4" d="M681.944,482.558c0,0,10.384,29.33,5.899,36.403c0,0-8.099-3.018-12.682,2.373
				s-14.131,10.391-14.131,10.391s-5.564,19.875-5.772,23.466c-0.208,3.591,5.768,4.34,7.953,3.308l2.383,5.543
				c0,0-3.431,11.798,0.258,18.674c0,0,2.697,22.12,13.555,26.76c10.859,4.641,29.784-8.245,36.384-24.6
				c6.6-16.355,1.447-22.274,4.714-28.89c3.267-6.615,21.574-34.098,6.376-89.021C726.881,466.966,689.167,453.244,681.944,482.558z
				"/>
			<path fill="#859EB9" d="M729.151,476.091c-9.411,9.154-22.957,14.171-34.999,16.177c-3.609,1.203-5.059,5.111-6.772,9.291
				c1.567,7.181,2.395,14.355,0.463,17.401c0,0-8.099-3.018-12.682,2.373c-4.584,5.391-14.131,10.391-14.131,10.391
				s-5.564,19.875-5.772,23.466c-0.054,0.94,0.328,1.675,0.943,2.245c13.357,4.543,9.031-19.262,19.213-11.626
				c5.354,2.677,13.385,10.708,5.354,13.385c-4.985,1.994-10.343,5.473-15.932,8.225c-0.65,3.544-1.257,9.2,0.299,13.619
				c2.781,2.776,7.73,7.604,10.279,7.604c38.007,0,46.507-50.573,57.29-86.286C732.378,494.514,731.309,485.784,729.151,476.091z"/>
		</g>
		<path fill="#C6ECF5" d="M619.656,526.883c0,0,38.576,24.85,54.42-25.824C689.921,450.386,625.385,467.974,619.656,526.883z"/>
		<path fill="#8C60A3" d="M254.17,335.131c-16.738-1.974-39.721-1.834-44.722-31.797c-5-29.963,2.394-67.799-11.923-84.922
			c-14.318-17.122-26.933-34.33,1.297-23.804c28.229,10.526,30.506,46.638,29.368,68.651c-1.138,22.013,8.374,49.839,35.052,43.18
			s27.805-23.936,27.241-58.13c-0.564-34.194,3.129-76.594,16.136-84.755c13.007-8.161,18.933-7.744,10.788,22.099
			c-12.559,43.66,24.253,101.991-18.467,134.967C283.004,332.251,254.17,335.131,254.17,335.131z"/>
		<path fill="#825899" d="M259.04,325.124c-1.592-14.289-8.713-22.789,4.174-26.484c12.887-3.695,11.013,3.729,11.013,3.729
			s-2.662,22.472,4.787,27.559s5.534,21.047,2.205,27c-3.329,5.953-16.273,5.953-16.273,5.953s-15.648-17.741-10.778-27.749
			C259.04,325.124,259.04,325.124,259.04,325.124z"/>
		<path fill="#6559A1" d="M264.947,362.88l64.793,782.513c0,0,10.955,11.733,17.71-2.25l-66.23-786.216
			C281.22,356.928,263.323,343.261,264.947,362.88z"/>
		<g>
			<path fill="#7182B4" d="M478.678,103.526c-3.612,9.778-8.952,30.041-4.9,40.954c4.051,10.913-10.727,16.804,11.861,50.128
				s54.231,13.016,63.28-8.955s7.934-31.78,2.372-44.199c0,0,1.297-23.296-3.612-33.35S506.975,77.533,478.678,103.526z"/>
			<path fill="#859EB9" d="M538.883,189.763c2.447-14.681,13.809-24.901,15.75-38.813c-0.744-3.162-1.885-6.24-3.343-9.494
				c0,0,0.034-0.634,0.071-1.715c-6.63,13.281-17.284,25.414-31.987,14.076c-3.546-2.734-8.538-2.788-11.841,0.234
				c-5.465,5.001-11.814,6.888-17.734,2.941c-6.425-4.284-10.246-13.053-17.357-19.392c0.178,2.525,0.589,4.868,1.337,6.88
				c1.807,4.867-0.128,8.741-0.827,14.49c8.101,9.601,13.396,21.179,19.229,32.182C508.516,183.874,525.14,176.019,538.883,189.763z
				"/>
			<path fill="#859EB9" d="M550.716,120.536c-0.547-4.699-1.477-9.235-3.038-12.431c-4.909-10.053-40.703-30.572-69-4.579
				c-2.044,5.532-5.578,16.806-6.17,26.826c9.969,3.315,27.082,15.369,41.029,9.324C529.6,142.353,541.388,137.748,550.716,120.536z
				"/>
			<path fill="#788AB1" d="M515.583,179.349c0,0-9.473-3.186-9.796-7.224s18.33-5.894,18.33,0
				C524.116,176.032,515.583,179.349,515.583,179.349z"/>
		</g>
		<path fill="#6559A1" d="M726.881,731.672c-10.017-13.236-30.061-61.628-28.51-100.98s3.818-72.084-18.897-79.563
			s19.026-16.29,28.208,16.786c9.182,33.076-6.734,52.841,1.756,92.299s27.445,69.168,27.799,76.475
			C737.589,743.997,726.881,731.672,726.881,731.672z"/>
		<path fill="#6559A1" d="M705.878,622.739c0,0,18.616,40.787,32.418,54.771c13.802,13.984,29.31,34.158,26.92,51.747
			s-16.789-31.58-30.152-43.998C721.7,672.84,694.201,636.887,705.878,622.739z"/>
		<path fill="#335A75" d="M473.668,121.624c5.367-11.145,17.473-13.032,24.924-7.8c7.452,5.232,11.461,11.286,4.417,20.21
			c-7.045,8.924,12.422,1.175,13.389-3.614c0,0,3.298,0.768,10.603-11.482c7.305-12.25,20.011-12.103,23.502,0
			s17.901-4.76,16.914-19.385c-2.023-23.718-10.34-6.796-26.389-32.473c-5.413-9.614-17.369-10.717-21.113-15.865
			s-7.434,7.46-6.107,12.037c0,0-9.796-4.308-11.23,5.057c0,0-4.483-21.347-29.383,11.107c-8.367,10.174-4.05,24.111-4.05,24.111
			s-19.549-4.982-13.982,15.411C455.164,118.937,462.672,144.457,473.668,121.624z"/>
		<g>
			<path fill="#38416C" d="M794.911,975.543c1.942,11.471,3.056,27.638-29.896,55.56c0,0-2.228,39.601,11.08,49.997
				c13.308,10.396,10.889,12.973,5.073,16.218c-5.815,3.245-8.304,10.54-18.342,7.195s-22.762-21.308-27.108-77.266
				S785.221,918.313,794.911,975.543z"/>
			<path fill="#404A7D" d="M760.097,975.543c0,0,31.603,10.649,43.375,4.2c0,0,17.447,63.332,18.858,81.954
				c1.411,18.622,5.973,43.063,11.048,48.175c0,0-3.796,20.889,2.177,23.122c5.974,2.234,16.72,6.343,27.771,2.802
				c0,0,17.535,8.458,24.31-0.305c4.703-6.117-22.381-23.874-27.856-41.125c-5.475-17.251-13.824-110.061-3.827-130.375
				s14.941-34.973,9.753-54.751c0,0,6.556-8.858,16.31-10.638c0,0-27.2-70.181,27.485-112.393l-26.801-14.208l-1.898-18.79
				c0,0,20.662-4.726,28.342-33.043c0,0,16.411-5.593,7.747-25.77c0,0,11.212-15.206,1.854-21.837
				c-9.358-6.631,3.189-2.395,3.27-10.281c0.081-7.887,4.937-22.804-12.661-33.548c0,0,4.361-12.615-16-10.851
				c-9.792,0.382-12.422,7.53-12.422,7.53s-20.434,10.663-26.276,24.21c0,0-12.27-4.18-20.294,4.496
				c-8.023,8.676-21.54,21.29-21.54,21.29s-36.841-21.837-62.601-0.803c9.743,16.889,35.601,32.016,49.604,28.943
				c0,0-10.842,30.573-24.105,38.275c-13.263,7.702-77.832,125.725-78.798,132.745c-8.385,37.353,3.677,74.421,13.881,87.989
				c0,0,15.727,111.716,15.038,127.582c-0.689,15.866-23.472,29.891-2.754,47.058c0,0,8.428-5.536,15.609,4.434
				c0,0,5.897-8.132,15.175-7.026c9.278,1.106,15.984,3.231,16.468-5.881c0.484-9.111-5.445-24.402-12.881-37.723l-3.361-54.272
				C754.099,1036.728,761.879,1003.287,760.097,975.543z"/>
			<path fill="#485690" d="M901.897,618.15c-2.205-0.428-4.975-0.579-8.54-0.27c-9.792,0.382-12.422,7.53-12.422,7.53
				s-20.434,10.663-26.276,24.21c0,0-12.27-4.18-20.294,4.496c-8.023,8.676-21.54,21.29-21.54,21.29s-36.841-21.837-62.601-0.803
				c0.143,0.248,0.323,0.492,0.473,0.739c31.744,11.264,72.615,35.287,93.37-1.035c0,2.677,2.677,10.708,2.677,8.031
				c10.708-24.093,32.125-34.802,48.187-48.187C898.245,630.838,899.51,624.445,901.897,618.15z"/>
			<path fill="#485690" d="M918.747,672.562c-8.733-6.188,1.604-2.919,3.09-8.865c-13.299-11.251-31.536-12.181-45.646-2.775
				c-2.677,5.354-10.708,13.385-5.354,16.062c16.692,9.538,37.626-6.387,51.462,5.151
				C922.83,678.573,922.176,674.992,918.747,672.562z"/>
			<path fill="#8C60A3" d="M678.547,840.654c0,0,2.196,40.151,46.509,27.706c44.313-12.445,63.5-47.666,61.851-79.451
				c-1.649-31.785-11.97-39.907-24.08-42.064C750.715,744.688,678.547,840.654,678.547,840.654z"/>
			<path fill="#8C60A3" d="M799.139,713.471c0,0,35.587,72.443,81.665,39.74c7.584-3.366,5.623,20.922,1.671,23.816
				c-3.952,2.894-34.796,22.929-69.65,0.769C777.971,755.636,786.078,731.304,799.139,713.471z"/>
			<path fill="#8C60A3" d="M899.478,903.615c-7.139,4.799-25.863,6.354-28.989-8.509s-30.549-126.365,64.735-110.412
				C935.225,784.694,852.731,823.507,899.478,903.615z"/>
			<path fill="#2E3864" d="M884.912,621.911l17.79,11.563l6.444-5.782c0,0,5.531-8.805-12.633-9.981
				C889.32,617.054,884.912,621.911,884.912,621.911z"/>
			<path fill="#A58ED0" d="M921.36,655.393c0,0-2.544-2.501-9.176-3.71c-6.632-1.209-8.202-8.985-8.202-8.985
				s-8.34,9.998-14.266,8.887s-25.007,17.243-26.648,23.4c-1.641,6.158-4.832,7.551-1.641,6.158
				c3.192-1.394,5.289-2.657,8.126-1.896c2.838,0.761,5.249-6.685,5.249-6.685s5.959-1.829,9.028-5.612
				c3.068-3.782,21.171-3.346,31.032,1.228c0,0,6.688-2.672,6.921-4.285S923.179,657.981,921.36,655.393z"/>
			<g>
				<path fill="#D4DFFD" d="M909.503,783.603c0,0,2.255-14.794,8.608-20.983c3.315-2.043,2.087,18.329,3.315,20.983
					C922.653,786.257,912.418,785.644,909.503,783.603z"/>
				<path fill="#D4DFFD" d="M935.225,784.694c3.332-3.107,7.376-9.782,10.095-5.68c2.719,4.102-0.364,12.56-3.356,12.994
					S935.225,784.694,935.225,784.694z"/>
				<path fill="#D4DFFD" d="M879.591,828.668c0,0-23.399,0.792-24.496,4.823c-1.098,4.031,19.564,10.33,21.928,8.605
					c2.364-1.725,5.979-8.292,3.912-13.428"/>
				<path fill="#D4DFFD" d="M870.837,874.567c-4.6,0.865-11.918,12.082-11.399,14.462c0.518,2.379,17.542,3.05,18.875-2.985
					C879.645,880.009,874.957,873.792,870.837,874.567z"/>
				<path fill="#D4DFFD" d="M899.845,921.039c3.101,0.484,7.795-10.163,6.233-16.27c-1.562-6.108-10.692-7.023-12.721-2.607
					C891.328,906.577,897.57,920.684,899.845,921.039z"/>
				<path fill="#D4DFFD" d="M738.219,853.107c6.42,0.388,12.151,22.735,6.192,26.372c-5.959,3.638-17.197-16.51-14.253-21.49
					C733.103,853.01,734.617,852.889,738.219,853.107z"/>
				<path fill="#D4DFFD" d="M765.251,838.487c-0.37-4.204,2.135-12.526,10.078-10.244c4.892,4.614,11.305,13.423,7.552,18.086
					C781.062,849.957,765.472,841.002,765.251,838.487z"/>
				<path fill="#D4DFFD" d="M784.008,801.363c-5.64-1.094-3.268-11.545,1.754-14.248c5.022-2.703,17.195,1.482,16.946,4.912
					C802.46,795.456,789.926,802.51,784.008,801.363z"/>
				<path fill="#D4DFFD" d="M691.561,857.071c6.677-2.128,13.694-0.475,12.435,5.016c-1.259,5.491-7.215,23.177-12.435,22.147
					C686.341,883.205,687.934,858.227,691.561,857.071z"/>
				<path fill="#D4DFFD" d="M674.216,842.388c-5.55,1.665-13.225,15.508-7.007,15.813s13.893-4.845,15.047-8.618
					C683.411,845.812,683.037,839.742,674.216,842.388z"/>
				<path fill="#D4DFFD" d="M824.982,766.383c2.852-0.735,14.626,0.939,13.272,7.541c-1.354,6.602-14.211,20.84-18.016,19.679
					C816.432,792.443,819.541,767.785,824.982,766.383z"/>
				<path fill="#D4DFFD" d="M805.688,744.686c2.739,1.204,9.646,4.365,5.143,11.553c-4.503,7.188-27.123,6.026-26.823,2.721
					C784.308,755.656,800.052,742.208,805.688,744.686z"/>
				<path fill="#D4DFFD" d="M857.266,773.362c3.493-6.22,10.952-5.262,13.038,0.562c2.087,5.825,5.685,21.043,0,20.817
					C864.619,794.516,853.055,780.862,857.266,773.362z"/>
				<path fill="#D4DFFD" d="M884.403,754.018c5.271,2.903,15.478,4.5,15.075,7.861c-0.403,3.362-11.995,8.63-15.914,5.219
					S884.403,754.018,884.403,754.018z"/>
			</g>
			<g>
				<path fill="#404A7D" d="M909.503,786.209c0,0,42.873-0.317,57.938,2.761c0,0,5.255-13.741,11.709-8.286
					c6.455,5.455,8.934,30.805,8.934,30.805s11.301,3.09,6.92,8.675c-4.381,5.586-7.191,12.682,4.197,20.788
					s19.911,10.096,16.293,15.879c0,0,3.908,14.664,2.067,17.736c-1.841,3.072-10.347,6.975-12.607,12.363
					c-2.26,5.389-7.352,17.055-12.764,17.693c-5.413,0.638-18.879,6.083-28.559,2.68c-9.68-3.404-27.2-17.992-39.919-8.783
					c-12.719,9.209-22.904,4.797-34.392-5.178c-11.488-9.975-13.28-55.296,0.397-72.268c0,0-21.188-21.683-25.146-52.02
					C864.57,769.053,901.102,786.203,909.503,786.209z"/>
				<path fill="#485690" d="M988.084,811.489c0,0-2.479-25.35-8.934-30.805c-6.455-5.455-11.709,8.286-11.709,8.286
					c-15.064-3.078-57.938-2.761-57.938-2.761c-8.401-0.006-44.933-17.156-44.933-17.156c0.033,0.251,0.089,0.49,0.124,0.74
					c19.182,22.718,47.757,33.967,78.423,41.044c2.677,0-8.031,5.354-5.354,8.031c21.13,14.791,42.256,14.557,58.12-1.99
					C994.963,813.385,988.084,811.489,988.084,811.489z"/>
				<path fill="#485690" d="M892.253,859.024c13.385-10.708,16.062-24.093,29.447-34.802c-10.201,1.7-22.551,1.224-32.271-3.453
					c0.178,0.19,0.287,0.304,0.287,0.304c-7.177,8.906-10.088,25.617-9.58,40.932C884.845,863.711,889.563,863.06,892.253,859.024z"
					/>
				<path fill="#485690" d="M1016.122,853.217c-1.245-3.459-8.241-6.087-16.92-12.265c-3.803-2.707-5.997-5.299-7.103-7.762
					c-4.726,2.331-9.453,4.418-14.179,4.418C982.05,856.197,1000.52,855.661,1016.122,853.217z"/>
			</g>
			<path fill="#2E3864" d="M990.836,852.122c0,0,10.518,18.843,15.664,14.772s13.408-12.081,9.852-14.668
				C1012.796,849.639,990.836,852.122,990.836,852.122z"/>
			<path fill="#A58ED0" d="M1009.574,881.358c0,0-19.041,0.572-30.487,0c-11.445-0.572-33.55-11.274-41.151-8.687
				c-2.712,2.623-9.26,11.273-1.961,13.47c7.298,2.197,36.396,3.173,39.256,3.96c0,0-0.623,7.082,3.45,8.469
				c2.976,0.868,8.492-9.108,8.492-9.108s2.745-0.086,2.752,2.472s-0.632,6.021,4.111,6.581c3.226,0.109,6.386-8.413,6.386-8.413
				S1002.715,891.775,1009.574,881.358z"/>
			<path fill="#B25AB4" d="M946.053,826.509c0,0-2.111,3.03-0.062,5.208c2.049,2.178,20.81,3.653,20.81,3.653L946.053,826.509z"/>
			<g>
				<path fill="#404A7D" d="M658.052,744.686c0,0-19.754-18.317-18.813-34.719c0,0,23.497,1.924,36.744,16.595
					c0,0,44.661-5.89,72.201,4.685c0,0,49.119-23.336,56.223-25.673c7.104-2.337-17.082,42.066-29.077,46.612
					c0,0,5.321,47.474-4.81,63.512c-10.131,16.038-44.263,37.042-75.557,34.485c0,0-25.764-6.953-31.156-21.939
					c0,0-14.768-7.08-4.689-15.611c0,0-16.864-8.153-7.739-26.841c3.21-11.396-3.144-20.641,1.079-27.942
					C656.68,750.548,658.052,744.686,658.052,744.686z"/>
				<path fill="#485690" d="M804.548,711.2c1.439-3.873,1.626-6.207-0.142-5.625c-7.104,2.337-56.223,25.673-56.223,25.673
					c-27.54-10.575-72.201-4.685-72.201-4.685c-13.247-14.671-36.744-16.595-36.744-16.595c-0.068,1.178-0.003,2.365,0.128,3.555
					c16.287,15.626,35.941,31.885,22.661,51.805c8.031-2.677,16.062,0,21.416,5.354c0,2.677-5.354,5.354-8.031,8.031
					c13.385,13.385,26.77,2.677,37.479-2.677c5.354-2.677-10.708-10.708-8.031-16.062c13.385-13.385,26.77,2.677,42.833,0
					c2.677-2.677,5.354-10.708,5.354-10.708c2.735-1.215,5.546-2.396,8.378-3.576C777.299,735.692,792.763,725.285,804.548,711.2z"
					/>
			</g>
			<path fill="#2E3864" d="M675.982,779.287c-6.701,2.536-7.188,7.329,0.094,12.125c7.281,4.796,12.394,7.671,12.394,7.671
				s6.299-15.613,11.82-17.733L675.982,779.287z"/>
			<path fill="#A58ED0" d="M671.569,819.205c0,0,20.562,6.125,20.277-5.655c0,0,14.329,9.701,24.768,3.623
				c0,0,10.733-19.222,13.954-18.09s4.389,20.952-5.66,23.866s-25.203,10.276-40.132,2.833
				C684.777,825.782,676.189,828.091,671.569,819.205z"/>
			<path fill="#B25AB4" d="M710.805,768.8c0,0,10.789-14.955,24.506-2.349C735.311,766.451,725.904,775.726,710.805,768.8z"/>
			<path fill="#B25AB4" d="M660.503,767.103c0,0,13.353-0.38,18.705,4.045C684.56,775.573,667.268,774.405,660.503,767.103z"/>
			<path fill="#D4DFFD" d="M872.189,663.051c-2.623,2.597-4.964,5.247-6.645,7.539c0.6,2.999,1.239,5.96,2.354,8.445
				c0.533,0.003,1.077,0.056,1.656,0.211c1.549,0.416,2.969-1.616,3.941-3.546C873.445,671.251,873.204,667.422,872.189,663.051z"/>
			<path fill="#D4DFFD" d="M888.649,651.594c-3.177,0.38-8.558,4.167-13.592,8.724c1.56,4.444,4.424,7.538,9.165,5.958
				c0.187,0,0.342-0.043,0.51-0.068c0.389-0.242,0.867-0.455,1.401-0.648C888.348,663.543,887.761,657.462,888.649,651.594z"/>
			<path fill="#D4DFFD" d="M921.36,655.393c0,0-2.544-2.501-9.176-3.711c-0.007-0.001-0.013-0.004-0.019-0.005
				c-0.613,5.729-2.798,12.91,3.714,16.641c2.8,1.11,5.866-2.689,6.486-4.632C922.86,662.133,923.179,657.981,921.36,655.393z"/>
			<path fill="#D4DFFD" d="M1009.574,881.358c0,0-19.041,0.572-30.487,0c-11.445-0.572-33.55-11.274-41.151-8.687
				c-2.712,2.623-9.26,11.273-1.961,13.47c7.298,2.197,36.396,3.173,39.256,3.96c0,0-0.623,7.082,3.45,8.469
				c2.976,0.868,8.492-9.108,8.492-9.108s2.745-0.086,2.752,2.472s-0.632,6.021,4.111,6.581c3.226,0.109,6.386-8.413,6.386-8.413
				S1002.715,891.775,1009.574,881.358z"/>
			<path fill="#D4DFFD" d="M686.173,820.36c-6,1.388-14.603-1.155-14.603-1.155c4.619,8.886,13.207,6.577,13.207,6.577
				c0.171,0.085,0.342,0.146,0.512,0.227C686.038,824.049,686.32,822.141,686.173,820.36z"/>
			<path fill="#D4DFFD" d="M730.569,799.083c-2.749-0.966-10.948,12.858-13.299,16.941c-0.088,3.881,1.7,6.583,5.293,7.65
				c0.806-0.259,1.595-0.507,2.346-0.725C734.958,820.035,733.79,800.215,730.569,799.083z"/>
		</g>
		<g>
			<path fill="#7182B4" d="M268.242,454.322c24.098,2.733,18.225-10.336,22.407-8.5c4.182,1.836,16.469,0.427,17.502,13.972
				c0,0,10.146-3.168,9.256,4.074c-0.89,7.242-8.712,7.663-8.712,7.663s3.099,10.199-4.173,17.99c0,0,5.505,5.997-2.303,12.619
				c0,0,1.008,10.693-14.626,19.193c-5.963,2.818-13.814-3.228-15.588-12.045c0,0-14.756-7.92-6.538-13.377
				c0,0-20.911-13.212-5.829-22.979C259.637,472.934,244.492,454.459,268.242,454.322z"/>
			<path fill="#859EB9" d="M308.15,459.795c-1.033-13.545-13.321-12.136-17.502-13.972c-4.182-1.836,1.691,11.233-22.407,8.499
				c-15.55,0.09-14.426,8.04-11.796,13.52c5.175,1.142,13.105-1.763,9.379,5.688c0,1.82-4.951,2.402-9.803,2.588
				c-2.867,3.635-1.987,7.472,0.109,10.797c6.801,0,15.48-3.302,20.403,0c-3.748,5.623-8.81,5.998-14.265,6.635
				c1.798,1.467,3.197,2.362,3.197,2.362c-2.542,1.688-2.879,3.612-2.141,5.464c5.088,1.501,11.413,1.16,15.886-1.077
				c2.677,5.354-8.031,10.708,0,13.385c10.708,2.677,13.385-5.354,21.416-13.385c0.904-0.904,2.439-1.154,4.152-0.939
				c3.762-5.429-0.258-9.838-0.258-9.838c7.272-7.791,4.173-17.99,4.173-17.99s7.822-0.421,8.712-7.663
				C318.296,456.628,308.15,459.795,308.15,459.795z"/>
		</g>
		<path fill="#2A4A6C" d="M590.175,209.649c0,0-9.545,11.769-21.308,0c-6.61-6.614-13.921-14.419-20.759-19.804
			c-4.501,6.615-19.76,13.476-33.159,4.943c-15.358,9.672-31.062,2.182-35.701-6.663c-3.927,8.057-8.277,13.964-18.879,17.014
			c-12.592,3.622-9.288,13.245-9.288,13.245s-30.822,23.855-5.923,36.65c24.899,12.795,29.549,4.475,34.478,19.516
			c1.22,9.86-5.848,14.696-5.848,14.696s14.047-0.954,11.556-20.664c0,0,6.297,0.017,6.266,2.733
			c-1.789,9.389-9.637,22.082,0.073,31.518c6.871,6.448,12.008,0.086,14.103,11.816c0,0,25.44,2.367,29.829-16.008
			c2.317-10.46-2.425-19.282-2.425-19.282s15.348,10.252,8.491,27.082c0,0,12.407,0.237,11.583-14.783
			c-0.824-15.02,13.736-11.623,12.415-3.477c0,0,8.641-12.49,1.127-13.571s11.615-7.071,11.578-17.547
			c0,0,10.738-5.527,7.682-17.069C583.011,228.45,596.821,219.863,590.175,209.649z"/>
		<path fill="#335A75" d="M514.23,180.263c0,0,12.995-12.062,24.567,3.454c8.566,11.486,9.88,20.504,22.47,23.378
			c12.591,2.874-4.335,7.883-14.698,5.12c-17.517-4.67-17.099-33.507-32.609-22.971c0,0-8.178-7.945-15.744,12.465
			c-7.304,19.704-23.783,10.405-25.021,5.878c-1.238-4.527,9.897,4.665,17.11-16.857C497.173,170.419,514.23,180.263,514.23,180.263
			z"/>
		<g>
			<path fill="#DBF7FF" d="M573.2,503.91c-2.826-17.562-14.13-203.828,25.561-255.447c10.169-10.168,21.263,11.791,56.902,17.91
				c13.862,0.938,17.982,8.376,14.893,18.128c0,0,8.346,8.897,6.07,21.304c0,0,34.079,16.065,22.205,53.47
				c0,0,47.217,31.13,36.943,57.666c-10.274,26.536-30.875,19.676-19.983,30.84c10.893,11.163,28.785,31.332-13.966,36.121
				c-42.751,4.789-75.554,11.661-89.671,37.432L573.2,503.91z"/>
			<path fill="#EFFBFF" d="M714.977,446.911c-18.23,6.105-40.537,4.711-44.919,26.618c18.295,1.525,40.058-5.62,58.871-4.649
				c-0.07-7.2-7.524-15.345-13.139-21.099C715.493,447.477,715.229,447.19,714.977,446.911z"/>
			<path fill="#EFFBFF" d="M608.487,382.51c5.354,16.062,16.062,37.479,34.802,26.77c5.354-2.677,16.062-8.031,16.062-5.354
				c5.354,10.708,8.031,26.77,18.739,26.77c23.674,0,48.77-23.263,48.565-46.215c-11.369-14.351-27.824-25.205-27.824-25.205
				c11.875-37.405-22.204-53.47-22.204-53.47c2.277-12.408-6.07-21.304-6.07-21.304c3.088-9.753-1.032-17.19-14.893-18.128
				c-35.639-6.119-46.733-28.078-56.902-17.91c-19.013,24.728-26.321,80.351-28.468,133.529
				C580.547,391.816,595.188,393.908,608.487,382.51z"/>
		</g>
		<g>
			<path fill="#DBF7FF" d="M559.449,524.153c0,0-22.402,2.116-36.467,23.933c-14.065,21.818-75.464,55.526-99.687,38.153
				c0,0-21.898,0.603-21.506,21.149c0.392,20.546-17.033,8.009-21.28,11.816c-4.247,3.807-16.512,15.458-4.156,23.493
				c0,0-18.358-5.682-15.052,11.214c3.306,16.896,2.655,59.207,52.972,57.525c50.317-1.682,85.719-103.007,107.325-119.544
				c21.606-16.538,28.689-55.39,55.315-57.622C603.539,532.037,559.449,524.153,559.449,524.153z"/>
			<path fill="#EFFBFF" d="M559.449,524.153c0,0-22.402,2.115-36.467,23.933c-14.064,21.818-75.464,55.526-99.687,38.153
				c0,0-12.799,0.387-18.643,9.762c10.535,10.616,29.698,9.128,43.212,11.38c-7.879,15.758-30.245,15.565-47.915,9.035
				c-4.53,6.948-16.087-0.218-19.44,2.787c-0.59,0.529-1.342,1.222-2.155,2.024c3.194,18.127,37.293,10.339,26.677,20.956
				c-8.477,8.477-23.54,1.845-28.678,0.514c0,0-11.313-3.466-14.557,3.246c13.375,6.327,22.159,19.204,32.526,33.719
				c8.031,10.708,32.125,5.354,34.802-8.031c2.677-10.708-13.385-24.093-8.031-24.093c58.895-8.031,80.311-56.218,120.467-88.342
				c2.926-2.926,6.575-5.845,10.663-8.512c6.563-8.802,14.071-15.524,24.69-16.414C603.539,532.037,559.449,524.153,559.449,524.153
				z"/>
		</g>
		<g>
			<path fill="#DBF7FF" d="M554.481,514.494c0,0-4.736-19.335,32.882-22.896c37.618-3.561,53.784,25.598,45.701,54.542
				c-6.791,16.471-19.561,16.471-19.561,16.471s6.335,14.327-5.616,14.536c-11.952,0.209-18.549-40.352-38.733-47.803
				C549.275,530.313,543.048,523.335,554.481,514.494z"/>
			<path fill="#EFFBFF" d="M611.164,524.393c5.354-2.677,13.385,8.031,18.739,0c1.429-2.858,2.07-6.463,1.974-9.625
				c-6.189-15.046-21.24-25.373-44.514-23.169c-37.618,3.561-32.882,22.896-32.882,22.896c-2.271,1.756-3.816,3.433-4.725,4.994
				c23.058,2.344,42.503,14.052,64.085,23.644C613.841,537.779,608.487,529.747,611.164,524.393z"/>
		</g>
		<path fill="#B25AB4" d="M500.667,151.436c0,0-5.728-3.809-11.784-2.974C488.883,148.462,492.071,155.079,500.667,151.436z"/>
		<path fill="#B25AB4" d="M526.754,149.462c0,0,5.728-3.809,11.784-2.975C538.538,146.487,535.35,153.104,526.754,149.462z"/>
	</g>
	<g>
		<g>
			<g>
				<g>
					<path fill="#416282" d="M488.439,148.589c4.172,0.015,7.603,1.511,11.552,2.534c0.601,0.156,1.132-0.678,0.622-1.108
						c-3.303-2.786-8.164-3.232-12.321-3.01C487.254,147.059,487.431,148.585,488.439,148.589L488.439,148.589z"/>
				</g>
				<g>
					<path fill="#756795" d="M489.928,152.589c3.524,2.129,8.801,2.955,12.111-0.063c0.523-0.477-0.055-1.26-0.667-1.114
						c-3.748,0.895-6.958,1.595-10.57-0.338C489.933,150.608,489.076,152.074,489.928,152.589L489.928,152.589z"/>
				</g>
			</g>
			<g>
				<g>
					<path fill="#416282" d="M538.994,144.99c-4.204-0.232-9.045,0.199-12.385,3.008c-0.529,0.444,0.053,1.253,0.647,1.098
						c4.009-1.043,7.457-2.513,11.679-2.528C539.825,146.564,539.898,145.04,538.994,144.99L538.994,144.99z"/>
				</g>
				<g>
					<path fill="#756795" d="M536.418,149.054c-3.667,1.95-6.803,1.226-10.593,0.328c-0.631-0.15-1.122,0.678-0.626,1.133
						c3.292,3.022,8.591,2.159,12.097,0.054C538.148,150.058,537.302,148.584,536.418,149.054L536.418,149.054z"/>
				</g>
			</g>
		</g>
		<g>
			<g>
				<path fill="#345A7E" d="M477.463,134.065c5.5,1.807,10.692,3.219,15.807,6.071c4.637,2.586,8.849,5.888,13.582,8.293
					c0.778,0.395,1.681-0.779,1.046-1.406c-7.244-7.151-19.454-15.121-30.058-14.893
					C476.767,132.153,476.339,133.696,477.463,134.065L477.463,134.065z"/>
			</g>
			<g>
				<path fill="#345A7E" d="M476.928,135.253c5.365-0.286,9.638,0.107,14.405,2.689c2.893,1.567,5.439,3.676,8.462,4.992
					c0.954,0.415,1.685-0.911,1.074-1.621c-5.266-6.115-16.588-12.032-24.48-7.83C475.417,134.001,475.882,135.309,476.928,135.253
					L476.928,135.253z"/>
			</g>
		</g>
		<g>
			<g>
				<path fill="#345A7E" d="M548.166,132.13c-10.629-0.193-22.678,7.509-30.022,14.741c-0.673,0.663-0.072,2.057,0.924,1.546
					c4.953-2.543,9.367-6.003,14.263-8.662c4.779-2.595,9.858-3.944,14.977-5.657C549.289,133.769,549.395,132.152,548.166,132.13
					L548.166,132.13z"/>
			</g>
			<g>
				<path fill="#345A7E" d="M549.668,133.58c-7.987-4.345-19.37,1.562-24.727,7.839c-0.705,0.826,0.46,1.823,1.289,1.46
					c2.959-1.294,5.419-3.419,8.28-4.909c4.818-2.509,9.188-3.036,14.522-2.708C549.864,135.313,550.532,134.05,549.668,133.58
					L549.668,133.58z"/>
			</g>
		</g>
	</g>
	<g>
		<g>
			<path fill="#2B4B68" d="M508.103,106.242c7.977,2.548,11.783,11.276,9.625,19.098c-0.181,0.658,0.818,1.12,1.136,0.477
				c4.222-8.539-1.498-18.674-10.299-21.134C507.684,104.436,507.221,105.96,508.103,106.242L508.103,106.242z"/>
		</g>
		<g>
			<path fill="#2B4B68" d="M515.158,103.62c6.813,0.597,10.193,6.31,10.876,12.528c0.06,0.541,0.89,0.544,1.033,0.054
				c2.072-7.119-5.167-13.701-11.797-14.008C514.464,102.157,514.342,103.549,515.158,103.62L515.158,103.62z"/>
		</g>
		<g>
			<path fill="#2B4B68" d="M507.847,102.493c12.1-7.617,14.769-24.173,4.571-34.713c-0.213-0.22-0.596,0.109-0.41,0.355
				c8.473,11.191,6.848,25.156-4.814,33.43C506.669,101.937,507.3,102.837,507.847,102.493L507.847,102.493z"/>
		</g>
		<g>
			<path fill="#2B4B68" d="M505.378,97.496c1.273-4.67,1.283-9.442-0.685-13.934c-0.901-2.056-2.112-3.946-3.638-5.598
				c-2.408-2.608-8.028-4.902-5.291-9.615c0.317-0.546-0.298-1.134-0.839-0.858c-3.394,1.733-2.176,5.53,0.114,7.805
				c2.391,2.376,5.056,3.997,6.879,6.99c2.784,4.571,3.593,9.723,2.417,14.881C504.18,97.846,505.191,98.184,505.378,97.496
				L505.378,97.496z"/>
		</g>
		<g>
			<path fill="#2B4B68" d="M495.185,106.837c-7.327,0.21-10.392-6.942-10.918-13.295c-0.588-7.098,1.964-13.296,5.578-19.205
				c0.434-0.71-0.661-1.446-1.196-0.827c-7.627,8.82-11.882,37.056,6.799,35.098C496.618,108.485,496.307,106.805,495.185,106.837
				L495.185,106.837z"/>
		</g>
		<g>
			<path fill="#2B4B68" d="M484.46,108.146c-7.72-3.231-16.3-12.657-9.763-20.899c0.399-0.502-0.126-1.475-0.758-1.004
				c-10.111,7.543,2.023,20.63,10.04,23.249C484.747,109.743,485.209,108.46,484.46,108.146L484.46,108.146z"/>
		</g>
		<g>
			<path fill="#2B4B68" d="M473.856,117.411c-6.025,5.834-13.334,1.708-15.707-5.049c-0.252-0.719-1.245-0.561-1.293,0.19
				c-0.64,9.886,12.248,12.332,17.774,5.702C475.085,117.708,474.401,116.883,473.856,117.411L473.856,117.411z"/>
		</g>
		<g>
			<path fill="#2B4B68" d="M514.115,61.428c0.004,5.671,3.768,8.255,8.32,10.919c8.45,4.943,14.598,11.78,12.062,22.216
				c-0.14,0.574,0.708,1.06,1.007,0.464c2.533-5.054,1.714-10.604-1.351-15.316c-4.301-6.612-18.373-10.366-18.819-18.271
				C515.29,60.665,514.115,60.635,514.115,61.428L514.115,61.428z"/>
		</g>
		<g>
			<path fill="#2B4B68" d="M529.694,106.336c4.675,2.956,10.371,1.559,14.226-2.152c5.095-4.905,5.684-12.577,5.771-19.237
				c0.006-0.465-0.67-0.595-0.739-0.104c-0.725,5.177-1.255,10.55-3.925,15.155c-2.873,4.956-9.275,8.401-14.733,5.393
				C529.669,105.047,529.079,105.947,529.694,106.336L529.694,106.336z"/>
		</g>
		<g>
			<path fill="#2B4B68" d="M544.313,110.485c6.137,0.223,12.233-5.46,11.179-11.84c-0.109-0.662-1.034-0.496-1.105,0.101
				c-0.639,5.382-4.393,10.057-10.054,10.545C543.583,109.357,543.528,110.457,544.313,110.485L544.313,110.485z"/>
		</g>
	</g>
	<g>
		<g>
			<path fill="#7881B9" d="M493.308,167.67c3.307-1.031,6.806-2.543,9.159-5.162c0.325-0.361-0.201-0.769-0.556-0.56
				c-2.967,1.753-5.616,3.645-8.922,4.762C492.446,166.894,492.756,167.842,493.308,167.67L493.308,167.67z"/>
		</g>
		<g>
			<path fill="#7881B9" d="M525.927,161.335c1.605,1.448,3.153,3.032,5.027,4.135c0.542,0.319,1.134-0.364,0.715-0.848
				c-1.432-1.653-3.272-2.896-4.989-4.231C526.14,159.971,525.419,160.877,525.927,161.335L525.927,161.335z"/>
		</g>
	</g>
	<g>
		<g>
			<path fill="#345A7E" d="M577.72,165.61c-2.491-2.326-4.981-4.652-7.474-6.975c-3.168-2.952-7.983-6.142-5.911-11.287
				c0.275-0.682-0.736-0.986-1.11-0.475c-1.862,2.541-1.079,5.594,0.734,7.943c3.435,4.452,8.828,7.914,13.101,11.525
				C577.483,166.7,578.13,165.993,577.72,165.61L577.72,165.61z"/>
		</g>
		<g>
			<path fill="#345A7E" d="M469.782,157.946c-7.331-6.781-21.068-15.584-20.807-26.668c0.014-0.61-0.958-0.825-1.094-0.184
				c-2.519,11.831,13.4,21.561,20.841,28.169C469.539,159.99,470.574,158.678,469.782,157.946L469.782,157.946z"/>
		</g>
		<g>
			<path fill="#345A7E" d="M478.149,187.612c-4.404,8.372-11.694,13.555-20.375,16.888c-0.85,0.326-0.469,1.497,0.404,1.333
				c9.569-1.799,17.255-8.983,21.413-17.548C480.04,187.359,478.624,186.709,478.149,187.612L478.149,187.612z"/>
		</g>
		<g>
			<path fill="#345A7E" d="M511.037,210.254c7.811,8.408,12.312,13.437,3.971,28.321c-0.71,1.267-2.376,2.235-3.214,3.426
				c-2.09,2.972-7.22,7.549-7.238,11.736c-0.014,3.374,2.101,5.198,4.279,7.474c7.309,7.638,22.168,25.763,5.547,34.036
				c-0.927,0.461-0.418,1.935,0.582,1.534c6.698-2.68,8.76-9.031,7.911-15.999c-1.081-8.862-6.513-13.061-11.244-19.755
				c-9.397-13.296,9.865-19.453,10.927-31.803c0.704-8.185-5.313-14.456-10.628-19.836
				C511.366,208.818,510.493,209.668,511.037,210.254L511.037,210.254z"/>
		</g>
		<g>
			<path fill="#345A7E" d="M529.48,211.487c6.209,10.679,9.403,20.531,1.734,31.449c-2.563,3.649-7.768,7.38-8.656,11.981
				c-2.516,13.035,19.05,22.328,9.742,37.858c-0.325,0.542,0.393,1.022,0.797,0.553c3.277-3.808,2.593-7.733,1.475-12.487
				c-0.628-2.67-1.545-5.326-2.619-7.849c-2.858-6.714-8.035-10.458-6.171-17.807c2.104-8.294,11.186-12.712,12.858-20.902
				c1.527-7.478-4.749-17.291-8.301-23.188C530.031,210.581,529.173,210.959,529.48,211.487L529.48,211.487z"/>
		</g>
		<g>
			<path fill="#345A7E" d="M496.29,211.761c8.23,21.869-20.358,22.035-28.697,34.245c-8.282,12.127,15.857,13.053,15.752,23.204
				c-0.006,0.556,0.899,0.803,1.018,0.193c0.771-3.976-0.023-6.039-3.262-8.663c-4.518-3.661-21.123-4.16-7.873-17.371
				c1.59-1.585,6.869-3.689,9.141-5.011c10.064-5.856,20.2-14.391,15.065-27.056C497.172,210.653,496.042,211.1,496.29,211.761
				L496.29,211.761z"/>
		</g>
		<g>
			<path fill="#345A7E" d="M446.512,223.397c5.245-7.772,20.117-7.278,22.141-17.545c0.104-0.528-0.672-1.051-0.957-0.456
				c-4.514,9.433-16.56,8.942-21.816,17.517C445.618,223.34,446.221,223.827,446.512,223.397L446.512,223.397z"/>
		</g>
		<g>
			<path fill="#345A7E" d="M567.566,216.817c-1.023,3.849-0.004,7.964,3.205,10.517c2.666,2.121,6.171,1.85,9.089,3.463
				c3.758,2.078,5.541,5.581,6.301,9.662c0.057,0.305,0.509,0.185,0.509-0.095c0.003-3.862-1.913-7.553-5.003-9.89
				c-1.611-1.218-3.295-1.689-5.186-2.279c-5.275-1.648-9.453-4.666-7.898-11.051C568.746,216.482,567.744,216.146,567.566,216.817
				L567.566,216.817z"/>
		</g>
		<g>
			<path fill="#345A7E" d="M566.982,274.604c-5.913-3.356-13.999-6.077-15.014-14.089c-0.623-4.916,2.568-8.807,2.711-13.393
				c0.173-5.529-5.003-8.581-9.542-10.24c-0.555-0.203-0.945,0.611-0.452,0.931c4.742,3.081,8.395,4.673,7.156,12.426
				c-0.241,1.506-1.095,3.069-1.38,4.623c-0.529,2.881-0.921,7.118,0.07,10.009c2.045,5.962,10.961,8.105,16.013,10.588
				C567.031,275.699,567.457,274.874,566.982,274.604L566.982,274.604z"/>
		</g>
		<g>
			<path fill="#345A7E" d="M452.884,254.739c-7.442-4.955-7.586-14.375-1.025-19.992c3.65-3.125,7.999-4.094,12.348-5.742
				c4.758-1.803,4.687-5.213,5.675-10.081c0.097-0.48-0.695-0.672-0.839-0.201c-1.078,3.523-1.47,7.101-5.203,8.998
				c-2.333,1.185-5.298,1.435-7.735,2.56c-3.434,1.585-6.693,3.789-8.726,7.045c-4.142,6.632-1.39,14.556,4.853,18.616
				C452.971,256.422,453.61,255.223,452.884,254.739L452.884,254.739z"/>
		</g>
		<g>
			<path fill="#345A7E" d="M556.809,227.821c-0.66,4.979,0.852,9.363,4.263,13.099c1.804,1.977,4.018,3.577,6.248,5.029
				c1.645,1.072,3.367,2.007,5.041,3.03c2.359,1.442,10.95,6.505,3.222,10.443c-0.628,0.32-0.281,1.444,0.423,1.33
				c4.582-0.742,5.143-5.868,2.809-9.239c-2.013-2.907-5.793-4.41-8.714-6.157c-6.448-3.855-12.724-9.04-12.018-17.382
				C558.143,227.252,556.905,227.092,556.809,227.821L556.809,227.821z"/>
		</g>
		<g>
			<path fill="#345A7E" d="M565.932,170.138c2.938,9.041-9.557,24.222,1.682,30.629c0.573,0.326,1.289-0.476,0.753-0.944
				c-9.07-7.912,2.316-20.165-1.371-30.079C566.771,169.14,565.731,169.521,565.932,170.138L565.932,170.138z"/>
		</g>
		<g>
			<path fill="#345A7E" d="M467.792,176.147c-3.976,1.205-8.425,2.549-11.146,5.915c-2.127,2.632-2.952,6.312-1.2,9.321
				c0.418,0.718,1.534,0.169,1.296-0.605c-2.366-7.699,5.43-11.526,11.368-13.671C468.65,176.912,468.346,175.979,467.792,176.147
				L467.792,176.147z"/>
		</g>
	</g>
	<g>
		<g>
			<path fill="#6E77A9" d="M689.31,519.797c3.294,2.604,6.61,5.618,10.384,7.495c0.75,0.373,1.614-0.694,1.03-1.327
				c-2.868-3.114-6.83-5.444-10.294-7.842C689.351,517.375,688.307,519.005,689.31,519.797L689.31,519.797z"/>
		</g>
		<g>
			<path fill="#6E77A9" d="M672.433,544.902c5.092-1.575,11.355-4.986,14.278-9.609c0.518-0.819-0.331-1.756-1.184-1.222
				c-2.203,1.379-4.066,3.229-6.207,4.704c-2.389,1.646-4.929,2.944-7.486,4.299C670.916,543.56,671.33,545.243,672.433,544.902
				L672.433,544.902z"/>
		</g>
		<g>
			<path fill="#6E77A9" d="M678.097,543.089c2.546,0.334,5.059,0.639,7.513,1.435c2.218,0.72,4.255,1.799,6.41,2.667
				c0.975,0.393,1.809-1.025,1.08-1.731c-3.701-3.584-9.766-5.229-14.819-4.755C676.99,540.826,676.689,542.904,678.097,543.089
				L678.097,543.089z"/>
		</g>
		<g>
			<path fill="#6E77A9" d="M687.485,557.574c-4.11-0.856-9.132,0.199-11.634,3.859c-0.369,0.54,0.38,1.242,0.908,0.891
				c3.343-2.219,6.405-3.896,10.568-3.502C688.041,558.889,688.185,557.72,687.485,557.574L687.485,557.574z"/>
		</g>
		<g>
			<path fill="#6E77A9" d="M667.636,583.262c3.739,1.514,3.96,3.707,8.108,1.638c2.409-1.202,4.677-2.994,6.946-4.446
				c2.393-1.53,4.94-2.842,6.864-4.951c0.498-0.546-0.074-1.409-0.769-1.192c-3.916,1.221-7.436,4.156-10.881,6.338
				c-2.504,1.586-4.242,2.933-7.288,1.695c-1.094-0.445-1.399-0.88-2.602-1.018C666.852,581.193,666.638,582.858,667.636,583.262
				L667.636,583.262z"/>
		</g>
		<g>
			<path fill="#6E77A9" d="M667.609,588.064c1.806,4.453,4.574,11.421,10.052,11.853c6.762,0.532,14.909-5.153,18.261-10.695
				c0.588-0.972-0.692-2.168-1.558-1.328c-3.585,3.481-7.203,7.265-12.175,8.714c-7.653,2.23-10.695-3.646-13.585-9.057
				C668.259,586.904,667.343,587.407,667.609,588.064L667.609,588.064z"/>
		</g>
		<g>
			<path fill="#6E77A9" d="M677.635,607.851c3.306,0.266,6.07,3.248,9.431,1.764c1.618-0.714,3.035-2.075,4.458-3.105
				c1.888-1.368,3.841-2.561,5.312-4.378c0.505-0.624-0.15-1.606-0.923-1.291c-3.153,1.285-5.38,3.946-8.246,5.715
				c-2.729,1.685-3.783,1.491-6.807,0.64c-1.151-0.324-2.034-0.56-3.221-0.588C676.83,606.589,676.845,607.787,677.635,607.851
				L677.635,607.851z"/>
		</g>
		<g>
			<path fill="#6E77A9" d="M719.616,561.519c-0.666-5.302-1.036-10.734-2.382-15.916c-0.118-0.453-0.752-0.212-0.74,0.191
				c0.158,5.332,1.311,10.648,2.145,15.908C718.74,562.339,719.696,562.15,719.616,561.519L719.616,561.519z"/>
		</g>
		<g>
			<path fill="#6E77A9" d="M702.7,530.612c2.864,2.022,5.755,4.055,8.217,6.569c3.484,3.558,4.982,7.377,6.063,12.206
				c0.119,0.531,0.856,0.493,0.936-0.041c1.353-8.99-8.19-15.533-14.576-19.858C702.648,529.019,702.029,530.137,702.7,530.612
				L702.7,530.612z"/>
		</g>
	</g>
	<g>
		<g>
			<path fill="#6E77A9" d="M309.835,458.106c-14.067,1.5-27.689-6.979-41.645-4.178c-0.345,0.069-0.518,0.653-0.098,0.763
				c7.25,1.909,14.824,2.169,22.134,3.98c6.71,1.662,13.252,3.482,19.939,0.953C310.981,459.316,310.74,458.01,309.835,458.106
				L309.835,458.106z"/>
		</g>
		<g>
			<path fill="#6E77A9" d="M308.295,460.398c1.709,0.142,3.327-0.082,4.999,0.474c1.595,0.53,2.752,2.005,4.357,2.379
				c0.417,0.097,0.869-0.244,0.839-0.688c-0.276-3.995-7.666-5.414-10.444-3.501C307.571,459.388,307.615,460.342,308.295,460.398
				L308.295,460.398z"/>
		</g>
		<g>
			<path fill="#6E77A9" d="M261.022,472.817c9.102,2.51,19.625,3.867,28.915,1.763c0.841-0.19,0.489-1.298-0.229-1.362
				c-9.45-0.844-19.005-0.585-28.499-1.47C260.595,471.691,260.424,472.652,261.022,472.817L261.022,472.817z"/>
		</g>
		<g>
			<path fill="#6E77A9" d="M292.382,473.815c4.682-0.031,10.172,0.547,14.729-0.671c0.789-0.211,0.607-1.414-0.14-1.533
				c-4.648-0.74-9.999,0.32-14.675,0.739C291.353,472.435,291.438,473.821,292.382,473.815L292.382,473.815z"/>
		</g>
		<g>
			<path fill="#6E77A9" d="M268.538,492.445c10.514-0.733,21.866-0.068,32.173-2.274c0.814-0.174,1.03-1.445,0.059-1.577
				c-10.433-1.417-21.969,0.899-32.285,2.46C267.622,491.184,267.622,492.509,268.538,492.445L268.538,492.445z"/>
		</g>
		<g>
			<path fill="#6E77A9" d="M270.969,508.333c8.958,1.641,20.158,0.025,27.638-5.461c0.767-0.563,0.112-1.718-0.767-1.436
				c-4.669,1.499-8.982,3.481-13.844,4.383c-4.289,0.796-8.599,0.898-12.949,0.986C270.164,506.824,270.121,508.178,270.969,508.333
				L270.969,508.333z"/>
		</g>
		<g>
			<path fill="#6E77A9" d="M300.906,448.963c1.45,1.471,3.056,2.61,4.254,4.338c0.954,1.376,1.223,3.003,2.003,4.455
				c0.237,0.442,0.942,0.386,1.077-0.112c0.532-1.964-0.465-3.954-1.63-5.518c-1.332-1.788-3.487-2.486-5.23-3.772
				C300.968,448.051,300.568,448.62,300.906,448.963L300.906,448.963z"/>
		</g>
		<g>
			<path fill="#6E77A9" d="M290.718,455.646c-0.269-1.402-0.764-2.749-1.004-4.161c-0.203-1.194-0.258-2.407-0.476-3.596
				c-0.091-0.499-0.749-0.505-0.935-0.075c-1.108,2.571-0.688,6.188,0.822,8.512C289.617,457.083,290.881,456.497,290.718,455.646
				L290.718,455.646z"/>
		</g>
	</g>
	<g>
		<g>
			<path fill="#6E77A9" d="M434.358,277.444c14.069,1.563,28.21,4.959,42.301,5.821c0.892,0.055,0.83-1.222,0.104-1.451
				c-13.259-4.195-28.302-4.85-42.116-5.834C433.713,275.913,433.388,277.336,434.358,277.444L434.358,277.444z"/>
		</g>
		<g>
			<path fill="#6E77A9" d="M349.661,419.342c9.269,2.021,15.472,8.669,19.179,17.177c0.24,0.55,1.095,0.242,0.981-0.333
				c-1.895-9.552-10.561-16.303-19.835-18.019C349.226,418.027,348.886,419.173,349.661,419.342L349.661,419.342z"/>
		</g>
		<g>
			<g>
				<path fill="#696EAB" d="M571.812,280.546c2.306,0.361,4.639,0.156,6.959,0.017c1.867-0.112,3.82,0.114,5.354-1.056
					c0.317-0.242,0.205-0.784-0.109-0.963c-1.725-0.989-3.851-0.4-5.759-0.25c-2.182,0.172-4.376,0.311-6.483,0.931
					C571.148,279.408,571.117,280.437,571.812,280.546L571.812,280.546z"/>
			</g>
			<g>
				<path fill="#676BA6" d="M397.125,340.746c5.934,5.01,12.448,9.7,18.002,15.134c5.5,5.381,3.151,12.064,6.356,18.202
					c0.433,0.829,1.613,0.1,1.385-0.704c-1.85-6.515,0.303-12.322-4.602-17.797c-5.592-6.243-13.476-11.006-20.102-16.073
					C397.341,338.878,396.326,340.071,397.125,340.746L397.125,340.746z"/>
			</g>
			<g>
				<path fill="#676BA6" d="M421.338,373.149c3.307,11.461,6.371,34.865,22.771,34.094c0.811-0.038,0.945-1.337,0.104-1.451
					c-14.798-2.006-17.629-21.308-21.585-33.015C422.352,371.961,421.097,372.313,421.338,373.149L421.338,373.149z"/>
			</g>
			<g>
				<path fill="#676BA6" d="M465.56,411.72c21.16,7.639,44.834,5.616,63.486-7.413c0.838-0.586-0.018-1.789-0.883-1.294
					c-19.594,11.206-40.518,14.585-62.286,7.844C465.315,410.682,464.998,411.517,465.56,411.72L465.56,411.72z"/>
			</g>
			<g>
				<path fill="#676BA6" d="M534.963,403.691c8.744-2.862,15.904-1.205,24.199,1.791c0.676,0.244,1.554-0.652,0.821-1.17
					c-7.259-5.125-17.355-4.892-25.392-1.911C533.789,402.698,534.134,403.963,534.963,403.691L534.963,403.691z"/>
			</g>
			<g>
				<path fill="#676BA6" d="M533.319,507.571c2.534-4.334,2.606-10.136,2.951-15.072c0.307-4.404,0.355-8.802-0.078-13.197
					c-0.133-1.354-2.354-1.581-2.486-0.123c-0.483,5.314-0.693,10.645-1.294,15.95c-0.453,3.995-1.624,8.132-0.991,12.117
					C531.562,508.13,532.88,508.321,533.319,507.571L533.319,507.571z"/>
			</g>
			<g>
				<path fill="#696EAB" d="M536.311,475.998c0.691-14.987,0.924-30.05-0.614-44.995c-0.049-0.472-0.718-0.374-0.717,0.079
					c0.05,14.971,0.712,29.927,0.616,44.903C535.593,476.39,536.292,476.407,536.311,475.998L536.311,475.998z"/>
			</g>
			<g>
				<path fill="#676BA6" d="M445.021,449.758c4.429,13.393,13.413,25.506,26.129,32.035c0.344,0.177,0.687-0.369,0.359-0.589
					c-11.893-7.997-21.027-17.949-25.902-31.653C445.472,449.172,444.895,449.378,445.021,449.758L445.021,449.758z"/>
			</g>
		</g>
	</g>
	<g>
		<g>
			<g>
				<path fill="#734594" d="M316.315,165.296c-10.254,2.503-18.85,13.878-15.957,24.605c0.216,0.8,1.597,0.634,1.624-0.193
					c0.325-10.131,4.71-18.865,14.847-22.336C318.11,166.933,317.676,164.963,316.315,165.296L316.315,165.296z"/>
			</g>
			<g>
				<path fill="#734594" d="M311.763,180.136c-3.963,22.084-5.825,44.33-5.414,66.773c0.399,21.801,9.982,52.566-12.891,65.996
					c-0.84,0.493-0.071,1.76,0.789,1.452c18.791-6.722,17.11-29.231,15.792-45.415c-2.412-29.609-1.272-59.094,2.977-88.487
					C313.133,179.647,311.911,179.305,311.763,180.136L311.763,180.136z"/>
			</g>
			<g>
				<path fill="#734594" d="M194.219,199.532c14.864,3.921,19.144,28.614,21.504,41.154c2.295,12.192,3.238,24.596,5.12,36.851
					c2.365,15.396,5.54,35.726,21.934,42.24c0.942,0.374,1.49-0.856,0.671-1.388c-23.178-15.041-20.348-51.538-24.773-75.832
					c-2.602-14.282-6.875-40.587-24.131-44.2C193.784,198.198,193.452,199.33,194.219,199.532L194.219,199.532z"/>
			</g>
			<g>
				<path fill="#734594" d="M268.411,305.758c0.612,8.158,0.233,17.237,2.012,25.224c2.013,9.038,11.436,12.112,7.792,23.227
					c-0.425,1.295,1.433,1.799,1.968,0.623c2.007-4.413,2.1-9.218-0.423-13.513c-0.487-0.829-1.258-1.497-1.741-2.328
					c-2.597-4.468-5.127-8.982-6.11-14.535c-1.089-6.152-1.18-12.7-1.772-18.93C270.03,304.407,268.327,304.645,268.411,305.758
					L268.411,305.758z"/>
			</g>
		</g>
		<g>
			<path fill="#7171B8" d="M276.117,365.893c1.271,26.726,1.215,54.384,5.29,80.843c0.095,0.618,1.063,0.524,1.081-0.092
				c0.812-26.787-2.63-54.273-4.646-80.983C277.757,364.536,276.064,364.785,276.117,365.893L276.117,365.893z"/>
		</g>
		<g>
			<path fill="#7171B8" d="M290.555,530.546c4.356,69.661,10.968,139.244,16.775,208.793
				c8.683,103.991,17.365,207.982,26.104,311.968c2.352,27.981,5.238,55.963,7.081,83.984c0.051,0.777,1.27,0.797,1.219,0.012
				c-4.588-69.747-11.006-139.397-16.788-209.051c-8.625-103.912-17.224-207.828-26.06-311.723
				c-2.38-27.987-5.128-55.965-7.063-83.988C291.768,529.732,290.504,529.727,290.555,530.546L290.555,530.546z"/>
		</g>
	</g>
	<g>
		<g>
			<path fill="#B2DEE6" d="M562.349,749.767c17.577,10.639,35.112,21.353,52.625,32.098c24.195,14.845,11.353,41.927-2.062,59.944
				c-14.944,20.071-39.923,47.786-23.191,74.017c0.707,1.108,2.405,0.27,1.832-0.951c-19.347-41.206,33.23-66.836,39.488-103.811
				c2.621-15.489-1.123-23.588-14.408-31.357c-17.818-10.419-35.829-20.515-53.691-30.86
				C562.335,748.497,561.743,749.401,562.349,749.767L562.349,749.767z"/>
		</g>
		<g>
			<path fill="#B2DEE6" d="M595.822,926.978c16.107,21.238,37.206,37.731,61.989,47.695c6.73,2.706,13.853,4.341,20.561,7.052
				c8.236,3.328,18.427,8.691,17.564,20.227c-0.488,6.532-6.16,11.889-11.22,15.076c-7.563,4.763-22.775,4.357-24.907,14.958
				c-0.17,0.844,1.061,1.326,1.549,0.647c7.864-10.955,25.054-8.74,33.473-20.496c6.189-8.644,4.358-18.959-3.4-25.899
				c-10.628-9.507-27.289-11.13-39.93-17.007c-21.352-9.926-39.878-24.903-54.823-43.048
				C596.194,925.593,595.376,926.39,595.822,926.978L595.822,926.978z"/>
		</g>
		<g>
			<path fill="#B2DEE6" d="M695.838,996.696c-8.649-44.9-18.863-89.965-32.926-133.51c-0.202-0.625-1.201-0.454-1.024,0.207
				c11.888,44.327,23.753,88.458,33.185,133.399C695.174,997.272,695.932,997.186,695.838,996.696L695.838,996.696z"/>
		</g>
		<g>
			<path fill="#B2DEE6" d="M659.424,1036.259c1.526,5.048,5.71,12.232,11.43,13.246c0.361,0.064,0.663-0.455,0.394-0.725
				c-1.877-1.878-4.274-3.094-6.138-5.048c-2.144-2.248-3.663-4.898-4.683-7.82C660.228,1035.343,659.249,1035.679,659.424,1036.259
				L659.424,1036.259z"/>
		</g>
		<g>
			<path fill="#B2DEE6" d="M557.679,743.216c10.542,42.94,0.382,87.859,10.76,130.546c0.286,1.176,2.026,0.888,1.861-0.328
				c-5.837-43.102,1.061-88.512-11.462-130.502C558.62,742.199,557.495,742.464,557.679,743.216L557.679,743.216z"/>
		</g>
		<g>
			<path fill="#B2DEE6" d="M492.039,924.146c12.205-2.334,18.447-0.365,29.566,2.757c4.408,1.237,8.724,1.461,13.235,0.441
				c9.998-2.26,18.08-10.098,22.182-19.231c0.443-0.988-1.041-1.728-1.653-0.88c-8.807,12.2-18.907,21.391-35.166,16.72
				c-10.864-3.121-17.305-3.541-28.434-0.945C491.032,923.18,491.302,924.286,492.039,924.146L492.039,924.146z"/>
		</g>
		<g>
			<path fill="#B2DEE6" d="M463.171,931.193c5.625-2.972,11.425-4.379,17.329-6.553c0.541-0.199,0.601-1.195-0.111-1.129
				c-6.203,0.576-12.425,3.626-17.805,6.615C461.895,930.507,462.477,931.559,463.171,931.193L463.171,931.193z"/>
		</g>
		<g>
			<path fill="#B2DEE6" d="M456.591,943.431c3.864,9.735,9.981,23.025,10.359,33.782c0.247,7.047-8.053,18.302-14.49,20.559
				c-5.392,1.89-12.139,1.312-17.375-0.474c-0.894-0.305-1.571,0.912-0.669,1.361c9.842,4.898,27.286,2.721,32.614-7.961
				c6.852-13.737-4.261-35.354-9.445-47.78C457.307,942.249,456.329,942.77,456.591,943.431L456.591,943.431z"/>
		</g>
		<g>
			<path fill="#B2DEE6" d="M417.649,1082.96c3.044-11.873,1.387-22.972-4.543-33.729c-7.8-14.149-35.316-28.153-27.473-46.146
				c0.213-0.49-0.5-0.826-0.806-0.426c-6.553,8.558-0.984,17.885,5.773,24.448c16.114,15.65,32.327,30.396,26.538,55.749
				C417.063,1083.185,417.566,1083.285,417.649,1082.96L417.649,1082.96z"/>
		</g>
		<g>
			<path fill="#B2DEE6" d="M364.594,997.282c7.191-3.816,13.412-10.382,16.992-17.682c0.367-0.748-0.665-1.337-1.123-0.64
				c-4.575,6.955-9.95,12.363-16.605,17.333C363.278,996.726,363.995,997.6,364.594,997.282L364.594,997.282z"/>
		</g>
		<g>
			<path fill="#B2DEE6" d="M345.927,1059.997c11.856-2.933,23.798-9.669,30.342-20.284c0.298-0.483-0.323-0.924-0.701-0.516
				c-8.599,9.285-17.421,16.394-29.885,19.708C344.989,1059.089,345.225,1060.171,345.927,1059.997L345.927,1059.997z"/>
		</g>
	</g>
	<g>
		<path fill="#BDE2E9" d="M369.834,882.666c21.047-9.571,36.305-26.134,48.971-45.11c12.679-18.995,29.422-42.121,29.773-65.623
			c0.006-0.407-0.682-0.419-0.715-0.013c-1.798,22.353-17.174,44.534-29.288,62.942c-12.633,19.196-28.022,36.581-49.212,46.389
			C368.501,881.65,368.958,883.065,369.834,882.666L369.834,882.666z"/>
	</g>
	<g>
		<path fill="#BDE2E9" d="M374.715,790.628c21.441-0.276,41.193-10.904,52.688-29.122c0.378-0.6-0.505-1.157-0.92-0.593
			c-12.493,17.01-30.649,27.242-51.748,28.521C373.978,789.48,373.936,790.638,374.715,790.628L374.715,790.628z"/>
	</g>
	<g>
		<g>
			<path fill="#BDE2E9" d="M664.331,285.777c-1.494,20.226-15.639,35.335-27.985,50.269c-11.411,13.804-20.039,28.13-25.845,45.113
				c-11.244,32.892-15.714,70.555-16.197,105.224c-0.017,1.192,1.962,1.548,2.148,0.299c5.767-38.722,5.532-78.01,20.849-114.818
				c12.632-30.356,46.418-51.483,48.047-86.023C665.38,285.188,664.38,285.121,664.331,285.777L664.331,285.777z"/>
		</g>
		<g>
			<path fill="#BDE2E9" d="M662.632,295.45c2.794,19.156-3.422,37.199-9.331,55.159c-6.099,18.54-13.256,36.7-19.442,55.2
				c-0.37,1.105,1.219,1.74,1.689,0.665c7.845-17.959,14.011-36.733,20.087-55.35c5.991-18.354,12.146-36.473,8.359-55.903
				C663.844,294.453,662.517,294.666,662.632,295.45L662.632,295.45z"/>
		</g>
		<g>
			<path fill="#BDE2E9" d="M688.358,363.448c-31.131,34.1-59.044,73.265-77.306,115.875c-0.442,1.03,1.066,1.631,1.579,0.672
				c22.121-41.345,45.859-80.274,76.524-115.994C689.565,363.522,688.769,362.998,688.358,363.448L688.358,363.448z"/>
		</g>
		<g>
			<path fill="#BDE2E9" d="M619.493,495.568c19.671-18.569,41.945-31.147,67.265-40.282c0.823-0.297,0.467-1.551-0.388-1.311
				c-25.774,7.217-48.789,21.862-67.477,40.864C618.474,495.264,619.045,495.991,619.493,495.568L619.493,495.568z"/>
		</g>
		<g>
			<path fill="#BDE2E9" d="M682.28,396.572c-19.714,24.235-41.489,46.169-63.029,68.723c-0.635,0.665,0.405,1.805,1.108,1.192
				c23.422-20.42,43.826-44.707,62.889-69.153C683.675,396.786,682.722,396.028,682.28,396.572L682.28,396.572z"/>
		</g>
		<g>
			<path fill="#A8D8E1" d="M632.933,513.419c15.066-1.244,30.23-9.074,40.567-19.977c0.624-0.658-0.374-1.765-1.084-1.181
				c-12.157,9.996-24.636,15.771-39.813,19.64C631.726,512.125,632.066,513.491,632.933,513.419L632.933,513.419z"/>
		</g>
		<g>
			<path fill="#BDE2E9" d="M611.208,576.36c-19.072-6.066-15.531-24.625-27.118-36.885c-7.447-7.879-18.45-12.211-29.192-10.359
				c-0.785,0.135-0.52,1.293,0.203,1.316c20.055,0.662,29.963,10.648,36.589,28.65c3.56,9.674,8.542,16.561,19.321,18.244
				C611.571,577.414,611.74,576.529,611.208,576.36L611.208,576.36z"/>
		</g>
		<g>
			<path fill="#BDE2E9" d="M600.983,525.06c10.085,9.264,12.608,20.459,12.93,33.57c0.021,0.872,1.281,0.894,1.477,0.096
				c3.14-12.823-3.803-26.523-13.437-34.699C601.26,523.438,600.308,524.439,600.983,525.06L600.983,525.06z"/>
		</g>
		<g>
			<path fill="#BDE2E9" d="M610.486,522.814c14.876,9.606,8.932,26.702,3.163,39.716c-0.353,0.797,0.681,1.356,1.175,0.649
				c8.782-12.558,11.746-32.654-3.738-41.309C610.462,521.521,609.876,522.421,610.486,522.814L610.486,522.814z"/>
		</g>
		<g>
			<path fill="#BDE2E9" d="M614.404,556.287c-0.43,5.859-0.423,11.928,0.049,17.782c0.072,0.895,1.297,0.822,1.367-0.043
				c0.47-5.81,0.468-11.827,0.061-17.644C615.824,555.572,614.468,555.419,614.404,556.287L614.404,556.287z"/>
		</g>
		<g>
			<path fill="#BDE2E9" d="M615.192,562.497c5.893,0.258,12.268-2.481,14.869-8.035c0.224-0.479-0.508-0.926-0.863-0.565
				c-3.965,4.049-8.258,6.952-14.128,7.062C614.059,560.978,614.226,562.454,615.192,562.497L615.192,562.497z"/>
		</g>
		<g>
			<path fill="#BDE2E9" d="M556.055,516.597c7.729-0.081,15.17,1.058,22.796,2.115c0.683,0.095,0.802-0.984,0.173-1.171
				c-7.416-2.2-15.26-2.505-22.942-2.112C555.34,515.467,555.294,516.605,556.055,516.597L556.055,516.597z"/>
		</g>
		<g>
			<path fill="#ABDDE6" d="M578.871,537.999c-24.243-0.458-38.5,28.838-49.498,46.616c-19.191,31.021-36.683,62.492-58.596,91.767
				c-0.623,0.832,0.532,1.809,1.238,1.04c17.287-18.838,30.11-41.487,42.947-63.458c6.987-11.959,13.895-23.976,21.32-35.672
				c9.611-15.138,21.853-38.156,42.578-39.075C579.637,539.183,579.662,538.014,578.871,537.999L578.871,537.999z"/>
		</g>
		<g>
			<path fill="#ABDDE6" d="M389.929,705.982c24.808,14.481,51.497-0.033,70.441-17.389c0.569-0.522-0.206-1.288-0.796-0.856
				c-20.08,14.701-43.656,30.456-69.026,17.225C389.873,704.61,389.259,705.591,389.929,705.982L389.929,705.982z"/>
		</g>
		<g>
			<path fill="#BDE2E9" d="M380.418,666.554c12.662,22.279,42.167,26.534,59.298,6.669c0.337-0.391-0.286-0.978-0.664-0.625
				c-17.767,16.577-44.327,14.592-57.602-6.594C381.054,665.372,380.043,665.894,380.418,666.554L380.418,666.554z"/>
		</g>
		<g>
			<path fill="#BDE2E9" d="M416.818,649.169c58.364,8.946,97.215-44.859,122.295-89.344c0.36-0.639-0.564-1.225-0.97-0.607
				c-27.923,42.587-62.268,96.151-121.249,88.984C416.27,648.126,416.206,649.075,416.818,649.169L416.818,649.169z"/>
		</g>
		<g>
			<path fill="#BDE2E9" d="M536.527,563.774c8.183-12.499,21.305-25.843,37.324-24.628c0.64,0.049,0.898-0.973,0.311-1.234
				c-14.927-6.632-32.206,14.379-38.655,25.242C535.114,563.817,536.107,564.416,536.527,563.774L536.527,563.774z"/>
		</g>
		<g>
			<path fill="#BDE2E9" d="M414.006,614.762c22.201,11.48,54.744-10.746,71.06-24.726c0.617-0.529-0.263-1.585-0.916-1.099
				c-16.813,12.513-47.777,35.055-69.482,24.544C413.834,613.077,413.178,614.334,414.006,614.762L414.006,614.762z"/>
		</g>
		<g>
			<path fill="#BDE2E9" d="M560.239,548.208c-11.422,29.819-18.677,63.288-15.284,95.287c0.089,0.835,1.293,0.837,1.318-0.023
				c0.937-32.835,3.898-63.746,15.115-94.938C561.649,547.808,560.511,547.497,560.239,548.208L560.239,548.208z"/>
		</g>
		<g>
			<path fill="#BDE2E9" d="M555.002,641.79c4.764,0.566,9.528,1.132,14.292,1.697c2.382,0.283,4.765,0.566,7.147,0.849
				c0.825,0.098,9.835,1.104,7.007,3.803c-0.542,0.518,0.121,1.251,0.736,0.989c2.086-0.887,2.63-1.889,2.699-4.145
				c0.014-0.443-0.281-1-0.799-0.995c-10.243,0.097-20.815-1.985-30.998-3.114C554.497,640.809,554.413,641.721,555.002,641.79
				L555.002,641.79z"/>
		</g>
		<g>
			<path fill="#BDE2E9" d="M562.672,746.783c-23.98-23.905-1.429-64.788,13.451-87.573c0.392-0.601-0.558-1.35-1.018-0.778
				c-17.258,21.436-38.578,66.29-13.301,89.17C562.366,748.111,563.221,747.331,562.672,746.783L562.672,746.783z"/>
		</g>
		<g>
			<path fill="#BDE2E9" d="M546.982,643.918c9.142,15.721,10.328,31.428,8.325,49.17c-0.052,0.465,0.66,0.666,0.814,0.201
				c5.509-16.685,1.046-35.363-8.22-49.813C547.555,642.936,546.647,643.342,546.982,643.918L546.982,643.918z"/>
		</g>
		<g>
			<path fill="#BDE2E9" d="M588.204,643.129c-7.16-26.16-10.49-52.338-10.927-79.421c-0.011-0.698-1.061-0.759-1.093-0.048
				c-1.222,27.081,2.593,54.101,10.564,79.976C587.042,644.592,588.463,644.078,588.204,643.129L588.204,643.129z"/>
		</g>
		<g>
			<path fill="#BDE2E9" d="M633.256,801.742c-6.625-46.456-12.874-93.672-22.58-139.588c-0.149-0.704-1.146-0.455-1.069,0.231
				c5.174,46.638,14.194,93.443,22.535,139.614C632.274,802.731,633.359,802.462,633.256,801.742L633.256,801.742z"/>
		</g>
		<g>
			<path fill="#BDE2E9" d="M594.754,569.923c2.507,22.509,6.67,45.239,11.089,67.447c0.195,0.982,1.725,0.888,1.585-0.147
				c-3.033-22.479-6.438-45.359-11.357-67.502C595.907,568.986,594.669,569.16,594.754,569.923L594.754,569.923z"/>
		</g>
		<g>
			<path fill="#BDE2E9" d="M457.503,935.735c13.201-86.557,39.728-168.681,63.104-252.739c0.202-0.727-0.879-1.038-1.122-0.327
				c-27.92,81.682-52.788,167.023-62.746,252.964C456.681,936.126,457.428,936.227,457.503,935.735L457.503,935.735z"/>
		</g>
		<g>
			<path fill="#ABDDE6" d="M386.722,998.123c19.766-38.374,36.531-78.163,50.807-118.893
				c15.682-44.741,29.944-91.316,37.669-138.172c0.171-1.039-1.349-1.257-1.596-0.258c-10.377,41.895-20.053,83.584-33.803,124.57
				c-15.176,45.237-33.6,89.301-53.967,132.434C385.57,998.36,386.45,998.652,386.722,998.123L386.722,998.123z"/>
		</g>
		<g>
			<path fill="#BDE2E9" d="M475.585,724.354c5.352-26.883,10.52-55.031,22.453-79.849c0.303-0.631-0.549-1.225-0.945-0.6
				c-14.359,22.667-17.725,54.438-22.272,80.347C474.735,724.743,475.489,724.838,475.585,724.354L475.585,724.354z"/>
		</g>
		<g>
			<path fill="#BDE2E9" d="M613.35,575.333c6.083,16.145,10.641,32.626,13.851,49.574c0.126,0.665,1.119,0.455,1.024-0.207
				c-2.479-17.182-6.992-33.717-13.48-49.822C614.395,574.009,613.015,574.443,613.35,575.333L613.35,575.333z"/>
		</g>
	</g>
	<g>
		<g>
			<path fill="#98CAD3" d="M471.459,1119.054c15.461-5.297,23.627-20.527,31.561-33.778c10.172-16.988,18.413-34.32,20.199-54.247
				c0.059-0.66-0.925-0.708-1.018-0.065c-2.655,18.507-10.414,35.344-19.826,51.328c-8.012,13.608-16.158,28.955-31.461,35.267
				C469.969,1117.948,470.485,1119.388,471.459,1119.054L471.459,1119.054z"/>
		</g>
		<g>
			<path fill="#98CAD3" d="M494.443,962.872c4.981,42.22,1.548,82.63-7.538,124.033c-0.201,0.917,1.338,1.372,1.613,0.454
				c11.975-39.923,13.682-83.672,7.696-124.75C496.048,961.467,494.308,961.727,494.443,962.872L494.443,962.872z"/>
		</g>
		<g>
			<path fill="#98CAD3" d="M615.834,985.521c7.987,38.326,4.733,81.508,24.526,116.532c0.464,0.821,1.845,0.066,1.452-0.789
				c-16.961-36.923-15.262-77.263-24.731-116.085C616.882,984.365,615.665,984.712,615.834,985.521L615.834,985.521z"/>
		</g>
		<g>
			<path fill="#98CAD3" d="M641.119,1061.049c11.017,26.073,25.531,57.531,56.913,62.173c0.566,0.084,0.757-0.852,0.195-0.992
				c-30.694-7.631-44.48-34.861-56.208-61.607C641.76,1060.035,640.87,1060.462,641.119,1061.049L641.119,1061.049z"/>
		</g>
	</g>
	<g>
		<g>
			<path fill="#6D76A7" d="M305.468,1138.787c-0.666-4.53-2.152-11.116,4.026-12.409c3.671-0.768,7.554-0.11,11.18-1.141
				c0.981-0.279,1.039-1.705-0.07-1.848c-3.026-0.392-6.219,0.11-9.248,0.388c-2.18,0.2-4.32,0.479-6.018,1.986
				c-3.836,3.404-3.115,9.232-1.661,13.583C304.028,1140.394,305.618,1139.81,305.468,1138.787L305.468,1138.787z"/>
		</g>
		<g>
			<path fill="#6D76A7" d="M304.303,1122.916c-5.101-1.622-11.098-0.051-13.778,4.896c-2.151,3.971-1.725,10.672,2.688,12.952
				c0.939,0.485,1.49-0.81,1.059-1.486c-2.24-3.512-3.936-6.984-1.321-10.941c2.326-3.519,6.961-4.646,10.902-3.781
				C304.787,1124.76,305.228,1123.21,304.303,1122.916L304.303,1122.916z"/>
		</g>
		<g>
			<path fill="#6D76A7" d="M293.739,1120.678c-3.468,1.472-7.259,3.1-9.901,5.901c-2.626,2.784-3.827,7.893-0.796,10.815
				c0.667,0.643,1.531-0.246,1.317-0.969c-1.12-3.782-0.909-7.064,1.903-10.269c2.022-2.305,4.975-3.587,7.697-4.869
				C294.33,1121.112,294.127,1120.514,293.739,1120.678L293.739,1120.678z"/>
		</g>
		<g>
			<path fill="#6D76A7" d="M275.841,1125.84c-2.148,3.303-1.86,7.897,1.296,10.47c0.663,0.54,1.726-0.311,1.159-1.035
				c-1.985-2.533-2.733-5.835-1.174-8.773C277.565,1125.668,276.337,1125.077,275.841,1125.84L275.841,1125.84z"/>
		</g>
		<g>
			<path fill="#6D76A7" d="M595.823,1114.904c4.028,1.707,8.432,3.129,12.205,5.362c3.318,1.964,4.511,5.622,2.199,8.906
				c-1.521,2.161-3.826,2.847-6.005,4.096c-0.548,0.314-0.301,1.057,0.274,1.122c5.833,0.66,10.881-5.802,9.033-11.345
				c-2.055-6.163-11.836-7.684-17.035-9.557C595.565,1113.154,594.88,1114.504,595.823,1114.904L595.823,1114.904z"/>
		</g>
		<g>
			<path fill="#6D76A7" d="M608.922,1117.186c6.199,2.756,12.619,6.29,14.482,13.298c0.354,1.331,2.26,0.838,2.055-0.494
				c-1.202-7.82-9.688-11.292-16.213-13.771C608.626,1115.983,608.331,1116.923,608.922,1117.186L608.922,1117.186z"/>
		</g>
		<g>
			<path fill="#6D76A7" d="M617.151,1114.699c2.054,2.126,4.748,2.692,7.462,3.547c5.178,1.63,7.232,4.993,6.203,10.305
				c-0.167,0.863,1.164,1.392,1.629,0.641c1.992-3.222,0.846-7.694-1.827-10.199c-3.501-3.28-9.03-1.969-12.55-5.206
				C617.456,1113.224,616.571,1114.099,617.151,1114.699L617.151,1114.699z"/>
		</g>
		<g>
			<path fill="#6D76A7" d="M630.502,1116.599c2.082,1.876,4.498,3.299,6.625,5.112c1.443,1.23,2.765,2.676,3.541,4.43
				c0.9,2.032,0.512,3.87,0.667,5.945c0.042,0.563,0.706,0.858,1.127,0.452c2.544-2.45,0.638-6.764-1.246-9.051
				c-2.708-3.286-6.897-5.052-10.152-7.709C630.56,1115.366,630.04,1116.182,630.502,1116.599L630.502,1116.599z"/>
		</g>
		<g>
			<path fill="#696EAB" d="M551.742,1076.66c-2.457-4.912-3.164-10.11-3.344-15.534c-0.02-0.595-0.939-0.839-1.094-0.184
				c-1.372,5.793,0.145,11.509,3.219,16.49C551.021,1078.238,552.148,1077.473,551.742,1076.66L551.742,1076.66z"/>
		</g>
	</g>
	<g>
		<g>
			<path fill="#403C88" d="M849.95,651.64c-3.632-0.58-7.414,0.452-10.358,2.625c-0.705,0.52-0.165,1.628,0.684,1.368
				c3.137-0.962,6.198-1.368,9.449-1.687C850.96,653.824,851.325,651.859,849.95,651.64L849.95,651.64z"/>
		</g>
		<g>
			<path fill="#3B387F" d="M864.432,755.195c3.466-9.316,11.192-14.609,18.391-20.837c0.445-0.385-0.072-1.215-0.592-0.88
				c-7.953,5.128-15.801,12.121-18.663,21.4C863.395,755.44,864.224,755.755,864.432,755.195L864.432,755.195z"/>
		</g>
		<g>
			<path fill="#3B387F" d="M895.582,727.134c-5.137,5.466-10.853,10.19-16.441,15.166c-0.407,0.362,0.068,0.975,0.519,0.668
				c6.234-4.246,11.616-9.722,16.647-15.309C896.695,727.229,895.969,726.723,895.582,727.134L895.582,727.134z"/>
		</g>
		<g>
			<path fill="#3B387F" d="M853.604,683.224c-0.52,3.186,0.287,7.728,3.284,9.537c0.328,0.198,0.571-0.264,0.423-0.521
				c-0.729-1.271-1.692-2.347-2.216-3.741c-0.633-1.684-0.747-3.442-0.474-5.21C854.722,682.64,853.709,682.582,853.604,683.224
				L853.604,683.224z"/>
		</g>
		<g>
			<path fill="#3B387F" d="M860.002,694.01c1.356,0.033,2.471-0.496,3.154-1.683c0.227-0.395-0.39-0.692-0.66-0.384
				c-0.641,0.728-1.423,1.174-2.409,1.151C859.497,693.079,859.408,693.995,860.002,694.01L860.002,694.01z"/>
		</g>
		<g>
			<path fill="#3B387F" d="M858.112,798.939c-4.951,8.988-9.263,18.237-12.821,27.863c-0.183,0.495,0.555,0.791,0.763,0.303
				c3.981-9.366,8.306-18.566,13.105-27.541C859.526,798.875,858.492,798.249,858.112,798.939L858.112,798.939z"/>
		</g>
		<g>
			<path fill="#3B387F" d="M847.177,811.416c-3.369,6.646-6.754,13.29-9.819,20.084c-0.204,0.452,0.54,0.867,0.782,0.42
				c3.524-6.529,6.72-13.232,9.932-19.918C848.363,811.395,847.491,810.797,847.177,811.416L847.177,811.416z"/>
		</g>
		<g>
			<path fill="#3B387F" d="M863.376,909.149c-3.319,3.532-5.228,8.426-6.661,12.976c-0.233,0.741,0.986,1.206,1.293,0.481
				c1.882-4.432,4.558-8.344,6.748-12.597C865.199,909.149,863.982,908.503,863.376,909.149L863.376,909.149z"/>
		</g>
		<g>
			<path fill="#403C88" d="M975.927,829.619c4.247-2.912,7.07-8.581,5.571-13.734c-0.172-0.59-0.961-0.447-0.931,0.161
				c0.249,5.094-1.103,9.576-5.325,12.784C974.698,829.244,975.386,829.99,975.927,829.619L975.927,829.619z"/>
		</g>
		<g>
			<path fill="#403C88" d="M984.816,824.874c0.052-1.425,0.052-2.833,0.01-4.258c-0.014-0.49-0.848-0.473-0.863,0.02
				c-0.043,1.424-0.035,2.826,0.014,4.252C983.994,825.364,984.798,825.353,984.816,824.874L984.816,824.874z"/>
		</g>
		<g>
			<path fill="#3B387F" d="M976.816,811.986c0.369,0,0.327-0.571-0.04-0.571C976.408,811.415,976.449,811.986,976.816,811.986
				L976.816,811.986z"/>
		</g>
		<g>
			<g>
				<path fill="#3B387F" d="M944.846,887.635c3.012-5.354,8.293-8.779,14.519-8.734c-0.275-0.336-0.55-0.671-0.825-1.007
					c0.018,2.899,0.57,5.737,2.152,8.188c0.325,0.504,1.318,0.356,1.227-0.345c-0.34-2.645-1.033-5.281-1.555-7.9
					c-0.071-0.358-0.409-0.781-0.818-0.768c-6.639,0.202-12.756,4.032-15.217,10.319
					C944.196,887.73,944.664,887.958,944.846,887.635L944.846,887.635z"/>
			</g>
			<g>
				<path fill="#3B387F" d="M964.742,885.919c1.632-1.223,3.617-2.823,5.777-2.672c1.947,0.137,2.963,1.821,2.872,3.648
					c-0.036,0.727,0.81,1.281,1.365,0.648c1.948-2.226-0.359-4.889-2.58-5.644c-3.097-1.054-5.941,1.15-8.191,3.017
					C963.437,885.369,964.166,886.351,964.742,885.919L964.742,885.919z"/>
			</g>
			<g>
				<path fill="#3B387F" d="M988.893,891.405c0.585-1.169,1.225-2.307,1.832-3.464c0.606-1.156,1.427-2.254,1.772-3.518
					c0.124-0.454-0.402-0.881-0.792-0.542c-1.935,1.688-2.917,4.71-3.718,7.077C987.81,891.482,988.63,891.933,988.893,891.405
					L988.893,891.405z"/>
			</g>
			<g>
				<path fill="#3B387F" d="M944.192,883.369c-0.524-2.803-1.066-6.523-3.084-8.66c-0.284-0.301-0.895-0.171-0.896,0.299
					c-0.002,1.573,0.601,2.865,1.095,4.338c0.499,1.486,1.033,2.958,1.531,4.444C943.136,884.678,944.356,884.245,944.192,883.369
					L944.192,883.369z"/>
			</g>
		</g>
		<g>
			<path fill="#3B387F" d="M938.814,822.755c-6.492-0.155-9.853-6.764-6.621-12.262c0.364-0.619-0.483-1.13-0.92-0.593
				c-4.922,6.059,0.094,14.541,7.622,13.912C939.505,823.762,939.413,822.77,938.814,822.755L938.814,822.755z"/>
		</g>
		<g>
			<path fill="#3B387F" d="M870.15,779.414c4.296,4,8.591,8.001,12.887,12.001c2.15,2.002,4.3,4.004,6.45,6.005
				c0.328,0.306,9.164,8.31,5.058,8.85c-0.459,0.06-0.46,0.764,0.008,0.814c4.752,0.505,2.665-4.303,0.773-6.268
				c-7.567-7.86-16.426-14.804-24.527-22.111C870.398,778.342,869.75,779.041,870.15,779.414L870.15,779.414z"/>
		</g>
		<g>
			<path fill="#3B387F" d="M925.646,893.197c-3.72-3.382-4.543-8.353-3.153-13.042c0.086-0.289-0.359-0.425-0.49-0.168
				c-2.434,4.78-0.768,10.493,3.108,13.959C925.554,894.341,926.079,893.59,925.646,893.197L925.646,893.197z"/>
		</g>
		<g>
			<path fill="#3B387F" d="M923.994,878.312c0.685-0.922,1.363-1.842,2.008-2.793c0.257-0.38-0.262-0.812-0.563-0.451
				c-0.741,0.891-1.444,1.805-2.146,2.728C922.953,878.242,923.659,878.762,923.994,878.312L923.994,878.312z"/>
		</g>
		<g>
			<path fill="#3B387F" d="M786.574,980.731c5.42,2.756,10.438-0.18,15.296-2.839c5.29-2.895,10.275-6.142,13.829-11.109
				c0.416-0.581-0.476-1.236-0.969-0.762c-5.831,5.618-19.116,16.453-27.675,13.443
				C786.323,979.207,785.896,980.387,786.574,980.731L786.574,980.731z"/>
		</g>
		<g>
			<path fill="#3B387F" d="M799.263,980.991c6.71,0.151,14.224-1.719,19.731-5.672c0.704-0.506,0.146-1.721-0.704-1.385
				c-6.457,2.552-12.349,4.598-19.216,5.764C798.309,979.827,798.546,980.974,799.263,980.991L799.263,980.991z"/>
		</g>
		<g>
			<path fill="#3B387F" d="M764.3,974.816c-5.263-2.166-10.094-5.066-15.216-7.492c-0.656-0.311-1.436,0.585-0.801,1.093
				c4.449,3.565,10.047,5.931,15.344,7.895C764.608,976.676,765.286,975.221,764.3,974.816L764.3,974.816z"/>
		</g>
		<g>
			<path fill="#3B387F" d="M764.172,968.369c-5.275-2.255-9.354-6.093-11.926-11.217c-0.27-0.538-1.223-0.241-1.023,0.363
				c1.952,5.893,6.583,10.343,12.47,12.227C764.477,969.993,764.93,968.693,764.172,968.369L764.172,968.369z"/>
		</g>
		<g>
			<path fill="#3B387F" d="M661.84,813.074c1.412,1.171,2.873,2.62,4.559,3.372c0.563,0.251,0.897-0.545,0.585-0.935
				c-1.109-1.385-2.77-2.398-4.185-3.447C662.098,811.545,661.138,812.491,661.84,813.074L661.84,813.074z"/>
		</g>
		<g>
			<path fill="#403C88" d="M675.26,765.029c3.494,3.989,9.001,6.406,14.231,4.764c0.336-0.106,0.207-0.584-0.12-0.58
				c-5.053,0.075-9.766-1.123-13.268-4.958C675.605,763.71,674.776,764.476,675.26,765.029L675.26,765.029z"/>
		</g>
		<g>
			<path fill="#403C88" d="M697.512,767.018c-1.473-1.856-1.511-4.172-0.74-6.324c0.221-0.619-0.689-0.998-1.033-0.467
				c-1.556,2.406-0.959,5.529,0.931,7.564C697.176,768.337,697.965,767.588,697.512,767.018L697.512,767.018z"/>
		</g>
		<g>
			<path fill="#3B387F" d="M760.043,747.832c10.746-7.469,21.464-14.339,32.783-20.905c0.628-0.364,0.202-1.48-0.512-1.203
				c-11.887,4.62-23.82,12.29-33.051,21.09C758.744,747.309,759.432,748.257,760.043,747.832L760.043,747.832z"/>
		</g>
		<g>
			<path fill="#403C88" d="M757.556,673.552c10.964,12.665,29.017,21.02,45.92,18.449c0.53-0.081,0.495-0.895-0.041-0.936
				c-17.659-1.347-31.667-5.968-44.688-18.621C758.087,671.802,756.946,672.848,757.556,673.552L757.556,673.552z"/>
		</g>
		<g>
			<path fill="#403C88" d="M867.59,640.685c1.29,0,1.405-2.012,0.104-2.012C866.404,638.673,866.289,640.685,867.59,640.685
				L867.59,640.685z"/>
		</g>
		<g>
			<path fill="#403C88" d="M862.316,647.33c0.006,0.111,0.012,0.222,0.018,0.333c0.08,1.513,2.253,1.401,2.326-0.079
				c0.006-0.119,0.012-0.239,0.018-0.358C864.75,645.73,862.235,645.786,862.316,647.33L862.316,647.33z"/>
		</g>
		<g>
			<path fill="#403C88" d="M872.112,643.108c-0.032,0.324-0.06,0.648-0.084,0.972c-0.037,0.459,0.409,1.008,0.862,1.081
				c0.229,0.037,0.353,0.029,0.597-0.01c0.464-0.075,0.865-0.667,0.824-1.122c-0.025-0.29-0.053-0.581-0.085-0.87
				C874.088,641.832,872.24,641.718,872.112,643.108L872.112,643.108z"/>
		</g>
		<g>
			<path fill="#3B387F" d="M966.509,858.449c0.516,0.726,0.927,1.216,1.721,1.611c0.628,0.313,1.378-0.393,1.104-1.039
				c-0.354-0.833-0.867-1.283-1.575-1.833C966.939,856.551,965.929,857.635,966.509,858.449L966.509,858.449z"/>
		</g>
		<g>
			<path fill="#3B387F" d="M968.136,851.893c0.567,0.319,1.056,0.479,1.703,0.529c0.523,0.041,0.755-0.623,0.441-0.982
				c-0.425-0.487-0.884-0.784-1.472-1.044C967.829,849.963,967.229,851.383,968.136,851.893L968.136,851.893z"/>
		</g>
		<g>
			<path fill="#3B387F" d="M976.629,860.515c0.258,0.587,0.579,1.127,1.097,1.512c0.6,0.446,1.319,0.007,1.324-0.699
				c0.004-0.635-0.261-1.242-0.574-1.787C977.802,858.362,976.091,859.291,976.629,860.515L976.629,860.515z"/>
		</g>
		<g>
			<path fill="#3B387F" d="M710.01,792.503c0.608,0.027,0.934-0.001,1.294-0.534c0.103-0.153,0.126-0.409,0.022-0.569
				c-0.355-0.543-0.666-0.599-1.299-0.574C709.082,790.865,709.048,792.461,710.01,792.503L710.01,792.503z"/>
		</g>
		<g>
			<path fill="#3B387F" d="M713.486,782.206c1.155,0,1.363-1.806,0.192-1.806C712.523,780.401,712.316,782.206,713.486,782.206
				L713.486,782.206z"/>
		</g>
		<g>
			<path fill="#3B387F" d="M722.488,788.476c1.223,0,1.387-1.909,0.151-1.909C721.416,786.566,721.252,788.476,722.488,788.476
				L722.488,788.476z"/>
		</g>
		<g>
			<path fill="#3B387F" d="M664.64,786.3c1.101,0,0.876-1.702-0.217-1.702C663.323,784.597,663.547,786.3,664.64,786.3L664.64,786.3
				z"/>
		</g>
		<g>
			<path fill="#3B387F" d="M667.975,799.656c1.39,0,1.42-2.164,0.023-2.164C666.608,797.493,666.578,799.656,667.975,799.656
				L667.975,799.656z"/>
		</g>
		<g>
			<path fill="#3B387F" d="M661.659,792.53c1.104,0,1.34-1.727,0.219-1.727C660.774,790.802,660.538,792.53,661.659,792.53
				L661.659,792.53z"/>
		</g>
		<g>
			<path fill="#3B387F" d="M690.793,846.977c10.013,2.779,21.161,1.85,29.534-4.737c0.676-0.532,0.082-1.61-0.708-1.17
				c-8.987,4.996-18.509,7.551-28.721,5.37C690.551,846.366,690.458,846.884,690.793,846.977L690.793,846.977z"/>
		</g>
		<g>
			<path fill="#3B387F" d="M727.793,838.241c2.688-3.592,5.966-6.325,9.574-8.939c0.466-0.337-0.051-1.129-0.553-0.846
				c-3.925,2.209-7.151,5.608-9.723,9.27C726.77,838.184,727.456,838.691,727.793,838.241L727.793,838.241z"/>
		</g>
		<g>
			<path fill="#3B387F" d="M826.2,889.115c0.159,11.881-1.335,23.519-4.216,35.045c-0.145,0.581,0.729,0.912,0.89,0.319
				c3.159-11.628,4.409-23.405,4.043-35.444C826.903,888.569,826.194,888.656,826.2,889.115L826.2,889.115z"/>
		</g>
		<g>
			<path fill="#3B387F" d="M820.971,910.785c-0.733,9.765-4.13,18.462-9.405,26.653c-0.292,0.453,0.342,0.941,0.678,0.505
				c6.061-7.858,9.008-17.199,9.466-27.055C821.732,910.417,821.008,910.301,820.971,910.785L820.971,910.785z"/>
		</g>
		<g>
			<path fill="#3B387F" d="M749.512,1117.878c-2.308,5.037-2.279,12.086,1.858,16.247c0.432,0.434,1.233-0.057,0.912-0.632
				c-2.73-4.894-4.085-9.572-1.673-14.979C750.937,1117.778,749.853,1117.133,749.512,1117.878L749.512,1117.878z"/>
		</g>
		<g>
			<path fill="#3B387F" d="M737.396,1114.655c-3.696,5.676-9.602,15.837-4.16,22.179c0.414,0.482,1.348,0.011,1.244-0.604
				c-0.674-3.97-1.4-6.892-0.154-10.952c1.043-3.402,2.744-6.651,4.451-9.763C739.215,1114.714,737.902,1113.877,737.396,1114.655
				L737.396,1114.655z"/>
		</g>
		<g>
			<path fill="#3B387F" d="M850.632,1112.671c3.331,3.483,6.025,7.503,7.781,12.004c1.423,3.645,1.728,7.412,2.734,11.141
				c0.161,0.596,0.933,0.504,1.033-0.073c1.516-8.736-4.466-18.365-10.633-23.984
				C850.935,1111.199,850.054,1112.067,850.632,1112.671L850.632,1112.671z"/>
		</g>
		<g>
			<path fill="#3B387F" d="M869.535,1117.023c3.481,1.772,6.509,4.177,8.901,7.279c2.323,3.013,3.067,6.418,4.874,9.626
				c0.372,0.659,1.338,0.26,1.33-0.423c-0.042-3.467-2.468-7.145-4.549-9.788c-2.662-3.381-6.03-5.991-9.915-7.817
				C869.431,1115.55,868.786,1116.642,869.535,1117.023L869.535,1117.023z"/>
		</g>
	</g>
</g>
</svg>
