<?xml version="1.0" encoding="utf-8"?>
<!-- Designed by Vexels.com - 2019 All Rights Reserved - https://vexels.com/terms-and-conditions/  -->
<svg version="1.1" id="Layer_1" xmlns="http://www.w3.org/2000/svg" xmlns:xlink="http://www.w3.org/1999/xlink" x="0px" y="0px"
	 viewBox="0 0 1200 1200" enable-background="new 0 0 1200 1200" xml:space="preserve">
<g>
	<g>
		<g>
			<path fill="#A9D8E6" d="M505.757,851.114c0,0-13.207,44.485-53.148,81.133c-39.941,36.648-103.496,86.021-101.81,147.122
				s46.338,77.559,52.925,63.416c6.587-14.143-10.953-31.883-28.138-37.469c-9.958-4.272-9.353-13.896-2.756-18.941
				s1.393-24.242,1.393-24.242s10.953,13.179,15.635-0.568s-3.807-20.927-3.807-20.927s8.404-8.199,10.088-21.063
				c1.684-12.863,2.878-27.608,26.596-31.552c23.718-3.945,23.703-10.127,23.703-10.127s4.436,15.185,17.339,16.269
				s20.292-9.333,11.34-20.881c-8.951-11.548,7.221-28.963,21.148-10.727s15.729,17.191,22.278,11.487
				c0,0,12.339-7.076,22.364,3.779s39.264,11.379,44.029-35.866c4.765-47.245,37.009,5.196,57.357-0.326s36.902-36.028,25.27-59.31
				c-11.632-23.282-16.543-23.544,2.41-30.876c18.953-7.331,10.606-32.696,1.966-46.626c148.203,25.229,43.05-166.078-58.58-155.501
				C539.331,638.465,484.894,779.917,505.757,851.114z"/>
			<g>
				<path fill="#97D4E6" d="M404.262,1141.276c4.752-13.872-12.093-30.569-28.676-35.96c-1.109-0.476-2.067-1.027-2.921-1.622
					C360.924,1126.116,392.412,1127.062,404.262,1141.276z"/>
				<path fill="#97D4E6" d="M501.649,925.103c40.741-20.37,10.185-78.935,40.741-112.037c2.546,0,7.639,0,10.185,0
					c-2.546,20.37,20.37,53.472,35.648,28.009c15.278-22.917-10.185-66.204,22.917-73.842
					c40.741-10.185,78.935,28.009,119.676,5.093c5.769-3.846,10.445-8.421,13.899-13.582
					c-7.461-48.702-70.037-115.806-131.356-109.424c-74.027-10.854-128.464,130.598-107.601,201.795
					c0,0-12.222,41.116-48.658,76.856C471.737,930.833,486.375,932.74,501.649,925.103z"/>
			</g>
			<path fill="#A9D8E6" d="M442.987,1143.099c-6.939-0.458,31.836,19.727,41.47-6.893c9.635-26.62-34.31-25.119-33.143-6.244
				c2.799,10.179,7.786,8.895,7.786,8.895S457.922,1144.084,442.987,1143.099z"/>
			<path fill="#BAE2EE" d="M631.51,871.631c5.093,12.732,17.824,28.009,10.185,38.194c-15.278,22.917-35.648-2.546-50.926-15.278
				c-10.185-7.639-20.37,5.093-25.463,12.732c-5.093,15.278,2.546,35.648-5.093,50.926c-10.185,12.731-25.463,10.185-35.648,2.546
				c-5.093-5.093-5.093-22.917-15.278-17.824c-2.546,2.546-7.639,7.639-5.093,12.731c-15.278-5.093-28.009-22.917-40.741-7.639
				c-2.546,5.093-5.093,15.278-7.639,20.37c-2.546,7.639-17.824-2.546-22.917,0c-4.116,5.145-6.119,11.956-6.244,18.916
				c19.78-3.933,19.782-9.409,19.782-9.409s4.436,15.185,17.339,16.269c12.903,1.084,20.292-9.333,11.341-20.881
				c-8.952-11.548,7.221-28.963,21.148-10.727c13.927,18.236,15.729,17.191,22.278,11.487c0,0,12.339-7.076,22.364,3.779
				c10.025,10.855,39.264,11.379,44.029-35.866c4.765-47.245,37.009,5.196,57.357-0.326c20.348-5.521,36.902-36.028,25.27-59.31
				c-11.632-23.282-16.543-23.544,2.41-30.876c10.366-4.01,12.556-13.415,11.008-23.392
				C666.415,848.053,621.677,839.675,631.51,871.631z"/>
			<path fill="#BAE2EE" d="M481.279,1123.714c0.707-0.707,1.36-1.466,1.987-2.248c-7.983-9.87-31.818-5.871-31.942,7.668
				c0.627,0.809,1.285,1.558,1.946,2.218C463.455,1136.445,476.186,1131.353,481.279,1123.714z"/>
		</g>
		<g>
			<path fill="#A9D8E6" d="M543.986,409.977c-63.082-7.885-105.137-17.085-118.279,13.142s-14.456,36.798-43.369,61.768
				c-28.913,24.97-11.828,51.254,0,70.968c11.828,19.713,4.093,65.306,22.492,88.962s36.647-3.538,14.306-21.937
				c-22.342-18.399-26.284-34.542-13.142-38.298s26.284,65.897,73.596,38.298s67.025-7.601,48.626-53.083
				c-18.399-45.483-57.153-1.719-42.376-70.727c2.665-12.445-29.529-1.625-5.874-34.48c23.656-32.855,77.162,3.213,81.105-28.328
				C565.013,404.72,543.986,409.977,543.986,409.977z"/>
			<path fill="#97D4E6" d="M485.839,499.07c2.665-12.445-29.529-1.625-5.874-34.48c23.656-32.855,77.162,3.213,81.105-28.328
				c1.447-11.573-0.473-18.18-3.478-21.922c-28.066,22.898-82.361,12.683-117.055,26.968c-5.093,2.546-10.185,12.731-5.093,20.37
				c5.093,2.546,15.278-5.093,20.37-2.546c2.546,2.546,2.546,10.185,0,15.278c-10.185,20.37-38.194,22.917-50.926,43.287
				c-5.093,7.639-5.093,20.37,0,28.009c10.185,10.185,28.009-10.185,35.648,0c5.093,5.093,0,17.824,7.639,22.917
				c15.278,10.185,20.37-15.278,33.102-10.185c7.639,5.093,12.731,12.732,20.37,12.732c9.64,0,19.273,0.755,28.157,2.647
				c-0.495-1.281-1.024-2.617-1.591-4.019C509.816,524.314,471.062,568.078,485.839,499.07z"/>
			<path fill="#BAE2EE" d="M376.881,515.15c2.546-5.093,2.546-12.731,5.093-15.278c35.648-20.37,33.102-71.296,68.75-84.028
				c17.001-7.556,41.007-3.911,62.666-9.838c-46.067-5.909-76.798-7.921-87.682,17.112c-13.142,30.227-14.456,36.798-43.369,61.768
				c-28.913,24.97-11.828,51.254,0,70.968c4.692,7.82,6.305,19.716,7.692,32.695c5.233-12.162,10.984-24.376,9.768-37.752
				C399.797,535.52,374.334,532.974,376.881,515.15z"/>
			<path fill="#BAE2EE" d="M463.455,604.27c-20.37-2.546-38.194-15.278-43.287-33.102c-2.546-2.546-10.185-5.093-12.731-2.546
				c-2.345,4.689-4.638,11.513-3.006,16.545c0.504-0.208,0.996-0.423,1.563-0.585c13.142-3.756,26.284,65.897,73.596,38.298
				c0.37-0.216,0.724-0.404,1.091-0.614C475.854,613.545,470.994,605.778,463.455,604.27z"/>
			<path fill="#BAE2EE" d="M393.007,613.03c1.983,11.947,5.21,23.286,11.822,31.787c5.278,6.786,10.538,9.373,14.836,9.198
				c1.695-4.699,2.068-9.398,0.502-14.097C410.458,630.209,400.756,622.548,393.007,613.03z"/>
			<path fill="#A9D8E6" d="M506.659,490.919c-5.004-2.546-4.921,0.816-7.557,3.861c0-4.275-1.771-10.333,2.171-13.678
				c-4.932-0.31-9.026,3.239-6.36,11.974c2.105,6.899,5.667,10.099,9.061,10.678C509.141,500.738,511.608,497.518,506.659,490.919z"
				/>
		</g>
		<g>
			<path fill="#BD6E5F" d="M665.98,563.037c0,0,9.341,34.844,5.958,61.038c0,0-26.659-3.526-31.531-17.497
				S665.98,563.037,665.98,563.037z"/>
			<g>
				<path fill="#CE8568" d="M610.156,400.094c0,0-11.733,14.146-19.415,11.92c-7.683-2.226-32.03-13.686-49.42-5.908
					c-17.39,7.779-22.007,9.49-22.007,9.49s3.35-12.059-1.818-32.6c-5.168-20.541-3.21-57.514,0-63.505
					c3.21-5.991,14.336-5.739,26.478-24.718c0,0,11.021,0.31,12.458-3.614s-0.381-8.472-0.381-8.472s2.946-0.572,0.064-6.892
					c0,0-0.172-1.393-0.048-6.765c0,0,3.838-0.099,1.652-3.131c-2.186-3.032-5.225-8.86-10.441-10.855
					c-5.216-1.995-17.344-1.077-21.913,1.95c-4.569,3.027-29.892,33.51-34.525,43.366c-4.633,9.857-26.359,110.883-16.646,139.716
					c0,0,39.896,34.122,57.495,31.642c0,0,7.087,28.279,14.561,40.826c7.474,12.547,7.997,48.926,2.068,72.381
					c-5.929,23.455,91.015,29.743,98.233,23.888c7.218-5.855,14.39-31.588,19.429-36.71s9.587-30.49,7.619-37.257
					c0,0,11.665-13.098,9.709-25.019c-1.956-11.921-5.603-46.234-14.121-52.447C660.669,451.164,610.156,400.094,610.156,400.094z"
					/>
				<path fill="#D29D74" d="M634.056,451.493c-2.546-2.546-10.185-7.639-10.185-12.731c-3.052-9.156-3.365-19.226-4.218-29.115
					c-5.687-5.701-9.497-9.552-9.497-9.552s-11.733,14.146-19.415,11.92c-7.683-2.226-31.927-13.451-49.42-5.908
					c-22.007,9.49-21.52,6.982-21.765,13.113c-15.278-33.102-9.528-77.187-6.774-104.825c21.577-23.921,43.65-23.236,39.36-55.987
					c-1.38-1.412-2.976-2.644-4.864-3.366c-5.216-1.996-17.344-1.077-21.913,1.95c-4.569,3.027-29.892,33.51-34.524,43.366
					c-4.633,9.857-26.359,110.883-16.646,139.716c0,0,26.759,22.88,46.115,29.801c27.83,8.848,41.68-20.207,53.558-24.01
					c53.276,77.971,64.87,23.425,89.256,72.994C668.216,493.395,656.973,469.317,634.056,451.493z"/>
				<path fill="#D29D74" d="M618.778,538.067c-2.546,7.639-7.639,20.37-12.731,10.185c-10.185-17.824-15.278-45.833-28.009-50.926
					c-13.611-6.805-27.246-13.599-44.458-18.604c2.6,9.207,7.544,25.212,12.671,33.819c7.474,12.547,7.997,48.926,2.068,72.381
					c-1.466,5.799,3.377,10.542,11.575,14.318c8.007-0.561,15.387-2.292,20.69-10.247c2.546-2.546,0-10.185,0-12.731
					c5.093-5.093,12.731-2.546,15.278,0c5.557,11.114,0.342,22.226,1.983,32.359c10.22,1.352,20.422,2.075,28.859,2.214
					C637.774,583.631,652.74,553.161,618.778,538.067z"/>
			</g>
		</g>
		<g>
			<path fill="#CE8568" d="M533.341,695.325c2.238-13.537,60.787-39.636,87.651-12.037c0,0-4.552,76.825-3.131,87.229
				s5.965,40.984-3.951,67.312c0,0,12.207,46.489,7.306,80.763c-4.901,34.274,2.611,76.6,4.717,84.284
				c2.107,7.683,18.417,43.425,16.143,49.669c-2.274,6.244-7.98,13.171-18.16,6.388c0,0-8.628,0.794-11.564-2.614
				c0,0-8.003,4.053-14.34-1.156c0,0-14.556-4.623-12.978-11.76c2.746-15.626,14.165-27.053,7.445-54.359
				c0,0-7.896-12.056-4.35-27.567s-24.974-56.285-22.209-94.901c2.765-38.616,0.415-68.287-2.686-75.838
				C563.233,790.737,530.699,711.305,533.341,695.325z"/>
			<path fill="#D29D74" d="M616.232,991.307c-7.639-53.472,0-104.398-2.546-157.87c0,0,0.643,0.21,1.604,0.389
				c5.728-17.975,5.302-37.292,4.086-50.55c-11.845-11.951-21.756-43.132-36.246-26.227c-15.278,20.37-7.639,50.926-5.093,78.935
				c0,7.639,7.156,14.242,9.703,19.334c4.323,15.322,0.483,18.86-4.61,31.591c-5.527,16.58,2.268,34.492,0.255,51.809
				c3.563,9.692,5.917,17.619,4.743,22.759c-3.545,15.51,4.351,27.567,4.351,27.567c6.719,27.306-4.699,38.733-7.445,54.359
				c-1.578,7.137,12.978,11.76,12.978,11.76c6.338,5.208,14.34,1.156,14.34,1.156c2.936,3.407,11.564,2.614,11.564,2.614
				c5.343,3.56,9.443,3.326,12.472,1.414C642.32,1033.754,618.569,1014.671,616.232,991.307z"/>
		</g>
		<g>
			<path fill="#CE8568" d="M623.12,720.589c0,0,42.796,61.557,58.648,74.407c9.457,9.321,10.305,18.057,9.849,24.139
				c-2.363,18.695-14.692,46.786,2.561,84.838s13.673,78.327,2.403,95.398c-11.27,17.071-2.692,33.793,23.328,28.882
				c26.02-4.911,28.302,3.803,37.292,7.578c8.99,3.775,25.639,8.833,34.042,2.607c0,0,8.754,1.553,11.163-4.97
				c0,0,4.263,1.802,4.448-3.669c0.185-5.472-15.496-4.505-23.78-9.558c-8.285-5.052-34.212-29.238-38.882-37.957
				c-7.581-15.126-12.453-36.394-1.662-150.913c0,0,13.743-26.185-1.674-54.009c-15.417-27.824-45.196-82.037-45.196-82.037
				S662.699,681.008,623.12,720.589z"/>
			<path fill="#D29D74" d="M738.454,1021.862c20.37,7.639,35.648,17.824,56.018,10.185c1.799-1.799,6.157-3.579,11.245-4.48
				c-3.695-3.074-15.729-3.11-22.643-7.327c-1.704-1.039-4.176-2.916-7.034-5.272c-22.004-6.688-40.207-25.708-45.225-49.124
				c-12.731-56.018,7.639-106.944-5.093-160.416c-2.546-22.917-25.463-43.287-43.287-61.111c-2.546-2.546-12.731-2.546-15.278,0
				c-2.546,2.546,0,10.185,0,12.731c6.088,10.654,13.025,22.237,17.123,34.712c9.814,9.381,21.48,17.23,15.979,26.399
				c-10.857,20.357-13.756,42.16-13.326,63.483c1.387,7.023,3.675,14.46,7.244,22.33c17.253,38.052,13.673,78.327,2.403,95.398
				c-5.79,8.77-6.304,17.425-1.943,23.125c1,0.735,2.032,1.392,3.076,1.913C710.445,1032.047,725.723,1019.316,738.454,1021.862z"/>
		</g>
		<path fill="#EBE9CD" d="M616.42,337.515c-4.415,5.449-30.097,29.327-15.83,45.03c0,0-1.606,6.676-5.754,9.72
			c-4.149,3.045-5.94,16.371,9.741,10.858s67.31,22.139,71.558,13.077c4.248-9.062,4.342-23.34,3.166-29.271
			c0,0,0.244-10.737,5.756-15.963c5.512-5.226,5.122-28.212-1.747-38.239C676.44,322.7,642.482,305.348,616.42,337.515z"/>
		<path fill="#D29D74" d="M676.134,341.259c2.233,13.824-1.284,42.759-17.246,57.276s-37.404-11.608-35.795-29.532
			c1.609-17.924,3.757-34.419,19.023-43.154C657.383,317.114,674.515,331.234,676.134,341.259z"/>
		<path fill="#F5F6DE" d="M627.797,318.559c3.224-11.301,30.27-18.643,35.021-7.58c2.11,5.149,5.895,6.385,5.895,6.385
			s13.021-11.15,15.631,13.027c2.61,24.177-22.475,10.682-25.539,5.602c0,0-12.747,0.849-27.783-3.759
			c0,0-4.167,11.427-16.994,12.117c-12.827,0.689-10.452-15.892-6.054-21.236C612.372,317.771,624.495,316.39,627.797,318.559z"/>
		<path fill="#F5F6DE" d="M631.021,379.628c-6.065,1.126-24.537,21.501-16.994,32.555c2.615,2.172,5.987,5.089,5.987,5.089
			s-14.285,7.391-6.209,16.382s10.671,6.42,10.671,6.42s-1.292-4.217,2.009-6.42c3.3-2.203-0.881,11.516,9.887,18.864
			c10.769,7.347,23.712,14.568,20.062,33.056c0,0,7.785-10.167,3.382-20.974c0,0,7.49-0.275,11.816-9.559
			c0,0,9.964-14.107-2.02-26.997c-11.984-12.89-15.709-17.638-11.433-27.95c5.254-12.669,5.254-12.669,5.254-12.669
			S644.734,396.624,631.021,379.628z"/>
		<path fill="#FDFFEC" d="M650.322,379.179c0,0,8.744-6.42,12.401,1.894c3.657,8.314,4.483,21.392,10.414,28.821
			s9.212,20.396,5.12,30.18c0,0,4.094,7.099,0.879,15.42c-3.214,8.32-3.547,11.618,0.164,16.951
			c3.711,5.333-0.38,12.653,0.648,18.475c0,0-6.023-6.334-4.431-14.499c1.592-8.164-8.449-3.961-5.406-26.765
			c3.043-22.804-23.028-22.457-11.306-56.143c1.865-5.19-7.376-16.498-19.524-6.755c0,0-2.524,3.838,1.445,9.645
			c3.97,5.808,1.047,12.283-6.425,15.781c-7.472,3.498-9.779,16.771-7.816,21.471c1.963,4.7-11.127-10.049-4.339-18.842
			c6.788-8.794-10.807-34.559,16.651-39.351C645.079,374.94,650.322,379.179,650.322,379.179z"/>
		<path fill="#D4AD36" d="M534.821,218.643c0,0-10.839-3.614-7.153-16.185c0,0-4.517-3.983,1.16-7.746
			c0,0,7.036-12.407,1.428-23.363c0,0-6.923-7.373,1.931-8.932c0,0-1.112-12.266-13.689-18.727c0,0,13.91-67.572,25.308-93.692
			c0,0,20.405,79.946,21.322,93.692c0,0-14.326,11.009-13.546,18.727c0,0,9.273,1.689,0.78,7.718c0,0-2.198,13.338-0.349,22.059
			c0,0,8.394,3.409,1.849,8.721c0,0,3.514,16.098-7.792,19.085C542.129,221.502,534.821,218.643,534.821,218.643z"/>
		<path fill="#D09D33" d="M532.286,178.422c0,0-18.465,4.554-29.807-11.665s-4.221-40.217,4.293-50.642
			c8.513-10.425,12.223-34.02,4.947-40.211c-7.276-6.191,3.854,15.437-6.643,30.971c-10.497,15.534-35.741,47.948-20.158,68.969
			s46.132,15.342,46.132,15.342S534.316,185.493,532.286,178.422z"/>
		<path fill="#D09D33" d="M551.556,178.223c0,0,18.465,4.621,29.807-11.837s4.221-40.809-4.293-51.388
			c-8.513-10.579-12.223-34.522-4.947-40.804c7.276-6.282-3.854,15.664,6.643,31.427c10.497,15.763,35.741,48.655,20.158,69.985
			c-15.583,21.33-48.034,15.097-48.034,15.097S549.526,185.399,551.556,178.223z"/>
		<path fill="#CE8472" d="M644.741,371.225c0,0,9.753-1.21,12.841,1.603c0,0-4.477,4.197-7.706,4.187
			S642.93,372.026,644.741,371.225z"/>
		<path fill="#97D4E6" d="M494.914,493.076c5.257,17.228,19.613,11.681,17.692-1.316
			C510.684,478.763,489.657,475.849,494.914,493.076z"/>
		<g>
			<path fill="#BFF3F6" d="M804.894,728.111c-0.934-7.391-0.571-23.279,8.274-17.678c8.846,5.601-2.281,13.475-4.174,18.819
				C807.101,734.596,804.894,728.111,804.894,728.111z"/>
			<path fill="#BFF3F6" d="M824.713,830.049c-1.463-7.473,2.445-17.193,7.446-24.149c5-6.956,17.906-35.516,1.399-49.193
				c-16.508-13.676-18.334,37.997-2.398,34.012c0,0-2.756,6.905-8.373,15.422S824.713,830.049,824.713,830.049z"/>
			<path fill="#BFF3F6" d="M817.597,855.901c7.223,6.161,19.09,16.789,27.936,6.629c8.846-10.161,0.395-20.26-10.232-21.292
				c-10.626-1.032-16.272,8.036-11.984,13.921L817.597,855.901z"/>
			<g>
				<g>
					<path fill="#DDFCFF" d="M795.413,864.682c0,0,15.499-21.041-3.382-47.843c-18.881-26.802-41.459-22.981-43.637-61.699
						c-1.962-18.843,17.155-34.551-8.109-63.369c-25.264-28.818-20.605-21.284-27.289-45.025c-15.772-32.13-51.451-27-51.451-27
						c-26.371-32.027-45.65-21.284-45.65-21.284c-15.092-12.524-36.125-5.794-36.125-5.794
						c-16.04-16.411-32.087-13.736-52.819-15.808c-32.124-10.596-37.111,18.375-37.111,18.375s-4.319,1.686-17.254,2.214
						c-12.935,0.528-31.17,47.798-28.066,58.118c3.104,10.32,1.176,22.159,1.176,22.159c-7.74,14.866,0.669,39.424,0.669,39.424
						c-8.8,38.992,15.715,89.374,25.48,103.872c9.765,14.499,33.911,30.092,33.911,30.092c-0.122-26.514,30.53-32.043,27.194-93.528
						c-3.337-61.485,44.208-61.125,44.208-61.125s9.495,21.789,26.717,35.774c32.317,26.244,58.837-7.34,58.837-7.34
						s25.442-16.587,47.632-5.137c21.159,10.919,35.771,41.871,31.158,58.839c14.345,27.358,1.027,52.773,1.027,52.773
						c-1.486,15.774-2.67,29.745-3.595,42.203c5.196,12.677,10.698,20.17,10.698,20.17s-7.058,11.096,2.633,17.647
						c9.691,6.551,24.534-10.903,24.534-10.903s23.917,33.294,34.541-0.375C821.966,866.444,795.413,864.682,795.413,864.682z"/>
					<g>
						<path fill="#CAFFF9" d="M664.612,675.567c12.731-10.185,28.009,15.278,33.102,0c4.944-14.832,3.496-29.665,3.235-44.497
							c-17.13-14.509-39.403-11.323-39.403-11.323c-12.537-15.226-23.464-20.777-31.486-22.42
							c-17.216,9.187-20.634,31.917-31.651,45.138c-7.639,10.185-30.555-15.278-48.38-5.093
							c-31.848,19.905-21.683,53.815-12.079,85.915c11.689-27.003,39.209-26.826,39.209-26.826s9.495,21.79,26.717,35.774
							c32.317,26.244,58.837-7.34,58.837-7.34s1.531-0.995,4.156-2.327C665.962,705.502,650.102,688.003,664.612,675.567z"/>
						<path fill="#BFF3F6" d="M700.948,631.069c-6.507-5.511-13.751-8.461-20.24-10.011c-13.358,0.478-27.768-4.126-33.921,6.129
							c-7.639,10.185,15.278,30.555,0,40.741c-15.278,15.278-35.648-15.278-56.018-2.546c-16.899,10.14-12.485,28.13-5.374,45.784
							c4.467,6.793,10.669,14.728,18.48,21.071c32.317,26.244,58.837-7.34,58.837-7.34s1.531-0.995,4.156-2.327
							c-0.907-17.066-16.766-34.565-2.257-47.002c12.731-10.185,28.009,15.278,33.102,0
							C702.658,660.734,701.21,645.902,700.948,631.069z"/>
					</g>
				</g>
				<path fill="#EAFDFF" d="M794.473,886.909c-15.278-7.639-22.917-22.917-15.278-38.194c5.983-10.471,10.186-21.823,11.622-33.536
					c-3.886-5.213-7.902-9.222-11.848-12.636c1.019,9.199-0.522,18.197-4.867,25.802c-7.639,15.278-20.37,33.102-12.732,48.38
					c2.747,8.24,9.19,17.961,12.153,27.167c2.006-1.922,3.278-3.403,3.278-3.403s23.917,33.294,34.541-0.375
					c1.74-5.514,2.469-10.158,2.494-14.093C808.215,888.643,801.878,889.377,794.473,886.909z"/>
				<path fill="#CDF4FF" d="M751.186,874.177c-10.185-28.009,10.185-53.472,2.546-81.481c-1.274-7.644-5.736-14.013-11.47-19.426
					c-0.097,1.876-0.312,3.684-0.759,5.328c14.345,27.358,1.027,52.773,1.027,52.773c-1.486,15.774-2.67,29.745-3.595,42.203
					c5.177,12.629,10.653,20.109,10.694,20.165C753.428,888.354,754.59,881.838,751.186,874.177z"/>
				<path fill="#CDF4FF" d="M781.741,851.261c-4.562,11.405,7.209,12.584,15.206,10.878c3.387-6.356,10.087-24.003-4.915-45.299
					c-2.176-3.088-4.401-5.756-6.638-8.143C789.486,822.522,788.563,837.617,781.741,851.261z"/>
				<path fill="#CDF4FF" d="M478.732,627.187c7.639-20.37,28.009-5.093,43.287,0c5.093-17.824,15.278-33.102,35.648-28.009
					c12.731,5.093,17.824,17.824,28.009,25.463c5.093,5.093,15.278,2.546,15.278,2.546c19.595-26.944,43.899,0.287,59.319-8.934
					c-25.714-30.158-44.378-19.791-44.378-19.791c-15.092-12.524-36.125-5.794-36.125-5.794
					c-16.04-16.411-32.087-13.736-52.819-15.808c-32.124-10.596-37.111,18.375-37.111,18.375s-4.319,1.686-17.254,2.214
					c-12.935,0.528-31.17,47.798-28.066,58.118c3.104,10.32,1.176,22.159,1.176,22.159c-5.485,10.535-2.864,25.898-0.869,33.979
					C471.977,700.914,467.661,651.544,478.732,627.187z"/>
				<path fill="#CDF4FF" d="M600.954,713.761c-7.639-12.731-10.185-28.009-28.009-33.102c-25.463-5.093-45.833,17.824-53.472,35.648
					c-10.185,33.102-7.639,63.657-35.648,91.667c-4.107,4.107-6.72,11.167-7.091,19.184c11.213,12.439,29.023,23.956,29.023,23.956
					c-0.122-26.514,30.53-32.043,27.194-93.528c-3.337-61.485,44.208-61.125,44.208-61.125s9.495,21.79,26.717,35.774
					c23.318,18.936,43.612,6.727,53.11-1.542C634.837,735.098,612.261,733.143,600.954,713.761z"/>
				<g>
					<path fill="#EAFDFF" d="M636.602,693.391c-7.639,7.639-25.463,5.093-28.009-2.546
						c-28.009-63.657-104.398-86.574-145.139-30.555c-15.278,20.37,5.093,48.38,0,76.389c-2.813,9.844-9.511,17.345-17.087,18.668
						c5.002,28.621,18.745,55.679,25.478,65.676c0.109,0.162,0.243,0.326,0.356,0.488c23.471,3.616,39.137-27.258,29.448-46.638
						c-20.37-40.741-30.556-101.852,20.37-119.676c40.741-15.278,63.657,25.463,89.12,50.926
						c15.278,12.731,25.463-10.185,35.648-15.278c30.555-10.185,53.472,17.824,84.028,22.917c20.37,5.093,5.093,33.102,17.824,48.38
						c0.154,0.103,0.325,0.204,0.481,0.307c-0.329-2.26-0.578-4.678-0.726-7.307c-1.962-18.843,17.155-34.551-8.109-63.369
						c-4.406-5.025-7.885-8.928-10.69-12.101c-12.395-4.203-25.035-12.139-34.428-16.835
						C672.25,650.104,654.426,680.659,636.602,693.391z"/>
					<path fill="#BFF3F6" d="M478.732,716.307c-2.546,12.731-2.546,25.463,2.546,35.648c7.207,19.219-15.049,18.041-30.419,22.124
						c6.307,21.096,15.754,39.175,20.986,46.942c0.109,0.162,0.243,0.326,0.356,0.488c23.471,3.616,39.137-27.258,29.448-46.638
						c-9.971-19.942-17.479-44.757-16.597-66.995C482.212,710.109,480.101,713.57,478.732,716.307z"/>
				</g>
			</g>
			<path fill="#DDFCFF" d="M810.907,709.451c-6.618-1.64-6.859,11.967-6.013,18.66c0,0,0.974,2.841,2.181,3.201
				C806.533,724.024,816.489,716.737,810.907,709.451z"/>
			<path fill="#DDFCFF" d="M834.261,777.172c2.546-5.093,0.953-12.485-4.14-15.031c-3.203-1.068-6.395-0.776-8.847,0.654
				c-1.459,5.508-1.511,12.712-0.083,18.462C826.57,784.374,832.463,782.565,834.261,777.172z"/>
			<path fill="#DDFCFF" d="M842.852,858.9c4.336-2.89,4.564-8.241,2.559-13.259c-2.569-2.399-6.188-4.021-10.11-4.402
				c-8.128-0.789-13.323,4.33-13.407,9.414C825.844,857.769,835.08,862.786,842.852,858.9z"/>
		</g>
		<g>
			<path fill="#D4AD36" d="M545.533,254.544c0.79-19.388,1.646-32.092,2.573-36.172c0,0-5.576-7.026-13.285,0.271l-0.463,35.672
				C538.3,253.821,542.512,253.874,545.533,254.544z"/>
			<path fill="#D4AD36" d="M543.972,294.773c-3.583,5.601-7.071,9.499-10.3,12.406l-9.397,724.139c0,0,7.292,5.512,12.703,0
				c0,0,1.755-532.907,7.243-736.541C544.076,294.774,543.972,294.773,543.972,294.773z"/>
		</g>
	</g>
	<g>
		<g>
			<path fill="#DEDEBB" d="M660.279,355.606c2.919-1.266,5.907-2.158,9.061-2.605c2.826-0.4,5.64-0.147,8.45-0.474
				c0.912-0.106,1.059-1.557,0.164-1.817c-5.916-1.718-12.999,0.582-18.276,3.342C658.75,354.537,659.273,356.042,660.279,355.606
				L660.279,355.606z"/>
		</g>
		<g>
			<path fill="#DEDEBB" d="M650.059,352.534c-4.028-4.904-10.706-9.196-17.057-10.117c-0.741-0.107-1.145,0.823-0.481,1.241
				c2.619,1.649,5.662,2.47,8.397,3.923c2.982,1.585,5.764,3.607,8.182,5.963C649.76,354.187,650.61,353.205,650.059,352.534
				L650.059,352.534z"/>
		</g>
		<g>
			<path fill="#995D16" d="M635.113,358.909c2.516,2.003,6.73,4.379,9.976,2.82c0.598-0.287,0.301-1.079-0.199-1.251
				c-1.287-0.442-2.692-0.367-4.03-0.575c-1.842-0.287-3.442-0.935-4.993-1.937C635.302,357.601,634.568,358.475,635.113,358.909
				L635.113,358.909z"/>
		</g>
		<g>
			<path fill="#995D16" d="M659.53,363.858c0.75,1.256,2.041,1.999,3.384,2.502c1.381,0.517,3.411,0.905,4.544-0.231
				c0.308-0.309,0.218-0.996-0.149-1.222c-1.047-0.647-2.421-0.363-3.613-0.626c-1.233-0.271-2.287-0.911-3.447-1.373
				C659.715,362.696,659.268,363.419,659.53,363.858L659.53,363.858z"/>
		</g>
	</g>
	<g>
		<path fill="#AB654E" d="M655.81,358.369c-0.715,4.023-1.087,8.932,0.778,12.709c0.349,0.707,1.402,0.229,1.369-0.457
			c-0.195-4.062-1.078-7.821-0.656-11.969C657.397,357.698,655.983,357.392,655.81,358.369L655.81,358.369z"/>
	</g>
	<g>
		<path fill="#AB654E" d="M646.415,375.017c0.983,1.626,2.767,3.456,4.829,3.371c0.482-0.02,0.794-0.658,0.319-0.956
			c-1.514-0.95-3.008-1.455-4.098-2.983C647.031,373.841,646.008,374.343,646.415,375.017L646.415,375.017z"/>
	</g>
	<g>
		<g>
			<path fill="#E1DAAC" d="M657.697,335.644c6.551-0.268,8.039-7.912,6.881-13.243c-1.074-4.949-6.719-9.712-11.388-5.519
				c-4.184,3.758-1.848,11.459,3.474,12.855c4.53,1.189,6.696-5.199,2.086-6.466c-0.803-0.22-1.139,0.924-0.481,1.32
				c-0.849,0.932-1.698,1.864-2.547,2.796c-0.848-0.553-1.5-1.27-1.957-2.149c-0.8-1.332-1.069-2.374-0.899-3.922
				c-0.036-1.014,0.284-1.912,0.961-2.695c1.463-0.556,2.926-1.112,4.39-1.668c1.81,0.048,3.491,2.209,4.195,3.597
				c2.325,4.586,1.614,13.537-4.762,14.133C657.107,334.734,657.145,335.666,657.697,335.644L657.697,335.644z"/>
		</g>
		<g>
			<path fill="#E1DAAC" d="M631.553,332.575c-4.758-0.055-7.94-7.158-13.131-4.386c-3.059,1.633-6.42,8.344-3.487,11.295
				c2.562,2.578,9.765,1.246,9.806-2.98c0.036-3.731-5.73-3.367-4.764-0.313c0.152,0.482,0.743,0.591,1.042,0.175
				c0.082,1.686-0.452,2.511-1.599,2.475c-1.778,0.303-3.012-0.827-3.703-3.391c0.027-0.865,0.689-2.343,1.111-3.16
				c1.373-2.657,3.738-3.865,6.509-2.416c2.816,1.472,4.77,4.055,8.204,3.92C632.32,333.763,632.344,332.584,631.553,332.575
				L631.553,332.575z"/>
		</g>
		<g>
			<path fill="#E1DAAC" d="M649.222,383.81c2.305,0.791,4.618,1.898,6.321,3.703c3.373,3.576,2.453,7.076,1.247,11.298
				c-1.135,3.974-1.561,7.402-0.891,11.494c0.077,0.468,0.869,0.49,0.863-0.02c-0.054-4.755,0.946-8.435,2.13-12.926
				c0.616-2.336,1.104-4.688,0.279-7.046c-1.492-4.262-5.742-6.067-9.759-7.142C649.049,383.074,648.862,383.686,649.222,383.81
				L649.222,383.81z"/>
		</g>
		<g>
			<path fill="#E1DAAC" d="M656.364,414.653c-0.154,5.663,2.756,8.909,5.831,13.421c6,8.804,7.006,17.696,6.112,28.05
				c-0.06,0.691,0.976,0.801,1.171,0.173c1.9-6.112,1.554-12.62-0.351-18.718c-2.495-7.987-11.101-14.66-11.802-22.975
				C657.279,414.056,656.379,414.105,656.364,414.653L656.364,414.653z"/>
		</g>
		<g>
			<path fill="#E1DAAC" d="M640.09,385.575c-1.986,3.172-2.996,6.613-2.307,10.368c0.253,1.377,0.902,2.373,1.237,3.689
				c1.511,5.925-0.039,11.422-5.24,14.266c-0.457,0.25-0.191,0.94,0.315,0.758c3.796-1.363,8.314-3.585,8.979-8.078
				c0.278-1.88-0.335-3.34-1.128-5.023c-2.627-5.579-4.362-9.447-1.06-15.427C641.182,385.593,640.427,385.038,640.09,385.575
				L640.09,385.575z"/>
		</g>
		<g>
			<path fill="#E1DAAC" d="M628.222,418.697c-2.873,3.337-5.02,9.172-2.315,13.21c0.246,0.368,0.898,0.123,0.896-0.299
				c-0.018-4.605-0.503-8.215,2.363-12.158C629.566,418.9,628.671,418.176,628.222,418.697L628.222,418.697z"/>
		</g>
		<g>
			<path fill="#E1DAAC" d="M659.66,464.609c-2.81-4.569-6.248-7.94-10.353-11.36c-1.059-0.882-2.298-1.741-3.052-2.922
				c-1.708-2.677-0.282-9.042,1.379-11.774c1.405-2.313,3.031-3.787,3.992-6.377c0.235-0.633-0.711-1.009-1.059-0.47
				c-3.052,4.743-9.748,10.259-7.365,16.666c1.04,2.798,3.632,4.625,5.844,6.418c3.822,3.096,7.089,6.3,9.93,10.358
				C659.304,465.616,659.946,465.074,659.66,464.609L659.66,464.609z"/>
		</g>
		<g>
			<path fill="#E1DAAC" d="M651.54,427.115c2.596-6.194-1.086-12.17-3.026-18.005c-0.142-0.428-0.841-0.241-0.763,0.202
				c1.03,5.851,5.022,11.419,2.745,17.475C650.246,427.453,651.272,427.757,651.54,427.115L651.54,427.115z"/>
		</g>
		<g>
			<path fill="#E1DAAC" d="M663.163,404.912c4.727,12.225,13.611,21.383,11.944,35.452c-0.054,0.456,0.571,0.529,0.688,0.106
				c3.551-12.768-7.457-24.736-12.091-35.741C663.564,404.392,663.03,404.566,663.163,404.912L663.163,404.912z"/>
		</g>
		<g>
			<path fill="#E1DAAC" d="M621.26,413.785c8.464-8.692-3.636-20.776,3.944-29.745c0.325-0.385-0.239-0.886-0.62-0.6
				c-10.016,7.524,4.218,21.747-3.46,30.199C621.039,413.733,621.17,413.877,621.26,413.785L621.26,413.785z"/>
		</g>
		<g>
			<path fill="#E1DAAC" d="M621.741,345.651c-0.444,4.14-1.813,7.005-3.984,10.416c-3.007,4.722-4.31,5.938-10.459,6.945
				c-1.998,0.327-2.733-0.062-4.095,1.423c-2.663,2.903-2.679,12.523,0.863,14.864c5.588,3.693,9.819-10.098,2.719-8.055
				c-0.685,0.197-0.576,1.322,0.178,1.27c1.557,5.063,1.041,6.06-1.548,2.991c-2.27-1.125-2.956-2.989-2.057-5.591
				c0.433-4.515,2.422-3.818,6.211-4.803c2.295-0.596,3.619-0.817,5.497-2.555c4.489-4.154,7.269-10.813,7.49-16.809
				C622.575,345.228,621.798,345.118,621.741,345.651L621.741,345.651z"/>
		</g>
		<g>
			<path fill="#E1DAAC" d="M678.932,347.657c-0.47,3.466,0.563,6.352,2.165,9.404c1.151,2.193,3.01,4.62,3.337,7.101
				c0.45,3.41-1.827,5.367-4.34,7.172c-0.267,0.192-0.061,0.656,0.264,0.53c12.865-5.002-1.149-15.582-0.383-24.147
				C680.035,347.042,679.021,346.998,678.932,347.657L678.932,347.657z"/>
		</g>
		<g>
			<path fill="#E1DAAC" d="M674.425,377.739c0.588,12.79,10.072,25.287,1.495,37.311c-0.373,0.523,0.419,1.184,0.872,0.725
				c10.344-10.484-0.605-26.237-1.674-38.108C675.077,377.217,674.405,377.294,674.425,377.739L674.425,377.739z"/>
		</g>
		<g>
			<path fill="#E1DAAC" d="M616.231,373.785c0.872,9.441-8.01,14.104-14.819,18.341c-2.711,1.687-7.315,4.081-8.368,7.324
				c-2.153,6.628,8.785,5.871,11.557,2.371c0.423-0.534-0.381-1.055-0.848-0.715c-2.759,2.627-5.04,1.536-6.842-3.274
				c0.443-0.37,0.886-0.74,1.329-1.11c1.309-1.535,3.858-2.663,5.555-3.714c2.536-1.571,5.186-3.041,7.465-4.987
				c4.341-3.708,7.053-8.625,6.195-14.391C617.352,372.94,616.166,373.082,616.231,373.785L616.231,373.785z"/>
		</g>
		<g>
			<path fill="#E1DAAC" d="M666.022,341.318c6.621,0.319,11.563-7.39,12.441-13.273c0.736-4.929-1.728-12.09-7.517-12.289
				c-0.777-0.027-0.916,1.287-0.127,1.375c7.166,0.805,7.279,9.89,5.043,14.776c-1.916,4.189-5.106,7.862-9.854,8.572
				C665.547,340.549,665.53,341.294,666.022,341.318L666.022,341.318z"/>
		</g>
		<g>
			<path fill="#E1DAAC" d="M668.62,341.796c6.826-1.225,12.873-7.177,12.912-14.359c0.002-0.327-0.512-0.35-0.566-0.033
				c-1.154,6.715-5.491,12.327-12.418,13.7C668.113,341.189,668.176,341.876,668.62,341.796L668.62,341.796z"/>
		</g>
		<g>
			<path fill="#E1DAAC" d="M658.207,337.572c12.906-2.319,12.139-18.432,5.669-26.624c-0.287-0.363-0.958-0.009-0.723,0.425
				c4.778,8.804,7.191,21.663-5.085,25.574C657.724,337.056,657.841,337.638,658.207,337.572L658.207,337.572z"/>
		</g>
		<g>
			<path fill="#E1DAAC" d="M633.383,331.438c-2.701-1.811-4.78-3.92-6.484-6.675c-0.927-1.499-1.567-3.348-3.024-4.465
				c-2.068-1.586-4.58-1.342-6.843-0.368c-4.926,2.119-11.243,7.978-8.277,13.77c0.283,0.553,1.04,0.239,0.981-0.333
				c-0.724-6.968,9.33-16.714,15.206-9.133c2.494,3.217,4.243,5.787,7.907,7.953C633.35,332.483,633.882,331.772,633.383,331.438
				L633.383,331.438z"/>
		</g>
		<g>
			<path fill="#E1DAAC" d="M649.789,306.572c-7.822,1.959-16.164,6.76-16.235,15.871c-0.045,5.741,4.48,11.214,10.468,10.624
				c0.593-0.058,0.89-1.004,0.177-1.146c-8.24-1.639-10.597-9.762-6.299-16.476c2.77-4.326,7.353-6.761,12.071-8.332
				C650.327,306.996,650.141,306.484,649.789,306.572L649.789,306.572z"/>
		</g>
	</g>
	<g>
		<g>
			<path fill="#B96D54" d="M542.318,470.318c11.845-0.65,23.476-14.59,28.91-24.119c0.51-0.895-0.908-1.604-1.516-0.874
				c-6.752,8.114-16.254,21.372-27.608,22.491C540.496,467.973,540.702,470.406,542.318,470.318L542.318,470.318z"/>
		</g>
		<g>
			<path fill="#B96D54" d="M599.994,419.7c5.039,5.463,9.525,11.392,14.511,16.893c0.394,0.434,1.198-0.055,0.88-0.592
				c-3.832-6.464-9.103-12.034-14.453-17.262C600.31,418.131,599.411,419.069,599.994,419.7L599.994,419.7z"/>
		</g>
		<g>
			<path fill="#B96D54" d="M661.264,466.909c1.511,1.068,3.021,2.135,4.532,3.203c1.404,0.992,2.753,2.089,4.389,2.661
				c0.569,0.199,0.949-0.546,0.591-0.959c-1.023-1.181-2.362-1.955-3.659-2.804c-1.676-1.097-3.352-2.195-5.026-3.296
				C661.406,465.264,660.588,466.432,661.264,466.909L661.264,466.909z"/>
		</g>
		<g>
			<path fill="#B96D54" d="M576.978,450.397c14.422,21.384,29.313,43.169,57.165,46.377c0.946,0.109,1.232-1.231,0.289-1.464
				c-14.08-3.481-26.732-9.051-36.809-19.867c-7.327-7.864-13.116-17.205-19.35-25.929
				C577.686,448.693,576.414,449.56,576.978,450.397L576.978,450.397z"/>
		</g>
		<g>
			<path fill="#B96D54" d="M654.094,503.889c2.227,9.659,6.979,19.369,14.939,25.571c0.646,0.504,1.746-0.31,1.148-1.01
				c-6.522-7.637-11.972-15.198-14.775-24.949C655.16,502.647,653.898,503.037,654.094,503.889L654.094,503.889z"/>
		</g>
		<g>
			<path fill="#B96D54" d="M644.981,496.975c3.159-2.152,6.058-5.695,6.232-9.672c0.032-0.726-0.969-0.787-1.197-0.168
				c-1.301,3.541-2.63,6.532-5.729,8.881C643.752,496.421,644.422,497.355,644.981,496.975L644.981,496.975z"/>
		</g>
		<g>
			<path fill="#B96D54" d="M645.224,516.332c0.533,10.546,0.968,21.153-1.064,31.57c-2.436,12.489-9.085,23.931-13.921,35.646
				c-0.349,0.844,0.854,1.503,1.281,0.662c5.446-10.714,11.696-21.817,14.189-33.665c2.386-11.341,1.3-22.892,0.327-34.326
				C645.992,515.688,645.198,515.812,645.224,516.332L645.224,516.332z"/>
		</g>
		<g>
			<path fill="#B96D54" d="M641.014,591.455c3.872-8.3,6.937-17.519,13.84-23.769c3.502-3.171,7.107-5.755,8.04-10.613
				c0.125-0.652-0.866-1.178-1.162-0.478c-2.643,6.245-8.537,9.119-12.409,14.35c-4.275,5.775-6.456,13.636-9.25,20.187
				C639.82,591.726,640.748,592.026,641.014,591.455L641.014,591.455z"/>
		</g>
		<g>
			<path fill="#B96D54" d="M613.836,501.099c-1.008,6.896-0.637,13.273,2.281,19.698c2.193,4.829,5.067,8.784,5.535,14.407
				c0.507,6.099-1.356,12.946-1.785,19.068c-0.04,0.576,0.808,0.658,0.891,0.088c1.077-7.427,3.448-16.463,1.886-23.925
				c-0.655-3.127-2.171-4.887-3.567-7.608c-3.783-7.375-5.431-13.019-4.729-21.623C614.374,500.878,613.885,500.759,613.836,501.099
				L613.836,501.099z"/>
		</g>
		<g>
			<path fill="#B96D54" d="M557.823,499.782c-0.738,5.031,2.323,8.55,5.258,12.347c4.997,6.464,9.971,13.012,15.325,19.185
				c0.266,0.307,0.779-0.023,0.531-0.369c-3.343-4.68-6.969-9.156-10.523-13.678c-3.854-4.904-10.468-10.674-10.029-17.38
				C558.408,499.532,557.878,499.408,557.823,499.782L557.823,499.782z"/>
		</g>
		<g>
			<path fill="#B96D54" d="M569.547,534.711c1.251,3.773,3.208,7.13,6.008,9.963c0.229,0.231,0.542-0.134,0.334-0.368
				c-2.549-2.878-4.545-6.138-5.8-9.778C569.968,534.179,569.431,534.361,569.547,534.711L569.547,534.711z"/>
		</g>
		<g>
			<path fill="#B96D54" d="M650.886,607.404c4.466-11.731,9.418-22.841,15.198-33.972c0.237-0.456-0.492-0.817-0.782-0.42
				c-7.28,9.987-11.303,22.492-15.255,34.078C649.862,607.634,650.68,607.945,650.886,607.404L650.886,607.404z"/>
		</g>
		<g>
			<path fill="#B96D54" d="M519.24,414.562c-1.337,4.951-2.883,9.754-4.853,14.49c-0.387,0.929,0.946,1.568,1.415,0.672
				c2.455-4.691,4.11-9.74,4.711-15.01C520.598,413.971,519.425,413.876,519.24,414.562L519.24,414.562z"/>
		</g>
		<g>
			<path fill="#B96D54" d="M476.136,430.289c-1.227,8.02,5.501,15.057,11.965,18.8c0.491,0.284,1.157-0.365,0.694-0.801
				c-5.287-4.98-12.507-9.657-11.565-17.952C477.309,429.629,476.24,429.605,476.136,430.289L476.136,430.289z"/>
		</g>
		<g>
			<path fill="#B96D54" d="M478.477,422.476c-0.324-2.619-0.578-5.251-1.139-7.832c-0.086-0.398-0.661-0.369-0.644,0.058
				c0.106,2.662,0.512,5.296,0.852,7.936C477.624,423.243,478.551,423.078,478.477,422.476L478.477,422.476z"/>
		</g>
		<g>
			<path fill="#B96D54" d="M607.004,836.639c2.143-6.227,4.117-12.355,6.674-18.44c0.186-0.443-0.496-0.837-0.757-0.413
				c-3.408,5.519-6.031,12.173-6.731,18.652C606.139,836.904,606.844,837.102,607.004,836.639L607.004,836.639z"/>
		</g>
		<g>
			<path fill="#B96D54" d="M615.307,811.956c0.068-4.948,0.357-9.953-0.041-14.891c-0.04-0.495-0.822-0.468-0.863,0.02
				c-0.407,4.901-0.105,9.878-0.038,14.791C614.373,812.475,615.298,812.571,615.307,811.956L615.307,811.956z"/>
		</g>
		<g>
			<path fill="#B96D54" d="M737.568,824.898c1.826-5.06,3.22-10.48,2.981-15.899c-0.027-0.609-0.887-0.712-0.967-0.075
				c-0.673,5.346-1.31,10.503-3.007,15.649C736.365,825.211,737.34,825.531,737.568,824.898L737.568,824.898z"/>
		</g>
		<g>
			<path fill="#B96D54" d="M709.88,985.677c1.75-3.389,3.585-7.353,3.553-11.237c-0.003-0.405-0.635-0.452-0.763-0.098
				c-1.323,3.659-1.974,7.343-3.696,10.887C708.726,985.741,709.616,986.188,709.88,985.677L709.88,985.677z"/>
		</g>
		<g>
			<path fill="#B96D54" d="M713.816,970.54c-1.519-4.598-1.753-8.908-1.785-13.695c-0.004-0.578-0.875-0.804-1.043-0.19
				c-1.293,4.731-0.313,9.924,1.764,14.279C713.027,971.51,714.022,971.165,713.816,970.54L713.816,970.54z"/>
		</g>
		<g>
			<path fill="#B96D54" d="M625.515,1057.443c0.047-4.116,1.317-7.703,2.042-11.684c0.144-0.792-0.873-1.14-1.293-0.481
				c-2.155,3.373-2.552,8.069-2.554,11.973C623.709,1058.402,625.501,1058.618,625.515,1057.443L625.515,1057.443z"/>
		</g>
		<g>
			<path fill="#B96D54" d="M613.275,1056.472c1.088-3.761,2.59-7.158,4.118-10.745c0.248-0.582-0.615-0.914-0.956-0.456
				c-2.285,3.063-3.756,7.134-4.415,10.882C611.879,1056.965,613.041,1057.281,613.275,1056.472L613.275,1056.472z"/>
		</g>
		<g>
			<path fill="#B96D54" d="M604.123,1055.132c-0.949-3.77,1.444-6.187,4.035-8.459c0.275-0.241,0.176-0.779-0.236-0.795
				c-4.62-0.179-6.821,5.902-5.749,9.653C602.522,1056.747,604.439,1056.387,604.123,1055.132L604.123,1055.132z"/>
		</g>
		<g>
			<path fill="#B96D54" d="M595.142,1051.264c-0.314-1.644-0.157-3.354,0.555-4.881c0.663-1.423,1.856-2.448,2.802-3.668
				c0.334-0.431-0.191-0.993-0.652-0.889c-3.965,0.889-5.421,6.257-4.5,9.716C593.642,1052.645,595.366,1052.437,595.142,1051.264
				L595.142,1051.264z"/>
		</g>
		<g>
			<path fill="#B96D54" d="M780.883,1028.744c2.889-1.146,5.979-0.623,8.46,1.219c2.053,1.526,2.993,3.565,4.064,5.795
				c0.179,0.373,0.759,0.316,0.809-0.118c0.782-6.748-8.627-10.023-13.775-7.815
				C779.833,1028.086,780.279,1028.984,780.883,1028.744L780.883,1028.744z"/>
		</g>
		<g>
			<path fill="#B96D54" d="M803.989,1032.203c-2.516-4.162-7.686-7.733-12.787-6.415c-0.589,0.152-0.492,0.902,0.065,1.009
				c2.296,0.443,4.497,0.635,6.628,1.696c1.977,0.984,3.922,2.477,5.317,4.188C803.529,1033.071,804.265,1032.661,803.989,1032.203
				L803.989,1032.203z"/>
		</g>
		<g>
			<path fill="#B96D54" d="M554.766,283.297c-3.16-0.011-6.326-0.202-9.487-0.264c-3.178-0.063-6.586-0.767-9.698-0.109
				c-0.502,0.106-0.522,0.771-0.07,0.959c5.513,2.29,13.499,0.943,19.257,0.204C555.201,284.031,555.23,283.299,554.766,283.297
				L554.766,283.297z"/>
		</g>
		<g>
			<path fill="#B96D54" d="M556.057,274.724c-6.946-1.579-15.303-3.489-22.429-2.418c-0.819,0.123-0.972,1.331-0.087,1.502
				c7.259,1.402,14.907,1.235,22.257,2.512C556.831,276.499,557.066,274.953,556.057,274.724L556.057,274.724z"/>
		</g>
		<g>
			<path fill="#B96D54" d="M555.041,266.715c-7.654-3.1-17.93-6.931-25.865-2.853c-0.723,0.372-0.168,1.306,0.512,1.203
				c9.138-1.385,16.06,0.104,24.872,2.943C555.298,268.247,555.771,267.011,555.041,266.715L555.041,266.715z"/>
		</g>
		<g>
			<path fill="#B96D54" d="M500.889,285.605c5.27-4.795,10.647-9.497,15.787-14.431c0.211-0.202-0.114-0.49-0.328-0.305
				c-5.387,4.669-10.566,9.591-15.828,14.402C500.284,285.487,500.654,285.819,500.889,285.605L500.889,285.605z"/>
		</g>
	</g>
	<g>
		<g>
			<path fill="#80BAD1" d="M479.5,447.656c-19.059,10.408-35.041,25.036-46.473,43.577c-2.795,4.533-9.482,12.741-7.074,18.641
				c2.508,6.145,11.773,7.086,17.19,8.67c2.227,0.75,4.455,1.5,6.682,2.25c1.673,6.198,3.345,12.397,5.018,18.595
				c-0.688,1.943-3.496,3.974-4.791,5.57c-2.873,3.542-5.033,6.68-6.337,11.055c-2.143,7.188-1.406,15.065,2.186,21.663
				c7.219,13.263,24.392,17.331,37.301,10.291c0.684-0.373,0.17-1.563-0.567-1.26c-12.037,4.963-24.971,3.528-32.994-7.289
				c-9.552-12.878-4.765-25.127,4.136-36.177c5.423-6.731,8.881-13.927,1.437-20.729c-4.365-3.988-9.853-4.795-15.317-6.369
				c-18.299-5.271-8.449-20.611-1.155-30.721c10.952-15.18,25.164-27.432,41.386-36.666
				C480.838,448.353,480.216,447.264,479.5,447.656L479.5,447.656z"/>
		</g>
		<g>
			<path fill="#80BAD1" d="M460.651,477.626c-2.85,7.949-10.155,14.547-4.852,22.895c2.012,3.167,5.84,5.082,8.621,7.501
				c3.042,2.249,5.725,4.881,8.048,7.896c-0.471,6.142-0.943,12.284-1.414,18.427c-2.28,5.032-7.01,7.502-8.419,13.21
				c-1.938,7.85,1.659,20.675,8.462,25.717c7.947,5.89,16.512-0.038,22.677-5.59c0.608-0.548-0.248-1.368-0.866-0.893
				c-8.895,6.842-22.55,6.146-27.516-5.989c-3.476-8.492-0.096-15.745,4.787-22.795c3.202-4.623,6.773-7.773,6.73-13.753
				c-0.04-5.557-3.248-9.943-7.105-13.69c-3.026-2.939-7.887-5.116-10.361-8.474c-6.869-9.322-0.628-16.469,1.92-24.167
				C461.517,477.455,460.82,477.155,460.651,477.626L460.651,477.626z"/>
		</g>
		<g>
			<path fill="#80BAD1" d="M464.178,433.288c-10.817-1.773-21.728,2.58-26.949,12.721c-3.504,6.805-2.259,14.548-4.384,21.684
				c-3.51,11.783-14.67,15.957-24.64,20.812c-11.213,5.46-22.875,13.269-26.341,26.037c-2.625,9.667,0.125,19.836,8.434,25.61
				c0.544,0.378,1.259-0.48,0.744-0.92c-12.694-10.851-9.496-28.43,2.214-38.913c8.77-7.851,20.108-10.801,29.764-17.14
				c5.033-3.305,9.032-7.35,11.097-13.092c1.932-5.371,1.63-11.175,2.892-16.694c2.901-12.685,13.617-20.592,27.063-19.443
				C464.497,433.987,464.611,433.359,464.178,433.288L464.178,433.288z"/>
		</g>
		<g>
			<path fill="#80BAD1" d="M413.451,521.173c2.799,11.842,3.756,23.524,3.532,35.646c-0.151,8.193-0.314,16.012,2.716,23.776
				c3.286,8.42,10.576,25.05,21.612,22.578c0.493-0.111,0.523-0.947-0.041-0.936c-4.432,0.087-10.742-6.899-13.354-10.249
				c-2.487-3.19-5.055-8.081-6.567-12.1c-2.892-7.685-2.936-15.11-2.874-23.168c0.094-12.244-1.137-23.777-4.235-35.651
				C414.113,520.583,413.332,520.67,413.451,521.173L413.451,521.173z"/>
		</g>
		<g>
			<path fill="#80BAD1" d="M455.027,929.068c18.559-12.075,42.785-23.091,57.134-40.455c14.586-17.652,5.786-41.189,10.584-61.683
				c0.131-0.559-0.687-0.897-0.864-0.317c-5.997,19.594,3.114,42.052-9.727,59.513c-6.886,9.364-17.187,15.314-26.682,21.715
				c-10.255,6.912-20.496,13.845-30.744,20.769C454.436,928.808,454.732,929.261,455.027,929.068L455.027,929.068z"/>
		</g>
		<g>
			<path fill="#80BAD1" d="M648.49,776.406c-0.623,10.551,1.582,19.937,4.88,29.92c3.167,9.584,8.259,19.377,1.46,29.353
				c-2.719,3.99-6.967,6.607-10.7,9.496c-3.245,2.512-8.242,5.004-9.481,9.306c-0.552,1.919,1.797,7.729,2.307,9.203
				c2.137,6.18,4.268,12.357,6.699,18.427c0.288,0.719,1.438,0.477,1.204-0.312c-3.826-12.857-11.397-26.19,1.65-36.225
				c5.183-3.987,10.617-8.183,12.614-14.701c1.96-6.394-0.108-12.897-2.123-18.971c-3.907-11.774-7.88-22.828-7.342-35.469
				C649.69,775.68,648.534,775.655,648.49,776.406L648.49,776.406z"/>
		</g>
		<g>
			<path fill="#80BAD1" d="M650.203,898.676c0.218,7.744-5.094,14.955-12.714,16.8c-6.306,1.527-8.702-3.268-8.342-8.543
				c0.294-4.304,2.393-8.119,5.614-10.943c0.305-0.267-0.023-0.781-0.369-0.531c-3.922,2.834-6.277,7.152-6.485,12.024
				c-0.169,3.964,0.938,8.887,5.463,9.531c9.883,1.407,17.811-9.484,17.33-18.362C650.682,898.331,650.194,898.356,650.203,898.676
				L650.203,898.676z"/>
		</g>
		<g>
			<path fill="#80BAD1" d="M638.295,753.702c-2.858,10.657-2.697,21.066-0.712,31.858c1.129,6.137,2.856,12.127,4.39,18.168
				c2.033,8.01,2.879,11.237-0.521,19.445c-2.946,7.112-3.54,8.179-8.246,12.947c-0.37,0.374,0.087,1.024,0.519,0.668
				c8.648-7.142,13.918-13.846,11.811-25.284c-3.646-19.791-11.658-36.849-6.3-57.479
				C639.396,753.412,638.462,753.081,638.295,753.702L638.295,753.702z"/>
		</g>
		<g>
			<path fill="#80BAD1" d="M547.913,968.937c10.631-1.737,15.697-9.989,17.108-20.219c2.678-19.413-3.879-37.758,2.3-57.055
				c0.159-0.498-0.556-0.796-0.763-0.303c-4.272,10.206-4.142,20.532-3.409,31.443c1.016,15.13,5.376,41.571-15.468,45.065
				C546.985,967.984,547.219,969.05,547.913,968.937L547.913,968.937z"/>
		</g>
		<g>
			<path fill="#80BAD1" d="M564.643,874.462c-6.396,8.944-10.219,19.544-11.416,30.475c-1.728,15.777,3.717,34.926-12.457,44.884
				c-0.577,0.355-0.15,1.267,0.477,0.957c9.088-4.494,12.461-13.491,13.303-23.227c0.766-8.845-0.462-17.624,1.042-26.445
				c1.617-9.478,5.482-17.668,10.02-26.038C565.964,874.421,565.072,873.861,564.643,874.462L564.643,874.462z"/>
		</g>
		<g>
			<path fill="#80BAD1" d="M366.072,1114.693c3.433,7.402,6.229,16.383,11.278,22.868c2.678,3.439,6.678,5.77,11.068,4.13
				c3.36-1.256,5.532-4.691,3.706-8.149c-1.958-3.708-7.107-4.479-10.813-4.848c-0.859-0.086-0.816,1.254,0.033,1.343
				c3.854,0.402,9.025,1.441,10.052,5.975c0.913,4.03-5.289,5.285-7.818,4.625c-2.852-0.745-4.835-3.267-6.312-5.595
				c-4.087-6.442-6.951-13.932-10.275-20.79C366.704,1113.659,365.796,1114.098,366.072,1114.693L366.072,1114.693z"/>
		</g>
	</g>
	<g>
		<g>
			<path fill="#91D1EA" d="M494.488,832.346c32.793-23.025,29.237-62.93,24.98-98.382c-0.068-0.57-1.013-0.516-1.009,0.065
				c0.125,18.514,3.905,37.583,0.886,55.976c-2.78,16.938-12.243,30.985-25.5,41.581
				C493.338,831.992,493.973,832.708,494.488,832.346L494.488,832.346z"/>
		</g>
		<g>
			<path fill="#91D1EA" d="M477.841,806.038c20.204-9.855,18.777-33.38,18.458-52.613c-0.246-14.834,0.774-29.921,5.311-44.135
				c4.098-12.84,12.812-31.235,26.961-35.06c0.608-0.164,0.566-1.223-0.121-1.153c-17.213,1.752-26.76,27.114-30.364,41.391
				c-2.693,10.669-3.58,21.77-3.645,32.745c-0.12,20.519,5.173,47.063-16.819,58.217
				C477.257,805.615,477.465,806.222,477.841,806.038L477.841,806.038z"/>
		</g>
		<g>
			<path fill="#91D1EA" d="M451.075,735.437c15.897,4.111,26.4-6.079,30.353-20.83c6.976-26.033-0.734-67.876,35.969-72.324
				c0.661-0.08,0.517-1.097-0.111-1.129c-53.438-2.729-15.374,106.04-65.884,93.264
				C450.739,734.251,450.405,735.263,451.075,735.437L451.075,735.437z"/>
		</g>
		<g>
			<path fill="#91D1EA" d="M452.152,639.397c-0.053-13.943,11.358-23.95,23.596-28.509c6.938-2.585,14.636-3.926,20.884,0.682
				c2.195,1.751,4.252,3.654,6.17,5.71c1.042,12.14-2.779,13.22-11.464,3.241c0.851-0.118,0.858-1.403-0.043-1.367
				c-6.281,0.247-9.289,7.24-4.446,11.753c6.508,6.066,17.666-0.94,18.746-8.724c1.432-10.323-14.706-17.684-23.131-15.63
				c-15.163,3.696-31.665,15.966-31.254,32.764C451.225,639.915,452.155,640.011,452.152,639.397L452.152,639.397z"/>
		</g>
		<g>
			<path fill="#91D1EA" d="M660.145,620.581c-9.221,1.99-18.462,4.717-27.759,6.259c-6.404,1.062-23.591,2.87-19.224-12.504
				c1.971-4.297,5.151-7.207,9.54-8.73c6.961-3.719,8.341-0.544,4.14,9.526c-0.699-0.206-1.078,0.794-0.478,1.162
				c5.044,3.097,12.003-0.744,11.065-7.055c-1.522-10.244-14.126-6.89-19.768-3.084c-7.279,4.911-10.048,15.179-1.907,20.747
				c4.549,3.112,10.067,2.953,15.293,2.085c9.914-1.646,19.746-4.613,29.471-7.115C661.362,621.654,660.983,620.4,660.145,620.581
				L660.145,620.581z"/>
		</g>
		<g>
			<path fill="#91D1EA" d="M547.665,580.721c10.425,4.341,24.407,10.851,30.593,20.803c2.522,4.058,3.038,8.745,1.021,13.139
				c-1.231,2.681-5.285,8.758-8.257,8.99c-4.413,0.344-8.002-3.115-9.818-6.521c-1.157-2.108-2.187-4.278-3.09-6.512
				c2.059-6.965,4.79-8.107,8.192-3.425c0.371,0.327,0.908-0.247,0.6-0.62c-3.842-4.639-11.82-6.764-10.886,1.905
				c0.743,6.901,7.373,21.262,15.886,16.467c7.724-4.351,12.937-13.754,9.014-22.25c-5.395-11.685-21.634-18.811-32.939-22.814
				C547.435,579.69,547.132,580.499,547.665,580.721L547.665,580.721z"/>
		</g>
		<g>
			<path fill="#91D1EA" d="M764.007,802.75c13.672,13.494,23.505,28.009,15.086,47.318c-3.521,8.075-8.483,15.45-7.029,24.644
				c1.529,9.662,13.675,33.044,26.505,25.882c8.888-4.962,6.752-22.225-4.125-23.53c-7.27-0.872-10.279,8.311-2.758,9.998
				c0.864,0.194,1.105-1.013,0.313-1.306c-3.933,9.213-7.277,10.991-10.032,5.333c-2.232-3.075-4.167-6.321-5.805-9.739
				c-2.961-6.929-2.548-13.679-0.15-20.658c2.409-7.01,7.266-12.991,8.347-20.506c2.265-15.749-8.957-28.272-19.404-38.42
				C764.323,801.151,763.38,802.132,764.007,802.75L764.007,802.75z"/>
		</g>
		<g>
			<path fill="#91D1EA" d="M657.278,715.626c13.543,1.837,21.929-10.106,34.223-13.532c18.623-5.189,58.066,7.775,57.586,31.982
				c-0.016,0.794,1.286,0.918,1.401,0.119c2.398-16.669-18.945-27.97-32.195-32.478c-8.706-2.962-18.385-3.97-27.345-1.416
				c-12.025,3.428-20.303,15.785-33.616,14.256C656.645,714.479,656.602,715.535,657.278,715.626L657.278,715.626z"/>
		</g>
		<g>
			<path fill="#91D1EA" d="M712.146,649.011c-6.044-13.634-20.091-16.793-33.909-17.397c-21.933-0.958-43.415,10.677-63.018-3.604
				c-0.554-0.404-1.079,0.447-0.578,0.87c8.85,7.464,18.282,10.305,29.811,8.499c20.29-3.179,55.326-12.09,66.795,12.058
				C711.522,650.016,712.405,649.595,712.146,649.011L712.146,649.011z"/>
		</g>
		<g>
			<path fill="#91D1EA" d="M576.241,695.686c-4.305-20.76,1.136-50.645,28.124-50.247c9.252,0.137,17.634,4.615,24.466,10.609
				c3.964,3.478,9.316,8.867,10.759,14.027c0.178,4.413,0.357,8.826,0.535,13.239c-1.684,5.496-6.147,6.413-13.387,2.752
				c-0.148-0.704-1.273-0.553-1.247,0.166c0.375,10.44,12.401,5.866,15.707-0.705c7.043-13.998-6.746-28.862-17.746-35.748
				c-12.216-7.648-27.63-8.946-38.721,1.368c-12.54,11.66-12.922,29.068-9.231,44.627
				C575.609,696.231,576.34,696.161,576.241,695.686L576.241,695.686z"/>
		</g>
		<g>
			<path fill="#91D1EA" d="M645.293,714.179c-15.828,7.99-32.564-2.089-43.155-13.958c-5.999-6.723-10.133-13.542-9.771-22.734
				c0.238-6.04,1.739-9.841,5.751-14.358c5.347-6.022,21.595-17.145,27.709-1.371c0.235,0.607,1.168,0.225,1.043-0.378
				c-2.158-10.413-12.969-10.793-21.247-6.836c-10.703,5.116-17.797,16.578-15.617,28.458c4.13,22.505,34.507,44.126,56.124,32.442
				C646.999,714.974,646.147,713.748,645.293,714.179L645.293,714.179z"/>
		</g>
		<g>
			<path fill="#91D1EA" d="M581.488,654.304c-11.28-10.042-25.957-17.966-41.209-19.303c-0.727-0.064-0.838,1.069-0.158,1.248
				c15.156,3.992,28.129,9.105,40.351,19.215C581.237,656.096,582.23,654.965,581.488,654.304L581.488,654.304z"/>
		</g>
	</g>
	<g>
		<g>
			<path fill="#C08633" d="M535.778,220.788c1.611-0.261,3.218-0.309,4.832-0.038c1.412,0.237,2.725,0.862,4.137,1.046
				c0.665,0.087,1.211-0.735,0.639-1.235c-2.482-2.172-6.79-2.082-9.825-1.475C534.49,219.3,534.676,220.966,535.778,220.788
				L535.778,220.788z"/>
		</g>
		<g>
			<path fill="#C08633" d="M533.292,216.912c6.103-1.263,11.13-0.211,17.009,1.469c0.612,0.175,0.985-0.65,0.464-1.007
				c-5.106-3.502-12.07-3.58-17.756-1.621C532.291,216,532.528,217.071,533.292,216.912L533.292,216.912z"/>
		</g>
		<g>
			<path fill="#C08633" d="M528.185,202.382c8.813-3.749,16.446-3.29,25.776-2.343c0.772,0.078,1.316-1.055,0.478-1.399
				c-8.589-3.524-18.827-1.689-27.021,2.043C526.322,201.18,527.08,202.852,528.185,202.382L528.185,202.382z"/>
		</g>
		<g>
			<path fill="#C08633" d="M551.457,192.537c-6.588-0.793-13.617-0.663-19.946,1.534c-0.708,0.246-0.482,1.254,0.27,1.137
				c6.59-1.028,12.89-1.967,19.596-1.729C551.983,193.5,552.064,192.61,551.457,192.537L551.457,192.537z"/>
		</g>
		<g>
			<path fill="#C08633" d="M531.948,172.693c5.855-1.088,11.619-0.987,17.537-1.181c0.687-0.023,0.894-1.117,0.158-1.248
				c-5.995-1.063-12.221-0.201-18.116,1.076C530.626,171.535,531.068,172.856,531.948,172.693L531.948,172.693z"/>
		</g>
		<g>
			<path fill="#C08633" d="M534.528,166.016c5.308-1.77,10.072-1.231,15.417-0.096c0.63,0.134,1.132-0.798,0.475-1.11
				c-5.024-2.392-11.096-1.858-16.189,0.025C533.507,165.101,533.775,166.267,534.528,166.016L534.528,166.016z"/>
		</g>
		<g>
			<path fill="#C08633" d="M520.13,143.481c9.84-4.702,20.002-4.289,23.013-16.317c1.606-6.413,0.591-14.2,0.598-20.734
				c0.011-9.276,0-18.54-0.351-27.81c-0.023-0.606-0.941-0.715-0.967-0.075c-0.44,10.906-0.433,21.81-0.457,32.724
				c-0.022,9.771,0.461,10.855-6.088,19.383c-6.417,8.356-8.004,7.643-16.109,12.01C519.268,142.931,519.604,143.732,520.13,143.481
				L520.13,143.481z"/>
		</g>
		<g>
			<path fill="#C08633" d="M562.821,142.225c-5.018-1.834-9.634-4.292-14.011-7.362c-0.649-0.456-1.376,0.599-0.808,1.119
				c4.086,3.74,9.039,6.251,14.492,7.288C563.171,143.399,563.499,142.473,562.821,142.225L562.821,142.225z"/>
		</g>
		<g>
			<path fill="#C08633" d="M552.045,185.231c17.809,1.84,43.181-5.542,48.199-25.143c0.093-0.364-0.515-0.551-0.638-0.19
				c-6.335,18.537-29.714,25.729-47.454,24.67C551.729,184.543,551.608,185.186,552.045,185.231L552.045,185.231z"/>
		</g>
		<g>
			<path fill="#C08633" d="M529.636,183.79c-20.124,1.775-44.246-14.764-39.491-36.765c0.089-0.412-0.53-0.502-0.638-0.107
				c-6.243,22.939,19.55,39.914,40.29,37.803C530.406,184.659,530.237,183.737,529.636,183.79L529.636,183.79z"/>
		</g>
	</g>
</g>
</svg>
