<?xml version="1.0" encoding="utf-8"?>
<!-- Designed by Vexels.com - 2019 All Rights Reserved - https://vexels.com/terms-and-conditions/  -->
<svg version="1.1" id="Layer_1" xmlns="http://www.w3.org/2000/svg" xmlns:xlink="http://www.w3.org/1999/xlink" x="0px" y="0px"
	 viewBox="0 0 1200 1200" enable-background="new 0 0 1200 1200" xml:space="preserve">
<g>
	<g>
		<path fill="#CB7565" d="M450.063,633.149c0,0-2.853,29.05,16.765,38.458s25.672,1.552,18.882,21.838
			c-6.789,20.285-48.051,23.471-48.709-5.766S450.063,633.149,450.063,633.149z"/>
		<g>
			<path fill="#F0D054" d="M497.207,621.461l-68.312,78.175l-68.312,78.175c-2.039,2.333-2.405,5.332-1.498,7.877
				s3.087,4.637,6.142,5.155l38.033,6.449l38.033,6.449L373.748,915.38l-67.545,111.639c-0.757,1.25-0.258,2.491,0.659,3.136
				s2.254,0.692,3.173-0.444l98.649-121.882l98.649-121.882c2.141-2.645,2.457-5.954,1.399-8.741
				c-1.058-2.786-3.491-5.051-6.849-5.608l-41.94-6.957l-41.94-6.957l43.033-65.505l43.033-65.505
				c1.476-2.247,0.645-4.563-0.997-5.811S498.976,619.436,497.207,621.461z"/>
			<path fill="#F3DB7C" d="M398.718,773.477c31.641-52.735,73.163-98.059,106.049-149.859c-0.184-1.107-0.815-2.086-1.695-2.755
				c-1.642-1.248-4.096-1.428-5.865,0.597l-68.312,78.175l-68.312,78.175c-2.039,2.333-2.405,5.332-1.498,7.877
				c0.907,2.545,3.087,4.637,6.142,5.155l38.033,6.45l38.033,6.449L373.748,915.38l-67.545,111.639
				c-0.757,1.25-0.258,2.491,0.659,3.136s2.254,0.692,3.173-0.444l36.874-45.558c43.505-70.968,78.3-125.931,130.475-191.698
				C441.653,789.953,433.246,779.845,398.718,773.477z"/>
		</g>
		<path fill="#B46543" d="M743.067,1117.128c0,0,61.364,2.175,68.393,2.152c7.029-0.023,51.419,17.035,82.707-0.767l-2.665-15.391
			l-161.275-6.106C730.226,1097.015,721.891,1116.393,743.067,1117.128z"/>
		<path fill="#CB7565" d="M780.221,747.788c0,0,14.177,42.175,3.452,88.071c-10.725,45.896-5.526,157.547,2.046,179.577
			c7.572,22.029,17.499,67.072,70.447,73.45c52.948,6.378,31.432,19.309,31.432,19.309s-6.747,7.094-20.404,8.014
			c-13.657,0.92-27.32-1.334-27.32-1.334s-12.527,7.063-37.003-5.729c-24.477-12.792-47.833,6.075-65.022-7.716
			C720.66,1087.638,730.849,684.627,780.221,747.788z"/>
		<path fill="#D29D74" d="M856.166,1088.885c-52.948-6.378-62.876-51.42-70.447-73.45c-4.163-12.111-7.601-51.31-8.078-91.777
			c-8.848,20.176-16.301,40.754-22.304,62.763c-5.855,19.028-12.484,43.37-24.613,61.969c1.072,29.724,3.484,50.117,7.125,53.038
			c17.189,13.791,40.545-5.076,65.022,7.716c24.476,12.792,37.003,5.729,37.003,5.729s13.663,2.254,27.32,1.334
			c13.657-0.92,20.404-8.014,20.404-8.014S909.114,1095.264,856.166,1088.885z"/>
		<path fill="#CDC6B2" d="M466.828,143.091c0,0-21.092,20.294-35.047,31.438c-13.955,11.144,9.394,15.109,1.523,28.646
			c-7.871,13.538-13.149,32.501,7.473,28.741c20.622-3.76-23.631,39.865,14.291,20.776s56.567-20.998,61.501-45.76
			c4.935-24.762-32.21-71.396-32.21-71.396L466.828,143.091z"/>
		<path fill="#CB7565" d="M650.09,187.421l-59.247-2.083l-7.382-42.554c0,0-23.131-95.055-84.216-61.305
			c-37.002,20.443-13.72,65.149-5.768,87.46c7.952,22.311,23.107,34.829,10.088,44.977c-13.019,10.148-45.656,46.69-45.656,46.69
			s-65.261,7.287-43.957,102.343c0,0-14.254,24.177-0.106,65.426c6.885,23.564-8.068,59.667-6.26,67.845
			c0,0-9.819,76.785,4.568,134.028l0.925,67.131c0,0,27.004,20.184,38.271,23.03c0,0,11.688,19.729,27.571,2.846
			c15.884-16.883,6.789-29.811,6.789-29.811s16.557-23.954-1.329-31.411c-17.886-7.457-4.863,6.502-4.863,6.502
			s-16.152,6.725-8.375,17.944c0,0-5.447,3.818-10.73,9.544c-5.61-2.364-11.098-7.003-14.179-15.849c0,0,2.6-11.595,3.829-36.257
			c2.612-52.429,37.683-135.463,22.331-165.045l16.657-85.932c0,0,11.204,21.866,29.54,40.561l19.528,55.399
			c0,0-9.872,10.647-7.711,41.438c0,0,134.695,88.97,178.814-80.28L650.09,187.421z"/>
		<path fill="#D29D74" d="M651.215,462.998c-8.442-42.212,9.622-64.214-10.076-100.797c13.072-25.811,41.031-31.466,29.775-51.164
			c-16.885-30.955-16.885-70.353-50.654-90.051c-2.435-0.974-4.422-2.393-6.057-4.122c-0.796,0.436-1.607,0.863-2.385,1.307
			c-19.699,11.256-45.026,42.212-56.282,22.513c-14.07-19.699,33.769-47.84,16.885-70.353
			c-24.657-21.14-11.256-59.096-36.583-81.609c-5.132-5.132-10.858-10.248-17.427-14.046c-5.925,0.858-12.303,3.012-19.165,6.803
			c-37.002,20.443-13.72,65.149-5.768,87.46c7.952,22.311,23.107,34.829,10.088,44.977c-13.019,10.148-45.656,46.69-45.656,46.69
			s-65.261,7.287-43.957,102.343c0,0-14.254,24.177-0.106,65.426c6.885,23.564-8.068,59.667-6.26,67.845
			c0,0-9.819,76.785,4.568,134.028l0.925,67.131c0,0,27.004,20.184,38.271,23.03c0,0,11.688,19.729,27.571,2.846
			c15.884-16.883,6.789-29.811,6.789-29.811s16.557-23.954-1.329-31.411c-17.886-7.457-4.863,6.502-4.863,6.502
			s-16.152,6.725-8.375,17.944c0,0-5.447,3.818-10.73,9.544c-5.61-2.364-11.098-7.003-14.179-15.849c0,0,2.6-11.595,3.829-36.257
			c2.612-52.429,37.683-135.463,22.331-165.045l0.604-3.115c-12.045-30.752,1.271-65.052,3.743-97.182
			c8.729,3.492,10.957,9.151,12.065,15.631l0.245-1.265c0,0,11.204,21.866,29.54,40.561l19.528,55.399
			c0,0-9.872,10.647-7.711,41.438c0,0,81.153,53.58,138.109-1.59c2.765-13.474,1.654-26.949-6.045-40.423
			C659.657,479.883,654.029,471.44,651.215,462.998z"/>
		<path fill="#B46543" d="M850.294,1087.981l-24.513-14.667c0,0-13.989-4.772-28.509,33.643c0,0,8.343,7.259,21.217,12.299
			C818.488,1119.256,823.783,1088.885,850.294,1087.981z"/>
		<path fill="#CB7565" d="M655.718,187.421c0,0,41.02-17.331,62.23,45.238c21.21,62.569,24.514,68.596,38.667,129.542
			c0,0,33.957,38.568,31.907,165.256c0,0,17.53,19.33,17.498,35.941c-0.033,16.61,4.218,36.734-11.52,39.62
			c0,0,7.235-0.609-12.826,6.879c-20.06,7.488-21.35-48.328-32.761-98.37C737.503,461.485,655.718,187.421,655.718,187.421z"/>
		<path fill="#F4EFDE" d="M496.607,176.592c0,0-5.509,29.906,14.5,44.003c0,0,15.561,39.131,41.399,29.2
			c25.838-9.931,27.657-32.292,32.997-48.374c0,0,16.534-40.522-2.042-58.636c0,0,0.461,31.973-12.87,48.324
			c0,0-18.793-4.295-32.338-2.142c0,0-14.043-5.392-24.366,9.779C513.887,198.745,505.787,185.056,496.607,176.592z"/>
		<path fill="#D29D74" d="M516.569,206.932c0,0,11.11-0.105,19.189-8.06c0,0,17.266,4.055,24.286,2.508
			C560.044,201.38,544.506,217.299,516.569,206.932z"/>
		<path fill="#CE8472" d="M535.535,175.561c7.369-3.689,17.155-5.617,9.364,7.694c-7.247,10.948-19.774,8.412-24.666,0.392
			C514.322,172.691,527.225,179.72,535.535,175.561z"/>
		<path fill="#F4EFDE" d="M489.05,145.13l33.177,10.74c0,0-0.403,5.076-11.12,3.974c-10.717-1.102-22.24-4.502-22.24-4.502
			S476.396,144.349,489.05,145.13z"/>
		<path fill="#F4EFDE" d="M534.136,155.342c0,0,23.729-21.518,27.239-25.278c3.51-3.76,13.506,4.293-20.359,26.955
			C535.46,161.707,534.136,155.342,534.136,155.342z"/>
		<path fill="#B7DFE1" d="M789.65,720.566c2.604-1.539,11.999-7.93,9.393-18.76c-3.015-12.533-22.982-68.26-25.084-147.316
			c0,0,1.708-98.428-35.6-119.573c0,0-34.094-213.159-74.917-244.818c0,0-6.053-25.272-29.974-6.679
			c-21.415,16.645-25.955,68.04,12.373,111.706c0,0,42.237,85.314,17.601,159.213c-24.637,73.899-21.113,88.775-71.386,89.47
			c-50.273,0.694-25.483-12.672-43.566-13.071c0,0-19.083-8.117-18.183-15.508c1.126-9.246,7.81-26.328,7.81-26.328
			s-20.09,4.068-29.84,25.37c-9.75,21.302-9.864,46.47,4.214,70.148c0,0-2.819,24.314,11.344,25.779
			c-4.929,14.321-12.701,44.182-5.247,74.621c0,0-13.595,25.848-2.713,47.666c0,0-21.422,22.226-9.627,53.068
			c0,0-14.066,16.732-10.088,29.086c0,0-8.806,17.086-4.797,17.309c4.01,0.222-18.301,31.169-24.134,40.488
			c-5.832,9.319,12.78,8.65-10.143,46.566c-9.514,15.737-0.392,20.402,16.847,18.286c-3.075,19.414-8.657,48.691-15.652,59.014
			c-10.818,15.965-42.515,72.783-64.363,76.613c-21.847,3.83,15.066,26.769,15.066,26.769s-8.798,23.276,20.173,22.5
			c0,0-3.818,8.937,35.453,8.438c39.27-0.499,43.397,27.781,66.388,10.373c0,0,20.735,20.974,67.766-1.093
			c19.496-11.83,25.064,13.454,72.694-13.142c47.63-26.596,41.316,27.503,77.393-18.881c12.111-25.969-11.942-44.612,1.345-152.355
			C761.399,864.691,787.53,766.587,789.65,720.566z"/>
		<path fill="#DDFCFF" d="M721.567,550.235c0-5.628,11.256-2.814,11.256-2.814c2.814-22.513-8.442-39.397-16.885-59.096
			c-8.442-16.885-22.513-39.397-16.885-61.91c5.628,2.814,5.628-5.628,11.256-5.628c-16.885-30.955-8.442-64.724-19.699-98.494
			c-15.208-50.693-50.943-89.977-51.727-142.515c-1.698,0.964-3.494,2.147-5.417,3.642c-21.415,16.645-25.955,68.04,12.373,111.706
			c0,0,42.237,85.314,17.601,159.213c-24.637,73.899-21.113,88.775-71.386,89.47c-50.273,0.694-25.483-12.672-43.566-13.071
			c0,0-24.197-9.856-20.77-16.466c3.427-6.61,10.397-25.37,10.397-25.37s-20.09,4.068-29.84,25.37
			c-8.252,18.03-9.562,38.828-1.245,59.15c5.8,4.546,10.606,10.71,14.733,16.212c16.885-16.885,14.07,11.256,33.769,8.442
			c-8.442-5.628-16.885-19.699-11.256-22.513c30.955-2.814,56.282,42.212,90.051,19.699c0,0-16.885-11.256-11.256-11.256
			c33.769-2.814,61.91-5.628,73.167-39.397c2.342,4.684,3.797,9.369,4.707,14.053c0.192-1.277,24.202,148.047,21.957,176.747
			c-2.245,28.7,11.991-21.037,15.455-35.101c3.464-14.064,5.569,9.741,5.569,9.741s0.435,1.255,1.429,2.603
			C752.651,659.799,721.567,604.046,721.567,550.235z"/>
		<path fill="#DDFCFF" d="M549.907,876.671c56.282-14.07,84.423-59.096,115.378-101.308c11.256-11.256,22.513-33.769,14.07-53.468
			c-39.397,28.141-67.538,104.122-118.192,78.795c-8.442-5.628,5.628-25.327,14.07-30.955
			c59.096-28.141,118.192-78.795,109.75-146.333c0,0-11.256-2.814-14.071,0c-28.141,45.026-64.724,95.68-121.006,87.237
			c-2.814,0,2.814-8.442,5.628-11.256c33.769-5.628,90.051-25.327,70.353-50.654c-16.885-19.699-47.84,36.583-73.167,25.327
			c-8.442-2.814,11.256-28.141-5.628-33.769c-10.079-4.032-20.151-3.754-29.196-7.396c-2.719,14.788-3.882,33.247,0.693,51.928
			c0,0-13.595,25.848-2.713,47.666c0,0-21.422,22.226-9.627,53.068c0,0-14.066,16.732-10.088,29.086c0,0-8.806,17.086-4.797,17.309
			c4.01,0.222-18.301,31.169-24.134,40.488c-5.688,9.089,11.854,8.695-8.536,43.84c24.678-2.792,48.997-4.145,71.513-19.906
			C538.651,890.742,541.465,876.671,549.907,876.671z"/>
		<path fill="#DDFCFF" d="M670.913,865.415c-5.628,0-11.256,0-14.07,0c-22.513,53.468-14.07,112.564-33.769,166.032
			c-5.628,19.699-39.397,59.096-42.212,39.397c-2.814-47.84,36.583-115.378,8.442-149.148
			c-22.513-25.327-39.397,59.096-56.282,90.051c-2.814,2.814-11.256,2.814-11.256,2.814c0-25.327,19.699-45.026,14.07-73.167
			c0,0-5.628-5.628-8.442-2.814c-30.955,47.84-25.327,129.449-81.609,149.147c8.442-45.026,47.84-75.981,45.026-123.82
			c-2.137-12.821-9.148-17.515-18.556-16.574c-3.234,18.324-8.106,40.311-13.971,48.967c-10.818,15.965-42.515,72.783-64.363,76.613
			c-21.847,3.83,15.066,26.769,15.066,26.769s-8.798,23.276,20.173,22.5c0,0-3.818,8.937,35.453,8.438
			c39.27-0.499,43.397,27.781,66.388,10.373c0,0,1.181,1.183,3.586,2.688c38.873-8.259,77.529-13.965,99.743-30.626
			C710.311,1059.588,668.099,949.838,670.913,865.415z"/>
		<path fill="#F4EFDE" d="M497.93,127.991c0,0-17.171,35.398-31.102,15.1c0,0-6.037-3.485,0.803-8.23c0,0-21.828-14.8,2.766-21.967
			c0,0-17.568-0.472,3.175-27.046c0,0,16.308-42.08,50.543-28.862c0,0,25.28-30.08,65.705,34.597l4.496,24.108
			c0,0,24.391,11.546,15.454,38.04c0,0-9.592,12.903,14.156,9.895c23.748-3.008-2.156,22.594,26.591,14.695
			c28.748-7.899,37.408,18.629,12.925,18.982c-24.483,0.353,3.945,29.27-40.77,10.999c-10.946-3.744-7.833,18.829-25.93-9.429
			c-18.097-28.258-5.814-61.757-28.095-66.345c-22.281-4.589-14.197-23.458-26.409-26.55c-12.212-3.093-20.238,8.499-20.238,8.499
			S496.753,107.322,497.93,127.991c0,0-12.601,31.342-31.102,15.1"/>
	</g>
	<g>
		<path fill="#835013" d="M497.916,162.248c4.068,4.112,11.822,5.461,17.051,3.075c1.055-0.481,0.476-2.145-0.594-2.106
			c-2.512,0.093-5.02,0.413-7.527,0.088c-2.834-0.368-5.248-1.505-7.889-2.437C498.199,160.6,497.246,161.57,497.916,162.248
			L497.916,162.248z"/>
	</g>
	<g>
		<path fill="#835013" d="M546.268,158.544c6.676,1.492,16.215-1.771,19.348-8.121c0.391-0.793-0.593-1.415-1.25-1.012
			c-2.671,1.638-5.024,3.758-7.935,4.992c-3.252,1.379-6.465,1.577-9.924,1.861C545.249,156.368,544.944,158.248,546.268,158.544
			L546.268,158.544z"/>
	</g>
	<g>
		<path fill="#835013" d="M551.109,157.806c1.723,3.662,7.943,3.789,9.185-0.363c0.288-0.962-1.01-1.89-1.818-1.265
			c-1.606,1.24-3.986,2.179-5.685,0.461C551.966,155.805,550.603,156.731,551.109,157.806L551.109,157.806z"/>
	</g>
	<g>
		<path fill="#835013" d="M505.669,166.051c0.853,2.008,2.351,3.296,4.504,3.759c1.895,0.408,3.725-0.051,3.809-2.31
			c0.011-0.306-0.31-0.661-0.615-0.691c-0.667-0.065-1.153,0.227-1.789,0.248c-0.588,0.019-1.243-0.188-1.783-0.398
			c-0.975-0.38-1.992-0.95-2.772-1.647C506.348,164.408,505.339,165.275,505.669,166.051L505.669,166.051z"/>
	</g>
	<g>
		<g>
			<path fill="#9C7868" d="M535.381,198.962c8.018,4.725,20.737,6.595,29.74,4.039c0.706-0.2,0.654-1.388-0.103-1.463
				c-5.269-0.522-10.521,0.067-15.805-0.685c-4.549-0.647-8.803-2.064-13.159-3.47C534.982,197.038,534.44,198.407,535.381,198.962
				L535.381,198.962z"/>
		</g>
		<g>
			<path fill="#9C7868" d="M534.94,197.413c-2.94,0.806-5.258,3.584-7.965,5.027c-4.37,2.328-9.056,3.084-13.866,4.133
				c-0.723,0.158-0.601,1.26,0.07,1.393c4.713,0.936,9.617-0.223,13.889-2.286c3.117-1.505,7.722-3.906,8.589-7.524
				C535.758,197.733,535.391,197.289,534.94,197.413L534.94,197.413z"/>
		</g>
		<g>
			<g>
				<path fill="#BDB898" d="M518.835,110.794c-5.207-14.265-3.655-28.4,2.795-41.971c0.242-0.508-0.585-0.911-0.881-0.442
					c-8.252,13.034-8.73,28.695-3.019,42.84C517.982,111.842,519.068,111.43,518.835,110.794L518.835,110.794z"/>
			</g>
			<g>
				<path fill="#BDB898" d="M520.41,100.543c5.932-3.291,13.857-6.954,20.81-6.279c11.053,1.074,12.162,10.834,17.301,18.572
					c4.297,6.469,9.473,11.189,17.15,12.815c0.717,0.152,1.024-0.838,0.327-1.096c-10.078-3.733-15.154-11.261-20.129-20.272
					c-1.977-3.582-3.725-8.584-7.664-10.595c-8.105-4.137-21.435,2.052-28.219,6.132
					C519.578,100.065,519.991,100.775,520.41,100.543L520.41,100.543z"/>
			</g>
			<g>
				<path fill="#BDB898" d="M567.669,131.321c11.184,8.09,40.849,3.222,37.735,23.754c-0.146,0.964,1.117,1.235,1.559,0.462
					c3.383-5.906-0.193-12.542-5.432-16.112c-9.807-6.682-23.195-2.73-33.237-9.15C567.624,129.847,567.042,130.868,567.669,131.321
					L567.669,131.321z"/>
			</g>
			<g>
				<path fill="#BDB898" d="M609.851,140.716c-0.251-13.116-16.098-15.929-26.286-13.505c-0.808,0.192-0.509,1.288,0.215,1.339
					c9.112,0.643,24.216-1.303,24.777,12.18C608.592,141.558,609.867,141.552,609.851,140.716L609.851,140.716z"/>
			</g>
			<g>
				<path fill="#BDB898" d="M509.022,101.591c-5.469-1.904-10.791-0.564-15.028,3.396c-2.631,2.459-4.475,5.666-6.189,8.789
					c-1.61,2.932-2.898,6.044-4.741,8.849c-1.202,1.83-11.459,14.118-13.545,5.264c-0.196-0.832-1.581-1.059-1.652-0.028
					c-0.427,6.204,5.535,6.947,10.014,4.327c11.691-6.837,13.043-34.015,30.824-29.318
					C509.538,103.09,509.811,101.865,509.022,101.591L509.022,101.591z"/>
			</g>
			<g>
				<path fill="#BDB898" d="M471.098,115.476c8.18,1.813,17.11-0.348,22.453-7.061c0.317-0.398-0.253-0.927-0.642-0.612
					c-6.297,5.097-13.448,7.944-21.621,6.63C470.696,114.338,470.505,115.345,471.098,115.476L471.098,115.476z"/>
			</g>
			<g>
				<path fill="#BDB898" d="M513.825,94.165c0.946-6.565-4.42-11.387-10.894-11.148c-3.317,0.122-5.94,1.48-8.129,3.894
					c-1.568,1.73-2.501,3.972-4.131,5.643c-3.883,3.98-10.462,5.12-13.316-0.972c-0.362-0.773-1.814-0.685-1.779,0.298
					c0.178,4.999,5.259,7.34,9.873,6.487c2.728-0.504,5.167-2.143,6.993-4.188c0.972-1.089,1.499-2.383,2.399-3.498
					c1.85-3.477,4.592-5.446,8.227-5.907c6.98,0.356,10.185,3.475,9.614,9.356C512.594,94.868,513.722,94.883,513.825,94.165
					L513.825,94.165z"/>
			</g>
			<g>
				<path fill="#BDB898" d="M484.387,77.413c9.701-4.171,21.725-17.669,32.615-8.462c0.371,0.314,0.934-0.259,0.6-0.62
					c-10.255-11.074-24.433,4.047-33.576,8.263C483.503,76.835,483.857,77.641,484.387,77.413L484.387,77.413z"/>
			</g>
			<g>
				<path fill="#BDB898" d="M519.131,73.14c0.041,0,0.047-0.063,0.006-0.063C519.096,73.077,519.09,73.14,519.131,73.14
					L519.131,73.14z"/>
			</g>
			<g>
				<path fill="#BDB898" d="M520.097,72.02c7.142-15.926,24.499-19.225,38.72-10.757c0.637,0.379,1.392-0.587,0.794-1.068
					c-14.064-11.307-33.711-4.384-40.353,11.511C519.036,72.24,519.863,72.543,520.097,72.02L520.097,72.02z"/>
			</g>
			<g>
				<path fill="#BDB898" d="M516.25,99.005c13.087-19.487,40.728-28.935,52.638-2.72c1.634,3.597,2.328,7.688,5.222,10.6
					c5.37,5.405,14.734,2.384,19.757,8.823c0.573,0.734,1.74,0.022,1.234-0.794c-1.929-3.111-3.515-3.69-6.527-5.252
					c-4.504-2.336-13.123-5.405-16.225-9.473c-1.222-1.603-1.485-4.448-2.298-6.297c-3.062-6.968-7.64-11.848-14.983-14.383
					c-16.387-5.658-31.701,5.163-39.738,18.902C514.976,99.017,515.856,99.592,516.25,99.005L516.25,99.005z"/>
			</g>
			<g>
				<path fill="#BDB898" d="M516.362,81.039c4.012-4.384,8.302-8.391,13.477-11.398c9.639-5.6,24.19-6.172,32.533,1.519
					c5.492,5.064,9.927,9.463,17.807,8.089c0.626-0.109,0.533-1.098-0.101-1.105c-15.21-0.177-19.888-17.65-36.558-15.064
					c-11.082,1.719-21.112,8.778-27.883,17.433C515.275,80.977,515.983,81.453,516.362,81.039L516.362,81.039z"/>
			</g>
			<g>
				<path fill="#BDB898" d="M572.463,133.751c4.516,5.077,8.806,10.444,10.254,17.262c1.319,6.21,0.256,12.694,1,18.964
					c0.733,6.172,2.654,11.729,7.933,15.263c0.705,0.472,1.272-0.571,0.808-1.119c-8.311-9.822-5.358-20.458-7.374-32.065
					c-1.397-8.041-5.933-13.679-11.779-19.079C572.771,132.484,571.967,133.194,572.463,133.751L572.463,133.751z"/>
			</g>
			<g>
				<path fill="#BDB898" d="M583.381,151.148c6.74,8.101,6.09,30.168,21.091,31.101c2.518,0.157,2.625-0.568,5.032-1.599
					c5.946-2.548,7.528-5.638,13.495-0.754c4.724,3.867,3.459,2.722,3.962,7.294c0.539,4.908,2.412,8.476,7.438,9.423
					c0.672,0.127,0.967-0.739,0.327-1.018c-12.586-5.496-1.592-13.87-8.503-19.224c-2.297-1.78-7.635-1.339-10.093-0.864
					c-2.901,0.56-2.472,1.183-5.21,1.867c-9.917,2.477-14.453,0.45-18.732-8.575c-2.965-6.254-3.298-12.926-8.061-18.272
					C583.712,150.061,582.981,150.667,583.381,151.148L583.381,151.148z"/>
			</g>
			<g>
				<path fill="#BDB898" d="M641.09,196.907c3.709,0.293,10.761-3.715,12.501,1.446c0.311,0.923,1.8,0.53,1.647-0.429
					c-1.066-6.674-10.516-1.907-14.088-2.06C640.478,195.835,640.418,196.854,641.09,196.907L641.09,196.907z"/>
			</g>
			<g>
				<path fill="#BDB898" d="M598.064,188.792c6.836,2.727,9.155,6.842,11.442,13.135c0.574,1.581,0.787,3.552,1.953,4.889
					c3.815,4.372,10.476,1.976,15.534,2.709c6.527,0.946,18.45,9.214,22.046-0.527c0.216-0.586-0.622-0.845-0.89-0.319
					c-1.665,3.27-12.81,0.95-15.65,0.005c-1.666-0.555-3.356-1.024-5.098-1.289c-1.652-0.251-5.277,0.3-6.962-0.237
					c-4.392-1.401-7.503-4.833-9.741-8.039c-3.78-5.417-5.646-9.19-12.309-11.475C597.654,187.391,597.363,188.512,598.064,188.792
					L598.064,188.792z"/>
			</g>
		</g>
		<g>
			<path fill="#A39472" d="M470.017,149.843c-2.111,6.559-5.189,14.614-10.647,19.171c-5.246,4.38-9.623,1.93-14.329,4.393
				c-1.746,0.914-2.47,2.324-3.149,4.073c-0.839,2.162-0.074,3.495-0.302,5.819c-0.713,7.251-2.463,11.493-9.884,14.231
				c-1.003,0.37-0.489,1.89,0.52,1.749c3.846-0.537,6.875-2.133,9.211-5.348c1.794-2.469,1.875-4.436,2.668-7.153
				c0.105-1.203,0.068-2.408-0.11-3.616c1.272-6.031,4.132-8.66,8.582-7.886c4.86-2.345,7.516-3.22,11.148-7.982
				c3.937-5.162,6.274-10.73,7.826-16.986C471.766,149.437,470.297,148.972,470.017,149.843L470.017,149.843z"/>
		</g>
		<g>
			<path fill="#A39472" d="M491.77,172.092c-10.964,7.519-39.541,20.96-32.198,39.019c0.918,2.258,3.25,3.482,4.145,5.457
				c2.748,1.481,3.03,3.632,0.846,6.452c0.217,2.515-0.62,4.344-2.51,5.485c-1.277,1.611-3.657,2.799-5.276,4.054
				c-5.919,4.585-11.35,8.441-12.885,16.045c-0.081,0.4,0.493,0.535,0.663,0.193c4.038-8.118,10.551-12.32,17.339-17.82
				c3.146-2.549,7.401-5.337,7.219-9.769c-0.103-2.512-0.677-0.948-1.814-3.927c-4.561-11.95-9.232-16.257,1.323-26.232
				c7.083-6.694,15.975-12.039,23.815-17.821C493.108,172.734,492.478,171.607,491.77,172.092L491.77,172.092z"/>
		</g>
		<g>
			<path fill="#A39472" d="M486.769,188.587c-6.06,3.749-12.278,9.102-11.944,16.946c0.124,2.903,1.272,4.412,2.444,6.897
				c2.725,5.778,10.736-4.703,4.638,13.734c-1.086,3.285-4.622,6.354-6.844,8.875c-0.592,0.672,0.324,1.512,0.985,0.949
				c4.361-3.708,9.482-9.635,8.63-15.821c-0.352-2.557-1.842-3.6-2.947-5.685c-1.674-3.158-5.103-11.31-3.935-15.413
				c1.149-4.038,6.436-7.304,9.64-9.345C488.151,189.269,487.493,188.14,486.769,188.587L486.769,188.587z"/>
		</g>
	</g>
	<g>
		<g>
			<path fill="#8AB7BF" d="M665.997,200.119c7.631,26.14,18.091,51.504,25.96,77.622c7.887,26.179,14.328,52.676,20.98,79.182
				c0.213,0.85,1.452,0.463,1.29-0.372c-5.189-26.762-12.393-53.232-20.169-79.348c-7.723-25.936-15.269-53.086-26.877-77.578
				C666.863,198.955,665.794,199.424,665.997,200.119L665.997,200.119z"/>
		</g>
		<g>
			<path fill="#8AB7BF" d="M736.132,434.024c-0.124,18.174-6.841,30.561-13.282,46.714c-5.397,13.536-4.555,30.55-5.057,44.841
				c-0.025,0.717,1.179,0.888,1.273,0.152c2.389-18.572,2.207-36.416,10.448-53.547c5.869-12.201,8.096-24.596,7.61-38.09
				C737.102,433.468,736.137,433.373,736.132,434.024L736.132,434.024z"/>
		</g>
		<g>
			<path fill="#8AB7BF" d="M716.902,525.794c-5.354,10.75-11.237,19.85-22.953,23.98c-0.61,0.215-0.597,1.224,0.143,1.2
				c12.45-0.399,19.423-14.884,23.83-24.561C718.233,525.73,717.249,525.098,716.902,525.794L716.902,525.794z"/>
		</g>
		<g>
			<path fill="#8AB7BF" d="M697.29,376.377c3.064,10.743,6.116,21.523,10.089,31.974c4.826,12.694,17.783,28.367,15.044,42.268
				c-0.061,0.308,0.423,0.488,0.539,0.177c2.703-7.286,0.593-13.127-2.908-19.821c-9.365-17.909-16.401-35.706-22.135-54.831
				C697.795,375.728,697.172,375.965,697.29,376.377L697.29,376.377z"/>
		</g>
		<g>
			<path fill="#8AB7BF" d="M696.635,434.232c2.398,8.758,0.777,17.828,2.903,26.589c1.832,7.549,6.636,13.658,11.831,19.245
				c0.585,0.629,1.644-0.301,1.136-0.986c-6.209-8.373-11.23-15.764-12.141-26.422c-0.547-6.406-0.621-12.501-2.614-18.682
				C697.527,433.285,696.438,433.513,696.635,434.232L696.635,434.232z"/>
		</g>
		<g>
			<path fill="#8AB7BF" d="M700.605,552.397c-4.934,17.439-6.508,39.458-25.688,46.599c-14.815,5.516-30.427,1.92-42.886-7.129
				c-0.822-0.597-1.797,0.515-1.032,1.212c12.044,10.963,29.525,13.949,44.792,8.298c20.984-7.768,21.635-28.995,26.503-48.315
				C702.573,551.955,700.927,551.26,700.605,552.397L700.605,552.397z"/>
		</g>
		<g>
			<path fill="#8AB7BF" d="M651.842,602.882c-14.953,12.521-41.627,24.761-61.496,21.675c-22.245-3.456-30.144-25.203-39.535-42.407
				c-0.308-0.564-1.292-0.241-1.084,0.41c5.654,17.722,16.45,37.725,35.527,43.425c21.71,6.487,51.865-7.201,67.613-21.726
				C653.663,603.524,652.701,602.162,651.842,602.882L651.842,602.882z"/>
		</g>
		<g>
			<path fill="#8AB7BF" d="M562.823,608.573c-15.144-8.845-25.49-22.957-30.616-39.632c-0.154-0.499-0.983-0.242-0.874,0.264
				c3.794,17.617,15.16,31.834,30.854,40.465C562.902,610.064,563.53,608.986,562.823,608.573L562.823,608.573z"/>
		</g>
		<g>
			<path fill="#8AB7BF" d="M556.489,604.178c-14.329,6.801-26.901,5.701-40.403-3.139c-0.504-0.33-1.095,0.345-0.694,0.801
				c10.086,11.471,29.971,12.979,42.067,3.913C558.308,605.117,557.444,603.725,556.489,604.178L556.489,604.178z"/>
		</g>
		<g>
			<path fill="#8AB7BF" d="M622.797,584.041c-6.316-8.288-10.696-17.386-14.481-27.044c-0.2-0.509-1.048-0.245-0.917,0.291
				c2.484,10.143,7.753,19.37,14.195,27.504C622.152,585.496,623.353,584.771,622.797,584.041L622.797,584.041z"/>
		</g>
		<g>
			<path fill="#8AB7BF" d="M555.742,536.69c-6.122,8.287-8.086,19.33-5.801,29.292c0.16,0.698,1.273,0.557,1.247-0.166
				c-0.377-10.287,1.664-19.012,6.015-28.257C557.613,536.688,556.318,535.91,555.742,536.69L555.742,536.69z"/>
		</g>
		<g>
			<path fill="#8AB7BF" d="M544.026,528.618c-16.089-4.707-23.394,14.079-25.546,26.402c-0.107,0.61,0.909,0.781,1.069,0.188
				c3.03-11.273,8.475-29.687,24.15-25.571C544.359,529.809,544.692,528.812,544.026,528.618L544.026,528.618z"/>
		</g>
		<g>
			<path fill="#8AB7BF" d="M506.839,575.619c2.431,10.63,11.392,20.768,22.777,21.706c0.757,0.062,0.825-1.07,0.152-1.273
				c-10.477-3.17-19.041-9.565-21.998-20.595C507.615,574.878,506.702,575.019,506.839,575.619L506.839,575.619z"/>
		</g>
		<g>
			<path fill="#8AB7BF" d="M557.538,547.189c8.359,25.412,19.374,53.55,47.098,62.561c0.784,0.255,1.075-0.947,0.321-1.227
				c-26.828-9.973-37.21-36.69-46.215-61.646C558.473,546.134,557.285,546.421,557.538,547.189L557.538,547.189z"/>
		</g>
		<g>
			<path fill="#8AB7BF" d="M612.995,542.766c14.254-3.343,27.179-6.392,41.818-3.247c11.698,2.513,21.861,6.841,34.016,4.858
				c1.456-0.238,1.452-2.482-0.104-2.361c-16.081,1.251-30.381-7.231-46.261-7.306c-10.248-0.048-20.319,3.099-29.898,6.409
				C611.661,541.432,612.036,542.991,612.995,542.766L612.995,542.766z"/>
		</g>
		<g>
			<path fill="#8AB7BF" d="M643.378,291.751c17.578,23.173,32.679,47.583,47.365,72.641c0.363,0.62,1.309,0.14,0.995-0.513
				c-12.559-26.118-29.135-50.451-47.314-72.952C643.951,290.34,642.919,291.145,643.378,291.751L643.378,291.751z"/>
		</g>
		<g>
			<path fill="#8AB7BF" d="M697.729,562.777c15.606,65.288,24.25,128.738,18.505,195.909c-0.1,1.166,1.872,1.516,2.068,0.331
				c10.746-64.758-2.04-134.06-19.37-196.552C698.718,561.692,697.542,561.997,697.729,562.777L697.729,562.777z"/>
		</g>
		<g>
			<path fill="#8AB7BF" d="M717.023,532.358c7.191,34.678,15.425,69.411,26.681,103.024c0.296,0.885,1.612,0.457,1.374-0.437
				c-9.129-34.283-18.73-68.378-26.787-102.943C718.098,531.17,716.852,531.534,717.023,532.358L717.023,532.358z"/>
		</g>
		<g>
			<path fill="#8AB7BF" d="M717.867,764.367c10.711-20.062,18.919-42.21,20.761-65.032c0.086-1.065-1.435-1.302-1.649-0.244
				c-4.573,22.625-10.038,43.776-20.21,64.64C716.416,764.458,717.479,765.094,717.867,764.367L717.867,764.367z"/>
		</g>
		<g>
			<path fill="#8AB7BF" d="M738.404,702.143c-1.152,5.342-1.207,18.792,8.391,15.302c3.396-1.235,6.022-11.265,11.021-7.322
				c2.766,2.182-2.655,11.098,1.72,13.513c2.517,1.389,3.47-0.259,5.821-1.534c0.812-0.44,0.878-2.023,1.661-2.432
				c14.041-7.344,4.831-0.421,8.104,2.046c2.017,1.52,1.788,2.831,4.659,2.746c5.412-0.16,6.986-8.355,13.478-6.954
				c0.721,0.156,1.222-0.968,0.482-1.267c-2.927-1.183-4.415-0.124-7.003,1.424c-5.288,3.164-3.599,7.205-11.087-0.751
				c-0.496-0.527-0.244-1.985-0.973-2.426c-3.204-1.938-3.02-1.522-6.256-0.136c-2.762,1.183-2.286,10.777-8.899,5.516
				c-1.176-0.936-0.161-11.419-0.186-13.176c-0.004-0.277-0.209-0.517-0.442-0.639c-2.328-1.221-3.172-1.014-5.478,0.18
				c-1.55,0.803-0.944,1.494-2.555,2.711c-0.588,0.87-1.017,1.828-1.287,2.873c-9.737,1.284-13.051-1.834-9.943-9.353
				C739.773,701.672,738.578,701.337,738.404,702.143L738.404,702.143z"/>
		</g>
		<g>
			<path fill="#8AB7BF" d="M758.098,710.734c-1.102-13.668-2.779-27.456-6.253-40.739c-0.178-0.681-1.199-0.464-1.069,0.231
				c2.521,13.498,4.981,26.749,6.204,40.467C757.043,711.398,758.156,711.455,758.098,710.734L758.098,710.734z"/>
		</g>
		<g>
			<path fill="#8AB7BF" d="M777.551,717.604c-8.143-27.112-13.918-54.46-18.18-82.418c-0.135-0.882-1.513-0.859-1.416,0.064
				c2.941,28.125,9.373,55.875,18.437,82.638C776.635,718.606,777.774,718.348,777.551,717.604L777.551,717.604z"/>
		</g>
		<g>
			<path fill="#8AB7BF" d="M734.58,460.824c9.58,41.362,13.097,82.66,13.782,125.014c0.016,0.964,1.413,0.834,1.465-0.086
				c2.38-41.946-3.478-84.76-13.915-125.333C735.687,459.546,734.379,459.958,734.58,460.824L734.58,460.824z"/>
		</g>
		<g>
			<path fill="#8AB7BF" d="M594.693,629.567c-16.116,16.736-32.693,32.773-50.307,47.936c-0.548,0.472,0.194,1.462,0.78,1.018
				c18.557-14.056,35.965-29.783,51.61-47.029C597.857,630.3,595.819,628.398,594.693,629.567L594.693,629.567z"/>
		</g>
		<g>
			<path fill="#8AB7BF" d="M673.123,602.707c-24.139,58.734-65.945,100.66-125.299,123.571c-0.605,0.234-0.226,1.242,0.394,1.064
				c57.265-16.456,109.446-66.529,126.484-123.963C675.008,602.348,673.554,601.66,673.123,602.707L673.123,602.707z"/>
		</g>
		<g>
			<path fill="#8AB7BF" d="M524.361,719.358c17.708-2.687,34.402-8.907,48.999-19.374c0.423-0.303-0.052-0.9-0.48-0.635
				c-15.094,9.35-31.11,16.059-48.623,19.219C523.755,718.66,523.852,719.435,524.361,719.358L524.361,719.358z"/>
		</g>
		<g>
			<path fill="#8AB7BF" d="M508.897,785.135c3.553,5.629,11.795,2.678,17.137,1.669c10.982-2.074,21.811-5.182,32.068-9.636
				c0.644-0.28,0.207-1.37-0.46-1.144c-8.28,2.8-16.461,5.562-24.994,7.587c-5.497,1.304-18.574,5.819-23.022,0.924
				C509.208,784.073,508.58,784.633,508.897,785.135L508.897,785.135z"/>
		</g>
		<g>
			<path fill="#8AB7BF" d="M469.602,938.161c39.633-1.567,72.561-27.059,100.722-52.755c0.882-0.804-0.23-2.206-1.174-1.45
				c-30.112,24.131-59.378,49.289-99.591,52.837C468.69,936.871,468.714,938.196,469.602,938.161L469.602,938.161z"/>
		</g>
		<g>
			<path fill="#8AB7BF" d="M573.2,880.028c63.128-16.65,121.766-69.141,139.358-133.053c0.25-0.909-1.24-1.318-1.586-0.458
				c-25.525,63.442-72.13,111.559-138.413,131.921C571.486,878.766,572.157,880.303,573.2,880.028L573.2,880.028z"/>
		</g>
		<g>
			<path fill="#8AB7BF" d="M691.049,596.005c4.022,54.053-15.431,105.291-43.417,150.655c-12.72,20.618-27.029,40.23-41.651,59.528
				c-14.556,19.211-30.051,37.698-49.399,52.279c-0.886,0.667,0.12,2.007,1.024,1.377c20.119-14.016,35.563-32.592,50.275-52.012
				c16.555-21.852,32.644-44.188,46.485-67.88c25.476-43.611,42.835-92.844,37.851-143.919
				C692.146,595.299,690.992,595.247,691.049,596.005L691.049,596.005z"/>
		</g>
		<g>
			<path fill="#8AB7BF" d="M736.353,715.189c-6.997,50.262-9.836,101.393-12.031,152.061c-2.204,50.864-3.038,101.955-1.011,152.84
				c0.03,0.761,1.193,0.795,1.194,0.02c0.051-50.008,0.245-99.964,2.271-149.942c2.099-51.771,6.945-103.249,10.57-154.909
				C737.39,714.616,736.44,714.56,736.353,715.189L736.353,715.189z"/>
		</g>
		<g>
			<path fill="#8AB7BF" d="M701.377,1103.108c10.118-28.081,15.977-57.442,15.91-87.348c-0.002-0.734-1.109-0.773-1.143-0.034
				c-1.378,29.848-6.14,58.746-15.837,87.055C700.073,1103.463,701.134,1103.784,701.377,1103.108L701.377,1103.108z"/>
		</g>
		<g>
			<path fill="#8AB7BF" d="M660.827,1109.993c34.965-82.591,28.872-175.639,19.455-262.807c-0.066-0.612-0.973-0.435-0.931,0.161
				c6.264,88.115,14.807,178.471-19.62,262.318C659.451,1110.347,660.543,1110.663,660.827,1109.993L660.827,1109.993z"/>
		</g>
		<g>
			<path fill="#8AB7BF" d="M624.903,858.92c2.839,89.75-22.318,173.871-69.018,249.985c-0.562,0.917,0.696,1.989,1.344,1.068
				c50.609-71.954,74.136-163.816,69.236-251.187C626.407,857.775,624.871,857.916,624.903,858.92L624.903,858.92z"/>
		</g>
		<g>
			<path fill="#8AB7BF" d="M612.247,864.663c1.092,32.628-0.77,62.775-11.767,93.808c-0.33,0.932,1.03,1.62,1.415,0.672
				c11.849-29.159,17.727-63.394,11.116-94.575C612.908,864.08,612.23,864.167,612.247,864.663L612.247,864.663z"/>
		</g>
		<g>
			<path fill="#8AB7BF" d="M408.236,1100.748c17.372-21.217,32.701-44.754,42.891-70.306c0.324-0.812-0.831-1.481-1.228-0.656
				c-12.031,24.975-25.449,48.344-42.98,69.902C406.231,1100.533,407.547,1101.59,408.236,1100.748L408.236,1100.748z"/>
		</g>
		<g>
			<path fill="#8AB7BF" d="M428.447,1119.563c11.867-14.281,22.27-31.759,30.31-48.442c0.461-0.956-1.09-1.779-1.653-0.88
				c-10.014,15.998-20.457,32.114-29.776,48.514C426.947,1119.426,427.938,1120.175,428.447,1119.563L428.447,1119.563z"/>
		</g>
	</g>
	<g>
		<g>
			<path fill="#AB654E" d="M522.919,157.516c0.654,1.949,2.087,3.416,4.056,4.046c1.6,0.512,3.766,0.62,4.942-0.804
				c0.299-0.362,0.179-1.016-0.385-1.012c-1.461,0.009-2.878,0.341-4.293-0.2c-1.311-0.501-2.397-1.355-3.06-2.597
				C523.806,156.249,522.669,156.77,522.919,157.516L522.919,157.516z"/>
		</g>
		<g>
			<path fill="#AB654E" d="M531.947,158.989c-1.128-0.8-2.082-2.073-2.606-3.354c-0.315-0.772-1.62-0.596-1.496,0.315
				c0.285,2.093,1.367,3.472,3.239,4.447C531.909,160.827,532.715,159.533,531.947,158.989L531.947,158.989z"/>
		</g>
		<g>
			<path fill="#AB654E" d="M522.009,158.718c-0.103,7.325,1.745,15.561,4.516,22.318c0.318,0.775,1.709,0.584,1.518-0.33
				c-1.523-7.311-3.037-14.866-4.953-22.08C522.936,158.048,522.018,158.072,522.009,158.718L522.009,158.718z"/>
		</g>
		<g>
			<path fill="#AB654E" d="M475.395,259.755c15.783,3.129,32.529,2.304,48.214-0.909c0.702-0.144,0.457-1.153-0.231-1.069
				c-16.216,1.973-31.634,1.626-47.849,0.629C474.754,258.358,474.642,259.606,475.395,259.755L475.395,259.755z"/>
		</g>
		<g>
			<path fill="#AB654E" d="M556.036,254.594c7.949,1.002,15.225-6.662,21.443-10.775c9.926-6.566,20.028-12.96,29.458-20.233
				c0.465-0.359-0.057-1.155-0.572-0.863c-8.612,4.87-16.791,10.441-25.035,15.901c-6.964,4.612-16.531,14.148-25.19,14.52
				C555.33,253.178,555.195,254.488,556.036,254.594L556.036,254.594z"/>
		</g>
		<g>
			<path fill="#AB654E" d="M470.464,375.443c15.037,4.883,30.169,10.31,46.231,9.484c17.353-0.893,35.027-6.813,52.057-10.148
				c1.318-0.258,0.845-2.195-0.455-2.013c-15.962,2.234-31.63,7.024-47.589,8.861c-16.804,1.935-33.945-2.622-49.918-7.332
				C470.052,374.077,469.734,375.206,470.464,375.443L470.464,375.443z"/>
		</g>
		<g>
			<path fill="#AB654E" d="M593.256,294.966c14.817,27.776,23.688,57.157,27.81,88.328c0.085,0.642,1.038,0.445,0.978-0.183
				c-2.979-31.223-12.75-61.205-27.774-88.676C593.916,293.788,592.909,294.315,593.256,294.966L593.256,294.966z"/>
		</g>
		<g>
			<path fill="#AB654E" d="M635.233,404.552c8.751,20.587,3.064,46.75,17.856,64.805c0.369,0.45,1.163-0.054,0.863-0.572
				c-11.743-20.305-8.337-43.727-17.8-64.675C635.88,403.508,634.977,403.95,635.233,404.552L635.233,404.552z"/>
		</g>
		<g>
			<path fill="#AB654E" d="M561.258,395.046c2.579,7.245,6.146,13.775,11.66,19.249c9.102,9.037,19.615,12.18,22.961,26.215
				c4.026,16.889,9.614,30.535,26.975,37.624c0.668,0.273,1.091-0.821,0.478-1.162c-11.243-6.258-19.911-14.875-23.505-27.479
				c-1.745-6.117-1.8-12.915-4.871-18.617c-2.79-5.18-6.93-7.684-11.646-10.974c-9.717-6.779-16.369-13.802-20.762-25.228
				C562.242,393.876,560.966,394.225,561.258,395.046L561.258,395.046z"/>
		</g>
		<g>
			<path fill="#AB654E" d="M521.586,423.907c8.154,5.422,17.352,10.198,27.187,11.423c0.86,0.107,1.132-1.01,0.313-1.306
				c-9.241-3.343-18.313-6.237-26.864-11.215C521.51,422.395,520.911,423.458,521.586,423.907L521.586,423.907z"/>
		</g>
		<g>
			<path fill="#AB654E" d="M533.473,444.323c2.457,5.554,6.528,10.97,12.086,13.697c0.714,0.35,1.243-0.573,0.625-1.046
				c-4.838-3.704-8.999-7.597-11.717-13.164C534.149,443.158,533.184,443.67,533.473,444.323L533.473,444.323z"/>
		</g>
		<g>
			<path fill="#AB654E" d="M851.018,1100.003c5.099-0.214,10.179-0.403,15.25-0.846c2.563-0.224,6.089-0.768,8.595-0.069
				c4.813,1.343,4.411,5.819,6.171,9.242c0.31,0.603,1.237,0.328,1.357-0.264c3.582-17.615-22.942-10.286-31.387-9.357
				C850.194,1098.799,850.17,1100.039,851.018,1100.003L851.018,1100.003z"/>
		</g>
		<g>
			<path fill="#9D543D" d="M795.942,568.807c-2.273,5.61-3.935,11.314-4.527,17.35c-0.449,4.565,0.76,10.103-0.644,14.433
				c-1.52,4.688-6.446,6.395-10.497,8.331c-0.568,0.271-0.236,1.087,0.348,1.002c5.081-0.737,9.782-2.506,11.811-7.558
				c1.37-3.41,0.842-7.156,0.844-10.741c0.004-7.653,1.355-14.874,3.974-22.153C797.562,568.606,796.302,567.918,795.942,568.807
				L795.942,568.807z"/>
		</g>
		<g>
			<path fill="#9D543D" d="M795.074,577.107c0.184-0.191,0.586-0.264,0.817-0.414c0.451-0.294,0.889-0.89,1.246-1.295
				c0.674-0.763,1.333-1.558,1.94-2.377c0.231-0.312-0.107-0.813-0.485-0.626c-0.992,0.491-1.94,1.159-2.712,1.959
				c-0.373,0.387-0.997,1.005-1.172,1.516c-0.115,0.336-0.006,0.564-0.198,0.889C794.304,577.103,794.829,577.361,795.074,577.107
				L795.074,577.107z"/>
		</g>
		<g>
			<path fill="#AB654E" d="M446.538,476.857c3.369,0.042,6.962,0.423,10.297-0.094c0.6-0.093,0.61-1.106,0.006-1.202
				c-3.348-0.531-6.975-0.138-10.355-0.095C445.585,475.476,445.644,476.845,446.538,476.857L446.538,476.857z"/>
		</g>
		<g>
			<path fill="#AB654E" d="M415.438,363.001c0.823,6.161,3.478,11.538,8.316,15.483c0.423,0.345,1.019-0.309,0.649-0.709
				c-3.936-4.254-6.835-9.287-7.85-15.031C416.423,362.01,415.342,362.282,415.438,363.001L415.438,363.001z"/>
		</g>
		<g>
			<path fill="#AB654E" d="M445.72,641.235c3.847,13.093,1.93,24.471-0.433,37.529c-0.17,0.939,1.149,1.266,1.559,0.462
				c5.94-11.641,4.294-26.427,0.077-38.303C446.66,640.18,445.491,640.456,445.72,641.235L445.72,641.235z"/>
		</g>
		<g>
			<path fill="#AB654E" d="M445.683,681.479c2.139,6.253,5.496,14.84,13.385,14.899c0.529,0.004,0.775-0.817,0.197-0.967
				c-7.096-1.833-9.926-7.99-12.249-14.337C446.709,680.238,445.391,680.626,445.683,681.479L445.683,681.479z"/>
		</g>
		<g>
			<path fill="#AB654E" d="M446.882,719.02c6.878,2.721,20.543,1.616,21.033-8.211c0.052-1.05-1.29-1.342-1.747-0.428
				c-4.12,8.229-10.642,8.238-18.804,7.346C446.662,717.65,446.084,718.704,446.882,719.02L446.882,719.02z"/>
		</g>
		<g>
			<path fill="#AB654E" d="M467.698,712.406c3.599-0.856,6.203-3.24,7.593-6.667c1.225-3.022,1.598-7.257-0.986-9.636
				c-0.516-0.475-1.374,0.006-1.308,0.68c0.264,2.698,0.923,4.962,0.054,7.659c-0.914,2.835-2.989,5.175-5.73,6.38
				C466.519,711.174,466.744,712.632,467.698,712.406L467.698,712.406z"/>
		</g>
		<g>
			<path fill="#AB654E" d="M460.502,696.096c2.358-0.311,4.536-1.497,6.95-1.439c2.444,0.058,3.7,1.464,5.476,2.906
				c0.45,0.366,1.225,0.148,1.301-0.473c0.331-2.726-2.134-4.386-4.522-4.973c-3.286-0.808-7.241,0.304-9.769,2.496
				C459.36,695.114,459.622,696.212,460.502,696.096L460.502,696.096z"/>
		</g>
		<g>
			<path fill="#AB654E" d="M477.388,726.223c2.607-5.783,2.954-15.677-2.553-20.038c-0.567-0.449-1.361,0.03-1.177,0.748
				c0.866,3.382,2.702,6.145,3.109,9.718c0.349,3.06,0.059,6.104-0.646,9.09C475.948,726.471,477.063,726.943,477.388,726.223
				L477.388,726.223z"/>
		</g>
		<g>
			<path fill="#AB654E" d="M471.103,688.317c4.826,0.163,8.104,2.283,11.955,4.91c0.845,0.577,1.781-0.392,1.241-1.235
				c-2.757-4.304-8.418-5.801-13.239-5.475C470.043,686.586,470.074,688.282,471.103,688.317L471.103,688.317z"/>
		</g>
		<g>
			<path fill="#AB654E" d="M476.953,670.862c2.452,0.022,4.792,0.9,6.732,2.409c2.24,1.743,3.201,4.162,4.39,6.644
				c0.376,0.784,1.616,0.669,1.713-0.251c0.695-6.577-6.922-11.286-12.744-10.84C475.776,668.922,475.604,670.85,476.953,670.862
				L476.953,670.862z"/>
		</g>
		<g>
			<path fill="#AB654E" d="M589.359,513.983c1.078,9.893,7.105,23.899,17.374,27.459c0.426,0.148,0.885-0.417,0.533-0.768
				c-3.365-3.366-7.402-5.783-10.342-9.661c-3.794-5.005-5.895-11-6.634-17.192C590.217,513.215,589.293,513.381,589.359,513.983
				L589.359,513.983z"/>
		</g>
	</g>
</g>
</svg>
